<svg xmlns="http://www.w3.org/2000/svg" width="600" height="2000" viewBox="0 0 158.75 529.167"><defs><path id="b" d="M102.459 286.969h176.774v48.735H102.459z"/><path id="a" d="M21.264 17.598h286.108v44.229H21.264z"/><path id="c" d="M102.459 286.969h176.774v48.735H102.459z"/><path id="d" d="M102.459 286.969h176.774v48.735H102.459z"/><path id="e" d="M102.459 286.969h176.774v48.735H102.459z"/></defs><path d="M34.943 150.153h52.652v52.652H34.943zM34.943 78.193h52.652v52.652H34.943zM24.532 16.347h52.652v52.652H24.532z" style="fill:#fff;stroke:#fff;stroke-width:.264583;stroke-dasharray:none;stroke-dashoffset:0"/><text xml:space="preserve" style="font-style:normal;font-weight:400;font-size:14.6667px;line-height:1.25;font-family:sans-serif;white-space:pre;shape-inside:url(#a);display:inline;fill:#000;fill-opacity:1;stroke:none" transform="scale(.26458)"><tspan x="21.264" y="30.574">circles.svg</tspan></text><path d="M29.498 46.76h5.694M32.345 49.606v-5.691M50.703 65.927l8.595-6.773 3.601-9.584 1.079-11.258-1.585-10.894-4.981-8.88" style="fill:none;stroke:#000;stroke-width:.264583px;stroke-linecap:butt;stroke-linejoin:miter;stroke-opacity:1"/><path d="m32.345 46.76 18.358 19.167M59.298 59.154 32.345 46.76M62.899 49.57l-30.554-2.81M63.978 38.312 32.345 46.76M62.393 27.418 32.345 46.76M57.412 18.538 32.345 46.76" style="fill:none;stroke:#000;stroke-width:.264583px;stroke-linecap:butt;stroke-linejoin:miter;stroke-dasharray:1,1;stroke-dashoffset:0;stroke-opacity:1"/><path d="M41.524 56.344c3.592-.79 2.909-2.538 3.762-3.758" style="fill:none;stroke:#f60;stroke-width:.529167;stroke-linecap:butt;stroke-linejoin:miter;stroke-opacity:1"/><text xml:space="preserve" style="font-size:14.6667px;line-height:1.25;font-family:sans-serif;white-space:pre;shape-inside:url(#b);display:inline;fill:#f60" transform="matrix(.26458 0 0 .26458 1.883 -18.634)"><tspan x="102.459" y="299.945">angle</tspan></text><path d="M50.493 107.548h5.693M53.34 110.394v-5.692M71.697 126.715l8.595-6.774 3.601-9.583L84.972 99.1l-1.585-10.894-4.981-8.879" style="fill:none;stroke:#000;stroke-width:.264583px;stroke-linecap:butt;stroke-linejoin:miter;stroke-opacity:1"/><path d="m53.34 107.548 18.357 19.167M80.292 119.941 53.34 107.548M83.893 110.358l-30.554-2.81M84.972 99.1l-31.633 8.448M83.387 88.205 53.34 107.548M78.406 79.326l-25.067 28.222" style="fill:none;stroke:#000;stroke-width:.264583px;stroke-linecap:butt;stroke-linejoin:miter;stroke-dasharray:1,1;stroke-dashoffset:0;stroke-opacity:1"/><text xml:space="preserve" style="font-size:14.6667px;line-height:1.25;font-family:sans-serif;white-space:pre;shape-inside:url(#c);display:inline;fill:#f60" transform="matrix(.26458 0 0 .26458 9.373 50.158)"><tspan x="102.459" y="299.945">amplitude-offset</tspan></text><path d="M71.697 126.715 53.34 107.548" style="fill:none;stroke:#f60;stroke-width:.52916666;stroke-linecap:butt;stroke-linejoin:miter;stroke-opacity:1"/><path d="M40.833 171.63h5.693M43.68 174.476v-5.691M62.038 190.797l8.595-6.773 6.17-9.32 2.026-12.626" style="fill:none;stroke:#000;stroke-width:.264583px;stroke-linecap:butt;stroke-linejoin:miter;stroke-opacity:1"/><path d="m43.68 171.63 18.358 19.167M70.633 184.024 43.68 171.63M76.803 174.704 43.68 171.63M78.83 162.078l-35.15 9.552" style="fill:none;stroke:#000;stroke-width:.264583px;stroke-linecap:butt;stroke-linejoin:miter;stroke-dasharray:1,1;stroke-dashoffset:0;stroke-opacity:1"/><text xml:space="preserve" style="font-size:14.6667px;line-height:1.25;font-family:sans-serif;white-space:pre;shape-inside:url(#d);display:inline;fill:#f60" transform="matrix(.26458 0 0 .26458 9.373 122.118)"><tspan x="102.459" y="299.945">amplitude-scale</tspan></text><path d="M69.802 157.945a29.491 29.487 0 0 1-4.718 33.97" style="fill:none;stroke:#ccc;stroke-width:.264583;stroke-dasharray:4,1;stroke-dashoffset:0"/><path d="m43.68 171.63 26.953 12.394M76.803 174.704l-3.757-.362" style="fill:none;stroke:#f60;stroke-width:.529167;stroke-linecap:butt;stroke-linejoin:miter;stroke-opacity:1"/><path d="M33.909 224.499h52.652v52.652H33.909z" style="fill:#fff;stroke:#fff;stroke-width:.264583;stroke-dasharray:none;stroke-dashoffset:0"/><text xml:space="preserve" style="font-size:14.6667px;line-height:1.25;font-family:sans-serif;white-space:pre;shape-inside:url(#e);display:inline;fill:#f60" transform="matrix(.26458 0 0 .26458 11.23 171.525)"><tspan x="102.459" y="299.945">default_param_blank</tspan></text></svg>