<svg xmlns="http://www.w3.org/2000/svg" width="288.04" height="312.454" viewBox="0 0 76.211 82.67"><defs><path id="a" d="M86.405 8251.748h70.081v57.682H86.405z"/><path id="j" d="M204.843 8338.396h83.853v42.639h-83.853z"/><path id="b" d="M343.183 8353.117h64.675v45.493h-64.675z"/><path id="c" d="M307.065 8197.744h48.525v24.999h-48.525z"/><path id="d" d="M79.05 8300.684h271.681v55.449H79.05z"/><path id="e" d="M251.717 8436.273h62.168v32.45h-62.168z"/><path id="f" d="M420.706 8448.941h77.717v48.312h-77.717z"/><path id="g" d="M439.933 9157.379h51.896v43.121h-51.896z"/><path id="h" d="M310.892 9159.202h33.539v27.888h-33.539z"/><path id="i" d="M307.065 8197.744h48.525v24.999h-48.525z"/><path id="k" d="M450.466 10459.747h41.233v38.021h-41.233z"/><path id="l" d="M423.248 10177.365h36.096v24.909h-36.096z"/><path id="m" d="M450.466 10459.747h59.679v39.079h-59.679z"/></defs><g transform="translate(-34.747 -3184.038)"><path d="M80.806 3196.141a44.646 44.646 0 0 1-42.304 44.585" style="fill:none;stroke:#faa;stroke-width:.264583"/><path d="M101.792 3239.443a44.675 44.675 0 0 1-32.121-16.607 44.675 44.675 0 0 1-9.308-34.942" style="fill:none;stroke:#faa;stroke-width:.264583"/><path d="M34.879 3184.17h75.946v82.406H34.879z" style="fill:#fff;stroke:#fff;stroke-width:.264583"/><text xml:space="preserve" style="font-size:14.6667px;line-height:1.25;font-family:sans-serif;white-space:pre;shape-inside:url(#a);display:inline" transform="matrix(.26458 0 0 .26458 18.97 1045.548)"><tspan x="86.404" y="8264.725">p1</tspan></text><text xml:space="preserve" style="font-size:14.6667px;line-height:1.25;font-family:sans-serif;white-space:pre;shape-inside:url(#b);display:inline" transform="matrix(.26458 0 0 .26458 13.482 1018.83)"><tspan x="343.182" y="8366.094">p3</tspan></text><text xml:space="preserve" style="font-size:14.6667px;line-height:1.25;font-family:sans-serif;white-space:pre;shape-inside:url(#c);display:inline;fill:green" transform="matrix(.26458 0 0 .26458 -6.333 1050.497)"><tspan x="307.064" y="8210.721">r</tspan></text><text xml:space="preserve" style="font-size:14.6667px;line-height:1.25;font-family:sans-serif;white-space:pre;shape-inside:url(#d);display:inline" transform="matrix(.26458 0 0 .26458 16.388 1059.48)"><tspan x="79.051" y="8313.66">construct cornerRounded(radius)
</tspan><tspan x="79.051" y="8331.993">case ext-arc-ext-arc</tspan></text><path d="M-2915.866 1314.109a33.9 33.9 0 0 1-25.958-1.024 33.9 33.9 0 0 1-17.611-19.096l31.824-11.68z" style="fill:none;stroke:#e6e6e6;stroke-width:.264583" transform="scale(-1 1) rotate(-64.483)"/><path d="m104.182 3194.42-51.462 45.936" style="fill:none;stroke:#b3b3b3;stroke-width:.264583px;stroke-linecap:butt;stroke-linejoin:miter;stroke-opacity:1"/><path d="m104.39 3194.464-25.498 22.667" style="fill:none;stroke:#00f;stroke-width:.264583px;stroke-linecap:butt;stroke-linejoin:miter;stroke-opacity:1"/><text xml:space="preserve" style="font-size:14.6667px;line-height:1.25;font-family:sans-serif;white-space:pre;shape-inside:url(#e);display:inline;fill:#00f" transform="matrix(.26458 0 0 .26458 18.301 971.842)"><tspan x="251.717" y="8449.25">r3</tspan></text><text xml:space="preserve" style="font-size:14.6667px;line-height:1.25;font-family:sans-serif;white-space:pre;shape-inside:url(#f);display:inline" transform="matrix(.26458 0 0 .26458 -75.236 954.773)"><tspan x="420.705" y="8461.918">p4</tspan></text><path d="M-2876.136 1467.65a34.173 34.173 0 0 1 16.227-36.143l17.29 29.477z" style="fill:none;stroke:#e6e6e6;stroke-width:.264583" transform="scale(-1 1) rotate(-62.156)"/><path d="M-2876.284 1467.605a34.173 34.173 0 0 1 16.345-36.211" style="fill:none;stroke:#000;stroke-width:.264583" transform="scale(-1 1) rotate(-62.156)"/><circle cx="70.894" cy="3224.07" r="10.634" style="fill:none;stroke:#d45500;stroke-width:.264583"/><path d="M92.494 3241.333 35.94 3196.05" style="fill:none;stroke:#ccc;stroke-width:.264583px;stroke-linecap:butt;stroke-linejoin:miter;stroke-opacity:1"/><path d="m62.575 3217.403-26.673-21.484" style="fill:none;stroke:teal;stroke-width:.264583px;stroke-linecap:butt;stroke-linejoin:miter;stroke-opacity:1"/><text xml:space="preserve" style="font-size:14.6667px;line-height:1.25;font-family:sans-serif;white-space:pre;shape-inside:url(#g);display:inline;fill:teal" transform="matrix(.26458 0 0 .26458 -63.138 782.934)"><tspan x="439.934" y="9170.355">r2</tspan></text><text xml:space="preserve" style="font-size:14.6667px;line-height:1.25;font-family:sans-serif;white-space:pre;shape-inside:url(#h);display:inline" transform="matrix(.26458 0 0 .26458 22.324 767.358)"><tspan x="310.893" y="9172.18">p5</tspan></text><path d="M-2915.814 1314.064a33.9 33.9 0 0 1-43.38-20.19" style="fill:none;stroke:#000;stroke-width:.264583" transform="scale(-1 1) rotate(-64.483)"/><path d="m70.92 3224.18 7.822-7.123M62.875 3217.536l8.091 6.627" style="fill:none;stroke:green;stroke-width:.264583px;stroke-linecap:butt;stroke-linejoin:miter;stroke-opacity:1"/><text xml:space="preserve" style="font-size:14.6667px;line-height:1.25;font-family:sans-serif;white-space:pre;shape-inside:url(#i);display:inline;fill:green" transform="matrix(.26458 0 0 .26458 -17.588 1050.52)"><tspan x="307.064" y="8210.721">r</tspan></text><path d="m35.958 3195.757 68.508-1.166" style="fill:none;stroke:#f0f;stroke-width:.264583px;stroke-linecap:butt;stroke-linejoin:miter;stroke-opacity:1"/><text xml:space="preserve" style="font-size:14.6667px;line-height:1.25;font-family:sans-serif;white-space:pre;shape-inside:url(#j);display:inline" transform="matrix(.26458 0 0 .26458 16.478 988.98)"><tspan x="204.844" y="8351.371">p2</tspan></text><text xml:space="preserve" style="font-size:12px;line-height:1.25;font-family:sans-serif;white-space:pre;shape-inside:url(#k);display:inline;fill:#f0f" transform="matrix(.26458 0 0 .26458 -53.058 423.861)"><tspan x="450.467" y="10470.363">1:l54</tspan></text><text xml:space="preserve" style="font-size:14.6667px;line-height:1.25;font-family:sans-serif;white-space:pre;shape-inside:url(#l);display:inline" transform="matrix(.26458 0 0 .26458 -43.898 531.508)"><tspan x="423.248" y="10190.342">p7</tspan></text><path d="M98.748 3194.827s-.479 1.235-.276 1.81c.259.734 1.72 1.577 1.72 1.577" style="fill:none;stroke:#f0f;stroke-width:.264583px;stroke-linecap:butt;stroke-linejoin:miter;stroke-opacity:1"/><text xml:space="preserve" style="font-size:12px;line-height:1.25;font-family:sans-serif;white-space:pre;shape-inside:url(#m);display:inline;fill:#f0f" transform="matrix(.26458 0 0 .26458 -32.003 428.086)"><tspan x="450.467" y="10470.363">2:a457</tspan></text></g></svg>