<svg xmlns="http://www.w3.org/2000/svg" width="288.04" height="395.802" viewBox="0 0 76.211 104.723"><defs><path id="a" d="M86.405 8251.748h70.081v57.682H86.405z"/><path id="b" d="M79.05 8300.684h282.307v47.641H79.05z"/><path id="c" d="M251.717 8436.273h62.168v32.45h-62.168z"/><path id="d" d="M420.706 8448.941h77.717v48.312h-77.717z"/><path id="e" d="M307.065 8197.744h48.525v24.999h-48.525z"/><path id="f" d="M450.466 10459.747h41.233v38.021h-41.233z"/><path id="g" d="M423.248 10177.365h36.096v24.909h-36.096z"/><path id="h" d="M343.183 8353.117h64.675v45.493h-64.675z"/><path id="i" d="M204.843 8338.396h83.853v42.639h-83.853z"/><path id="j" d="M378.935 12647.6h36.045v26.794h-36.045z"/><path id="k" d="M409.102 12687.542h48.255v47.365h-48.255z"/></defs><g transform="translate(-39.13 -3690.117)"><path d="M39.262 3690.249h75.946v104.458H39.262z" style="fill:#fff;stroke:#fff;stroke-width:.264583"/><path d="m57.411 3702.767 11.414 59.82" style="fill:none;stroke:#ccc;stroke-width:.264583px;stroke-linecap:butt;stroke-linejoin:miter;stroke-opacity:1"/><path d="M-3630.42 693.095a44.492 44.492 0 0 1-36.527-3.016 44.492 44.492 0 0 1-21.87-29.412" style="fill:none;stroke:#faa;stroke-width:.264583" transform="rotate(-80.767)"/><path d="m50.418 3772.726 13.424-36.784" style="fill:none;stroke:#000;stroke-width:.264583px;stroke-linecap:butt;stroke-linejoin:miter;stroke-opacity:1"/><text xml:space="preserve" style="font-size:14.6667px;line-height:1.25;font-family:sans-serif;white-space:pre;shape-inside:url(#a);display:inline" transform="matrix(.26458 0 0 .26458 21.823 1585.91)"><tspan x="86.404" y="8264.725">p1</tspan></text><circle cx="71.845" cy="3744.856" r="10.634" style="fill:none;stroke:#d45500;stroke-width:.264583"/><path d="m56.476 3739.253 23.6 8.579" style="fill:none;stroke:#b3b3b3;stroke-width:.264583px;stroke-linecap:butt;stroke-linejoin:miter;stroke-opacity:1"/><path d="m61.072 3743.36 2.05.75.735-2.237" style="fill:none;stroke:#666;stroke-width:.264583px;stroke-linecap:butt;stroke-linejoin:miter;stroke-opacity:1"/><text xml:space="preserve" style="font-size:14.6667px;line-height:1.25;font-family:sans-serif;white-space:pre;shape-inside:url(#b);display:inline" transform="matrix(.26458 0 0 .26458 19.105 1588.57)"><tspan x="79.051" y="8313.66">construct cornerRounded(radius)
</tspan><tspan x="79.051" y="8331.993">case stroke-ext-arc, obtuse, method-2</tspan></text><path d="M-3631.585 681.644a33.9 33.9 0 0 1-27.123.43 33.9 33.9 0 0 1-18.756-19.598l31.824-11.68z" style="fill:none;stroke:#e6e6e6;stroke-width:.264583" transform="rotate(-80.767)"/><path d="M-3631.665 681.497a33.9 33.9 0 0 1-27.124.43 33.9 33.9 0 0 1-18.755-19.599" style="fill:none;stroke:#000;stroke-width:.264583" transform="rotate(-80.767)"/><text xml:space="preserve" style="font-size:14.6667px;line-height:1.25;font-family:sans-serif;white-space:pre;shape-inside:url(#c);display:inline;fill:#00f" transform="matrix(.26458 0 0 .26458 -2.998 1484.405)"><tspan x="251.717" y="8449.25">r2</tspan></text><text xml:space="preserve" style="font-size:14.6667px;line-height:1.25;font-family:sans-serif;white-space:pre;shape-inside:url(#d);display:inline" transform="matrix(.26458 0 0 .26458 -59.719 1464.626)"><tspan x="420.705" y="8461.918">p5</tspan></text><path d="m85.864 3706.617-23.986 65.523" style="fill:none;stroke:#faa;stroke-width:.264583px;stroke-linecap:butt;stroke-linejoin:miter;stroke-opacity:1"/><text xml:space="preserve" style="font-size:14.6667px;line-height:1.25;font-family:sans-serif;white-space:pre;shape-inside:url(#e);display:inline;fill:green" transform="matrix(.26458 0 0 .26458 -11.027 1568.019)"><tspan x="307.064" y="8210.721">r</tspan></text><path d="m57.358 3702.841 14.4 42.11" style="fill:none;stroke:#00f;stroke-width:.264583px;stroke-linecap:butt;stroke-linejoin:miter;stroke-opacity:1"/><text xml:space="preserve" style="font-size:12px;line-height:1.25;font-family:sans-serif;white-space:pre;shape-inside:url(#f);display:inline;fill:#f0f" transform="matrix(.26458 0 0 .26458 -44.714 944.584)"><tspan x="450.467" y="10470.363">1:pB</tspan></text><text xml:space="preserve" style="font-size:14.6667px;line-height:1.25;font-family:sans-serif;white-space:pre;shape-inside:url(#g);display:inline" transform="matrix(.26458 0 0 .26458 -39.625 1049.1)"><tspan x="423.248" y="10190.342">p7</tspan></text><text xml:space="preserve" style="font-size:14.6667px;line-height:1.25;font-family:sans-serif;white-space:pre;shape-inside:url(#h);display:inline" transform="matrix(.26458 0 0 .26458 -6.75 1482.275)"><tspan x="343.182" y="8366.094">p3</tspan></text><text xml:space="preserve" style="font-size:14.6667px;line-height:1.25;font-family:sans-serif;white-space:pre;shape-inside:url(#i);display:inline" transform="matrix(.26458 0 0 .26458 6.073 1523.55)"><tspan x="204.844" y="8351.371">p2</tspan></text><path d="m71.771 3744.94-3.539-10.17" style="fill:none;stroke:green;stroke-width:.264583px;stroke-linecap:butt;stroke-linejoin:miter;stroke-opacity:1"/><text xml:space="preserve" style="font-size:14.6667px;line-height:1.25;font-family:sans-serif;white-space:pre;shape-inside:url(#j);display:inline;fill:#999" transform="matrix(.26458 0 0 .26458 -31.203 382.5)"><tspan x="378.936" y="12660.576">p9</tspan></text><text xml:space="preserve" style="font-size:14.6667px;line-height:1.25;font-family:sans-serif;white-space:pre;shape-inside:url(#k);display:inline;fill:#999" transform="matrix(.26458 0 0 .26458 -52.9 382.699)"><tspan x="409.102" y="12700.52">p8</tspan></text><path d="m85.553 3713.246-30.297-11.04" style="fill:none;stroke:#b3b3b3;stroke-width:.264584px;stroke-linecap:butt;stroke-linejoin:miter;stroke-opacity:1"/><path d="m84.542 3710.44-2.05-.75-.735 2.237" style="fill:none;stroke:#666;stroke-width:.264583px;stroke-linecap:butt;stroke-linejoin:miter;stroke-opacity:1"/></g></svg>