<svg xmlns="http://www.w3.org/2000/svg" width="324.937" height="331.863" viewBox="0 0 85.973 87.805"><defs><path id="n" d="M409.102 12687.542h48.255v47.365h-48.255z"/><path id="m" d="M378.935 12647.6h36.045v26.794h-36.045z"/><path id="a" d="M86.405 8251.748h70.081v57.682H86.405z"/><path id="l" d="M204.843 8338.396h83.853v42.639h-83.853z"/><path id="b" d="M343.183 8353.117h64.675v45.493h-64.675z"/><path id="c" d="M307.065 8197.744h48.525v24.999h-48.525z"/><path id="d" d="M79.05 8300.684h273.17v51.164H79.05z"/><path id="e" d="M251.717 8436.273h62.168v32.45h-62.168z"/><path id="f" d="M420.706 8448.941h77.717v48.312h-77.717z"/><path id="g" d="M450.466 10459.747h41.233v38.021h-41.233z"/><path id="h" d="M367.056 10442.883h32.883v25.01h-32.883z"/><path id="i" d="M423.248 10177.365h36.096v24.909h-36.096z"/><path id="j" d="M441.705 10454.384h116.487v28.209H441.705z"/><path id="k" d="M441.705 10454.384h120.366v46.747H441.705z"/></defs><g transform="translate(-30.179 -3334.174)"><path d="M30.311 3334.306h85.708v87.541H30.311z" style="fill:#fff;stroke:#fff;stroke-width:.264584"/><path d="M-2947.093 1627.402a23.12 23.12 0 0 1 13.298 18.074 23.12 23.12 0 0 1-8.303 20.846" style="fill:none;stroke:#faa;stroke-width:.264583" transform="rotate(-62.163)"/><path d="m61.519 3393.518 19.124-52.293" style="fill:none;stroke:#faa;stroke-width:.264583px;stroke-linecap:butt;stroke-linejoin:miter;stroke-opacity:1"/><path d="m51.52 3389.614 13.425-36.784" style="fill:none;stroke:#000;stroke-width:.264583px;stroke-linecap:butt;stroke-linejoin:miter;stroke-opacity:1"/><text xml:space="preserve" style="font-size:14.6667px;line-height:1.25;font-family:sans-serif;white-space:pre;shape-inside:url(#a);display:inline" transform="matrix(.26458 0 0 .26458 23.906 1204.4)"><tspan x="86.404" y="8264.725">p1</tspan></text><text xml:space="preserve" style="font-size:14.6667px;line-height:1.25;font-family:sans-serif;white-space:pre;shape-inside:url(#b);display:inline" transform="matrix(.26458 0 0 .26458 15.346 1165.22)"><tspan x="343.182" y="8366.094">p3</tspan></text><circle cx="73.102" cy="3361.51" r="10.634" style="fill:none;stroke:#d45500;stroke-width:.264583"/><path d="m57.8 3355.868 23.6 8.58" style="fill:none;stroke:#b3b3b3;stroke-width:.264583px;stroke-linecap:butt;stroke-linejoin:miter;stroke-opacity:1"/><text xml:space="preserve" style="font-size:14.6667px;line-height:1.25;font-family:sans-serif;white-space:pre;shape-inside:url(#c);display:inline;fill:green" transform="matrix(.26458 0 0 .26458 -11.37 1184.585)"><tspan x="307.064" y="8210.721">r</tspan></text><path d="m62.396 3359.975 2.05.75.735-2.236" style="fill:none;stroke:#666;stroke-width:.264583px;stroke-linecap:butt;stroke-linejoin:miter;stroke-opacity:1"/><text xml:space="preserve" style="font-size:14.6667px;line-height:1.25;font-family:sans-serif;white-space:pre;shape-inside:url(#d);display:inline" transform="matrix(.26458 0 0 .26458 11.82 1214.749)"><tspan x="79.051" y="8313.66">construct cornerRounded(radius)
</tspan><tspan x="79.051" y="8331.993">case stroke-int-arc, obtuse</tspan></text><path d="M-254.513-3343.847a33.9 33.9 0 0 1-27.124.43 33.9 33.9 0 0 1-18.755-19.599l31.824-11.68z" style="fill:none;stroke:#e6e6e6;stroke-width:.264583" transform="rotate(-176.758)"/><path d="M-254.545-3343.775a33.9 33.9 0 0 1-27.123.43 33.9 33.9 0 0 1-18.756-19.599" style="fill:none;stroke:#000;stroke-width:.264583" transform="rotate(-176.758)"/><path d="m71.332 3351.017 5.923 33.59" style="fill:none;stroke:#00f;stroke-width:.264583px;stroke-linecap:butt;stroke-linejoin:miter;stroke-opacity:1"/><text xml:space="preserve" style="font-size:14.6667px;line-height:1.25;font-family:sans-serif;white-space:pre;shape-inside:url(#e);display:inline;fill:#00f" transform="matrix(.26458 0 0 .26458 9.554 1139.65)"><tspan x="251.717" y="8449.25">r2</tspan></text><text xml:space="preserve" style="font-size:14.6667px;line-height:1.25;font-family:sans-serif;white-space:pre;shape-inside:url(#f);display:inline" transform="matrix(.26458 0 0 .26458 -38.618 1149.787)"><tspan x="420.705" y="8461.918">p5</tspan></text><text xml:space="preserve" style="font-size:12px;line-height:1.25;font-family:sans-serif;white-space:pre;shape-inside:url(#g);display:inline;fill:#f0f" transform="matrix(.26458 0 0 .26458 -57.203 598.39)"><tspan x="450.467" y="10470.363">1:pA</tspan></text><text xml:space="preserve" style="font-size:12px;line-height:1.25;font-family:sans-serif;white-space:pre;shape-inside:url(#h);display:inline;fill:#f0f" transform="matrix(.26458 0 0 .26458 -29.751 616.496)"><tspan x="367.057" y="10453.5">2:lA5</tspan></text><path d="m70.928 3368.099 6.444 16.444" style="fill:none;stroke:#f0f;stroke-width:.264583px;stroke-linecap:butt;stroke-linejoin:miter;stroke-opacity:1"/><text xml:space="preserve" style="font-size:14.6667px;line-height:1.25;font-family:sans-serif;white-space:pre;shape-inside:url(#i);display:inline" transform="matrix(.26458 0 0 .26458 -37.523 665.847)"><tspan x="423.248" y="10190.342">p7</tspan></text><text xml:space="preserve" style="font-size:12px;line-height:1.25;font-family:sans-serif;white-space:pre;shape-inside:url(#j);display:inline;fill:#f0f" transform="matrix(.26458 0 0 .26458 -65.182 586.964)"><tspan x="441.705" y="10465">3:a125</tspan></text><path d="M63.713 3356.905s1.161.45 1.744.343c.404-.074 1.045-.651 1.045-.651" style="fill:none;stroke:#f0f;stroke-width:.264583px;stroke-linecap:butt;stroke-linejoin:miter;stroke-opacity:1"/><text xml:space="preserve" style="font-size:12px;line-height:1.25;font-family:sans-serif;white-space:pre;shape-inside:url(#k);display:inline;fill:#f0f" transform="matrix(.26458 0 0 .26458 -43.255 600.238)"><tspan x="441.705" y="10465">4:aA=Pi-a125</tspan></text><text xml:space="preserve" style="font-size:14.6667px;line-height:1.25;font-family:sans-serif;white-space:pre;shape-inside:url(#l);display:inline" transform="matrix(.26458 0 0 .26458 8.01 1140.986)"><tspan x="204.844" y="8351.371">p2</tspan></text><path d="m71.347 3351.146 1.804 10.525" style="fill:none;stroke:green;stroke-width:.264583px;stroke-linecap:butt;stroke-linejoin:miter;stroke-opacity:1"/><path d="M71.912 3370.396s.789-1.244.775-1.94c-.02-.9-1.105-2.465-1.105-2.465" style="fill:none;stroke:#f0f;stroke-width:.264582px;stroke-linecap:butt;stroke-linejoin:miter;stroke-opacity:1"/><text xml:space="preserve" style="font-size:14.6667px;line-height:1.25;font-family:sans-serif;white-space:pre;shape-inside:url(#m);display:inline;fill:#999" transform="matrix(.26458 0 0 .26458 -29.932 -.14)"><tspan x="378.936" y="12660.576">p9</tspan></text><text xml:space="preserve" style="font-size:14.6667px;line-height:1.25;font-family:sans-serif;white-space:pre;shape-inside:url(#n);display:inline;fill:#999" transform="matrix(.26458 0 0 .26458 -51.108 -.16)"><tspan x="409.102" y="12700.52">p8</tspan></text><path d="M74.093 3376.16s.198-.628.47-.725c.374-.135 1.138.357 1.138.357" style="fill:none;stroke:#fc0;stroke-width:.529167;stroke-linecap:butt;stroke-linejoin:miter;stroke-opacity:1"/></g></svg>