<svg xmlns="http://www.w3.org/2000/svg" width="332.578" height="249.505" viewBox="0 0 87.995 66.015"><defs><path id="f" d="M134.381 6781.707h288.51v49.48h-288.51z"/><path id="d" d="M321.581 6735.533h51.929v33.178h-51.929z"/><path id="c" d="M155.641 6737.967h38.968v33.484h-38.968z"/><path id="b" d="M216.306 6731.907h47.567v21.466h-47.567z"/><path id="e" d="M216.306 6731.907h47.567v21.466h-47.567z"/><path id="a" d="M134.381 6781.707h288.51v49.48h-288.51z"/></defs><g transform="translate(-16.19 -1736.436)"><path d="M16.321 1736.568h87.73v65.75h-87.73z" style="fill:#fff;stroke:#fff;stroke-width:.264583"/><text xml:space="preserve" style="font-size:14.6667px;line-height:1.25;font-family:sans-serif;white-space:pre;shape-inside:url(#a);display:inline" transform="matrix(.26458 0 0 .26458 -16.378 -56.7)"><tspan x="134.381" y="6794.684">tangential two arcs : impossible case</tspan></text><circle cx="47.641" cy="1777.92" r="6.053" style="fill:none;stroke:#999;stroke-width:.264583"/><ellipse cx="63.757" cy="1757.959" rx="14.667" ry="14.509" style="fill:none;stroke:#999;stroke-width:.264583"/><path d="m20.13 1778.5 77.618-15.63" style="fill:none;stroke:#ccc;stroke-width:.264583px;stroke-linecap:butt;stroke-linejoin:miter;stroke-opacity:1"/><path d="m20.13 1778.5 22.82-4.53M74.929 1767.401l22.82-4.53" style="fill:none;stroke:navy;stroke-width:.264583px;stroke-linecap:butt;stroke-linejoin:miter;stroke-opacity:1"/><path d="m42.963 1773.981 18.002-23.603M74.929 1767.401l8.541-11.229" style="fill:none;stroke:#d45500;stroke-width:.264583px;stroke-linecap:butt;stroke-linejoin:miter;stroke-opacity:1"/><path d="M42.976 1773.972H58.67M74.903 1767.663h15.694" style="fill:none;stroke:#999;stroke-width:.264583px;stroke-linecap:butt;stroke-linejoin:miter;stroke-opacity:1"/><path d="M45.224 1771.168s1.926-.14 2.419.522c.45.604-.18 2.253-.18 2.253" style="fill:none;stroke:#f60;stroke-width:.264583px;stroke-linecap:butt;stroke-linejoin:miter;stroke-opacity:1"/><text xml:space="preserve" style="font-size:14.6667px;line-height:1.25;font-family:sans-serif;white-space:pre;shape-inside:url(#b);display:inline" transform="matrix(.26458 0 0 .26458 -9.49 -12.768)"><tspan x="216.307" y="6744.883">a1</tspan></text><text xml:space="preserve" style="font-size:14.6667px;line-height:1.25;font-family:sans-serif;white-space:pre;shape-inside:url(#c);display:inline" transform="matrix(.26458 0 0 .26458 -1.776 -8.217)"><tspan x="155.641" y="6750.943">p1</tspan></text><text xml:space="preserve" style="font-size:14.6667px;line-height:1.25;font-family:sans-serif;white-space:pre;shape-inside:url(#d);display:inline" transform="matrix(.26458 0 0 .26458 -10.723 -13.838)"><tspan x="321.582" y="6748.51">p2</tspan></text><path d="M76.757 1765.044s1.926-.14 2.419.522c.45.605-.18 2.253-.18 2.253" style="fill:none;stroke:#f60;stroke-width:.264583px;stroke-linecap:butt;stroke-linejoin:miter;stroke-opacity:1"/><text xml:space="preserve" style="font-size:14.6667px;line-height:1.25;font-family:sans-serif;white-space:pre;shape-inside:url(#e);display:inline" transform="matrix(.26458 0 0 .26458 21.713 -19.155)"><tspan x="216.307" y="6744.883">a2</tspan></text><path d="m67.862 1792.827-24.845-18.95" style="fill:none;stroke:#803300;stroke-width:.264582px;stroke-linecap:butt;stroke-linejoin:miter;stroke-opacity:1"/><path d="m74.824 1767.546-25.448-19.412M44.258 1772.264l1.686 1.205-1.108 1.593M73.192 1766.506l1.205-1.686 1.593 1.108" style="fill:none;stroke:#803300;stroke-width:.264583px;stroke-linecap:butt;stroke-linejoin:miter;stroke-opacity:1"/><text xml:space="preserve" style="font-size:14.6667px;line-height:1.25;font-family:sans-serif;white-space:pre;shape-inside:url(#f);display:inline" transform="matrix(.26458 0 0 .26458 -13.424 .682)"><tspan x="134.381" y="6794.684">if (a1 == a2) {no tangential 2 arcs}</tspan></text></g></svg>