<svg xmlns="http://www.w3.org/2000/svg" width="288.04" height="312.454" viewBox="0 0 76.211 82.67"><defs><path id="a" d="M86.405 8251.748h70.081v57.682H86.405z"/><path id="b" d="M204.843 8338.396h83.853v42.639h-83.853z"/><path id="c" d="M343.183 8353.117h64.675v45.493h-64.675z"/><path id="d" d="M307.065 8197.744h48.525v24.999h-48.525z"/><path id="e" d="M79.05 8300.684h229.944v49.053H79.05z"/><path id="f" d="M251.717 8436.273h62.168v32.45h-62.168z"/><path id="g" d="M420.706 8448.941h77.717v48.312h-77.717z"/><path id="h" d="M439.933 9157.379h51.896v43.121h-51.896z"/><path id="i" d="M310.892 9159.202h33.539v27.888h-33.539z"/></defs><g transform="translate(-26.998 -2473.803)"><path d="M27.13 2473.936h75.946v82.406H27.13z" style="fill:#fff;stroke:#fff;stroke-width:.264583"/><text xml:space="preserve" style="font-size:14.6667px;line-height:1.25;font-family:sans-serif;white-space:pre;shape-inside:url(#a);display:inline" transform="matrix(.26458 0 0 .26458 13.768 344.956)"><tspan x="86.404" y="8264.725">p1</tspan></text><text xml:space="preserve" style="font-size:14.6667px;line-height:1.25;font-family:sans-serif;white-space:pre;shape-inside:url(#b);display:inline" transform="matrix(.26458 0 0 .26458 -5.225 275.462)"><tspan x="204.844" y="8351.371">p2</tspan></text><text xml:space="preserve" style="font-size:14.6667px;line-height:1.25;font-family:sans-serif;white-space:pre;shape-inside:url(#c);display:inline" transform="matrix(.26458 0 0 .26458 -1.412 308.343)"><tspan x="343.182" y="8366.094">p3</tspan></text><path d="m48.872 2511.25 6.006 8.776" style="fill:none;stroke:green;stroke-width:.264583px;stroke-linecap:butt;stroke-linejoin:miter;stroke-opacity:1"/><text xml:space="preserve" style="font-size:14.6667px;line-height:1.25;font-family:sans-serif;white-space:pre;shape-inside:url(#d);display:inline;fill:green" transform="matrix(.26458 0 0 .26458 -32.306 345.605)"><tspan x="307.064" y="8210.721">r</tspan></text><text xml:space="preserve" style="font-size:14.6667px;line-height:1.25;font-family:sans-serif;white-space:pre;shape-inside:url(#e);display:inline" transform="matrix(.26458 0 0 .26458 8.64 349.225)"><tspan x="79.051" y="8313.66">cornerRounded(radius)
</tspan><tspan x="79.051" y="8331.993">case int-arc-ext-arc</tspan></text><path d="M-2266.996 1024.497a33.9 33.9 0 0 1-27.124.43 33.9 33.9 0 0 1-18.755-19.599l31.824-11.68z" style="fill:none;stroke:#e6e6e6;stroke-width:.264583" transform="scale(-1 1) rotate(-64.483)"/><path d="m85.71 2486.59-55.078 36.648" style="fill:none;stroke:#b3b3b3;stroke-width:.264583px;stroke-linecap:butt;stroke-linejoin:miter;stroke-opacity:1"/><path d="M85.918 2486.632 57.344 2505.5" style="fill:none;stroke:#00f;stroke-width:.264583px;stroke-linecap:butt;stroke-linejoin:miter;stroke-opacity:1"/><text xml:space="preserve" style="font-size:14.6667px;line-height:1.25;font-family:sans-serif;white-space:pre;shape-inside:url(#f);display:inline;fill:#00f" transform="matrix(.26458 0 0 .26458 .945 259.053)"><tspan x="251.717" y="8449.25">r3</tspan></text><text xml:space="preserve" style="font-size:14.6667px;line-height:1.25;font-family:sans-serif;white-space:pre;shape-inside:url(#g);display:inline" transform="matrix(.26458 0 0 .26458 -37.773 277.527)"><tspan x="420.705" y="8461.918">p4</tspan></text><path d="M-429.957 2490.927a34.173 34.173 0 0 1 18.582-37.403l14.935 30.737z" style="fill:none;stroke:#e6e6e6;stroke-width:.264583" transform="rotate(-10.712)"/><path d="M-430.104 2490.882a34.173 34.173 0 0 1 18.582-37.403" style="fill:none;stroke:#000;stroke-width:.264583" transform="rotate(-10.712)"/><circle cx="48.749" cy="2511.23" r="10.634" style="fill:none;stroke:#d45500;stroke-width:.264583"/><path d="m72.453 2514.887-48.26-7.56" style="fill:none;stroke:#ccc;stroke-width:.264583px;stroke-linecap:butt;stroke-linejoin:miter;stroke-opacity:1"/><path d="m72.467 2515.145-34.257-5.624" style="fill:none;stroke:teal;stroke-width:.264583px;stroke-linecap:butt;stroke-linejoin:miter;stroke-opacity:1"/><text xml:space="preserve" style="font-size:14.6667px;line-height:1.25;font-family:sans-serif;white-space:pre;shape-inside:url(#h);display:inline;fill:teal" transform="matrix(.26458 0 0 .26458 -55.41 90.744)"><tspan x="439.934" y="9170.355">r2</tspan></text><text xml:space="preserve" style="font-size:14.6667px;line-height:1.25;font-family:sans-serif;white-space:pre;shape-inside:url(#i);display:inline" transform="matrix(.26458 0 0 .26458 5.049 60.518)"><tspan x="310.893" y="9172.18">p5</tspan></text><path d="M-2266.578 1024.8a33.9 33.9 0 0 1-27.124.43 33.9 33.9 0 0 1-18.755-19.6" style="fill:none;stroke:#000;stroke-width:.264583" transform="scale(-1 1) rotate(-64.483)"/></g></svg>