<svg xmlns="http://www.w3.org/2000/svg" width="347.825" height="343.862" viewBox="0 0 92.029 90.98"><defs><path id="a" d="M390.748 4224.178h91.064v51.489h-91.064z"/><path id="b" d="M390.748 4224.178h91.064v51.489h-91.064z"/><path id="c" d="M87.432 4197.716h325.449v51.35H87.432z"/><path id="d" d="M95.776 4893.991h240.781v89.138H95.776z"/></defs><g transform="translate(-19.014 -1338.41)"><path d="M19.147 1338.543h91.764v90.715H19.147z" style="fill:#fff;stroke:#fff;stroke-width:.264583"/><circle cx="51.231" cy="1369.212" r="23.86" style="fill:none;stroke:maroon;stroke-width:.264583"/><circle cx="51.231" cy="1369.212" r="28.573" style="fill:none;stroke:#00f;stroke-width:.264583"/><circle cx="87.511" cy="1369.212" r="12.42" style="fill:none;stroke:maroon;stroke-width:.264583"/><circle cx="87.511" cy="1369.212" r="20.667" style="fill:none;stroke:#00f;stroke-width:.264582"/><path d="M51.231 1369.212h36.28" style="fill:none;stroke:#000;stroke-width:.264583px;stroke-linecap:butt;stroke-linejoin:miter;stroke-opacity:1"/><path d="m51.231 1369.212-18.805-14.686M87.511 1369.212l8.913-8.649" style="fill:none;stroke:#a00;stroke-width:.264583px;stroke-linecap:butt;stroke-linejoin:miter;stroke-opacity:1"/><text xml:space="preserve" style="font-size:14.6667px;line-height:1.25;font-family:sans-serif;white-space:pre;shape-inside:url(#a);display:inline" transform="matrix(.26458 0 0 .26458 -69.103 243.188)"><tspan x="390.748" y="4237.154">pr1</tspan></text><text xml:space="preserve" style="font-size:14.6667px;line-height:1.25;font-family:sans-serif;white-space:pre;shape-inside:url(#b);display:inline" transform="matrix(.26458 0 0 .26458 -16.858 241.401)"><tspan x="390.748" y="4237.154">pr2</tspan></text><text xml:space="preserve" style="font-size:14.6667px;line-height:1.25;font-family:sans-serif;white-space:pre;shape-inside:url(#c);display:inline" transform="matrix(.26458 0 0 .26458 -2.828 313.232)"><tspan x="87.432" y="4210.691">small base radius</tspan></text><circle cx="51.231" cy="1369.212" r="10.541" style="fill:none;stroke:#0cf;stroke-width:.264582"/><circle cx="87.511" cy="1369.212" r="5.411" style="fill:none;stroke:#0cf;stroke-width:.264582"/><path d="m55.996 1359.813 29.357 14.411" style="fill:none;stroke:red;stroke-width:.264583px;stroke-linecap:butt;stroke-linejoin:miter;stroke-opacity:1"/><text xml:space="preserve" style="font-size:14.6667px;line-height:1.25;font-family:sans-serif;white-space:pre;shape-inside:url(#d);display:inline" transform="matrix(.26458 0 0 .26458 -2.79 107.12)"><tspan x="95.775" y="4906.969">- brr1 closed to 0
</tspan><tspan x="95.775" y="4925.302">- brr2 closed to 0
</tspan><tspan x="95.775" y="4943.636">- ppa closed to PI/2
</tspan><tspan x="95.775" y="4961.969">- brr1/brr2=pr1/pr2=N1/N2
</tspan></text><path d="m51.347 1369.02 4.47-9.224M85.133 1374.118l2.378-4.906" style="fill:none;stroke:#999;stroke-width:.264583px;stroke-linecap:butt;stroke-linejoin:miter;stroke-opacity:1"/><path d="m84.28 1373.653.34-.887.885.445M55.416 1360.719l.852.404.434-.869" style="fill:none;stroke:#000;stroke-width:.264583px;stroke-linecap:butt;stroke-linejoin:miter;stroke-opacity:1"/></g></svg>