<svg xmlns="http://www.w3.org/2000/svg" width="347.825" height="321.553" viewBox="0 0 92.029 85.078"><defs><path id="g" d="M87.432 4197.716h325.449v51.35H87.432z"/><path id="f" d="M211.081 4197.209h153.646v72.884H211.081z"/><path id="c" d="M414.066 4158.628h79.122v41.094h-79.122z"/><path id="b" d="M390.748 4224.178h91.064v51.489h-91.064z"/><path id="d" d="M414.066 4158.628h79.122v41.094h-79.122z"/><path id="e" d="M390.748 4224.178h91.064v51.489h-91.064z"/><marker id="a" markerHeight="5" markerWidth="8.75" orient="auto-start-reverse" preserveAspectRatio="xMidYMid" refX="0" refY="0" style="overflow:visible" viewBox="0 0 8.75 5"><path d="m0 0 5-5-17.5 5L5 5Z" style="fill:context-stroke;fill-rule:evenodd;stroke:none" transform="scale(-.5)"/></marker></defs><g transform="translate(-15.462 -1026.949)"><path d="M15.595 1027.081h91.764v84.813H15.595z" style="fill:#fff;stroke:#fff;stroke-width:.264583"/><circle cx="47.679" cy="1057.751" r="23.86" style="fill:none;stroke:maroon;stroke-width:.264583"/><circle cx="47.679" cy="1057.751" r="28.573" style="fill:none;stroke:#00f;stroke-width:.264583"/><circle cx="83.959" cy="1057.751" r="12.42" style="fill:none;stroke:maroon;stroke-width:.264583"/><circle cx="83.959" cy="1057.751" r="20.667" style="fill:none;stroke:#00f;stroke-width:.264582"/><path d="M47.679 1057.75h36.28" style="fill:none;stroke:#000;stroke-width:.264583px;stroke-linecap:butt;stroke-linejoin:miter;stroke-opacity:1"/><path d="M47.679 1057.75v39.2M83.827 1057.859v39.2" style="fill:none;stroke:#b3b3b3;stroke-width:.264583px;stroke-linecap:butt;stroke-linejoin:miter;stroke-opacity:1"/><path d="M49.433 1094.747h32.772" style="fill:none;stroke:#000;stroke-width:.264583px;stroke-linecap:butt;stroke-linejoin:miter;stroke-opacity:1;marker-start:url(#a);marker-end:url(#Arrow1L)"/><path d="m47.679 1057.75-18.805-14.685" style="fill:none;stroke:#a00;stroke-width:.264583px;stroke-linecap:butt;stroke-linejoin:miter;stroke-opacity:1"/><path d="m47.679 1057.75-11.805-26.02" style="fill:none;stroke:#00f;stroke-width:.264583px;stroke-linecap:butt;stroke-linejoin:miter;stroke-opacity:1"/><path d="m83.959 1057.75 8.912-8.648" style="fill:none;stroke:#a00;stroke-width:.264583px;stroke-linecap:butt;stroke-linejoin:miter;stroke-opacity:1"/><path d="m83.827 1057.883 19.512-7.31" style="fill:none;stroke:#00f;stroke-width:.264583px;stroke-linecap:butt;stroke-linejoin:miter;stroke-opacity:1"/><text xml:space="preserve" style="font-size:14.6667px;line-height:1.25;font-family:sans-serif;white-space:pre;shape-inside:url(#b);display:inline" transform="matrix(.26458 0 0 .26458 -72.655 -68.273)"><tspan x="390.748" y="4237.154">pr1</tspan></text><text xml:space="preserve" style="font-size:14.6667px;line-height:1.25;font-family:sans-serif;white-space:pre;shape-inside:url(#c);display:inline" transform="matrix(.26458 0 0 .26458 -67.046 -60.377)"><tspan x="414.066" y="4171.605">ar1</tspan></text><text xml:space="preserve" style="font-size:14.6667px;line-height:1.25;font-family:sans-serif;white-space:pre;shape-inside:url(#d);display:inline" transform="matrix(.26458 0 0 .26458 -13.214 -47.883)"><tspan x="414.066" y="4171.605">ar2</tspan></text><text xml:space="preserve" style="font-size:14.6667px;line-height:1.25;font-family:sans-serif;white-space:pre;shape-inside:url(#e);display:inline" transform="matrix(.26458 0 0 .26458 -20.41 -70.06)"><tspan x="390.748" y="4237.154">pr2</tspan></text><text xml:space="preserve" style="font-size:14.6667px;line-height:1.25;font-family:sans-serif;white-space:pre;shape-inside:url(#f);display:inline" transform="matrix(.26458 0 0 .26458 -6.591 -14.133)"><tspan x="211.08" y="4210.186">e[min]=pr1+pr2</tspan></text><text xml:space="preserve" style="font-size:14.6667px;line-height:1.25;font-family:sans-serif;white-space:pre;shape-inside:url(#g);display:inline" transform="matrix(.26458 0 0 .26458 -5.297 -4.145)"><tspan x="87.432" y="4210.691">inter-axis minimum distance</tspan></text></g></svg>