<svg xmlns="http://www.w3.org/2000/svg" width="241.8" height="270.018" viewBox="0 0 63.976 71.442"><defs><path id="l" d="M60.004 15381.483h149.382v28.786H60.004z"/><path id="i" d="M328.137 15328.763h108.959v25.132H328.137z"/><path id="h" d="M240.984 15381.021h135.415v36.081H240.984z"/><path id="g" d="M139.111 15408.008h107.206v25.704H139.111z"/><path id="f" d="M143.853 15378.013h108.961v25.399H143.853z"/><path id="e" d="M137.925 15332.615h114.628v39.496H137.925z"/><path id="d" d="M133.872 15287.9H287.08v36.038H133.872z"/><path id="c" d="M88.784 15222.726h212.799v51.64H88.784z"/><path id="b" d="M92.205 15174.11h139.703v35.745H92.205z"/><path id="a" d="M94.075 15131.606h246.399v37.549H94.075z"/><marker id="j" markerHeight="5" markerWidth="8.75" orient="auto-start-reverse" preserveAspectRatio="xMidYMid" refX="0" refY="0" style="overflow:visible" viewBox="0 0 8.75 5"><path d="m0 0 5-5-17.5 5L5 5Z" style="fill:context-stroke;fill-rule:evenodd;stroke:none" transform="scale(-.5)"/></marker><marker id="k" markerHeight="5" markerWidth="8.75" orient="auto-start-reverse" preserveAspectRatio="xMidYMid" refX="0" refY="0" style="overflow:visible" viewBox="0 0 8.75 5"><path d="m0 0 5-5-17.5 5L5 5Z" style="fill:context-stroke;fill-rule:evenodd;stroke:none" transform="scale(-.5)"/></marker></defs><path d="M19.583 4004.544h63.712v71.177H19.583z" style="fill:#fff;stroke:#fff;stroke-width:.264584" transform="translate(-19.45 -4004.411)"/><text xml:space="preserve" style="font-size:14.6667px;line-height:1.25;font-family:sans-serif;white-space:pre;shape-inside:url(#a)" transform="matrix(.26458 0 0 .26458 -23.1 -4002.495)"><tspan x="94.074" y="15144.582">angle_utils.ts</tspan></text><text xml:space="preserve" style="font-size:14.6667px;line-height:1.25;font-family:sans-serif;white-space:pre;shape-inside:url(#b)" transform="matrix(.26458 0 0 .26458 -10.61 -4004.449)"><tspan x="92.205" y="15187.086">canvas_utils.ts</tspan></text><text xml:space="preserve" style="font-size:14.6667px;line-height:1.25;font-family:sans-serif;white-space:pre;shape-inside:url(#c)" transform="matrix(.26458 0 0 .26458 -10.478 -4010.944)"><tspan x="88.783" y="15235.703">triangle_utils.ts</tspan></text><text xml:space="preserve" style="font-size:14.6667px;line-height:1.25;font-family:sans-serif;white-space:pre;shape-inside:url(#d)" transform="matrix(.26458 0 0 .26458 3.874 -3993.078)"><tspan x="133.873" y="15300.877">contour.ts</tspan></text><text xml:space="preserve" style="font-size:14.6667px;line-height:1.25;font-family:sans-serif;white-space:pre;shape-inside:url(#e)" transform="matrix(.26458 0 0 .26458 9.486 -3997.006)"><tspan x="137.926" y="15345.592">figure.ts</tspan></text><text xml:space="preserve" style="font-size:14.6667px;line-height:1.25;font-family:sans-serif;white-space:pre;shape-inside:url(#f)" transform="matrix(.26458 0 0 .26458 -11.801 -4036.931)"><tspan x="143.854" y="15390.988">line.ts</tspan></text><text xml:space="preserve" style="font-size:14.6667px;line-height:1.25;font-family:sans-serif;white-space:pre;shape-inside:url(#g)" transform="matrix(.26458 0 0 .26458 -17.161 -4052.265)"><tspan x="139.111" y="15420.984">point.ts</tspan></text><text xml:space="preserve" style="font-size:14.6667px;line-height:1.25;font-family:sans-serif;white-space:pre;shape-inside:url(#h)" transform="matrix(.26458 0 0 .26458 -30.22 -4025.461)"><tspan x="240.984" y="15393.998">segment.ts</tspan></text><text xml:space="preserve" style="font-size:14.6667px;line-height:1.25;font-family:sans-serif;white-space:pre;shape-inside:url(#i)" transform="matrix(.26458 0 0 .26458 -60.785 -4019.145)"><tspan x="328.137" y="15341.738">vector.ts</tspan></text><path d="m32.074 4016.391-2.982-5.596" style="fill:none;stroke:#faa;stroke-width:.264583px;stroke-linecap:butt;stroke-linejoin:miter;stroke-opacity:1;marker-end:url(#j)" transform="translate(-19.45 -4004.411)"/><path d="m31.996 4022.425-5.285-10.935" style="fill:none;stroke:#faa;stroke-width:.264583px;stroke-linecap:butt;stroke-linejoin:miter;stroke-opacity:1;marker-end:url(#j)" transform="translate(-19.45 -4004.411)"/><path d="m38.941 4032.211-13.674-4.36-.057-17.433" style="fill:none;stroke:#faa;stroke-width:.264583px;stroke-linecap:butt;stroke-linejoin:miter;stroke-opacity:1;marker-end:url(#j)" transform="translate(-19.45 -4004.411)"/><path d="m54.59 4030.644 12.319-1.765.295-6.673-4.777-3.343" style="fill:none;stroke:#faa;stroke-width:.264583px;stroke-linecap:butt;stroke-linejoin:miter;stroke-opacity:1;marker-end:url(#j)" transform="translate(-19.45 -4004.411)"/><path d="m44.968 4037.677-1.459-4.275" style="fill:none;stroke:#faa;stroke-width:.264583px;stroke-linecap:butt;stroke-linejoin:miter;stroke-opacity:1;marker-end:url(#j)" transform="translate(-19.45 -4004.411)"/><path d="m45.326 4042.701-3.287-9.205" style="fill:none;stroke:#faa;stroke-width:.264583px;stroke-linecap:butt;stroke-linejoin:miter;stroke-opacity:1;marker-end:url(#j)" transform="translate(-19.45 -4004.411)"/><path d="m56.705 4037.213.715-11.426" style="fill:none;stroke:#faa;stroke-width:.264583px;stroke-linecap:butt;stroke-linejoin:miter;stroke-opacity:1;marker-end:url(#j)" transform="translate(-19.45 -4004.411)"/><path d="m58.287 4038.845 11.001-7.848-.5-10.105-5.81-3.626" style="fill:none;stroke:#faa;stroke-width:.264583px;stroke-linecap:butt;stroke-linejoin:miter;stroke-opacity:1;marker-end:url(#j)" transform="translate(-19.45 -4004.411)"/><path d="m52.816 4051.007-10.469-4.592-1.985-12.369" style="fill:none;stroke:#faa;stroke-width:.264583px;stroke-linecap:butt;stroke-linejoin:miter;stroke-opacity:1;marker-end:url(#j)" transform="translate(-19.45 -4004.411)"/><path d="m66.832 4049.416.834-9.634-6.786-.705" style="fill:none;stroke:#faa;stroke-width:.264583px;stroke-linecap:butt;stroke-linejoin:miter;stroke-opacity:1;marker-end:url(#j)" transform="translate(-19.45 -4004.411)"/><path d="m58.723 4057.473-1.599-3.25" style="fill:none;stroke:#faa;stroke-width:.264583px;stroke-linecap:butt;stroke-linejoin:miter;stroke-opacity:1;marker-end:url(#j)" transform="translate(-19.45 -4004.411)"/><path d="m65.132 4064.961-1.599-3.25" style="fill:none;stroke:#faa;stroke-width:.264583px;stroke-linecap:butt;stroke-linejoin:miter;stroke-opacity:1;marker-end:url(#k)" transform="translate(-19.45 -4004.411)"/><text xml:space="preserve" style="font-size:14.6667px;line-height:1.25;font-family:sans-serif;white-space:pre;shape-inside:url(#l)" transform="matrix(.26458 0 0 .26458 -13.51 -4004.618)"><tspan x="60.004" y="15394.461">geom modules</tspan></text></svg>