<svg xmlns="http://www.w3.org/2000/svg" width="442.101" height="333.049" viewBox="0 0 116.972 88.119"><defs><path id="l" d="M249.088 465.569h254.709v49.752H249.088z"/><path id="d" d="M297.447 262.575h73.804v34.937h-73.804z"/><path id="f" d="M297.447 262.575h73.804v34.937h-73.804z"/><path id="g" d="M134.534 178.276h23.407v18.098h-23.407z"/><path id="h" d="M165.537 227.936h17.956v23.248h-17.956z"/><path id="i" d="M277.39 227.391h48.001v21.52H277.39z"/><path id="k" d="M62.586 328.485h255.34v34.586H62.586z"/><path id="a" d="M297.447 262.575h73.804v34.937h-73.804z"/><marker id="c" markerHeight="5" markerWidth="8.75" orient="auto-start-reverse" preserveAspectRatio="xMidYMid" refX="0" refY="0" style="overflow:visible" viewBox="0 0 8.75 5"><path d="m0 0 5-5-17.5 5L5 5Z" style="fill:context-stroke;fill-rule:evenodd;stroke:none" transform="scale(-.5)"/></marker><marker id="e" markerHeight="5" markerWidth="8.75" orient="auto-start-reverse" preserveAspectRatio="xMidYMid" refX="0" refY="0" style="overflow:visible" viewBox="0 0 8.75 5"><path d="m0 0 5-5-17.5 5L5 5Z" style="fill:context-stroke;fill-rule:evenodd;stroke:none" transform="scale(-.5)"/></marker><marker id="j" markerHeight="5" markerWidth="8.75" orient="auto-start-reverse" preserveAspectRatio="xMidYMid" refX="0" refY="0" style="overflow:visible" viewBox="0 0 8.75 5"><path d="m0 0 5-5-17.5 5L5 5Z" style="fill:context-stroke;fill-rule:evenodd;stroke:none" transform="scale(-.5)"/></marker><marker id="b" markerHeight="5" markerWidth="8.75" orient="auto-start-reverse" preserveAspectRatio="xMidYMid" refX="0" refY="0" style="overflow:visible" viewBox="0 0 8.75 5"><path d="m0 0 5-5-17.5 5L5 5Z" style="fill:context-stroke;fill-rule:evenodd;stroke:none" transform="scale(-.5)"/></marker></defs><g transform="translate(-17.58 -113.14)"><path d="M17.712 113.272H134.42v87.855H17.712z" style="fill:#fff;stroke:#fff;stroke-width:.264583"/><text xml:space="preserve" style="font-size:14.6667px;line-height:1.25;font-family:sans-serif;white-space:pre;shape-inside:url(#a);display:inline" transform="matrix(.26458 0 0 .26458 21.972 85.207)"><tspan x="297.447" y="275.551">i1</tspan></text><path d="M104.846 159.089s-1.33-.272-1.917-.05c-.586.22-1.28 1.249-1.28 1.249" style="fill:none;stroke:#000;stroke-width:.264583px;stroke-linecap:butt;stroke-linejoin:miter;stroke-opacity:1;marker-end:url(#b)"/><path d="M59.782 141.072s.27-1.33.05-1.917c-.22-.586-1.25-1.28-1.25-1.28" style="fill:none;stroke:#000;stroke-width:.264583px;stroke-linecap:butt;stroke-linejoin:miter;stroke-opacity:1;marker-end:url(#c)"/><text xml:space="preserve" style="font-size:14.6667px;line-height:1.25;font-family:sans-serif;white-space:pre;shape-inside:url(#d);display:inline" transform="matrix(.26458 0 0 .26458 -18.485 66.992)"><tspan x="297.447" y="275.551">i1</tspan></text><circle cx="45.338" cy="163.467" r="24.769" style="fill:none;stroke:gray;stroke-width:.264583"/><path d="M45.338 163.467h74.13M45.338 163.467l10.216-22.563" style="fill:none;stroke:teal;stroke-width:.264583px;stroke-linecap:butt;stroke-linejoin:miter;stroke-opacity:1"/><path d="M49.735 163.414s.271-1.329.05-1.917c-.22-.585-1.249-1.28-1.249-1.28" style="fill:none;stroke:#000;stroke-width:.264583px;stroke-linecap:butt;stroke-linejoin:miter;stroke-opacity:1;marker-end:url(#e)"/><text xml:space="preserve" style="font-size:14.6667px;line-height:1.25;font-family:sans-serif;white-space:pre;shape-inside:url(#f);display:inline" transform="matrix(.26458 0 0 .26458 -28.769 88.806)"><tspan x="297.447" y="275.551">i1</tspan></text><path d="m55.513 140.965 68.845 31.349" style="fill:none;stroke:red;stroke-width:.264581px;stroke-linecap:butt;stroke-linejoin:miter;stroke-opacity:1"/><text xml:space="preserve" style="font-size:14.6667px;line-height:1.25;font-family:sans-serif;white-space:pre;shape-inside:url(#g);display:inline" transform="matrix(.26458 0 0 .26458 11.923 100.63)"><tspan x="134.535" y="191.252">R</tspan></text><text xml:space="preserve" style="font-size:14.6667px;line-height:1.25;font-family:sans-serif;white-space:pre;shape-inside:url(#h);display:inline" transform="matrix(.26458 0 0 .26458 -1.52 103.153)"><tspan x="165.537" y="240.912">O</tspan></text><text xml:space="preserve" style="font-size:14.6667px;line-height:1.25;font-family:sans-serif;white-space:pre;shape-inside:url(#i);display:inline" transform="matrix(.26458 0 0 .26458 -26.818 77.452)"><tspan x="277.391" y="240.367">ABC</tspan></text><path d="M55.604 140.838s.838-1.576.946-2.442c.332-2.65-.06-5.439-.962-7.952-.674-1.878-1.867-3.58-3.224-5.043-2.03-2.188-4.626-3.803-7.165-5.373-2.288-1.416-7.218-3.616-7.218-3.616" style="fill:none;stroke:#f0f;stroke-width:.529167;stroke-linecap:butt;stroke-linejoin:miter;stroke-opacity:1;marker-end:url(#j)"/><text xml:space="preserve" style="font-size:14.6667px;line-height:1.25;font-family:sans-serif;white-space:pre;shape-inside:url(#k);display:inline" transform="matrix(.26458 0 0 .26458 3.682 108.245)"><tspan x="62.586" y="341.461">involute of circle (R, i1)</tspan></text><path d="m55.596 141 4.474-9.988" style="fill:none;stroke:teal;stroke-width:.264583px;stroke-linecap:butt;stroke-linejoin:miter;stroke-opacity:1;marker-end:url(#j)"/><path d="M55.785 141.053h7.131" style="fill:none;stroke:#999;stroke-width:.264583px;stroke-linecap:butt;stroke-linejoin:miter;stroke-opacity:1"/><path d="m55.105 142.137 1.171.512.463-1.28" style="fill:none;stroke:#000;stroke-width:.264583px;stroke-linecap:butt;stroke-linejoin:miter;stroke-opacity:1"/><path d="M104.975 171.845v-17.02" style="fill:none;stroke:#ccc;stroke-width:.264583px;stroke-linecap:butt;stroke-linejoin:miter;stroke-opacity:1"/><text xml:space="preserve" style="font-size:14.6667px;line-height:1.25;font-family:sans-serif;white-space:pre;shape-inside:url(#l)" transform="matrix(.26458 0 0 .26458 .318 -8.782)"><tspan x="249.088" y="478.545">C: point of the involute at u=0</tspan></text></g></svg>