<svg xmlns="http://www.w3.org/2000/svg" width="294.223" height="213.82" viewBox="0 0 77.846 56.573"><defs><path id="a" d="M317.109 3176.231h120.822v40.156H317.109z"/><path id="c" d="M188.035 3206.26h75.541v32.637h-75.541z"/><path id="d" d="M228.463 3183.727h73.395v25.301h-73.395z"/><path id="e" d="M225.556 3188.931h71.829v27.439h-71.829z"/><path id="f" d="M261.255 3152.513h59.789v20.683h-59.789z"/><path id="g" d="M129.105 3243.955H386.21v29.939H129.105z"/><marker id="b" markerHeight="5" markerWidth="8.75" orient="auto-start-reverse" preserveAspectRatio="xMidYMid" refX="0" refY="0" style="overflow:visible" viewBox="0 0 8.75 5"><path d="m0 0 5-5-17.5 5L5 5Z" style="fill:context-stroke;fill-rule:evenodd;stroke:none" transform="scale(-.5)"/></marker></defs><path d="M30.19 912.158h77.582v56.309H30.19z" style="fill:#fff;stroke:#fff;stroke-width:.264583" transform="translate(-30.058 -912.026)"/><path d="M32.468 935.08h26.121" style="fill:none;stroke:gray;stroke-width:.264583px;stroke-linecap:butt;stroke-linejoin:miter;stroke-opacity:1" transform="translate(-30.058 -912.026)"/><path d="m32.468 935.08 64.644-21.322" style="fill:none;stroke:#d5f;stroke-width:.264583px;stroke-linecap:butt;stroke-linejoin:miter;stroke-opacity:1" transform="translate(-30.058 -912.026)"/><path d="m32.526 935.1 52.977 11.074" style="fill:none;stroke:#f06;stroke-width:.264582px;stroke-linecap:butt;stroke-linejoin:miter;stroke-opacity:1" transform="translate(-30.058 -912.026)"/><path d="M75.6 930.144s4.34-.207 6.43.28c2.578.6 4.932 1.954 7.27 3.196 1.847.98 3.76 1.938 5.31 3.342 1.158 1.049 2.876 3.7 2.876 3.7" style="fill:none;stroke:#afdde9;stroke-width:.529167;stroke-linecap:butt;stroke-linejoin:miter;stroke-opacity:1" transform="translate(-30.058 -912.026)"/><path d="m74.836 930.294 23.055-2.626" style="fill:none;stroke:#06f;stroke-width:.264583px;stroke-linecap:butt;stroke-linejoin:miter;stroke-opacity:1" transform="translate(-30.058 -912.026)"/><path d="m80.199 935.62 20.452.29" style="fill:none;stroke:#ff8080;stroke-width:.264583px;stroke-linecap:butt;stroke-linejoin:miter;stroke-opacity:1" transform="translate(-30.058 -912.026)"/><text xml:space="preserve" style="font-size:14.6667px;line-height:1.25;font-family:sans-serif;white-space:pre;shape-inside:url(#a);display:inline" transform="matrix(.26458 0 0 .26458 -27.198 -812.084)"><tspan x="317.109" y="3189.207">left profile</tspan></text><path d="M49.455 935.244s.063-1.55-.052-2.28c-.098-.623-.527-1.678-.527-1.678" style="fill:none;stroke:#000;stroke-width:.264583px;stroke-linecap:butt;stroke-linejoin:miter;stroke-opacity:1;marker-end:url(#b)" transform="translate(-30.058 -912.026)"/><text xml:space="preserve" style="font-size:14.6667px;line-height:1.25;font-family:sans-serif;white-space:pre;shape-inside:url(#c);display:inline" transform="matrix(.26458 0 0 .26458 -26.855 -830.938)"><tspan x="188.035" y="3219.236">acc</tspan></text><path d="M61.291 925.671s2.313 4.36 2.767 6.748c.477 2.517-.108 7.684-.108 7.684" style="fill:none;stroke:#000;stroke-width:.264583px;stroke-linecap:butt;stroke-linejoin:miter;stroke-opacity:1;marker-end:url(#b)" transform="translate(-30.058 -912.026)"/><text xml:space="preserve" style="font-size:14.6667px;line-height:1.25;font-family:sans-serif;white-space:pre;shape-inside:url(#d);display:inline" transform="matrix(.26458 0 0 .26458 -25.624 -820.966)"><tspan x="228.463" y="3196.703">apl</tspan></text><path d="M75.653 943.939s1.163-4.077 1.275-6.176c.107-2.02-.588-6.04-.588-6.04" style="fill:none;stroke:#000;stroke-width:.264583px;stroke-linecap:butt;stroke-linejoin:miter;stroke-opacity:1;marker-end:url(#b)" transform="translate(-30.058 -912.026)"/><text xml:space="preserve" style="font-size:14.6667px;line-height:1.25;font-family:sans-serif;white-space:pre;shape-inside:url(#e);display:inline" transform="matrix(.26458 0 0 .26458 -12.549 -818.818)"><tspan x="225.557" y="3201.908">u</tspan></text><path d="M92.03 928.265s1.252 1.75 1.52 2.768c.275 1.04.045 3.226.045 3.226" style="fill:none;stroke:#000;stroke-width:.264583px;stroke-linecap:butt;stroke-linejoin:miter;stroke-opacity:1;marker-end:url(#b)" transform="translate(-30.058 -912.026)"/><text xml:space="preserve" style="font-size:14.6667px;line-height:1.25;font-family:sans-serif;white-space:pre;shape-inside:url(#f);display:inline" transform="matrix(.26458 0 0 .26458 -4.778 -815.882)"><tspan x="261.256" y="3165.488">lup</tspan></text><text xml:space="preserve" style="font-size:14.6667px;line-height:1.25;font-family:sans-serif;white-space:pre;shape-inside:url(#g);display:inline" transform="matrix(.26458 0 0 .26458 -31.192 -806.99)"><tspan x="129.105" y="3256.932">left side angle kitchen</tspan></text></svg>