<svg xmlns="http://www.w3.org/2000/svg" width="351" height="421" viewBox="0 0 92.869 111.39"><defs><path id="c" d="M309.291 1871.785h43.699v17.924h-43.699z"/><path id="d" d="M323.205 1880.807h59.832v18.928h-59.832z"/><path id="g" d="M309.291 1871.785h43.699v17.924h-43.699z"/><path id="h" d="M323.205 1880.807h59.832v18.928h-59.832z"/><path id="k" d="M309.291 1871.785h43.699v17.924h-43.699z"/><path id="l" d="M323.205 1880.807h59.832v18.928h-59.832z"/><path id="o" d="M309.291 1871.785h43.699v17.924h-43.699z"/><path id="p" d="M323.205 1880.807h59.832v18.928h-59.832z"/><path id="w" d="M309.291 1871.785h43.699v17.924h-43.699z"/><path id="x" d="M323.205 1880.807h59.832v18.928h-59.832z"/><path id="E" d="M309.291 1871.785h43.699v17.924h-43.699z"/><path id="F" d="M323.205 1880.807h59.832v18.928h-59.832z"/><path id="K" d="M56.165 3855.664h258.027v56.404H56.165z"/><path id="L" d="M309.291 1871.785h43.699v17.924h-43.699z"/><path id="M" d="M323.205 1880.807h59.832v18.928h-59.832z"/><path id="N" d="M309.291 1871.785h43.699v17.924h-43.699z"/><path id="O" d="M323.205 1880.807h59.832v18.928h-59.832z"/><path id="P" d="M309.291 1871.785h43.699v17.924h-43.699z"/><path id="Q" d="M323.205 1880.807h59.832v18.928h-59.832z"/><path id="R" d="M309.291 1871.785h43.699v17.924h-43.699z"/><path id="S" d="M323.205 1880.807h59.832v18.928h-59.832z"/><path id="T" d="M323.205 1880.807h59.832v18.928h-59.832z"/><path id="U" d="M309.291 1871.785h43.699v17.924h-43.699z"/><path id="V" d="M323.205 1880.807h59.832v18.928h-59.832z"/><path id="W" d="M309.291 1871.785h43.699v17.924h-43.699z"/><marker id="a" markerHeight="5" markerWidth="8.75" orient="auto-start-reverse" preserveAspectRatio="xMidYMid" refX="0" refY="0" style="overflow:visible" viewBox="0 0 8.75 5"><path d="m0 0 5-5-17.5 5L5 5Z" style="fill:context-stroke;fill-rule:evenodd;stroke:none" transform="scale(-.5)"/></marker><marker id="b" markerHeight="5" markerWidth="8.75" orient="auto-start-reverse" preserveAspectRatio="xMidYMid" refX="0" refY="0" style="overflow:visible" viewBox="0 0 8.75 5"><path d="m0 0 5-5-17.5 5L5 5Z" style="fill:context-stroke;fill-rule:evenodd;stroke:none" transform="scale(-.5)"/></marker><marker id="e" markerHeight="5" markerWidth="8.75" orient="auto-start-reverse" preserveAspectRatio="xMidYMid" refX="0" refY="0" style="overflow:visible" viewBox="0 0 8.75 5"><path d="m0 0 5-5-17.5 5L5 5Z" style="fill:context-stroke;fill-rule:evenodd;stroke:none" transform="scale(-.5)"/></marker><marker id="f" markerHeight="5" markerWidth="8.75" orient="auto-start-reverse" preserveAspectRatio="xMidYMid" refX="0" refY="0" style="overflow:visible" viewBox="0 0 8.75 5"><path d="m0 0 5-5-17.5 5L5 5Z" style="fill:context-stroke;fill-rule:evenodd;stroke:none" transform="scale(-.5)"/></marker><marker id="i" markerHeight="5" markerWidth="8.75" orient="auto-start-reverse" preserveAspectRatio="xMidYMid" refX="0" refY="0" style="overflow:visible" viewBox="0 0 8.75 5"><path d="m0 0 5-5-17.5 5L5 5Z" style="fill:context-stroke;fill-rule:evenodd;stroke:none" transform="scale(-.5)"/></marker><marker id="j" markerHeight="5" markerWidth="8.75" orient="auto-start-reverse" preserveAspectRatio="xMidYMid" refX="0" refY="0" style="overflow:visible" viewBox="0 0 8.75 5"><path d="m0 0 5-5-17.5 5L5 5Z" style="fill:context-stroke;fill-rule:evenodd;stroke:none" transform="scale(-.5)"/></marker><marker id="m" markerHeight="5" markerWidth="8.75" orient="auto-start-reverse" preserveAspectRatio="xMidYMid" refX="0" refY="0" style="overflow:visible" viewBox="0 0 8.75 5"><path d="m0 0 5-5-17.5 5L5 5Z" style="fill:context-stroke;fill-rule:evenodd;stroke:none" transform="scale(-.5)"/></marker><marker id="n" markerHeight="5" markerWidth="8.75" orient="auto-start-reverse" preserveAspectRatio="xMidYMid" refX="0" refY="0" style="overflow:visible" viewBox="0 0 8.75 5"><path d="m0 0 5-5-17.5 5L5 5Z" style="fill:context-stroke;fill-rule:evenodd;stroke:none" transform="scale(-.5)"/></marker><marker id="q" markerHeight="5" markerWidth="8.75" orient="auto-start-reverse" preserveAspectRatio="xMidYMid" refX="0" refY="0" style="overflow:visible" viewBox="0 0 8.75 5"><path d="m0 0 5-5-17.5 5L5 5Z" style="fill:context-stroke;fill-rule:evenodd;stroke:none" transform="scale(-.5)"/></marker><marker id="r" markerHeight="5" markerWidth="8.75" orient="auto-start-reverse" preserveAspectRatio="xMidYMid" refX="0" refY="0" style="overflow:visible" viewBox="0 0 8.75 5"><path d="m0 0 5-5-17.5 5L5 5Z" style="fill:context-stroke;fill-rule:evenodd;stroke:none" transform="scale(-.5)"/></marker><marker id="s" markerHeight="5" markerWidth="8.75" orient="auto-start-reverse" preserveAspectRatio="xMidYMid" refX="0" refY="0" style="overflow:visible" viewBox="0 0 8.75 5"><path d="m0 0 5-5-17.5 5L5 5Z" style="fill:context-stroke;fill-rule:evenodd;stroke:none" transform="scale(-.5)"/></marker><marker id="t" markerHeight="5" markerWidth="8.75" orient="auto-start-reverse" preserveAspectRatio="xMidYMid" refX="0" refY="0" style="overflow:visible" viewBox="0 0 8.75 5"><path d="m0 0 5-5-17.5 5L5 5Z" style="fill:context-stroke;fill-rule:evenodd;stroke:none" transform="scale(-.5)"/></marker><marker id="u" markerHeight="5" markerWidth="8.75" orient="auto-start-reverse" preserveAspectRatio="xMidYMid" refX="0" refY="0" style="overflow:visible" viewBox="0 0 8.75 5"><path d="m0 0 5-5-17.5 5L5 5Z" style="fill:context-stroke;fill-rule:evenodd;stroke:none" transform="scale(-.5)"/></marker><marker id="v" markerHeight="5" markerWidth="8.75" orient="auto-start-reverse" preserveAspectRatio="xMidYMid" refX="0" refY="0" style="overflow:visible" viewBox="0 0 8.75 5"><path d="m0 0 5-5-17.5 5L5 5Z" style="fill:context-stroke;fill-rule:evenodd;stroke:none" transform="scale(-.5)"/></marker><marker id="y" markerHeight="5" markerWidth="8.75" orient="auto-start-reverse" preserveAspectRatio="xMidYMid" refX="0" refY="0" style="overflow:visible" viewBox="0 0 8.75 5"><path d="m0 0 5-5-17.5 5L5 5Z" style="fill:context-stroke;fill-rule:evenodd;stroke:none" transform="scale(-.5)"/></marker><marker id="z" markerHeight="5" markerWidth="8.75" orient="auto-start-reverse" preserveAspectRatio="xMidYMid" refX="0" refY="0" style="overflow:visible" viewBox="0 0 8.75 5"><path d="m0 0 5-5-17.5 5L5 5Z" style="fill:context-stroke;fill-rule:evenodd;stroke:none" transform="scale(-.5)"/></marker><marker id="A" markerHeight="5" markerWidth="8.75" orient="auto-start-reverse" preserveAspectRatio="xMidYMid" refX="0" refY="0" style="overflow:visible" viewBox="0 0 8.75 5"><path d="m0 0 5-5-17.5 5L5 5Z" style="fill:context-stroke;fill-rule:evenodd;stroke:none" transform="scale(-.5)"/></marker><marker id="B" markerHeight="5" markerWidth="8.75" orient="auto-start-reverse" preserveAspectRatio="xMidYMid" refX="0" refY="0" style="overflow:visible" viewBox="0 0 8.75 5"><path d="m0 0 5-5-17.5 5L5 5Z" style="fill:context-stroke;fill-rule:evenodd;stroke:none" transform="scale(-.5)"/></marker><marker id="C" markerHeight="5" markerWidth="8.75" orient="auto-start-reverse" preserveAspectRatio="xMidYMid" refX="0" refY="0" style="overflow:visible" viewBox="0 0 8.75 5"><path d="m0 0 5-5-17.5 5L5 5Z" style="fill:context-stroke;fill-rule:evenodd;stroke:none" transform="scale(-.5)"/></marker><marker id="D" markerHeight="5" markerWidth="8.75" orient="auto-start-reverse" preserveAspectRatio="xMidYMid" refX="0" refY="0" style="overflow:visible" viewBox="0 0 8.75 5"><path d="m0 0 5-5-17.5 5L5 5Z" style="fill:context-stroke;fill-rule:evenodd;stroke:none" transform="scale(-.5)"/></marker><marker id="G" markerHeight="5" markerWidth="8.75" orient="auto-start-reverse" preserveAspectRatio="xMidYMid" refX="0" refY="0" style="overflow:visible" viewBox="0 0 8.75 5"><path d="m0 0 5-5-17.5 5L5 5Z" style="fill:context-stroke;fill-rule:evenodd;stroke:none" transform="scale(-.5)"/></marker><marker id="H" markerHeight="5" markerWidth="8.75" orient="auto-start-reverse" preserveAspectRatio="xMidYMid" refX="0" refY="0" style="overflow:visible" viewBox="0 0 8.75 5"><path d="m0 0 5-5-17.5 5L5 5Z" style="fill:context-stroke;fill-rule:evenodd;stroke:none" transform="scale(-.5)"/></marker><marker id="I" markerHeight="5" markerWidth="8.75" orient="auto-start-reverse" preserveAspectRatio="xMidYMid" refX="0" refY="0" style="overflow:visible" viewBox="0 0 8.75 5"><path d="m0 0 5-5-17.5 5L5 5Z" style="fill:context-stroke;fill-rule:evenodd;stroke:none" transform="scale(-.5)"/></marker><marker id="J" markerHeight="5" markerWidth="8.75" orient="auto-start-reverse" preserveAspectRatio="xMidYMid" refX="0" refY="0" style="overflow:visible" viewBox="0 0 8.75 5"><path d="m0 0 5-5-17.5 5L5 5Z" style="fill:context-stroke;fill-rule:evenodd;stroke:none" transform="scale(-.5)"/></marker></defs><path d="M14.44 1023.559h92.604v111.125H14.44z" style="fill:#fff;stroke:#fff;stroke-width:.264583;stroke-dasharray:none" transform="translate(-14.308 -1023.427)"/><path d="M19.282 1037.915h17.679" style="fill:none;stroke:#999;stroke-width:.264583px;stroke-linecap:butt;stroke-linejoin:miter;stroke-opacity:1;marker-end:url(#a)" transform="translate(-14.308 -1023.427)"/><path d="M28.122 1046.754v-17.678" style="fill:none;stroke:#999;stroke-width:.264583px;stroke-linecap:butt;stroke-linejoin:miter;stroke-opacity:1;marker-end:url(#b)" transform="translate(-14.308 -1023.427)"/><path d="m17.935 1039.867 23.242-9.27" style="fill:none;stroke:green;stroke-width:.264583px;stroke-linecap:butt;stroke-linejoin:miter;stroke-opacity:1" transform="translate(-14.308 -1023.427)"/><path d="m35.17 1033.013-7.048 4.902" style="fill:purple;stroke:purple;stroke-width:.264583px;stroke-linecap:butt;stroke-linejoin:miter;stroke-opacity:1" transform="translate(-14.308 -1023.427)"/><path d="M35.246 1033.037h6.681" style="fill:none;stroke:#ccc;stroke-width:.264583px;stroke-linecap:butt;stroke-linejoin:miter;stroke-opacity:1" transform="translate(-14.308 -1023.427)"/><path d="M39.86 1033.024s.31-.761.163-1.102c-.127-.297-.79-.557-.79-.557" style="fill:none;stroke:#00f;stroke-width:.264583px;stroke-linecap:butt;stroke-linejoin:miter;stroke-opacity:1" transform="translate(-14.308 -1023.427)"/><text xml:space="preserve" style="font-size:8px;line-height:1.25;font-family:sans-serif;white-space:pre;shape-inside:url(#c);display:inline;fill:#00f" transform="matrix(.26458 0 0 .26458 -55.78 -488.138)"><tspan x="309.291" y="1878.863">ca</tspan></text><path d="M30.24 1036.613s.353.207.434.433c.071.2-.006.674-.006.674" style="fill:none;stroke:purple;stroke-width:.264584px;stroke-linecap:butt;stroke-linejoin:miter;stroke-opacity:1" transform="translate(-14.308 -1023.427)"/><text xml:space="preserve" style="font-size:8px;line-height:1.25;font-family:sans-serif;white-space:pre;shape-inside:url(#d);display:inline;fill:purple" transform="matrix(.26458 0 0 .26458 -68.255 -485.383)"><tspan x="323.205" y="1887.885">a1</tspan></text><path d="m28.162 1035.815.046 2.066M32.45 1034.956s-.163-.09-.227-.165a.614.614 0 0 1-.123-.24c-.023-.09-.009-.284-.009-.284" style="fill:none;stroke:#f60;stroke-width:.264583px;stroke-linecap:butt;stroke-linejoin:miter;stroke-opacity:1" transform="translate(-14.308 -1023.427)"/><path d="M47.08 1037.915h17.68" style="fill:none;stroke:#999;stroke-width:.264583px;stroke-linecap:butt;stroke-linejoin:miter;stroke-opacity:1;marker-end:url(#e)" transform="translate(-14.308 -1023.427)"/><path d="M55.92 1046.754v-17.678" style="fill:none;stroke:#999;stroke-width:.264583px;stroke-linecap:butt;stroke-linejoin:miter;stroke-opacity:1;marker-end:url(#f)" transform="translate(-14.308 -1023.427)"/><path d="m51.304 1047.335 15.889-19.33" style="fill:none;stroke:green;stroke-width:.264583px;stroke-linecap:butt;stroke-linejoin:miter;stroke-opacity:1" transform="translate(-14.308 -1023.427)"/><path d="m62.97 1033.013-7.05 4.902" style="fill:purple;stroke:purple;stroke-width:.264583px;stroke-linecap:butt;stroke-linejoin:miter;stroke-opacity:1" transform="translate(-14.308 -1023.427)"/><path d="M63.045 1033.037h6.68" style="fill:none;stroke:#ccc;stroke-width:.264583px;stroke-linecap:butt;stroke-linejoin:miter;stroke-opacity:1" transform="translate(-14.308 -1023.427)"/><path d="M65.25 1032.982s.31-.761.163-1.103c-.127-.296-.79-.557-.79-.557" style="fill:none;stroke:#00f;stroke-width:.264583px;stroke-linecap:butt;stroke-linejoin:miter;stroke-opacity:1" transform="translate(-14.308 -1023.427)"/><text xml:space="preserve" style="font-size:8px;line-height:1.25;font-family:sans-serif;white-space:pre;shape-inside:url(#g);display:inline;fill:#00f" transform="matrix(.26458 0 0 .26458 -30.39 -488.18)"><tspan x="309.291" y="1878.863">ca</tspan></text><path d="M57.668 1036.803s.353.207.434.432c.071.2-.006.674-.006.674" style="fill:none;stroke:purple;stroke-width:.264584px;stroke-linecap:butt;stroke-linejoin:miter;stroke-opacity:1" transform="translate(-14.308 -1023.427)"/><text xml:space="preserve" style="font-size:8px;line-height:1.25;font-family:sans-serif;white-space:pre;shape-inside:url(#h);display:inline;fill:purple" transform="matrix(.26458 0 0 .26458 -43.486 -487.54)"><tspan x="323.205" y="1887.885">a1</tspan></text><path d="m55.9 1037.767.047 3.78M61.056 1035.241s-.164-.089-.227-.165a.614.614 0 0 1-.123-.24c-.023-.09-.01-.283-.01-.283" style="fill:none;stroke:#f60;stroke-width:.264583px;stroke-linecap:butt;stroke-linejoin:miter;stroke-opacity:1" transform="translate(-14.308 -1023.427)"/><path d="M75.18 1037.88h17.678" style="fill:none;stroke:#999;stroke-width:.264583px;stroke-linecap:butt;stroke-linejoin:miter;stroke-opacity:1;marker-end:url(#i)" transform="translate(-14.308 -1023.427)"/><path d="M84.019 1046.718v-17.678" style="fill:none;stroke:#999;stroke-width:.264583px;stroke-linecap:butt;stroke-linejoin:miter;stroke-opacity:1;marker-end:url(#j)" transform="translate(-14.308 -1023.427)"/><path d="m95.938 1038.044-14.147-9.96" style="fill:none;stroke:green;stroke-width:.264584px;stroke-linecap:butt;stroke-linejoin:miter;stroke-opacity:1" transform="translate(-14.308 -1023.427)"/><path d="m89.871 1033.828-5.85 4.054" style="fill:purple;stroke:purple;stroke-width:.264583px;stroke-linecap:butt;stroke-linejoin:miter;stroke-opacity:1" transform="translate(-14.308 -1023.427)"/><path d="M89.922 1033.827h6.681" style="fill:none;stroke:#ccc;stroke-width:.264583px;stroke-linecap:butt;stroke-linejoin:miter;stroke-opacity:1" transform="translate(-14.308 -1023.427)"/><path d="M91.587 1033.77s-.43-1.207-.958-1.432c-.6-.255-1.924.345-1.924.345" style="fill:none;stroke:#00f;stroke-width:.264583px;stroke-linecap:butt;stroke-linejoin:miter;stroke-opacity:1" transform="translate(-14.308 -1023.427)"/><text xml:space="preserve" style="font-size:8px;line-height:1.25;font-family:sans-serif;white-space:pre;shape-inside:url(#k);display:inline;fill:#00f" transform="matrix(.26458 0 0 .26458 -5.205 -488.266)"><tspan x="309.291" y="1878.863">ca</tspan></text><path d="M86.137 1036.577s.353.207.434.433c.071.2-.006.674-.006.674" style="fill:none;stroke:purple;stroke-width:.264584px;stroke-linecap:butt;stroke-linejoin:miter;stroke-opacity:1" transform="translate(-14.308 -1023.427)"/><text xml:space="preserve" style="font-size:8px;line-height:1.25;font-family:sans-serif;white-space:pre;shape-inside:url(#l);display:inline;fill:purple" transform="matrix(.26458 0 0 .26458 -12.358 -485.418)"><tspan x="323.205" y="1887.885">a1</tspan></text><path d="m83.948 1029.748.117 8.187M88.348 1034.92s-.542-.674-.592-1.083c-.055-.444-.093-.692.34-1.298" style="fill:none;stroke:#f60;stroke-width:.264583px;stroke-linecap:butt;stroke-linejoin:miter;stroke-opacity:1" transform="translate(-14.308 -1023.427)"/><path d="M19.282 1064.493h17.679" style="fill:none;stroke:#999;stroke-width:.264583px;stroke-linecap:butt;stroke-linejoin:miter;stroke-opacity:1;marker-end:url(#m)" transform="translate(-14.308 -1023.427)"/><path d="M28.122 1073.332v-17.678" style="fill:none;stroke:#999;stroke-width:.264583px;stroke-linecap:butt;stroke-linejoin:miter;stroke-opacity:1;marker-end:url(#n)" transform="translate(-14.308 -1023.427)"/><path d="m24.575 1059.665 3.554 4.75" style="fill:purple;stroke:purple;stroke-width:.264583px;stroke-linecap:butt;stroke-linejoin:miter;stroke-opacity:1" transform="translate(-14.308 -1023.427)"/><path d="M24.825 1059.762h2.733" style="fill:none;stroke:#ccc;stroke-width:.264583px;stroke-linecap:butt;stroke-linejoin:miter;stroke-opacity:1" transform="translate(-14.308 -1023.427)"/><path d="M26.683 1059.813s.309-.76.162-1.102c-.127-.296-.79-.557-.79-.557" style="fill:none;stroke:#00f;stroke-width:.264583px;stroke-linecap:butt;stroke-linejoin:miter;stroke-opacity:1" transform="translate(-14.308 -1023.427)"/><text xml:space="preserve" style="font-size:8px;line-height:1.25;font-family:sans-serif;white-space:pre;shape-inside:url(#o);display:inline;fill:#00f" transform="matrix(.26458 0 0 .26458 -72.65 -462.376)"><tspan x="309.291" y="1878.863">ca</tspan></text><path d="M27.221 1063.044s1.178-.272 1.61.047c.36.267.43 1.276.43 1.276" style="fill:none;stroke:purple;stroke-width:.264584px;stroke-linecap:butt;stroke-linejoin:miter;stroke-opacity:1" transform="translate(-14.308 -1023.427)"/><text xml:space="preserve" style="font-size:8px;line-height:1.25;font-family:sans-serif;white-space:pre;shape-inside:url(#p);display:inline;fill:purple" transform="matrix(.26458 0 0 .26458 -70.265 -459.4)"><tspan x="323.205" y="1887.885">a1</tspan></text><path d="m28.162 1056.024.046 8.488M25.364 1060.56s.279-.236.386-.437c.094-.176.204-.416.21-.637.009-.292-.228-.854-.228-.854" style="fill:none;stroke:#f60;stroke-width:.264583px;stroke-linecap:butt;stroke-linejoin:miter;stroke-opacity:1" transform="translate(-14.308 -1023.427)"/><path d="M47.08 1064.493h17.68" style="fill:none;stroke:#999;stroke-width:.264583px;stroke-linecap:butt;stroke-linejoin:miter;stroke-opacity:1;marker-end:url(#q)" transform="translate(-14.308 -1023.427)"/><path d="M55.92 1073.332v-17.678" style="fill:none;stroke:#999;stroke-width:.264583px;stroke-linecap:butt;stroke-linejoin:miter;stroke-opacity:1;marker-end:url(#r)" transform="translate(-14.308 -1023.427)"/><path d="M75.18 1064.457h17.678" style="fill:none;stroke:#999;stroke-width:.264583px;stroke-linecap:butt;stroke-linejoin:miter;stroke-opacity:1;marker-end:url(#s)" transform="translate(-14.308 -1023.427)"/><path d="M84.019 1073.296v-17.678" style="fill:none;stroke:#999;stroke-width:.264583px;stroke-linecap:butt;stroke-linejoin:miter;stroke-opacity:1;marker-end:url(#t)" transform="translate(-14.308 -1023.427)"/><path d="M19.282 1091.071h17.679" style="fill:none;stroke:#999;stroke-width:.264583px;stroke-linecap:butt;stroke-linejoin:miter;stroke-opacity:1;marker-end:url(#u)" transform="translate(-14.308 -1023.427)"/><path d="M28.122 1099.91v-17.678" style="fill:none;stroke:#999;stroke-width:.264583px;stroke-linecap:butt;stroke-linejoin:miter;stroke-opacity:1;marker-end:url(#v)" transform="translate(-14.308 -1023.427)"/><path d="m28.165 1091.05-7.049 4.903" style="fill:purple;stroke:purple;stroke-width:.264583px;stroke-linecap:butt;stroke-linejoin:miter;stroke-opacity:1" transform="translate(-14.308 -1023.427)"/><path d="M21.168 1096.016h6.68" style="fill:none;stroke:#ccc;stroke-width:.264583px;stroke-linecap:butt;stroke-linejoin:miter;stroke-opacity:1" transform="translate(-14.308 -1023.427)"/><path d="M25.783 1096.003s.308-.761.162-1.102c-.127-.297-.79-.557-.79-.557" style="fill:none;stroke:#00f;stroke-width:.264583px;stroke-linecap:butt;stroke-linejoin:miter;stroke-opacity:1" transform="translate(-14.308 -1023.427)"/><text xml:space="preserve" style="font-size:8px;line-height:1.25;font-family:sans-serif;white-space:pre;shape-inside:url(#w);display:inline;fill:#00f" transform="matrix(.26458 0 0 .26458 -69.857 -425.16)"><tspan x="309.291" y="1878.863">ca</tspan></text><path d="M27.441 1091.536s-.454-.969-.198-1.342c.309-.452 1.123-.632 1.602-.366.353.197.394 1.147.394 1.147" style="fill:none;stroke:purple;stroke-width:.264584px;stroke-linecap:butt;stroke-linejoin:miter;stroke-opacity:1" transform="translate(-14.308 -1023.427)"/><text xml:space="preserve" style="font-size:8px;line-height:1.25;font-family:sans-serif;white-space:pre;shape-inside:url(#x);display:inline;fill:purple" transform="matrix(.26458 0 0 .26458 -71.093 -433.508)"><tspan x="323.205" y="1887.885">a1</tspan></text><path d="m28.158 1091.126.047 2.066M23.829 1093.963s.164.09.227.165c.055.066.1.149.123.24.023.09.009.283.009.283" style="fill:none;stroke:#f60;stroke-width:.264583px;stroke-linecap:butt;stroke-linejoin:miter;stroke-opacity:1" transform="translate(-14.308 -1023.427)"/><path d="M47.08 1091.071h17.68" style="fill:none;stroke:#999;stroke-width:.264583px;stroke-linecap:butt;stroke-linejoin:miter;stroke-opacity:1;marker-end:url(#y)" transform="translate(-14.308 -1023.427)"/><path d="M55.92 1099.91v-17.678" style="fill:none;stroke:#999;stroke-width:.264583px;stroke-linecap:butt;stroke-linejoin:miter;stroke-opacity:1;marker-end:url(#z)" transform="translate(-14.308 -1023.427)"/><path d="M75.18 1091.035h17.678" style="fill:none;stroke:#999;stroke-width:.264583px;stroke-linecap:butt;stroke-linejoin:miter;stroke-opacity:1;marker-end:url(#A)" transform="translate(-14.308 -1023.427)"/><path d="M84.019 1099.875v-17.679" style="fill:none;stroke:#999;stroke-width:.264583px;stroke-linecap:butt;stroke-linejoin:miter;stroke-opacity:1;marker-end:url(#B)" transform="translate(-14.308 -1023.427)"/><path d="M19.282 1117.65h17.679" style="fill:none;stroke:#999;stroke-width:.264583px;stroke-linecap:butt;stroke-linejoin:miter;stroke-opacity:1;marker-end:url(#C)" transform="translate(-14.308 -1023.427)"/><path d="M28.122 1126.489v-17.678" style="fill:none;stroke:#999;stroke-width:.264583px;stroke-linecap:butt;stroke-linejoin:miter;stroke-opacity:1;marker-end:url(#D)" transform="translate(-14.308 -1023.427)"/><path d="m35.271 1122.593-7.049-4.902" style="fill:purple;stroke:purple;stroke-width:.264583px;stroke-linecap:butt;stroke-linejoin:miter;stroke-opacity:1" transform="translate(-14.308 -1023.427)"/><path d="M35.21 1122.804h6.667" style="fill:none;stroke:#ccc;stroke-width:.264584px;stroke-linecap:butt;stroke-linejoin:miter;stroke-opacity:1" transform="translate(-14.308 -1023.427)"/><path d="M38.516 1122.802s.127-.334.067-.484c-.052-.13-.324-.245-.324-.245" style="fill:none;stroke:#00f;stroke-width:.264583px;stroke-linecap:butt;stroke-linejoin:miter;stroke-opacity:1" transform="translate(-14.308 -1023.427)"/><text xml:space="preserve" style="font-size:8px;line-height:1.25;font-family:sans-serif;white-space:pre;shape-inside:url(#E);display:inline;fill:#00f" transform="matrix(.26458 0 0 .26458 -56.689 -398.04)"><tspan x="309.291" y="1878.863">ca</tspan></text><path d="M28.914 1118.398s-.938.592-1.357.38c-.438-.22-.548-.885-.524-1.375.024-.488.249-1.04.655-1.312.34-.23.885-.32 1.227-.093.449.297.516 1.53.516 1.53" style="fill:none;stroke:purple;stroke-width:.264584px;stroke-linecap:butt;stroke-linejoin:miter;stroke-opacity:1" transform="translate(-14.308 -1023.427)"/><text xml:space="preserve" style="font-size:8px;line-height:1.25;font-family:sans-serif;white-space:pre;shape-inside:url(#F);display:inline;fill:purple" transform="matrix(.26458 0 0 .26458 -70.353 -406.68)"><tspan x="323.205" y="1887.885">a1</tspan></text><path d="m28.13 1117.573.047 6.323" style="fill:none;stroke:#f60;stroke-width:.264584px;stroke-linecap:butt;stroke-linejoin:miter;stroke-opacity:1" transform="translate(-14.308 -1023.427)"/><path d="M33.059 1122.868s-.164-.198-.228-.366c-.055-.147-.136-.35-.123-.532.02-.293.315-.822.315-.822" style="fill:none;stroke:#f60;stroke-width:.264583px;stroke-linecap:butt;stroke-linejoin:miter;stroke-opacity:1" transform="translate(-14.308 -1023.427)"/><path d="M47.08 1117.65h17.68" style="fill:none;stroke:#999;stroke-width:.264583px;stroke-linecap:butt;stroke-linejoin:miter;stroke-opacity:1;marker-end:url(#G)" transform="translate(-14.308 -1023.427)"/><path d="M55.92 1126.489v-17.678" style="fill:none;stroke:#999;stroke-width:.264583px;stroke-linecap:butt;stroke-linejoin:miter;stroke-opacity:1;marker-end:url(#H)" transform="translate(-14.308 -1023.427)"/><path d="M75.18 1117.614h17.678" style="fill:none;stroke:#999;stroke-width:.264583px;stroke-linecap:butt;stroke-linejoin:miter;stroke-opacity:1;marker-end:url(#I)" transform="translate(-14.308 -1023.427)"/><path d="M84.019 1126.453v-17.678" style="fill:none;stroke:#999;stroke-width:.264583px;stroke-linecap:butt;stroke-linejoin:miter;stroke-opacity:1;marker-end:url(#J)" transform="translate(-14.308 -1023.427)"/><text xml:space="preserve" style="font-size:14.6667px;line-height:1.25;font-family:sans-serif;white-space:pre;shape-inside:url(#K);display:inline" transform="matrix(.26458 0 0 .26458 -13.048 -913.38)"><tspan x="56.164" y="3868.641">Y-axis cases</tspan></text><path d="m52.39 1059.79 3.555 4.75" style="fill:purple;stroke:purple;stroke-width:.264583px;stroke-linecap:butt;stroke-linejoin:miter;stroke-opacity:1" transform="translate(-14.308 -1023.427)"/><path d="M52.64 1059.888h2.734" style="fill:none;stroke:#ccc;stroke-width:.264583px;stroke-linecap:butt;stroke-linejoin:miter;stroke-opacity:1" transform="translate(-14.308 -1023.427)"/><path d="M53.433 1059.915s.073-.848-.174-1.144c-.293-.352-1.298-.449-1.298-.449" style="fill:none;stroke:#00f;stroke-width:.264583px;stroke-linecap:butt;stroke-linejoin:miter;stroke-opacity:1" transform="translate(-14.308 -1023.427)"/><text xml:space="preserve" style="font-size:8px;line-height:1.25;font-family:sans-serif;white-space:pre;shape-inside:url(#L);display:inline;fill:#00f" transform="matrix(.26458 0 0 .26458 -43.652 -462.406)"><tspan x="309.291" y="1878.863">ca</tspan></text><path d="M55.037 1063.17s1.177-.272 1.609.047c.36.267.43 1.276.43 1.276" style="fill:none;stroke:purple;stroke-width:.264584px;stroke-linecap:butt;stroke-linejoin:miter;stroke-opacity:1" transform="translate(-14.308 -1023.427)"/><text xml:space="preserve" style="font-size:8px;line-height:1.25;font-family:sans-serif;white-space:pre;shape-inside:url(#M);display:inline;fill:purple" transform="matrix(.26458 0 0 .26458 -42.45 -459.274)"><tspan x="323.205" y="1887.885">a1</tspan></text><path d="m55.894 1064.457.047 3.145M53.704 1062.632s.11.01.175-.025a.448.448 0 0 0 .178-.138c.062-.089.126-.333.126-.333" style="fill:none;stroke:#f60;stroke-width:.264583px;stroke-linecap:butt;stroke-linejoin:miter;stroke-opacity:1" transform="translate(-14.308 -1023.427)"/><path d="m80.527 1059.7 3.554 4.749" style="fill:purple;stroke:purple;stroke-width:.264583px;stroke-linecap:butt;stroke-linejoin:miter;stroke-opacity:1" transform="translate(-14.308 -1023.427)"/><path d="M80.777 1059.796h2.733" style="fill:none;stroke:#ccc;stroke-width:.264583px;stroke-linecap:butt;stroke-linejoin:miter;stroke-opacity:1" transform="translate(-14.308 -1023.427)"/><path d="M81.73 1059.717s-.418-1.061-.899-1.203c-.498-.148-1.462.54-1.462.54" style="fill:none;stroke:#00f;stroke-width:.264583px;stroke-linecap:butt;stroke-linejoin:miter;stroke-opacity:1" transform="translate(-14.308 -1023.427)"/><text xml:space="preserve" style="font-size:8px;line-height:1.25;font-family:sans-serif;white-space:pre;shape-inside:url(#N);display:inline;fill:#00f" transform="matrix(.26458 0 0 .26458 -15.515 -462.497)"><tspan x="309.291" y="1878.863">ca</tspan></text><path d="M83.173 1063.079s1.178-.273 1.61.047c.36.267.43 1.276.43 1.276" style="fill:none;stroke:purple;stroke-width:.264584px;stroke-linecap:butt;stroke-linejoin:miter;stroke-opacity:1" transform="translate(-14.308 -1023.427)"/><text xml:space="preserve" style="font-size:8px;line-height:1.25;font-family:sans-serif;white-space:pre;shape-inside:url(#O);display:inline;fill:purple" transform="matrix(.26458 0 0 .26458 -14.313 -459.365)"><tspan x="323.205" y="1887.885">a1</tspan></text><path d="m84.01 1060.654.046 3.893M81.854 1061.274s.216.017.343-.042a.877.877 0 0 0 .348-.229c.122-.148.247-.555.247-.555" style="fill:none;stroke:#f60;stroke-width:.264583px;stroke-linecap:butt;stroke-linejoin:miter;stroke-opacity:1" transform="translate(-14.308 -1023.427)"/><path d="m91.003 1063.216-15.287-5.141M56.866 1069.857l-6.462-14.776M18.055 1066.619l12.228-12.99M17.72 1097.273l23.243-9.27" style="fill:none;stroke:green;stroke-width:.264583px;stroke-linecap:butt;stroke-linejoin:miter;stroke-opacity:1" transform="translate(-14.308 -1023.427)"/><path d="m55.848 1091.032-7.05 4.902" style="fill:purple;stroke:purple;stroke-width:.264583px;stroke-linecap:butt;stroke-linejoin:miter;stroke-opacity:1" transform="translate(-14.308 -1023.427)"/><path d="M48.85 1095.997h6.681" style="fill:none;stroke:#ccc;stroke-width:.264583px;stroke-linecap:butt;stroke-linejoin:miter;stroke-opacity:1" transform="translate(-14.308 -1023.427)"/><path d="M50.971 1095.99s.309-.762.162-1.103c-.127-.296-.79-.557-.79-.557" style="fill:none;stroke:#00f;stroke-width:.264583px;stroke-linecap:butt;stroke-linejoin:miter;stroke-opacity:1" transform="translate(-14.308 -1023.427)"/><text xml:space="preserve" style="font-size:8px;line-height:1.25;font-family:sans-serif;white-space:pre;shape-inside:url(#P);display:inline;fill:#00f" transform="matrix(.26458 0 0 .26458 -44.74 -424.843)"><tspan x="309.291" y="1878.863">ca</tspan></text><path d="M55.124 1091.518s-.454-.97-.199-1.343c.31-.452 1.124-.632 1.602-.365.354.196.394 1.147.394 1.147" style="fill:none;stroke:purple;stroke-width:.264584px;stroke-linecap:butt;stroke-linejoin:miter;stroke-opacity:1" transform="translate(-14.308 -1023.427)"/><text xml:space="preserve" style="font-size:8px;line-height:1.25;font-family:sans-serif;white-space:pre;shape-inside:url(#Q);display:inline;fill:purple" transform="matrix(.26458 0 0 .26458 -43.41 -433.527)"><tspan x="323.205" y="1887.885">a1</tspan></text><path d="m55.896 1087.726.047 3.457M51.403 1092.914s.278.089.385.165c.093.066.17.149.21.24.038.09.014.283.014.283" style="fill:none;stroke:#f60;stroke-width:.264583px;stroke-linecap:butt;stroke-linejoin:miter;stroke-opacity:1" transform="translate(-14.308 -1023.427)"/><path d="m46.422 1098.735 16.3-18.985" style="fill:none;stroke:green;stroke-width:.264583px;stroke-linecap:butt;stroke-linejoin:miter;stroke-opacity:1" transform="translate(-14.308 -1023.427)"/><path d="m83.91 1090.923-7.05 4.902" style="fill:purple;stroke:purple;stroke-width:.264583px;stroke-linecap:butt;stroke-linejoin:miter;stroke-opacity:1" transform="translate(-14.308 -1023.427)"/><path d="M76.912 1095.888h6.681" style="fill:none;stroke:#ccc;stroke-width:.264583px;stroke-linecap:butt;stroke-linejoin:miter;stroke-opacity:1" transform="translate(-14.308 -1023.427)"/><path d="M79.033 1095.88s-.635-1.303-1.256-1.512c-.909-.307-2.805.645-2.805.645" style="fill:none;stroke:#00f;stroke-width:.264583px;stroke-linecap:butt;stroke-linejoin:miter;stroke-opacity:1" transform="translate(-14.308 -1023.427)"/><text xml:space="preserve" style="font-size:8px;line-height:1.25;font-family:sans-serif;white-space:pre;shape-inside:url(#R);display:inline;fill:#00f" transform="matrix(.26458 0 0 .26458 -20.878 -427.078)"><tspan x="309.291" y="1878.863">ca</tspan></text><path d="M83.186 1091.409s-.454-.97-.2-1.343c.31-.452 1.124-.632 1.603-.366.353.197.394 1.148.394 1.148" style="fill:none;stroke:purple;stroke-width:.264584px;stroke-linecap:butt;stroke-linejoin:miter;stroke-opacity:1" transform="translate(-14.308 -1023.427)"/><text xml:space="preserve" style="font-size:8px;line-height:1.25;font-family:sans-serif;white-space:pre;shape-inside:url(#S);display:inline;fill:purple" transform="matrix(.26458 0 0 .26458 -15.349 -433.636)"><tspan x="323.205" y="1887.885">a1</tspan></text><path d="m83.985 1090.894.047 7.64M79.224 1094.38s.631.252.808.519c.24.364.36.879.22 1.293-.106.314-.727.676-.727.676" style="fill:none;stroke:#f60;stroke-width:.264583px;stroke-linecap:butt;stroke-linejoin:miter;stroke-opacity:1" transform="translate(-14.308 -1023.427)"/><path d="m85.795 1099.397-12.181-4.766M64.924 1125.822l-12.192-19.282" style="fill:none;stroke:green;stroke-width:.264582px;stroke-linecap:butt;stroke-linejoin:miter;stroke-opacity:1" transform="translate(-14.308 -1023.427)"/><path d="m63.077 1122.606-7.05-4.902" style="fill:purple;stroke:purple;stroke-width:.264583px;stroke-linecap:butt;stroke-linejoin:miter;stroke-opacity:1" transform="translate(-14.308 -1023.427)"/><path d="M56.72 1118.411s-.938.592-1.358.38c-.438-.22-.548-.885-.524-1.375.024-.488.25-1.04.655-1.313.34-.228.885-.319 1.227-.093.449.298.516 1.532.516 1.532" style="fill:none;stroke:purple;stroke-width:.264584px;stroke-linecap:butt;stroke-linejoin:miter;stroke-opacity:1" transform="translate(-14.308 -1023.427)"/><text xml:space="preserve" style="font-size:8px;line-height:1.25;font-family:sans-serif;white-space:pre;shape-inside:url(#T);display:inline;fill:purple" transform="matrix(.26458 0 0 .26458 -47.788 -406.655)"><tspan x="323.205" y="1887.885">a1</tspan></text><path d="m55.917 1111.467.047 6.323" style="fill:none;stroke:#f60;stroke-width:.264584px;stroke-linecap:butt;stroke-linejoin:miter;stroke-opacity:1" transform="translate(-14.308 -1023.427)"/><path d="M59.49 1120.185s.003-.257.064-.426c.053-.147.124-.355.251-.485.205-.21.772-.422.772-.422" style="fill:none;stroke:#f60;stroke-width:.264583px;stroke-linecap:butt;stroke-linejoin:miter;stroke-opacity:1" transform="translate(-14.308 -1023.427)"/><path d="M62.985 1122.698h4.053" style="fill:none;stroke:#ccc;stroke-width:.264584px;stroke-linecap:butt;stroke-linejoin:miter;stroke-opacity:1" transform="translate(-14.308 -1023.427)"/><path d="M63.747 1122.822s-.017-.934-.313-1.242c-.298-.311-1.239-.367-1.239-.367" style="fill:none;stroke:#00f;stroke-width:.264582px;stroke-linecap:butt;stroke-linejoin:miter;stroke-opacity:1" transform="translate(-14.308 -1023.427)"/><text xml:space="preserve" style="font-size:8px;line-height:1.25;font-family:sans-serif;white-space:pre;shape-inside:url(#U);display:inline;fill:#00f" transform="matrix(.26458 0 0 .26458 -32.133 -399.034)"><tspan x="309.291" y="1878.863">ca</tspan></text><path d="m21.08 1125.301 18.126-3.434" style="fill:none;stroke:green;stroke-width:.264583px;stroke-linecap:butt;stroke-linejoin:miter;stroke-opacity:1" transform="translate(-14.308 -1023.427)"/><path d="m94.444 1123.597-19.053-6.563" style="fill:none;stroke:green;stroke-width:.264582px;stroke-linecap:butt;stroke-linejoin:miter;stroke-opacity:1" transform="translate(-14.308 -1023.427)"/><path d="m91.102 1122.431-7.05-4.902" style="fill:purple;stroke:purple;stroke-width:.264583px;stroke-linecap:butt;stroke-linejoin:miter;stroke-opacity:1" transform="translate(-14.308 -1023.427)"/><path d="M84.744 1118.237s-.937.591-1.357.38c-.438-.22-.548-.885-.524-1.375.024-.489.25-1.04.655-1.313.34-.229.885-.32 1.227-.093.449.297.516 1.531.516 1.531" style="fill:none;stroke:purple;stroke-width:.264584px;stroke-linecap:butt;stroke-linejoin:miter;stroke-opacity:1" transform="translate(-14.308 -1023.427)"/><text xml:space="preserve" style="font-size:8px;line-height:1.25;font-family:sans-serif;white-space:pre;shape-inside:url(#V);display:inline;fill:purple" transform="matrix(.26458 0 0 .26458 -19.763 -406.83)"><tspan x="323.205" y="1887.885">a1</tspan></text><path d="m84.035 1117.516.047 2.562" style="fill:none;stroke:#f60;stroke-width:.264584px;stroke-linecap:butt;stroke-linejoin:miter;stroke-opacity:1" transform="translate(-14.308 -1023.427)"/><path d="M86.99 1120.993s.002-.173.034-.288c.028-.1.066-.24.134-.327.109-.142.411-.285.411-.285" style="fill:none;stroke:#f60;stroke-width:.264583px;stroke-linecap:butt;stroke-linejoin:miter;stroke-opacity:1" transform="translate(-14.308 -1023.427)"/><path d="M91.01 1122.523h4.053" style="fill:none;stroke:#ccc;stroke-width:.264584px;stroke-linecap:butt;stroke-linejoin:miter;stroke-opacity:1" transform="translate(-14.308 -1023.427)"/><path d="M92.39 1122.57s-.042-.913-.312-1.244c-.258-.315-.7-.587-1.102-.527-.588.088-1.314 1.208-1.314 1.208" style="fill:none;stroke:#00f;stroke-width:.264582px;stroke-linecap:butt;stroke-linejoin:miter;stroke-opacity:1" transform="translate(-14.308 -1023.427)"/><text xml:space="preserve" style="font-size:8px;line-height:1.25;font-family:sans-serif;white-space:pre;shape-inside:url(#W);display:inline;fill:#00f" transform="matrix(.26458 0 0 .26458 -5.29 -399.911)"><tspan x="309.291" y="1878.863">ca</tspan></text></svg>