<svg xmlns="http://www.w3.org/2000/svg" width="462.781" height="182.34" viewBox="0 0 122.444 48.244"><defs><path id="b" d="M49.203 5441.159h459.325v43.762H49.203z"/><path id="a" d="M48.908 5399.79h224.76v37.341H48.908z"/><path id="c" d="M258.997 5379.074H427.44v53.198H258.997z"/><marker id="d" markerHeight="5" markerWidth="8.75" orient="auto-start-reverse" preserveAspectRatio="xMidYMid" refX="0" refY="0" style="overflow:visible" viewBox="0 0 8.75 5"><path d="m0 0 5-5-17.5 5L5 5Z" style="fill:context-stroke;fill-rule:evenodd;stroke:none" transform="scale(-.5)"/></marker></defs><path d="M9.914 1425.96h122.18v47.979H9.914z" style="fill:#fff;stroke:#fff;stroke-width:.264583" transform="translate(-9.782 -1425.828)"/><text xml:space="preserve" style="font-size:14.6667px;line-height:1.25;font-family:sans-serif;white-space:pre;shape-inside:url(#a);display:inline" transform="matrix(.26458 0 0 .26458 -10.317 -1426.976)"><tspan x="48.908" y="5412.766">low-tech path</tspan></text><text xml:space="preserve" style="font-size:14.6667px;line-height:1.25;font-family:sans-serif;white-space:pre;shape-inside:url(#b);display:inline" transform="matrix(.26458 0 0 .26458 -9.782 -1425.828)"><tspan x="49.203" y="5454.137">2D programmatic design &gt; Parametrization &gt; 2D display
</tspan><tspan x="49.203" y="5472.47">then Extrusion + intersection &gt; 3D display</tspan></text><text xml:space="preserve" style="font-size:14.6667px;line-height:1.25;font-family:sans-serif;white-space:pre;shape-inside:url(#c);display:inline" transform="matrix(.26458 0 0 .26458 -29.414 -1389.238)"><tspan x="258.996" y="5392.051">computing
</tspan><tspan x="258.996" y="5410.384">demanding</tspan></text><path d="m54.296 1457.854-.872-6.851" style="fill:none;stroke:#000;stroke-width:.264583px;stroke-linecap:butt;stroke-linejoin:miter;stroke-opacity:1;marker-end:url(#d)" transform="translate(-9.782 -1425.828)"/></svg>