<svg xmlns="http://www.w3.org/2000/svg" width="275.935" height="258.388" viewBox="0 0 73.008 68.365"><defs><path id="q" d="M36.4 1385.045h164.142v25.89H36.4z"/><path id="b" d="M297.447 262.575h73.804v34.937h-73.804z"/><path id="d" d="M297.447 262.575h73.804v34.937h-73.804z"/><path id="e" d="M134.534 178.276h23.407v18.098h-23.407z"/><path id="f" d="M154.52 258.846h53.162v18.637H154.52z"/><path id="g" d="M165.537 227.936h17.956v23.248h-17.956z"/><path id="h" d="M277.39 227.391h29.253v20.905H277.39z"/><path id="i" d="M144.961 171.434h20.181v17.024h-20.181z"/><path id="k" d="M190.743 238.793h32.673v18.216h-32.673z"/><path id="m" d="M209.512 237.971h32.899v19.47h-32.899z"/><path id="n" d="M62.586 328.485h255.34v34.586H62.586z"/><path id="o" d="M233.92 487.777h62.577v47.574H233.92z"/><path id="p" d="M126.984 258.936h42.995v24.019h-42.995z"/><marker id="a" markerHeight="5" markerWidth="8.75" orient="auto-start-reverse" preserveAspectRatio="xMidYMid" refX="0" refY="0" style="overflow:visible" viewBox="0 0 8.75 5"><path d="m0 0 5-5-17.5 5L5 5Z" style="fill:context-stroke;fill-rule:evenodd;stroke:none" transform="scale(-.5)"/></marker><marker id="c" markerHeight="5" markerWidth="8.75" orient="auto-start-reverse" preserveAspectRatio="xMidYMid" refX="0" refY="0" style="overflow:visible" viewBox="0 0 8.75 5"><path d="m0 0 5-5-17.5 5L5 5Z" style="fill:context-stroke;fill-rule:evenodd;stroke:none" transform="scale(-.5)"/></marker><marker id="j" markerHeight="5" markerWidth="8.75" orient="auto-start-reverse" preserveAspectRatio="xMidYMid" refX="0" refY="0" style="overflow:visible" viewBox="0 0 8.75 5"><path d="m0 0 5-5-17.5 5L5 5Z" style="fill:context-stroke;fill-rule:evenodd;stroke:none" transform="scale(-.5)"/></marker><marker id="l" markerHeight="5" markerWidth="8.75" orient="auto-start-reverse" preserveAspectRatio="xMidYMid" refX="0" refY="0" style="overflow:visible" viewBox="0 0 8.75 5"><path d="m0 0 5-5-17.5 5L5 5Z" style="fill:context-stroke;fill-rule:evenodd;stroke:none" transform="scale(-.5)"/></marker></defs><g transform="translate(-8.185 -364.69)"><path d="M8.318 364.823h72.743v68.101H8.318z" style="fill:#fff;stroke:#fff;stroke-width:.264583"/><path d="M75.548 406.003s.271 1.33.05 1.917c-.22.586-1.249 1.28-1.249 1.28" style="fill:none;stroke:#000;stroke-width:.264583px;stroke-linecap:butt;stroke-linejoin:miter;stroke-opacity:1;marker-end:url(#a)"/><text xml:space="preserve" style="font-size:14.6667px;line-height:1.25;font-family:sans-serif;white-space:pre;shape-inside:url(#b);display:inline" transform="matrix(.26458 0 0 .26458 -3.012 336.824)"><tspan x="297.447" y="275.551">u</tspan></text><path d="m34.67 395.642 36.662 10.567" style="fill:none;stroke:green;stroke-width:.264583px;stroke-linecap:butt;stroke-linejoin:miter;stroke-opacity:1"/><circle cx="34.626" cy="395.823" r="24.769" style="fill:none;stroke:gray;stroke-width:.264583"/><path d="M34.626 395.823h24.769M34.67 395.642l10.217 22.564" style="fill:none;stroke:teal;stroke-width:.264583px;stroke-linecap:butt;stroke-linejoin:miter;stroke-opacity:1"/><path d="M39.068 395.695s.271 1.33.05 1.917c-.22.586-1.249 1.28-1.249 1.28" style="fill:none;stroke:#000;stroke-width:.264583px;stroke-linecap:butt;stroke-linejoin:miter;stroke-opacity:1;marker-end:url(#c)"/><text xml:space="preserve" style="font-size:14.6667px;line-height:1.25;font-family:sans-serif;white-space:pre;shape-inside:url(#d);display:inline" transform="matrix(.26458 0 0 .26458 -39.692 327.003)"><tspan x="297.447" y="275.551">u</tspan></text><path d="m44.882 418.2 26.45-11.991" style="fill:none;stroke:red;stroke-width:.264582px;stroke-linecap:butt;stroke-linejoin:miter;stroke-opacity:1"/><text xml:space="preserve" style="font-size:14.6667px;line-height:1.25;font-family:sans-serif;white-space:pre;shape-inside:url(#e);display:inline" transform="matrix(.26458 0 0 .26458 1.575 358.962)"><tspan x="134.535" y="191.252">R</tspan></text><path d="M45.003 417.969s2.779-1.372 4.055-2.24c1.336-.91 2.625-1.917 3.738-3.089 1.208-1.273 2.22-2.732 3.138-4.228.833-1.358 1.578-2.784 2.129-4.278.51-1.384.842-2.836 1.074-4.293.22-1.378.298-4.176.298-4.176" style="fill:none;stroke:red;stroke-width:.264583px;stroke-linecap:butt;stroke-linejoin:miter;stroke-opacity:1"/><text xml:space="preserve" style="font-size:14.6667px;line-height:1.25;font-family:sans-serif;white-space:pre;shape-inside:url(#f);display:inline" transform="matrix(.26458 0 0 .26458 15.493 343.869)"><tspan x="154.52" y="271.822">u*R</tspan></text><text xml:space="preserve" style="font-size:14.6667px;line-height:1.25;font-family:sans-serif;white-space:pre;shape-inside:url(#g);display:inline" transform="matrix(.26458 0 0 .26458 -12.233 335.509)"><tspan x="165.537" y="240.912">O</tspan></text><text xml:space="preserve" style="font-size:14.6667px;line-height:1.25;font-family:sans-serif;white-space:pre;shape-inside:url(#h);display:inline" transform="matrix(.26458 0 0 .26458 -13.716 331.022)"><tspan x="277.391" y="240.367">A</tspan></text><text xml:space="preserve" style="font-size:14.6667px;line-height:1.25;font-family:sans-serif;white-space:pre;shape-inside:url(#i);display:inline" transform="matrix(.26458 0 0 .26458 5.67 372.928)"><tspan x="144.961" y="184.41">B</tspan></text><path d="M44.95 398.664s-.519 2.583-1.178 3.696a4.278 4.278 0 0 1-1.29 1.354c-.599.401-2.017.782-2.017.782" style="fill:none;stroke:#000;stroke-width:.264583px;stroke-linecap:butt;stroke-linejoin:miter;stroke-opacity:1;marker-end:url(#j)"/><text xml:space="preserve" style="font-size:14.6667px;line-height:1.25;font-family:sans-serif;white-space:pre;shape-inside:url(#k);display:inline" transform="matrix(.26458 0 0 .26458 -6.608 338.18)"><tspan x="190.742" y="251.77">v</tspan></text><path d="M48.18 395.738s.495.87.488 1.349c-.006.44-.485 1.231-.485 1.231" style="fill:none;stroke:#000;stroke-width:.264583px;stroke-linecap:butt;stroke-linejoin:miter;stroke-opacity:1;marker-end:url(#l)"/><text xml:space="preserve" style="font-size:14.6667px;line-height:1.25;font-family:sans-serif;white-space:pre;shape-inside:url(#m);display:inline" transform="matrix(.26458 0 0 .26458 -6.105 332.585)"><tspan x="209.512" y="250.947">w</tspan></text><path d="M59.62 395.666s1.784.046 2.591.378c2.47 1.015 4.706 2.73 6.449 4.752 1.303 1.511 2.197 3.388 2.802 5.29.905 2.844 1.033 5.898 1.15 8.88.105 2.69-.407 8.064-.407 8.064" style="fill:none;stroke:#f0f;stroke-width:.529167;stroke-linecap:butt;stroke-linejoin:miter;stroke-opacity:1;marker-end:url(#l)"/><text xml:space="preserve" style="font-size:14.6667px;line-height:1.25;font-family:sans-serif;white-space:pre;shape-inside:url(#n);display:inline" transform="matrix(.26458 0 0 .26458 -7.413 341.39)"><tspan x="62.586" y="341.461">negative involute of circle (R, 0)</tspan></text><text xml:space="preserve" style="font-size:14.6667px;line-height:1.25;font-family:sans-serif;white-space:pre;shape-inside:url(#o);display:inline" transform="matrix(.26458 0 0 .26458 -10.692 271.444)"><tspan x="233.92" y="500.754">L</tspan></text><path d="m71.363 406.075 4.473 9.988" style="fill:none;stroke:teal;stroke-width:.264583px;stroke-linecap:butt;stroke-linejoin:miter;stroke-opacity:1;marker-end:url(#l)"/><text xml:space="preserve" style="font-size:14.6667px;line-height:1.25;font-family:sans-serif;white-space:pre;shape-inside:url(#p);display:inline" transform="matrix(.26458 0 0 .26458 37.907 333.691)"><tspan x="126.984" y="271.912">C</tspan></text><path d="M71.552 406.022h7.13" style="fill:none;stroke:#999;stroke-width:.264583px;stroke-linecap:butt;stroke-linejoin:miter;stroke-opacity:1"/><path d="m44.438 416.973 1.171-.512.463 1.28M71.953 407.509l-1.171.511-.463-1.28" style="fill:none;stroke:#000;stroke-width:.264583px;stroke-linecap:butt;stroke-linejoin:miter;stroke-opacity:1"/><text xml:space="preserve" style="font-size:14.6667px;line-height:1.25;font-family:sans-serif;white-space:pre;shape-inside:url(#q);display:inline" transform="matrix(.26458 0 0 .26458 -.717 -1.033)"><tspan x="36.4" y="1398.022">tooth left side</tspan></text></g></svg>