<svg xmlns="http://www.w3.org/2000/svg" width="65.335" height="76.296" viewBox="0 0 17.287 20.187"><defs><marker id="a" markerHeight="1" markerWidth="1" orient="auto-start-reverse" preserveAspectRatio="xMidYMid" refX="0" refY="0" style="overflow:visible" viewBox="0 0 1 1"><path d="M3-3 0 0l3 3" style="fill:none;stroke:context-stroke;stroke-width:1;stroke-linecap:butt" transform="rotate(180 .125 0)"/></marker><marker id="b" markerHeight="1" markerWidth="1" orient="auto-start-reverse" preserveAspectRatio="xMidYMid" refX="0" refY="0" style="overflow:visible" viewBox="0 0 1 1"><path d="M3-3 0 0l3 3" style="fill:none;stroke:context-stroke;stroke-width:1;stroke-linecap:butt" transform="rotate(180 .125 0)"/></marker></defs><path d="M22.78 189.931h21.167v21.167H22.78z" style="fill:none;stroke:#e6e6e6;stroke-width:.264583" transform="translate(-24.71 -190.543)"/><path d="M29.076 208.78s1.85-.354 2.4-1.029c.716-.875.556-2.197.686-3.32.189-1.622.145-3.266.135-4.9-.008-1.256.071-2.528-.15-3.765-.18-1.01-.175-2.252-.948-2.926-.599-.522-2.346-.419-2.346-.419" style="fill:none;stroke:#6495ed;stroke-width:.529167;stroke-linecap:butt;stroke-linejoin:miter;stroke-opacity:1;marker-end:url(#a)" transform="translate(-24.71 -190.543)"/><path d="M29.082 192.518s-2.148.3-2.845 1.028c-.802.837-.842 2.177-1.042 3.32-.28 1.61-.219 3.265-.204 4.9.012 1.257-.096 2.55.226 3.765.278 1.051.564 2.284 1.442 2.926.751.55 2.761.419 2.761.419" style="fill:none;stroke:#6495ed;stroke-width:.529167;stroke-linecap:butt;stroke-linejoin:miter;stroke-opacity:1;marker-end:url(#a)" transform="translate(-24.71 -190.543)"/><path d="M37.63 208.748s-1.85-.354-2.4-1.029c-.715-.875-.556-2.197-.686-3.32-.188-1.622-.144-3.266-.134-4.9.007-1.256-.072-2.528.148-3.765.18-1.01.176-2.252.949-2.926.599-.522 2.346-.419 2.346-.419" style="fill:none;stroke:#6495ed;stroke-width:.529167;stroke-linecap:butt;stroke-linejoin:miter;stroke-opacity:1;marker-end:url(#b)" transform="translate(-24.71 -190.543)"/><path d="M37.624 192.486s2.148.3 2.845 1.028c.803.837.842 2.177 1.042 3.32.281 1.61.22 3.265.204 4.9-.011 1.257.096 2.55-.226 3.765-.278 1.051-.564 2.284-1.441 2.926-.752.55-2.762.419-2.762.419" style="fill:none;stroke:#6495ed;stroke-width:.529167;stroke-linecap:butt;stroke-linejoin:miter;stroke-opacity:1;marker-end:url(#b)" transform="translate(-24.71 -190.543)"/></svg>