<svg xmlns="http://www.w3.org/2000/svg" width="75.423" height="75.979" viewBox="0 0 19.956 20.103"><g transform="translate(-85.998 -110.651)"><g style="fill:#6495ed;fill-opacity:1;stroke:#6495ed;stroke-width:1.27089;stroke-opacity:1" transform="matrix(.78684 0 0 .78686 95.89 120.702)"><path d="m9.179-1.254 1.015-.138.675.072 1.753.786V.534l-1.753.786-.675.072-1.015-.138-.469 1.902.963.348.564.378 1.187 1.51-.496.946L9.01 6.22l-.631-.25-.834-.593-1.3 1.466.691.756.324.597.35 1.889-.88.607-1.642-.997-.443-.514-.462-.914-1.832.695.26.99.01.68-.57 1.834-1.06.129L0 10.948l-.153-.66.015-1.025-1.945-.236-.23.998-.307.605-1.356 1.36-.999-.378-.113-1.918.172-.656.489-.9-1.612-1.113-.668.777-.553.393-1.833.574-.709-.799.792-1.75.457-.502.851-.57-.91-1.734-.952.377-.673.091-1.89-.343-.256-1.037 1.514-1.182.638-.232 1.019-.109V-.979l-1.019-.109-.638-.232-1.514-1.182.256-1.037 1.89-.343.673.09.952.378.91-1.734-.851-.57-.457-.501-.792-1.751.709-.8 1.833.575.553.393.668.777 1.612-1.113-.49-.9-.171-.656.113-1.918.999-.379 1.356 1.36.307.606.23.998 1.945-.236-.015-1.024.153-.661.991-1.646 1.06.129.57 1.835-.01.679-.26.99 1.832.695.462-.914.443-.514 1.642-.997.88.607-.35 1.889-.324.597-.69.756 1.299 1.466.834-.594.631-.25 1.918-.118.496.945-1.187 1.51-.564.379-.963.348z" style="fill:#6495ed;fill-opacity:1;stroke:#6495ed;stroke-width:.336257;stroke-opacity:1"/><circle r="2.646" style="fill:#6495ed;fill-opacity:1;stroke:#6495ed;stroke-width:.336257;stroke-opacity:1"/></g><circle cx="95.984" cy="120.702" r="4.262" style="fill:#f9f9f9;fill-opacity:1;stroke:#fff;stroke-width:1.5875;stroke-opacity:1"/></g></svg>