<svg xmlns="http://www.w3.org/2000/svg" width="229.639" height="259.757" viewBox="0 0 60.759 68.727"><defs><path id="j" d="M57.389 296.484h210.295v17.79H57.389z"/><path id="i" d="M258.776 100.623h40.169v37.64h-40.169z"/><path id="g" d="M285.784 184.861h31.194v22.747h-31.194z"/><path id="e" d="M277.718 89.509h30.042v32.637h-30.042z"/><path id="d" d="M169.588 317.115h57.418v52.965h-57.418z"/><path id="c" d="M43.178 323.4h61.327v43.549H43.178z"/><path id="a" d="M34.821 184.928h21.198v16.722H34.821z"/><marker id="h" markerHeight="1" markerWidth="1" orient="auto-start-reverse" preserveAspectRatio="xMidYMid" refX="0" refY="0" style="overflow:visible" viewBox="0 0 1 1"><path d="m0 0 5-5-17.5 5L5 5Z" style="fill:context-stroke;fill-rule:evenodd;stroke:none" transform="scale(-.5)"/></marker><marker id="f" markerHeight="1" markerWidth="1" orient="auto-start-reverse" preserveAspectRatio="xMidYMid" refX="0" refY="0" style="overflow:visible" viewBox="0 0 1 1"><path d="m0 0 5-5-17.5 5L5 5Z" style="fill:context-stroke;fill-rule:evenodd;stroke:none" transform="scale(-.5)"/></marker><marker id="b" markerHeight="1" markerWidth="1" orient="auto-start-reverse" preserveAspectRatio="xMidYMid" refX="0" refY="0" style="overflow:visible" viewBox="0 0 1 1"><path d="M3-3 0 0l3 3" style="fill:none;stroke:context-stroke;stroke-width:1;stroke-linecap:butt" transform="rotate(180 .125 0)"/></marker></defs><g transform="translate(-7.836 -19.301)"><path d="M7.969 19.434h60.494v68.463H7.969z" style="fill:#fff;stroke:#fff;stroke-width:.264583;stroke-dasharray:none;stroke-dashoffset:0"/><circle cx="42.743" cy="45.469" r="20.779" style="fill:#999;stroke:#999;stroke-width:.264583"/><circle cx="42.743" cy="45.469" r="16.277" style="fill:#fff;stroke:#999;stroke-width:.264583"/><text xml:space="preserve" style="font-size:14.6667px;line-height:1.25;font-family:sans-serif;white-space:pre;shape-inside:url(#a)" transform="matrix(.26458 0 0 .26458 4.2 1.335)"><tspan x="34.82" y="197.904">i</tspan></text><path d="m19.75 74.101-8.022-15.235" style="fill:none;stroke:#000;stroke-width:.264583px;stroke-linecap:butt;stroke-linejoin:miter;stroke-opacity:1;marker-end:url(#b)"/><text xml:space="preserve" style="font-size:14.6667px;line-height:1.25;font-family:sans-serif;white-space:pre;shape-inside:url(#c)" transform="matrix(.26458 0 0 .26458 1.191 -21.07)"><tspan x="43.178" y="336.377">u</tspan></text><text xml:space="preserve" style="font-size:14.6667px;line-height:1.25;font-family:sans-serif;white-space:pre;shape-inside:url(#d)" transform="matrix(.26458 0 0 .26458 -11.245 -33.914)"><tspan x="169.588" y="330.092">N</tspan></text><ellipse cx="42.743" cy="26.941" rx="1.3" ry="2.251" style="fill:#4d4d4d;stroke:#1a1a1a;stroke-width:.264583"/><text xml:space="preserve" style="font-size:14.6667px;line-height:1.25;font-family:sans-serif;white-space:pre;shape-inside:url(#e)" transform="matrix(.26458 0 0 .26458 -30.217 -3.187)"><tspan x="277.719" y="102.486">S</tspan></text><path d="m42.833 45.35 14.671-8.491" style="fill:none;stroke:#000;stroke-width:.264583px;stroke-linecap:butt;stroke-linejoin:miter;stroke-opacity:1;marker-end:url(#f)"/><text xml:space="preserve" style="font-size:14.6667px;line-height:1.25;font-family:sans-serif;white-space:pre;shape-inside:url(#g)" transform="matrix(.26458 0 0 .26458 -27.181 -12.046)"><tspan x="285.785" y="197.838">R</tspan></text><circle cx="42.833" cy="45.349" r="18.498" style="fill:none;stroke:#000;stroke-width:.264583;stroke-dasharray:.999997,.999997;stroke-dashoffset:0"/><path d="m10.856 58.41 15.97-9.253s.69-.65 1.122-.65c.756.002 1.57.495 1.958 1.144.275.462.299 1.135.052 1.613-.314.607-1.71 1.13-1.71 1.13M23.823 54.353s-1.135 1.616-.923 2.468c.116.467.605.883 1.08.958.48.076.92-.329 1.335-.581 1.954-1.19 3.103-3.782 5.323-4.334.498-.124 1.273-.156 1.508.3.193.372-.312.78-.513 1.15-.331.609-1.135 1.744-1.135 1.744M26.769 58.86s-.716 1.758-.355 2.53c.203.432.744.818 1.218.756 2.519-.332 3.301-3.886 5.21-5.562.572-.501 1.125-1.545 1.855-1.33.52.153.663.974.598 1.513-.106.872-1.526 2.149-1.526 2.149M30.555 62.538s-.497 1.315-.265 1.917c.165.428.6.83 1.055.885.836.1 1.66-.536 2.265-1.122 1.93-1.867 1.285-6.187 3.811-7.096.325-.117.792.088.958.39.393.716-.147 1.649-.439 2.412-.116.302-.508.826-.508.826M35.425 64.822s-.226 1.751-.764 2.393c-.24.288-.994.525-.994.525l-14.142 7.462" style="fill:none;stroke:#a40;stroke-width:.529167;stroke-linecap:butt;stroke-linejoin:miter;stroke-opacity:1"/><path d="M56.456 28.092s2.468 1.985 3.484 3.187c1.09 1.29 1.978 2.753 2.751 4.255a23.475 23.475 0 0 1 1.777 4.482c.306 1.11.555 3.411.555 3.411" style="fill:none;stroke:#000;stroke-width:.264583px;stroke-linecap:butt;stroke-linejoin:miter;stroke-opacity:1;marker-start:url(#h);marker-end:url(#marker14)"/><text xml:space="preserve" style="font-size:14.6667px;line-height:1.25;font-family:sans-serif;white-space:pre;shape-inside:url(#i)" transform="matrix(.26458 0 0 .26458 -5.735 3.44)"><tspan x="258.775" y="113.6">L</tspan></text><text xml:space="preserve" style="font-size:14.6667px;line-height:1.25;font-family:sans-serif;white-space:pre;shape-inside:url(#j)" transform="matrix(.26458 0 0 .26458 -5.344 3.668)"><tspan x="57.389" y="309.461">regular torus</tspan></text><path d="m14.763 54.435 2.296.421-.782 2.456" style="fill:none;stroke:#000;stroke-width:.264583px;stroke-linecap:butt;stroke-linejoin:miter;stroke-opacity:1"/></g></svg>