<svg xmlns="http://www.w3.org/2000/svg" width="600" height="3000" viewBox="0 0 158.75 793.75"><defs><path id="am" d="M301.63 1743.651h40.359v23.362H301.63z"/><path id="W" d="M109.167 1529.859h244.557v45.945H109.167z"/><path id="S" d="M113.207 1351.574h28.683v26.102h-28.683z"/><path id="R" d="M82.392 1407.374h30.069v26.631H82.392z"/><path id="E" d="M283.293 906.083h19.63v17.138h-19.63z"/><path id="k" d="M57.389 296.484h210.295v17.79H57.389z"/><path id="j" d="M258.776 100.623h40.169v37.64h-40.169z"/><path id="h" d="M285.784 184.861h31.194v22.747h-31.194z"/><path id="f" d="M277.718 89.509h30.042v32.637h-30.042z"/><path id="e" d="M169.588 317.115h57.418v52.965h-57.418z"/><path id="d" d="M43.178 323.4h61.327v43.549H43.178z"/><path id="b" d="M34.821 184.928h21.198v16.722H34.821z"/><path id="a" d="M19.038 11.383h273.713v38.829H19.038z"/><path id="l" d="M34.821 184.928h21.198v16.722H34.821z"/><path id="n" d="M43.178 323.4h61.327v43.549H43.178z"/><path id="o" d="M169.588 317.115h57.418v52.965h-57.418z"/><path id="p" d="M277.718 89.509h30.042v32.637h-30.042z"/><path id="r" d="M258.776 100.623h40.169v37.64h-40.169z"/><path id="s" d="M57.389 296.484h210.295v17.79H57.389z"/><path id="u" d="M258.776 100.623h40.169v37.64h-40.169z"/><path id="v" d="M277.718 89.509h30.042v32.637h-30.042z"/><path id="w" d="M34.821 184.928h21.198v16.722H34.821z"/><path id="y" d="M43.178 323.4h61.327v43.549H43.178z"/><path id="z" d="M169.588 317.115h57.418v52.965h-57.418z"/><path id="A" d="M277.718 89.509h30.042v32.637h-30.042z"/><path id="C" d="M258.776 100.623h40.169v37.64h-40.169z"/><path id="D" d="M57.389 296.484h210.295v17.79H57.389z"/><path id="F" d="M34.821 184.928h21.198v16.722H34.821z"/><path id="H" d="M43.178 323.4h61.327v43.549H43.178z"/><path id="I" d="M169.588 317.115h57.418v52.965h-57.418z"/><path id="J" d="M277.718 89.509h30.042v32.637h-30.042z"/><path id="L" d="M258.776 100.623h40.169v37.64h-40.169z"/><path id="M" d="M57.389 296.484h210.295v17.79H57.389z"/><path id="N" d="M283.293 906.083h19.63v17.138h-19.63z"/><path id="Q" d="M283.293 906.083h19.63v17.138h-19.63z"/><path id="V" d="M283.293 906.083h19.63v17.138h-19.63z"/><path id="Y" d="M34.821 184.928h21.198v16.722H34.821z"/><path id="aa" d="M43.178 323.4h61.327v43.549H43.178z"/><path id="ab" d="M169.588 317.115h57.418v52.965h-57.418z"/><path id="ac" d="M277.718 89.509h30.042v32.637h-30.042z"/><path id="ae" d="M258.776 100.623h40.169v37.64h-40.169z"/><path id="af" d="M57.389 296.484h210.295v17.79H57.389z"/><path id="ag" d="M283.293 906.083h19.63v17.138h-19.63z"/><path id="aj" d="M283.293 906.083h19.63v17.138h-19.63z"/><path id="X" d="M301.63 1743.651h40.359v23.362H301.63z"/><marker id="ak" markerHeight="1" markerWidth="1" orient="auto" preserveAspectRatio="xMidYMid" refX="0" refY="0" style="overflow:visible" viewBox="0 0 1 1"><path d="M0-24"/><path d="m0 0-8 5V-5Z" style="fill:context-stroke;fill-rule:evenodd;stroke:none" transform="scale(.6)"/><path d="M0-8v48" style="fill:none;stroke:context-stroke;stroke-width:1;stroke-linecap:square" transform="scale(.6)"/></marker><marker id="i" markerHeight="1" markerWidth="1" orient="auto-start-reverse" preserveAspectRatio="xMidYMid" refX="0" refY="0" style="overflow:visible" viewBox="0 0 1 1"><path d="m0 0 5-5-17.5 5L5 5Z" style="fill:context-stroke;fill-rule:evenodd;stroke:none" transform="scale(-.5)"/></marker><marker id="g" markerHeight="1" markerWidth="1" orient="auto-start-reverse" preserveAspectRatio="xMidYMid" refX="0" refY="0" style="overflow:visible" viewBox="0 0 1 1"><path d="m0 0 5-5-17.5 5L5 5Z" style="fill:context-stroke;fill-rule:evenodd;stroke:none" transform="scale(-.5)"/></marker><marker id="c" markerHeight="1" markerWidth="1" orient="auto-start-reverse" preserveAspectRatio="xMidYMid" refX="0" refY="0" style="overflow:visible" viewBox="0 0 1 1"><path d="M3-3 0 0l3 3" style="fill:none;stroke:context-stroke;stroke-width:1;stroke-linecap:butt" transform="rotate(180 .125 0)"/></marker><marker id="m" markerHeight="1" markerWidth="1" orient="auto-start-reverse" preserveAspectRatio="xMidYMid" refX="0" refY="0" style="overflow:visible" viewBox="0 0 1 1"><path d="M3-3 0 0l3 3" style="fill:none;stroke:context-stroke;stroke-width:1;stroke-linecap:butt" transform="rotate(180 .125 0)"/></marker><marker id="q" markerHeight="1" markerWidth="1" orient="auto-start-reverse" preserveAspectRatio="xMidYMid" refX="0" refY="0" style="overflow:visible" viewBox="0 0 1 1"><path d="m0 0 5-5-17.5 5L5 5Z" style="fill:context-stroke;fill-rule:evenodd;stroke:none" transform="scale(-.5)"/></marker><marker id="t" markerHeight="1" markerWidth="1" orient="auto-start-reverse" preserveAspectRatio="xMidYMid" refX="0" refY="0" style="overflow:visible" viewBox="0 0 1 1"><path d="m0 0 5-5-17.5 5L5 5Z" style="fill:context-stroke;fill-rule:evenodd;stroke:none" transform="scale(-.5)"/></marker><marker id="x" markerHeight="1" markerWidth="1" orient="auto-start-reverse" preserveAspectRatio="xMidYMid" refX="0" refY="0" style="overflow:visible" viewBox="0 0 1 1"><path d="M3-3 0 0l3 3" style="fill:none;stroke:context-stroke;stroke-width:1;stroke-linecap:butt" transform="rotate(180 .125 0)"/></marker><marker id="B" markerHeight="1" markerWidth="1" orient="auto-start-reverse" preserveAspectRatio="xMidYMid" refX="0" refY="0" style="overflow:visible" viewBox="0 0 1 1"><path d="m0 0 5-5-17.5 5L5 5Z" style="fill:context-stroke;fill-rule:evenodd;stroke:none" transform="scale(-.5)"/></marker><marker id="G" markerHeight="1" markerWidth="1" orient="auto-start-reverse" preserveAspectRatio="xMidYMid" refX="0" refY="0" style="overflow:visible" viewBox="0 0 1 1"><path d="M3-3 0 0l3 3" style="fill:none;stroke:context-stroke;stroke-width:1;stroke-linecap:butt" transform="rotate(180 .125 0)"/></marker><marker id="K" markerHeight="1" markerWidth="1" orient="auto-start-reverse" preserveAspectRatio="xMidYMid" refX="0" refY="0" style="overflow:visible" viewBox="0 0 1 1"><path d="m0 0 5-5-17.5 5L5 5Z" style="fill:context-stroke;fill-rule:evenodd;stroke:none" transform="scale(-.5)"/></marker><marker id="O" markerHeight="1" markerWidth="1" orient="auto-start-reverse" preserveAspectRatio="xMidYMid" refX="0" refY="0" style="overflow:visible" viewBox="0 0 1 1"><path d="m0 0 5-5-17.5 5L5 5Z" style="fill:context-stroke;fill-rule:evenodd;stroke:none" transform="scale(-.5)"/></marker><marker id="P" markerHeight="1" markerWidth="1" orient="auto-start-reverse" preserveAspectRatio="xMidYMid" refX="0" refY="0" style="overflow:visible" viewBox="0 0 1 1"><path d="m0 0 5-5-17.5 5L5 5Z" style="fill:context-stroke;fill-rule:evenodd;stroke:none" transform="scale(-.5)"/></marker><marker id="T" markerHeight="1" markerWidth="1" orient="auto-start-reverse" preserveAspectRatio="xMidYMid" refX="0" refY="0" style="overflow:visible" viewBox="0 0 1 1"><path d="m0 0 5-5-17.5 5L5 5Z" style="fill:context-stroke;fill-rule:evenodd;stroke:none" transform="scale(-.5)"/></marker><marker id="U" markerHeight="1" markerWidth="1" orient="auto-start-reverse" preserveAspectRatio="xMidYMid" refX="0" refY="0" style="overflow:visible" viewBox="0 0 1 1"><path d="m0 0 5-5-17.5 5L5 5Z" style="fill:context-stroke;fill-rule:evenodd;stroke:none" transform="scale(-.5)"/></marker><marker id="Z" markerHeight="1" markerWidth="1" orient="auto-start-reverse" preserveAspectRatio="xMidYMid" refX="0" refY="0" style="overflow:visible" viewBox="0 0 1 1"><path d="M3-3 0 0l3 3" style="fill:none;stroke:context-stroke;stroke-width:1;stroke-linecap:butt" transform="rotate(180 .125 0)"/></marker><marker id="ad" markerHeight="1" markerWidth="1" orient="auto-start-reverse" preserveAspectRatio="xMidYMid" refX="0" refY="0" style="overflow:visible" viewBox="0 0 1 1"><path d="m0 0 5-5-17.5 5L5 5Z" style="fill:context-stroke;fill-rule:evenodd;stroke:none" transform="scale(-.5)"/></marker><marker id="ah" markerHeight="1" markerWidth="1" orient="auto-start-reverse" preserveAspectRatio="xMidYMid" refX="0" refY="0" style="overflow:visible" viewBox="0 0 1 1"><path d="m0 0 5-5-17.5 5L5 5Z" style="fill:context-stroke;fill-rule:evenodd;stroke:none" transform="scale(-.5)"/></marker><marker id="ai" markerHeight="1" markerWidth="1" orient="auto-start-reverse" preserveAspectRatio="xMidYMid" refX="0" refY="0" style="overflow:visible" viewBox="0 0 1 1"><path d="m0 0 5-5-17.5 5L5 5Z" style="fill:context-stroke;fill-rule:evenodd;stroke:none" transform="scale(-.5)"/></marker><marker id="al" markerHeight="1" markerWidth="1" orient="auto" preserveAspectRatio="xMidYMid" refX="0" refY="0" style="overflow:visible" viewBox="0 0 1 1"><path d="M0-24"/><path d="m0 0-8 5V-5Z" style="fill:context-stroke;fill-rule:evenodd;stroke:none" transform="scale(.6)"/><path d="M0-8v48" style="fill:none;stroke:context-stroke;stroke-width:1;stroke-linecap:square" transform="scale(.6)"/></marker></defs><path d="M26.602 359.234h63.574v40.585H26.602z" style="fill:#fff;fill-opacity:1;stroke:#fff;stroke-width:.264583;stroke-dasharray:none;stroke-dashoffset:0;stroke-opacity:1"/><path d="M47.32 365.032h35.178v22.682H47.32z" style="fill:#ccc;stroke:#000;stroke-width:.264582;stroke-dasharray:none;stroke-dashoffset:0"/><path d="M7.969 19.434h60.494v68.463H7.969z" style="fill:#fff;stroke:#fff;stroke-width:.264583;stroke-dasharray:none;stroke-dashoffset:0"/><circle cx="42.743" cy="45.469" r="20.779" style="fill:#999;stroke:#999;stroke-width:.264583"/><text xml:space="preserve" style="font-size:14.6667px;line-height:1.25;font-family:sans-serif;white-space:pre;shape-inside:url(#a);display:inline" transform="scale(.26458)"><tspan x="19.037" y="24.359">reluctance_motor.svg</tspan></text><circle cx="42.743" cy="45.469" r="16.277" style="fill:#fff;stroke:#999;stroke-width:.264583"/><text xml:space="preserve" style="font-size:14.6667px;line-height:1.25;font-family:sans-serif;white-space:pre;shape-inside:url(#b)" transform="matrix(.26458 0 0 .26458 4.2 1.335)"><tspan x="34.82" y="197.904">i</tspan></text><path d="m19.75 74.101-8.022-15.235" style="fill:none;stroke:#000;stroke-width:.264583px;stroke-linecap:butt;stroke-linejoin:miter;stroke-opacity:1;marker-end:url(#c)"/><text xml:space="preserve" style="font-size:14.6667px;line-height:1.25;font-family:sans-serif;white-space:pre;shape-inside:url(#d)" transform="matrix(.26458 0 0 .26458 1.191 -21.07)"><tspan x="43.178" y="336.377">u</tspan></text><text xml:space="preserve" style="font-size:14.6667px;line-height:1.25;font-family:sans-serif;white-space:pre;shape-inside:url(#e)" transform="matrix(.26458 0 0 .26458 -11.245 -33.914)"><tspan x="169.588" y="330.092">N</tspan></text><ellipse cx="42.743" cy="26.941" rx="1.3" ry="2.251" style="fill:#4d4d4d;stroke:#1a1a1a;stroke-width:.264583"/><text xml:space="preserve" style="font-size:14.6667px;line-height:1.25;font-family:sans-serif;white-space:pre;shape-inside:url(#f)" transform="matrix(.26458 0 0 .26458 -30.217 -3.187)"><tspan x="277.719" y="102.486">S</tspan></text><path d="m42.833 45.35 14.671-8.491" style="fill:none;stroke:#000;stroke-width:.264583px;stroke-linecap:butt;stroke-linejoin:miter;stroke-opacity:1;marker-end:url(#g)"/><text xml:space="preserve" style="font-size:14.6667px;line-height:1.25;font-family:sans-serif;white-space:pre;shape-inside:url(#h)" transform="matrix(.26458 0 0 .26458 -27.181 -12.046)"><tspan x="285.785" y="197.838">R</tspan></text><circle cx="42.833" cy="45.349" r="18.498" style="fill:none;stroke:#000;stroke-width:.264583;stroke-dasharray:.999997,.999997;stroke-dashoffset:0"/><path d="m10.856 58.41 15.97-9.253s.69-.65 1.122-.65c.756.002 1.57.495 1.958 1.144.275.462.299 1.135.052 1.613-.314.607-1.71 1.13-1.71 1.13M23.823 54.353s-1.135 1.616-.923 2.468c.116.467.605.883 1.08.958.48.076.92-.329 1.335-.581 1.954-1.19 3.103-3.782 5.323-4.334.498-.124 1.273-.156 1.508.3.193.372-.312.78-.513 1.15-.331.609-1.135 1.744-1.135 1.744M26.769 58.86s-.716 1.758-.355 2.53c.203.432.744.818 1.218.756 2.519-.332 3.301-3.886 5.21-5.562.572-.501 1.125-1.545 1.855-1.33.52.153.663.974.598 1.513-.106.872-1.526 2.149-1.526 2.149M30.555 62.538s-.497 1.315-.265 1.917c.165.428.6.83 1.055.885.836.1 1.66-.536 2.265-1.122 1.93-1.867 1.285-6.187 3.811-7.096.325-.117.792.088.958.39.393.716-.147 1.649-.439 2.412-.116.302-.508.826-.508.826M35.425 64.822s-.226 1.751-.764 2.393c-.24.288-.994.525-.994.525l-14.142 7.462" style="fill:none;stroke:#a40;stroke-width:.52916667;stroke-linecap:butt;stroke-linejoin:miter;stroke-opacity:1"/><path d="M56.456 28.092s2.468 1.985 3.484 3.187c1.09 1.29 1.978 2.753 2.751 4.255a23.475 23.475 0 0 1 1.777 4.482c.306 1.11.555 3.411.555 3.411" style="fill:none;stroke:#000;stroke-width:.264583px;stroke-linecap:butt;stroke-linejoin:miter;stroke-opacity:1;marker-start:url(#i);marker-end:url(#marker14)"/><text xml:space="preserve" style="font-size:14.6667px;line-height:1.25;font-family:sans-serif;white-space:pre;shape-inside:url(#j)" transform="matrix(.26458 0 0 .26458 -5.735 3.44)"><tspan x="258.775" y="113.6">L</tspan></text><text xml:space="preserve" style="font-size:14.6667px;line-height:1.25;font-family:sans-serif;white-space:pre;shape-inside:url(#k)" transform="matrix(.26458 0 0 .26458 -5.344 3.668)"><tspan x="57.389" y="309.461">regular torus</tspan></text><path d="M18.858 100.84h64.341v71.465H18.858z" style="fill:#fff;stroke:#fff;stroke-width:.264583;stroke-dasharray:none;stroke-dashoffset:0"/><circle cx="53.632" cy="130.192" r="20.779" style="fill:#999;stroke:#999;stroke-width:.264583"/><circle cx="53.694" cy="130.129" r="16.277" style="fill:#fff;stroke:#999;stroke-width:.264583"/><text xml:space="preserve" style="font-size:14.6667px;line-height:1.25;font-family:sans-serif;white-space:pre;shape-inside:url(#l);display:inline" transform="matrix(.26458 0 0 .26458 15.09 86.058)"><tspan x="34.82" y="197.904">i</tspan></text><path d="m30.64 158.824-8.023-15.235" style="fill:none;stroke:#000;stroke-width:.264583px;stroke-linecap:butt;stroke-linejoin:miter;stroke-opacity:1;marker-end:url(#m)"/><text xml:space="preserve" style="font-size:14.6667px;line-height:1.25;font-family:sans-serif;white-space:pre;shape-inside:url(#n);display:inline" transform="matrix(.26458 0 0 .26458 12.08 63.653)"><tspan x="43.178" y="336.377">u</tspan></text><text xml:space="preserve" style="font-size:14.6667px;line-height:1.25;font-family:sans-serif;white-space:pre;shape-inside:url(#o);display:inline" transform="matrix(.26458 0 0 .26458 -.356 50.81)"><tspan x="169.588" y="330.092">N</tspan></text><ellipse cx="-27.25" cy="119.693" rx="1.3" ry="2.251" style="fill:#4d4d4d;stroke:#1a1a1a;stroke-width:.264583" transform="rotate(-33.501)"/><text xml:space="preserve" style="font-size:14.6667px;line-height:1.25;font-family:sans-serif;white-space:pre;shape-inside:url(#p);display:inline" transform="matrix(.26458 0 0 .26458 -29.167 93.242)"><tspan x="277.719" y="102.486">S1</tspan></text><path d="m57.735 117.714 3.218-10.306s2.683.836 3.969 1.396c1.161.505 2.322 1.046 3.367 1.763 1.164.8 2.22 1.764 3.183 2.798.85.91 1.566 1.941 2.264 2.973.636.943 1.288 1.89 1.747 2.931.458 1.036.716 2.152.985 3.253.266 1.088.62 3.303.62 3.303l-10.667 2.147s-.432-1.543-.737-2.282c-.391-.943-.838-1.872-1.394-2.727a14.145 14.145 0 0 0-1.814-2.237c-.769-.775-1.592-1.518-2.526-2.082-.686-.414-2.215-.93-2.215-.93z" style="fill:#999;stroke:#999;stroke-width:.264583px;stroke-linecap:butt;stroke-linejoin:miter;stroke-opacity:1"/><path d="M62.687 106.469s3.486 1.008 4.985 1.983c3.227 2.101 6.118 4.88 8.248 8.088.89 1.339 1.349 2.933 1.776 4.482.307 1.11.556 3.412.556 3.412" style="fill:none;stroke:#000;stroke-width:.264583px;stroke-linecap:butt;stroke-linejoin:miter;stroke-opacity:1;marker-start:url(#q);marker-end:url(#marker14-6)"/><text xml:space="preserve" style="font-size:14.6667px;line-height:1.25;font-family:sans-serif;white-space:pre;shape-inside:url(#r);display:inline" transform="matrix(.26458 0 0 .26458 -30.507 80.789)"><tspan x="258.775" y="113.6">L1</tspan></text><text xml:space="preserve" style="font-size:14.6667px;line-height:1.25;font-family:sans-serif;white-space:pre;shape-inside:url(#s);display:inline" transform="matrix(.26458 0 0 .26458 5.545 88.391)"><tspan x="57.389" y="309.461">torus with swelling</tspan></text><path d="M33.95 119.722s1.61-2.657 2.683-3.763c2.157-2.224 4.623-4.251 7.4-5.623 2.637-1.302 5.577-2.084 8.506-2.333 2.065-.176 6.187.609 6.187.609" style="fill:none;stroke:#000;stroke-width:.264583px;stroke-linecap:butt;stroke-linejoin:miter;stroke-opacity:1;marker-start:url(#t);marker-end:url(#marker14-6-3)"/><text xml:space="preserve" style="font-size:14.6667px;line-height:1.25;font-family:sans-serif;white-space:pre;shape-inside:url(#u);display:inline" transform="matrix(.26458 0 0 .26458 5.724 82.365)"><tspan x="258.775" y="113.6">L2</tspan></text><ellipse cx="135.552" cy="7.882" rx="3.39" ry="5.801" style="fill:#4d4d4d;stroke:#1a1a1a;stroke-width:.26464" transform="matrix(.54752 .83679 -.82019 .5721 0 0)"/><circle cx="53.722" cy="130.072" r="18.498" style="fill:none;stroke:#000;stroke-width:.264583;stroke-dasharray:.999997,.999997;stroke-dashoffset:0"/><path d="m21.745 143.134 15.97-9.254s.69-.65 1.122-.65c.756.001 1.571.494 1.958 1.144.275.462.299 1.135.052 1.613-.314.607-1.71 1.13-1.71 1.13M34.713 139.075s-1.136 1.616-.924 2.47c.116.466.605.881 1.08.957.48.076.92-.33 1.335-.582 1.954-1.19 3.103-3.782 5.323-4.333.498-.124 1.273-.156 1.509.3.192.372-.313.78-.514 1.149-.331.61-1.135 1.745-1.135 1.745M37.658 143.583s-.715 1.758-.355 2.529c.203.433.745.82 1.219.757 2.518-.332 3.3-3.886 5.21-5.562.572-.502 1.124-1.545 1.854-1.33.52.153.663.974.598 1.513-.106.872-1.526 2.148-1.526 2.148M41.444 147.26s-.497 1.316-.265 1.918c.165.428.6.83 1.055.884.837.1 1.66-.535 2.265-1.12 1.93-1.868 1.285-6.188 3.812-7.098.324-.116.791.088.957.39.393.717-.147 1.65-.439 2.413-.115.301-.507.825-.507.825M46.314 149.545s-.226 1.751-.764 2.393c-.24.287-.994.525-.994.525l-14.142 7.462" style="fill:none;stroke:#a40;stroke-width:.529167;stroke-linecap:butt;stroke-linejoin:miter;stroke-opacity:1"/><path d="m25.475 139.287 2.296.422-.783 2.456M14.763 54.435l2.296.421-.782 2.456" style="fill:none;stroke:#000;stroke-width:.264583px;stroke-linecap:butt;stroke-linejoin:miter;stroke-opacity:1"/><text xml:space="preserve" style="font-size:14.6667px;line-height:1.25;font-family:sans-serif;white-space:pre;shape-inside:url(#v);display:inline" transform="matrix(.26458 0 0 .26458 -16.04 97.656)"><tspan x="277.719" y="102.486">S2</tspan></text><path d="M22.786 194.608h63.313v68.463H22.786z" style="fill:#fff;stroke:#fff;stroke-width:.264583;stroke-dasharray:none;stroke-dashoffset:0"/><circle cx="57.56" cy="220.643" r="20.779" style="fill:#999;stroke:#999;stroke-width:.264583"/><circle cx="57.56" cy="220.643" r="16.277" style="fill:#fff;stroke:#999;stroke-width:.264583"/><text xml:space="preserve" style="font-size:14.6667px;line-height:1.25;font-family:sans-serif;white-space:pre;shape-inside:url(#w);display:inline" transform="matrix(.26458 0 0 .26458 19.018 176.51)"><tspan x="34.82" y="197.904">i</tspan></text><path d="m34.568 249.275-8.023-15.235" style="fill:none;stroke:#000;stroke-width:.264583px;stroke-linecap:butt;stroke-linejoin:miter;stroke-opacity:1;marker-end:url(#x)"/><text xml:space="preserve" style="font-size:14.6667px;line-height:1.25;font-family:sans-serif;white-space:pre;shape-inside:url(#y);display:inline" transform="matrix(.26458 0 0 .26458 16.008 154.105)"><tspan x="43.178" y="336.377">u</tspan></text><text xml:space="preserve" style="font-size:14.6667px;line-height:1.25;font-family:sans-serif;white-space:pre;shape-inside:url(#z);display:inline" transform="matrix(.26458 0 0 .26458 3.573 141.26)"><tspan x="169.588" y="330.092">N</tspan></text><ellipse cx="57.56" cy="202.115" rx="1.3" ry="2.251" style="fill:#4d4d4d;stroke:#1a1a1a;stroke-width:.264583"/><text xml:space="preserve" style="font-size:14.6667px;line-height:1.25;font-family:sans-serif;white-space:pre;shape-inside:url(#A);display:inline" transform="matrix(.26458 0 0 .26458 -17.367 181.156)"><tspan x="277.719" y="102.486">S</tspan></text><path d="M70.77 201.616s2.589 1.825 3.68 2.96c1.17 1.217 2.149 2.621 3.016 4.07a23.475 23.475 0 0 1 2.058 4.36c.377 1.09.771 3.37.771 3.37" style="fill:none;stroke:#000;stroke-width:.264583px;stroke-linecap:butt;stroke-linejoin:miter;stroke-opacity:1;marker-start:url(#B);marker-end:url(#marker14-68)"/><text xml:space="preserve" style="font-size:14.6667px;line-height:1.25;font-family:sans-serif;white-space:pre;shape-inside:url(#C);display:inline" transform="matrix(.26458 0 0 .26458 9.33 178.227)"><tspan x="258.775" y="113.6">L</tspan></text><text xml:space="preserve" style="font-size:14.6667px;line-height:1.25;font-family:sans-serif;white-space:pre;shape-inside:url(#D);display:inline" transform="matrix(.26458 0 0 .26458 9.473 178.843)"><tspan x="57.389" y="309.461">torus with air gap</tspan></text><path d="M69.592 218.345h13.456v4.741H69.592z" style="fill:#fff;stroke:#fff;stroke-width:.264583;stroke-dasharray:none;stroke-dashoffset:0"/><circle cx="57.65" cy="220.523" r="18.498" style="fill:none;stroke:#000;stroke-width:.264583;stroke-dasharray:.999997,.999997;stroke-dashoffset:0"/><path d="m25.673 233.585 15.97-9.254s.69-.65 1.122-.65c.756.001 1.571.495 1.958 1.144.275.462.3 1.135.052 1.613-.314.607-1.71 1.13-1.71 1.13M38.64 229.527s-1.135 1.616-.923 2.469c.116.466.605.882 1.08.957.48.076.92-.329 1.335-.581 1.954-1.19 3.103-3.782 5.323-4.334.498-.124 1.273-.155 1.509.3.192.372-.313.78-.513 1.15-.332.609-1.136 1.744-1.136 1.744M41.586 234.034s-.715 1.758-.355 2.53c.203.432.745.819 1.219.756 2.518-.332 3.3-3.886 5.21-5.561.572-.502 1.124-1.546 1.854-1.331.52.153.663.975.598 1.513-.106.872-1.526 2.149-1.526 2.149M45.372 237.712s-.497 1.315-.265 1.917c.165.428.6.83 1.055.885.837.1 1.66-.536 2.266-1.122 1.93-1.866 1.284-6.187 3.81-7.096.325-.117.793.088.958.39.394.716-.147 1.649-.439 2.412-.115.302-.507.826-.507.826M50.242 239.997s-.226 1.75-.763 2.392c-.241.288-.995.525-.995.525l-14.142 7.462" style="fill:none;stroke:#a40;stroke-width:.529167;stroke-linecap:butt;stroke-linejoin:miter;stroke-opacity:1"/><path d="m29.58 229.609 2.296.421-.782 2.456" style="fill:none;stroke:#000;stroke-width:.264583px;stroke-linecap:butt;stroke-linejoin:miter;stroke-opacity:1"/><path d="M79.754 219.67v2.087" style="fill:none;stroke:#000;stroke-width:.264582px;stroke-linecap:butt;stroke-linejoin:miter;stroke-opacity:1;marker-start:url(#i);marker-end:url(#marker14)"/><text xml:space="preserve" style="font-size:14.6667px;line-height:1.25;font-family:sans-serif;white-space:pre;shape-inside:url(#E)" transform="matrix(.26458 0 0 .26458 5.654 -20.97)"><tspan x="283.293" y="919.059">G</tspan></text><path d="M19.569 277.039h74.576v68.463H19.569z" style="fill:#fff;stroke:#fff;stroke-width:.264583;stroke-dasharray:none;stroke-dashoffset:0"/><circle cx="54.342" cy="303.074" r="20.779" style="fill:#999;stroke:#999;stroke-width:.264583"/><circle cx="54.342" cy="303.074" r="16.277" style="fill:#fff;stroke:#999;stroke-width:.264583"/><text xml:space="preserve" style="font-size:14.6667px;line-height:1.25;font-family:sans-serif;white-space:pre;shape-inside:url(#F);display:inline" transform="matrix(.26458 0 0 .26458 15.8 258.941)"><tspan x="34.82" y="197.904">i</tspan></text><path d="m31.35 331.707-8.022-15.235" style="fill:none;stroke:#000;stroke-width:.264583px;stroke-linecap:butt;stroke-linejoin:miter;stroke-opacity:1;marker-end:url(#G)"/><text xml:space="preserve" style="font-size:14.6667px;line-height:1.25;font-family:sans-serif;white-space:pre;shape-inside:url(#H);display:inline" transform="matrix(.26458 0 0 .26458 12.791 236.536)"><tspan x="43.178" y="336.377">u</tspan></text><text xml:space="preserve" style="font-size:14.6667px;line-height:1.25;font-family:sans-serif;white-space:pre;shape-inside:url(#I);display:inline" transform="matrix(.26458 0 0 .26458 .355 223.692)"><tspan x="169.588" y="330.092">N</tspan></text><text xml:space="preserve" style="font-size:14.6667px;line-height:1.25;font-family:sans-serif;white-space:pre;shape-inside:url(#J);display:inline" transform="matrix(.26458 0 0 .26458 -20.584 263.587)"><tspan x="277.719" y="102.486">S</tspan></text><path d="M67.552 284.048s2.59 1.824 3.68 2.959c1.17 1.217 2.15 2.622 3.017 4.07a23.475 23.475 0 0 1 2.057 4.36c.377 1.09.772 3.37.772 3.37" style="fill:none;stroke:#000;stroke-width:.264583px;stroke-linecap:butt;stroke-linejoin:miter;stroke-opacity:1;marker-start:url(#K);marker-end:url(#marker14-68-5)"/><text xml:space="preserve" style="font-size:14.6667px;line-height:1.25;font-family:sans-serif;white-space:pre;shape-inside:url(#L);display:inline" transform="matrix(.26458 0 0 .26458 6.112 260.658)"><tspan x="258.775" y="113.6">L</tspan></text><text xml:space="preserve" style="font-size:14.6667px;line-height:1.25;font-family:sans-serif;white-space:pre;shape-inside:url(#M);display:inline" transform="matrix(.26458 0 0 .26458 6.256 261.274)"><tspan x="57.389" y="309.461">torus with shuttle</tspan></text><path d="M66.374 300.776H79.83v4.741H66.374z" style="fill:#fff;stroke:#fff;stroke-width:.264583;stroke-dasharray:none;stroke-dashoffset:0"/><circle cx="54.433" cy="302.954" r="18.498" style="fill:none;stroke:#000;stroke-width:.264583;stroke-dasharray:.999997,.999997;stroke-dashoffset:0"/><path d="m22.456 316.016 15.97-9.253s.69-.651 1.122-.65c.756 0 1.57.494 1.957 1.143.276.463.3 1.136.053 1.614-.314.606-1.71 1.13-1.71 1.13M35.423 311.958s-1.135 1.616-.923 2.469c.116.467.605.882 1.08.958.48.076.92-.33 1.335-.582 1.954-1.19 3.103-3.782 5.323-4.334.498-.123 1.273-.155 1.508.3.193.373-.312.781-.513 1.15-.331.61-1.135 1.745-1.135 1.745M38.368 316.466s-.715 1.758-.354 2.529c.203.433.744.819 1.218.756 2.519-.331 3.3-3.886 5.21-5.561.572-.502 1.125-1.546 1.855-1.33.52.152.663.974.597 1.512-.105.872-1.525 2.15-1.525 2.15M42.155 320.143s-.497 1.316-.265 1.918c.165.428.599.83 1.055.884.836.1 1.66-.535 2.265-1.121 1.93-1.867 1.285-6.187 3.811-7.097.325-.117.792.088.958.39.393.717-.147 1.65-.44 2.412-.115.302-.507.826-.507.826M47.025 322.428s-.226 1.75-.764 2.393c-.24.287-.994.524-.994.524l-14.142 7.462" style="fill:none;stroke:#a40;stroke-width:.529167;stroke-linecap:butt;stroke-linejoin:miter;stroke-opacity:1"/><path d="m26.363 312.04 2.296.422-.783 2.455" style="fill:none;stroke:#000;stroke-width:.264583px;stroke-linecap:butt;stroke-linejoin:miter;stroke-opacity:1"/><text xml:space="preserve" style="font-size:14.6667px;line-height:1.25;font-family:sans-serif;white-space:pre;shape-inside:url(#N);display:inline" transform="matrix(.26458 0 0 .26458 -5.838 60.677)"><tspan x="283.293" y="919.059">x</tspan></text><path d="M73.631 300.776h13.456v4.741H73.631z" style="fill:#999;stroke:#fff;stroke-width:.264583;stroke-dasharray:none;stroke-dashoffset:0"/><path d="M60.463 313.089h4.048v4.316h-4.048z" style="fill:#4d4d4d;stroke:#1a1a1a;stroke-width:.283549;stroke-dasharray:none;stroke-dashoffset:0" transform="skewY(-29.46) scale(.8707 1)"/><path d="M70.158 304.266h2.086" style="fill:none;stroke:#000;stroke-width:.264582px;stroke-linecap:butt;stroke-linejoin:miter;stroke-opacity:1;marker-end:url(#O)"/><path d="M88.36 302.14v2.086" style="fill:none;stroke:#000;stroke-width:.264582px;stroke-linecap:butt;stroke-linejoin:miter;stroke-opacity:1;marker-start:url(#P);marker-end:url(#marker14-4)"/><text xml:space="preserve" style="font-size:14.6667px;line-height:1.25;font-family:sans-serif;white-space:pre;shape-inside:url(#Q);display:inline" transform="matrix(.26458 0 0 .26458 14.262 61.5)"><tspan x="283.293" y="919.059">G</tspan></text><path d="M38.035 370.391h13.679v12.125H38.035z" style="fill:#333;stroke:#000;stroke-width:.79375;stroke-dasharray:none;stroke-dashoffset:0;stroke-opacity:1;fill-opacity:.5"/><text xml:space="preserve" style="font-size:14.6667px;line-height:1.25;font-family:sans-serif;white-space:pre;shape-inside:url(#R)" transform="matrix(.26458 0 0 .26458 11.177 1.82)"><tspan x="82.393" y="1420.35">B</tspan></text><text xml:space="preserve" style="font-size:14.6667px;line-height:1.25;font-family:sans-serif;white-space:pre;shape-inside:url(#S)" transform="matrix(.26458 0 0 .26458 13.903 7.22)"><tspan x="113.207" y="1364.551">A</tspan></text><path d="M38.942 368.804h11.843" style="fill:none;stroke:#000;stroke-width:.264583;stroke-linecap:butt;stroke-linejoin:miter;stroke-opacity:1;marker-start:url(#i);marker-end:url(#marker14)"/><path d="M35.923 381.428v-9.766" style="fill:none;stroke:#000;stroke-width:.264583;stroke-linecap:butt;stroke-linejoin:miter;stroke-opacity:1;marker-start:url(#T);marker-end:url(#marker14-41)"/><path d="M39.207 384.647h6.645" style="fill:none;stroke:#000;stroke-width:.264583;stroke-linecap:butt;stroke-linejoin:miter;stroke-opacity:1;marker-start:url(#U);marker-end:url(#marker14-8)"/><text xml:space="preserve" style="font-size:14.6667px;line-height:1.25;font-family:sans-serif;white-space:pre;shape-inside:url(#V);display:inline" transform="matrix(.26458 0 0 .26458 -33.367 144.527)"><tspan x="283.293" y="919.059">x</tspan></text><text xml:space="preserve" style="font-size:14.6667px;line-height:1.25;font-family:sans-serif;white-space:pre;shape-inside:url(#W)" transform="matrix(.26458 0 0 .26458 -.916 -10.093)"><tspan x="109.166" y="1542.836">top view of air gap and shuttle</tspan></text><path d="M25.248 416.058h74.576v68.463H25.248z" style="fill:#fff;stroke:#fff;stroke-width:.264583;stroke-dasharray:none;stroke-dashoffset:0"/><text xml:space="preserve" style="font-size:14.6667px;line-height:1.25;font-family:sans-serif;white-space:pre;shape-inside:url(#X);display:inline" transform="matrix(.26458 0 0 .26458 11.981 -16.561)"><tspan x="301.631" y="1756.627">H/2</tspan></text><circle cx="60.022" cy="442.093" r="20.779" style="fill:#999;stroke:#999;stroke-width:.264583"/><circle cx="60.022" cy="442.093" r="16.277" style="fill:#fff;stroke:#999;stroke-width:.264583"/><text xml:space="preserve" style="font-size:14.6667px;line-height:1.25;font-family:sans-serif;white-space:pre;shape-inside:url(#Y);display:inline" transform="matrix(.26458 0 0 .26458 21.48 397.96)"><tspan x="34.82" y="197.904">i</tspan></text><path d="m37.03 470.726-8.022-15.235" style="fill:none;stroke:#000;stroke-width:.264583px;stroke-linecap:butt;stroke-linejoin:miter;stroke-opacity:1;marker-end:url(#Z)"/><text xml:space="preserve" style="font-size:14.6667px;line-height:1.25;font-family:sans-serif;white-space:pre;shape-inside:url(#aa);display:inline" transform="matrix(.26458 0 0 .26458 18.47 375.555)"><tspan x="43.178" y="336.377">u</tspan></text><text xml:space="preserve" style="font-size:14.6667px;line-height:1.25;font-family:sans-serif;white-space:pre;shape-inside:url(#ab);display:inline" transform="matrix(.26458 0 0 .26458 6.035 362.71)"><tspan x="169.588" y="330.092">N</tspan></text><text xml:space="preserve" style="font-size:14.6667px;line-height:1.25;font-family:sans-serif;white-space:pre;shape-inside:url(#ac);display:inline" transform="matrix(.26458 0 0 .26458 -14.904 402.606)"><tspan x="277.719" y="102.486">S</tspan></text><path d="M72.56 422.546s2.657 1.722 3.791 2.813c1.217 1.172 2.25 2.537 3.173 3.951a23.475 23.475 0 0 1 2.225 4.277c.42 1.073.902 3.337.902 3.337" style="fill:none;stroke:#000;stroke-width:.264583px;stroke-linecap:butt;stroke-linejoin:miter;stroke-opacity:1;marker-start:url(#ad);marker-end:url(#marker14-68-5-6)"/><text xml:space="preserve" style="font-size:14.6667px;line-height:1.25;font-family:sans-serif;white-space:pre;shape-inside:url(#ae);display:inline" transform="matrix(.26458 0 0 .26458 11.792 399.677)"><tspan x="258.775" y="113.6">L</tspan></text><text xml:space="preserve" style="font-size:14.6667px;line-height:1.25;font-family:sans-serif;white-space:pre;shape-inside:url(#af);display:inline" transform="matrix(.26458 0 0 .26458 11.936 400.293)"><tspan x="57.389" y="309.461">torus with realistic shuttle</tspan></text><path d="M72.054 438.922H85.51v6.488H72.054z" style="fill:#fff;stroke:#fff;stroke-width:.264583;stroke-dasharray:none;stroke-dashoffset:0"/><circle cx="60.113" cy="441.973" r="18.498" style="fill:none;stroke:#000;stroke-width:.264583;stroke-dasharray:.999997,.999997;stroke-dashoffset:0"/><path d="m28.136 455.035 15.97-9.253s.69-.651 1.122-.65c.755 0 1.57.494 1.957 1.143.276.462.3 1.136.052 1.614-.313.606-1.709 1.13-1.709 1.13M41.103 450.977s-1.135 1.616-.923 2.469c.116.467.605.882 1.08.957.48.077.92-.329 1.335-.581 1.954-1.19 3.102-3.782 5.323-4.334.497-.123 1.273-.155 1.508.3.193.373-.312.781-.513 1.15-.332.61-1.135 1.745-1.135 1.745M44.048 455.484s-.715 1.759-.354 2.53c.203.433.744.819 1.218.756 2.519-.332 3.3-3.886 5.21-5.561.572-.502 1.125-1.546 1.855-1.33.52.152.663.974.597 1.512-.106.872-1.525 2.15-1.525 2.15M47.834 459.162s-.496 1.315-.264 1.918c.165.428.599.83 1.054.884.837.1 1.66-.535 2.266-1.121 1.93-1.867 1.285-6.187 3.811-7.097.324-.117.792.088.958.39.393.717-.147 1.649-.44 2.412-.115.302-.507.826-.507.826M52.705 461.447s-.226 1.75-.764 2.393c-.24.287-.994.524-.994.524l-14.142 7.462" style="fill:none;stroke:#a40;stroke-width:.529167;stroke-linecap:butt;stroke-linejoin:miter;stroke-opacity:1"/><path d="m32.043 451.06 2.296.42-.783 2.456" style="fill:none;stroke:#000;stroke-width:.264583px;stroke-linecap:butt;stroke-linejoin:miter;stroke-opacity:1"/><text xml:space="preserve" style="font-size:14.6667px;line-height:1.25;font-family:sans-serif;white-space:pre;shape-inside:url(#ag);display:inline" transform="matrix(.26458 0 0 .26458 -.158 199.696)"><tspan x="283.293" y="919.059">x</tspan></text><path d="M79.311 439.795h13.456v4.741H79.311z" style="fill:#999;stroke:#fff;stroke-width:.264583;stroke-dasharray:none;stroke-dashoffset:0"/><path d="M66.986 455.316h4.048v4.316h-4.048z" style="fill:#4d4d4d;stroke:#1a1a1a;stroke-width:.283549;stroke-dasharray:none;stroke-dashoffset:0" transform="skewY(-29.46) scale(.8707 1)"/><path d="M75.838 443.285h2.086" style="fill:none;stroke:#000;stroke-width:.264582px;stroke-linecap:butt;stroke-linejoin:miter;stroke-opacity:1;marker-end:url(#ah)"/><path d="M94.04 441.159v2.086" style="fill:none;stroke:#000;stroke-width:.264582px;stroke-linecap:butt;stroke-linejoin:miter;stroke-opacity:1;marker-start:url(#ai);marker-end:url(#marker14-4-5)"/><text xml:space="preserve" style="font-size:14.6667px;line-height:1.25;font-family:sans-serif;white-space:pre;shape-inside:url(#aj);display:inline" transform="matrix(.26458 0 0 .26458 19.942 200.518)"><tspan x="283.293" y="919.059">G</tspan></text><path d="M90.274 438.856v1.056" style="fill:none;stroke:#000;stroke-width:.264583px;stroke-linecap:butt;stroke-linejoin:miter;stroke-opacity:1;marker-start:url(#ak);marker-end:url(#marker30)"/><path d="M90.212 444.342v1.057" style="fill:none;stroke:#000;stroke-width:.264583px;stroke-linecap:butt;stroke-linejoin:miter;stroke-opacity:1;marker-start:url(#al);marker-end:url(#marker30-0)"/><text xml:space="preserve" style="font-size:14.6667px;line-height:1.25;font-family:sans-serif;white-space:pre;shape-inside:url(#am)" transform="matrix(.26458 0 0 .26458 12.259 -26.133)"><tspan x="301.631" y="1756.627">H/2</tspan></text></svg>