<svg xmlns="http://www.w3.org/2000/svg" width="318.399" height="218.644" viewBox="0 0 84.243 57.85"><defs><path id="h" d="M56.153 1297.591h173.666v33.432H56.153z"/><path id="g" d="M69.742 1229.695h214.892v126.224H69.742z"/><path id="f" d="M327.765 1103.529h47.121v23.931h-47.121z"/><path id="e" d="M246.912 1098.858h48.846v30.164h-48.846z"/><path id="d" d="M182.11 1105.823h39.468v27.514H182.11z"/><path id="c" d="M54.574 1078.351h67.438v40.348H54.574z"/><path id="b" d="M270.311 1136.394h43.9v38.843h-43.9z"/><path id="a" d="M110.578 1206.475h77.399v47.288h-77.399z"/></defs><path d="M14.799 288.418h83.979v57.585H14.799z" style="fill:#fff;stroke:#fff;stroke-width:.264583;stroke-dasharray:none;stroke-dashoffset:0" transform="translate(-14.666 -288.286)"/><path d="M-68.594 308.382h3.001v3.236h-3.001z" style="fill:#fff;stroke:#f0f;stroke-width:.264595;stroke-dasharray:none;stroke-dashoffset:0" transform="matrix(.95196 -.30624 .31893 .94778 -14.666 -288.286)"/><path d="m27.318 296.24 6.76 20.091 34.55-11.114-41.31-8.977" style="fill:none;stroke:#000;stroke-width:.264583px;stroke-linecap:butt;stroke-linejoin:miter;stroke-opacity:1" transform="translate(-14.666 -288.286)"/><text xml:space="preserve" style="font-size:14.6667px;line-height:1.25;font-family:sans-serif;white-space:pre;shape-inside:url(#a);display:inline" transform="matrix(.26458 0 0 .26458 -12.438 -290.894)"><tspan x="110.578" y="1219.451">A</tspan></text><text xml:space="preserve" style="font-size:14.6667px;line-height:1.25;font-family:sans-serif;white-space:pre;shape-inside:url(#b);display:inline" transform="matrix(.26458 0 0 .26458 -16.697 -286.659)"><tspan x="270.311" y="1149.371">B</tspan></text><text xml:space="preserve" style="font-size:14.6667px;line-height:1.25;font-family:sans-serif;white-space:pre;shape-inside:url(#c);display:inline" transform="matrix(.26458 0 0 .26458 -5.589 -281.46)"><tspan x="54.574" y="1091.328">C</tspan></text><text xml:space="preserve" style="font-size:14.6667px;line-height:1.25;font-family:sans-serif;white-space:pre;shape-inside:url(#d);display:inline" transform="matrix(.26458 0 0 .26458 -17.035 -285.42)"><tspan x="182.109" y="1118.801">a</tspan></text><text xml:space="preserve" style="font-size:14.6667px;line-height:1.25;font-family:sans-serif;white-space:pre;shape-inside:url(#e);display:inline" transform="matrix(.26458 0 0 .26458 -51.908 -274)"><tspan x="246.912" y="1111.834">b</tspan></text><text xml:space="preserve" style="font-size:14.6667px;line-height:1.25;font-family:sans-serif;white-space:pre;shape-inside:url(#f);display:inline" transform="matrix(.26458 0 0 .26458 -50.456 -269.208)"><tspan x="327.766" y="1116.506">c</tspan></text><text xml:space="preserve" style="font-size:14.6667px;line-height:1.25;font-family:sans-serif;baseline-shift:baseline;white-space:pre;shape-inside:url(#g);display:inline" transform="matrix(.26458 0 0 .26458 13.055 -292.033)"><tspan x="69.742" y="1242.672">a<tspan style="baseline-shift:super">2 </tspan>= b<tspan style="baseline-shift:super">2</tspan>+c<tspan style="baseline-shift:super">2</tspan>   [Pythagore]
</tspan><tspan x="69.742" y="1261.005">c = a * cos(B)
</tspan><tspan x="69.742" y="1279.339">b = a * sin(B)</tspan></text><text xml:space="preserve" style="font-size:14.6667px;line-height:1.25;font-family:sans-serif;white-space:pre;shape-inside:url(#h);display:inline" transform="matrix(.26458 0 0 .26458 -12.548 -291.879)"><tspan x="56.152" y="1310.566">right triangle</tspan></text></svg>