<svg xmlns="http://www.w3.org/2000/svg" width="282.862" height="259.757" viewBox="0 0 74.841 68.727"><defs><path id="p" d="M301.63 1743.651h40.359v23.362H301.63z"/><path id="b" d="M34.821 184.928h21.198v16.722H34.821z"/><path id="d" d="M43.178 323.4h61.327v43.549H43.178z"/><path id="e" d="M169.588 317.115h57.418v52.965h-57.418z"/><path id="f" d="M277.718 89.509h30.042v32.637h-30.042z"/><path id="h" d="M258.776 100.623h40.169v37.64h-40.169z"/><path id="i" d="M57.389 296.484h210.295v17.79H57.389z"/><path id="j" d="M283.293 906.083h19.63v17.138h-19.63z"/><path id="m" d="M283.293 906.083h19.63v17.138h-19.63z"/><path id="a" d="M301.63 1743.651h40.359v23.362H301.63z"/><marker id="n" markerHeight="1" markerWidth="1" orient="auto" preserveAspectRatio="xMidYMid" refX="0" refY="0" style="overflow:visible" viewBox="0 0 1 1"><path d="M0-24"/><path d="m0 0-8 5V-5Z" style="fill:context-stroke;fill-rule:evenodd;stroke:none" transform="scale(.6)"/><path d="M0-8v48" style="fill:none;stroke:context-stroke;stroke-width:1;stroke-linecap:square" transform="scale(.6)"/></marker><marker id="c" markerHeight="1" markerWidth="1" orient="auto-start-reverse" preserveAspectRatio="xMidYMid" refX="0" refY="0" style="overflow:visible" viewBox="0 0 1 1"><path d="M3-3 0 0l3 3" style="fill:none;stroke:context-stroke;stroke-width:1;stroke-linecap:butt" transform="rotate(180 .125 0)"/></marker><marker id="g" markerHeight="1" markerWidth="1" orient="auto-start-reverse" preserveAspectRatio="xMidYMid" refX="0" refY="0" style="overflow:visible" viewBox="0 0 1 1"><path d="m0 0 5-5-17.5 5L5 5Z" style="fill:context-stroke;fill-rule:evenodd;stroke:none" transform="scale(-.5)"/></marker><marker id="k" markerHeight="1" markerWidth="1" orient="auto-start-reverse" preserveAspectRatio="xMidYMid" refX="0" refY="0" style="overflow:visible" viewBox="0 0 1 1"><path d="m0 0 5-5-17.5 5L5 5Z" style="fill:context-stroke;fill-rule:evenodd;stroke:none" transform="scale(-.5)"/></marker><marker id="l" markerHeight="1" markerWidth="1" orient="auto-start-reverse" preserveAspectRatio="xMidYMid" refX="0" refY="0" style="overflow:visible" viewBox="0 0 1 1"><path d="m0 0 5-5-17.5 5L5 5Z" style="fill:context-stroke;fill-rule:evenodd;stroke:none" transform="scale(-.5)"/></marker><marker id="o" markerHeight="1" markerWidth="1" orient="auto" preserveAspectRatio="xMidYMid" refX="0" refY="0" style="overflow:visible" viewBox="0 0 1 1"><path d="M0-24"/><path d="m0 0-8 5V-5Z" style="fill:context-stroke;fill-rule:evenodd;stroke:none" transform="scale(.6)"/><path d="M0-8v48" style="fill:none;stroke:context-stroke;stroke-width:1;stroke-linecap:square" transform="scale(.6)"/></marker></defs><g transform="translate(-25.116 -415.926)"><path d="M25.248 416.058h74.576v68.463H25.248z" style="fill:#fff;stroke:#fff;stroke-width:.264583;stroke-dasharray:none;stroke-dashoffset:0"/><text xml:space="preserve" style="font-size:14.6667px;line-height:1.25;font-family:sans-serif;white-space:pre;shape-inside:url(#a);display:inline" transform="matrix(.26458 0 0 .26458 11.981 -16.561)"><tspan x="301.631" y="1756.627">H/2</tspan></text><circle cx="60.022" cy="442.093" r="20.779" style="fill:#999;stroke:#999;stroke-width:.264583"/><circle cx="60.022" cy="442.093" r="16.277" style="fill:#fff;stroke:#999;stroke-width:.264583"/><text xml:space="preserve" style="font-size:14.6667px;line-height:1.25;font-family:sans-serif;white-space:pre;shape-inside:url(#b);display:inline" transform="matrix(.26458 0 0 .26458 21.48 397.96)"><tspan x="34.82" y="197.904">i</tspan></text><path d="m37.03 470.726-8.022-15.235" style="fill:none;stroke:#000;stroke-width:.264583px;stroke-linecap:butt;stroke-linejoin:miter;stroke-opacity:1;marker-end:url(#c)"/><text xml:space="preserve" style="font-size:14.6667px;line-height:1.25;font-family:sans-serif;white-space:pre;shape-inside:url(#d);display:inline" transform="matrix(.26458 0 0 .26458 18.47 375.555)"><tspan x="43.178" y="336.377">u</tspan></text><text xml:space="preserve" style="font-size:14.6667px;line-height:1.25;font-family:sans-serif;white-space:pre;shape-inside:url(#e);display:inline" transform="matrix(.26458 0 0 .26458 6.035 362.71)"><tspan x="169.588" y="330.092">N</tspan></text><text xml:space="preserve" style="font-size:14.6667px;line-height:1.25;font-family:sans-serif;white-space:pre;shape-inside:url(#f);display:inline" transform="matrix(.26458 0 0 .26458 -14.904 402.606)"><tspan x="277.719" y="102.486">S</tspan></text><path d="M72.56 422.546s2.657 1.722 3.791 2.813c1.217 1.172 2.25 2.537 3.173 3.951a23.475 23.475 0 0 1 2.225 4.277c.42 1.073.902 3.337.902 3.337" style="fill:none;stroke:#000;stroke-width:.264583px;stroke-linecap:butt;stroke-linejoin:miter;stroke-opacity:1;marker-start:url(#g);marker-end:url(#marker14-68-5-6)"/><text xml:space="preserve" style="font-size:14.6667px;line-height:1.25;font-family:sans-serif;white-space:pre;shape-inside:url(#h);display:inline" transform="matrix(.26458 0 0 .26458 11.792 399.677)"><tspan x="258.775" y="113.6">L</tspan></text><text xml:space="preserve" style="font-size:14.6667px;line-height:1.25;font-family:sans-serif;white-space:pre;shape-inside:url(#i);display:inline" transform="matrix(.26458 0 0 .26458 11.936 400.293)"><tspan x="57.389" y="309.461">torus with realistic shuttle</tspan></text><path d="M72.054 438.922H85.51v6.488H72.054z" style="fill:#fff;stroke:#fff;stroke-width:.264583;stroke-dasharray:none;stroke-dashoffset:0"/><circle cx="60.113" cy="441.973" r="18.498" style="fill:none;stroke:#000;stroke-width:.264583;stroke-dasharray:.999997,.999997;stroke-dashoffset:0"/><path d="m28.136 455.035 15.97-9.253s.69-.651 1.122-.65c.755 0 1.57.494 1.957 1.143.276.462.3 1.136.052 1.614-.313.606-1.709 1.13-1.709 1.13M41.103 450.977s-1.135 1.616-.923 2.469c.116.467.605.882 1.08.957.48.077.92-.329 1.335-.581 1.954-1.19 3.102-3.782 5.323-4.334.497-.123 1.273-.155 1.508.3.193.373-.312.781-.513 1.15-.332.61-1.135 1.745-1.135 1.745M44.048 455.484s-.715 1.759-.354 2.53c.203.433.744.819 1.218.756 2.519-.332 3.3-3.886 5.21-5.561.572-.502 1.125-1.546 1.855-1.33.52.152.663.974.597 1.512-.106.872-1.525 2.15-1.525 2.15M47.834 459.162s-.496 1.315-.264 1.918c.165.428.599.83 1.054.884.837.1 1.66-.535 2.266-1.121 1.93-1.867 1.285-6.187 3.811-7.097.324-.117.792.088.958.39.393.717-.147 1.649-.44 2.412-.115.302-.507.826-.507.826M52.705 461.447s-.226 1.75-.764 2.393c-.24.287-.994.524-.994.524l-14.142 7.462" style="fill:none;stroke:#a40;stroke-width:.529167;stroke-linecap:butt;stroke-linejoin:miter;stroke-opacity:1"/><path d="m32.043 451.06 2.296.42-.783 2.456" style="fill:none;stroke:#000;stroke-width:.264583px;stroke-linecap:butt;stroke-linejoin:miter;stroke-opacity:1"/><text xml:space="preserve" style="font-size:14.6667px;line-height:1.25;font-family:sans-serif;white-space:pre;shape-inside:url(#j);display:inline" transform="matrix(.26458 0 0 .26458 -.158 199.696)"><tspan x="283.293" y="919.059">x</tspan></text><path d="M79.311 439.795h13.456v4.741H79.311z" style="fill:#999;stroke:#fff;stroke-width:.264583;stroke-dasharray:none;stroke-dashoffset:0"/><path d="M66.986 455.316h4.048v4.316h-4.048z" style="fill:#4d4d4d;stroke:#1a1a1a;stroke-width:.283549;stroke-dasharray:none;stroke-dashoffset:0" transform="skewY(-29.46) scale(.8707 1)"/><path d="M75.838 443.285h2.086" style="fill:none;stroke:#000;stroke-width:.264582px;stroke-linecap:butt;stroke-linejoin:miter;stroke-opacity:1;marker-end:url(#k)"/><path d="M94.04 441.159v2.086" style="fill:none;stroke:#000;stroke-width:.264582px;stroke-linecap:butt;stroke-linejoin:miter;stroke-opacity:1;marker-start:url(#l);marker-end:url(#marker14-4-5)"/><text xml:space="preserve" style="font-size:14.6667px;line-height:1.25;font-family:sans-serif;white-space:pre;shape-inside:url(#m);display:inline" transform="matrix(.26458 0 0 .26458 19.942 200.518)"><tspan x="283.293" y="919.059">G</tspan></text><path d="M90.274 438.856v1.056" style="fill:none;stroke:#000;stroke-width:.264583px;stroke-linecap:butt;stroke-linejoin:miter;stroke-opacity:1;marker-start:url(#n);marker-end:url(#marker30)"/><path d="M90.212 444.342v1.057" style="fill:none;stroke:#000;stroke-width:.264583px;stroke-linecap:butt;stroke-linejoin:miter;stroke-opacity:1;marker-start:url(#o);marker-end:url(#marker30-0)"/><text xml:space="preserve" style="font-size:14.6667px;line-height:1.25;font-family:sans-serif;white-space:pre;shape-inside:url(#p)" transform="matrix(.26458 0 0 .26458 12.259 -26.133)"><tspan x="301.631" y="1756.627">H/2</tspan></text></g></svg>