<svg xmlns="http://www.w3.org/2000/svg" width="244.178" height="271.104" viewBox="0 0 64.605 71.729"><defs><path id="a" d="M34.821 184.928h21.198v16.722H34.821z"/><path id="c" d="M43.178 323.4h61.327v43.549H43.178z"/><path id="d" d="M169.588 317.115h57.418v52.965h-57.418z"/><path id="e" d="M277.718 89.509h30.042v32.637h-30.042z"/><path id="g" d="M258.776 100.623h40.169v37.64h-40.169z"/><path id="h" d="M57.389 296.484h210.295v17.79H57.389z"/><path id="j" d="M258.776 100.623h40.169v37.64h-40.169z"/><path id="k" d="M277.718 89.509h30.042v32.637h-30.042z"/><marker id="b" markerHeight="1" markerWidth="1" orient="auto-start-reverse" preserveAspectRatio="xMidYMid" refX="0" refY="0" style="overflow:visible" viewBox="0 0 1 1"><path d="M3-3 0 0l3 3" style="fill:none;stroke:context-stroke;stroke-width:1;stroke-linecap:butt" transform="rotate(180 .125 0)"/></marker><marker id="f" markerHeight="1" markerWidth="1" orient="auto-start-reverse" preserveAspectRatio="xMidYMid" refX="0" refY="0" style="overflow:visible" viewBox="0 0 1 1"><path d="m0 0 5-5-17.5 5L5 5Z" style="fill:context-stroke;fill-rule:evenodd;stroke:none" transform="scale(-.5)"/></marker><marker id="i" markerHeight="1" markerWidth="1" orient="auto-start-reverse" preserveAspectRatio="xMidYMid" refX="0" refY="0" style="overflow:visible" viewBox="0 0 1 1"><path d="m0 0 5-5-17.5 5L5 5Z" style="fill:context-stroke;fill-rule:evenodd;stroke:none" transform="scale(-.5)"/></marker></defs><g transform="translate(-18.726 -100.708)"><path d="M18.858 100.84h64.341v71.465H18.858z" style="fill:#fff;stroke:#fff;stroke-width:.264583;stroke-dasharray:none;stroke-dashoffset:0"/><circle cx="53.632" cy="130.192" r="20.779" style="fill:#999;stroke:#999;stroke-width:.264583"/><circle cx="53.694" cy="130.129" r="16.277" style="fill:#fff;stroke:#999;stroke-width:.264583"/><text xml:space="preserve" style="font-size:14.6667px;line-height:1.25;font-family:sans-serif;white-space:pre;shape-inside:url(#a);display:inline" transform="matrix(.26458 0 0 .26458 15.09 86.058)"><tspan x="34.82" y="197.904">i</tspan></text><path d="m30.64 158.824-8.023-15.235" style="fill:none;stroke:#000;stroke-width:.264583px;stroke-linecap:butt;stroke-linejoin:miter;stroke-opacity:1;marker-end:url(#b)"/><text xml:space="preserve" style="font-size:14.6667px;line-height:1.25;font-family:sans-serif;white-space:pre;shape-inside:url(#c);display:inline" transform="matrix(.26458 0 0 .26458 12.08 63.653)"><tspan x="43.178" y="336.377">u</tspan></text><text xml:space="preserve" style="font-size:14.6667px;line-height:1.25;font-family:sans-serif;white-space:pre;shape-inside:url(#d);display:inline" transform="matrix(.26458 0 0 .26458 -.356 50.81)"><tspan x="169.588" y="330.092">N</tspan></text><ellipse cx="-27.25" cy="119.693" rx="1.3" ry="2.251" style="fill:#4d4d4d;stroke:#1a1a1a;stroke-width:.264583" transform="rotate(-33.501)"/><text xml:space="preserve" style="font-size:14.6667px;line-height:1.25;font-family:sans-serif;white-space:pre;shape-inside:url(#e);display:inline" transform="matrix(.26458 0 0 .26458 -29.167 93.242)"><tspan x="277.719" y="102.486">S1</tspan></text><path d="m57.735 117.714 3.218-10.306s2.683.836 3.969 1.396c1.161.505 2.322 1.046 3.367 1.763 1.164.8 2.22 1.764 3.183 2.798.85.91 1.566 1.941 2.264 2.973.636.943 1.288 1.89 1.747 2.931.458 1.036.716 2.152.985 3.253.266 1.088.62 3.303.62 3.303l-10.667 2.147s-.432-1.543-.737-2.282c-.391-.943-.838-1.872-1.394-2.727a14.145 14.145 0 0 0-1.814-2.237c-.769-.775-1.592-1.518-2.526-2.082-.686-.414-2.215-.93-2.215-.93z" style="fill:#999;stroke:#999;stroke-width:.264583px;stroke-linecap:butt;stroke-linejoin:miter;stroke-opacity:1"/><path d="M62.687 106.469s3.486 1.008 4.985 1.983c3.227 2.101 6.118 4.88 8.248 8.088.89 1.339 1.349 2.933 1.776 4.482.307 1.11.556 3.412.556 3.412" style="fill:none;stroke:#000;stroke-width:.264583px;stroke-linecap:butt;stroke-linejoin:miter;stroke-opacity:1;marker-start:url(#f);marker-end:url(#marker14-6)"/><text xml:space="preserve" style="font-size:14.6667px;line-height:1.25;font-family:sans-serif;white-space:pre;shape-inside:url(#g);display:inline" transform="matrix(.26458 0 0 .26458 -30.507 80.789)"><tspan x="258.775" y="113.6">L1</tspan></text><text xml:space="preserve" style="font-size:14.6667px;line-height:1.25;font-family:sans-serif;white-space:pre;shape-inside:url(#h);display:inline" transform="matrix(.26458 0 0 .26458 5.545 88.391)"><tspan x="57.389" y="309.461">torus with swelling</tspan></text><path d="M33.95 119.722s1.61-2.657 2.683-3.763c2.157-2.224 4.623-4.251 7.4-5.623 2.637-1.302 5.577-2.084 8.506-2.333 2.065-.176 6.187.609 6.187.609" style="fill:none;stroke:#000;stroke-width:.264583px;stroke-linecap:butt;stroke-linejoin:miter;stroke-opacity:1;marker-start:url(#i);marker-end:url(#marker14-6-3)"/><text xml:space="preserve" style="font-size:14.6667px;line-height:1.25;font-family:sans-serif;white-space:pre;shape-inside:url(#j);display:inline" transform="matrix(.26458 0 0 .26458 5.724 82.365)"><tspan x="258.775" y="113.6">L2</tspan></text><ellipse cx="135.552" cy="7.882" rx="3.39" ry="5.801" style="fill:#4d4d4d;stroke:#1a1a1a;stroke-width:.26464" transform="matrix(.54752 .83679 -.82019 .5721 0 0)"/><circle cx="53.722" cy="130.072" r="18.498" style="fill:none;stroke:#000;stroke-width:.264583;stroke-dasharray:.999997,.999997;stroke-dashoffset:0"/><path d="m21.745 143.134 15.97-9.254s.69-.65 1.122-.65c.756.001 1.571.494 1.958 1.144.275.462.299 1.135.052 1.613-.314.607-1.71 1.13-1.71 1.13M34.713 139.075s-1.136 1.616-.924 2.47c.116.466.605.881 1.08.957.48.076.92-.33 1.335-.582 1.954-1.19 3.103-3.782 5.323-4.333.498-.124 1.273-.156 1.509.3.192.372-.313.78-.514 1.149-.331.61-1.135 1.745-1.135 1.745M37.658 143.583s-.715 1.758-.355 2.529c.203.433.745.82 1.219.757 2.518-.332 3.3-3.886 5.21-5.562.572-.502 1.124-1.545 1.854-1.33.52.153.663.974.598 1.513-.106.872-1.526 2.148-1.526 2.148M41.444 147.26s-.497 1.316-.265 1.918c.165.428.6.83 1.055.884.837.1 1.66-.535 2.265-1.12 1.93-1.868 1.285-6.188 3.812-7.098.324-.116.791.088.957.39.393.717-.147 1.65-.439 2.413-.115.301-.507.825-.507.825M46.314 149.545s-.226 1.751-.764 2.393c-.24.287-.994.525-.994.525l-14.142 7.462" style="fill:none;stroke:#a40;stroke-width:.529167;stroke-linecap:butt;stroke-linejoin:miter;stroke-opacity:1"/><path d="m25.475 139.287 2.296.422-.783 2.456" style="fill:none;stroke:#000;stroke-width:.264583px;stroke-linecap:butt;stroke-linejoin:miter;stroke-opacity:1"/><text xml:space="preserve" style="font-size:14.6667px;line-height:1.25;font-family:sans-serif;white-space:pre;shape-inside:url(#k);display:inline" transform="matrix(.26458 0 0 .26458 -16.04 97.656)"><tspan x="277.719" y="102.486">S2</tspan></text></g></svg>