<svg xmlns="http://www.w3.org/2000/svg" width="282.862" height="259.757" viewBox="0 0 74.841 68.727"><defs><path id="a" d="M34.821 184.928h21.198v16.722H34.821z"/><path id="c" d="M43.178 323.4h61.327v43.549H43.178z"/><path id="d" d="M169.588 317.115h57.418v52.965h-57.418z"/><path id="e" d="M277.718 89.509h30.042v32.637h-30.042z"/><path id="g" d="M258.776 100.623h40.169v37.64h-40.169z"/><path id="h" d="M57.389 296.484h210.295v17.79H57.389z"/><path id="i" d="M283.293 906.083h19.63v17.138h-19.63z"/><path id="l" d="M283.293 906.083h19.63v17.138h-19.63z"/><marker id="b" markerHeight="1" markerWidth="1" orient="auto-start-reverse" preserveAspectRatio="xMidYMid" refX="0" refY="0" style="overflow:visible" viewBox="0 0 1 1"><path d="M3-3 0 0l3 3" style="fill:none;stroke:context-stroke;stroke-width:1;stroke-linecap:butt" transform="rotate(180 .125 0)"/></marker><marker id="f" markerHeight="1" markerWidth="1" orient="auto-start-reverse" preserveAspectRatio="xMidYMid" refX="0" refY="0" style="overflow:visible" viewBox="0 0 1 1"><path d="m0 0 5-5-17.5 5L5 5Z" style="fill:context-stroke;fill-rule:evenodd;stroke:none" transform="scale(-.5)"/></marker><marker id="j" markerHeight="1" markerWidth="1" orient="auto-start-reverse" preserveAspectRatio="xMidYMid" refX="0" refY="0" style="overflow:visible" viewBox="0 0 1 1"><path d="m0 0 5-5-17.5 5L5 5Z" style="fill:context-stroke;fill-rule:evenodd;stroke:none" transform="scale(-.5)"/></marker><marker id="k" markerHeight="1" markerWidth="1" orient="auto-start-reverse" preserveAspectRatio="xMidYMid" refX="0" refY="0" style="overflow:visible" viewBox="0 0 1 1"><path d="m0 0 5-5-17.5 5L5 5Z" style="fill:context-stroke;fill-rule:evenodd;stroke:none" transform="scale(-.5)"/></marker></defs><g transform="translate(-19.436 -276.907)"><path d="M19.569 277.039h74.576v68.463H19.569z" style="fill:#fff;stroke:#fff;stroke-width:.264583;stroke-dasharray:none;stroke-dashoffset:0"/><circle cx="54.342" cy="303.074" r="20.779" style="fill:#999;stroke:#999;stroke-width:.264583"/><circle cx="54.342" cy="303.074" r="16.277" style="fill:#fff;stroke:#999;stroke-width:.264583"/><text xml:space="preserve" style="font-size:14.6667px;line-height:1.25;font-family:sans-serif;white-space:pre;shape-inside:url(#a);display:inline" transform="matrix(.26458 0 0 .26458 15.8 258.941)"><tspan x="34.82" y="197.904">i</tspan></text><path d="m31.35 331.707-8.022-15.235" style="fill:none;stroke:#000;stroke-width:.264583px;stroke-linecap:butt;stroke-linejoin:miter;stroke-opacity:1;marker-end:url(#b)"/><text xml:space="preserve" style="font-size:14.6667px;line-height:1.25;font-family:sans-serif;white-space:pre;shape-inside:url(#c);display:inline" transform="matrix(.26458 0 0 .26458 12.791 236.536)"><tspan x="43.178" y="336.377">u</tspan></text><text xml:space="preserve" style="font-size:14.6667px;line-height:1.25;font-family:sans-serif;white-space:pre;shape-inside:url(#d);display:inline" transform="matrix(.26458 0 0 .26458 .355 223.692)"><tspan x="169.588" y="330.092">N</tspan></text><text xml:space="preserve" style="font-size:14.6667px;line-height:1.25;font-family:sans-serif;white-space:pre;shape-inside:url(#e);display:inline" transform="matrix(.26458 0 0 .26458 -20.584 263.587)"><tspan x="277.719" y="102.486">S</tspan></text><path d="M67.552 284.048s2.59 1.824 3.68 2.959c1.17 1.217 2.15 2.622 3.017 4.07a23.475 23.475 0 0 1 2.057 4.36c.377 1.09.772 3.37.772 3.37" style="fill:none;stroke:#000;stroke-width:.264583px;stroke-linecap:butt;stroke-linejoin:miter;stroke-opacity:1;marker-start:url(#f);marker-end:url(#marker14-68-5)"/><text xml:space="preserve" style="font-size:14.6667px;line-height:1.25;font-family:sans-serif;white-space:pre;shape-inside:url(#g);display:inline" transform="matrix(.26458 0 0 .26458 6.112 260.658)"><tspan x="258.775" y="113.6">L</tspan></text><text xml:space="preserve" style="font-size:14.6667px;line-height:1.25;font-family:sans-serif;white-space:pre;shape-inside:url(#h);display:inline" transform="matrix(.26458 0 0 .26458 6.256 261.274)"><tspan x="57.389" y="309.461">torus with shuttle</tspan></text><path d="M66.374 300.776H79.83v4.741H66.374z" style="fill:#fff;stroke:#fff;stroke-width:.264583;stroke-dasharray:none;stroke-dashoffset:0"/><circle cx="54.433" cy="302.954" r="18.498" style="fill:none;stroke:#000;stroke-width:.264583;stroke-dasharray:.999997,.999997;stroke-dashoffset:0"/><path d="m22.456 316.016 15.97-9.253s.69-.651 1.122-.65c.756 0 1.57.494 1.957 1.143.276.463.3 1.136.053 1.614-.314.606-1.71 1.13-1.71 1.13M35.423 311.958s-1.135 1.616-.923 2.469c.116.467.605.882 1.08.958.48.076.92-.33 1.335-.582 1.954-1.19 3.103-3.782 5.323-4.334.498-.123 1.273-.155 1.508.3.193.373-.312.781-.513 1.15-.331.61-1.135 1.745-1.135 1.745M38.368 316.466s-.715 1.758-.354 2.529c.203.433.744.819 1.218.756 2.519-.331 3.3-3.886 5.21-5.561.572-.502 1.125-1.546 1.855-1.33.52.152.663.974.597 1.512-.105.872-1.525 2.15-1.525 2.15M42.155 320.143s-.497 1.316-.265 1.918c.165.428.599.83 1.055.884.836.1 1.66-.535 2.265-1.121 1.93-1.867 1.285-6.187 3.811-7.097.325-.117.792.088.958.39.393.717-.147 1.65-.44 2.412-.115.302-.507.826-.507.826M47.025 322.428s-.226 1.75-.764 2.393c-.24.287-.994.524-.994.524l-14.142 7.462" style="fill:none;stroke:#a40;stroke-width:.529167;stroke-linecap:butt;stroke-linejoin:miter;stroke-opacity:1"/><path d="m26.363 312.04 2.296.422-.783 2.455" style="fill:none;stroke:#000;stroke-width:.264583px;stroke-linecap:butt;stroke-linejoin:miter;stroke-opacity:1"/><text xml:space="preserve" style="font-size:14.6667px;line-height:1.25;font-family:sans-serif;white-space:pre;shape-inside:url(#i);display:inline" transform="matrix(.26458 0 0 .26458 -5.838 60.677)"><tspan x="283.293" y="919.059">x</tspan></text><path d="M73.631 300.776h13.456v4.741H73.631z" style="fill:#999;stroke:#fff;stroke-width:.264583;stroke-dasharray:none;stroke-dashoffset:0"/><path d="M60.463 313.089h4.048v4.316h-4.048z" style="fill:#4d4d4d;stroke:#1a1a1a;stroke-width:.283549;stroke-dasharray:none;stroke-dashoffset:0" transform="skewY(-29.46) scale(.8707 1)"/><path d="M70.158 304.266h2.086" style="fill:none;stroke:#000;stroke-width:.264582px;stroke-linecap:butt;stroke-linejoin:miter;stroke-opacity:1;marker-end:url(#j)"/><path d="M88.36 302.14v2.086" style="fill:none;stroke:#000;stroke-width:.264582px;stroke-linecap:butt;stroke-linejoin:miter;stroke-opacity:1;marker-start:url(#k);marker-end:url(#marker14-4)"/><text xml:space="preserve" style="font-size:14.6667px;line-height:1.25;font-family:sans-serif;white-space:pre;shape-inside:url(#l);display:inline" transform="matrix(.26458 0 0 .26458 14.262 61.5)"><tspan x="283.293" y="919.059">G</tspan></text></g></svg>