<svg xmlns="http://www.w3.org/2000/svg" width="240.292" height="259.757" viewBox="0 0 63.577 68.727"><defs><path id="j" d="M283.293 906.083h19.63v17.138h-19.63z"/><path id="a" d="M34.821 184.928h21.198v16.722H34.821z"/><path id="c" d="M43.178 323.4h61.327v43.549H43.178z"/><path id="d" d="M169.588 317.115h57.418v52.965h-57.418z"/><path id="e" d="M277.718 89.509h30.042v32.637h-30.042z"/><path id="g" d="M258.776 100.623h40.169v37.64h-40.169z"/><path id="h" d="M57.389 296.484h210.295v17.79H57.389z"/><marker id="i" markerHeight="1" markerWidth="1" orient="auto-start-reverse" preserveAspectRatio="xMidYMid" refX="0" refY="0" style="overflow:visible" viewBox="0 0 1 1"><path d="m0 0 5-5-17.5 5L5 5Z" style="fill:context-stroke;fill-rule:evenodd;stroke:none" transform="scale(-.5)"/></marker><marker id="b" markerHeight="1" markerWidth="1" orient="auto-start-reverse" preserveAspectRatio="xMidYMid" refX="0" refY="0" style="overflow:visible" viewBox="0 0 1 1"><path d="M3-3 0 0l3 3" style="fill:none;stroke:context-stroke;stroke-width:1;stroke-linecap:butt" transform="rotate(180 .125 0)"/></marker><marker id="f" markerHeight="1" markerWidth="1" orient="auto-start-reverse" preserveAspectRatio="xMidYMid" refX="0" refY="0" style="overflow:visible" viewBox="0 0 1 1"><path d="m0 0 5-5-17.5 5L5 5Z" style="fill:context-stroke;fill-rule:evenodd;stroke:none" transform="scale(-.5)"/></marker></defs><g transform="translate(-22.654 -194.476)"><path d="M22.786 194.608h63.313v68.463H22.786z" style="fill:#fff;stroke:#fff;stroke-width:.264583;stroke-dasharray:none;stroke-dashoffset:0"/><circle cx="57.56" cy="220.643" r="20.779" style="fill:#999;stroke:#999;stroke-width:.264583"/><circle cx="57.56" cy="220.643" r="16.277" style="fill:#fff;stroke:#999;stroke-width:.264583"/><text xml:space="preserve" style="font-size:14.6667px;line-height:1.25;font-family:sans-serif;white-space:pre;shape-inside:url(#a);display:inline" transform="matrix(.26458 0 0 .26458 19.018 176.51)"><tspan x="34.82" y="197.904">i</tspan></text><path d="m34.568 249.275-8.023-15.235" style="fill:none;stroke:#000;stroke-width:.264583px;stroke-linecap:butt;stroke-linejoin:miter;stroke-opacity:1;marker-end:url(#b)"/><text xml:space="preserve" style="font-size:14.6667px;line-height:1.25;font-family:sans-serif;white-space:pre;shape-inside:url(#c);display:inline" transform="matrix(.26458 0 0 .26458 16.008 154.105)"><tspan x="43.178" y="336.377">u</tspan></text><text xml:space="preserve" style="font-size:14.6667px;line-height:1.25;font-family:sans-serif;white-space:pre;shape-inside:url(#d);display:inline" transform="matrix(.26458 0 0 .26458 3.573 141.26)"><tspan x="169.588" y="330.092">N</tspan></text><ellipse cx="57.56" cy="202.115" rx="1.3" ry="2.251" style="fill:#4d4d4d;stroke:#1a1a1a;stroke-width:.264583"/><text xml:space="preserve" style="font-size:14.6667px;line-height:1.25;font-family:sans-serif;white-space:pre;shape-inside:url(#e);display:inline" transform="matrix(.26458 0 0 .26458 -17.367 181.156)"><tspan x="277.719" y="102.486">S</tspan></text><path d="M70.77 201.616s2.589 1.825 3.68 2.96c1.17 1.217 2.149 2.621 3.016 4.07a23.475 23.475 0 0 1 2.058 4.36c.377 1.09.771 3.37.771 3.37" style="fill:none;stroke:#000;stroke-width:.264583px;stroke-linecap:butt;stroke-linejoin:miter;stroke-opacity:1;marker-start:url(#f);marker-end:url(#marker14-68)"/><text xml:space="preserve" style="font-size:14.6667px;line-height:1.25;font-family:sans-serif;white-space:pre;shape-inside:url(#g);display:inline" transform="matrix(.26458 0 0 .26458 9.33 178.227)"><tspan x="258.775" y="113.6">L</tspan></text><text xml:space="preserve" style="font-size:14.6667px;line-height:1.25;font-family:sans-serif;white-space:pre;shape-inside:url(#h);display:inline" transform="matrix(.26458 0 0 .26458 9.473 178.843)"><tspan x="57.389" y="309.461">torus with air gap</tspan></text><path d="M69.592 218.345h13.456v4.741H69.592z" style="fill:#fff;stroke:#fff;stroke-width:.264583;stroke-dasharray:none;stroke-dashoffset:0"/><circle cx="57.65" cy="220.523" r="18.498" style="fill:none;stroke:#000;stroke-width:.264583;stroke-dasharray:.999997,.999997;stroke-dashoffset:0"/><path d="m25.673 233.585 15.97-9.254s.69-.65 1.122-.65c.756.001 1.571.495 1.958 1.144.275.462.3 1.135.052 1.613-.314.607-1.71 1.13-1.71 1.13M38.64 229.527s-1.135 1.616-.923 2.469c.116.466.605.882 1.08.957.48.076.92-.329 1.335-.581 1.954-1.19 3.103-3.782 5.323-4.334.498-.124 1.273-.155 1.509.3.192.372-.313.78-.513 1.15-.332.609-1.136 1.744-1.136 1.744M41.586 234.034s-.715 1.758-.355 2.53c.203.432.745.819 1.219.756 2.518-.332 3.3-3.886 5.21-5.561.572-.502 1.124-1.546 1.854-1.331.52.153.663.975.598 1.513-.106.872-1.526 2.149-1.526 2.149M45.372 237.712s-.497 1.315-.265 1.917c.165.428.6.83 1.055.885.837.1 1.66-.536 2.266-1.122 1.93-1.866 1.284-6.187 3.81-7.096.325-.117.793.088.958.39.394.716-.147 1.649-.439 2.412-.115.302-.507.826-.507.826M50.242 239.997s-.226 1.75-.763 2.392c-.241.288-.995.525-.995.525l-14.142 7.462" style="fill:none;stroke:#a40;stroke-width:.529167;stroke-linecap:butt;stroke-linejoin:miter;stroke-opacity:1"/><path d="m29.58 229.609 2.296.421-.782 2.456" style="fill:none;stroke:#000;stroke-width:.264583px;stroke-linecap:butt;stroke-linejoin:miter;stroke-opacity:1"/><path d="M79.754 219.67v2.087" style="fill:none;stroke:#000;stroke-width:.264582px;stroke-linecap:butt;stroke-linejoin:miter;stroke-opacity:1;marker-start:url(#i);marker-end:url(#marker14)"/><text xml:space="preserve" style="font-size:14.6667px;line-height:1.25;font-family:sans-serif;white-space:pre;shape-inside:url(#j)" transform="matrix(.26458 0 0 .26458 5.654 -20.97)"><tspan x="283.293" y="919.059">G</tspan></text></g></svg>