<svg xmlns="http://www.w3.org/2000/svg" width="200" height="200" viewBox="0 0 52.917 52.917"><defs><path id="l" d="M281.281 300.911h90.163v31.905h-90.163z"/><path id="i" d="M314.978 283.006h76.075v23.643h-76.075z"/><path id="f" d="M249.583 441.078h31.984v20.338h-31.984z"/><path id="e" d="M399.974 129.034h56.102v26.076h-56.102z"/><path id="d" d="M373.346 209.379h65.277v27.878h-65.277z"/><path id="c" d="M372.014 274.981h57.012v32.118h-57.012z"/><path id="g" d="M372.014 274.981h57.012v32.118h-57.012z"/><path id="h" d="M372.014 274.981h57.012v32.118h-57.012z"/><path id="j" d="M399.974 129.034h56.102v26.076h-56.102z"/><path id="k" d="M399.974 129.034h56.102v26.076h-56.102z"/><marker id="a" markerHeight="5" markerWidth="8.75" orient="auto-start-reverse" preserveAspectRatio="xMidYMid" refX="0" refY="0" style="overflow:visible" viewBox="0 0 8.75 5"><path d="m0 0 5-5-17.5 5L5 5Z" style="fill:context-stroke;fill-rule:evenodd;stroke:none" transform="scale(-.5)"/></marker><marker id="b" markerHeight="5" markerWidth="8.75" orient="auto-start-reverse" preserveAspectRatio="xMidYMid" refX="0" refY="0" style="overflow:visible" viewBox="0 0 8.75 5"><path d="m0 0 5-5-17.5 5L5 5Z" style="fill:context-stroke;fill-rule:evenodd;stroke:none" transform="scale(-.5)"/></marker></defs><g transform="translate(-31.287 -46.276)"><path d="m67.123 51.098 9.856 45.78" style="fill:#fff;stroke:#f0c;stroke-width:.264583px;stroke-linecap:butt;stroke-linejoin:miter;stroke-opacity:1"/><path d="M31.287 46.276h52.917v52.917H31.287z" style="fill:#fff;stroke:none;stroke-width:.264583"/><circle cx="78.233" cy="58.486" r="1.04" style="fill:#fff;stroke:#f60;stroke-width:.264583"/><path d="M35.136 72.094H77.02" style="fill:#fff;stroke:#000;stroke-width:.264583px;stroke-linecap:butt;stroke-linejoin:miter;stroke-opacity:1;marker-end:url(#a)"/><path d="M56.905 93.863V51.979" style="fill:#fff;stroke:#000;stroke-width:.264583px;stroke-linecap:butt;stroke-linejoin:miter;stroke-opacity:1;marker-end:url(#b)"/><path d="M69.901 72.094v-8.148H56.904" style="fill:none;stroke:#999;stroke-width:.264583px;stroke-linecap:butt;stroke-linejoin:miter;stroke-dasharray:1,1;stroke-dashoffset:0;stroke-opacity:1"/><text xml:space="preserve" style="font-size:12px;line-height:1.25;font-family:sans-serif;white-space:pre;shape-inside:url(#c);display:inline;fill:#2ca02c" transform="matrix(.26458 0 0 .26458 -30.065 -.663)"><tspan x="372.014" y="285.598">p1x</tspan></text><text xml:space="preserve" style="font-size:12px;line-height:1.25;font-family:sans-serif;white-space:pre;shape-inside:url(#d);display:inline;fill:#2ca02c" transform="matrix(.26458 0 0 .26458 -47.77 4.278)"><tspan x="373.346" y="219.996">p1y</tspan></text><text xml:space="preserve" style="font-size:14.6667px;line-height:1.25;font-family:sans-serif;white-space:pre;shape-inside:url(#e);display:inline;fill:#2ca02c" transform="matrix(.26458 0 0 .26458 -34.87 29.376)"><tspan x="399.975" y="142.012">p1</tspan></text><circle cx="75.365" cy="89.733" r="1.04" style="fill:#fff;stroke:#f60;stroke-width:.264583"/><text xml:space="preserve" style="font-size:14.6667px;line-height:1.25;font-family:sans-serif;white-space:pre;shape-inside:url(#f);display:inline;fill:#0055d4" transform="matrix(.26458 0 0 .26458 10.63 -28.708)"><tspan x="249.582" y="454.055">p2</tspan></text><path d="m75.365 89.733-18.228-17.64" style="fill:none;stroke:#59f;stroke-width:.264583px;stroke-linecap:butt;stroke-linejoin:miter;stroke-dasharray:1,1;stroke-dashoffset:0;stroke-opacity:1"/><path d="M60.883 72.215s.456 1.114.31 1.656c-.141.517-1.053 1.215-1.053 1.215" style="fill:none;stroke:navy;stroke-width:.264583px;stroke-linecap:butt;stroke-linejoin:miter;stroke-opacity:1"/><text xml:space="preserve" style="font-size:12px;line-height:1.25;font-family:sans-serif;white-space:pre;shape-inside:url(#g);display:inline;fill:#00f" transform="matrix(.26458 0 0 .26458 -37.065 -.338)"><tspan x="372.014" y="285.598">p2a</tspan></text><text xml:space="preserve" style="font-size:12px;line-height:1.25;font-family:sans-serif;white-space:pre;shape-inside:url(#h);display:inline;fill:#00f" transform="matrix(.26458 0 0 .26458 -36.056 9.852)"><tspan x="372.014" y="285.598">p2l</tspan></text><path d="M42.953 66.974a15.25 15.25 0 0 1 12.51-9.824 15.25 15.25 0 0 1 14.448 6.654l-12.667 8.49z" style="fill:none;stroke:#59f;stroke-width:.264583;stroke-dasharray:none;stroke-dashoffset:0"/><path d="M59.494 70.814s-.434-.691-.735-.958c-.309-.274-.665-.53-1.065-.63a3.011 3.011 0 0 0-1.672.079c-.503.173-.953.52-1.303.922-.171.196-.36.692-.36.692" style="fill:none;stroke:#aa00d4;stroke-width:.264583px;stroke-linecap:butt;stroke-linejoin:miter;stroke-opacity:1"/><text xml:space="preserve" style="font-size:8px;line-height:1.25;font-family:sans-serif;white-space:pre;shape-inside:url(#i);display:inline;fill:#80a" transform="matrix(.26458 0 0 .26458 -33.912 -8.264)"><tspan x="314.979" y="290.084">rotateOrig</tspan></text><circle cx="42.933" cy="66.881" r="1.04" style="fill:none;stroke:#f60;stroke-width:.264583"/><path d="m70.053 63.757 8.235-5.364" style="fill:none;stroke:#ffd42a;stroke-width:.264583px;stroke-linecap:butt;stroke-linejoin:miter;stroke-opacity:1"/><text xml:space="preserve" style="font-size:14.6667px;line-height:1.25;font-family:sans-serif;white-space:pre;shape-inside:url(#j);display:inline;fill:#2ca02c" transform="matrix(.26458 0 0 .26458 -27.412 25.146)"><tspan x="399.975" y="142.012">p4</tspan></text><text xml:space="preserve" style="font-size:14.6667px;line-height:1.25;font-family:sans-serif;white-space:pre;shape-inside:url(#k);display:inline;fill:#2ca02c" transform="matrix(.26458 0 0 .26458 -69.299 30.588)"><tspan x="399.975" y="142.012">p3</tspan></text><text xml:space="preserve" style="font-size:8px;line-height:1.25;font-family:sans-serif;white-space:pre;shape-inside:url(#l);display:inline;fill:#a80" transform="matrix(.26458 0 0 .26458 -7.815 -22.368)"><tspan x="281.281" y="307.988">scaleOrig</tspan></text><circle cx="69.864" cy="63.773" r="1.04" style="fill:none;stroke:#f60;stroke-width:.264583"/></g></svg>