<?xml version="1.0" encoding="UTF-8" standalone="no"?>
<!-- Created with Inkscape (http://www.inkscape.org/) -->

<svg
   width="79.999977"
   height="79.999992"
   viewBox="0 0 21.166661 21.166663"
   version="1.1"
   id="svg5"
   inkscape:version="1.2.2 (732a01da63, 2022-12-09, custom)"
   sodipodi:docname="menu_icons.svg"
   xmlns:inkscape="http://www.inkscape.org/namespaces/inkscape"
   xmlns:sodipodi="http://sodipodi.sourceforge.net/DTD/sodipodi-0.dtd"
   xmlns="http://www.w3.org/2000/svg"
   xmlns:svg="http://www.w3.org/2000/svg">
  <sodipodi:namedview
     id="namedview7"
     pagecolor="#ffffff"
     bordercolor="#666666"
     borderopacity="1.0"
     inkscape:showpageshadow="2"
     inkscape:pageopacity="0.0"
     inkscape:pagecheckerboard="0"
     inkscape:deskcolor="#d1d1d1"
     inkscape:document-units="px"
     showgrid="false"
     inkscape:zoom="1.5729487"
     inkscape:cx="188.1816"
     inkscape:cy="398.29653"
     inkscape:window-width="1366"
     inkscape:window-height="836"
     inkscape:window-x="0"
     inkscape:window-y="0"
     inkscape:window-maximized="1"
     inkscape:current-layer="layer1" />
  <defs
     id="defs2" />
  <g
     inkscape:label="Layer 1"
     inkscape:groupmode="layer"
     id="layer1"
     transform="translate(-44.025736,-80.079063)">
    <rect
       style="fill:none;stroke:none;stroke-width:0.264583"
       id="rect111-3-6-7-5-3"
       width="21.166666"
       height="21.166666"
       x="44.025734"
       y="80.079063"
       inkscape:export-filename="page_readme.svg"
       inkscape:export-xdpi="96"
       inkscape:export-ydpi="96" />
    <path
       style="fill:none;stroke:#6495ed;stroke-width:1.5875;stroke-linecap:butt;stroke-linejoin:miter;stroke-opacity:1"
       d="m 46.895384,99.019459 c 0,0 2.435589,-1.408539 3.006696,-2.605436 1.070136,-2.242738 0.766996,-5.019942 0.250711,-7.450686 -0.411092,-1.935479 -2.593758,-5.339299 -2.593758,-5.339299 0,0 4.319671,-1.59972 6.586099,-1.743308 2.817377,-0.178494 6.53424,-1.006316 8.395155,1.116529 0.892496,1.018118 0.802084,2.968295 0.0037,4.061774 -1.6299,2.232334 -7.900492,2.51818 -7.900492,2.51818 0,0 3.071686,0.375 3.867597,1.506728 0.333187,0.473767 0.04609,1.736979 0.04609,1.736979"
       id="path1795"
       sodipodi:nodetypes="caacaaacac" />
    <path
       style="fill:none;stroke:#6495ed;stroke-width:1.5875;stroke-linecap:butt;stroke-linejoin:miter;stroke-opacity:1"
       d="m 53.0157,92.610661 -0.27898,7.469069"
       id="path1797" />
    <path
       style="fill:none;stroke:#6495ed;stroke-width:1.5875;stroke-linecap:butt;stroke-linejoin:miter;stroke-opacity:1"
       d="m 52.663504,96.05516 c 0,0 1.207106,-2.153191 2.268787,-2.25702 0.952471,-0.09315 1.834578,0.812182 2.389137,1.592144 0.533558,0.750425 0.616449,1.756582 0.691915,2.674257 0.05756,0.699915 -0.187421,2.098479 -0.187421,2.098479"
       id="path1799"
       sodipodi:nodetypes="caaac" />
    <path
       style="fill:none;stroke:#6495ed;stroke-width:1.5875;stroke-linecap:butt;stroke-linejoin:miter;stroke-opacity:1"
       d="m 58.036078,95.9169 c 0,0 1.120101,-1.55867 1.979885,-1.75191 0.706836,-0.158864 1.652931,0.02556 2.087423,0.605274 1.049832,1.400725 -0.01167,5.251426 -0.01167,5.251426"
       id="path1801"
       sodipodi:nodetypes="caac" />
  </g>
</svg>
