<svg xmlns="http://www.w3.org/2000/svg" width="80" height="80" viewBox="0 0 21.167 21.167"><path d="M16.385 22.264h21.167v21.167H16.385z" style="fill:none;fill-opacity:1;stroke:none;stroke-width:.264583" transform="translate(-16.385 -22.264)"/><path d="M17.351 40.891c.689-.144 4.542-3.17 5.872-5.5.986-1.726 1.3-5.821 1.3-5.821l2.057-.14s.513 2.363.929 3.493c.662 1.8 1.022 3.945 2.48 5.19 1.798 1.534 6.799 2.016 6.799 2.016l-.611 2.222s-5.692-.056-7.746-1.723c-1.496-1.214-2.391-5.264-2.391-5.264s-1.841 3.018-3.146 4.172c-1.213 1.073-4.207 2.429-4.207 2.429zm8.574-18.27c1.153.12 2.382.99 2.79 2.075.287.761.07 1.818-.511 2.388-.653.64-1.794.678-2.694.519-.97-.172-1.863-.801-2.537-1.52-.434-.464-1.078-1.095-.871-1.695.457-1.328 2.427-1.912 3.823-1.767z" style="fill:#6495ed;fill-opacity:1;stroke:#6495ed;stroke-width:.264583px;stroke-linecap:butt;stroke-linejoin:miter;stroke-opacity:1" transform="translate(-16.385 -22.264)"/></svg>