<?xml version="1.0" encoding="UTF-8" standalone="no"?>
<!-- Created with Inkscape (http://www.inkscape.org/) -->

<svg
   width="275.53806"
   height="245.55484"
   viewBox="0 0 72.902777 64.969717"
   version="1.1"
   id="svg5"
   xmlns="http://www.w3.org/2000/svg"
   xmlns:svg="http://www.w3.org/2000/svg">
  <defs
     id="defs2">
    <rect
       x="233.9202"
       y="487.77658"
       width="62.576904"
       height="47.573685"
       id="rect3610" />
    <rect
       x="62.586197"
       y="328.48462"
       width="255.34044"
       height="34.586372"
       id="rect2254" />
    <rect
       x="209.51152"
       y="237.97119"
       width="32.898514"
       height="19.469933"
       id="rect1880" />
    <marker
       style="overflow:visible"
       id="marker1720"
       refX="0"
       refY="0"
       orient="auto-start-reverse"
       markerWidth="8.75"
       markerHeight="5"
       viewBox="0 0 8.75 5"
       preserveAspectRatio="xMidYMid">
      <path
         style="fill:context-stroke;fill-rule:evenodd;stroke:none"
         d="M 0,0 5,-5 -12.5,0 5,5 Z"
         id="path1718"
         transform="scale(-0.5)" />
    </marker>
    <rect
       x="190.74297"
       y="238.79276"
       width="32.673229"
       height="18.216373"
       id="rect1700" />
    <marker
       style="overflow:visible"
       id="marker1617"
       refX="0"
       refY="0"
       orient="auto-start-reverse"
       markerWidth="8.75"
       markerHeight="5"
       viewBox="0 0 8.75 5"
       preserveAspectRatio="xMidYMid">
      <path
         style="fill:context-stroke;fill-rule:evenodd;stroke:none"
         d="M 0,0 5,-5 -12.5,0 5,5 Z"
         id="path1615"
         transform="scale(-0.5)" />
    </marker>
    <rect
       x="126.98392"
       y="258.93564"
       width="42.994915"
       height="24.019091"
       id="rect1565" />
    <rect
       x="144.96107"
       y="171.43387"
       width="20.18119"
       height="17.023781"
       id="rect1553" />
    <rect
       x="277.39005"
       y="227.39055"
       width="29.252798"
       height="20.904644"
       id="rect1541" />
    <rect
       x="165.53709"
       y="227.93633"
       width="17.956255"
       height="23.248026"
       id="rect1529" />
    <rect
       x="154.52042"
       y="258.84622"
       width="53.161572"
       height="18.636742"
       id="rect1517" />
    <rect
       x="134.53432"
       y="178.27589"
       width="23.407116"
       height="18.097927"
       id="rect1503" />
    <rect
       x="297.44699"
       y="262.57495"
       width="73.803772"
       height="34.937069"
       id="rect1409" />
    <marker
       style="overflow:visible"
       id="Arrow1L"
       refX="0"
       refY="0"
       orient="auto-start-reverse"
       markerWidth="8.75"
       markerHeight="5"
       viewBox="0 0 8.75 5"
       preserveAspectRatio="xMidYMid">
      <path
         style="fill:context-stroke;fill-rule:evenodd;stroke:none"
         d="M 0,0 5,-5 -12.5,0 5,5 Z"
         id="arrow1L"
         transform="scale(-0.5)" />
    </marker>
    <rect
       x="297.44699"
       y="262.57495"
       width="73.803772"
       height="34.937069"
       id="rect1409-7" />
    <marker
       style="overflow:visible"
       id="Arrow1L-5"
       refX="0"
       refY="0"
       orient="auto-start-reverse"
       markerWidth="8.75"
       markerHeight="5"
       viewBox="0 0 8.75 5"
       preserveAspectRatio="xMidYMid">
      <path
         style="fill:context-stroke;fill-rule:evenodd;stroke:none"
         d="M 0,0 5,-5 -12.5,0 5,5 Z"
         id="arrow1L-3"
         transform="scale(-0.5)" />
    </marker>
    <rect
       x="36.400284"
       y="1385.045"
       width="164.14203"
       height="25.889936"
       id="rect1057-6" />
  </defs>
  <g
     id="layer1"
     transform="translate(-8.5166721,-28.008255)">
    <rect
       style="fill:#ffffff;stroke:#ffffff;stroke-width:0.264583"
       id="rect2328"
       width="72.638191"
       height="64.705132"
       x="8.648963"
       y="28.140547" />
    <text
       xml:space="preserve"
       transform="matrix(0.26458333,0,0,0.26458333,0.55660434,-337.37036)"
       id="text1055-3"
       style="font-size:14.6667px;line-height:1.25;font-family:sans-serif;white-space:pre;shape-inside:url(#rect1057-6);display:inline"><tspan
         x="36.400391"
         y="1398.0215"
         id="tspan1758">tooth right side</tspan></text>
    <path
       style="fill:none;stroke:#000000;stroke-width:0.264583px;stroke-linecap:butt;stroke-linejoin:miter;stroke-opacity:1;marker-end:url(#Arrow1L-5)"
       d="m 77.152608,49.953381 c 0,0 0.271303,-1.329099 0.05026,-1.917028 -0.22019,-0.585702 -1.249094,-1.279569 -1.249094,-1.279569"
       id="path464-5" />
    <text
       xml:space="preserve"
       transform="matrix(0.26458333,0,0,0.26458333,-1.7534677,-25.026951)"
       id="text1407-6"
       style="font-size:14.6667px;line-height:1.25;font-family:sans-serif;white-space:pre;shape-inside:url(#rect1409-7);display:inline"><tspan
         x="297.44727"
         y="275.55081"
         id="tspan1760">u</tspan></text>
    <path
       style="fill:none;stroke:#008000;stroke-width:0.264583px;stroke-linecap:butt;stroke-linejoin:miter;stroke-opacity:1"
       d="M 36.275177,60.314609 72.936108,49.748119"
       id="path1611" />
    <circle
       style="fill:none;stroke:#808080;stroke-width:0.264583"
       id="path244"
       cx="36.275173"
       cy="60.31461"
       r="24.768845" />
    <path
       style="fill:none;stroke:#008080;stroke-width:0.264583px;stroke-linecap:butt;stroke-linejoin:miter;stroke-opacity:1"
       d="M 36.275177,60.314609 H 61.044021"
       id="path460" />
    <path
       style="fill:none;stroke:#008080;stroke-width:0.264583px;stroke-linecap:butt;stroke-linejoin:miter;stroke-opacity:1"
       d="M 36.275177,60.314609 46.491444,37.750842"
       id="path462" />
    <path
       style="fill:none;stroke:#000000;stroke-width:0.264583px;stroke-linecap:butt;stroke-linejoin:miter;stroke-opacity:1;marker-end:url(#Arrow1L)"
       d="m 40.672397,60.261464 c 0,0 0.271303,-1.329099 0.05026,-1.917028 -0.22019,-0.585702 -1.249094,-1.279569 -1.249094,-1.279569"
       id="path464" />
    <text
       xml:space="preserve"
       transform="matrix(0.26458333,0,0,0.26458333,-38.233679,-14.718868)"
       id="text1407"
       style="font-size:14.6667px;line-height:1.25;font-family:sans-serif;white-space:pre;shape-inside:url(#rect1409);display:inline"><tspan
         x="297.44727"
         y="275.55081"
         id="tspan1762">u</tspan></text>
    <path
       style="fill:none;stroke:#ff0000;stroke-width:0.264582px;stroke-linecap:butt;stroke-linejoin:miter;stroke-opacity:1"
       d="M 46.486873,37.757688 72.936108,49.74812"
       id="path462-3" />
    <text
       xml:space="preserve"
       transform="matrix(0.26458333,0,0,0.26458333,2.8604662,-2.5234013)"
       id="text1501"
       style="font-size:14.6667px;line-height:1.25;font-family:sans-serif;white-space:pre;shape-inside:url(#rect1503);display:inline"><tspan
         x="134.53516"
         y="191.25198"
         id="tspan1764">R</tspan></text>
    <path
       style="fill:none;stroke:#ff0000;stroke-width:0.264583px;stroke-linecap:butt;stroke-linejoin:miter;stroke-opacity:1"
       d="m 46.607815,37.987742 c 0,0 2.778437,1.371693 4.055018,2.240738 1.335868,0.909405 2.624732,1.916067 3.737324,3.088116 1.208454,1.273033 2.220839,2.73202 3.138506,4.228303 0.832745,1.357815 1.577486,2.783729 2.128898,4.278075 0.510647,1.383872 0.841979,2.836176 1.074436,4.292825 0.21991,1.378025 0.298027,4.175762 0.298027,4.175762"
       id="path1513" />
    <text
       xml:space="preserve"
       transform="matrix(0.26458333,0,0,0.26458333,19.124464,-28.351011)"
       id="text1515"
       style="font-size:14.6667px;line-height:1.25;font-family:sans-serif;white-space:pre;shape-inside:url(#rect1517);display:inline"><tspan
         x="154.51953"
         y="271.8223"
         id="tspan1766">u*R</tspan></text>
    <text
       xml:space="preserve"
       transform="matrix(0.26458333,0,0,0.26458333,-10.583334,0)"
       id="text1527"
       style="font-size:14.6667px;line-height:1.25;font-family:sans-serif;white-space:pre;shape-inside:url(#rect1529);display:inline"><tspan
         x="165.53711"
         y="240.91214"
         id="tspan1768">O</tspan></text>
    <text
       xml:space="preserve"
       transform="matrix(0.26458333,0,0,0.26458333,-11.74134,-0.10569215)"
       id="text1539"
       style="font-size:14.6667px;line-height:1.25;font-family:sans-serif;white-space:pre;shape-inside:url(#rect1541);display:inline"><tspan
         x="277.39062"
         y="240.36722"
         id="tspan1770">A</tspan></text>
    <text
       xml:space="preserve"
       transform="matrix(0.26458333,0,0,0.26458333,7.0918388,-12.082093)"
       id="text1551"
       style="font-size:14.6667px;line-height:1.25;font-family:sans-serif;white-space:pre;shape-inside:url(#rect1553);display:inline"><tspan
         x="144.96094"
         y="184.41019"
         id="tspan1772">B</tspan></text>
    <path
       style="fill:none;stroke:#000000;stroke-width:0.264583px;stroke-linecap:butt;stroke-linejoin:miter;stroke-opacity:1;marker-end:url(#marker1617)"
       d="m 46.55497,57.292853 c 0,0 -0.519043,-2.583239 -1.177978,-3.695695 -0.317805,-0.536539 -0.771827,-1.008026 -1.290119,-1.354794 -0.599298,-0.400966 -2.017216,-0.78117 -2.017216,-0.78117"
       id="path1613" />
    <text
       xml:space="preserve"
       transform="matrix(0.26458333,0,0,0.26458333,-5.4984329,-13.164209)"
       id="text1698"
       style="font-size:14.6667px;line-height:1.25;font-family:sans-serif;white-space:pre;shape-inside:url(#rect1700);display:inline"><tspan
         x="190.74219"
         y="251.76956"
         id="tspan1774">v</tspan></text>
    <path
       style="fill:none;stroke:#000000;stroke-width:0.264583px;stroke-linecap:butt;stroke-linejoin:miter;stroke-opacity:1;marker-end:url(#marker1720)"
       d="m 49.784879,60.218745 c 0,0 0.494633,-0.870529 0.487904,-1.348498 -0.0062,-0.441255 -0.485291,-1.231744 -0.485291,-1.231744"
       id="path1716" />
    <text
       xml:space="preserve"
       transform="matrix(0.26458333,0,0,0.26458333,-4.933717,-6.650313)"
       id="text1878"
       style="font-size:14.6667px;line-height:1.25;font-family:sans-serif;white-space:pre;shape-inside:url(#rect1880);display:inline"><tspan
         x="209.51172"
         y="250.9473"
         id="tspan1776">w</tspan></text>
    <path
       style="fill:none;stroke:#ff00ff;stroke-width:0.529167;stroke-linecap:butt;stroke-linejoin:miter;stroke-opacity:1;marker-end:url(#marker1720)"
       d="m 61.224678,60.291255 c 0,0 1.783936,-0.04633 2.591303,-0.378219 2.469597,-1.01518 4.705091,-2.729733 6.448453,-4.752155 1.302759,-1.511292 2.197293,-3.388096 2.802071,-5.289524 0.904794,-2.844683 1.032826,-5.898398 1.14971,-8.881217 0.105375,-2.689132 -0.406793,-8.063334 -0.406793,-8.063334"
       id="path1902" />
    <text
       xml:space="preserve"
       transform="matrix(0.26458333,0,0,0.26458333,-4.7051269,0.06083446)"
       id="text2252"
       style="font-size:14.6667px;line-height:1.25;font-family:sans-serif;white-space:pre;shape-inside:url(#rect2254);display:inline"><tspan
         x="62.585938"
         y="341.46097"
         id="tspan1778">involute of circle (R, 0)</tspan></text>
    <text
       xml:space="preserve"
       transform="matrix(0.26458333,0,0,0.26458333,-7.8544053,-78.437746)"
       id="text3608"
       style="font-size:14.6667px;line-height:1.25;font-family:sans-serif;white-space:pre;shape-inside:url(#rect3610);display:inline"><tspan
         x="233.91992"
         y="500.75394"
         id="tspan1780">L</tspan></text>
    <path
       style="fill:none;stroke:#008080;stroke-width:0.264583px;stroke-linecap:butt;stroke-linejoin:miter;stroke-opacity:1;marker-end:url(#marker1720)"
       d="m 72.967027,49.881319 4.473936,-9.987927"
       id="path462-6" />
    <text
       xml:space="preserve"
       transform="matrix(0.26458333,0,0,0.26458333,37.274334,-18.430384)"
       id="text1563"
       style="font-size:14.6667px;line-height:1.25;font-family:sans-serif;white-space:pre;shape-inside:url(#rect1565);display:inline"><tspan
         x="126.98438"
         y="271.91214"
         id="tspan1782">C</tspan></text>
    <path
       style="fill:none;stroke:#999999;stroke-width:0.264583px;stroke-linecap:butt;stroke-linejoin:miter;stroke-opacity:1"
       d="m 73.156209,49.935262 h 7.130843"
       id="path4009" />
    <path
       style="fill:none;stroke:#000000;stroke-width:0.264583px;stroke-linecap:butt;stroke-linejoin:miter;stroke-opacity:1"
       d="m 46.042178,38.984137 1.171525,0.511564 0.462711,-1.279369"
       id="path1446" />
    <path
       style="fill:none;stroke:#000000;stroke-width:0.264583px;stroke-linecap:butt;stroke-linejoin:miter;stroke-opacity:1"
       d="m 73.558023,48.448196 -1.171525,-0.511564 -0.462711,1.279369"
       id="path1446-2" />
  </g>
</svg>
