<?xml version="1.0" encoding="UTF-8" standalone="no"?>
<!-- Created with Inkscape (http://www.inkscape.org/) -->

<svg
   width="442.10071"
   height="333.04855"
   viewBox="0 0 116.97248 88.119095"
   version="1.1"
   id="svg5"
   xmlns="http://www.w3.org/2000/svg"
   xmlns:svg="http://www.w3.org/2000/svg">
  <defs
     id="defs2">
    <rect
       x="-147.6656"
       y="998.20197"
       width="91.69384"
       height="28.160072"
       id="rect13176" />
    <rect
       x="391.29358"
       y="1209.6389"
       width="45.467098"
       height="33.055035"
       id="rect9030" />
    <rect
       x="106.99898"
       y="977.09875"
       width="43.608047"
       height="23.45705"
       id="rect8028" />
    <rect
       x="170.39569"
       y="887.15527"
       width="51.287201"
       height="28.883743"
       id="rect7942" />
    <rect
       x="123.37832"
       y="893.78662"
       width="33.183132"
       height="20.587139"
       id="rect7870" />
    <rect
       x="271.0076"
       y="1029.6542"
       width="39.032795"
       height="31.954735"
       id="rect7798" />
    <rect
       x="205.93297"
       y="1000.2458"
       width="34.26701"
       height="22.943756"
       id="rect7244" />
    <marker
       style="overflow:visible"
       id="marker1720"
       refX="0"
       refY="0"
       orient="auto-start-reverse"
       markerWidth="8.75"
       markerHeight="5"
       viewBox="0 0 8.75 5"
       preserveAspectRatio="xMidYMid">
      <path
         style="fill:context-stroke;fill-rule:evenodd;stroke:none"
         d="M 0,0 5,-5 -12.5,0 5,5 Z"
         id="path1718"
         transform="scale(-0.5)" />
    </marker>
    <rect
       x="297.44699"
       y="262.57495"
       width="73.803772"
       height="34.937069"
       id="rect1409-9-1-5" />
    <marker
       style="overflow:visible"
       id="Arrow1L-7-2-4"
       refX="0"
       refY="0"
       orient="auto-start-reverse"
       markerWidth="8.75"
       markerHeight="5"
       viewBox="0 0 8.75 5"
       preserveAspectRatio="xMidYMid">
      <path
         style="fill:context-stroke;fill-rule:evenodd;stroke:none"
         d="M 0,0 5,-5 -12.5,0 5,5 Z"
         id="arrow1L-0-0-7"
         transform="scale(-0.5)" />
    </marker>
    <marker
       style="overflow:visible"
       id="Arrow1L-5-9-6"
       refX="0"
       refY="0"
       orient="auto-start-reverse"
       markerWidth="8.75"
       markerHeight="5"
       viewBox="0 0 8.75 5"
       preserveAspectRatio="xMidYMid">
      <path
         style="fill:context-stroke;fill-rule:evenodd;stroke:none"
         d="M 0,0 5,-5 -12.5,0 5,5 Z"
         id="arrow1L-3-1-5"
         transform="scale(-0.5)" />
    </marker>
    <rect
       x="297.44699"
       y="262.57495"
       width="73.803772"
       height="34.937069"
       id="rect1409-7-2-6" />
    <rect
       x="134.53432"
       y="178.27589"
       width="23.407116"
       height="18.097927"
       id="rect1503-3-4" />
    <rect
       x="165.53709"
       y="227.93633"
       width="17.956255"
       height="23.248026"
       id="rect1529-0-5" />
    <rect
       x="277.39005"
       y="227.39055"
       width="48.000626"
       height="21.520485"
       id="rect1541-6-2" />
    <marker
       style="overflow:visible"
       id="marker1720-7-5"
       refX="0"
       refY="0"
       orient="auto-start-reverse"
       markerWidth="8.75"
       markerHeight="5"
       viewBox="0 0 8.75 5"
       preserveAspectRatio="xMidYMid">
      <path
         style="fill:context-stroke;fill-rule:evenodd;stroke:none"
         d="M 0,0 5,-5 -12.5,0 5,5 Z"
         id="path1718-9-4"
         transform="scale(-0.5)" />
    </marker>
    <rect
       x="62.586197"
       y="328.48462"
       width="375.7233"
       height="31.328165"
       id="rect2254-0-7" />
    <marker
       style="overflow:visible"
       id="Arrow1L-7-6"
       refX="0"
       refY="0"
       orient="auto-start-reverse"
       markerWidth="8.75"
       markerHeight="5"
       viewBox="0 0 8.75 5"
       preserveAspectRatio="xMidYMid">
      <path
         style="fill:context-stroke;fill-rule:evenodd;stroke:none"
         d="M 0,0 5,-5 -12.5,0 5,5 Z"
         id="arrow1L-0-6"
         transform="scale(-0.5)" />
    </marker>
    <rect
       x="297.44699"
       y="262.57495"
       width="73.803772"
       height="34.937069"
       id="rect1409-9-4" />
  </defs>
  <g
     id="layer1"
     transform="translate(-15.905298,-217.96285)">
    <rect
       style="fill:#ffffff;stroke:#ffffff;stroke-width:0.264583"
       id="rect2328-7-4"
       width="116.7079"
       height="87.854507"
       x="16.03759"
       y="218.09514" />
    <text
       xml:space="preserve"
       transform="matrix(0.26458333,0,0,0.26458333,17.906104,190.32712)"
       id="text1407-3-5-4"
       style="font-size:14.6667px;line-height:1.25;font-family:sans-serif;white-space:pre;shape-inside:url(#rect1409-9-1-5);display:inline"><tspan
         x="297.44727"
         y="275.55081"
         id="tspan13730">i1</tspan></text>
    <path
       style="fill:none;stroke:#000000;stroke-width:0.264583px;stroke-linecap:butt;stroke-linejoin:miter;stroke-opacity:1;marker-end:url(#Arrow1L-7-2-4)"
       d="m 103.17187,263.91178 c 0,0 -1.3291,-0.2713 -1.91702,-0.0503 -0.58571,0.22019 -1.279568,1.2491 -1.279568,1.2491"
       id="path464-7-6-3" />
    <path
       style="fill:none;stroke:#000000;stroke-width:0.264583px;stroke-linecap:butt;stroke-linejoin:miter;stroke-opacity:1;marker-end:url(#Arrow1L-5-9-6)"
       d="m 74.822521,253.24375 c 0,0 0.2713,-1.3291 0.0503,-1.91703 -0.22019,-0.5857 -1.2491,-1.27957 -1.2491,-1.27957"
       id="path464-5-5-0" />
    <text
       xml:space="preserve"
       transform="matrix(0.26458333,0,0,0.26458333,-3.4443965,179.1646)"
       id="text1407-6-9-7"
       style="font-size:14.6667px;line-height:1.25;font-family:sans-serif;white-space:pre;shape-inside:url(#rect1409-7-2-6);display:inline"><tspan
         x="297.44727"
         y="275.55081"
         id="tspan13732">i1</tspan></text>
    <circle
       style="fill:none;stroke:#808080;stroke-width:0.264583"
       id="path244-2-8"
       cx="43.663803"
       cy="268.2905"
       r="24.768845" />
    <path
       style="fill:none;stroke:#008080;stroke-width:0.264583px;stroke-linecap:butt;stroke-linejoin:miter;stroke-opacity:1"
       d="m 43.6638,268.29049 h 74.13045"
       id="path460-8-6" />
    <path
       style="fill:none;stroke:#008080;stroke-width:0.264583px;stroke-linecap:butt;stroke-linejoin:miter;stroke-opacity:1"
       d="M 43.663803,268.2905 53.88007,245.72673"
       id="path462-9-8" />
    <path
       style="fill:none;stroke:#ff0000;stroke-width:0.264581px;stroke-linecap:butt;stroke-linejoin:miter;stroke-opacity:1"
       d="m 53.839265,245.78773 68.844255,31.34922"
       id="path462-3-6-3" />
    <text
       xml:space="preserve"
       transform="matrix(0.26458333,0,0,0.26458333,10.249092,205.45249)"
       id="text1501-1-1"
       style="font-size:14.6667px;line-height:1.25;font-family:sans-serif;white-space:pre;shape-inside:url(#rect1503-3-4);display:inline"><tspan
         x="134.53516"
         y="191.25198"
         id="tspan13734">R</tspan></text>
    <text
       xml:space="preserve"
       transform="matrix(0.26458333,0,0,0.26458333,-3.1947087,207.97589)"
       id="text1527-3-4"
       style="font-size:14.6667px;line-height:1.25;font-family:sans-serif;white-space:pre;shape-inside:url(#rect1529-0-5);display:inline"><tspan
         x="165.53711"
         y="240.91214"
         id="tspan13736">O</tspan></text>
    <text
       xml:space="preserve"
       transform="matrix(0.26458333,0,0,0.26458333,-8.789958,198.41822)"
       id="text1539-1-9"
       style="font-size:14.6667px;line-height:1.25;font-family:sans-serif;white-space:pre;shape-inside:url(#rect1541-6-2);display:inline"><tspan
         x="277.39062"
         y="240.36722"
         id="tspan13738">A</tspan></text>
    <path
       style="fill:none;stroke:#ff00ff;stroke-width:0.529167;stroke-linecap:butt;stroke-linejoin:miter;stroke-opacity:1;marker-end:url(#marker1720-7-5)"
       d="m 66.342754,258.13228 c 0,0 1.542685,-0.89705 2.091589,-1.57582 1.679023,-2.07614 2.816928,-4.65341 3.375321,-7.26448 0.417273,-1.95117 0.300964,-4.027 -0.08135,-5.98531 -0.571966,-2.92981 -1.925677,-5.67007 -3.25514,-8.34278 -1.198559,-2.40956 -4.227891,-6.87806 -4.227891,-6.87806"
       id="path1902-5-2" />
    <text
       xml:space="preserve"
       transform="matrix(0.26458333,0,0,0.26458333,2.0074013,213.06834)"
       id="text2252-0-0"
       style="font-size:14.6667px;line-height:1.25;font-family:sans-serif;white-space:pre;shape-inside:url(#rect2254-0-7);display:inline"><tspan
         x="62.585938"
         y="341.46097"
         id="tspan13740">involute of circle (R, i2) at u=u2=i1-i2</tspan></text>
    <path
       style="fill:none;stroke:#008080;stroke-width:0.264583px;stroke-linecap:butt;stroke-linejoin:miter;stroke-opacity:1;marker-end:url(#marker1720-7-5)"
       d="m 70.636941,253.17169 4.47393,-9.98793"
       id="path462-6-6-6" />
    <path
       style="fill:none;stroke:#999999;stroke-width:0.264583px;stroke-linecap:butt;stroke-linejoin:miter;stroke-opacity:1"
       d="m 70.826121,253.22563 h 7.13084"
       id="path4009-0-8" />
    <path
       style="fill:none;stroke:#000000;stroke-width:0.264583px;stroke-linecap:butt;stroke-linejoin:miter;stroke-opacity:1"
       d="m 53.430804,246.96003 1.171525,0.51156 0.462711,-1.27937"
       id="path1446-6-9" />
    <path
       style="fill:none;stroke:#cccccc;stroke-width:0.264583px;stroke-linecap:butt;stroke-linejoin:miter;stroke-opacity:1"
       d="m 103.30122,276.66764 c 0,-0.81514 0,-17.01888 0,-17.01888"
       id="path4963-2" />
    <path
       style="fill:none;stroke:#ffb380;stroke-width:0.264583px;stroke-linecap:butt;stroke-linejoin:miter;stroke-opacity:1"
       d="M 43.663801,268.29049 66.26744,258.16275"
       id="path6610" />
    <path
       style="fill:none;stroke:#000000;stroke-width:0.264583px;stroke-linecap:butt;stroke-linejoin:miter;stroke-opacity:1;marker-end:url(#marker1720)"
       d="m 53.296528,268.29049 c 0,0 0.404254,-1.03506 0.339786,-1.56496 -0.04666,-0.38352 -0.510331,-1.04065 -0.510331,-1.04065"
       id="path6612" />
    <text
       xml:space="preserve"
       transform="matrix(0.26458333,0,0,0.26458333,-0.55161009,-0.31893013)"
       id="text7242"
       style="font-size:14.6667px;line-height:1.25;font-family:sans-serif;white-space:pre;shape-inside:url(#rect7244)"><tspan
         x="205.93359"
         y="1013.2227"
         id="tspan13742">i2</tspan></text>
    <text
       xml:space="preserve"
       transform="matrix(0.26458333,0,0,0.26458333,-3.2162409,-4.1252353)"
       id="text7796"
       style="font-size:14.6667px;line-height:1.25;font-family:sans-serif;white-space:pre;shape-inside:url(#rect7798)"><tspan
         x="271.00781"
         y="1042.6309"
         id="tspan13744">E</tspan></text>
    <text
       xml:space="preserve"
       transform="matrix(0.26458333,0,0,0.26458333,19.691317,5.0286751)"
       id="text7868"
       style="font-size:14.6667px;line-height:1.25;font-family:sans-serif;white-space:pre;shape-inside:url(#rect7870)"><tspan
         x="123.37891"
         y="906.7637"
         id="tspan13746">B</tspan></text>
    <text
       xml:space="preserve"
       transform="matrix(0.26458333,0,0,0.26458333,22.963474,13.728003)"
       id="text7940"
       style="font-size:14.6667px;line-height:1.25;font-family:sans-serif;white-space:pre;shape-inside:url(#rect7942)"><tspan
         x="170.39648"
         y="900.13284"
         id="tspan13748">C</tspan></text>
    <path
       style="fill:none;stroke:#008080;stroke-width:0.264583px;stroke-linecap:butt;stroke-linejoin:miter;stroke-opacity:1"
       d="M 43.587893,268.27966 70.246292,253.26309"
       id="path8012" />
    <path
       style="fill:none;stroke:#000000;stroke-width:0.264583px;stroke-linecap:butt;stroke-linejoin:miter;stroke-opacity:1;marker-end:url(#marker1720)"
       d="m 56.86824,262.4746 c 0,0 -0.455834,-2.6145 -1.280903,-3.57418 -1.18669,-1.3803 -4.80623,-2.59253 -4.80623,-2.59253"
       id="path8014" />
    <text
       xml:space="preserve"
       transform="matrix(0.26458333,0,0,0.26458333,25.775378,-4.5985324)"
       id="text8026"
       style="font-size:14.6667px;line-height:1.25;font-family:sans-serif;white-space:pre;shape-inside:url(#rect8028)"><tspan
         x="106.99805"
         y="990.0762"
         id="tspan13750">u2</tspan></text>
    <text
       xml:space="preserve"
       transform="matrix(0.26458333,0,0,0.26458333,-3.4221985,-51.538067)"
       id="text9028"
       style="font-size:14.6667px;line-height:1.25;font-family:sans-serif;white-space:pre;shape-inside:url(#rect9030)"><tspan
         x="391.29297"
         y="1222.6153"
         id="tspan13752">F</tspan></text>
    <path
       style="fill:none;stroke:#000000;stroke-width:0.264583px;stroke-linecap:butt;stroke-linejoin:miter;stroke-opacity:1;marker-end:url(#Arrow1L-7-6)"
       d="m 48.021881,268.0999 c 0,0 0.271303,-1.3291 0.05026,-1.91702 -0.22019,-0.58571 -1.249094,-1.27957 -1.249094,-1.27957"
       id="path464-7-9" />
    <text
       xml:space="preserve"
       transform="matrix(0.26458333,0,0,0.26458333,-31.781892,191.33765)"
       id="text1407-3-50"
       style="font-size:14.6667px;line-height:1.25;font-family:sans-serif;white-space:pre;shape-inside:url(#rect1409-9-4);display:inline"><tspan
         x="297.44727"
         y="275.55081"
         id="tspan13754">i1</tspan></text>
    <path
       style="fill:none;stroke:#000000;stroke-width:0.264583px;stroke-linecap:butt;stroke-linejoin:miter;stroke-opacity:1;marker-end:url(#marker1720)"
       d="m 25.063799,249.14908 c 0,0 2.624483,-2.7329 4.207409,-3.74101 1.547112,-0.9853 5.052333,-2.18021 5.052333,-2.18021"
       id="path12544" />
    <text
       xml:space="preserve"
       transform="matrix(0.26458333,0,0,0.26458333,61.160758,-23.471042)"
       id="text13174"
       style="font-size:14.6667px;line-height:1.25;font-family:sans-serif;white-space:pre;shape-inside:url(#rect13176)"><tspan
         x="-147.66602"
         y="1011.1778"
         id="tspan13756">i1-i2</tspan></text>
  </g>
</svg>
