<?xml version="1.0" encoding="UTF-8" standalone="no"?>
<!-- Created with Inkscape (http://www.inkscape.org/) -->

<svg
   width="75.121918"
   height="56.76812"
   viewBox="0 0 19.876007 15.019897"
   version="1.1"
   id="svg5"
   xmlns="http://www.w3.org/2000/svg"
   xmlns:svg="http://www.w3.org/2000/svg">
  <defs
     id="defs2" />
  <g
     id="layer1"
     transform="translate(-102.77678,-147.58224)">
    <rect
       style="fill:none;stroke:#e6e6e6;stroke-width:0.264583"
       id="rect111-3-3-3-3"
       width="21.166666"
       height="21.166666"
       x="102.28457"
       y="145.34593" />
    <path
       style="fill:none;stroke:#6495ed;stroke-width:0.79375;stroke-linecap:butt;stroke-linejoin:miter;stroke-opacity:1"
       d="m 107.03739,162.21508 c 0,0 -2.84838,-0.64523 -3.46158,-1.70711 -0.65994,-1.14283 -0.46027,-2.86078 0.43605,-3.85905 0.57213,-0.63719 1.68237,-0.72093 2.58232,-0.72278 0.57383,-8.4e-4 1.64879,0.45414 1.64879,0.45414"
       id="path348" />
    <path
       style="fill:none;stroke:#6495ed;stroke-width:0.79375;stroke-linecap:butt;stroke-linejoin:miter;stroke-opacity:1"
       d="m 106.4872,156.09736 c 0,0 -1.94211,-2.01718 -1.78766,-3.21044 0.16623,-1.28421 1.39613,-2.59275 2.75247,-2.94589 0.86576,-0.2254 1.83071,0.28518 2.57192,0.75335 0.4724,0.2988 1.07414,1.23395 1.07414,1.23395"
       id="path348-6" />
    <path
       style="fill:none;stroke:#6495ed;stroke-width:0.79375;stroke-linecap:butt;stroke-linejoin:miter;stroke-opacity:1"
       d="m 109.1714,152.46836 c 0,0 -0.12951,-2.68852 0.80791,-3.52794 1.00889,-0.9034 2.86201,-1.21282 4.15917,-0.70602 0.82796,0.3235 1.22905,1.27676 1.4851,2.06813 0.16291,0.50467 -0.01,1.57901 -0.01,1.57901"
       id="path348-6-7" />
    <path
       style="fill:none;stroke:#6495ed;stroke-width:0.79375;stroke-linecap:butt;stroke-linejoin:miter;stroke-opacity:1"
       d="m 118.39217,161.86537 c 0,0 2.84838,-0.64523 3.46158,-1.70711 0.65994,-1.14282 0.46027,-2.86078 -0.43605,-3.85904 -0.57213,-0.63719 -1.68237,-0.72094 -2.58232,-0.72278 -0.57383,-8.4e-4 -1.64878,0.45414 -1.64878,0.45414"
       id="path348-5" />
    <path
       style="fill:none;stroke:#6495ed;stroke-width:0.79375;stroke-linecap:butt;stroke-linejoin:miter;stroke-opacity:1"
       d="m 118.94236,155.74765 c 0,0 1.94211,-2.01717 1.78766,-3.21044 -0.16623,-1.28421 -1.39613,-2.59275 -2.75247,-2.94588 -0.86576,-0.2254 -1.83071,0.28517 -2.57192,0.75335 -0.4724,0.29879 -1.07414,1.23395 -1.07414,1.23395"
       id="path348-6-3" />
    <path
       style="fill:none;stroke:#6495ed;stroke-width:0.793753;stroke-linecap:butt;stroke-linejoin:miter;stroke-opacity:1"
       d="m 109.3353,158.07135 c 0,0 -0.8818,0.0218 -1.14719,-0.43375 -0.28561,-0.49027 -0.3681,-1.37097 -0.18894,-1.97684 0.11436,-0.38672 0.43063,-0.56237 0.69241,-0.67182 0.16693,-0.0696 0.51702,0.0279 0.51702,0.0279"
       id="path348-6-7-5" />
    <path
       style="fill:none;stroke:#6495ed;stroke-width:0.793753;stroke-linecap:butt;stroke-linejoin:miter;stroke-opacity:1"
       d="m 116.05326,157.57817 c 0,0 0.8818,0.0218 1.14719,-0.43375 0.28561,-0.49027 0.3681,-1.37097 0.18894,-1.97684 -0.11436,-0.38672 -0.43063,-0.56237 -0.69241,-0.67182 -0.16693,-0.0696 -0.51702,0.0279 -0.51702,0.0279"
       id="path348-6-7-5-6" />
  </g>
</svg>
