<?xml version="1.0" encoding="UTF-8" standalone="no"?>
<!-- Created with Inkscape (http://www.inkscape.org/) -->

<svg
   id="svg5"
   version="1.1"
   viewBox="0 0 100.72966 79.331661"
   height="299.83618"
   width="380.71051"
   xmlns="http://www.w3.org/2000/svg"
   xmlns:svg="http://www.w3.org/2000/svg">
  <defs
     id="defs2">
    <rect
       x="59.345573"
       y="7834.7935"
       width="302.8519"
       height="29.455389"
       id="rect8426" />
    <rect
       x="105.59196"
       y="7803.728"
       width="188.93822"
       height="30.369778"
       id="rect8176" />
    <rect
       x="168.59508"
       y="7828.4219"
       width="208.48029"
       height="35.724342"
       id="rect8032" />
    <rect
       x="244.61307"
       y="7575.2422"
       width="78.105003"
       height="50.589066"
       id="rect3096" />
    <rect
       x="246.10718"
       y="7644.8672"
       width="182.45055"
       height="64.982101"
       id="rect2952" />
    <rect
       x="252.97694"
       y="7606.1865"
       width="182.00784"
       height="89.607307"
       id="rect2804" />
    <rect
       x="137.47693"
       y="7743.3735"
       width="96.005386"
       height="26.432905"
       id="rect1947" />
    <rect
       x="332.87119"
       y="7747.8423"
       width="87.35955"
       height="26.372297"
       id="rect1815" />
    <rect
       x="62.220493"
       y="7502.0889"
       width="204.99139"
       height="33.829693"
       id="rect10996" />
    <rect
       x="342.78189"
       y="7449.4995"
       width="166.86118"
       height="55.132015"
       id="rect9989" />
    <rect
       x="144.65501"
       y="7468.1797"
       width="195.12286"
       height="51.392776"
       id="rect9983" />
    <rect
       x="252.94797"
       y="7445.7471"
       width="161.61201"
       height="39.115746"
       id="rect9977" />
    <rect
       x="79.780945"
       y="7070.1421"
       width="334.81857"
       height="49.1661"
       id="rect7114" />
    <marker
       style="overflow:visible"
       id="Arrow1L"
       refX="0"
       refY="0"
       orient="auto-start-reverse"
       markerWidth="8.75"
       markerHeight="5"
       viewBox="0 0 8.75 5"
       preserveAspectRatio="xMidYMid">
      <path
         style="fill:context-stroke;fill-rule:evenodd;stroke:none"
         d="M 0,0 5,-5 -12.5,0 5,5 Z"
         id="arrow1L"
         transform="scale(-0.5)" />
    </marker>
    <marker
       style="overflow:visible"
       id="Arrow1Mend"
       refX="0"
       refY="0"
       orient="auto"
       viewBox="0 0 8.886927 5.078244"
       markerWidth="8.8869267"
       markerHeight="5.0782437"
       preserveAspectRatio="xMidYMid">
      <path
         transform="matrix(-0.4,0,0,-0.4,-4,0)"
         style="fill:context-stroke;fill-rule:evenodd;stroke:context-stroke;stroke-width:1pt"
         d="M 0,0 5,-5 -12.5,0 5,5 Z"
         id="path44678" />
    </marker>
    <marker
       style="overflow:visible"
       id="Arrow1L-3"
       refX="0"
       refY="0"
       orient="auto-start-reverse"
       markerWidth="8.75"
       markerHeight="5"
       viewBox="0 0 8.75 5"
       preserveAspectRatio="xMidYMid">
      <path
         style="fill:context-stroke;fill-rule:evenodd;stroke:none"
         d="M 0,0 5,-5 -12.5,0 5,5 Z"
         id="arrow1L-6"
         transform="scale(-0.5)" />
    </marker>
    <marker
       style="overflow:visible"
       id="Arrow1Mend-75"
       refX="0"
       refY="0"
       orient="auto"
       viewBox="0 0 8.886927 5.078244"
       markerWidth="8.8869267"
       markerHeight="5.0782437"
       preserveAspectRatio="xMidYMid">
      <path
         transform="matrix(-0.4,0,0,-0.4,-4,0)"
         style="fill:context-stroke;fill-rule:evenodd;stroke:context-stroke;stroke-width:1pt"
         d="M 0,0 5,-5 -12.5,0 5,5 Z"
         id="path44678-35" />
    </marker>
  </defs>
  <g
     id="layer1"
     transform="translate(-29.036853,-1990.5174)">
    <g
       transform="translate(34.238184,1845.4481)"
       id="g4669">
      <rect
         style="fill:#ffffff;stroke:#ffffff;stroke-width:0.264583"
         id="rect8370"
         width="100.46507"
         height="79.067024"
         x="-5.0690398"
         y="145.20152" />
      <rect
         style="fill:#ffffff;stroke:#ffffff;stroke-width:0.264583"
         id="rect10940"
         width="101.6573"
         height="78.927582"
         x="-16.520702"
         y="54.00457"
         ry="0" />
      <rect
         style="fill:#ffffff;stroke:#ffffff;stroke-width:0.264583"
         id="rect7220"
         width="110.27758"
         height="144.27353"
         x="-13.60776"
         y="-113.34591" />
      <path
         style="fill:none;stroke:#000000;stroke-width:0.264583"
         d="m 9.9667765,-7.42949 1.0146705,-0.13858 0.6751,0.07249 1.7529,0.7857 v 1.068 l -1.7529,0.7857 -0.6751,0.07249 -1.0146705,-0.13858 -0.46881,1.90204 0.9628705,0.34884 0.56411,0.37791 1.187,1.51033001 -0.4964,0.94567 -1.9172305,-0.11892 -0.63145,-0.24954 -0.83406,-0.59426 -1.29903,1.4663 0.69046,0.75635999 0.32383,0.59676 0.34916,1.8889 -0.87895,0.6067 -1.64239,-0.99625 -0.44315,-0.51441 -0.46236,-0.91379 -1.83166,0.69465 0.25988,0.99059 0.00941,0.67891 -0.56868,1.8348 -1.06022,0.1288 -0.99125999,-1.6455 -0.15333,-0.6614 0.01526,-1.02398 -1.94468001,-0.23613 -0.23024,0.99791 -0.30717,0.6055 -1.35623,1.3604 -0.9986,-0.3787 -0.11305,-1.91765 0.17161,-0.65692 0.48939,-0.89961 -1.61219,-1.11281999 -0.66762,0.77658999 -0.55337,0.39341 -1.8331,0.57429 -0.70821,-0.7994 0.79106,-1.75050999 0.45724,-0.50193 0.8514,-0.56913001 -0.91037,-1.73458 -0.95205,0.37739 -0.67285,0.09117 -1.8899995,-0.34336 -0.2556,-1.03697 1.514,-1.18237 0.6380995,-0.23194 1.01838,-0.10828 v -1.95896 l -1.01838,-0.10828 -0.6380995,-0.23194 -1.514,-1.18237 0.2556,-1.03697 1.8899995,-0.34336 0.67285,0.09117 0.95205,0.37739 0.91037,-1.73458 -0.8514,-0.56913 -0.45724,-0.50193 -0.79106,-1.75051 0.70821,-0.7994 1.8331,0.57429 0.55337,0.39341 0.66762,0.77659 1.61219,-1.11282 -0.48939,-0.89961 -0.17161,-0.65692 0.11305,-1.91765 0.9986,-0.3787 1.35623,1.3604 0.30717,0.6055 0.23024,0.99791 1.94468001,-0.23613 -0.01526,-1.02398 0.15333,-0.6614 0.99125999,-1.6455 1.06022,0.1288 0.56868,1.8348 -0.00941,0.67891 -0.25988,0.99059 1.83166,0.69465 0.46236,-0.91379 0.44315,-0.51441 1.64239,-0.99625 0.87895,0.6067 -0.34916,1.8889 -0.32383,0.59676 -0.69046,0.75636 1.29903,1.4663 0.83406,-0.59426 0.63145,-0.24954 1.9172305,-0.11892 0.4964,0.94567 -1.187,1.51033 -0.56411,0.37791 -0.9628705,0.34884 z"
         id="path4665" />
      <circle
         style="fill:none;stroke:#000000;stroke-width:0.264583"
         id="path4667"
         cx="0.78784651"
         cy="-6.17588"
         r="2.6458333" />
      <path
         style="fill:none;stroke:#000000;stroke-width:0.264583"
         d="m 47.494173,10.312476 1.014671,-0.13858 0.6751,0.07249 1.7529,0.7857 v 1.068 l -1.7529,0.7857 -0.6751,0.07249 -1.014671,-0.13858 -0.46881,1.90204 0.962871,0.34884 0.56411,0.37791 1.187,1.51033 -0.4964,0.94567 -1.917231,-0.11892 -0.63145,-0.24954 -0.83406,-0.59426 -1.29903,1.4663 0.69046,0.75636 0.32383,0.59676 0.34916,1.8889 -0.87895,0.6067 -1.64239,-0.99625 -0.44315,-0.51441 -0.46236,-0.91379 -1.83166,0.69465 0.25988,0.99059 0.0094,0.67891 -0.56868,1.8348 -1.06022,0.1288 -0.991259,-1.6455 -0.15333,-0.6614 0.01526,-1.02398 -1.944681,-0.23613 -0.23024,0.99791 -0.30717,0.6055 -1.35623,1.3604 -0.998599,-0.3787 -0.113051,-1.91765 0.171611,-0.65692 0.48939,-0.89961 -1.612191,-1.11282 -0.66762,0.77659 -0.55337,0.39341 -1.8331,0.57429 -0.70821,-0.7994 0.79106,-1.75051 0.45724,-0.50193 0.8514,-0.56913 -0.91037,-1.73458 -0.95205,0.37739 -0.67285,0.09117 -1.889999,-0.34336 -0.2556,-1.03697 1.514,-1.18237 0.638099,-0.23194 1.01838,-0.10828 v -1.95896 l -1.01838,-0.10828 -0.638099,-0.23194 -1.514,-1.1823701 0.2556,-1.03697 1.889999,-0.34336 0.67285,0.09117 0.95205,0.37739 0.91037,-1.73458 -0.8514,-0.56913 -0.45724,-0.50193 -0.79106,-1.75051 0.70821,-0.7994 1.8331,0.57429 0.55337,0.39341 0.66762,0.77659 1.612191,-1.11282 -0.48939,-0.89961 -0.171611,-0.65692 0.113051,-1.91765004 0.998599,-0.3787 1.35623,1.3604 0.30717,0.60550004 0.23024,0.99791 1.944681,-0.23613 -0.01526,-1.02398 0.15333,-0.66140004 0.991259,-1.64549996 1.06022,0.12879996 0.56868,1.8348 -0.0094,0.67891004 -0.25988,0.99059 1.83166,0.69465 0.46236,-0.91379 0.44315,-0.51441 1.64239,-0.99625004 0.87895,0.60670004 -0.34916,1.8889 -0.32383,0.59676 -0.69046,0.75636 1.29903,1.4663 0.83406,-0.59426 0.63145,-0.24954 1.917231,-0.11892 0.4964,0.94567 -1.187,1.51033 -0.56411,0.37791 -0.962871,0.34884 z"
         id="path4665-3" />
      <circle
         style="fill:none;stroke:#000000;stroke-width:0.264583"
         id="path4667-6"
         cx="38.315243"
         cy="11.566086"
         r="2.6458333" />
      <path
         style="fill:none;stroke:#000000;stroke-width:0.264583"
         d="m 82.577745,-0.56817222 1.014671,-0.13858 0.6751,0.07249 1.7529,0.7857 V 1.2194378 l -1.7529,0.7857 -0.6751,0.07249 -1.014671,-0.13858 -0.46881,1.90204 0.962871,0.34884 0.56411,0.37791 1.187,1.51033 -0.4964,0.94567 -1.917231,-0.11892 -0.63145,-0.24954 -0.83406,-0.59426 -1.29903,1.4663 0.69046,0.75636 0.32383,0.59676 0.34916,1.8889002 -0.87895,0.6067 -1.64239,-0.99625 -0.44315,-0.5144102 -0.46236,-0.91379 -1.83166,0.69465 0.25988,0.9905902 0.0094,0.67891 -0.56868,1.8348 -1.06022,0.1288 -0.991259,-1.6455 -0.15333,-0.6614 0.01526,-1.0239802 -1.944681,-0.23613 -0.23024,0.9979102 -0.30717,0.6055 -1.35623,1.3604 -0.9986,-0.3787 -0.11305,-1.91765 0.17161,-0.6569202 0.48939,-0.89961 -1.61219,-1.11282 -0.66762,0.77659 -0.55337,0.39341 -1.8331,0.57429 -0.70821,-0.7994 0.79106,-1.75051 0.45724,-0.50193 0.8514,-0.56913 -0.91037,-1.73458 -0.95205,0.37739 -0.67285,0.09117 -1.889999,-0.34336 -0.2556,-1.03697 1.514,-1.18237 0.638099,-0.23194 1.01838,-0.10828 v -1.95896002 l -1.01838,-0.10828 -0.638099,-0.23194 -1.514,-1.18236998 0.2556,-1.03697 1.889999,-0.34336 0.67285,0.09117 0.95205,0.37739 0.91037,-1.73458 -0.8514,-0.56913 -0.45724,-0.50193 -0.79106,-1.75051 0.70821,-0.7994 1.8331,0.57429 0.55337,0.39341 0.66762,0.77659 1.61219,-1.11282 -0.48939,-0.89961 -0.17161,-0.65692 0.11305,-1.9176498 0.9986,-0.3787 1.35623,1.3603998 0.30717,0.6055 0.23024,0.99791 1.944681,-0.23613 -0.01526,-1.02398 0.15333,-0.6613998 0.991259,-1.6455 1.06022,0.1288 0.56868,1.8347998 -0.0094,0.67891 -0.25988,0.99059 1.83166,0.69465 0.46236,-0.91379 0.44315,-0.51441 1.64239,-0.9962498 0.87895,0.6066998 -0.34916,1.8889 -0.32383,0.59676 -0.69046,0.75636 1.29903,1.4663 0.83406,-0.59426 0.63145,-0.24954 1.917231,-0.11892 0.4964,0.94567 -1.187,1.51033 -0.56411,0.37791 -0.962871,0.34884 z"
         id="path4665-7" />
      <circle
         style="fill:none;stroke:#000000;stroke-width:0.264583"
         id="path4667-5"
         cx="73.398819"
         cy="0.68543786"
         r="2.6458333" />
      <path
         style="fill:none;stroke:#000000;stroke-width:0.264583"
         d="m 90.690475,-84.593049 1.01467,-0.13858 0.6751,0.07249 1.7529,0.7857 v 1.068 l -1.7529,0.7857 -0.6751,0.07249 -1.01467,-0.13858 -0.46881,1.90204 0.96287,0.34884 0.56411,0.37791 1.187,1.51033 -0.4964,0.94567 -1.91723,-0.11892 -0.63145,-0.24954 -0.83406,-0.59426 -1.29903,1.4663 0.69046,0.75636 0.32383,0.59676 0.34916,1.8889 -0.87895,0.6067 -1.64239,-0.99625 -0.44315,-0.51441 -0.46236,-0.91379 -1.83166,0.69465 0.25988,0.99059 0.009,0.67891 -0.56868,1.8348 -1.060222,0.1288 -0.991259,-1.6455 -0.15333,-0.6614 0.01526,-1.02398 -1.944681,-0.23613 -0.23024,0.99791 -0.30717,0.6055 -1.356229,1.3604 -0.998601,-0.3787 -0.11305,-1.91765 0.17161,-0.65692 0.48939,-0.89961 -1.61219,-1.11282 -0.66762,0.77659 -0.55337,0.39341 -1.8331,0.57429 -0.70821,-0.7994 0.79106,-1.75051 0.45724,-0.50193 0.8514,-0.56913 -0.91037,-1.73458 -0.95205,0.37739 -0.67285,0.09117 -1.889999,-0.34336 -0.2556,-1.03697 1.514,-1.18237 0.6381,-0.23194 1.018379,-0.10828 v -1.95896 l -1.018379,-0.10828 -0.6381,-0.23194 -1.514,-1.18237 0.2556,-1.03697 1.889999,-0.34336 0.67285,0.09117 0.95205,0.37739 0.91037,-1.73458 -0.8514,-0.56913 -0.45724,-0.50193 -0.79106,-1.75051 0.70821,-0.7994 1.8331,0.57429 0.55337,0.39341 0.66762,0.77659 1.61219,-1.11282 -0.48939,-0.89961 -0.17161,-0.65692 0.11305,-1.91765 0.998601,-0.3787 1.356229,1.3604 0.30717,0.6055 0.23024,0.99791 1.944681,-0.23613 -0.01526,-1.02398 0.15333,-0.6614 0.991259,-1.6455 1.060222,0.1288 0.56868,1.8348 -0.009,0.67891 -0.25988,0.99059 1.83166,0.69465 0.46236,-0.91379 0.44315,-0.51441 1.64239,-0.99625 0.87895,0.6067 -0.34916,1.8889 -0.32383,0.59676 -0.69046,0.75636 1.29903,1.4663 0.83406,-0.59426 0.63145,-0.24954 1.91723,-0.11892 0.4964,0.94567 -1.187,1.51033 -0.56411,0.37791 -0.96287,0.34884 z"
         id="path4665-35" />
      <circle
         style="fill:none;stroke:#000000;stroke-width:0.264583"
         id="path4667-62"
         cx="81.511543"
         cy="-83.339439"
         r="2.6458333" />
      <path
         style="fill:none;stroke:#000000;stroke-width:0.264583"
         d="m 63.507681,-100.51173 1.01467,-0.13858 0.6751,0.0725 1.7529,0.785699 v 1.068 l -1.7529,0.7857 -0.6751,0.07249 -1.01467,-0.13858 -0.46881,1.90204 0.96287,0.34884 0.56411,0.37791 1.187,1.51033 -0.4964,0.94567 -1.91723,-0.11892 -0.63145,-0.24954 -0.83406,-0.59426 -1.29903,1.4663 0.69046,0.75636 0.32383,0.59676 0.34916,1.8889 -0.87895,0.6067 -1.64239,-0.99625 -0.44315,-0.51441 -0.46236,-0.91379 -1.83166,0.69465 0.25988,0.99059 0.009,0.67891 -0.56868,1.8348 -1.06022,0.1288 -0.99126,-1.6455 -0.15333,-0.6614 0.0153,-1.02398 -1.94468,-0.23613 -0.23024,0.99791 -0.30717,0.6055 -1.35623,1.3604 -0.9986,-0.3787 -0.11305,-1.91765 0.17161,-0.65692 0.48939,-0.89961 -1.61219,-1.11282 -0.66762,0.77659 -0.55337,0.39341 -1.8331,0.57429 -0.70821,-0.7994 0.79106,-1.75051 0.45724,-0.50193 0.8514,-0.56913 -0.91037,-1.73458 -0.95205,0.37739 -0.67285,0.09117 -1.89,-0.34336 -0.2556,-1.03697 1.514,-1.18237 0.6381,-0.23194 1.01838,-0.10828 v -1.958959 l -1.01838,-0.10828 -0.6381,-0.23194 -1.514,-1.18237 0.2556,-1.03697 1.89,-0.34336 0.67285,0.0912 0.95205,0.37739 0.91037,-1.73458 -0.8514,-0.56913 -0.45724,-0.50193 -0.79106,-1.75051 0.70821,-0.7994 1.8331,0.57429 0.55337,0.39341 0.66762,0.77659 1.61219,-1.11282 -0.48939,-0.89961 -0.17161,-0.65692 0.11305,-1.91765 0.9986,-0.3787 1.35623,1.3604 0.30717,0.6055 0.23024,0.99791 1.94468,-0.23613 -0.0153,-1.02398 0.15333,-0.6614 0.99126,-1.6455 1.06022,0.1288 0.56868,1.8348 -0.009,0.67891 -0.25988,0.99059 1.83166,0.69465 0.46236,-0.91379 0.44315,-0.51441 1.64239,-0.99625 0.87895,0.6067 -0.34916,1.8889 -0.32383,0.59676 -0.69046,0.75636 1.29903,1.4663 0.83406,-0.59426 0.63145,-0.24954 1.91723,-0.11892 0.4964,0.94567 -1.187,1.51033 -0.56411,0.37791 -0.96287,0.34884 z"
         id="path4665-9" />
      <circle
         style="fill:none;stroke:#000000;stroke-width:0.264583"
         id="path4667-1"
         cx="54.328751"
         cy="-99.258118"
         r="2.6458333" />
      <path
         style="fill:none;stroke:#000000;stroke-width:0.264583"
         d="m 22.248228,-94.754177 1.01467,-0.13858 0.6751,0.07249 1.7529,0.7857 v 1.068 l -1.7529,0.7857 -0.6751,0.07249 -1.01467,-0.13858 -0.46881,1.90204 0.96287,0.34884 0.56411,0.37791 1.187,1.51033 -0.4964,0.94567 -1.91723,-0.11892 -0.63145,-0.24954 -0.83406,-0.59426 -1.29903,1.4663 0.69046,0.75636 0.32383,0.59676 0.34916,1.8889 -0.87895,0.6067 -1.64239,-0.99625 -0.44315,-0.51441 -0.46236,-0.91379 -1.83166,0.69465 0.25988,0.99059 0.009,0.67891 -0.56868,1.8348 -1.06022,0.1288 -0.99126,-1.6455 -0.15333,-0.6614 0.0153,-1.02398 -1.94468,-0.23613 -0.23024,0.99791 -0.30717,0.6055 -1.35623,1.3604 -0.998604,-0.3787 -0.11305,-1.91765 0.17161,-0.65692 0.48939,-0.89961 -1.61219,-1.11282 -0.66762,0.77659 -0.55337,0.39341 -1.8331,0.57429 -0.708209,-0.7994 0.79106,-1.75051 0.45724,-0.50193 0.851399,-0.56913 -0.91037,-1.73458 -0.95205,0.37739 -0.672849,0.09117 -1.89000001,-0.34336 -0.2556,-1.03697 1.51400001,-1.18237 0.638099,-0.23194 1.01838,-0.10828 v -1.95896 l -1.01838,-0.10828 -0.638099,-0.23194 -1.51400001,-1.18237 0.2556,-1.03697 1.89000001,-0.34336 0.672849,0.09117 0.95205,0.37739 0.91037,-1.73458 -0.851399,-0.56913 -0.45724,-0.50193 -0.79106,-1.750513 0.708209,-0.7994 1.8331,0.57429 0.55337,0.39341 0.66762,0.77659 1.61219,-1.11282 -0.48939,-0.89961 -0.17161,-0.65692 0.11305,-1.91765 0.998604,-0.3787 1.35623,1.3604 0.30717,0.6055 0.23024,0.99791 1.94468,-0.23613 -0.0153,-1.02398 0.15333,-0.6614 0.99126,-1.6455 1.06022,0.1288 0.56868,1.8348 -0.009,0.67891 -0.25988,0.99059 1.83166,0.69465 0.46236,-0.91379 0.44315,-0.51441 1.64239,-0.99625 0.87895,0.6067 -0.34916,1.8889 -0.32383,0.59676 -0.69046,0.75636 1.29903,1.466303 0.83406,-0.59426 0.63145,-0.24954 1.91723,-0.11892 0.4964,0.94567 -1.187,1.51033 -0.56411,0.37791 -0.96287,0.34884 z"
         id="path4665-2" />
      <circle
         style="fill:none;stroke:#000000;stroke-width:0.264583"
         id="path4667-7"
         cx="13.069298"
         cy="-93.500565"
         r="2.6458333" />
      <text
         xml:space="preserve"
         transform="matrix(0.26458334,0,0,0.26458334,-32.121516,-1845.9773)"
         id="text7112"
         style="font-size:14.6667px;line-height:1.25;font-family:sans-serif;white-space:pre;shape-inside:url(#rect7114);display:inline"><tspan
           x="79.78125"
           y="7083.1192"
           id="tspan3569">multi-motor joint</tspan></text>
      <path
         style="fill:#d7e3f4;stroke:#000000;stroke-width:0.264583px;stroke-linecap:butt;stroke-linejoin:miter;stroke-opacity:1"
         d="M -8.595523,81.603544 24.680184,117.38849 79.676054,88.935383 45.054035,57.462673 Z"
         id="path9817" />
      <path
         style="fill:#ffffff;stroke:#000000;stroke-width:0.264583px;stroke-linecap:butt;stroke-linejoin:miter;stroke-opacity:1"
         d="m 4.8615933,84.885307 4.5362255,4.742218 c 0,0 -1.4663123,2.257243 -1.0967986,3.383949 0.3892564,1.186906 1.7965958,2.093492 3.0421108,2.188139 1.412996,0.107373 3.011176,-0.746317 3.786652,-1.932371 0.65774,-1.005982 0.213301,-3.599462 0.213301,-3.599462 l 12.634081,-6.138429 c 0,0 2.364552,1.01083 3.620419,1.049068 1.485848,0.04524 3.524156,0.257089 4.350987,-0.978286 0.73463,-1.097613 0.216455,-2.92637 -0.670308,-3.905201 -0.774355,-0.854764 -2.18266,-0.925211 -3.336003,-0.918321 -0.858823,0.0051 -2.475766,0.713447 -2.475766,0.713447 L 25.864521,75.68321 c 0,0 0.575047,-0.524872 0.571291,-0.872477 -0.01393,-1.289244 -0.991234,-2.710512 -2.18831,-3.189419 -1.069162,-0.427733 -2.513441,-0.04393 -3.379948,0.714504 -0.616652,0.539744 -0.804549,1.497521 -0.822536,2.316825 -0.0098,0.446659 0.392557,1.281524 0.392557,1.281524 L 6.8045972,82.40837 c 0,0 -0.834699,-1.254295 -1.5021094,-1.457601 -0.9148478,-0.278682 -2.0647272,-0.07172 -2.8232266,0.510766 -0.7854345,0.60317 -1.4392539,1.71302 -1.2654463,2.687962 0.1415004,0.793722 0.92669,1.571203 1.7229715,1.697501 0.7083718,0.112359 1.9248069,-0.961691 1.9248069,-0.961691 z"
         id="path9873" />
      <path
         style="fill:#ffffff;stroke:#000000;stroke-width:0.264583px;stroke-linecap:butt;stroke-linejoin:miter;stroke-opacity:1"
         d="m 44.478836,102.74012 c 1.758363,-0.62399 18.510211,-8.767388 18.510211,-8.767388 0,0 1.660108,-1.093175 2.138341,-1.924314 0.447724,-0.778116 0.704721,-1.751565 0.551493,-2.636123 -0.17506,-1.010585 -1.60637,-2.624297 -1.60637,-2.624297 l -5.688532,-5.517039 c 0,0 -1.383447,-1.461848 -2.272204,-1.883859 -0.824847,-0.391664 -1.777999,-0.607546 -2.687741,-0.529167 -1.324051,0.114073 -3.722402,1.427877 -3.722402,1.427877 l -16.158523,8.666321 c 0,0 -1.167342,1.194944 -1.399995,1.964717 -0.337298,1.116012 -0.35101,2.425927 0.11225,3.495807 0.2768,0.639259 1.477386,1.478095 1.477386,1.478095 l 4.641323,5.19282 c 0,0 1.473809,1.27723 2.378878,1.56034 1.185717,0.37091 3.725885,0.0962 3.725885,0.0962 z"
         id="path9971" />
      <path
         style="fill:#ffffff;stroke:#000000;stroke-width:0.264583px;stroke-linecap:butt;stroke-linejoin:miter;stroke-opacity:1"
         d="m 36.276169,69.324276 4.941805,5.972286 7.765518,-4.1665 -5.091705,-5.454968 z"
         id="path9973" />
      <text
         xml:space="preserve"
         transform="matrix(0.26458334,0,0,0.26458334,-72.020654,-1914.8002)"
         id="text9975"
         style="font-size:14.6667px;line-height:1.25;font-family:sans-serif;white-space:pre;shape-inside:url(#rect9977);display:inline"><tspan
           x="252.94727"
           y="7458.7227"
           id="tspan3571">pointed corner
</tspan><tspan
           x="252.94727"
           y="7477.0562"
           id="tspan3573">a.k.a. unchanged</tspan></text>
      <text
         xml:space="preserve"
         transform="matrix(0.26458334,0,0,0.26458334,-52.841819,-1866.1196)"
         id="text9981"
         style="font-size:14.6667px;line-height:1.25;font-family:sans-serif;white-space:pre;shape-inside:url(#rect9983);display:inline"><tspan
           x="144.6543"
           y="7481.1563"
           id="tspan3575">widened corner
</tspan><tspan
           x="144.6543"
           y="7499.4898"
           id="tspan3577">a.k.a. enlarged</tspan></text>
      <text
         xml:space="preserve"
         transform="matrix(0.26458334,0,0,0.26458334,-39.092155,-1862.6371)"
         id="text9987"
         style="font-size:14.6667px;line-height:1.25;font-family:sans-serif;white-space:pre;shape-inside:url(#rect9989);display:inline"><tspan
           x="342.78125"
           y="7462.4766"
           id="tspan3579">rounded corner
</tspan><tspan
           x="342.78125"
           y="7480.8101"
           id="tspan3581">a.k.a. smoothed</tspan></text>
      <path
         style="fill:none;stroke:#000000;stroke-width:0.264583px;stroke-linecap:butt;stroke-linejoin:miter;stroke-opacity:1;marker-end:url(#Arrow1L)"
         d="M 1.4177971,109.47935 9.4601067,95.664849"
         id="path9993" />
      <path
         style="fill:none;stroke:#000000;stroke-width:0.264583px;stroke-linecap:butt;stroke-linejoin:miter;stroke-opacity:1;marker-end:url(#Arrow1L)"
         d="M 60.099813,108.68523 64.123406,94.751507"
         id="path10928" />
      <path
         style="fill:none;stroke:#000000;stroke-width:0.264583px;stroke-linecap:butt;stroke-linejoin:miter;stroke-opacity:1;marker-end:url(#Arrow1L)"
         d="m 28.40889,60.106488 6.488229,7.343008"
         id="path10934" />
      <text
         xml:space="preserve"
         transform="matrix(0.26458334,0,0,0.26458334,-30.089789,-1858.373)"
         id="text10994"
         style="font-size:14.6667px;line-height:1.25;font-family:sans-serif;white-space:pre;shape-inside:url(#rect10996);display:inline"><tspan
           x="62.220703"
           y="7515.0664"
           id="tspan3583">corner options</tspan></text>
      <text
         xml:space="preserve"
         transform="matrix(0.26458334,0,0,0.26458334,-88.481765,-1859.0813)"
         id="text1813"
         style="font-size:14.6667px;line-height:1.25;font-family:sans-serif;white-space:pre;shape-inside:url(#rect1815);display:inline"><tspan
           x="332.87109"
           y="7760.8184"
           id="tspan3585">difficulty</tspan></text>
      <text
         xml:space="preserve"
         transform="matrix(0.26458334,0,0,0.26458334,-38.628511,-1897.7074)"
         id="text1945"
         style="font-size:14.6667px;line-height:1.25;font-family:sans-serif;white-space:pre;shape-inside:url(#rect1947);display:inline"><tspan
           x="137.47656"
           y="7756.3496"
           id="tspan3587">simplicity</tspan></text>
      <path
         style="fill:none;stroke:#000000;stroke-width:0.264583px;stroke-linecap:butt;stroke-linejoin:miter;stroke-opacity:1;marker-start:url(#Arrow1L);marker-end:url(#Arrow1Mend)"
         d="M 20.033283,198.70813 H 88.639372"
         id="path2185" />
      <path
         style="fill:none;stroke:#000000;stroke-width:0.264583px;stroke-linecap:butt;stroke-linejoin:miter;stroke-opacity:1;marker-start:url(#Arrow1L-3);marker-end:url(#Arrow1Mend-75)"
         d="M 17.532377,195.65708 V 150.95417"
         id="path2185-6" />
      <text
         xml:space="preserve"
         transform="matrix(0.26458334,0,0,0.26458334,-6.2110682,-1813.1987)"
         id="text2802"
         style="font-size:14.6667px;line-height:1.25;font-family:sans-serif;text-align:center;white-space:pre;shape-inside:url(#rect2804);display:inline"
         x="25.978251"
         y="0"><tspan
           x="325.39644"
           y="7619.1641"
           id="tspan3589">large
</tspan><tspan
           x="316.97455"
           y="7637.4976"
           id="tspan3591">custom
</tspan><tspan
           x="319.65294"
           y="7655.8311"
           id="tspan3593">design</tspan></text>
      <text
         xml:space="preserve"
         transform="matrix(0.26458334,0,0,0.26458334,-62.319682,-1822.1704)"
         id="text2950"
         style="font-size:14.6667px;line-height:1.25;font-family:sans-serif;text-align:center;white-space:pre;shape-inside:url(#rect2952);display:inline"
         x="23.418022"
         y="0"><tspan
           x="313.12722"
           y="7657.8438"
           id="tspan3595">simple
</tspan><tspan
           x="313.00548"
           y="7676.1773"
           id="tspan3597">design</tspan></text>
      <text
         xml:space="preserve"
         transform="matrix(0.26458334,0,0,0.26458334,-20.825272,-1804.3838)"
         id="text3094"
         style="font-size:14.6667px;line-height:1.25;font-family:sans-serif;text-align:center;white-space:pre;shape-inside:url(#rect3096);display:inline"
         x="25.978251"
         y="0"><tspan
           x="256.66009"
           y="7588.2188"
           id="tspan3599">custom
</tspan><tspan
           x="259.33849"
           y="7606.5523"
           id="tspan3601">design</tspan></text>
      <path
         style="fill:none;stroke:#008000;stroke-width:0.529167;stroke-linecap:butt;stroke-linejoin:miter;stroke-opacity:1"
         d="m 20.385373,154.04478 12.903252,1.79686 14.723666,31.77003 40.81254,5.6821"
         id="path7930" />
      <path
         style="fill:none;stroke:#d40000;stroke-width:0.529167;stroke-linecap:butt;stroke-linejoin:miter;stroke-opacity:1"
         d="m 19.904998,160.16825 52.231431,7.76412 4.181166,26.21786 12.746379,2.24083"
         id="path8028" />
      <text
         xml:space="preserve"
         transform="matrix(0.26458334,0,0,0.26458334,-24.1161,-1895.6381)"
         id="text8030"
         style="font-size:14.6667px;line-height:1.25;font-family:sans-serif;white-space:pre;shape-inside:url(#rect8032);display:inline;fill:#008000"><tspan
           x="168.5957"
           y="7841.3985"
           id="tspan3603">Parametrix</tspan></text>
      <text
         xml:space="preserve"
         transform="matrix(0.26458334,0,0,0.26458334,31.678073,-1903.4252)"
         id="text8174"
         style="font-size:14.6667px;line-height:1.25;font-family:sans-serif;white-space:pre;shape-inside:url(#rect8176);display:inline;fill:#d40000"><tspan
           x="105.5918"
           y="7816.7051"
           id="tspan3605">FreeCAD</tspan></text>
      <text
         xml:space="preserve"
         transform="matrix(0.26458334,0,0,0.26458334,-19.872884,-1853.4409)"
         id="text8424"
         style="font-size:14.6667px;line-height:1.25;font-family:sans-serif;white-space:pre;shape-inside:url(#rect8426);display:inline"><tspan
           x="59.345703"
           y="7847.7696"
           id="tspan3607">GUI-CAD versus programmatic-CAD</tspan></text>
    </g>
  </g>
</svg>
