<?xml version="1.0" encoding="UTF-8" standalone="no"?>
<!-- Created with Inkscape (http://www.inkscape.org/) -->

<svg
   sodipodi:docname="parametrix_concept.svg"
   inkscape:version="1.2.2 (1:1.2.2+202305151914+b0a8486541)"
   id="svg5"
   version="1.1"
   viewBox="0 0 110.54215 144.53809"
   height="546.28564"
   width="417.79712"
   xmlns:inkscape="http://www.inkscape.org/namespaces/inkscape"
   xmlns:sodipodi="http://sodipodi.sourceforge.net/DTD/sodipodi-0.dtd"
   xmlns="http://www.w3.org/2000/svg"
   xmlns:svg="http://www.w3.org/2000/svg">
  <sodipodi:namedview
     id="namedview7"
     pagecolor="#ffffff"
     bordercolor="#666666"
     borderopacity="1.0"
     inkscape:pageshadow="2"
     inkscape:pageopacity="0.0"
     inkscape:pagecheckerboard="0"
     inkscape:document-units="px"
     showgrid="false"
     units="px"
     inkscape:zoom="0.74118968"
     inkscape:cx="731.25681"
     inkscape:cy="6750.6337"
     inkscape:window-width="1366"
     inkscape:window-height="836"
     inkscape:window-x="0"
     inkscape:window-y="0"
     inkscape:window-maximized="1"
     inkscape:current-layer="layer1"
     inkscape:snap-midpoints="true"
     inkscape:snap-global="true"
     height="4000px"
     inkscape:object-paths="true"
     inkscape:showpageshadow="2"
     inkscape:deskcolor="#d1d1d1" />
  <defs
     id="defs2">
    <rect
       x="79.780945"
       y="7070.1421"
       width="334.81857"
       height="49.1661"
       id="rect7114" />
  </defs>
  <g
     inkscape:label="Layer 1"
     inkscape:groupmode="layer"
     id="layer1"
     transform="translate(-20.498131,-1731.9699)">
    <g
       inkscape:label="Rendered Gears"
       transform="translate(34.238184,1845.4481)"
       id="g4669">
      <rect
         style="fill:#ffffff;stroke:#ffffff;stroke-width:0.264583"
         id="rect7220"
         width="110.27758"
         height="144.27353"
         x="-13.60776"
         y="-113.34591" />
      <path
         style="fill:none;stroke:#000000;stroke-width:0.264583"
         d="m 9.9667765,-7.42949 1.0146705,-0.13858 0.6751,0.07249 1.7529,0.7857 v 1.068 l -1.7529,0.7857 -0.6751,0.07249 -1.0146705,-0.13858 -0.46881,1.90204 0.9628705,0.34884 0.56411,0.37791 1.187,1.51033001 -0.4964,0.94567 -1.9172305,-0.11892 -0.63145,-0.24954 -0.83406,-0.59426 -1.29903,1.4663 0.69046,0.75635999 0.32383,0.59676 0.34916,1.8889 -0.87895,0.6067 -1.64239,-0.99625 -0.44315,-0.51441 -0.46236,-0.91379 -1.83166,0.69465 0.25988,0.99059 0.00941,0.67891 -0.56868,1.8348 -1.06022,0.1288 -0.99125999,-1.6455 -0.15333,-0.6614 0.01526,-1.02398 -1.94468001,-0.23613 -0.23024,0.99791 -0.30717,0.6055 -1.35623,1.3604 -0.9986,-0.3787 -0.11305,-1.91765 0.17161,-0.65692 0.48939,-0.89961 -1.61219,-1.11281999 -0.66762,0.77658999 -0.55337,0.39341 -1.8331,0.57429 -0.70821,-0.7994 0.79106,-1.75050999 0.45724,-0.50193 0.8514,-0.56913001 -0.91037,-1.73458 -0.95205,0.37739 -0.67285,0.09117 -1.8899995,-0.34336 -0.2556,-1.03697 1.514,-1.18237 0.6380995,-0.23194 1.01838,-0.10828 v -1.95896 l -1.01838,-0.10828 -0.6380995,-0.23194 -1.514,-1.18237 0.2556,-1.03697 1.8899995,-0.34336 0.67285,0.09117 0.95205,0.37739 0.91037,-1.73458 -0.8514,-0.56913 -0.45724,-0.50193 -0.79106,-1.75051 0.70821,-0.7994 1.8331,0.57429 0.55337,0.39341 0.66762,0.77659 1.61219,-1.11282 -0.48939,-0.89961 -0.17161,-0.65692 0.11305,-1.91765 0.9986,-0.3787 1.35623,1.3604 0.30717,0.6055 0.23024,0.99791 1.94468001,-0.23613 -0.01526,-1.02398 0.15333,-0.6614 0.99125999,-1.6455 1.06022,0.1288 0.56868,1.8348 -0.00941,0.67891 -0.25988,0.99059 1.83166,0.69465 0.46236,-0.91379 0.44315,-0.51441 1.64239,-0.99625 0.87895,0.6067 -0.34916,1.8889 -0.32383,0.59676 -0.69046,0.75636 1.29903,1.4663 0.83406,-0.59426 0.63145,-0.24954 1.9172305,-0.11892 0.4964,0.94567 -1.187,1.51033 -0.56411,0.37791 -0.9628705,0.34884 z"
         id="path4665" />
      <circle
         style="fill:none;stroke:#000000;stroke-width:0.264583"
         id="path4667"
         cx="0.78784651"
         cy="-6.17588"
         r="2.6458333" />
      <path
         style="fill:none;stroke:#000000;stroke-width:0.264583"
         d="m 47.494173,10.312476 1.014671,-0.13858 0.6751,0.07249 1.7529,0.7857 v 1.068 l -1.7529,0.7857 -0.6751,0.07249 -1.014671,-0.13858 -0.46881,1.90204 0.962871,0.34884 0.56411,0.37791 1.187,1.51033 -0.4964,0.94567 -1.917231,-0.11892 -0.63145,-0.24954 -0.83406,-0.59426 -1.29903,1.4663 0.69046,0.75636 0.32383,0.59676 0.34916,1.8889 -0.87895,0.6067 -1.64239,-0.99625 -0.44315,-0.51441 -0.46236,-0.91379 -1.83166,0.69465 0.25988,0.99059 0.0094,0.67891 -0.56868,1.8348 -1.06022,0.1288 -0.991259,-1.6455 -0.15333,-0.6614 0.01526,-1.02398 -1.944681,-0.23613 -0.23024,0.99791 -0.30717,0.6055 -1.35623,1.3604 -0.998599,-0.3787 -0.113051,-1.91765 0.171611,-0.65692 0.48939,-0.89961 -1.612191,-1.11282 -0.66762,0.77659 -0.55337,0.39341 -1.8331,0.57429 -0.70821,-0.7994 0.79106,-1.75051 0.45724,-0.50193 0.8514,-0.56913 -0.91037,-1.73458 -0.95205,0.37739 -0.67285,0.09117 -1.889999,-0.34336 -0.2556,-1.03697 1.514,-1.18237 0.638099,-0.23194 1.01838,-0.10828 v -1.95896 l -1.01838,-0.10828 -0.638099,-0.23194 -1.514,-1.1823701 0.2556,-1.03697 1.889999,-0.34336 0.67285,0.09117 0.95205,0.37739 0.91037,-1.73458 -0.8514,-0.56913 -0.45724,-0.50193 -0.79106,-1.75051 0.70821,-0.7994 1.8331,0.57429 0.55337,0.39341 0.66762,0.77659 1.612191,-1.11282 -0.48939,-0.89961 -0.171611,-0.65692 0.113051,-1.91765004 0.998599,-0.3787 1.35623,1.3604 0.30717,0.60550004 0.23024,0.99791 1.944681,-0.23613 -0.01526,-1.02398 0.15333,-0.66140004 0.991259,-1.64549996 1.06022,0.12879996 0.56868,1.8348 -0.0094,0.67891004 -0.25988,0.99059 1.83166,0.69465 0.46236,-0.91379 0.44315,-0.51441 1.64239,-0.99625004 0.87895,0.60670004 -0.34916,1.8889 -0.32383,0.59676 -0.69046,0.75636 1.29903,1.4663 0.83406,-0.59426 0.63145,-0.24954 1.917231,-0.11892 0.4964,0.94567 -1.187,1.51033 -0.56411,0.37791 -0.962871,0.34884 z"
         id="path4665-3" />
      <circle
         style="fill:none;stroke:#000000;stroke-width:0.264583"
         id="path4667-6"
         cx="38.315243"
         cy="11.566086"
         r="2.6458333" />
      <path
         style="fill:none;stroke:#000000;stroke-width:0.264583"
         d="m 82.577745,-0.56817222 1.014671,-0.13858 0.6751,0.07249 1.7529,0.7857 V 1.2194378 l -1.7529,0.7857 -0.6751,0.07249 -1.014671,-0.13858 -0.46881,1.90204 0.962871,0.34884 0.56411,0.37791 1.187,1.51033 -0.4964,0.94567 -1.917231,-0.11892 -0.63145,-0.24954 -0.83406,-0.59426 -1.29903,1.4663 0.69046,0.75636 0.32383,0.59676 0.34916,1.8889002 -0.87895,0.6067 -1.64239,-0.99625 -0.44315,-0.5144102 -0.46236,-0.91379 -1.83166,0.69465 0.25988,0.9905902 0.0094,0.67891 -0.56868,1.8348 -1.06022,0.1288 -0.991259,-1.6455 -0.15333,-0.6614 0.01526,-1.0239802 -1.944681,-0.23613 -0.23024,0.9979102 -0.30717,0.6055 -1.35623,1.3604 -0.9986,-0.3787 -0.11305,-1.91765 0.17161,-0.6569202 0.48939,-0.89961 -1.61219,-1.11282 -0.66762,0.77659 -0.55337,0.39341 -1.8331,0.57429 -0.70821,-0.7994 0.79106,-1.75051 0.45724,-0.50193 0.8514,-0.56913 -0.91037,-1.73458 -0.95205,0.37739 -0.67285,0.09117 -1.889999,-0.34336 -0.2556,-1.03697 1.514,-1.18237 0.638099,-0.23194 1.01838,-0.10828 v -1.95896002 l -1.01838,-0.10828 -0.638099,-0.23194 -1.514,-1.18236998 0.2556,-1.03697 1.889999,-0.34336 0.67285,0.09117 0.95205,0.37739 0.91037,-1.73458 -0.8514,-0.56913 -0.45724,-0.50193 -0.79106,-1.75051 0.70821,-0.7994 1.8331,0.57429 0.55337,0.39341 0.66762,0.77659 1.61219,-1.11282 -0.48939,-0.89961 -0.17161,-0.65692 0.11305,-1.9176498 0.9986,-0.3787 1.35623,1.3603998 0.30717,0.6055 0.23024,0.99791 1.944681,-0.23613 -0.01526,-1.02398 0.15333,-0.6613998 0.991259,-1.6455 1.06022,0.1288 0.56868,1.8347998 -0.0094,0.67891 -0.25988,0.99059 1.83166,0.69465 0.46236,-0.91379 0.44315,-0.51441 1.64239,-0.9962498 0.87895,0.6066998 -0.34916,1.8889 -0.32383,0.59676 -0.69046,0.75636 1.29903,1.4663 0.83406,-0.59426 0.63145,-0.24954 1.917231,-0.11892 0.4964,0.94567 -1.187,1.51033 -0.56411,0.37791 -0.962871,0.34884 z"
         id="path4665-7" />
      <circle
         style="fill:none;stroke:#000000;stroke-width:0.264583"
         id="path4667-5"
         cx="73.398819"
         cy="0.68543786"
         r="2.6458333" />
      <path
         style="fill:none;stroke:#000000;stroke-width:0.264583"
         d="m 90.690475,-84.593049 1.01467,-0.13858 0.6751,0.07249 1.7529,0.7857 v 1.068 l -1.7529,0.7857 -0.6751,0.07249 -1.01467,-0.13858 -0.46881,1.90204 0.96287,0.34884 0.56411,0.37791 1.187,1.51033 -0.4964,0.94567 -1.91723,-0.11892 -0.63145,-0.24954 -0.83406,-0.59426 -1.29903,1.4663 0.69046,0.75636 0.32383,0.59676 0.34916,1.8889 -0.87895,0.6067 -1.64239,-0.99625 -0.44315,-0.51441 -0.46236,-0.91379 -1.83166,0.69465 0.25988,0.99059 0.009,0.67891 -0.56868,1.8348 -1.060222,0.1288 -0.991259,-1.6455 -0.15333,-0.6614 0.01526,-1.02398 -1.944681,-0.23613 -0.23024,0.99791 -0.30717,0.6055 -1.356229,1.3604 -0.998601,-0.3787 -0.11305,-1.91765 0.17161,-0.65692 0.48939,-0.89961 -1.61219,-1.11282 -0.66762,0.77659 -0.55337,0.39341 -1.8331,0.57429 -0.70821,-0.7994 0.79106,-1.75051 0.45724,-0.50193 0.8514,-0.56913 -0.91037,-1.73458 -0.95205,0.37739 -0.67285,0.09117 -1.889999,-0.34336 -0.2556,-1.03697 1.514,-1.18237 0.6381,-0.23194 1.018379,-0.10828 v -1.95896 l -1.018379,-0.10828 -0.6381,-0.23194 -1.514,-1.18237 0.2556,-1.03697 1.889999,-0.34336 0.67285,0.09117 0.95205,0.37739 0.91037,-1.73458 -0.8514,-0.56913 -0.45724,-0.50193 -0.79106,-1.75051 0.70821,-0.7994 1.8331,0.57429 0.55337,0.39341 0.66762,0.77659 1.61219,-1.11282 -0.48939,-0.89961 -0.17161,-0.65692 0.11305,-1.91765 0.998601,-0.3787 1.356229,1.3604 0.30717,0.6055 0.23024,0.99791 1.944681,-0.23613 -0.01526,-1.02398 0.15333,-0.6614 0.991259,-1.6455 1.060222,0.1288 0.56868,1.8348 -0.009,0.67891 -0.25988,0.99059 1.83166,0.69465 0.46236,-0.91379 0.44315,-0.51441 1.64239,-0.99625 0.87895,0.6067 -0.34916,1.8889 -0.32383,0.59676 -0.69046,0.75636 1.29903,1.4663 0.83406,-0.59426 0.63145,-0.24954 1.91723,-0.11892 0.4964,0.94567 -1.187,1.51033 -0.56411,0.37791 -0.96287,0.34884 z"
         id="path4665-35" />
      <circle
         style="fill:none;stroke:#000000;stroke-width:0.264583"
         id="path4667-62"
         cx="81.511543"
         cy="-83.339439"
         r="2.6458333" />
      <path
         style="fill:none;stroke:#000000;stroke-width:0.264583"
         d="m 63.507681,-100.51173 1.01467,-0.13858 0.6751,0.0725 1.7529,0.785699 v 1.068 l -1.7529,0.7857 -0.6751,0.07249 -1.01467,-0.13858 -0.46881,1.90204 0.96287,0.34884 0.56411,0.37791 1.187,1.51033 -0.4964,0.94567 -1.91723,-0.11892 -0.63145,-0.24954 -0.83406,-0.59426 -1.29903,1.4663 0.69046,0.75636 0.32383,0.59676 0.34916,1.8889 -0.87895,0.6067 -1.64239,-0.99625 -0.44315,-0.51441 -0.46236,-0.91379 -1.83166,0.69465 0.25988,0.99059 0.009,0.67891 -0.56868,1.8348 -1.06022,0.1288 -0.99126,-1.6455 -0.15333,-0.6614 0.0153,-1.02398 -1.94468,-0.23613 -0.23024,0.99791 -0.30717,0.6055 -1.35623,1.3604 -0.9986,-0.3787 -0.11305,-1.91765 0.17161,-0.65692 0.48939,-0.89961 -1.61219,-1.11282 -0.66762,0.77659 -0.55337,0.39341 -1.8331,0.57429 -0.70821,-0.7994 0.79106,-1.75051 0.45724,-0.50193 0.8514,-0.56913 -0.91037,-1.73458 -0.95205,0.37739 -0.67285,0.09117 -1.89,-0.34336 -0.2556,-1.03697 1.514,-1.18237 0.6381,-0.23194 1.01838,-0.10828 v -1.958959 l -1.01838,-0.10828 -0.6381,-0.23194 -1.514,-1.18237 0.2556,-1.03697 1.89,-0.34336 0.67285,0.0912 0.95205,0.37739 0.91037,-1.73458 -0.8514,-0.56913 -0.45724,-0.50193 -0.79106,-1.75051 0.70821,-0.7994 1.8331,0.57429 0.55337,0.39341 0.66762,0.77659 1.61219,-1.11282 -0.48939,-0.89961 -0.17161,-0.65692 0.11305,-1.91765 0.9986,-0.3787 1.35623,1.3604 0.30717,0.6055 0.23024,0.99791 1.94468,-0.23613 -0.0153,-1.02398 0.15333,-0.6614 0.99126,-1.6455 1.06022,0.1288 0.56868,1.8348 -0.009,0.67891 -0.25988,0.99059 1.83166,0.69465 0.46236,-0.91379 0.44315,-0.51441 1.64239,-0.99625 0.87895,0.6067 -0.34916,1.8889 -0.32383,0.59676 -0.69046,0.75636 1.29903,1.4663 0.83406,-0.59426 0.63145,-0.24954 1.91723,-0.11892 0.4964,0.94567 -1.187,1.51033 -0.56411,0.37791 -0.96287,0.34884 z"
         id="path4665-9" />
      <circle
         style="fill:none;stroke:#000000;stroke-width:0.264583"
         id="path4667-1"
         cx="54.328751"
         cy="-99.258118"
         r="2.6458333" />
      <path
         style="fill:none;stroke:#000000;stroke-width:0.264583"
         d="m 22.248228,-94.754177 1.01467,-0.13858 0.6751,0.07249 1.7529,0.7857 v 1.068 l -1.7529,0.7857 -0.6751,0.07249 -1.01467,-0.13858 -0.46881,1.90204 0.96287,0.34884 0.56411,0.37791 1.187,1.51033 -0.4964,0.94567 -1.91723,-0.11892 -0.63145,-0.24954 -0.83406,-0.59426 -1.29903,1.4663 0.69046,0.75636 0.32383,0.59676 0.34916,1.8889 -0.87895,0.6067 -1.64239,-0.99625 -0.44315,-0.51441 -0.46236,-0.91379 -1.83166,0.69465 0.25988,0.99059 0.009,0.67891 -0.56868,1.8348 -1.06022,0.1288 -0.99126,-1.6455 -0.15333,-0.6614 0.0153,-1.02398 -1.94468,-0.23613 -0.23024,0.99791 -0.30717,0.6055 -1.35623,1.3604 -0.998604,-0.3787 -0.11305,-1.91765 0.17161,-0.65692 0.48939,-0.89961 -1.61219,-1.11282 -0.66762,0.77659 -0.55337,0.39341 -1.8331,0.57429 -0.708209,-0.7994 0.79106,-1.75051 0.45724,-0.50193 0.851399,-0.56913 -0.91037,-1.73458 -0.95205,0.37739 -0.672849,0.09117 -1.89000001,-0.34336 -0.2556,-1.03697 1.51400001,-1.18237 0.638099,-0.23194 1.01838,-0.10828 v -1.95896 l -1.01838,-0.10828 -0.638099,-0.23194 -1.51400001,-1.18237 0.2556,-1.03697 1.89000001,-0.34336 0.672849,0.09117 0.95205,0.37739 0.91037,-1.73458 -0.851399,-0.56913 -0.45724,-0.50193 -0.79106,-1.750513 0.708209,-0.7994 1.8331,0.57429 0.55337,0.39341 0.66762,0.77659 1.61219,-1.11282 -0.48939,-0.89961 -0.17161,-0.65692 0.11305,-1.91765 0.998604,-0.3787 1.35623,1.3604 0.30717,0.6055 0.23024,0.99791 1.94468,-0.23613 -0.0153,-1.02398 0.15333,-0.6614 0.99126,-1.6455 1.06022,0.1288 0.56868,1.8348 -0.009,0.67891 -0.25988,0.99059 1.83166,0.69465 0.46236,-0.91379 0.44315,-0.51441 1.64239,-0.99625 0.87895,0.6067 -0.34916,1.8889 -0.32383,0.59676 -0.69046,0.75636 1.29903,1.466303 0.83406,-0.59426 0.63145,-0.24954 1.91723,-0.11892 0.4964,0.94567 -1.187,1.51033 -0.56411,0.37791 -0.96287,0.34884 z"
         id="path4665-2" />
      <circle
         style="fill:none;stroke:#000000;stroke-width:0.264583"
         id="path4667-7"
         cx="13.069298"
         cy="-93.500565"
         r="2.6458333" />
      <text
         xml:space="preserve"
         transform="matrix(0.26458334,0,0,0.26458334,-32.121516,-1845.9773)"
         id="text7112"
         style="font-size:14.6667px;line-height:1.25;font-family:sans-serif;white-space:pre;shape-inside:url(#rect7114)"><tspan
           x="79.78125"
           y="7083.1192"
           id="tspan8632">multi-motor joint</tspan></text>
    </g>
    <g
       inkscape:label="Rendered Gears"
       transform="translate(75.365167,1800.6189)"
       id="g6707">
      <path
         style="fill:none;stroke:#000000;stroke-width:0.264583"
         d="m 42.9157,-1.76352 1.701,0.4408 1.6994,0.66678 v 1.31188 l -1.6994,0.66678 -1.701,0.4408 -0.0926,1.56112 1.6369,0.63888 1.6086,0.8631 -0.1552,1.30266 -1.7663,0.46112 -1.7412,0.23652 -0.2766,1.5392 1.5499,0.82801 1.4952,1.04727 -0.3082,1.2752 -1.8084,0.249 -1.757,0.0289 -0.4567,1.4957 1.4411,1.0055 1.3608,1.2167 -0.4568,1.2298 -1.8252,0.0334 -1.748,-0.1791 -0.6304,1.4311 1.312,1.1689 1.2073,1.3692 -0.599,1.1671 -1.8163,-0.1827 -1.7146,-0.3846 -0.7953,1.3466 1.1646,1.3158 1.0369,1.5024 -0.7328,1.0881 -1.782,-0.3963 -1.657,-0.5847 -0.949,1.2431 1.0008,1.4443 0.852,1.6145 -0.8565,0.9937 -1.7225,-0.6042 -1.5763,-0.7766 -1.0893,1.1221 0.8229,1.5526 0.655,1.7039 -0.9679,0.8855 -1.639,-0.8038 -1.4734,-0.9575 -1.2144,0.9854 0.6335,1.639 0.449,1.7694 -1.0659,0.7648 -1.5325,-0.992 -1.3498,-1.125 -1.3223,0.8348 0.4352,1.7024 0.2365,1.8101 -1.1489,0.6334 -1.4044,-1.1663 -1.2072,-1.2768 -1.4119,0.6726 0.2309,1.7419 0.0207,1.8254 -1.2157,0.493 -1.2566,-1.3241 -1.0477,-1.4107 -1.4815,0.5009 0.0231,1.757 -0.1952,1.815 L 11.5756,44.851 10.4845,43.3875 9.61088,41.8629 8.08055,42.185 7.89573,43.9324 7.48716,45.7116 6.18966,45.9053 5.27928,44.323 4.59217,42.7058 3.03448,42.8446 2.64428,44.5579 2.02815,46.2763 0.71685,46.3152 0,44.6363 l -0.49101,-1.6872 -1.56318,-0.0463 -0.59009,1.6551 -0.81505,1.6335 -1.30669,-0.1165 -0.51326,-1.7519 -0.28801,-1.7334 -1.54673,-0.2309 -0.78171,1.5737 -1.00252,1.5256 -1.28375,-0.2702 -0.3025,-1.8003 -0.0809,-1.7553 -1.5086,-0.4122 -0.9623,1.4702 -1.176,1.3963 -1.2427,-0.4201 -0.0874,-1.8234 0.1272,-1.7526 -1.4493,-0.5877 -1.1295,1.346 -1.3328,1.2475 -1.1843,-0.5642 0.1289,-1.821 0.3335,-1.7252 -1.3695,-0.755 -1.2808,1.203 -1.471,1.081 -1.1093,-0.7003 0.3434,-1.7929 0.5353,-1.6737 -1.2707,-0.9116 -1.414,1.0431 -1.5886,0.8994 -1.0187,-0.8266 0.553,-1.7397 0.7295,-1.5986 -1.1539,-1.0556 -1.5275,0.8686 -1.6837,0.7052 -0.9138,-0.9412 0.7548,-1.6621 0.9135,-1.5012 -1.0209,-1.1846 -1.6196,0.6818 -1.7553,0.5012 -0.7961,-1.0428 0.9462,-1.5611 1.0845,-1.3826 -0.8736,-1.2971 -1.6888,0.4855 -1.8023,0.2901 -0.6671,-1.1296 1.1241,-1.4383 1.2405,-1.2446 -0.7141,-1.3913 -1.7344,0.2823 -1.8239,0.0749 -0.5289,-1.2006 1.2864,-1.2952 1.3789,-1.0891 -0.5445,-1.466 -1.7556,0.0752 -1.82,-0.1414 -0.3831,-1.2547 1.4305,-1.134 1.4981,-0.9184 -0.3673,-1.52012 -1.7522,-0.13295 -1.7905,-0.35567 -0.232,-1.29119 1.5546,-0.95687 1.5962,-0.73474 -0.185,-1.55288 -1.7241,-0.33926 -1.7359,-0.56494 -0.0777,-1.30957 1.6569,-0.76629 1.6719,-0.54079 v -1.56386 l -1.6719,-0.54079 -1.6569,-0.76629 0.0777,-1.30957 1.7359,-0.56494 1.7241,-0.33926 0.185,-1.55288 -1.5962,-0.73474 -1.5546,-0.95687 0.232,-1.29119 1.7905,-0.35567 1.7522,-0.13295 0.3673,-1.52012 -1.4981,-0.9184 -1.4305,-1.134 0.3831,-1.2547 1.82,-0.1414 1.7556,0.0752 0.5445,-1.466 -1.3789,-1.0891 -1.2864,-1.2952 0.5289,-1.2006 1.8239,0.0749 1.7344,0.2823 0.7141,-1.3913 -1.2405,-1.2446 -1.1241,-1.4383 0.6671,-1.1296 1.8023,0.2901 1.6888,0.4855 0.8736,-1.2971 -1.0845,-1.3826 -0.9462,-1.5611 0.7961,-1.0428 1.7553,0.5012 1.6196,0.6818 1.0209,-1.1846 -0.9135,-1.5012 -0.7548,-1.6621 0.9138,-0.9412 1.6837,0.7052 1.5275,0.8686 1.1539,-1.0556 -0.7295,-1.5986 -0.553,-1.7397 1.0187,-0.8266 1.5886,0.8994 1.414,1.0431 1.2707,-0.9116 -0.5353,-1.6737 -0.3434,-1.7929 1.1093,-0.7003 1.471,1.081 1.2808,1.203 1.3695,-0.755 -0.3335,-1.7252 -0.1289,-1.821 1.1843,-0.5642 1.3328,1.2475 1.1295,1.346 1.4493,-0.5877 -0.1272,-1.7526 0.0874,-1.8234 1.2427,-0.4201 1.176,1.3963 0.9623,1.4702 1.5086,-0.4122 0.0809,-1.7553 0.3025,-1.8003 1.28375,-0.2702 1.00252,1.5256 0.78171,1.5737 1.54673,-0.2309 0.28801,-1.7334 0.51326,-1.7519 1.30669,-0.1165 0.81505,1.6335 0.59009,1.6551 1.56318,-0.0463 L 0,-44.6363 l 0.71685,-1.6789 1.3113,0.0389 0.61613,1.7184 0.3902,1.7133 1.55769,0.1388 0.68711,-1.6172 0.91038,-1.5823 1.2975,0.1937 0.40857,1.7792 0.18482,1.7474 1.53033,0.3221 0.87362,-1.5246 1.0911,-1.4635 1.2655,0.3458 0.1952,1.815 -0.0231,1.757 1.4815,0.5009 1.0477,-1.4107 1.2566,-1.3241 1.2157,0.493 -0.0207,1.8254 -0.2309,1.7419 1.4119,0.6726 1.2072,-1.2768 1.4044,-1.1663 1.1489,0.6334 -0.2365,1.8101 -0.4352,1.7024 1.3223,0.8348 1.3498,-1.125 1.5325,-0.992 1.0659,0.7648 -0.449,1.7694 -0.6335,1.639 1.2144,0.9854 1.4734,-0.9575 1.639,-0.8038 0.9679,0.8855 -0.655,1.7039 -0.8229,1.5526 1.0893,1.1221 1.5763,-0.7766 1.7225,-0.6042 0.8565,0.9937 -0.852,1.6145 -1.0008,1.4443 0.949,1.2431 1.657,-0.5847 1.782,-0.3963 0.7328,1.0881 -1.0369,1.5024 -1.1646,1.3158 0.7953,1.3466 1.7146,-0.3846 1.8163,-0.1827 0.599,1.1671 -1.2073,1.3692 -1.312,1.1689 0.6304,1.4311 1.748,-0.1791 1.8252,0.0334 0.4568,1.2298 -1.3608,1.2167 -1.4411,1.0055 0.4567,1.4957 1.757,0.0289 1.8084,0.249 0.3082,1.2752 -1.4952,1.04727 -1.5499,0.82801 0.2766,1.5392 1.7412,0.23652 1.7663,0.46112 0.1552,1.30266 -1.6086,0.8631 -1.6369,0.63888 z"
         id="path6703" />
      <circle
         style="fill:none;stroke:#000000;stroke-width:0.264583"
         id="path6705"
         cx="0"
         cy="0"
         r="2.6458333" />
    </g>
  </g>
</svg>
