<?xml version="1.0" encoding="UTF-8" standalone="no"?>
<!-- Created with Inkscape (http://www.inkscape.org/) -->

<svg
   width="282.86218"
   height="259.75735"
   viewBox="0 0 74.840619 68.727467"
   version="1.1"
   id="svg1"
   xmlns="http://www.w3.org/2000/svg"
   xmlns:svg="http://www.w3.org/2000/svg">
  <defs
     id="defs1">
    <rect
       x="34.821182"
       y="184.92783"
       width="21.197544"
       height="16.721579"
       id="rect7-5-9" />
    <marker
       style="overflow:visible"
       id="ArrowWide-4-1"
       refX="0"
       refY="0"
       orient="auto-start-reverse"
       markerWidth="1"
       markerHeight="1"
       viewBox="0 0 1 1"
       preserveAspectRatio="xMidYMid">
      <path
         style="fill:none;stroke:context-stroke;stroke-width:1;stroke-linecap:butt"
         d="M 3,-3 0,0 3,3"
         transform="rotate(180,0.125,0)"
         id="path9-7-7" />
    </marker>
    <rect
       x="43.178055"
       y="323.39957"
       width="61.327248"
       height="43.54866"
       id="rect9-4-7" />
    <rect
       x="169.58818"
       y="317.11496"
       width="57.417625"
       height="52.965153"
       id="rect10-4-1" />
    <rect
       x="277.71777"
       y="89.509102"
       width="30.042446"
       height="32.63718"
       id="rect11-3-1" />
    <marker
       style="overflow:visible"
       id="marker14-68-5"
       refX="0"
       refY="0"
       orient="auto-start-reverse"
       markerWidth="1"
       markerHeight="1"
       viewBox="0 0 1 1"
       preserveAspectRatio="xMidYMid">
      <path
         style="fill:context-stroke;fill-rule:evenodd;stroke:none"
         d="M 0,0 5,-5 -12.5,0 5,5 Z"
         transform="scale(-0.5)"
         id="path14-8-9" />
    </marker>
    <rect
       x="258.77585"
       y="100.62254"
       width="40.168552"
       height="37.640255"
       id="rect14-3-7" />
    <rect
       x="57.388657"
       y="296.48438"
       width="210.29527"
       height="17.790354"
       id="rect15-1-6" />
    <marker
       style="overflow:visible"
       id="marker14-7"
       refX="0"
       refY="0"
       orient="auto-start-reverse"
       markerWidth="1"
       markerHeight="1"
       viewBox="0 0 1 1"
       preserveAspectRatio="xMidYMid">
      <path
         style="fill:context-stroke;fill-rule:evenodd;stroke:none"
         d="M 0,0 5,-5 -12.5,0 5,5 Z"
         transform="scale(-0.5)"
         id="path14-3" />
    </marker>
    <rect
       x="283.29333"
       y="906.08276"
       width="19.630304"
       height="17.137857"
       id="rect18-5" />
    <marker
       style="overflow:visible"
       id="marker14-4"
       refX="0"
       refY="0"
       orient="auto-start-reverse"
       markerWidth="1"
       markerHeight="1"
       viewBox="0 0 1 1"
       preserveAspectRatio="xMidYMid">
      <path
         style="fill:context-stroke;fill-rule:evenodd;stroke:none"
         d="M 0,0 5,-5 -12.5,0 5,5 Z"
         transform="scale(-0.5)"
         id="path14-7" />
    </marker>
    <rect
       x="283.29333"
       y="906.08276"
       width="19.630304"
       height="17.137857"
       id="rect18-3" />
  </defs>
  <g
     id="layer1"
     transform="translate(-19.436258,-276.9068)">
    <rect
       style="fill:#ffffff;stroke:#ffffff;stroke-width:0.264583;stroke-dasharray:none;stroke-dashoffset:0"
       id="rect16-9-3"
       width="74.576042"
       height="68.462891"
       x="19.56855"
       y="277.03909" />
    <circle
       style="fill:#999999;stroke:#999999;stroke-width:0.264583"
       id="path1-5-20-9"
       cx="54.342468"
       cy="303.0744"
       r="20.778858" />
    <circle
       style="fill:#ffffff;stroke:#999999;stroke-width:0.264583"
       id="circle1-6-4"
       cx="54.342468"
       cy="303.0744"
       r="16.277267" />
    <text
       xml:space="preserve"
       transform="matrix(0.26458333,0,0,0.26458333,15.800669,258.94099)"
       id="text7-8-8"
       style="font-size:14.6667px;line-height:1.25;font-family:sans-serif;white-space:pre;shape-inside:url(#rect7-5-9);display:inline"><tspan
         x="34.820312"
         y="197.90433"
         id="tspan1">i</tspan></text>
    <path
       style="fill:none;stroke:#000000;stroke-width:0.264583px;stroke-linecap:butt;stroke-linejoin:miter;stroke-opacity:1;marker-end:url(#ArrowWide-4-1)"
       d="M 31.350488,331.70666 23.327929,316.47174"
       id="path8-6-2" />
    <text
       xml:space="preserve"
       transform="matrix(0.26458333,0,0,0.26458333,12.790977,236.53593)"
       id="text9-6-9"
       style="font-size:14.6667px;line-height:1.25;font-family:sans-serif;white-space:pre;shape-inside:url(#rect9-4-7);display:inline"><tspan
         x="43.177734"
         y="336.37698"
         id="tspan2">u</tspan></text>
    <text
       xml:space="preserve"
       transform="matrix(0.26458333,0,0,0.26458333,0.35515188,223.692)"
       id="text10-9-9"
       style="font-size:14.6667px;line-height:1.25;font-family:sans-serif;white-space:pre;shape-inside:url(#rect10-4-1);display:inline"><tspan
         x="169.58789"
         y="330.09183"
         id="tspan3">N</tspan></text>
    <text
       xml:space="preserve"
       transform="matrix(0.26458333,0,0,0.26458333,-20.583977,263.5874)"
       id="text11-4-8"
       style="font-size:14.6667px;line-height:1.25;font-family:sans-serif;white-space:pre;shape-inside:url(#rect11-3-1);display:inline"><tspan
         x="277.71875"
         y="102.48636"
         id="tspan4">S</tspan></text>
    <path
       style="fill:none;stroke:#000000;stroke-width:0.264583px;stroke-linecap:butt;stroke-linejoin:miter;stroke-opacity:1;marker-start:url(#marker14-68-5);marker-end:url(#marker14-68-5)"
       d="m 67.552362,284.04759 c 0,0 2.5892,1.82421 3.67996,2.95903 1.17043,1.21771 2.14903,2.62206 3.01641,4.07133 0.82529,1.37895 1.53239,2.84118 2.05774,4.35993 0.37665,1.08889 0.77144,3.36938 0.77144,3.36938"
       id="path13-0-0" />
    <text
       xml:space="preserve"
       transform="matrix(0.26458333,0,0,0.26458333,6.1123559,260.65799)"
       id="text14-6-9"
       style="font-size:14.6667px;line-height:1.25;font-family:sans-serif;white-space:pre;shape-inside:url(#rect14-3-7);display:inline"><tspan
         x="258.77539"
         y="113.59964"
         id="tspan5">L</tspan></text>
    <text
       xml:space="preserve"
       transform="matrix(0.26458333,0,0,0.26458333,6.2560559,261.27396)"
       id="text15-5-6"
       style="font-size:14.6667px;line-height:1.25;font-family:sans-serif;white-space:pre;shape-inside:url(#rect15-1-6);display:inline"><tspan
         x="57.388672"
         y="309.46097"
         id="tspan6">torus with shuttle</tspan></text>
    <rect
       style="fill:#ffffff;stroke:#ffffff;stroke-width:0.264583;stroke-dasharray:none;stroke-dashoffset:0"
       id="rect17-8"
       width="13.455534"
       height="4.7412062"
       x="66.374222"
       y="300.77637" />
    <ellipse
       style="fill:none;stroke:#000000;stroke-width:0.264583;stroke-dasharray:0.999997, 0.999997;stroke-dashoffset:0"
       id="path1-5-2-7-5"
       cx="54.432861"
       cy="302.95441"
       rx="18.497696"
       ry="18.497688" />
    <path
       style="fill:none;stroke:#aa4400;stroke-width:0.529167;stroke-linecap:butt;stroke-linejoin:miter;stroke-opacity:1"
       d="m 22.45569,316.01639 15.970317,-9.25365 c 0,0 0.689619,-0.65075 1.121781,-0.64999 0.755725,10e-4 1.570925,0.49425 1.957663,1.14352 0.275365,0.4623 0.299265,1.13545 0.05213,1.61343 -0.313717,0.60676 -1.709416,1.13007 -1.709416,1.13007"
       id="path2-27-6" />
    <path
       style="fill:none;stroke:#aa4400;stroke-width:0.529167;stroke-linecap:butt;stroke-linejoin:miter;stroke-opacity:1"
       d="m 35.423228,311.95812 c 0,0 -1.135244,1.61607 -0.923244,2.46866 0.116109,0.46695 0.604769,0.88237 1.079995,0.95777 0.479318,0.0761 0.920314,-0.32899 1.334802,-0.58143 1.954203,-1.19021 3.102737,-3.78199 5.323327,-4.33379 0.497411,-0.12361 1.272605,-0.15553 1.508125,0.29969 0.192848,0.37274 -0.312507,0.78109 -0.513066,1.14974 -0.331618,0.60955 -1.135237,1.74498 -1.135237,1.74498"
       id="path3-2-1" />
    <path
       style="fill:none;stroke:#aa4400;stroke-width:0.529167;stroke-linecap:butt;stroke-linejoin:miter;stroke-opacity:1"
       d="m 38.368355,316.46558 c 0,0 -0.715166,1.75812 -0.354244,2.52908 0.202676,0.43293 0.744176,0.81928 1.218101,0.75682 2.518474,-0.33191 3.300589,-3.88623 5.210079,-5.56156 0.57197,-0.50183 1.124823,-1.54549 1.854774,-1.33066 0.520141,0.15309 0.662594,0.97471 0.597313,1.51296 -0.105772,0.87211 -1.525735,2.14895 -1.525735,2.14895"
       id="path4-2-1" />
    <path
       style="fill:none;stroke:#aa4400;stroke-width:0.529167;stroke-linecap:butt;stroke-linejoin:miter;stroke-opacity:1"
       d="m 42.154553,320.14302 c 0,0 -0.496523,1.31552 -0.264475,1.91761 0.164988,0.42809 0.598918,0.83002 1.054444,0.88457 0.836684,0.10021 1.659978,-0.53555 2.265643,-1.12142 1.929891,-1.86684 1.284728,-6.1871 3.811058,-7.09662 0.32435,-0.11677 0.791915,0.0879 0.957771,0.39015 0.393184,0.71643 -0.147032,1.64881 -0.439182,2.41204 -0.115513,0.30177 -0.507542,0.82587 -0.507542,0.82587"
       id="path5-6-5" />
    <path
       style="fill:none;stroke:#aa4400;stroke-width:0.529167;stroke-linecap:butt;stroke-linejoin:miter;stroke-opacity:1"
       d="m 47.024889,322.42799 c 0,0 -0.226228,1.75082 -0.76373,2.3927 -0.240635,0.28737 -0.99449,0.52474 -0.99449,0.52474 l -14.142015,7.46198"
       id="path6-1-9" />
    <path
       style="fill:none;stroke:#000000;stroke-width:0.264583px;stroke-linecap:butt;stroke-linejoin:miter;stroke-opacity:1"
       d="m 26.363077,312.04029 2.296026,0.42123 -0.782721,2.45588"
       id="path7-4-8" />
    <text
       xml:space="preserve"
       transform="matrix(0.26458333,0,0,0.26458333,-5.8383347,60.677451)"
       id="text17-8"
       style="font-size:14.6667px;line-height:1.25;font-family:sans-serif;white-space:pre;shape-inside:url(#rect18-5);display:inline"><tspan
         x="283.29297"
         y="919.05862"
         id="tspan7">x</tspan></text>
    <rect
       style="fill:#999999;stroke:#ffffff;stroke-width:0.264583;stroke-dasharray:none;stroke-dashoffset:0"
       id="rect17-8-4"
       width="13.455534"
       height="4.7412062"
       x="73.631157"
       y="300.77637" />
    <rect
       style="fill:#4d4d4d;stroke:#1a1a1a;stroke-width:0.283549;stroke-dasharray:none;stroke-dashoffset:0"
       id="rect19"
       width="4.0483699"
       height="4.315587"
       x="60.462536"
       y="313.08884"
       transform="matrix(0.87069673,-0.49182029,0,1,0,0)" />
    <path
       style="fill:none;stroke:#000000;stroke-width:0.264582px;stroke-linecap:butt;stroke-linejoin:miter;stroke-opacity:1;marker-end:url(#marker14-7)"
       d="m 70.157724,304.26633 h 2.08636"
       id="path17-4" />
    <path
       style="fill:none;stroke:#000000;stroke-width:0.264582px;stroke-linecap:butt;stroke-linejoin:miter;stroke-opacity:1;marker-start:url(#marker14-4);marker-end:url(#marker14-4)"
       d="m 88.36077,302.13973 v 2.08636"
       id="path17-7" />
    <text
       xml:space="preserve"
       transform="matrix(0.26458333,0,0,0.26458333,14.26164,61.499305)"
       id="text17-5"
       style="font-size:14.6667px;line-height:1.25;font-family:sans-serif;white-space:pre;shape-inside:url(#rect18-3);display:inline"><tspan
         x="283.29297"
         y="919.05862"
         id="tspan8">G</tspan></text>
  </g>
</svg>
