<svg xmlns="http://www.w3.org/2000/svg" width="496.426" height="326.297" viewBox="0 0 131.346 86.333"><defs><path id="k" d="M80.723 2905.281h219.938v34.938H80.723z"/><path id="j" d="M241.295 2889.108h56.849v29.965h-56.849z"/><path id="i" d="M255.324 2886.442h39.505v27.951h-39.505z"/><path id="h" d="M322.164 2788.567h29.402v23.467h-29.402z"/><path id="g" d="M205.205 2764.676h37.56v21.08h-37.56z"/><path id="f" d="M209.524 2796.525h28.047v21.197h-28.047z"/><path id="e" d="M223.658 2762.186h28.34v20.409h-28.34z"/><path id="d" d="M215.289 2988.865h129.622v45.223H215.289z"/><path id="c" d="M112.515 2834.658h67.115v20.776h-67.115z"/><path id="b" d="M203.82 2850.783h159.762v25.013H203.82z"/><path id="a" d="M203.82 2818.769h152.988v25.35H203.82z"/></defs><g transform="translate(-13.03 -688.993)"><path d="M13.163 689.125h131.081v86.068H13.163z" style="fill:#fff;stroke:#fff;stroke-width:.264583"/><path d="m46.318 735.691 60.486-.04" style="fill:none;stroke:#ccc;stroke-width:.264583px;stroke-linecap:butt;stroke-linejoin:miter;stroke-opacity:1"/><g style="stroke-width:.512691" transform="matrix(1.9489 0 0 1.95208 46.116 735.707)"><path d="m12.56-1.353.816-.088.88.12 1.736.753V.568l-1.736.753-.88.12-.816-.088-.36 1.923.794.213.777.43 1.346 1.329-.41 1.058-1.89.076-.864-.206-.73-.377-1.03 1.663.663.485.57.681.774 1.726-.764.839-1.79-.612-.731-.505-.544-.614L6.81 10.64l.442.692.285.84.1 1.89-1.017.506-1.448-1.217-.5-.735-.285-.77-1.88.536.162.805-.038.886-.59 1.798-1.13.105L0 14.317l-.2-.865.012-.82-1.948-.181-.139.81-.356.813-1.2 1.462-1.091-.31-.25-1.876.125-.878.308-.761-1.75-.872-.422.704-.626.63-1.647.93-.906-.683.444-1.84.435-.774.562-.598-1.318-1.446-.647.505-.812.361-1.872.273-.597-.965 1.079-1.554.685-.565.74-.355-.707-1.824-.786.236-.887.044-1.844-.422-.209-1.115 1.568-1.06.842-.28.819-.063V-.978l-.819-.064-.842-.279-1.568-1.06.209-1.115 1.844-.422.887.044.786.236.707-1.824-.74-.355-.685-.565-1.08-1.554.598-.965 1.873.273.81.361.648.505 1.318-1.446-.562-.598-.435-.775-.444-1.838.906-.685 1.647.931.626.63.421.704 1.751-.872-.308-.76-.125-.88.25-1.875 1.092-.31 1.2 1.462.355.814.139.809 1.948-.18-.013-.821.201-.865.91-1.659 1.13.105.59 1.798.039.887-.163.804 1.881.535.286-.77.499-.733 1.448-1.218 1.016.506-.099 1.89-.285.84-.442.692 1.56 1.178.545-.614.73-.505 1.79-.612.765.839-.774 1.726-.57.681-.662.485 1.03 1.663.729-.377.863-.206 1.89.076.41 1.058-1.345 1.33-.777.43-.793.212z" style="fill:none;stroke:#000;stroke-width:.135649"/><circle r="2.646" style="fill:none;stroke:#000;stroke-width:.135649"/></g><g style="stroke-width:.512691" transform="matrix(1.9489 0 0 1.95208 106.804 735.651)"><path d="m14.25-1.395.715-.07.982.144 1.73.741V.58l-1.73.741-.982.144-.716-.07-.319 1.912.7.167.882.454 1.395 1.263-.376 1.097-1.877.14-.975-.183-.655-.299-.923 1.705.608.385.687.716.91 1.648-.713.915-1.82-.477-.863-.49-.522-.495-1.427 1.313.45.561.417.9.326 1.854-.971.634-1.567-1.042-.657-.743-.333-.638-1.776.779.244.677.102.987-.295 1.858-1.124.285-1.143-1.494-.38-.917-.108-.711-1.933.16.011.719-.224.967-.882 1.662-1.156-.096-.596-1.785-.062-.99.13-.708-1.88-.476-.224.684-.526.842-1.374 1.286-1.062-.466.016-1.882.263-.957.352-.627-1.624-1.06-.433.573-.77.626-1.718.77-.853-.786.626-1.774.56-.82.536-.48-1.19-1.53-.597.403-.932.341-1.874.171-.552-1.02 1.168-1.475.795-.594.663-.279-.63-1.834-.694.187-.992.02-1.828-.447-.19-1.143 1.583-1.017.945-.303.718-.048V-.97l-.718-.048-.945-.303-1.584-1.017.19-1.143 1.829-.447.992.02.695.187.63-1.834-.664-.28-.795-.593-1.168-1.475.552-1.02 1.874.17.932.342.596.402 1.191-1.53-.536-.48-.56-.819-.626-1.774.853-.786 1.718.77.77.626.433.574L-7-12.488l-.352-.628-.263-.957-.016-1.882 1.062-.466 1.374 1.286.526.842.224.684 1.88-.476-.13-.708.062-.99.596-1.785 1.156-.096L0-16.002l.224.967-.01.72 1.932.16.108-.712.38-.916 1.143-1.495 1.124.285.295 1.858-.102.987-.244.677 1.776.78.333-.639.657-.743 1.567-1.042.97.634-.325 1.853-.416.9-.45.562 1.426 1.313.522-.495.863-.49 1.82-.477.712.915-.909 1.648-.687.716-.608.385.923 1.705.655-.299.975-.183 1.877.14.376 1.097-1.395 1.263-.882.454-.7.167z" style="fill:none;stroke:#000;stroke-width:.135649"/><circle r="2.646" style="fill:none;stroke:#000;stroke-width:.135649"/></g><ellipse cx="46.318" cy="735.691" rx="21.988" ry="22.023" style="fill:none;stroke:teal;stroke-width:.264583"/><ellipse cx="106.895" cy="735.493" rx="25.288" ry="25.329" style="fill:none;stroke:teal;stroke-width:.264583"/><path d="m63.335 721.76 24.145 29.875" style="fill:none;stroke:#fc0;stroke-width:.264583;stroke-linecap:butt;stroke-linejoin:miter;stroke-opacity:1"/><path d="m46.116 735.707 17.389-14.123M87.329 751.597l19.62-15.943" style="fill:none;stroke:teal;stroke-width:.264583px;stroke-linecap:butt;stroke-linejoin:miter;stroke-opacity:1"/><ellipse cx="46.318" cy="735.691" rx="31.309" ry="31.36" style="fill:none;stroke:#ffe6d5;stroke-width:.264583"/><ellipse cx="106.895" cy="735.493" rx="34.609" ry="34.665" style="fill:none;stroke:#ffd5d5;stroke-width:.264583"/><path d="m72.4 732.905 5.14 6.464" style="fill:none;stroke:red;stroke-width:.264583px;stroke-linecap:butt;stroke-linejoin:miter;stroke-opacity:1"/><text xml:space="preserve" style="font-size:14.6667px;line-height:1.25;font-family:sans-serif;white-space:pre;shape-inside:url(#a)" transform="matrix(.26458 0 0 .26458 -12.206 -49.383)"><tspan x="203.82" y="2831.746">action line full</tspan></text><text xml:space="preserve" style="font-size:14.6667px;line-height:1.25;font-family:sans-serif;white-space:pre;shape-inside:url(#b)" transform="matrix(.26458 0 0 .26458 7.836 -63.274)"><tspan x="203.82" y="2863.76">action line restricted</tspan></text><text xml:space="preserve" style="font-size:14.6667px;line-height:1.25;font-family:sans-serif;white-space:pre;shape-inside:url(#c)" transform="matrix(.26458 0 0 .26458 19.498 -27.345)"><tspan x="112.516" y="2847.635">brr1</tspan></text><text xml:space="preserve" style="font-size:14.6667px;line-height:1.25;font-family:sans-serif;white-space:pre;shape-inside:url(#d)" transform="matrix(.26458 0 0 .26458 41.02 -45.951)"><tspan x="215.289" y="3001.842">brr2</tspan></text><path d="m64.511 700.51 2.128 24.957M42.216 700.676h26.493" style="fill:none;stroke:#fc0;stroke-width:.264583px;stroke-linecap:butt;stroke-linejoin:miter;stroke-opacity:1"/><path d="M62.116 695.287h39.563M85.799 695.18 73.98 734.494" style="fill:none;stroke:red;stroke-width:.264583px;stroke-linecap:butt;stroke-linejoin:miter;stroke-opacity:1"/><path d="m75.075 737.662-28.96-1.955 22 2.653" style="fill:none;stroke:#37c837;stroke-width:.264583px;stroke-linecap:butt;stroke-linejoin:miter;stroke-opacity:1"/><text xml:space="preserve" style="font-size:14.6667px;line-height:1.25;font-family:sans-serif;white-space:pre;shape-inside:url(#e);fill:#d42aff" transform="matrix(.26458 0 0 .26458 5.55 2.444)"><tspan x="223.658" y="2775.162">1</tspan></text><text xml:space="preserve" style="font-size:14.6667px;line-height:1.25;font-family:sans-serif;white-space:pre;shape-inside:url(#f);fill:#d42aff" transform="matrix(.26458 0 0 .26458 7.696 -2.114)"><tspan x="209.523" y="2809.502">2</tspan></text><path d="m46.293 735.697 17.745-13.005" style="fill:none;stroke:#37c837;stroke-width:.264583px;stroke-linecap:butt;stroke-linejoin:miter;stroke-opacity:1"/><text xml:space="preserve" style="font-size:14.6667px;line-height:1.25;font-family:sans-serif;white-space:pre;shape-inside:url(#g);fill:#d42aff" transform="matrix(.26458 0 0 .26458 4.068 -4.71)"><tspan x="205.205" y="2777.652">3</tspan></text><path d="M63.487 722.299h1.136v1.047h-1.136zM67.266 726.904h1.136v1.047h-1.136zM71.245 731.72h1.136v1.047h-1.136zM75.17 736.801h1.136v1.047H75.17zM78.847 741.21h1.136v1.047h-1.136zM82.472 745.712h1.136v1.047h-1.136zM86.14 749.989h1.136v1.047H86.14z" style="fill:none;stroke:#60f;stroke-width:.264583"/><path d="m86.641 750.653 20.164-14.955" style="fill:none;stroke:#37c837;stroke-width:.264583px;stroke-linecap:butt;stroke-linejoin:miter;stroke-opacity:1"/><path d="m83.376 758.638 23.437-22.923" style="fill:#37c837;stroke:#37c837;stroke-width:.264583px;stroke-linecap:butt;stroke-linejoin:miter;stroke-opacity:1"/><text xml:space="preserve" style="font-size:14.6667px;line-height:1.25;font-family:sans-serif;white-space:pre;shape-inside:url(#h);fill:#d42aff" transform="matrix(.26458 0 0 .26458 .429 7.775)"><tspan x="322.164" y="2801.543">5</tspan></text><text xml:space="preserve" style="font-size:14.6667px;line-height:1.25;font-family:sans-serif;white-space:pre;shape-inside:url(#i);fill:#d42aff" transform="matrix(.26458 0 0 .26458 23.935 -13.666)"><tspan x="255.324" y="2899.418">6</tspan></text><text xml:space="preserve" style="font-size:14.6667px;line-height:1.25;font-family:sans-serif;white-space:pre;shape-inside:url(#j);fill:#d42aff" transform="matrix(.26458 0 0 .26458 -.36 -46.475)"><tspan x="241.295" y="2902.086">4</tspan></text><text xml:space="preserve" style="font-size:14.6667px;line-height:1.25;font-family:sans-serif;white-space:pre;shape-inside:url(#k)" transform="matrix(.26458 0 0 .26458 -3.486 1.135)"><tspan x="80.723" y="2918.258">calculation of initAngle2</tspan></text></g></svg>