<svg xmlns="http://www.w3.org/2000/svg" width="200" height="200" viewBox="0 0 52.917 52.917"><defs><path id="a" d="M102.459 286.969h176.774v48.735H102.459z"/></defs><path d="M24.532 16.347h52.652v52.652H24.532z" style="fill:#fff;stroke:#fff;stroke-width:.264583;stroke-dasharray:none;stroke-dashoffset:0" transform="translate(-24.4 -16.215)"/><path d="M29.498 46.76h5.694M32.345 49.606v-5.691M50.703 65.927l8.595-6.773 3.601-9.584 1.079-11.258-1.585-10.894-4.981-8.88" style="fill:none;stroke:#000;stroke-width:.264583px;stroke-linecap:butt;stroke-linejoin:miter;stroke-opacity:1" transform="translate(-24.4 -16.215)"/><path d="m32.345 46.76 18.358 19.167M59.298 59.154 32.345 46.76M62.899 49.57l-30.554-2.81M63.978 38.312 32.345 46.76M62.393 27.418 32.345 46.76M57.412 18.538 32.345 46.76" style="fill:none;stroke:#000;stroke-width:.264583px;stroke-linecap:butt;stroke-linejoin:miter;stroke-dasharray:1,1;stroke-dashoffset:0;stroke-opacity:1" transform="translate(-24.4 -16.215)"/><path d="M41.524 56.344c3.592-.79 2.909-2.538 3.762-3.758" style="fill:none;stroke:#f60;stroke-width:.529167;stroke-linecap:butt;stroke-linejoin:miter;stroke-opacity:1" transform="translate(-24.4 -16.215)"/><text xml:space="preserve" style="font-size:14.6667px;line-height:1.25;font-family:sans-serif;white-space:pre;shape-inside:url(#a);display:inline;fill:#f60" transform="matrix(.26458 0 0 .26458 -22.517 -34.848)"><tspan x="102.459" y="299.945">angle</tspan></text></svg>