<svg xmlns="http://www.w3.org/2000/svg" width="200" height="200" viewBox="0 0 52.917 52.917"><defs><path id="a" d="M102.459 286.969h176.774v48.735H102.459z"/></defs><path d="M50.493 107.548h5.693M53.34 110.394v-5.692M71.697 126.715l8.595-6.774 3.601-9.583L84.972 99.1l-1.585-10.894-4.981-8.879" style="fill:none;stroke:#000;stroke-width:.264583px;stroke-linecap:butt;stroke-linejoin:miter;stroke-opacity:1" transform="translate(-34.811 -78.06)"/><path d="m53.34 107.548 18.357 19.167M80.292 119.941 53.34 107.548M83.893 110.358l-30.554-2.81M84.972 99.1l-31.633 8.448M83.387 88.205 53.34 107.548M78.406 79.326l-25.067 28.222" style="fill:none;stroke:#000;stroke-width:.264583px;stroke-linecap:butt;stroke-linejoin:miter;stroke-dasharray:1,1;stroke-dashoffset:0;stroke-opacity:1" transform="translate(-34.811 -78.06)"/><path d="M34.943 78.193h52.652v52.652H34.943z" style="fill:none;stroke:#ccc;stroke-width:.264583;stroke-dasharray:none;stroke-dashoffset:0" transform="translate(-34.811 -78.06)"/><text xml:space="preserve" style="font-size:14.6667px;line-height:1.25;font-family:sans-serif;white-space:pre;shape-inside:url(#a);display:inline;fill:#f60" transform="matrix(.26458 0 0 .26458 -25.438 -27.903)"><tspan x="102.459" y="299.945">amplitude-offset</tspan></text><path d="M71.697 126.715 53.34 107.548" style="fill:none;stroke:#f60;stroke-width:.529167;stroke-linecap:butt;stroke-linejoin:miter;stroke-opacity:1" transform="translate(-34.811 -78.06)"/></svg>