<svg xmlns="http://www.w3.org/2000/svg" width="288.04" height="428.939" viewBox="0 0 76.211 113.49"><defs><path id="a" d="M86.405 8251.748h70.081v57.682H86.405z"/><path id="b" d="M204.843 8338.396h83.853v42.639h-83.853z"/><path id="c" d="M343.183 8353.117h64.675v45.493h-64.675z"/><path id="d" d="M307.065 8197.744h48.525v24.999h-48.525z"/><path id="e" d="M79.05 8300.684h273.17v51.164H79.05z"/><path id="f" d="M251.717 8436.273h62.168v32.45h-62.168z"/><path id="g" d="M420.706 8448.941h77.717v48.312h-77.717z"/><path id="h" d="M450.466 10459.747h41.233v38.021h-41.233z"/><path id="i" d="M367.056 10442.883h32.883v25.01h-32.883z"/><path id="j" d="M423.248 10177.365h36.096v24.909h-36.096z"/><path id="k" d="M441.705 10454.384h116.487v28.209H441.705z"/><path id="l" d="M441.705 10454.384h116.487v28.209H441.705z"/></defs><g transform="translate(-37.048 -2881.253)"><path d="M37.18 2881.385h75.946v113.226H37.18z" style="fill:#fff;stroke:#fff;stroke-width:.264584"/><path d="m42.443 2962.884 59.907-76.284" style="fill:none;stroke:#ccc;stroke-width:.264583px;stroke-linecap:butt;stroke-linejoin:miter;stroke-opacity:1"/><path d="M60.566 2931.43a23.12 23.12 0 0 1 13.297 18.075 23.12 23.12 0 0 1-8.303 20.846" style="fill:none;stroke:#faa;stroke-width:.264583"/><path d="m62.596 2982.05 34.726-94.744" style="fill:none;stroke:#faa;stroke-width:.264583px;stroke-linecap:butt;stroke-linejoin:miter;stroke-opacity:1"/><path d="m58.39 2962.378 13.424-36.784" style="fill:none;stroke:#000;stroke-width:.264583px;stroke-linecap:butt;stroke-linejoin:miter;stroke-opacity:1"/><text xml:space="preserve" style="font-size:14.6667px;line-height:1.25;font-family:sans-serif;white-space:pre;shape-inside:url(#a);display:inline" transform="matrix(.26458 0 0 .26458 30.775 777.163)"><tspan x="86.404" y="8264.725">p1</tspan></text><text xml:space="preserve" style="font-size:14.6667px;line-height:1.25;font-family:sans-serif;white-space:pre;shape-inside:url(#b);display:inline" transform="matrix(.26458 0 0 .26458 14.879 713.75)"><tspan x="204.844" y="8351.371">p2</tspan></text><text xml:space="preserve" style="font-size:14.6667px;line-height:1.25;font-family:sans-serif;white-space:pre;shape-inside:url(#c);display:inline" transform="matrix(.26458 0 0 .26458 -18.173 765.44)"><tspan x="343.182" y="8366.094">p3</tspan></text><circle cx="73.922" cy="2950.514" r="10.634" style="fill:none;stroke:#d45500;stroke-width:.264583"/><path d="m58.485 2945.117 23.6 8.58" style="fill:none;stroke:#b3b3b3;stroke-width:.264583px;stroke-linecap:butt;stroke-linejoin:miter;stroke-opacity:1"/><path d="m73.863 2950.636 6.006 8.775" style="fill:none;stroke:green;stroke-width:.264583px;stroke-linecap:butt;stroke-linejoin:miter;stroke-opacity:1"/><text xml:space="preserve" style="font-size:14.6667px;line-height:1.25;font-family:sans-serif;white-space:pre;shape-inside:url(#d);display:inline;fill:green" transform="matrix(.26458 0 0 .26458 -2.24 784.36)"><tspan x="307.064" y="8210.721">r</tspan></text><path d="m63.081 2949.224 2.05.75.735-2.237" style="fill:none;stroke:#666;stroke-width:.264583px;stroke-linecap:butt;stroke-linejoin:miter;stroke-opacity:1"/><text xml:space="preserve" style="font-size:14.6667px;line-height:1.25;font-family:sans-serif;white-space:pre;shape-inside:url(#e);display:inline" transform="matrix(.26458 0 0 .26458 18.69 787.513)"><tspan x="79.051" y="8313.66">construct cornerRounded(radius)
</tspan><tspan x="79.051" y="8331.993">case stroke-int-arc</tspan></text><path d="M-2628.229-1287.063a33.9 33.9 0 0 1-27.123.43 33.9 33.9 0 0 1-18.756-19.598l31.825-11.68z" style="fill:none;stroke:#e6e6e6;stroke-width:.264583" transform="rotate(-117.495)"/><path d="m102.307 2948.727-51.31 3.647" style="fill:none;stroke:#b3b3b3;stroke-width:.264583px;stroke-linecap:butt;stroke-linejoin:miter;stroke-opacity:1"/><path d="M-2628.26-1286.991a33.9 33.9 0 0 1-27.124.43 33.9 33.9 0 0 1-18.755-19.599" style="fill:none;stroke:#000;stroke-width:.264583" transform="rotate(-117.495)"/><path d="m84.553 2949.845-33.566 2.522" style="fill:none;stroke:#00f;stroke-width:.264583px;stroke-linecap:butt;stroke-linejoin:miter;stroke-opacity:1"/><text xml:space="preserve" style="font-size:14.6667px;line-height:1.25;font-family:sans-serif;white-space:pre;shape-inside:url(#f);display:inline;fill:#00f" transform="matrix(.26458 0 0 .26458 -9.626 715.536)"><tspan x="251.717" y="8449.25">r2</tspan></text><text xml:space="preserve" style="font-size:14.6667px;line-height:1.25;font-family:sans-serif;white-space:pre;shape-inside:url(#g);display:inline" transform="matrix(.26458 0 0 .26458 -62.983 712.73)"><tspan x="420.705" y="8461.918">p4</tspan></text><path d="M88.42 2904.546s.414 1.174.874 1.547c.319.258 1.174.37 1.174.37" style="fill:none;stroke:#f0f;stroke-width:.264583px;stroke-linecap:butt;stroke-linejoin:miter;stroke-opacity:1"/><text xml:space="preserve" style="font-size:12px;line-height:1.25;font-family:sans-serif;white-space:pre;shape-inside:url(#h);display:inline;fill:#f0f" transform="matrix(.26458 0 0 .26458 -24.374 129.162)"><tspan x="450.467" y="10470.363">1:pA</tspan></text><text xml:space="preserve" style="font-size:12px;line-height:1.25;font-family:sans-serif;white-space:pre;shape-inside:url(#i);display:inline;fill:#f0f" transform="matrix(.26458 0 0 .26458 -24.472 147.117)"><tspan x="367.057" y="10453.5">2:lA4</tspan></text><path d="m50.87 2952.253 42.937-54.689" style="fill:none;stroke:#f0f;stroke-width:.264583px;stroke-linecap:butt;stroke-linejoin:miter;stroke-opacity:1"/><text xml:space="preserve" style="font-size:14.6667px;line-height:1.25;font-family:sans-serif;white-space:pre;shape-inside:url(#j);display:inline" transform="matrix(.26458 0 0 .26458 -43.588 257.866)"><tspan x="423.248" y="10190.342">p7</tspan></text><text xml:space="preserve" style="font-size:12px;line-height:1.25;font-family:sans-serif;white-space:pre;shape-inside:url(#k);display:inline;fill:#f0f" transform="matrix(.26458 0 0 .26458 -60.563 161.6)"><tspan x="441.705" y="10465">3:a124</tspan></text><path d="M66.85 2931.603s.413 1.174.874 1.547c.319.258 1.174.37 1.174.37" style="fill:none;stroke:#f0f;stroke-width:.264583px;stroke-linecap:butt;stroke-linejoin:miter;stroke-opacity:1"/><text xml:space="preserve" style="font-size:12px;line-height:1.25;font-family:sans-serif;white-space:pre;shape-inside:url(#l);display:inline;fill:#f0f" transform="matrix(.26458 0 0 .26458 -25.677 139.941)"><tspan x="441.705" y="10465">4:aA=a124</tspan></text></g></svg>