<svg xmlns="http://www.w3.org/2000/svg" width="324.937" height="331.863" viewBox="0 0 85.973 87.805"><defs><path id="a" d="M86.405 8251.748h70.081v57.682H86.405z"/><path id="b" d="M343.183 8353.117h64.675v45.493h-64.675z"/><path id="c" d="M307.065 8197.744h48.525v24.999h-48.525z"/><path id="d" d="M79.05 8300.684h332.532v51.692H79.05z"/><path id="e" d="M251.717 8436.273h62.168v32.45h-62.168z"/><path id="f" d="M420.706 8448.941h77.717v48.312h-77.717z"/><path id="k" d="M450.466 10459.747h41.233v38.021h-41.233z"/><path id="g" d="M423.248 10177.365h36.096v24.909h-36.096z"/><path id="h" d="M204.843 8338.396h83.853v42.639h-83.853z"/><path id="i" d="M378.935 12647.6h36.045v26.794h-36.045z"/><path id="j" d="M409.102 12687.542h48.255v47.365h-48.255z"/></defs><g transform="translate(-33.472 -3559.906)"><path d="M33.604 3560.038h85.708v87.541H33.604z" style="fill:#fff;stroke:#fff;stroke-width:.264584"/><path d="M-3145.165 1735.72a23.12 23.12 0 0 1 13.297 18.075 23.12 23.12 0 0 1-8.303 20.846" style="fill:none;stroke:#faa;stroke-width:.264583" transform="rotate(-62.163)"/><path d="m64.812 3619.25 19.124-52.293" style="fill:none;stroke:#faa;stroke-width:.264583px;stroke-linecap:butt;stroke-linejoin:miter;stroke-opacity:1"/><path d="m54.814 3615.345 13.424-36.783" style="fill:none;stroke:#000;stroke-width:.264583px;stroke-linecap:butt;stroke-linejoin:miter;stroke-opacity:1"/><text xml:space="preserve" style="font-size:14.6667px;line-height:1.25;font-family:sans-serif;white-space:pre;shape-inside:url(#a);display:inline" transform="matrix(.26458 0 0 .26458 27.2 1430.131)"><tspan x="86.404" y="8264.725">p1</tspan></text><text xml:space="preserve" style="font-size:14.6667px;line-height:1.25;font-family:sans-serif;white-space:pre;shape-inside:url(#b);display:inline" transform="matrix(.26458 0 0 .26458 18.64 1390.951)"><tspan x="343.182" y="8366.094">p3</tspan></text><circle cx="76.395" cy="3587.242" r="10.634" style="fill:none;stroke:#d45500;stroke-width:.264583"/><path d="m61.093 3581.6 23.6 8.579" style="fill:none;stroke:#b3b3b3;stroke-width:.264583px;stroke-linecap:butt;stroke-linejoin:miter;stroke-opacity:1"/><text xml:space="preserve" style="font-size:14.6667px;line-height:1.25;font-family:sans-serif;white-space:pre;shape-inside:url(#c);display:inline;fill:green" transform="matrix(.26458 0 0 .26458 -8.077 1410.316)"><tspan x="307.064" y="8210.721">r</tspan></text><path d="m65.69 3585.707 2.05.75.734-2.237" style="fill:none;stroke:#666;stroke-width:.264583px;stroke-linecap:butt;stroke-linejoin:miter;stroke-opacity:1"/><text xml:space="preserve" style="font-size:14.6667px;line-height:1.25;font-family:sans-serif;white-space:pre;shape-inside:url(#d);display:inline" transform="matrix(.26458 0 0 .26458 15.113 1440.48)"><tspan x="79.051" y="8313.66">construct cornerRounded(radius)
</tspan><tspan x="79.051" y="8331.993">case stroke-int-arc, obtuse, method-2</tspan></text><path d="M-270.568-3569.03a33.9 33.9 0 0 1-27.123.43 33.9 33.9 0 0 1-18.756-19.6l31.824-11.68z" style="fill:none;stroke:#e6e6e6;stroke-width:.264583" transform="rotate(-176.758)"/><path d="M-270.599-3568.96a33.9 33.9 0 0 1-27.124.431 33.9 33.9 0 0 1-18.755-19.599" style="fill:none;stroke:#000;stroke-width:.264583" transform="rotate(-176.758)"/><path d="m74.625 3576.749 5.923 33.59" style="fill:none;stroke:#00f;stroke-width:.264583px;stroke-linecap:butt;stroke-linejoin:miter;stroke-opacity:1"/><text xml:space="preserve" style="font-size:14.6667px;line-height:1.25;font-family:sans-serif;white-space:pre;shape-inside:url(#e);display:inline;fill:#00f" transform="matrix(.26458 0 0 .26458 12.847 1365.381)"><tspan x="251.717" y="8449.25">r2</tspan></text><text xml:space="preserve" style="font-size:14.6667px;line-height:1.25;font-family:sans-serif;white-space:pre;shape-inside:url(#f);display:inline" transform="matrix(.26458 0 0 .26458 -35.325 1375.518)"><tspan x="420.705" y="8461.918">p5</tspan></text><text xml:space="preserve" style="font-size:14.6667px;line-height:1.25;font-family:sans-serif;white-space:pre;shape-inside:url(#g);display:inline" transform="matrix(.26458 0 0 .26458 -34.23 891.578)"><tspan x="423.248" y="10190.342">p7</tspan></text><text xml:space="preserve" style="font-size:14.6667px;line-height:1.25;font-family:sans-serif;white-space:pre;shape-inside:url(#h);display:inline" transform="matrix(.26458 0 0 .26458 11.303 1366.718)"><tspan x="204.844" y="8351.371">p2</tspan></text><path d="m74.64 3576.878 1.805 10.524" style="fill:none;stroke:green;stroke-width:.264583px;stroke-linecap:butt;stroke-linejoin:miter;stroke-opacity:1"/><text xml:space="preserve" style="font-size:14.6667px;line-height:1.25;font-family:sans-serif;white-space:pre;shape-inside:url(#i);display:inline;fill:#999" transform="matrix(.26458 0 0 .26458 -26.639 225.591)"><tspan x="378.936" y="12660.576">p9</tspan></text><text xml:space="preserve" style="font-size:14.6667px;line-height:1.25;font-family:sans-serif;white-space:pre;shape-inside:url(#j);display:inline;fill:#999" transform="matrix(.26458 0 0 .26458 -47.815 225.571)"><tspan x="409.102" y="12700.52">p8</tspan></text><path d="m64.211 3604.396 23.6 8.58" style="fill:none;stroke:#b3b3b3;stroke-width:.264583px;stroke-linecap:butt;stroke-linejoin:miter;stroke-opacity:1"/><path d="m68.807 3608.503 2.05.75.735-2.237" style="fill:none;stroke:#666;stroke-width:.264583px;stroke-linecap:butt;stroke-linejoin:miter;stroke-opacity:1"/><text xml:space="preserve" style="font-size:12px;line-height:1.25;font-family:sans-serif;white-space:pre;shape-inside:url(#k);display:inline;fill:#f0f" transform="matrix(.26458 0 0 .26458 -58.04 836.909)"><tspan x="450.467" y="10470.363">1:pB</tspan></text></g></svg>