<svg xmlns="http://www.w3.org/2000/svg" width="288.04" height="273.622" viewBox="0 0 76.211 72.396"><defs><path id="k" d="M441.705 10454.384h116.487v28.209H441.705z"/><path id="j" d="M367.056 10442.883h32.883v25.01h-32.883z"/><path id="i" d="M450.466 10459.747h41.233v38.021h-41.233z"/><path id="a" d="M86.405 8251.748h70.081v57.682H86.405z"/><path id="b" d="M204.843 8338.396h83.853v42.639h-83.853z"/><path id="c" d="M343.183 8353.117h64.675v45.493h-64.675z"/><path id="d" d="M79.05 8300.684h282.307v47.641H79.05z"/><path id="e" d="M251.717 8436.273h62.168v32.45h-62.168z"/><path id="f" d="M420.706 8448.941h77.717v48.312h-77.717z"/><path id="h" d="M307.065 8197.744h48.525v24.999h-48.525z"/><path id="g" d="M307.065 8197.744h48.525v24.999h-48.525z"/><path id="l" d="M423.248 10177.365h36.096v24.909h-36.096z"/><path id="m" d="M441.705 10454.384h116.487v28.209H441.705z"/></defs><g transform="translate(-31.959 -2752.414)"><path d="M32.091 2752.546h75.946v72.131H32.091z" style="fill:#fff;stroke:#fff;stroke-width:.264583"/><path d="m38.597 2814.72 17.842-48.803" style="fill:none;stroke:#e6e6e6;stroke-width:.264582px;stroke-linecap:butt;stroke-linejoin:miter;stroke-opacity:1"/><path d="M103.92 2796.556a44.492 44.492 0 0 1-36.527-3.016 44.492 44.492 0 0 1-21.87-29.411" style="fill:none;stroke:#faa;stroke-width:.264583"/><path d="m43.246 2802.696 13.425-36.784" style="fill:none;stroke:#000;stroke-width:.264583px;stroke-linecap:butt;stroke-linejoin:miter;stroke-opacity:1"/><text xml:space="preserve" style="font-size:14.6667px;line-height:1.25;font-family:sans-serif;white-space:pre;shape-inside:url(#a);display:inline" transform="matrix(.26458 0 0 .26458 14.651 615.88)"><tspan x="86.404" y="8264.725">p1</tspan></text><text xml:space="preserve" style="font-size:14.6667px;line-height:1.25;font-family:sans-serif;white-space:pre;shape-inside:url(#b);display:inline" transform="matrix(.26458 0 0 .26458 -1.034 555.752)"><tspan x="204.844" y="8351.371">p2</tspan></text><text xml:space="preserve" style="font-size:14.6667px;line-height:1.25;font-family:sans-serif;white-space:pre;shape-inside:url(#c);display:inline" transform="matrix(.26458 0 0 .26458 10.789 575.655)"><tspan x="343.182" y="8366.094">p3</tspan></text><circle cx="59.873" cy="2788.384" r="10.634" style="fill:none;stroke:#d45500;stroke-width:.264583"/><path d="m44.41 2782.616 23.599 8.58" style="fill:none;stroke:#b3b3b3;stroke-width:.264583px;stroke-linecap:butt;stroke-linejoin:miter;stroke-opacity:1"/><path d="m49.005 2786.724 2.05.75.735-2.237" style="fill:none;stroke:#666;stroke-width:.264583px;stroke-linecap:butt;stroke-linejoin:miter;stroke-opacity:1"/><text xml:space="preserve" style="font-size:14.6667px;line-height:1.25;font-family:sans-serif;white-space:pre;shape-inside:url(#d);display:inline" transform="matrix(.26458 0 0 .26458 14.05 618.54)"><tspan x="79.051" y="8313.66">construct cornerRounded(radius)
</tspan><tspan x="79.051" y="8331.993">case stroke-ext-arc</tspan></text><path d="M102.755 2785.106a33.9 33.9 0 0 1-27.124.43 33.9 33.9 0 0 1-18.755-19.599l31.824-11.68z" style="fill:none;stroke:#e6e6e6;stroke-width:.264583"/><path d="m88.788 2754.352-50.445 58.52" style="fill:none;stroke:#b3b3b3;stroke-width:.264583px;stroke-linecap:butt;stroke-linejoin:miter;stroke-opacity:1"/><path d="M102.675 2784.959a33.9 33.9 0 0 1-27.124.43 33.9 33.9 0 0 1-18.755-19.6" style="fill:none;stroke:#000;stroke-width:.264583"/><path d="m88.904 2754.423-22.031 25.325" style="fill:none;stroke:#00f;stroke-width:.264583px;stroke-linecap:butt;stroke-linejoin:miter;stroke-opacity:1"/><text xml:space="preserve" style="font-size:14.6667px;line-height:1.25;font-family:sans-serif;white-space:pre;shape-inside:url(#e);display:inline;fill:#00f" transform="matrix(.26458 0 0 .26458 11.017 535.144)"><tspan x="251.717" y="8449.25">r2</tspan></text><text xml:space="preserve" style="font-size:14.6667px;line-height:1.25;font-family:sans-serif;white-space:pre;shape-inside:url(#f);display:inline" transform="matrix(.26458 0 0 .26458 -22.047 517.163)"><tspan x="420.705" y="8461.918">p4</tspan></text><path d="m71.09 2757.196-16.406 44.9" style="fill:none;stroke:#faa;stroke-width:.264583px;stroke-linecap:butt;stroke-linejoin:miter;stroke-opacity:1"/><path d="m66.566 2780.196-6.942 7.926-9.76-3.451" style="fill:none;stroke:green;stroke-width:.264583px;stroke-linecap:butt;stroke-linejoin:miter;stroke-opacity:1"/><text xml:space="preserve" style="font-size:14.6667px;line-height:1.25;font-family:sans-serif;white-space:pre;shape-inside:url(#g);display:inline;fill:green" transform="matrix(.26458 0 0 .26458 -17.245 613.43)"><tspan x="307.064" y="8210.721">r</tspan></text><text xml:space="preserve" style="font-size:14.6667px;line-height:1.25;font-family:sans-serif;white-space:pre;shape-inside:url(#h);display:inline;fill:green" transform="matrix(.26458 0 0 .26458 -28.858 616.56)"><tspan x="307.064" y="8210.721">r</tspan></text><path d="m56.801 2766.107 2.852 22.09" style="fill:none;stroke:#ff0;stroke-width:.264583px;stroke-linecap:butt;stroke-linejoin:miter;stroke-opacity:1"/><text xml:space="preserve" style="font-size:12px;line-height:1.25;font-family:sans-serif;white-space:pre;shape-inside:url(#i);display:inline;fill:#f0f" transform="matrix(.26458 0 0 .26458 -57.814 -9.843)"><tspan x="450.467" y="10470.363">1:pA</tspan></text><path d="m69.79 2761.223 18.805-6.9" style="fill:none;stroke:#f0f;stroke-width:.264583px;stroke-linecap:butt;stroke-linejoin:miter;stroke-opacity:1"/><text xml:space="preserve" style="font-size:12px;line-height:1.25;font-family:sans-serif;white-space:pre;shape-inside:url(#j);display:inline;fill:#f0f" transform="matrix(.26458 0 0 .26458 -21.835 -10.483)"><tspan x="367.057" y="10453.5">2:lA4</tspan></text><path d="M68.9 2763.569s1.308-.023 1.867-.317c.5-.262.947-.7 1.182-1.214.215-.471.13-1.55.13-1.55" style="fill:none;stroke:#f0f;stroke-width:.264583px;stroke-linecap:butt;stroke-linejoin:miter;stroke-opacity:1"/><text xml:space="preserve" style="font-size:12px;line-height:1.25;font-family:sans-serif;white-space:pre;shape-inside:url(#k);display:inline;fill:#f0f" transform="matrix(.26458 0 0 .26458 -44.306 -5.573)"><tspan x="441.705" y="10465">4:aA=a124</tspan></text><text xml:space="preserve" style="font-size:14.6667px;line-height:1.25;font-family:sans-serif;white-space:pre;shape-inside:url(#l);display:inline" transform="matrix(.26458 0 0 .26458 -52.17 95.449)"><tspan x="423.248" y="10190.342">p7</tspan></text><text xml:space="preserve" style="font-size:12px;line-height:1.25;font-family:sans-serif;white-space:pre;shape-inside:url(#m);display:inline;fill:#f0f" transform="matrix(.26458 0 0 .26458 -72.99 -.394)"><tspan x="441.705" y="10465">3:a124</tspan></text><path d="M55.674 2768.33s1.308-.022 1.868-.316c.5-.262.947-.7 1.181-1.213.216-.472.132-1.55.132-1.55" style="fill:none;stroke:#f0f;stroke-width:.264583px;stroke-linecap:butt;stroke-linejoin:miter;stroke-opacity:1"/></g></svg>