<svg xmlns="http://www.w3.org/2000/svg" width="287.04" height="276.274" viewBox="0 0 75.946 73.097"><defs><path id="g" d="M423.248 10177.365h36.096v24.909h-36.096z"/><path id="a" d="M86.405 8251.748h70.081v57.682H86.405z"/><path id="b" d="M204.843 8338.396h83.853v42.639h-83.853z"/><path id="c" d="M343.183 8353.117h64.675v45.493h-64.675z"/><path id="d" d="M307.065 8197.744h48.525v24.999h-48.525z"/><path id="e" d="M79.05 8300.684h279.055v42.836H79.05z"/><path id="f" d="M307.065 8197.744h48.525v24.999h-48.525z"/></defs><g transform="translate(-29.792 -2673.359)"><path d="M29.792 2673.359h75.946v73.097H29.792z" style="fill:#fff;stroke:none;stroke-width:.264583"/><path d="m40.058 2681.425 37.607 47.644M64.304 2685.06l-13.424 36.783" style="fill:none;stroke:#faa;stroke-width:.264583px;stroke-linecap:butt;stroke-linejoin:miter;stroke-opacity:1"/><path d="m40.947 2718.684 13.425-36.784 37.606 47.645" style="fill:none;stroke:#000;stroke-width:.264583px;stroke-linecap:butt;stroke-linejoin:miter;stroke-opacity:1"/><text xml:space="preserve" style="font-size:14.6667px;line-height:1.25;font-family:sans-serif;white-space:pre;shape-inside:url(#a);display:inline" transform="matrix(.26458 0 0 .26458 12 538.692)"><tspan x="86.404" y="8264.725">p1</tspan></text><text xml:space="preserve" style="font-size:14.6667px;line-height:1.25;font-family:sans-serif;white-space:pre;shape-inside:url(#b);display:inline" transform="matrix(.26458 0 0 .26458 -2.564 470.06)"><tspan x="204.844" y="8351.371">p2</tspan></text><text xml:space="preserve" style="font-size:14.6667px;line-height:1.25;font-family:sans-serif;white-space:pre;shape-inside:url(#c);display:inline" transform="matrix(.26458 0 0 .26458 .187 519.996)"><tspan x="343.182" y="8366.094">p3</tspan></text><circle cx="57.819" cy="2703.527" r="10.634" style="fill:none;stroke:#d45500;stroke-width:.264583"/><path d="m54.372 2681.9 7.342 49.315" style="fill:none;stroke:#ccc;stroke-width:.264583px;stroke-linecap:butt;stroke-linejoin:miter;stroke-opacity:1"/><path d="m42.441 2698.008 23.6 8.58M72.239 2691.87l-20.61 16.268" style="fill:none;stroke:#b3b3b3;stroke-width:.264583px;stroke-linecap:butt;stroke-linejoin:miter;stroke-opacity:1"/><path d="m66.086 2696.691-8.494 6.76-9.76-3.45" style="fill:none;stroke:green;stroke-width:.264583px;stroke-linecap:butt;stroke-linejoin:miter;stroke-opacity:1"/><text xml:space="preserve" style="font-size:14.6667px;line-height:1.25;font-family:sans-serif;white-space:pre;shape-inside:url(#d);display:inline;fill:green" transform="matrix(.26458 0 0 .26458 -20.485 527.16)"><tspan x="307.064" y="8210.721">r</tspan></text><path d="m47.037 2702.115 2.05.75.735-2.237M64.598 2697.849l1.041 1.309 1.395-1.294" style="fill:none;stroke:#666;stroke-width:.264583px;stroke-linecap:butt;stroke-linejoin:miter;stroke-opacity:1"/><path d="M52.04 2688.505s.954.901 1.561.957c.603.055 1.696-.65 1.696-.65M55.264 2687.22s.922.248 1.35.105c.49-.163 1.163-1.02 1.163-1.02" style="fill:none;stroke:#8a0;stroke-width:.264583px;stroke-linecap:butt;stroke-linejoin:miter;stroke-opacity:1"/><text xml:space="preserve" style="font-size:14.6667px;line-height:1.25;font-family:sans-serif;white-space:pre;shape-inside:url(#e);display:inline" transform="matrix(.26458 0 0 .26458 11.213 540.084)"><tspan x="79.051" y="8313.66">construct cornerRounded(radius)
</tspan><tspan x="79.051" y="8331.993">case stroke-stroke</tspan></text><text xml:space="preserve" style="font-size:14.6667px;line-height:1.25;font-family:sans-serif;white-space:pre;shape-inside:url(#f);display:inline;fill:green" transform="matrix(.26458 0 0 .26458 -29.675 528.251)"><tspan x="307.064" y="8210.721">r</tspan></text><text xml:space="preserve" style="font-size:14.6667px;line-height:1.25;font-family:sans-serif;white-space:pre;shape-inside:url(#g);display:inline" transform="matrix(.26458 0 0 .26458 -54.325 10.058)"><tspan x="423.248" y="10190.342">p7</tspan></text></g></svg>