<svg xmlns="http://www.w3.org/2000/svg" width="288.04" height="273.622" viewBox="0 0 76.211 72.396"><defs><path id="m" d="M237.913 14702.817h39.543v28.308h-39.543z"/><path id="a" d="M64.337 10503.036h33.572v27.716H64.337z"/><path id="b" d="M64.337 10503.036h33.572v27.716H64.337z"/><path id="c" d="M86.405 8251.748h70.081v57.682H86.405z"/><path id="d" d="M204.843 8338.396h83.853v42.639h-83.853z"/><path id="e" d="M343.183 8353.117h64.675v45.493h-64.675z"/><path id="f" d="M79.05 8300.684h282.307v47.641H79.05z"/><path id="g" d="M251.717 8436.273h62.168v32.45h-62.168z"/><path id="h" d="M420.706 8448.941h77.717v48.312h-77.717z"/><path id="i" d="M307.065 8197.744h48.525v24.999h-48.525z"/><path id="j" d="M423.248 10177.365h36.096v24.909h-36.096z"/><path id="k" d="M209.602 10739.295h58.999v31.362h-58.999z"/><path id="l" d="M209.602 10739.295h58.999v31.362h-58.999z"/></defs><g transform="translate(-34.778 -3899.228)"><path d="M34.911 3899.36h75.946v72.131H34.911z" style="fill:#fff;stroke:#fff;stroke-width:.264583"/><path d="m71.751 3942.92-2.28-41.646" style="fill:none;stroke:#ffd5d5;stroke-width:.264582px;stroke-linecap:butt;stroke-linejoin:miter;stroke-opacity:1"/><text xml:space="preserve" style="font-size:14.6667px;line-height:1.25;font-family:sans-serif;white-space:pre;shape-inside:url(#a);display:inline" transform="matrix(.26458 0 0 .26458 51.42 1154.105)"><tspan x="64.336" y="10516.012">p9</tspan></text><text xml:space="preserve" style="font-size:14.6667px;line-height:1.25;font-family:sans-serif;white-space:pre;shape-inside:url(#b);display:inline" transform="matrix(.26458 0 0 .26458 54.06 1143.021)"><tspan x="64.336" y="10516.012">p9b</tspan></text><path d="m49.254 3919.904 2.18-.126-.215-2.345M59.757 3925l-1.66.112.164 2.073" style="fill:none;stroke:#666;stroke-width:.264583px;stroke-linecap:butt;stroke-linejoin:miter;stroke-opacity:1"/><path d="m46.066 3953.747 13.425-36.784" style="fill:none;stroke:#000;stroke-width:.264583px;stroke-linecap:butt;stroke-linejoin:miter;stroke-opacity:1"/><text xml:space="preserve" style="font-size:14.6667px;line-height:1.25;font-family:sans-serif;white-space:pre;shape-inside:url(#c);display:inline" transform="matrix(.26458 0 0 .26458 17.47 1766.93)"><tspan x="86.404" y="8264.725">p1</tspan></text><text xml:space="preserve" style="font-size:14.6667px;line-height:1.25;font-family:sans-serif;white-space:pre;shape-inside:url(#d);display:inline" transform="matrix(.26458 0 0 .26458 1.786 1706.802)"><tspan x="204.844" y="8351.371">p2</tspan></text><text xml:space="preserve" style="font-size:14.6667px;line-height:1.25;font-family:sans-serif;white-space:pre;shape-inside:url(#e);display:inline" transform="matrix(.26458 0 0 .26458 13.609 1726.705)"><tspan x="343.182" y="8366.094">p3</tspan></text><circle cx="60.233" cy="3927.722" r="10.634" style="fill:none;stroke:#d45500;stroke-width:.264583"/><path d="m49.421 3929.832 2.18-.127-.215-2.345" style="fill:none;stroke:#666;stroke-width:.264583px;stroke-linecap:butt;stroke-linejoin:miter;stroke-opacity:1"/><text xml:space="preserve" style="font-size:14.6667px;line-height:1.25;font-family:sans-serif;white-space:pre;shape-inside:url(#f);display:inline" transform="matrix(.26458 0 0 .26458 16.491 1769.463)"><tspan x="79.051" y="8313.66">construct cornerWideAcc(radius)</tspan></text><path d="M105.575 3936.152a33.9 33.9 0 0 1-27.124.43 33.9 33.9 0 0 1-18.755-19.599l31.824-11.68z" style="fill:none;stroke:#e6e6e6;stroke-width:.264583"/><path d="M105.494 3936.005a33.9 33.9 0 0 1-27.123.43 33.9 33.9 0 0 1-18.756-19.599" style="fill:none;stroke:#000;stroke-width:.264583"/><path d="m91.36 3905.36-19.977 27.398" style="fill:none;stroke:#00f;stroke-width:.264583px;stroke-linecap:butt;stroke-linejoin:miter;stroke-opacity:1"/><text xml:space="preserve" style="font-size:14.6667px;line-height:1.25;font-family:sans-serif;white-space:pre;shape-inside:url(#g);display:inline;fill:#00f" transform="matrix(.26458 0 0 .26458 15.823 1684.415)"><tspan x="251.717" y="8449.25">r2</tspan></text><text xml:space="preserve" style="font-size:14.6667px;line-height:1.25;font-family:sans-serif;white-space:pre;shape-inside:url(#h);display:inline" transform="matrix(.26458 0 0 .26458 -19.228 1668.214)"><tspan x="420.705" y="8461.918">p5</tspan></text><path d="m59.957 3927.269-.393-10.345" style="fill:none;stroke:green;stroke-width:.264583px;stroke-linecap:butt;stroke-linejoin:miter;stroke-opacity:1"/><text xml:space="preserve" style="font-size:14.6667px;line-height:1.25;font-family:sans-serif;white-space:pre;shape-inside:url(#i);display:inline;fill:green" transform="matrix(.26458 0 0 .26458 -21.222 1753.057)"><tspan x="307.064" y="8210.721">r</tspan></text><text xml:space="preserve" style="font-size:14.6667px;line-height:1.25;font-family:sans-serif;white-space:pre;shape-inside:url(#j);display:inline" transform="matrix(.26458 0 0 .26458 -52.274 1234.303)"><tspan x="423.248" y="10190.342">p6</tspan></text><path d="m49.93 3943.337-.393-16.165" style="fill:none;stroke:red;stroke-width:.264583px;stroke-linecap:butt;stroke-linejoin:miter;stroke-opacity:1"/><path d="m59.908 3927.06-10.345.393" style="fill:none;stroke:#ffd5d5;stroke-width:.264583px;stroke-linecap:butt;stroke-linejoin:miter;stroke-opacity:1"/><text xml:space="preserve" style="font-size:14.6667px;line-height:1.25;font-family:sans-serif;white-space:pre;shape-inside:url(#k);display:inline" transform="matrix(.26458 0 0 .26458 -5.405 1100.965)"><tspan x="209.602" y="10752.272">p8</tspan></text><text xml:space="preserve" style="font-size:14.6667px;line-height:1.25;font-family:sans-serif;white-space:pre;shape-inside:url(#l);display:inline" transform="matrix(.26458 0 0 .26458 -14.182 1083.431)"><tspan x="209.602" y="10752.272">p8b</tspan></text><path d="m59.45 3917.077-10.345.393M49.205 3917.337l.392 10.344" style="fill:none;stroke:#ffd5d5;stroke-width:.264583px;stroke-linecap:butt;stroke-linejoin:miter;stroke-opacity:1"/><path d="m71.293 3932.47-.393-6.131" style="fill:none;stroke:red;stroke-width:.264583px;stroke-linecap:butt;stroke-linejoin:miter;stroke-opacity:1"/><path d="m70.685 3926.55-10.344.391" style="fill:none;stroke:#ffd5d5;stroke-width:.264583px;stroke-linecap:butt;stroke-linejoin:miter;stroke-opacity:1"/><path d="m49.585 3907.685 41.647-2.28" style="fill:none;stroke:#ffd5d5;stroke-width:.264582px;stroke-linecap:butt;stroke-linejoin:miter;stroke-opacity:1"/><path d="m69.926 3907.99 1.232-.073-.122-1.362" style="fill:none;stroke:#666;stroke-width:.264583px;stroke-linecap:butt;stroke-linejoin:miter;stroke-opacity:1"/><text xml:space="preserve" style="font-size:14.6667px;line-height:1.25;font-family:sans-serif;white-space:pre;shape-inside:url(#m);display:inline" transform="matrix(.26458 0 0 .26458 1.187 12.508)"><tspan x="237.914" y="14715.793">ph</tspan></text></g></svg>