<svg xmlns="http://www.w3.org/2000/svg" width="332.578" height="425.959" viewBox="0 0 87.995 112.702"><defs><path id="b" d="M216.306 6731.907h47.567v21.466h-47.567z"/><path id="c" d="M155.641 6737.967h38.968v33.484h-38.968z"/><path id="d" d="M321.581 6735.533h51.929v33.178h-51.929z"/><path id="e" d="M216.306 6731.907h47.567v21.466h-47.567z"/><path id="f" d="M134.381 6781.707h288.51v49.48h-288.51z"/><path id="g" d="M369.273 7099.241h39.346v22.231h-39.346z"/><path id="h" d="M182.427 7262.024h59.86v30.115h-59.86z"/><path id="i" d="M187.797 7320.17h38.33v21.953h-38.33z"/><path id="j" d="M232.719 7297.227h57.104v35.177h-57.104z"/><path id="k" d="M143.351 7257.272h342.457v340.146H143.351z"/><path id="l" d="M320.226 7078.148h42.537v34.444h-42.537z"/><marker id="a" markerHeight="5" markerWidth="8.75" orient="auto-start-reverse" preserveAspectRatio="xMidYMid" refX="0" refY="0" style="overflow:visible" viewBox="0 0 8.75 5"><path d="m0 0 5-5-17.5 5L5 5Z" style="fill:context-stroke;fill-rule:evenodd;stroke:none" transform="scale(-.5)"/></marker><marker id="m" markerHeight="5" markerWidth="8.75" orient="auto-start-reverse" preserveAspectRatio="xMidYMid" refX="0" refY="0" style="overflow:visible" viewBox="0 0 8.75 5"><path d="m0 0 5-5-17.5 5L5 5Z" style="fill:context-stroke;fill-rule:evenodd;stroke:none" transform="scale(-.5)"/></marker><marker id="n" markerHeight="5" markerWidth="8.75" orient="auto-start-reverse" preserveAspectRatio="xMidYMid" refX="0" refY="0" style="overflow:visible" viewBox="0 0 8.75 5"><path d="m0 0 5-5-17.5 5L5 5Z" style="fill:context-stroke;fill-rule:evenodd;stroke:none" transform="scale(-.5)"/></marker></defs><g transform="translate(-36.987 -2006.083)"><path d="M37.119 2006.216h87.73v112.437h-87.73z" style="fill:#fff;stroke:#fff;stroke-width:.264583"/><path d="m81.241 2029.37 1.828-.415.29 2.069" style="fill:none;stroke:#000;stroke-width:.264583px;stroke-linecap:butt;stroke-linejoin:miter;stroke-opacity:1"/><path d="m40.928 2047.267 77.618-15.629" style="fill:none;stroke:#ccc;stroke-width:.264583px;stroke-linecap:butt;stroke-linejoin:miter;stroke-opacity:1"/><path d="m40.928 2047.267 22.82-4.53M95.726 2036.168l22.82-4.53" style="fill:none;stroke:navy;stroke-width:.264583px;stroke-linecap:butt;stroke-linejoin:miter;stroke-opacity:1"/><path d="m64.169 2042.33 5.115-6.985" style="fill:none;stroke:#d45500;stroke-width:.264583px;stroke-linecap:butt;stroke-linejoin:miter;stroke-opacity:1;marker-end:url(#a)"/><path d="m94.71 2035.436-3.22-3.698" style="fill:none;stroke:#d45500;stroke-width:.264583px;stroke-linecap:butt;stroke-linejoin:miter;stroke-opacity:1;marker-end:url(#a)"/><path d="M63.773 2042.74h15.694M95.7 2036.43h15.694" style="fill:none;stroke:#999;stroke-width:.264583px;stroke-linecap:butt;stroke-linejoin:miter;stroke-opacity:1"/><path d="M66.021 2039.935s1.927-.14 2.419.522c.45.604-.18 2.253-.18 2.253" style="fill:none;stroke:#f60;stroke-width:.264583px;stroke-linecap:butt;stroke-linejoin:miter;stroke-opacity:1"/><text xml:space="preserve" style="font-size:14.6667px;line-height:1.25;font-family:sans-serif;white-space:pre;shape-inside:url(#b);display:inline" transform="matrix(.26458 0 0 .26458 11.307 256)"><tspan x="216.307" y="6744.883">a1</tspan></text><text xml:space="preserve" style="font-size:14.6667px;line-height:1.25;font-family:sans-serif;white-space:pre;shape-inside:url(#c);display:inline" transform="matrix(.26458 0 0 .26458 17.864 255.63)"><tspan x="155.641" y="6750.943">p1</tspan></text><text xml:space="preserve" style="font-size:14.6667px;line-height:1.25;font-family:sans-serif;white-space:pre;shape-inside:url(#d);display:inline" transform="matrix(.26458 0 0 .26458 8.79 254.507)"><tspan x="321.582" y="6748.51">p2</tspan></text><path d="M94.439 2034.786s1.491-.905 2.135-.55c.691.38.726 2.253.726 2.253" style="fill:none;stroke:#f60;stroke-width:.264583px;stroke-linecap:butt;stroke-linejoin:miter;stroke-opacity:1"/><text xml:space="preserve" style="font-size:14.6667px;line-height:1.25;font-family:sans-serif;white-space:pre;shape-inside:url(#e);display:inline" transform="matrix(.26458 0 0 .26458 40.135 249.31)"><tspan x="216.307" y="6744.883">a2</tspan></text><path d="m95.61 2066.914-31.799-24.267" style="fill:none;stroke:#803300;stroke-width:.264582px;stroke-linecap:butt;stroke-linejoin:miter;stroke-opacity:1"/><path d="m95.45 2036.178-23.833 21.364M65.056 2041.031l1.685 1.205-1.107 1.593M94.122 2037.586l-1.43-1.499 1.386-1.357" style="fill:none;stroke:#803300;stroke-width:.264583px;stroke-linecap:butt;stroke-linejoin:miter;stroke-opacity:1"/><text xml:space="preserve" style="font-size:14.6667px;line-height:1.25;font-family:sans-serif;white-space:pre;shape-inside:url(#f);display:inline" transform="matrix(.26458 0 0 .26458 2.173 212.873)"><tspan x="134.381" y="6794.684">tangential two arcs : requirements</tspan></text><path d="m77.678 2012.378 10.855 54.052" style="fill:none;stroke:#ccc;stroke-width:.264583px;stroke-linecap:butt;stroke-linejoin:miter;stroke-opacity:1"/><path d="m82.747 2036.823 1.827-.415.29 2.069" style="fill:none;stroke:#000;stroke-width:.264583px;stroke-linecap:butt;stroke-linejoin:miter;stroke-opacity:1"/><circle cx="87.345" cy="2060.657" r="1.416" style="fill:none;stroke:#8a0;stroke-width:.264583"/><path d="m43.868 2039.17 77.618-15.63" style="fill:none;stroke:#ccc;stroke-width:.264583px;stroke-linecap:butt;stroke-linejoin:miter;stroke-opacity:1"/><circle cx="84.404" cy="2046.006" r="1.416" style="fill:none;stroke:#00aad4;stroke-width:.264583"/><path d="M107.786 2033.803s.703.8.807 1.3c.087.417-.184 1.264-.184 1.264" style="fill:none;stroke:#c0f;stroke-width:.264583px;stroke-linecap:butt;stroke-linejoin:miter;stroke-opacity:1"/><text xml:space="preserve" style="font-size:14.6667px;line-height:1.25;font-family:sans-serif;white-space:pre;shape-inside:url(#g);display:inline" transform="matrix(.26458 0 0 .26458 12.034 154.32)"><tspan x="369.273" y="7112.217">a0</tspan></text><text xml:space="preserve" style="font-size:14.6667px;line-height:1.25;font-family:sans-serif;white-space:pre;shape-inside:url(#h);display:inline" transform="matrix(.26458 0 0 .26458 29.886 106.04)"><tspan x="182.426" y="7275">G</tspan></text><text xml:space="preserve" style="font-size:14.6667px;line-height:1.25;font-family:sans-serif;white-space:pre;shape-inside:url(#i);display:inline" transform="matrix(.26458 0 0 .26458 29.69 98.24)"><tspan x="187.797" y="7333.146">H</tspan></text><text xml:space="preserve" style="font-size:14.6667px;line-height:1.25;font-family:sans-serif;white-space:pre;shape-inside:url(#j);display:inline" transform="matrix(.26458 0 0 .26458 24.095 114.038)"><tspan x="232.719" y="7310.203">I</tspan></text><text xml:space="preserve" style="font-size:14.6667px;line-height:1.25;font-family:sans-serif;white-space:pre;shape-inside:url(#k);display:inline" transform="matrix(.26458 0 0 .26458 .445 148.654)"><tspan x="143.352" y="7270.248">Given
</tspan><tspan x="143.352" y="7288.582">- two points p1 and p2
</tspan><tspan x="143.352" y="7306.915">- and their tangent angles a1 and a2
</tspan><tspan x="143.352" y="7325.249">we want to define two arcs with
</tspan><tspan x="143.352" y="7343.582">- a common extremity G
</tspan><tspan x="143.352" y="7361.916">- their tangent in G is parallel to (p1,p2)
</tspan><tspan x="143.352" y="7380.249">- the other extremity of the first arc is p1
</tspan><tspan x="143.352" y="7398.583">   with a tangent angle a1
</tspan><tspan x="143.352" y="7416.916">- the other extremity of the second arc is p2
</tspan><tspan x="143.352" y="7435.249">   with a tangent angle a2</tspan></text><text xml:space="preserve" style="font-size:14.6667px;line-height:1.25;font-family:sans-serif;white-space:pre;shape-inside:url(#l);display:inline" transform="matrix(.26458 0 0 .26458 1 187.543)"><tspan x="320.227" y="7091.125">J</tspan></text><path d="M64.033 2042.584a29.865 29.865 0 0 1 17.668-10.833" style="fill:none;stroke:#8a0;stroke-width:.79375"/><path d="M81.555 2031.626a13.62 13.62 0 0 1 13.87 4.735" style="fill:none;stroke:#00aad4;stroke-width:.79375"/><path d="m81.59 2031.52-7.005 1.369" style="fill:none;stroke:#f60;stroke-width:.264583px;stroke-linecap:butt;stroke-linejoin:miter;stroke-opacity:1;marker-end:url(#m)"/><path d="m81.57 2031.562 7.005-1.368" style="fill:none;stroke:#f60;stroke-width:.264583px;stroke-linecap:butt;stroke-linejoin:miter;stroke-opacity:1;marker-end:url(#n)"/></g></svg>