<svg xmlns="http://www.w3.org/2000/svg" width="288.04" height="259.652" viewBox="0 0 76.211 68.7"><defs><path id="g" d="M420.706 8448.941h77.717v48.312h-77.717z"/><path id="f" d="M251.717 8436.273h62.168v32.45h-62.168z"/><path id="a" d="M86.405 8251.748h70.081v57.682H86.405z"/><path id="b" d="M204.843 8338.396h83.853v42.639h-83.853z"/><path id="c" d="M343.183 8353.117h64.675v45.493h-64.675z"/><path id="d" d="M307.065 8197.744h48.525v24.999h-48.525z"/><path id="e" d="M79.05 8300.684h229.944v49.053H79.05z"/></defs><g transform="translate(-19.96 -2213.721)"><path d="M20.092 2213.854h75.946v68.435H20.092z" style="fill:#fff;stroke:#fff;stroke-width:.264583"/><path d="m31.247 2264.003 13.425-36.783" style="fill:none;stroke:#000;stroke-width:.264583px;stroke-linecap:butt;stroke-linejoin:miter;stroke-opacity:1"/><text xml:space="preserve" style="font-size:14.6667px;line-height:1.25;font-family:sans-serif;white-space:pre;shape-inside:url(#a);display:inline" transform="matrix(.26458 0 0 .26458 3.633 78.794)"><tspan x="86.404" y="8264.725">p1</tspan></text><text xml:space="preserve" style="font-size:14.6667px;line-height:1.25;font-family:sans-serif;white-space:pre;shape-inside:url(#b);display:inline" transform="matrix(.26458 0 0 .26458 -12.264 15.38)"><tspan x="204.844" y="8351.371">p2</tspan></text><text xml:space="preserve" style="font-size:14.6667px;line-height:1.25;font-family:sans-serif;white-space:pre;shape-inside:url(#c);display:inline" transform="matrix(.26458 0 0 .26458 -1.21 36.963)"><tspan x="343.182" y="8366.094">p3</tspan></text><circle cx="47.874" cy="2249.692" r="10.634" style="fill:none;stroke:#d45500;stroke-width:.264583"/><path d="m32.41 2243.924 23.6 8.58" style="fill:none;stroke:#b3b3b3;stroke-width:.264583px;stroke-linecap:butt;stroke-linejoin:miter;stroke-opacity:1"/><path d="m47.788 2249.443 6.006 8.775" style="fill:none;stroke:green;stroke-width:.264583px;stroke-linecap:butt;stroke-linejoin:miter;stroke-opacity:1"/><text xml:space="preserve" style="font-size:14.6667px;line-height:1.25;font-family:sans-serif;white-space:pre;shape-inside:url(#d);display:inline;fill:green" transform="matrix(.26458 0 0 .26458 -28.315 83.17)"><tspan x="307.064" y="8210.721">r</tspan></text><path d="m37.006 2248.031 2.05.75.735-2.236" style="fill:none;stroke:#666;stroke-width:.264583px;stroke-linecap:butt;stroke-linejoin:miter;stroke-opacity:1"/><text xml:space="preserve" style="font-size:14.6667px;line-height:1.25;font-family:sans-serif;white-space:pre;shape-inside:url(#e);display:inline" transform="matrix(.26458 0 0 .26458 2.052 75.614)"><tspan x="79.051" y="8313.66">cornerRounded(radius)
</tspan><tspan x="79.051" y="8331.993">case stroke-ext-arc</tspan></text><path d="M90.756 2246.413a33.9 33.9 0 0 1-27.124.43 33.9 33.9 0 0 1-18.755-19.598l31.824-11.68z" style="fill:none;stroke:#e6e6e6;stroke-width:.264583"/><path d="m76.79 2215.66-43.661 50.654" style="fill:none;stroke:#b3b3b3;stroke-width:.264583px;stroke-linecap:butt;stroke-linejoin:miter;stroke-opacity:1"/><path d="M90.676 2246.266a33.9 33.9 0 0 1-27.124.43 33.9 33.9 0 0 1-18.755-19.599" style="fill:none;stroke:#000;stroke-width:.264583"/><path d="m76.905 2215.73-22.031 25.325" style="fill:none;stroke:#00f;stroke-width:.264583px;stroke-linecap:butt;stroke-linejoin:miter;stroke-opacity:1"/><text xml:space="preserve" style="font-size:14.6667px;line-height:1.25;font-family:sans-serif;white-space:pre;shape-inside:url(#f);display:inline;fill:#00f" transform="matrix(.26458 0 0 .26458 -.982 -3.549)"><tspan x="251.717" y="8449.25">r2</tspan></text><text xml:space="preserve" style="font-size:14.6667px;line-height:1.25;font-family:sans-serif;white-space:pre;shape-inside:url(#g);display:inline" transform="matrix(.26458 0 0 .26458 -34.046 -21.53)"><tspan x="420.705" y="8461.918">p4</tspan></text></g></svg>