<svg xmlns="http://www.w3.org/2000/svg" width="288.04" height="312.453" viewBox="0 0 76.211 82.67"><defs><path id="a" d="M86.405 8251.748h70.081v57.682H86.405z"/><path id="b" d="M204.843 8338.396h83.853v42.639h-83.853z"/><path id="c" d="M343.183 8353.117h64.675v45.493h-64.675z"/><path id="d" d="M307.065 8197.744h48.525v24.999h-48.525z"/><path id="e" d="M79.05 8300.684h229.944v49.053H79.05z"/><path id="f" d="M251.717 8436.273h62.168v32.45h-62.168z"/><path id="g" d="M420.706 8448.941h77.717v48.312h-77.717z"/><path id="h" d="M439.933 9157.379h51.896v43.121h-51.896z"/><path id="i" d="M310.892 9159.202h33.539v27.888h-33.539z"/></defs><g transform="translate(-22.748 -2565.459)"><path d="M22.88 2565.591h75.946v82.406H22.88z" style="fill:#fff;stroke:#fff;stroke-width:.264583"/><text xml:space="preserve" style="font-size:14.6667px;line-height:1.25;font-family:sans-serif;white-space:pre;shape-inside:url(#a);display:inline" transform="matrix(.26458 0 0 .26458 6.97 426.948)"><tspan x="86.404" y="8264.725">p1</tspan></text><text xml:space="preserve" style="font-size:14.6667px;line-height:1.25;font-family:sans-serif;white-space:pre;shape-inside:url(#b);display:inline" transform="matrix(.26458 0 0 .26458 1.248 364.692)"><tspan x="204.844" y="8351.371">p2</tspan></text><text xml:space="preserve" style="font-size:14.6667px;line-height:1.25;font-family:sans-serif;white-space:pre;shape-inside:url(#c);display:inline" transform="matrix(.26458 0 0 .26458 1.483 400.232)"><tspan x="343.182" y="8366.094">p3</tspan></text><path d="m58.921 2605.579 6.006 8.775" style="fill:none;stroke:green;stroke-width:.264583px;stroke-linecap:butt;stroke-linejoin:miter;stroke-opacity:1"/><text xml:space="preserve" style="font-size:14.6667px;line-height:1.25;font-family:sans-serif;white-space:pre;shape-inside:url(#d);display:inline;fill:green" transform="matrix(.26458 0 0 .26458 -22.257 439.932)"><tspan x="307.064" y="8210.721">r</tspan></text><text xml:space="preserve" style="font-size:14.6667px;line-height:1.25;font-family:sans-serif;white-space:pre;shape-inside:url(#e);display:inline" transform="matrix(.26458 0 0 .26458 4.389 440.88)"><tspan x="79.051" y="8313.66">cornerRounded(radius)
</tspan><tspan x="79.051" y="8331.993">case ext-arc-ext-arc</tspan></text><path d="M-2350.134 1057.511a33.9 33.9 0 0 1-27.124.43 33.9 33.9 0 0 1-18.755-19.599l31.824-11.68z" style="fill:none;stroke:#e6e6e6;stroke-width:.264583" transform="scale(-1 1) rotate(-64.483)"/><path d="m92.183 2575.82-51.463 45.935" style="fill:none;stroke:#b3b3b3;stroke-width:.264583px;stroke-linecap:butt;stroke-linejoin:miter;stroke-opacity:1"/><path d="m92.391 2575.862-25.499 22.667" style="fill:none;stroke:#00f;stroke-width:.264583px;stroke-linecap:butt;stroke-linejoin:miter;stroke-opacity:1"/><text xml:space="preserve" style="font-size:14.6667px;line-height:1.25;font-family:sans-serif;white-space:pre;shape-inside:url(#f);display:inline;fill:#00f" transform="matrix(.26458 0 0 .26458 6.302 353.245)"><tspan x="251.717" y="8449.25">r3</tspan></text><text xml:space="preserve" style="font-size:14.6667px;line-height:1.25;font-family:sans-serif;white-space:pre;shape-inside:url(#g);display:inline" transform="matrix(.26458 0 0 .26458 -87.235 336.176)"><tspan x="420.705" y="8461.918">p4</tspan></text><path d="M-2323.535 1189.332a34.173 34.173 0 0 1 18.581-37.402l14.935 30.737z" style="fill:none;stroke:#e6e6e6;stroke-width:.264583" transform="scale(-1 1) rotate(-62.156)"/><path d="M-2323.683 1189.287a34.173 34.173 0 0 1 18.582-37.402" style="fill:none;stroke:#000;stroke-width:.264583" transform="scale(-1 1) rotate(-62.156)"/><circle cx="58.895" cy="2605.49" r="10.634" style="fill:none;stroke:#d45500;stroke-width:.264583"/><path d="m72 2615.92-48.058-38.474" style="fill:none;stroke:#ccc;stroke-width:.264583px;stroke-linecap:butt;stroke-linejoin:miter;stroke-opacity:1"/><path d="m50.576 2598.801-26.673-21.484" style="fill:none;stroke:teal;stroke-width:.264583px;stroke-linecap:butt;stroke-linejoin:miter;stroke-opacity:1"/><text xml:space="preserve" style="font-size:14.6667px;line-height:1.25;font-family:sans-serif;white-space:pre;shape-inside:url(#h);display:inline;fill:teal" transform="matrix(.26458 0 0 .26458 -75.137 164.337)"><tspan x="439.934" y="9170.355">r2</tspan></text><text xml:space="preserve" style="font-size:14.6667px;line-height:1.25;font-family:sans-serif;white-space:pre;shape-inside:url(#i);display:inline" transform="matrix(.26458 0 0 .26458 10.325 148.76)"><tspan x="310.893" y="9172.18">p5</tspan></text><path d="M-2349.892 1057.397a33.9 33.9 0 0 1-27.124.43 33.9 33.9 0 0 1-18.755-19.599" style="fill:none;stroke:#000;stroke-width:.264583" transform="scale(-1 1) rotate(-64.483)"/></g></svg>