<svg xmlns="http://www.w3.org/2000/svg" width="399.391" height="297.572" viewBox="0 0 105.672 78.733"><defs><path id="m" d="M81.064 2843.81h254.209v35.798H81.064z"/><path id="l" d="M385.47 2748.505h21.198v29.764H385.47z"/><path id="k" d="M279.073 2746.856h44.978v50.056h-44.978z"/><path id="j" d="M210.085 2744.655h38.356v35.555h-38.356z"/><path id="i" d="M133.393 2744.662h55.744v61.344h-55.744z"/><path id="h" d="M73.224 2725.996h34.431v43.986H73.224z"/><path id="g" d="M46.666 2703.453h226.105v39.248H46.666z"/><path id="e" d="M79.327 2481.229h104.976v27.254H79.327z"/><path id="d" d="M218.91 2713.124H409.4v24.943H218.91z"/><path id="b" d="M316.851 2712.102h47.701v20.77h-47.701z"/><path id="a" d="M166.645 2687.7h41.617v27.514h-41.617z"/><path id="f" d="M79.327 2481.229h104.976v27.254H79.327z"/><marker id="c" markerHeight="5" markerWidth="8.75" orient="auto-start-reverse" preserveAspectRatio="xMidYMid" refX="0" refY="0" style="overflow:visible" viewBox="0 0 8.75 5"><path d="m0 0 5-5-17.5 5L5 5Z" style="fill:context-stroke;fill-rule:evenodd;stroke:none" transform="scale(-.5)"/></marker></defs><g transform="translate(-20.754 -646.812)"><path d="M20.886 646.944h105.408v78.468H20.886z" style="opacity:1;fill:#fff;stroke:#fff;stroke-width:.264583"/><circle cx="45.011" cy="678.714" r="16.194" style="opacity:1;fill:#fff;stroke:#0cf;stroke-width:.264583"/><circle cx="99.698" cy="678.714" r="23.609" style="opacity:1;fill:#fff;stroke:#0cf;stroke-width:.264583"/><path d="M45.01 678.714h54.688" style="fill:none;stroke:#b3b3b3;stroke-width:.264583px;stroke-linecap:butt;stroke-linejoin:miter;stroke-opacity:1"/><path d="m56.773 667.4 25.856 27.503" style="fill:none;stroke:#000;stroke-width:.264583px;stroke-linecap:butt;stroke-linejoin:miter;stroke-opacity:1"/><path d="m45.103 678.487 11.795-11.082M99.607 678.943l-17.04 16.018" style="fill:none;stroke:#b3b3b3;stroke-width:.264583px;stroke-linecap:butt;stroke-linejoin:miter;stroke-opacity:1"/><path d="m81.676 693.682 1.08-1.008 1.089 1.075M57.898 668.634l-1.08 1.008-1.089-1.075" style="fill:none;stroke:#4d4d4d;stroke-width:.264583px;stroke-linecap:butt;stroke-linejoin:miter;stroke-opacity:1"/><text xml:space="preserve" style="font-size:14.6667px;line-height:1.25;font-family:sans-serif;white-space:pre;shape-inside:url(#a);display:inline" transform="matrix(.26458 0 0 .26458 2.274 -41.688)"><tspan x="166.645" y="2700.676">r1</tspan></text><text xml:space="preserve" style="font-size:14.6667px;line-height:1.25;font-family:sans-serif;white-space:pre;shape-inside:url(#b);display:inline" transform="matrix(.26458 0 0 .26458 2.122 -33.915)"><tspan x="316.852" y="2725.078">r2</tspan></text><path d="M45.103 678.487v33.427M99.607 678.943v33.427" style="fill:none;stroke:#ccc;stroke-width:.264583px;stroke-linecap:butt;stroke-linejoin:miter;stroke-opacity:1"/><path d="M46.787 711.05h51.357" style="fill:none;stroke:#333;stroke-width:.264583px;stroke-linecap:butt;stroke-linejoin:miter;stroke-opacity:1;marker-start:url(#c);marker-end:url(#Arrow1L)"/><text xml:space="preserve" style="font-size:14.6667px;line-height:1.25;font-family:sans-serif;white-space:pre;shape-inside:url(#d);display:inline" transform="matrix(.26458 0 0 .26458 -6.112 -10.944)"><tspan x="218.91" y="2726.1">E: inter-axis distance</tspan></text><text xml:space="preserve" style="font-size:14.6667px;line-height:1.25;font-family:sans-serif;white-space:pre;shape-inside:url(#e);display:inline" transform="matrix(.26458 0 0 .26458 2.404 -.656)"><tspan x="79.326" y="2494.205">base-circle-1</tspan></text><text xml:space="preserve" style="font-size:14.6667px;line-height:1.25;font-family:sans-serif;white-space:pre;shape-inside:url(#f);display:inline" transform="matrix(.26458 0 0 .26458 75.861 -8.157)"><tspan x="79.326" y="2494.205">base-circle-2</tspan></text><path d="m32.85 660.464 2.243 4.605M113.442 652.203l-2.217 4.829" style="fill:none;stroke:#0cf;stroke-width:.264583px;stroke-linecap:butt;stroke-linejoin:miter;stroke-opacity:1"/><text xml:space="preserve" style="font-size:14.6667px;line-height:1.25;font-family:sans-serif;white-space:pre;shape-inside:url(#g);display:inline;fill:#a80" transform="matrix(.26458 0 0 .26458 50.246 -46.27)"><tspan x="46.666" y="2716.43">p=pressure-angle</tspan></text><path d="M65.182 676.41s-.7.651-.805 1.09c-.09.374.188 1.135.188 1.135M69.817 681.015s.7-.652.806-1.092c.09-.372-.189-1.134-.189-1.134M71.06 679.96l3.086-7.243M64.456 676.472l-.133-3.395" style="fill:none;stroke:#d4aa00;stroke-width:.264583px;stroke-linecap:butt;stroke-linejoin:miter;stroke-opacity:1"/><text xml:space="preserve" style="font-size:14.6667px;line-height:1.25;font-family:sans-serif;white-space:pre;shape-inside:url(#h);display:inline" transform="matrix(.26458 0 0 .26458 21.733 -44.416)"><tspan x="73.225" y="2738.973">A</tspan></text><text xml:space="preserve" style="font-size:14.6667px;line-height:1.25;font-family:sans-serif;white-space:pre;shape-inside:url(#i);display:inline" transform="matrix(.26458 0 0 .26458 21.195 -63.785)"><tspan x="133.393" y="2757.639">B</tspan></text><text xml:space="preserve" style="font-size:14.6667px;line-height:1.25;font-family:sans-serif;white-space:pre;shape-inside:url(#j);display:inline" transform="matrix(.26458 0 0 .26458 9.22 -47.293)"><tspan x="210.086" y="2757.633">C</tspan></text><text xml:space="preserve" style="font-size:14.6667px;line-height:1.25;font-family:sans-serif;white-space:pre;shape-inside:url(#k);display:inline" transform="matrix(.26458 0 0 .26458 5.872 -31.658)"><tspan x="279.072" y="2759.832">D</tspan></text><text xml:space="preserve" style="font-size:14.6667px;line-height:1.25;font-family:sans-serif;white-space:pre;shape-inside:url(#l);display:inline" transform="matrix(.26458 0 0 .26458 -2.514 -52.83)"><tspan x="385.471" y="2761.481">E</tspan></text><text xml:space="preserve" style="font-size:14.6667px;line-height:1.25;font-family:sans-serif;white-space:pre;shape-inside:url(#m)" transform="matrix(.26458 0 0 .26458 .217 -31.936)"><tspan x="81.064" y="2856.787">base circle for involute</tspan></text></g></svg>