<svg xmlns="http://www.w3.org/2000/svg" width="462.473" height="317.917" viewBox="0 0 122.363 84.115"><defs><path id="k" d="M98.41 3366.641h177.671v34.953H98.41z"/><path id="j" d="M417.924 3140.907h33.525v26.402h-33.525z"/><path id="i" d="M374.692 3135.078h40.571v25.352h-40.571z"/><path id="h" d="M343.886 3133.064h34.961v28.5h-34.961z"/><path id="g" d="M359.918 3136.877h37.626v19.543h-37.626z"/><path id="f" d="M360.344 3134.619h38.68v21.907h-38.68z"/><path id="e" d="M27.099 3199.546H226.8v43.779H27.099z"/><path id="d" d="M18.208 3149.506h184.303v58.517H18.208z"/><path id="c" d="M24.772 3113.299h184.981v41.387H24.772z"/><path id="b" d="M22.472 3054.229h194.484v43.091H22.472z"/><path id="a" d="M26.727 3009.874h293.938v86.782H26.727z"/></defs><g transform="translate(-21.85 -799.36)"><path d="M21.983 799.492h122.098v83.851H21.983z" style="opacity:1;fill:#fff;stroke:#fff;stroke-width:.264583"/><circle cx="103.896" cy="839.108" r="27.979" style="fill:none;stroke:#0cf;stroke-width:.264582"/><circle cx="103.896" cy="839.108" r="22.448" style="fill:none;stroke:#b3b3b3;stroke-width:.264583"/><circle cx="103.896" cy="839.108" r="24.766" style="fill:none;stroke:green;stroke-width:.264583"/><circle cx="103.896" cy="839.108" r="30.92" style="fill:none;stroke:#d40000;stroke-width:.264583"/><circle cx="103.896" cy="839.108" r="36.725" style="fill:none;stroke:#00f;stroke-width:.264583"/><text xml:space="preserve" style="font-size:14.6667px;line-height:1.25;font-family:sans-serif;white-space:pre;shape-inside:url(#a);fill:#00f" transform="matrix(.26458 0 0 .26458 20.306 19.422)"><tspan x="26.727" y="3022.85">addendum circle</tspan></text><text xml:space="preserve" style="font-size:14.6667px;line-height:1.25;font-family:sans-serif;white-space:pre;shape-inside:url(#b);fill:#a00" transform="matrix(.26458 0 0 .26458 21.383 17.206)"><tspan x="22.473" y="3067.205">primitive circle</tspan></text><text xml:space="preserve" style="font-size:14.6667px;line-height:1.25;font-family:sans-serif;white-space:pre;shape-inside:url(#c);fill:#00aad4" transform="matrix(.26458 0 0 .26458 20.148 9.534)"><tspan x="24.771" y="3126.275">base circle ccw
</tspan><tspan x="24.771" y="3144.609">base circle cw</tspan></text><text xml:space="preserve" style="font-size:14.6667px;line-height:1.25;font-family:sans-serif;white-space:pre;shape-inside:url(#d);fill:green" transform="matrix(.26458 0 0 .26458 18.88 10.536)"><tspan x="18.209" y="3162.483">dedendum circle</tspan></text><text xml:space="preserve" style="font-size:14.6667px;line-height:1.25;font-family:sans-serif;white-space:pre;shape-inside:url(#e);fill:#666" transform="matrix(.26458 0 0 .26458 25.852 5.262)"><tspan x="27.1" y="3212.523">bottom circle</tspan></text><path d="m60.474 819.48 9.703 4.187" style="fill:none;stroke:#00f;stroke-width:.264583px;stroke-linecap:butt;stroke-linejoin:miter;stroke-opacity:1"/><path d="m56.907 828.422 16.255 3.208" style="fill:none;stroke:#a00;stroke-width:.264583px;stroke-linecap:butt;stroke-linejoin:miter;stroke-opacity:1"/><path d="m54.265 838.113 20.734 2.12" style="fill:none;stroke:#0cf;stroke-width:.264583px;stroke-linecap:butt;stroke-linejoin:miter;stroke-opacity:1"/><path d="m56.488 846.166 22.315-2.594" style="fill:none;stroke:green;stroke-width:.264583px;stroke-linecap:butt;stroke-linejoin:miter;stroke-opacity:1"/><path d="m59.035 854.19 23.297-7.166" style="fill:none;stroke:#999;stroke-width:.264583px;stroke-linecap:butt;stroke-linejoin:miter;stroke-opacity:1"/><path d="M90.275 821.326s.917-1.125.98-1.808c.04-.444-.244-.86-.416-1.272-.426-1.017-1.182-1.889-1.523-2.938-.317-.978-.444-2.023-.46-3.051-.022-1.411.113-2.848.503-4.204.33-1.147 1.527-3.238 1.527-3.238l2.402-.841s1.608.796 2.248 1.405c.97.923 1.63 2.135 2.294 3.298.507.888.96 1.817 1.279 2.788.344 1.046.323 2.19.674 3.234.16.474.308.985.644 1.356.293.324 1.123.678 1.123.678l3.517-.035s.61-.538.853-.86c.31-.409.57-.861.758-1.338.408-1.029.416-2.182.785-3.225.333-.941.759-1.857 1.281-2.708.656-1.068 1.414-2.09 2.305-2.97.71-.703 2.39-1.81 2.39-1.81l3.029.914s.735 1.531.87 2.359c.224 1.38.016 2.801-.126 4.192-.1.967-.201 1.95-.507 2.873-.344 1.038-1.07 1.915-1.473 2.931-.133.335-.292.677-.31 1.038-.028.614.36 1.808.36 1.808" style="fill:none;stroke:#000;stroke-width:.529167;stroke-linecap:butt;stroke-linejoin:miter;stroke-opacity:1"/><path d="m82.727 809.112 3.294 4.89" style="fill:none;stroke:#00f;stroke-width:.529167;stroke-linecap:butt;stroke-linejoin:miter;stroke-opacity:1"/><text xml:space="preserve" style="font-size:14.6667px;line-height:1.25;font-family:sans-serif;white-space:pre;shape-inside:url(#f);fill:#00f" transform="matrix(.26458 0 0 .26458 -15.936 -18.59)"><tspan x="360.344" y="3147.596">ah</tspan></text><path d="m89.033 812.488 8.836-3.414" style="fill:none;stroke:#00f;stroke-width:.529167;stroke-linecap:butt;stroke-linejoin:miter;stroke-opacity:1"/><text xml:space="preserve" style="font-size:14.6667px;line-height:1.25;font-family:sans-serif;white-space:pre;shape-inside:url(#g);fill:#00f" transform="matrix(.26458 0 0 .26458 -3.039 -19.463)"><tspan x="359.918" y="3149.854">at</tspan></text><path d="m98.315 809.12 10.083-.188" style="fill:none;stroke:green;stroke-width:.529167;stroke-linecap:butt;stroke-linejoin:miter;stroke-opacity:1"/><text xml:space="preserve" style="font-size:14.6667px;line-height:1.25;font-family:sans-serif;white-space:pre;shape-inside:url(#h);fill:green" transform="matrix(.26458 0 0 .26458 10.288 -19.881)"><tspan x="343.887" y="3146.041">dt</tspan></text><path d="m120.438 813.227-2.842 4.857" style="fill:none;stroke:green;stroke-width:.529167;stroke-linecap:butt;stroke-linejoin:miter;stroke-opacity:1"/><text xml:space="preserve" style="font-size:14.6667px;line-height:1.25;font-family:sans-serif;white-space:pre;shape-inside:url(#i);fill:green" transform="matrix(.26458 0 0 .26458 19.922 -14.588)"><tspan x="374.691" y="3148.055">dh</tspan></text><path d="m122.246 825.885 1.684-1.167" style="fill:none;stroke:#999;stroke-width:.529167;stroke-linecap:butt;stroke-linejoin:miter;stroke-opacity:1"/><text xml:space="preserve" style="font-size:14.6667px;line-height:1.25;font-family:sans-serif;white-space:pre;shape-inside:url(#j);fill:#999" transform="matrix(.26458 0 0 .26458 7.6 -5.188)"><tspan x="417.924" y="3153.883">bh</tspan></text><text xml:space="preserve" style="font-size:14.6667px;line-height:1.25;font-family:sans-serif;white-space:pre;shape-inside:url(#k)" transform="matrix(.26458 0 0 .26458 -2.951 -13.68)"><tspan x="98.41" y="3379.617">gear-wheel circles</tspan></text></g></svg>