<svg xmlns="http://www.w3.org/2000/svg" width="471.325" height="347.333" viewBox="0 0 124.705 91.899"><defs><path id="k" d="M102.017 2425.496h301.235v48.34H102.017z"/><path id="j" d="M172.727 2238.671h183.569v51.675H172.727z"/><path id="h" d="M390.112 2235.986h76.377v36.723h-76.377z"/><path id="g" d="M405.398 2146.102h64.421v41.289h-64.421z"/><path id="b" d="M147.35 2159.946h185.167v81.294H147.35z"/><path id="d" d="M147.35 2159.946h185.167v81.294H147.35z"/><marker id="a" markerHeight="5" markerWidth="8.75" orient="auto-start-reverse" preserveAspectRatio="xMidYMid" refX="0" refY="0" style="overflow:visible" viewBox="0 0 8.75 5"><path d="m0 0 5-5-17.5 5L5 5Z" style="fill:context-stroke;fill-rule:evenodd;stroke:none" transform="scale(-.5)"/></marker><marker id="c" markerHeight="5" markerWidth="8.75" orient="auto-start-reverse" preserveAspectRatio="xMidYMid" refX="0" refY="0" style="overflow:visible" viewBox="0 0 8.75 5"><path d="m0 0 5-5-17.5 5L5 5Z" style="fill:context-stroke;fill-rule:evenodd;stroke:none" transform="scale(-.5)"/></marker><marker id="e" markerHeight="5" markerWidth="8.75" orient="auto-start-reverse" preserveAspectRatio="xMidYMid" refX="0" refY="0" style="overflow:visible" viewBox="0 0 8.75 5"><path d="m0 0 5-5-17.5 5L5 5Z" style="fill:context-stroke;fill-rule:evenodd;stroke:none" transform="scale(-.5)"/></marker><marker id="f" markerHeight="5" markerWidth="8.75" orient="auto-start-reverse" preserveAspectRatio="xMidYMid" refX="0" refY="0" style="overflow:visible" viewBox="0 0 8.75 5"><path d="m0 0 5-5-17.5 5L5 5Z" style="fill:context-stroke;fill-rule:evenodd;stroke:none" transform="scale(-.5)"/></marker><marker id="i" markerHeight="5" markerWidth="8.75" orient="auto-start-reverse" preserveAspectRatio="xMidYMid" refX="0" refY="0" style="overflow:visible" viewBox="0 0 8.75 5"><path d="m0 0 5-5-17.5 5L5 5Z" style="fill:context-stroke;fill-rule:evenodd;stroke:none" transform="scale(-.5)"/></marker></defs><path d="M16.141 488.99h124.44v91.634H16.141z" style="opacity:1;fill:#fff;stroke:#fff;stroke-width:.264583" transform="translate(-16.01 -488.858)"/><path d="m117.846 539.207-4.844-1.397-1.892-12.394-10.447-19.327-9.189-.653-13.187 17.311-.918 12.198-5.618.71-4.178-11.838-14.946-17.813-8.473 1.482-11.505 19.45-2.72 12.851-4.793.636" style="fill:#ccc;stroke:#000;stroke-width:.264583px;stroke-linecap:butt;stroke-linejoin:miter;stroke-opacity:1" transform="translate(-16.01 -488.858)"/><path d="m126.74 499.174-6.647 1.121-.14 18.576.212 12.431-2.6.653-3.146-11.813-6.727-17.83-28.599 2.288-2.213 18.49L76.1 535l-1.94.244-5.399-12.466-7.847-19.602-25.32-3.383" style="fill:#ececec;stroke:#ececec;stroke-width:.264583px;stroke-linecap:butt;stroke-linejoin:miter;stroke-opacity:1" transform="translate(-16.01 -488.858)"/><path d="M18.109 529.479s39.253-6.65 59.062-6.595c18.406.051 54.841 6.435 54.841 6.435" style="fill:none;stroke:#a00;stroke-width:.264583px;stroke-linecap:butt;stroke-linejoin:miter;stroke-opacity:1" transform="translate(-16.01 -488.858)"/><path d="M18.907 541.553s39.252-6.65 59.062-6.595c18.406.052 54.84 6.435 54.84 6.435" style="fill:none;stroke:green;stroke-width:.264583px;stroke-linecap:butt;stroke-linejoin:miter;stroke-opacity:1" transform="translate(-16.01 -488.858)"/><path d="M19.246 510.965s39.253-6.65 59.062-6.595c18.406.052 54.841 6.435 54.841 6.435" style="fill:none;stroke:#00f;stroke-width:.264583px;stroke-linecap:butt;stroke-linejoin:miter;stroke-opacity:1" transform="translate(-16.01 -488.858)"/><path d="M21.91 516.396s39.252 6.65 59.062 6.594c18.406-.051 54.84-6.435 54.84-6.435" style="opacity:.3;fill:none;stroke:#a00;stroke-width:.264583px;stroke-linecap:butt;stroke-linejoin:miter;stroke-opacity:1" transform="translate(-16.01 -488.858)"/><path d="M22.189 497.654s39.253 6.65 59.062 6.594c18.406-.051 54.841-6.435 54.841-6.435" style="opacity:.3;fill:none;stroke:green;stroke-width:.264583px;stroke-linecap:butt;stroke-linejoin:miter;stroke-opacity:1" transform="translate(-16.01 -488.858)"/><path d="M22.528 528.242s39.253 6.65 59.062 6.594c18.406-.051 54.841-6.434 54.841-6.434" style="opacity:.3;fill:none;stroke:#00f;stroke-width:.264583px;stroke-linecap:butt;stroke-linejoin:miter;stroke-opacity:1" transform="translate(-16.01 -488.858)"/><path d="m32.538 527.097 4.393 39.531M67.432 523.525l2.872 38.524M78.903 523.056l2.494 38.938" style="fill:none;stroke:#f0f;stroke-width:.264583px;stroke-linecap:butt;stroke-linejoin:miter;stroke-opacity:1" transform="translate(-16.01 -488.858)"/><path d="m38.156 562.46 30.318-3.388" style="fill:none;stroke:#000;stroke-width:.264583px;stroke-linecap:butt;stroke-linejoin:miter;stroke-opacity:1;marker-start:url(#a);marker-end:url(#Arrow1L)" transform="translate(-16.01 -488.858)"/><text xml:space="preserve" style="font-size:14.6667px;line-height:1.25;font-family:sans-serif;white-space:pre;shape-inside:url(#b)" transform="matrix(.26458 0 0 .26458 -12.239 -498.543)"><tspan x="147.35" y="2172.922">addendum
</tspan><tspan x="147.35" y="2191.255">thickness</tspan></text><path d="m71.386 560.836 8.617-.704" style="fill:none;stroke:#000;stroke-width:.264583px;stroke-linecap:butt;stroke-linejoin:miter;stroke-opacity:1;marker-start:url(#c);marker-end:url(#Arrow1L-9)" transform="translate(-16.01 -488.858)"/><text xml:space="preserve" style="font-size:14.6667px;line-height:1.25;font-family:sans-serif;white-space:pre;shape-inside:url(#d);display:inline" transform="matrix(.26458 0 0 .26458 17.888 -496.541)"><tspan x="147.35" y="2172.922">dedendum
</tspan><tspan x="147.35" y="2191.255">thickness</tspan></text><path d="m94.041 522.404 1.209-14.979" style="fill:none;stroke:#00f;stroke-width:.264583px;stroke-linecap:butt;stroke-linejoin:miter;stroke-opacity:1;marker-start:url(#e);marker-end:url(#Arrow1L-9-2)" transform="translate(-16.01 -488.858)"/><path d="m95.673 535.029.855-9.094" style="fill:none;stroke:green;stroke-width:.264583px;stroke-linecap:butt;stroke-linejoin:miter;stroke-opacity:1;marker-start:url(#f);marker-end:url(#Arrow1L-9-2-1)" transform="translate(-16.01 -488.858)"/><text xml:space="preserve" style="font-size:14.6667px;line-height:1.25;font-family:sans-serif;white-space:pre;shape-inside:url(#g);fill:#00f" transform="matrix(.26458 0 0 .26458 -27.817 -545.456)"><tspan x="405.398" y="2159.078">ah</tspan></text><text xml:space="preserve" style="font-size:14.6667px;line-height:1.25;font-family:sans-serif;white-space:pre;shape-inside:url(#h);fill:green" transform="matrix(.26458 0 0 .26458 -21.932 -552.294)"><tspan x="390.111" y="2248.963">dh</tspan></text><path d="m37.535 554.538 41.152-3.416" style="fill:none;stroke:#000;stroke-width:.264583px;stroke-linecap:butt;stroke-linejoin:miter;stroke-opacity:1;marker-start:url(#i);marker-end:url(#Arrow1L-7)" transform="translate(-16.01 -488.858)"/><text xml:space="preserve" style="font-size:14.6667px;line-height:1.25;font-family:sans-serif;white-space:pre;shape-inside:url(#j)" transform="matrix(.26458 0 0 .26458 -5.676 -533.39)"><tspan x="172.727" y="2251.648">m*PI</tspan></text><text xml:space="preserve" style="font-size:14.6667px;line-height:1.25;font-family:sans-serif;white-space:pre;shape-inside:url(#k)" transform="matrix(.26458 0 0 .26458 -25.614 -555.94)"><tspan x="102.018" y="2438.473">gear module and tooth-thickness</tspan></text></svg>