<svg xmlns="http://www.w3.org/2000/svg" width="600" height="6000" viewBox="0 0 158.75 1587.5"><defs><path id="aj" d="M98.41 3366.641h177.671v34.953H98.41z"/><path id="ai" d="M417.924 3140.907h33.525v26.402h-33.525z"/><path id="ah" d="M374.692 3135.078h40.571v25.352h-40.571z"/><path id="ag" d="M343.886 3133.064h34.961v28.5h-34.961z"/><path id="af" d="M359.918 3136.878h37.627v19.543h-37.627z"/><path id="ae" d="M360.344 3134.619h38.68v21.907h-38.68z"/><path id="ad" d="M27.099 3199.546H226.8v43.779H27.099z"/><path id="ac" d="M18.208 3149.506h184.303v58.517H18.208z"/><path id="ab" d="M24.772 3113.299h184.981v41.387H24.772z"/><path id="aa" d="M22.472 3054.229h194.484v43.091H22.472z"/><path id="Z" d="M26.727 3009.874h293.938v86.782H26.727z"/><path id="Y" d="M81.064 2843.81h254.209v35.798H81.064z"/><path id="X" d="M75.458 2778.571h313.517v113.932H75.458z"/><path id="W" d="M385.47 2748.505h21.198v29.764H385.47z"/><path id="V" d="M279.073 2746.856h44.978v50.056h-44.978z"/><path id="U" d="M210.085 2744.655h38.356v35.555h-38.356z"/><path id="T" d="M133.393 2744.662h55.744v61.344h-55.744z"/><path id="S" d="M73.224 2725.996h34.431v43.986H73.224z"/><path id="R" d="M46.666 2703.453h226.105v39.248H46.666z"/><path id="P" d="M79.327 2481.229h104.976v27.254H79.327z"/><path id="O" d="M218.91 2713.124H409.4v24.943H218.91z"/><path id="N" d="M316.851 2712.102h47.701v20.77h-47.701z"/><path id="M" d="M166.645 2687.7h41.617v27.514h-41.617z"/><path id="L" d="M102.017 2425.496h301.235v48.34H102.017z"/><path id="K" d="M62.814 2218.368H495.97v173.378H62.814z"/><path id="J" d="M172.727 2238.671h183.569v51.675H172.727z"/><path id="H" d="M390.112 2235.986h76.377v36.723h-76.377z"/><path id="G" d="M405.398 2146.102h64.421v41.289h-64.421z"/><path id="B" d="M147.35 2159.946h185.167v81.294H147.35z"/><path id="A" d="M55.201 1504.001h533.79v201.54H55.201z"/><path id="z" d="M50.653 1318.467h373.775v136.72H50.653z"/><path id="y" d="M75.861 1251.557h277.968v31.994H75.861z"/><path id="x" d="M422.808 1075.957h65.877v20.654h-65.877z"/><path id="w" d="M425.802 1087.446h45.196v19.416h-45.196z"/><path id="v" d="M415.522 1086.896h42.306v20.755h-42.306z"/><path id="u" d="M418.092 1077.212h38.821v32.482h-38.821z"/><path id="t" d="M67.826 1358.391h52.191v24.4H67.826z"/><path id="s" d="M211.671 1334.214h83.303v48.308h-83.303z"/><path id="r" d="M257.87 1223.868h173.457v35.181H257.87z"/><path id="p" d="M68.778 918.369h377.101v112.594H68.778z"/><path id="o" d="M64.681 842.861h345.655v20.31H64.681z"/><path id="m" d="M293.505 726.838h149.024v26.215H293.505z"/><path id="l" d="M230.876 578.865h53.601v20.044h-53.601z"/><path id="k" d="M331.332 843.462h163.357v40.192H331.332z"/><path id="j" d="M464.143 22.725h106.578v78.069H464.143z"/><path id="i" d="M373.341 377.486h63.542v29.399h-63.542z"/><path id="g" d="M328.649 353.827h100.013v69.996H328.649z"/><path id="e" d="M102.017 366.915H403.6v161.923H102.017z"/><path id="d" d="M378.204 423.486h60.837v35.808h-60.837z"/><path id="c" d="M189.189 437.611h81.7v41.87h-81.7z"/><path id="b" d="M137.286 279.315h285.907v33.899H137.286z"/><path id="a" d="M18.877 16.917h191.795v47.852H18.877z"/><path id="q" d="M331.332 843.462h163.357v40.192H331.332z"/><path id="n" d="M293.505 726.838h149.024v26.215H293.505z"/><path id="D" d="M147.35 2159.946h185.167v81.294H147.35z"/><path id="Q" d="M79.327 2481.229h104.976v27.254H79.327z"/><marker id="f" markerHeight="5" markerWidth="8.75" orient="auto-start-reverse" preserveAspectRatio="xMidYMid" refX="0" refY="0" style="overflow:visible" viewBox="0 0 8.75 5"><path d="m0 0 5-5-17.5 5L5 5Z" style="fill:context-stroke;fill-rule:evenodd;stroke:none" transform="scale(-.5)"/></marker><marker id="h" markerHeight="5" markerWidth="8.75" orient="auto-start-reverse" preserveAspectRatio="xMidYMid" refX="0" refY="0" style="overflow:visible" viewBox="0 0 8.75 5"><path d="m0 0 5-5-17.5 5L5 5Z" style="fill:context-stroke;fill-rule:evenodd;stroke:none" transform="scale(-.5)"/></marker><marker id="C" markerHeight="5" markerWidth="8.75" orient="auto-start-reverse" preserveAspectRatio="xMidYMid" refX="0" refY="0" style="overflow:visible" viewBox="0 0 8.75 5"><path d="m0 0 5-5-17.5 5L5 5Z" style="fill:context-stroke;fill-rule:evenodd;stroke:none" transform="scale(-.5)"/></marker><marker id="E" markerHeight="5" markerWidth="8.75" orient="auto-start-reverse" preserveAspectRatio="xMidYMid" refX="0" refY="0" style="overflow:visible" viewBox="0 0 8.75 5"><path d="m0 0 5-5-17.5 5L5 5Z" style="fill:context-stroke;fill-rule:evenodd;stroke:none" transform="scale(-.5)"/></marker><marker id="F" markerHeight="5" markerWidth="8.75" orient="auto-start-reverse" preserveAspectRatio="xMidYMid" refX="0" refY="0" style="overflow:visible" viewBox="0 0 8.75 5"><path d="m0 0 5-5-17.5 5L5 5Z" style="fill:context-stroke;fill-rule:evenodd;stroke:none" transform="scale(-.5)"/></marker><marker id="I" markerHeight="5" markerWidth="8.75" orient="auto-start-reverse" preserveAspectRatio="xMidYMid" refX="0" refY="0" style="overflow:visible" viewBox="0 0 8.75 5"><path d="m0 0 5-5-17.5 5L5 5Z" style="fill:context-stroke;fill-rule:evenodd;stroke:none" transform="scale(-.5)"/></marker></defs><path d="M21.983 799.492h122.098v83.851H21.983zM20.886 646.944h105.408v78.468H20.886zM16.141 488.99h124.44v91.634H16.141z" style="opacity:1;fill:#fff;stroke:#fff;stroke-width:.264583"/><path d="m117.846 539.207-4.844-1.397-1.892-12.394-10.447-19.327-9.189-.653-13.187 17.311-.918 12.198-5.618.71-4.178-11.838-14.946-17.813-8.473 1.482-11.505 19.45-2.72 12.851-4.793.636" style="fill:#ccc;stroke:#000;stroke-width:.264583px;stroke-linecap:butt;stroke-linejoin:miter;stroke-opacity:1"/><path d="m126.74 499.174-6.647 1.121-.14 18.576.212 12.431-2.6.653-3.146-11.813-6.727-17.83-28.599 2.288-2.213 18.49L76.1 535l-1.94.244-5.399-12.466-7.847-19.602-25.32-3.383" style="fill:#ececec;stroke:#ececec;stroke-width:.264583px;stroke-linecap:butt;stroke-linejoin:miter;stroke-opacity:1"/><path d="M16.229 261.648h107.824v74.951H16.229zM16.081 146.939h92.553v80.943H16.081z" style="fill:#fff;stroke:#fff;stroke-width:.264583"/><path d="M56.93 51.372 77.305 29.63" style="fill:none;stroke:#b3b3b3;stroke-width:.264583px;stroke-linecap:butt;stroke-linejoin:miter;stroke-opacity:1"/><path d="M30.194 16.851h72.087v65.165H30.194z" style="fill:#fff;stroke:#fff;stroke-width:.264583"/><text xml:space="preserve" style="font-size:14.6667px;line-height:1.25;font-family:sans-serif;white-space:pre;shape-inside:url(#a);display:inline" transform="scale(.26458)"><tspan x="18.877" y="29.893">gears.svg</tspan></text><ellipse cx="56.931" cy="51.372" rx="19.788" ry="19.787" style="fill:none;stroke:teal;stroke-width:.264583"/><ellipse cx="77.304" cy="29.629" rx="9.954" ry="9.953" style="fill:none;stroke:teal;stroke-width:.264583"/><path d="m54.341 53.465 5.18-4.186M59.024 53.961l-4.186-5.178M74.715 31.722l5.179-4.186M79.397 32.218l-4.186-5.178" style="fill:none;stroke:teal;stroke-width:.264583px;stroke-linecap:butt;stroke-linejoin:miter;stroke-opacity:1"/><text xml:space="preserve" style="font-size:14.6667px;line-height:1.25;font-family:sans-serif;white-space:pre;shape-inside:url(#b);display:inline" transform="matrix(.26458 0 0 .26458 -4.448 2.596)"><tspan x="137.287" y="292.291">motion transmission via adherence</tspan></text><path d="M56.93 51.372H37.143M77.304 29.63h9.954" style="fill:none;stroke:#00f;stroke-width:.264583px;stroke-linecap:butt;stroke-linejoin:miter;stroke-opacity:1"/><text xml:space="preserve" style="font-size:14.6667px;line-height:1.25;font-family:sans-serif;white-space:pre;shape-inside:url(#c);display:inline;fill:#00f" transform="matrix(.26458 0 0 .26458 -5.307 -64.299)"><tspan x="189.189" y="450.588">r2</tspan></text><text xml:space="preserve" style="font-size:14.6667px;line-height:1.25;font-family:sans-serif;white-space:pre;shape-inside:url(#d);display:inline;fill:#00f" transform="matrix(.26458 0 0 .26458 -19.665 -82.437)"><tspan x="378.205" y="436.463">r1</tspan></text><text xml:space="preserve" style="font-size:14.6667px;line-height:1.25;font-family:sans-serif;white-space:pre;shape-inside:url(#e);display:inline" transform="scale(.26458)"><tspan x="102.018" y="379.891">speed relation:
</tspan><tspan x="102.018" y="398.224">v=w1*r1=w2*r2
</tspan><tspan x="102.018" y="416.557">w2=w1*r1/r2
</tspan><tspan x="102.018" y="434.891">
</tspan><tspan x="102.018" y="453.224">torque relation:
</tspan><tspan x="102.018" y="471.558">M1=F*r1
</tspan><tspan x="102.018" y="489.891">M2=F*r2
</tspan><tspan x="102.018" y="508.224">M2=M1*r2/r1</tspan></text><path d="M70.417 36.845 57.73 24.962" style="fill:none;stroke:#d45500;stroke-width:.264583px;stroke-linecap:butt;stroke-linejoin:miter;stroke-opacity:1;marker-end:url(#f)"/><text xml:space="preserve" style="font-size:14.6667px;line-height:1.25;font-family:sans-serif;white-space:pre;shape-inside:url(#g);display:inline;fill:#a40" transform="matrix(.26458 0 0 .26458 -26.356 -70.953)"><tspan x="328.648" y="366.805">F</tspan></text><path d="m70.73 37.132-7.655-7.138" style="fill:none;stroke:#f0f;stroke-width:.264583px;stroke-linecap:butt;stroke-linejoin:miter;stroke-opacity:1;marker-end:url(#h)"/><text xml:space="preserve" style="font-size:14.6667px;line-height:1.25;font-family:sans-serif;white-space:pre;shape-inside:url(#i);display:inline;fill:#f0f" transform="matrix(.26458 0 0 .26458 -34.202 -71.883)"><tspan x="373.34" y="390.463">v</tspan></text><text xml:space="preserve" style="font-size:14.6667px;line-height:1.25;font-family:sans-serif;white-space:pre;shape-inside:url(#j);display:inline" transform="scale(.26458)"><tspan x="464.143" y="35.701">gear-wheel
</tspan><tspan x="464.143" y="54.035">gear-bar
</tspan><tspan x="464.143" y="72.368">gear-ring</tspan></text><circle cx="45.62" cy="191.626" r="23.86" style="fill:none;stroke:maroon;stroke-width:.264583"/><circle cx="45.62" cy="191.626" r="28.573" style="fill:none;stroke:#00f;stroke-width:.264583"/><text xml:space="preserve" style="font-size:14.6667px;line-height:1.25;font-family:sans-serif;white-space:pre;shape-inside:url(#k);display:inline;fill:maroon" transform="matrix(.26458 0 0 .26458 -18.052 -10.98)"><tspan x="331.332" y="856.438">primitive circle</tspan></text><path d="m63.252 208.738 6.238 5.42" style="fill:none;stroke:#a00;stroke-width:.264583px;stroke-linecap:butt;stroke-linejoin:miter;stroke-opacity:1"/><path d="M45.59 171s.659-2.132 1.13-3.14c.38-.813.78-1.64 1.362-2.326.613-.723 1.28-1.541 2.186-1.819.444-.135.937.024 1.386.14.389.101.828.188 1.106.477.503.524.64 1.32.78 2.032.182.92.157 1.878.07 2.811-.1 1.073-.677 3.162-.677 3.162M55.775 173.96s1.546-1.61 2.42-2.298c.706-.556 1.436-1.115 2.263-1.465.873-.37 1.836-.802 2.77-.642.458.079.827.442 1.176.748.302.265.655.54.773.924.214.693-.023 1.466-.217 2.165-.25.903-.704 1.748-1.201 2.542-.572.914-2.027 2.52-2.027 2.52" style="fill:none;stroke:#000;stroke-width:.264583px;stroke-linecap:butt;stroke-linejoin:miter;stroke-opacity:1"/><text xml:space="preserve" style="font-size:14.6667px;line-height:1.25;font-family:sans-serif;white-space:pre;shape-inside:url(#l);display:inline" transform="matrix(.26458 0 0 .26458 -5.818 4.8)"><tspan x="230.877" y="591.842">teeth</tspan></text><path d="m54.296 166.578 3.52-4.548M61.39 169.453l-1.317-7.351" style="fill:none;stroke:#000;stroke-width:.264583px;stroke-linecap:butt;stroke-linejoin:miter;stroke-opacity:1"/><text xml:space="preserve" style="font-size:14.6667px;line-height:1.25;font-family:sans-serif;white-space:pre;shape-inside:url(#m);display:inline;fill:#00f" transform="matrix(.26458 0 0 .26458 -3.364 12.46)"><tspan x="293.504" y="739.814">addendum circle</tspan></text><text xml:space="preserve" style="font-size:14.6667px;line-height:1.25;font-family:sans-serif;white-space:pre;shape-inside:url(#n);display:inline;fill:#00f" transform="matrix(.26458 0 0 .26458 12.293 117.308)"><tspan x="293.504" y="739.814">addendum circle</tspan></text><path d="m71.908 204.875 2.439 2.175" style="fill:none;stroke:#00f;stroke-width:.264583px;stroke-linecap:butt;stroke-linejoin:miter;stroke-opacity:1"/><circle cx="90.583" cy="164.974" r="12.42" style="fill:none;stroke:maroon;stroke-width:.264583"/><circle cx="90.583" cy="164.974" r="16.84" style="fill:none;stroke:#00f;stroke-width:.264583"/><path d="M91.29 174.009s-.93 2.029-1.528 2.967c-.483.757-.987 1.526-1.652 2.13-.702.637-1.47 1.362-2.405 1.519-.458.077-.925-.145-1.356-.319-.372-.15-.796-.293-1.034-.616-.43-.585-.462-1.392-.51-2.116-.061-.936.089-1.882.296-2.796.24-1.052 1.082-3.048 1.082-3.048M83.432 170.394s-2.188.44-3.298.506c-.897.054-1.815.097-2.694-.086-.929-.194-1.966-.39-2.642-1.054-.331-.326-.427-.834-.539-1.285-.097-.39-.23-.817-.108-1.2.22-.691.855-1.191 1.413-1.655.721-.598 1.575-1.033 2.437-1.402.991-.424 3.102-.914 3.102-.914" style="fill:none;stroke:#000;stroke-width:.264583px;stroke-linecap:butt;stroke-linejoin:miter;stroke-opacity:1"/><text xml:space="preserve" style="font-size:14.6667px;line-height:1.25;font-family:sans-serif;white-space:pre;shape-inside:url(#o);display:inline" transform="scale(.26458)"><tspan x="64.682" y="855.838">adherence replaced by teeth</tspan></text><text xml:space="preserve" style="font-size:14.6667px;line-height:1.25;font-family:sans-serif;white-space:pre;shape-inside:url(#p);display:inline" transform="scale(.26458)"><tspan x="68.777" y="931.346">- primive circle: original adherence circle
</tspan><tspan x="68.777" y="949.679">- addendum circle: maximum height </tspan></text><circle cx="46.063" cy="296.669" r="23.86" style="fill:none;stroke:maroon;stroke-width:.264583"/><circle cx="46.063" cy="296.669" r="28.573" style="fill:none;stroke:#00f;stroke-width:.264583"/><circle cx="80.054" cy="283.723" r="12.42" style="fill:none;stroke:maroon;stroke-width:.264583"/><circle cx="80.054" cy="283.723" r="20.667" style="fill:none;stroke:#00f;stroke-width:.264582"/><circle cx="80.054" cy="283.723" r="7.902" style="fill:none;stroke:green;stroke-width:.264583"/><circle cx="46.063" cy="296.669" r="15.775" style="fill:none;stroke:green;stroke-width:.264584"/><text xml:space="preserve" style="font-size:14.6667px;line-height:1.25;font-family:sans-serif;white-space:pre;shape-inside:url(#q);display:inline;fill:maroon" transform="matrix(.26458 0 0 .26458 -8.25 92.88)"><tspan x="331.332" y="856.438">primitive circle</tspan></text><text xml:space="preserve" style="font-size:14.6667px;line-height:1.25;font-family:sans-serif;white-space:pre;shape-inside:url(#r);display:inline;fill:green" transform="scale(.26458)"><tspan x="257.869" y="1236.844">dedendum circle</tspan></text><path d="m55.997 311.28 11.705 13.807M79.497 292.539l-8.214 31.929" style="fill:none;stroke:green;stroke-width:.264583px;stroke-linecap:butt;stroke-linejoin:miter;stroke-opacity:1"/><path d="m66.192 312.104 12.003 5.952M82.177 296.709l-.17 19.847" style="fill:none;stroke:#a00;stroke-width:.264583px;stroke-linecap:butt;stroke-linejoin:miter;stroke-opacity:1"/><path d="m74.074 307.55 15.007 4.082M90.924 302.937l.966 7.53" style="fill:none;stroke:#00f;stroke-width:.264583px;stroke-linecap:butt;stroke-linejoin:miter;stroke-opacity:1"/><text xml:space="preserve" style="font-size:14.6667px;line-height:1.25;font-family:sans-serif;white-space:pre;shape-inside:url(#s);display:inline" transform="matrix(.26458 0 0 .26458 22.844 -71.2)"><tspan x="211.67" y="1347.189">1</tspan></text><text xml:space="preserve" style="font-size:14.6667px;line-height:1.25;font-family:sans-serif;white-space:pre;shape-inside:url(#t);display:inline" transform="matrix(.26458 0 0 .26458 27.559 -63.748)"><tspan x="67.826" y="1371.367">2</tspan></text><path d="m89.638 275.625 6.297-4.942" style="fill:none;stroke:#00f;stroke-width:.264583px;stroke-linecap:butt;stroke-linejoin:miter;stroke-opacity:1"/><path d="m42.918 281.372-1.33-8.022" style="fill:none;stroke:green;stroke-width:.264583px;stroke-linecap:butt;stroke-linejoin:miter;stroke-opacity:1"/><text xml:space="preserve" style="font-size:14.6667px;line-height:1.25;font-family:sans-serif;white-space:pre;shape-inside:url(#u);display:inline;fill:#00f" transform="matrix(.26458 0 0 .26458 -24.097 -16.253)"><tspan x="418.092" y="1090.188">ah1</tspan></text><text xml:space="preserve" style="font-size:14.6667px;line-height:1.25;font-family:sans-serif;white-space:pre;shape-inside:url(#v);display:inline;fill:green" transform="matrix(.26458 0 0 .26458 -35.282 -15.535)"><tspan x="415.521" y="1099.873">dh1</tspan></text><path d="m82.595 276.418 1.676-4.28" style="fill:none;stroke:green;stroke-width:.264583px;stroke-linecap:butt;stroke-linejoin:miter;stroke-opacity:1"/><text xml:space="preserve" style="font-size:14.6667px;line-height:1.25;font-family:sans-serif;white-space:pre;shape-inside:url(#w);display:inline;fill:green" transform="matrix(.26458 0 0 .26458 -69.716 -11.536)"><tspan x="425.803" y="1100.422">dh2</tspan></text><text xml:space="preserve" style="font-size:14.6667px;line-height:1.25;font-family:sans-serif;white-space:pre;shape-inside:url(#x);display:inline;fill:#00f" transform="matrix(.26458 0 0 .26458 -66.888 -16.122)"><tspan x="422.809" y="1088.934">ah2</tspan></text><path d="m44.484 273.039-.33-4.764" style="fill:none;stroke:#00f;stroke-width:.264583px;stroke-linecap:butt;stroke-linejoin:miter;stroke-opacity:1"/><text xml:space="preserve" style="font-size:14.6667px;line-height:1.25;font-family:sans-serif;white-space:pre;shape-inside:url(#y);display:inline" transform="scale(.26458)"><tspan x="75.861" y="1264.533">gear addendum and dedendum</tspan></text><text xml:space="preserve" style="font-size:14.6667px;line-height:1.25;font-family:sans-serif;white-space:pre;shape-inside:url(#z);display:inline" transform="scale(.26458)"><tspan x="50.652" y="1331.443">ah1: addendum height of gear-wheel-1
</tspan><tspan x="50.652" y="1349.777">dh1: dedendum height of gear-wheel-1
</tspan><tspan x="50.652" y="1368.11">ah2: addendum height of gear-wheel-2
</tspan><tspan x="50.652" y="1386.444">dh2: dedendum height of gear-wheel-2
</tspan><tspan x="50.652" y="1404.777">dh1=ah2
</tspan><tspan x="50.652" y="1423.11">dh2=ah1</tspan></text><text xml:space="preserve" style="font-size:14.6667px;line-height:1.25;font-family:sans-serif;white-space:pre;shape-inside:url(#A);display:inline" transform="scale(.26458)"><tspan x="55.201" y="1516.977">N: number of teeth of a gear-wheel
</tspan><tspan x="55.201" y="1535.31">D: diameter of the primitive circle of the gear-wheel
</tspan><tspan x="55.201" y="1553.643">m: module of the gear, defined by D/N
</tspan><tspan x="55.201" y="1571.977">circumference of the primitive circle: D*PI
</tspan><tspan x="55.201" y="1590.31">m*PI = thickness (aka length) of one addendum and one dedendum
</tspan><tspan x="55.201" y="1608.643">
</tspan><tspan x="55.201" y="1626.977">The two gear-wheels may have difference diameter and number of </tspan><tspan x="55.201" y="1645.31">teeth but must have the same module</tspan></text><path d="M18.109 529.479s39.253-6.65 59.062-6.595c18.406.051 54.841 6.435 54.841 6.435" style="fill:none;stroke:#a00;stroke-width:.264583px;stroke-linecap:butt;stroke-linejoin:miter;stroke-opacity:1"/><path d="M18.907 541.553s39.252-6.65 59.062-6.595c18.406.052 54.84 6.435 54.84 6.435" style="fill:none;stroke:green;stroke-width:.264583px;stroke-linecap:butt;stroke-linejoin:miter;stroke-opacity:1"/><path d="M19.246 510.965s39.253-6.65 59.062-6.595c18.406.052 54.841 6.435 54.841 6.435" style="fill:none;stroke:#00f;stroke-width:.264583px;stroke-linecap:butt;stroke-linejoin:miter;stroke-opacity:1"/><path d="M21.91 516.396s39.252 6.65 59.062 6.594c18.406-.051 54.84-6.435 54.84-6.435" style="opacity:.3;fill:none;stroke:#a00;stroke-width:.264583px;stroke-linecap:butt;stroke-linejoin:miter;stroke-opacity:1"/><path d="M22.189 497.654s39.253 6.65 59.062 6.594c18.406-.051 54.841-6.435 54.841-6.435" style="opacity:.3;fill:none;stroke:green;stroke-width:.264583px;stroke-linecap:butt;stroke-linejoin:miter;stroke-opacity:1"/><path d="M22.528 528.242s39.253 6.65 59.062 6.594c18.406-.051 54.841-6.434 54.841-6.434" style="opacity:.3;fill:none;stroke:#00f;stroke-width:.264583px;stroke-linecap:butt;stroke-linejoin:miter;stroke-opacity:1"/><path d="m32.538 527.097 4.393 39.531M67.432 523.525l2.872 38.524M78.903 523.056l2.494 38.938" style="fill:none;stroke:#f0f;stroke-width:.264583px;stroke-linecap:butt;stroke-linejoin:miter;stroke-opacity:1"/><path d="m38.156 562.46 30.318-3.388" style="fill:none;stroke:#000;stroke-width:.264583px;stroke-linecap:butt;stroke-linejoin:miter;stroke-opacity:1;marker-start:url(#f);marker-end:url(#Arrow1L)"/><text xml:space="preserve" style="font-size:14.6667px;line-height:1.25;font-family:sans-serif;white-space:pre;shape-inside:url(#B);display:inline" transform="matrix(.26458 0 0 .26458 3.77 -9.686)"><tspan x="147.35" y="2172.922">addendum
</tspan><tspan x="147.35" y="2191.255">thickness</tspan></text><path d="m71.386 560.836 8.617-.704" style="fill:none;stroke:#000;stroke-width:.264583px;stroke-linecap:butt;stroke-linejoin:miter;stroke-opacity:1;marker-start:url(#C);marker-end:url(#Arrow1L-9)"/><text xml:space="preserve" style="font-size:14.6667px;line-height:1.25;font-family:sans-serif;white-space:pre;shape-inside:url(#D);display:inline" transform="matrix(.26458 0 0 .26458 33.897 -7.683)"><tspan x="147.35" y="2172.922">dedendum
</tspan><tspan x="147.35" y="2191.255">thickness</tspan></text><path d="m94.041 522.404 1.209-14.979" style="fill:none;stroke:#00f;stroke-width:.264583px;stroke-linecap:butt;stroke-linejoin:miter;stroke-opacity:1;marker-start:url(#E);marker-end:url(#Arrow1L-9-2)"/><path d="m95.673 535.029.855-9.094" style="fill:none;stroke:green;stroke-width:.264583px;stroke-linecap:butt;stroke-linejoin:miter;stroke-opacity:1;marker-start:url(#F);marker-end:url(#Arrow1L-9-2-1)"/><text xml:space="preserve" style="font-size:14.6667px;line-height:1.25;font-family:sans-serif;white-space:pre;shape-inside:url(#G);display:inline;fill:#00f" transform="matrix(.26458 0 0 .26458 -11.808 -56.598)"><tspan x="405.398" y="2159.078">ah</tspan></text><text xml:space="preserve" style="font-size:14.6667px;line-height:1.25;font-family:sans-serif;white-space:pre;shape-inside:url(#H);display:inline;fill:green" transform="matrix(.26458 0 0 .26458 -5.922 -63.436)"><tspan x="390.111" y="2248.963">dh</tspan></text><path d="m37.535 554.538 41.152-3.416" style="fill:none;stroke:#000;stroke-width:.264583px;stroke-linecap:butt;stroke-linejoin:miter;stroke-opacity:1;marker-start:url(#I);marker-end:url(#Arrow1L-7)"/><text xml:space="preserve" style="font-size:14.6667px;line-height:1.25;font-family:sans-serif;white-space:pre;shape-inside:url(#J);display:inline" transform="matrix(.26458 0 0 .26458 10.333 -44.532)"><tspan x="172.727" y="2251.648">m*PI</tspan></text><text xml:space="preserve" style="font-size:14.6667px;line-height:1.25;font-family:sans-serif;white-space:pre;shape-inside:url(#K);display:inline" transform="scale(.26458)"><tspan x="62.814" y="2231.344">at1: addendum thickness of gear-wheel-1
</tspan><tspan x="62.814" y="2249.677">dt1: dedendum thickness of gear-wheel-1
</tspan><tspan x="62.814" y="2268.011">at2: addendum thickness of gear-wheel-2
</tspan><tspan x="62.814" y="2286.344">dt2: dedendum thickness of gear-wheel-2
</tspan><tspan x="62.814" y="2304.678">dt2=at1
</tspan><tspan x="62.814" y="2323.011">dt1=at2</tspan></text><text xml:space="preserve" style="font-size:14.6667px;line-height:1.25;font-family:sans-serif;white-space:pre;shape-inside:url(#L);display:inline" transform="matrix(.26458 0 0 .26458 -9.604 -67.083)"><tspan x="102.018" y="2438.473">gear module and tooth-thickness</tspan></text><circle cx="45.011" cy="678.714" r="16.194" style="opacity:1;fill:#fff;stroke:#0cf;stroke-width:.264583"/><circle cx="99.698" cy="678.714" r="23.609" style="opacity:1;fill:#fff;stroke:#0cf;stroke-width:.264583"/><path d="M45.01 678.714h54.688" style="fill:none;stroke:#b3b3b3;stroke-width:.264583px;stroke-linecap:butt;stroke-linejoin:miter;stroke-opacity:1"/><path d="m56.773 667.4 25.856 27.503" style="fill:none;stroke:#000;stroke-width:.264583px;stroke-linecap:butt;stroke-linejoin:miter;stroke-opacity:1"/><path d="m45.103 678.487 11.795-11.082M99.607 678.943l-17.04 16.018" style="fill:none;stroke:#b3b3b3;stroke-width:.264583px;stroke-linecap:butt;stroke-linejoin:miter;stroke-opacity:1"/><path d="m81.676 693.682 1.08-1.008 1.089 1.075M57.898 668.634l-1.08 1.008-1.089-1.075" style="fill:none;stroke:#4d4d4d;stroke-width:.264583px;stroke-linecap:butt;stroke-linejoin:miter;stroke-opacity:1"/><text xml:space="preserve" style="font-size:14.6667px;line-height:1.25;font-family:sans-serif;white-space:pre;shape-inside:url(#M);display:inline" transform="matrix(.26458 0 0 .26458 2.274 -41.688)"><tspan x="166.645" y="2700.676">r1</tspan></text><text xml:space="preserve" style="font-size:14.6667px;line-height:1.25;font-family:sans-serif;white-space:pre;shape-inside:url(#N);display:inline" transform="matrix(.26458 0 0 .26458 2.122 -33.915)"><tspan x="316.852" y="2725.078">r2</tspan></text><path d="M45.103 678.487v33.427M99.607 678.943v33.427" style="fill:none;stroke:#ccc;stroke-width:.264583px;stroke-linecap:butt;stroke-linejoin:miter;stroke-opacity:1"/><path d="M46.787 711.05h51.357" style="fill:none;stroke:#333;stroke-width:.264583px;stroke-linecap:butt;stroke-linejoin:miter;stroke-opacity:1;marker-start:url(#f);marker-end:url(#Arrow1L)"/><text xml:space="preserve" style="font-size:14.6667px;line-height:1.25;font-family:sans-serif;white-space:pre;shape-inside:url(#O);display:inline" transform="matrix(.26458 0 0 .26458 -6.112 -10.944)"><tspan x="218.91" y="2726.1">E: inter-axis distance</tspan></text><text xml:space="preserve" style="font-size:14.6667px;line-height:1.25;font-family:sans-serif;white-space:pre;shape-inside:url(#P);display:inline" transform="matrix(.26458 0 0 .26458 2.404 -.656)"><tspan x="79.326" y="2494.205">base-circle-1</tspan></text><text xml:space="preserve" style="font-size:14.6667px;line-height:1.25;font-family:sans-serif;white-space:pre;shape-inside:url(#Q);display:inline" transform="matrix(.26458 0 0 .26458 75.861 -8.157)"><tspan x="79.326" y="2494.205">base-circle-2</tspan></text><path d="m32.85 660.464 2.243 4.605M113.442 652.203l-2.217 4.829" style="fill:none;stroke:#0cf;stroke-width:.264583px;stroke-linecap:butt;stroke-linejoin:miter;stroke-opacity:1"/><text xml:space="preserve" style="font-size:14.6667px;line-height:1.25;font-family:sans-serif;white-space:pre;shape-inside:url(#R);display:inline;fill:#a80" transform="matrix(.26458 0 0 .26458 50.246 -46.27)"><tspan x="46.666" y="2716.43">p=pressure-angle</tspan></text><path d="M65.182 676.41s-.7.651-.805 1.09c-.09.374.188 1.135.188 1.135M69.817 681.015s.7-.652.806-1.092c.09-.372-.189-1.134-.189-1.134M71.06 679.96l3.086-7.243M64.456 676.472l-.133-3.395" style="fill:none;stroke:#d4aa00;stroke-width:.264583px;stroke-linecap:butt;stroke-linejoin:miter;stroke-opacity:1"/><text xml:space="preserve" style="font-size:14.6667px;line-height:1.25;font-family:sans-serif;white-space:pre;shape-inside:url(#S);display:inline" transform="matrix(.26458 0 0 .26458 21.733 -44.416)"><tspan x="73.225" y="2738.973">A</tspan></text><text xml:space="preserve" style="font-size:14.6667px;line-height:1.25;font-family:sans-serif;white-space:pre;shape-inside:url(#T);display:inline" transform="matrix(.26458 0 0 .26458 21.195 -63.785)"><tspan x="133.393" y="2757.639">B</tspan></text><text xml:space="preserve" style="font-size:14.6667px;line-height:1.25;font-family:sans-serif;white-space:pre;shape-inside:url(#U);display:inline" transform="matrix(.26458 0 0 .26458 9.22 -47.293)"><tspan x="210.086" y="2757.633">C</tspan></text><text xml:space="preserve" style="font-size:14.6667px;line-height:1.25;font-family:sans-serif;white-space:pre;shape-inside:url(#V);display:inline" transform="matrix(.26458 0 0 .26458 5.872 -31.658)"><tspan x="279.072" y="2759.832">D</tspan></text><text xml:space="preserve" style="font-size:14.6667px;line-height:1.25;font-family:sans-serif;white-space:pre;shape-inside:url(#W);display:inline" transform="matrix(.26458 0 0 .26458 -2.514 -52.83)"><tspan x="385.471" y="2761.481">E</tspan></text><text xml:space="preserve" style="font-size:14.6667px;line-height:1.25;font-family:sans-serif;white-space:pre;shape-inside:url(#X);display:inline" transform="scale(.26458)"><tspan x="75.457" y="2791.547">tan(p) = r1/AC = r2/CE
</tspan><tspan x="75.457" y="2809.88">AC = CE*r1/r2</tspan></text><text xml:space="preserve" style="font-size:14.6667px;line-height:1.25;font-family:sans-serif;white-space:pre;shape-inside:url(#Y);display:inline" transform="matrix(.26458 0 0 .26458 .217 -31.936)"><tspan x="81.064" y="2856.787">base circle for involute</tspan></text><circle cx="103.896" cy="839.108" r="27.979" style="fill:none;stroke:#0cf;stroke-width:.264582"/><circle cx="103.896" cy="839.108" r="22.448" style="fill:none;stroke:#b3b3b3;stroke-width:.264583"/><circle cx="103.896" cy="839.108" r="24.766" style="fill:none;stroke:green;stroke-width:.264583"/><circle cx="103.896" cy="839.108" r="30.92" style="fill:none;stroke:#d40000;stroke-width:.264583"/><circle cx="103.896" cy="839.108" r="36.725" style="fill:none;stroke:#00f;stroke-width:.264583"/><text xml:space="preserve" style="font-size:14.6667px;line-height:1.25;font-family:sans-serif;white-space:pre;shape-inside:url(#Z);fill:#00f" transform="matrix(.26458 0 0 .26458 20.306 19.422)"><tspan x="26.727" y="3022.85">addendum circle</tspan></text><text xml:space="preserve" style="font-size:14.6667px;line-height:1.25;font-family:sans-serif;white-space:pre;shape-inside:url(#aa);fill:#a00" transform="matrix(.26458 0 0 .26458 21.383 17.206)"><tspan x="22.473" y="3067.205">primitive circle</tspan></text><text xml:space="preserve" style="font-size:14.6667px;line-height:1.25;font-family:sans-serif;white-space:pre;shape-inside:url(#ab);fill:#00aad4" transform="matrix(.26458 0 0 .26458 20.148 9.534)"><tspan x="24.771" y="3126.275">base circle ccw
</tspan><tspan x="24.771" y="3144.609">base circle cw</tspan></text><text xml:space="preserve" style="font-size:14.6667px;line-height:1.25;font-family:sans-serif;white-space:pre;shape-inside:url(#ac);fill:green" transform="matrix(.26458 0 0 .26458 18.88 10.536)"><tspan x="18.209" y="3162.483">dedendum circle</tspan></text><text xml:space="preserve" style="font-size:14.6667px;line-height:1.25;font-family:sans-serif;white-space:pre;shape-inside:url(#ad);fill:#666" transform="matrix(.26458 0 0 .26458 25.852 5.262)"><tspan x="27.1" y="3212.523">bottom circle</tspan></text><path d="m60.474 819.48 9.703 4.187" style="fill:none;stroke:#00f;stroke-width:.264583px;stroke-linecap:butt;stroke-linejoin:miter;stroke-opacity:1"/><path d="m56.907 828.422 16.255 3.208" style="fill:none;stroke:#a00;stroke-width:.264583px;stroke-linecap:butt;stroke-linejoin:miter;stroke-opacity:1"/><path d="m54.265 838.113 20.734 2.12" style="fill:none;stroke:#0cf;stroke-width:.264583px;stroke-linecap:butt;stroke-linejoin:miter;stroke-opacity:1"/><path d="m56.488 846.166 22.315-2.594" style="fill:none;stroke:green;stroke-width:.264583px;stroke-linecap:butt;stroke-linejoin:miter;stroke-opacity:1"/><path d="m59.035 854.19 23.297-7.166" style="fill:none;stroke:#999;stroke-width:.264583px;stroke-linecap:butt;stroke-linejoin:miter;stroke-opacity:1"/><path d="M90.275 821.326s.917-1.125.98-1.808c.04-.444-.244-.86-.416-1.272-.426-1.017-1.182-1.889-1.523-2.938-.317-.978-.444-2.023-.46-3.051-.022-1.411.113-2.848.503-4.204.33-1.147 1.527-3.238 1.527-3.238l2.402-.841s1.608.796 2.248 1.405c.97.923 1.63 2.135 2.294 3.298.507.888.96 1.817 1.279 2.788.344 1.046.323 2.19.674 3.234.16.474.308.985.644 1.356.293.324 1.123.678 1.123.678l3.517-.035s.61-.538.853-.86c.31-.409.57-.861.758-1.338.408-1.029.416-2.182.785-3.225.333-.941.759-1.857 1.281-2.708.656-1.068 1.414-2.09 2.305-2.97.71-.703 2.39-1.81 2.39-1.81l3.029.914s.735 1.531.87 2.359c.224 1.38.016 2.801-.126 4.192-.1.967-.201 1.95-.507 2.873-.344 1.038-1.07 1.915-1.473 2.931-.133.335-.292.677-.31 1.038-.028.614.36 1.808.36 1.808" style="fill:none;stroke:#000;stroke-width:.52916667;stroke-linecap:butt;stroke-linejoin:miter;stroke-opacity:1"/><path d="m82.727 809.112 3.294 4.89" style="fill:none;stroke:#00f;stroke-width:.529167;stroke-linecap:butt;stroke-linejoin:miter;stroke-opacity:1"/><text xml:space="preserve" style="font-size:14.6667px;line-height:1.25;font-family:sans-serif;white-space:pre;shape-inside:url(#ae);fill:#00f" transform="matrix(.26458 0 0 .26458 -15.936 -18.59)"><tspan x="360.344" y="3147.596">ah</tspan></text><path d="m89.033 812.488 8.836-3.414" style="fill:none;stroke:#00f;stroke-width:.529167;stroke-linecap:butt;stroke-linejoin:miter;stroke-opacity:1"/><text xml:space="preserve" style="font-size:14.6667px;line-height:1.25;font-family:sans-serif;white-space:pre;shape-inside:url(#af);fill:#00f" transform="matrix(.26458 0 0 .26458 -3.039 -19.463)"><tspan x="359.918" y="3149.854">at</tspan></text><path d="m98.315 809.12 10.083-.188" style="fill:none;stroke:green;stroke-width:.529167;stroke-linecap:butt;stroke-linejoin:miter;stroke-opacity:1"/><text xml:space="preserve" style="font-size:14.6667px;line-height:1.25;font-family:sans-serif;white-space:pre;shape-inside:url(#ag);fill:green" transform="matrix(.26458 0 0 .26458 10.288 -19.881)"><tspan x="343.887" y="3146.041">dt</tspan></text><path d="m120.438 813.227-2.842 4.857" style="fill:none;stroke:green;stroke-width:.529167;stroke-linecap:butt;stroke-linejoin:miter;stroke-opacity:1"/><text xml:space="preserve" style="font-size:14.6667px;line-height:1.25;font-family:sans-serif;white-space:pre;shape-inside:url(#ah);fill:green" transform="matrix(.26458 0 0 .26458 19.922 -14.588)"><tspan x="374.691" y="3148.055">dh</tspan></text><path d="m122.246 825.885 1.684-1.167" style="fill:none;stroke:#999;stroke-width:.52916667;stroke-linecap:butt;stroke-linejoin:miter;stroke-opacity:1"/><text xml:space="preserve" style="font-size:14.6667px;line-height:1.25;font-family:sans-serif;white-space:pre;shape-inside:url(#ai);fill:#999" transform="matrix(.26458 0 0 .26458 7.6 -5.188)"><tspan x="417.924" y="3153.883">bh</tspan></text><text xml:space="preserve" style="font-size:14.6667px;line-height:1.25;font-family:sans-serif;white-space:pre;shape-inside:url(#aj)" transform="matrix(.26458 0 0 .26458 -2.951 -13.68)"><tspan x="98.41" y="3379.617">gear-wheel circles</tspan></text></svg>