<svg xmlns="http://www.w3.org/2000/svg" width="431.116" height="318.041" viewBox="0 0 114.066 84.148"><defs><path id="q" d="M-59.492 2664.599H156.66v28.726H-59.492z"/><path id="p" d="M189.313 2635.963h65.985v18.378h-65.985z"/><path id="n" d="M85.986 2625.869h42.463v16.723H85.986z"/><path id="m" d="M475.123 2772.067h157.898v48.357H475.123z"/><path id="l" d="M81.064 2843.81h254.209v35.798H81.064z"/><path id="k" d="M385.47 2748.505h21.198v29.764H385.47z"/><path id="j" d="M279.073 2746.856h44.978v50.056h-44.978z"/><path id="i" d="M210.085 2744.655h38.356v35.555h-38.356z"/><path id="h" d="M133.393 2744.662h55.744v61.344h-55.744z"/><path id="g" d="M73.224 2725.996h34.431v43.986H73.224z"/><path id="e" d="M79.327 2481.229h163.681v22.612H79.327z"/><path id="d" d="M218.91 2713.124H409.4v24.943H218.91z"/><path id="b" d="M316.851 2712.102h47.701v20.77h-47.701z"/><path id="a" d="M166.645 2687.7h41.617v27.514h-41.617z"/><path id="f" d="M79.327 2481.229h192.789v25.134H79.327z"/><marker id="c" markerHeight="5" markerWidth="8.75" orient="auto-start-reverse" preserveAspectRatio="xMidYMid" refX="0" refY="0" style="overflow:visible" viewBox="0 0 8.75 5"><path d="m0 0 5-5-17.5 5L5 5Z" style="fill:context-stroke;fill-rule:evenodd;stroke:none" transform="scale(-.5)"/></marker><marker id="o" markerHeight="5" markerWidth="8.75" orient="auto-start-reverse" preserveAspectRatio="xMidYMid" refX="0" refY="0" style="overflow:visible" viewBox="0 0 8.75 5"><path d="m0 0 5-5-17.5 5L5 5Z" style="fill:context-stroke;fill-rule:evenodd;stroke:none" transform="scale(-.5)"/></marker></defs><g transform="translate(-12.36 -641.396)"><path d="M12.492 641.528h113.802v83.884H12.492z" style="opacity:1;fill:#fff;stroke:#fff;stroke-width:.264583"/><path d="M67.444 671.099v15.163" style="fill:none;stroke:#b3b3b3;stroke-width:.264583px;stroke-linecap:butt;stroke-linejoin:miter;stroke-opacity:1"/><circle cx="45.011" cy="678.714" r="16.194" style="opacity:1;fill:none;stroke:#0cf;stroke-width:.264583"/><circle cx="99.698" cy="678.714" r="23.609" style="opacity:1;fill:none;stroke:#0cf;stroke-width:.264583"/><path d="M45.01 678.714h54.688" style="fill:none;stroke:#b3b3b3;stroke-width:.264583px;stroke-linecap:butt;stroke-linejoin:miter;stroke-opacity:1"/><path d="m56.773 667.4 25.856 27.503" style="fill:none;stroke:#00f;stroke-width:.264583px;stroke-linecap:butt;stroke-linejoin:miter;stroke-opacity:1"/><path d="m45.103 678.487 11.795-11.082M99.607 678.943l-17.04 16.018" style="fill:none;stroke:teal;stroke-width:.264583px;stroke-linecap:butt;stroke-linejoin:miter;stroke-opacity:1"/><path d="m81.676 693.682 1.08-1.008 1.089 1.075M57.898 668.634l-1.08 1.008-1.089-1.075" style="fill:none;stroke:#4d4d4d;stroke-width:.264583px;stroke-linecap:butt;stroke-linejoin:miter;stroke-opacity:1"/><text xml:space="preserve" style="font-size:14.6667px;line-height:1.25;font-family:sans-serif;white-space:pre;shape-inside:url(#a);display:inline;fill:teal" transform="matrix(.26458 0 0 .26458 -.901 -42.747)"><tspan x="166.645" y="2700.676">brr1</tspan></text><text xml:space="preserve" style="font-size:14.6667px;line-height:1.25;font-family:sans-serif;white-space:pre;shape-inside:url(#b);display:inline;fill:teal" transform="matrix(.26458 0 0 .26458 -1.582 -34.444)"><tspan x="316.852" y="2725.078">brr2</tspan></text><path d="M45.103 678.487v33.427M99.607 678.943v33.427" style="fill:none;stroke:#ccc;stroke-width:.264583px;stroke-linecap:butt;stroke-linejoin:miter;stroke-opacity:1"/><path d="M46.787 711.05h51.357" style="fill:none;stroke:#333;stroke-width:.264583px;stroke-linecap:butt;stroke-linejoin:miter;stroke-opacity:1;marker-start:url(#c);marker-end:url(#Arrow1L)"/><text xml:space="preserve" style="font-size:14.6667px;line-height:1.25;font-family:sans-serif;white-space:pre;shape-inside:url(#d);display:inline" transform="matrix(.26458 0 0 .26458 -6.112 -10.944)"><tspan x="218.91" y="2726.1">e: inter-axis distance</tspan></text><text xml:space="preserve" style="font-size:14.6667px;line-height:1.25;font-family:sans-serif;white-space:pre;shape-inside:url(#e);display:inline" transform="matrix(.26458 0 0 .26458 -7.927 -2.727)"><tspan x="79.326" y="2494.205">base-right-circle-1</tspan></text><text xml:space="preserve" style="font-size:14.6667px;line-height:1.25;font-family:sans-serif;white-space:pre;shape-inside:url(#f);display:inline" transform="matrix(.26458 0 0 .26458 68.92 -11.262)"><tspan x="79.326" y="2494.205">base-right-circle-2</tspan></text><path d="m31.474 657.554 3.107 7.7M115.27 649.292l-3.461 8.054" style="fill:none;stroke:#0cf;stroke-width:.264583px;stroke-linecap:butt;stroke-linejoin:miter;stroke-opacity:1"/><text xml:space="preserve" style="font-size:14.6667px;line-height:1.25;font-family:sans-serif;white-space:pre;shape-inside:url(#g);display:inline" transform="matrix(.26458 0 0 .26458 21.733 -44.416)"><tspan x="73.225" y="2738.973">A</tspan></text><text xml:space="preserve" style="font-size:14.6667px;line-height:1.25;font-family:sans-serif;white-space:pre;shape-inside:url(#h);display:inline" transform="matrix(.26458 0 0 .26458 21.195 -63.785)"><tspan x="133.393" y="2757.639">B</tspan></text><text xml:space="preserve" style="font-size:14.6667px;line-height:1.25;font-family:sans-serif;white-space:pre;shape-inside:url(#i);display:inline" transform="matrix(.26458 0 0 .26458 8.662 -47.543)"><tspan x="210.086" y="2757.633">C</tspan></text><text xml:space="preserve" style="font-size:14.6667px;line-height:1.25;font-family:sans-serif;white-space:pre;shape-inside:url(#j);display:inline" transform="matrix(.26458 0 0 .26458 5.872 -31.658)"><tspan x="279.072" y="2759.832">D</tspan></text><text xml:space="preserve" style="font-size:14.6667px;line-height:1.25;font-family:sans-serif;white-space:pre;shape-inside:url(#k);display:inline" transform="matrix(.26458 0 0 .26458 -2.514 -52.83)"><tspan x="385.471" y="2761.481">E</tspan></text><text xml:space="preserve" style="font-size:14.6667px;line-height:1.25;font-family:sans-serif;white-space:pre;shape-inside:url(#l);display:inline" transform="matrix(.26458 0 0 .26458 -7.557 -32.232)"><tspan x="81.064" y="2856.787">base circle for involute</tspan></text><path d="M31.01 683.958s-.987-2.266-1.125-3.475c-.156-1.362.348-4.097.348-4.097" style="fill:none;stroke:#000;stroke-width:.264583;stroke-linecap:butt;stroke-linejoin:miter;stroke-opacity:1;marker-end:url(#c)"/><text xml:space="preserve" style="font-size:14.6667px;line-height:1.25;font-family:sans-serif;white-space:pre;shape-inside:url(#m);display:inline;fill:#00f" transform="matrix(.26458 0 0 .26458 -74.156 -91.254)"><tspan x="475.123" y="2785.043">line of action
</tspan><tspan x="475.123" y="2803.376">pressure line</tspan></text><path d="m67.294 651.21-3.91 22.101" style="fill:none;stroke:#00f;stroke-width:.264583px;stroke-linecap:butt;stroke-linejoin:miter;stroke-opacity:1"/><text xml:space="preserve" style="font-size:14.6667px;line-height:1.25;font-family:sans-serif;white-space:pre;shape-inside:url(#n)" transform="matrix(.26458 0 0 .26458 8.05 -17.323)"><tspan x="85.986" y="2638.846">cw</tspan></text><path d="M121.21 683.489s.986-2.266 1.125-3.476c.156-1.361-.349-4.097-.349-4.097" style="fill:none;stroke:#000;stroke-width:.264583;stroke-linecap:butt;stroke-linejoin:miter;stroke-opacity:1;marker-end:url(#o)"/><text xml:space="preserve" style="font-size:14.6667px;line-height:1.25;font-family:sans-serif;white-space:pre;shape-inside:url(#p)" transform="matrix(.26458 0 0 .26458 64.205 -20.471)"><tspan x="189.313" y="2648.939">ccw</tspan></text><path d="M57.188 689.66s1.201 1.134 1.954 1.422c1.104.42 2.357.52 3.526.354 1.85-.263 5.201-2.09 5.201-2.09M52.56 693.116s.644 1.521 1.218 2.087c.842.829 1.95 1.422 3.088 1.74 1.799.502 5.601.175 5.601.175M46.656 694.931s.15 1.646.525 2.359c.55 1.046 1.423 1.95 2.41 2.599 1.56 1.027 5.282 1.874 5.282 1.874M78.585 668.16s-1.42-.843-2.218-.958c-1.17-.169-2.414.01-3.518.429-1.747.662-4.615 3.18-4.615 3.18M81.663 663.276s-1.168-1.169-1.912-1.478c-1.09-.453-2.34-.588-3.515-.456-1.856.21-5.258 1.938-5.258 1.938M85.92 659.477s-.696-1.498-1.288-2.044c-.87-.8-1.997-1.356-3.145-1.635-1.815-.441-5.604.015-5.604.015" style="fill:none;stroke:#f95;stroke-width:.264583px;stroke-linecap:butt;stroke-linejoin:miter;stroke-opacity:1"/><text xml:space="preserve" style="font-size:14.6667px;line-height:1.25;font-family:sans-serif;white-space:pre;shape-inside:url(#q);fill:#f95" transform="matrix(.26458 0 0 .26458 29.793 -1.46)"><tspan x="-59.492" y="2677.576">involute of circle</tspan></text><path d="m46.669 704.525 3.088-3.405" style="fill:none;stroke:#ffb380;stroke-width:.264583px;stroke-linecap:butt;stroke-linejoin:miter;stroke-opacity:1"/><path d="M91.918 656.26s-.48-1.58-.99-2.204c-.75-.913-1.789-1.62-2.887-2.057-1.736-.69-5.551-.767-5.551-.767" style="fill:none;stroke:#f95;stroke-width:.264583px;stroke-linecap:butt;stroke-linejoin:miter;stroke-opacity:1"/></g></svg>