<svg xmlns="http://www.w3.org/2000/svg" width="273.455" height="247.294" viewBox="0 0 72.352 65.43"><defs><path id="g" d="M373.341 377.486h63.542v29.399h-63.542z"/><path id="e" d="M328.649 353.827h100.013v69.996H328.649z"/><path id="c" d="M378.204 423.486h60.837v35.808h-60.837z"/><path id="b" d="M189.189 437.611h81.7v41.87h-81.7z"/><path id="a" d="M137.286 279.315h285.907v33.899H137.286z"/><marker id="d" markerHeight="5" markerWidth="8.75" orient="auto-start-reverse" preserveAspectRatio="xMidYMid" refX="0" refY="0" style="overflow:visible" viewBox="0 0 8.75 5"><path d="m0 0 5-5-17.5 5L5 5Z" style="fill:context-stroke;fill-rule:evenodd;stroke:none" transform="scale(-.5)"/></marker><marker id="f" markerHeight="5" markerWidth="8.75" orient="auto-start-reverse" preserveAspectRatio="xMidYMid" refX="0" refY="0" style="overflow:visible" viewBox="0 0 8.75 5"><path d="m0 0 5-5-17.5 5L5 5Z" style="fill:context-stroke;fill-rule:evenodd;stroke:none" transform="scale(-.5)"/></marker></defs><g transform="translate(-30.061 -16.718)"><path d="M56.93 51.372 77.305 29.63" style="fill:none;stroke:#b3b3b3;stroke-width:.264583px;stroke-linecap:butt;stroke-linejoin:miter;stroke-opacity:1"/><path d="M30.194 16.851h72.087v65.165H30.194z" style="fill:#fff;stroke:#fff;stroke-width:.264583"/><ellipse cx="56.931" cy="51.372" rx="19.788" ry="19.787" style="fill:none;stroke:teal;stroke-width:.264583"/><ellipse cx="77.304" cy="29.629" rx="9.954" ry="9.953" style="fill:none;stroke:teal;stroke-width:.264583"/><path d="m54.341 53.465 5.18-4.186M59.024 53.961l-4.186-5.178M74.715 31.722l5.179-4.186M79.397 32.218l-4.186-5.178" style="fill:none;stroke:teal;stroke-width:.264583px;stroke-linecap:butt;stroke-linejoin:miter;stroke-opacity:1"/><text xml:space="preserve" style="font-size:14.6667px;line-height:1.25;font-family:sans-serif;white-space:pre;shape-inside:url(#a);display:inline" transform="matrix(.26458 0 0 .26458 -4.448 2.596)"><tspan x="137.287" y="292.291">motion transmission via adherence</tspan></text><path d="M56.93 51.372H37.143M77.304 29.63h9.954" style="fill:none;stroke:#00f;stroke-width:.264583px;stroke-linecap:butt;stroke-linejoin:miter;stroke-opacity:1"/><text xml:space="preserve" style="font-size:14.6667px;line-height:1.25;font-family:sans-serif;white-space:pre;shape-inside:url(#b);fill:#00f" transform="matrix(.26458 0 0 .26458 -5.307 -64.299)"><tspan x="189.189" y="450.588">r2</tspan></text><text xml:space="preserve" style="font-size:14.6667px;line-height:1.25;font-family:sans-serif;white-space:pre;shape-inside:url(#c);fill:#00f" transform="matrix(.26458 0 0 .26458 -19.665 -82.437)"><tspan x="378.205" y="436.463">r1</tspan></text><path d="M70.417 36.845 57.73 24.962" style="fill:none;stroke:#d45500;stroke-width:.264583px;stroke-linecap:butt;stroke-linejoin:miter;stroke-opacity:1;marker-end:url(#d)"/><text xml:space="preserve" style="font-size:14.6667px;line-height:1.25;font-family:sans-serif;white-space:pre;shape-inside:url(#e);fill:#a40" transform="matrix(.26458 0 0 .26458 -26.356 -70.953)"><tspan x="328.648" y="366.805">F</tspan></text><path d="m70.73 37.132-7.655-7.138" style="fill:none;stroke:#f0f;stroke-width:.264583px;stroke-linecap:butt;stroke-linejoin:miter;stroke-opacity:1;marker-end:url(#f)"/><text xml:space="preserve" style="font-size:14.6667px;line-height:1.25;font-family:sans-serif;white-space:pre;shape-inside:url(#g);fill:#f0f" transform="matrix(.26458 0 0 .26458 -34.202 -71.883)"><tspan x="373.34" y="390.463">v</tspan></text></g></svg>