<svg xmlns="http://www.w3.org/2000/svg" width="600" height="20000" viewBox="0 0 158.75 5291.667"><defs><path id="as" d="M87.276 1607.435h173.19v33.1H87.276z"/><path id="ar" d="M96.984 1526.132h449.848v90.779H96.984z"/><path id="aq" d="M249.725 1486.91h49.604v34.092h-49.604z"/><path id="ap" d="M107.988 1446.259h32.485v20.271h-32.485z"/><path id="ao" d="M189.863 1392.536h60.001v29.567h-60.001z"/><path id="an" d="M79.375 1381.256h49.383v33.743H79.375z"/><path id="am" d="M333.585 1440.774h30.297v32.721h-30.297z"/><path id="al" d="M156.535 1496.766h52.288v39.789h-52.288z"/><path id="ak" d="M56.153 1297.591h173.666v33.432H56.153z"/><path id="aj" d="M69.742 1229.695h214.892v126.224H69.742z"/><path id="ai" d="M327.765 1103.529h47.121v23.931h-47.121z"/><path id="ah" d="M246.912 1098.858h48.846v30.164h-48.846z"/><path id="ag" d="M182.11 1105.823h39.468v27.514H182.11z"/><path id="af" d="M54.574 1078.351h67.438v40.348H54.574z"/><path id="ae" d="M270.311 1136.394h43.9v38.843h-43.9z"/><path id="ad" d="M110.578 1206.475h77.399v47.288h-77.399z"/><path id="ac" d="M25.584 907.315h177.474v19.009H25.584z"/><path id="ab" d="M39.1 914.285h167.384v25.297H39.1z"/><path id="X" d="M360.867 625.186h74.83v41.575h-74.83z"/><path id="W" d="M295.254 672.201h112.022v27.867H295.254z"/><path id="V" d="M231.686 586.827h161.47v27.434h-161.47z"/><path id="J" d="M213.147 442.933h120.634v21.031H213.147z"/><path id="I" d="M257.993 441.361h33.724v17.95h-33.724z"/><path id="H" d="M235.4 437.588h39.374v17.261H235.4z"/><path id="F" d="M106.864 364.739h103.001v21.185H106.864z"/><path id="C" d="M134.345 491.299h124.88v24.905h-124.88z"/><path id="k" d="M63.429 333.065h158.363v29.331H63.429z"/><path id="j" d="M103.523 268.242h88.409v24.2h-88.409z"/><path id="i" d="M101.084 195.701h124.483v20.586H101.084z"/><path id="g" d="M200.715 288.19h52.317v19.745h-52.317z"/><path id="f" d="M232.476 161.365h28.095v22.502h-28.095z"/><path id="e" d="M130.985 140.536h42.711v43.171h-42.711z"/><path id="d" d="M254.321 237.99h38.557v34.914h-38.557z"/><path id="a" d="M30.917 20.728h313.067v63.535H30.917z"/><path id="h" d="M200.715 288.19h52.317v19.745h-52.317z"/><path id="v" d="M254.321 237.99h38.557v34.914h-38.557z"/><path id="w" d="M130.985 140.536h42.711v43.171h-42.711z"/><path id="x" d="M232.476 161.365h28.095v22.502h-28.095z"/><path id="y" d="M200.715 288.19h52.317v19.745h-52.317z"/><path id="z" d="M200.715 288.19h52.317v19.745h-52.317z"/><path id="A" d="M63.429 333.065h158.363v29.331H63.429z"/><path id="B" d="M232.476 161.365h28.095v22.502h-28.095z"/><path id="E" d="M232.476 161.365h28.095v22.502h-28.095z"/><path id="G" d="M232.476 161.365h28.095v22.502h-28.095z"/><path id="M" d="M254.321 237.99h38.557v34.914h-38.557z"/><path id="N" d="M130.985 140.536h42.711v43.171h-42.711z"/><path id="O" d="M232.476 161.365h28.095v22.502h-28.095z"/><path id="P" d="M200.715 288.19h52.317v19.745h-52.317z"/><path id="Q" d="M200.715 288.19h52.317v19.745h-52.317z"/><path id="R" d="M63.429 333.065h158.363v29.331H63.429z"/><path id="S" d="M232.476 161.365h28.095v22.502h-28.095z"/><path id="T" d="M232.476 161.365h28.095v22.502h-28.095z"/><path id="U" d="M232.476 161.365h28.095v22.502h-28.095z"/><path id="n" d="M254.321 237.99h38.557v34.914h-38.557z"/><path id="o" d="M130.985 140.536h42.711v43.171h-42.711z"/><path id="p" d="M232.476 161.365h28.095v22.502h-28.095z"/><path id="q" d="M200.715 288.19h52.317v19.745h-52.317z"/><path id="r" d="M200.715 288.19h52.317v19.745h-52.317z"/><path id="s" d="M63.429 333.065h158.363v29.331H63.429z"/><path id="Y" d="M232.476 161.365h28.095v22.502h-28.095z"/><path id="Z" d="M200.715 288.19h52.317v19.745h-52.317z"/><path id="aa" d="M200.715 288.19h52.317v19.745h-52.317z"/><marker id="D" markerHeight="5.667" markerWidth="5.667" orient="auto" preserveAspectRatio="xMidYMid" refX="0" refY="0" style="overflow:visible" viewBox="0 0 5.667 5.667"><path d="M5 0c0 2.76-2.24 5-5 5s-5-2.24-5-5 2.3-5 5-5c2.76 0 5 2.24 5 5z" style="fill:context-stroke;fill-rule:evenodd;stroke:context-stroke;stroke-width:1pt" transform="scale(.5)"/></marker><marker id="b" markerHeight="5" markerWidth="8.75" orient="auto-start-reverse" preserveAspectRatio="xMidYMid" refX="0" refY="0" style="overflow:visible" viewBox="0 0 8.75 5"><path d="m0 0 5-5-17.5 5L5 5Z" style="fill:context-stroke;fill-rule:evenodd;stroke:none" transform="scale(-.5)"/></marker><marker id="c" markerHeight="5" markerWidth="8.75" orient="auto-start-reverse" preserveAspectRatio="xMidYMid" refX="0" refY="0" style="overflow:visible" viewBox="0 0 8.75 5"><path d="m0 0 5-5-17.5 5L5 5Z" style="fill:context-stroke;fill-rule:evenodd;stroke:none" transform="scale(-.5)"/></marker><marker id="t" markerHeight="5" markerWidth="8.75" orient="auto-start-reverse" preserveAspectRatio="xMidYMid" refX="0" refY="0" style="overflow:visible" viewBox="0 0 8.75 5"><path d="m0 0 5-5-17.5 5L5 5Z" style="fill:context-stroke;fill-rule:evenodd;stroke:none" transform="scale(-.5)"/></marker><marker id="u" markerHeight="5" markerWidth="8.75" orient="auto-start-reverse" preserveAspectRatio="xMidYMid" refX="0" refY="0" style="overflow:visible" viewBox="0 0 8.75 5"><path d="m0 0 5-5-17.5 5L5 5Z" style="fill:context-stroke;fill-rule:evenodd;stroke:none" transform="scale(-.5)"/></marker><marker id="K" markerHeight="5" markerWidth="8.75" orient="auto-start-reverse" preserveAspectRatio="xMidYMid" refX="0" refY="0" style="overflow:visible" viewBox="0 0 8.75 5"><path d="m0 0 5-5-17.5 5L5 5Z" style="fill:context-stroke;fill-rule:evenodd;stroke:none" transform="scale(-.5)"/></marker><marker id="L" markerHeight="5" markerWidth="8.75" orient="auto-start-reverse" preserveAspectRatio="xMidYMid" refX="0" refY="0" style="overflow:visible" viewBox="0 0 8.75 5"><path d="m0 0 5-5-17.5 5L5 5Z" style="fill:context-stroke;fill-rule:evenodd;stroke:none" transform="scale(-.5)"/></marker><marker id="l" markerHeight="5" markerWidth="8.75" orient="auto-start-reverse" preserveAspectRatio="xMidYMid" refX="0" refY="0" style="overflow:visible" viewBox="0 0 8.75 5"><path d="m0 0 5-5-17.5 5L5 5Z" style="fill:context-stroke;fill-rule:evenodd;stroke:none" transform="scale(-.5)"/></marker><marker id="m" markerHeight="5" markerWidth="8.75" orient="auto-start-reverse" preserveAspectRatio="xMidYMid" refX="0" refY="0" style="overflow:visible" viewBox="0 0 8.75 5"><path d="m0 0 5-5-17.5 5L5 5Z" style="fill:context-stroke;fill-rule:evenodd;stroke:none" transform="scale(-.5)"/></marker></defs><path d="M18.277 364.567h121.548v68.375H18.277zM14.799 288.418h83.979v57.585H14.799zM23.231 210.044h69.06v51.502h-69.06zM24.459 146.966h62.107v55.982H24.459zM22.586 95.263H84.78v44.292H22.586z" style="fill:#fff;stroke:#fff;stroke-width:.264583;stroke-dasharray:none;stroke-dashoffset:0"/><path d="m59.404 106.985 13.724 6.154" style="fill:none;stroke:#5aa02c;stroke-width:.264583px;stroke-linecap:butt;stroke-linejoin:miter;stroke-opacity:1"/><path d="m49.901 123.938 14.426-25.612" style="fill:none;stroke:#59f;stroke-width:.264583px;stroke-linecap:butt;stroke-linejoin:miter;stroke-opacity:1"/><path d="M30.107 121.738a19.904 19.608 0 0 1 10.773-15.297 19.904 19.608 0 0 1 18.892.467" style="fill:none;stroke:#ccc;stroke-width:.264583;stroke-dasharray:none;stroke-dashoffset:0"/><path d="M22.131 37.982h51.13v37.934h-51.13z" style="fill:#fff;stroke:#fff;stroke-width:.264583;stroke-dasharray:none;stroke-dashoffset:0"/><text xml:space="preserve" style="font-size:14.6667px;line-height:1.25;font-family:sans-serif;white-space:pre;shape-inside:url(#a);display:inline" transform="scale(.26458)"><tspan x="30.916" y="33.705">geom.svg</tspan></text><path d="M45.957 68.88V41.06" style="fill:none;stroke:#999;stroke-width:.264583px;stroke-linecap:butt;stroke-linejoin:miter;stroke-opacity:1;marker-end:url(#b)"/><path d="M24.625 62.968H67.29" style="fill:none;stroke:#999;stroke-width:.264583px;stroke-linecap:butt;stroke-linejoin:miter;stroke-opacity:1;marker-end:url(#c)"/><text xml:space="preserve" style="font-size:14.6667px;line-height:1.25;font-family:sans-serif;white-space:pre;shape-inside:url(#d);display:inline" transform="matrix(.26458 0 0 .26458 -.453 .144)"><tspan x="254.32" y="250.967">x</tspan></text><text xml:space="preserve" style="font-size:14.6667px;line-height:1.25;font-family:sans-serif;white-space:pre;shape-inside:url(#e);display:inline" transform="matrix(.26458 0 0 .26458 8.184 1.935)"><tspan x="130.984" y="153.514">y</tspan></text><path d="M55.475 62.968V46.026h-9.518" style="fill:none;stroke:#ccc;stroke-width:.26458333;stroke-linecap:butt;stroke-linejoin:miter;stroke-opacity:1;stroke-dasharray:2,1;stroke-dashoffset:0"/><path d="m54.887 46.77 1.176-1.489M54.73 45.438l1.49 1.176" style="fill:none;stroke:#000;stroke-width:.264583px;stroke-linecap:butt;stroke-linejoin:miter;stroke-opacity:1"/><text xml:space="preserve" style="font-size:14.6667px;line-height:1.25;font-family:sans-serif;white-space:pre;shape-inside:url(#f);display:inline" transform="matrix(.26458 0 0 .26458 -5.208 .59)"><tspan x="232.477" y="174.342">p1</tspan></text><text xml:space="preserve" style="font-size:8px;line-height:1.25;font-family:sans-serif;white-space:pre;shape-inside:url(#g);display:inline" transform="matrix(.26458 0 0 .26458 -.113 -12.32)"><tspan x="200.715" y="295.268">p1.cx</tspan></text><text xml:space="preserve" style="font-size:8px;line-height:1.25;font-family:sans-serif;white-space:pre;shape-inside:url(#h);display:inline" transform="matrix(.26458 0 0 .26458 -14.446 -31.246)"><tspan x="200.715" y="295.268">p1.cy</tspan></text><path d="M45.199 46.026h1.517M55.475 63.893v-1.85" style="fill:none;stroke:#000;stroke-width:.264583px;stroke-linecap:butt;stroke-linejoin:miter;stroke-opacity:1"/><path d="m45.957 62.968 9.518-16.942" style="fill:none;stroke:#00f;stroke-width:.264583px;stroke-linecap:butt;stroke-linejoin:miter;stroke-opacity:1"/><path d="M48.655 62.968s.487-1.31.31-1.941c-.161-.571-1.157-1.354-1.157-1.354" style="fill:none;stroke:green;stroke-width:.264583px;stroke-linecap:butt;stroke-linejoin:miter;stroke-opacity:1"/><text xml:space="preserve" style="font-size:10.6667px;line-height:1.25;font-family:sans-serif;white-space:pre;shape-inside:url(#i);display:inline;fill:#00f" transform="matrix(.26458 0 0 .26458 3.446 -.252)"><tspan x="101.084" y="205.139">distanceOrig()</tspan></text><text xml:space="preserve" style="font-size:10.6667px;line-height:1.25;font-family:sans-serif;white-space:pre;shape-inside:url(#j);display:inline;fill:green" transform="matrix(.26458 0 0 .26458 21.913 -12.588)"><tspan x="103.523" y="277.68">angleOrig()</tspan></text><text xml:space="preserve" style="font-size:14.6667px;line-height:1.25;font-family:sans-serif;white-space:pre;shape-inside:url(#k);display:inline" transform="matrix(.26458 0 0 .26458 6.125 -17.456)"><tspan x="63.43" y="346.041">Point-1</tspan></text><path d="M47.057 254.509v-40.217" style="fill:none;stroke:#999;stroke-width:.264583px;stroke-linecap:butt;stroke-linejoin:miter;stroke-opacity:1;marker-end:url(#l)"/><path d="M25.725 248.598H83.54" style="fill:none;stroke:#999;stroke-width:.264583px;stroke-linecap:butt;stroke-linejoin:miter;stroke-opacity:1;marker-end:url(#m)"/><text xml:space="preserve" style="font-size:14.6667px;line-height:1.25;font-family:sans-serif;white-space:pre;shape-inside:url(#n);display:inline" transform="matrix(.26458 0 0 .26458 16.6 185.382)"><tspan x="254.32" y="250.967">x</tspan></text><text xml:space="preserve" style="font-size:14.6667px;line-height:1.25;font-family:sans-serif;white-space:pre;shape-inside:url(#o);display:inline" transform="matrix(.26458 0 0 .26458 9.731 174.067)"><tspan x="130.984" y="153.514">y</tspan></text><path d="M56.574 248.598v-16.943h-9.517" style="fill:none;stroke:#ccc;stroke-width:.264583;stroke-linecap:butt;stroke-linejoin:miter;stroke-dasharray:2,1;stroke-dashoffset:0;stroke-opacity:1"/><text xml:space="preserve" style="font-size:14.6667px;line-height:1.25;font-family:sans-serif;white-space:pre;shape-inside:url(#p);display:inline" transform="matrix(.26458 0 0 .26458 -5.98 189.498)"><tspan x="232.477" y="174.342">p1</tspan></text><text xml:space="preserve" style="font-size:8px;line-height:1.25;font-family:sans-serif;white-space:pre;shape-inside:url(#q);display:inline" transform="matrix(.26458 0 0 .26458 .987 173.309)"><tspan x="200.715" y="295.268">p1.cx</tspan></text><text xml:space="preserve" style="font-size:8px;line-height:1.25;font-family:sans-serif;white-space:pre;shape-inside:url(#r);display:inline" transform="matrix(.26458 0 0 .26458 -13.346 154.384)"><tspan x="200.715" y="295.268">p1.cy</tspan></text><path d="M46.298 231.655h1.518M56.574 249.522v-1.849" style="fill:none;stroke:#000;stroke-width:.264583px;stroke-linecap:butt;stroke-linejoin:miter;stroke-opacity:1"/><text xml:space="preserve" style="font-size:14.6667px;line-height:1.25;font-family:sans-serif;white-space:pre;shape-inside:url(#s);display:inline" transform="matrix(.26458 0 0 .26458 7.225 168.173)"><tspan x="63.43" y="346.041">Point-4</tspan></text><path d="M49.887 129.838V102.02" style="fill:none;stroke:#999;stroke-width:.264583px;stroke-linecap:butt;stroke-linejoin:miter;stroke-opacity:1;marker-end:url(#t)"/><path d="M28.555 123.927h42.663" style="fill:none;stroke:#999;stroke-width:.264583px;stroke-linecap:butt;stroke-linejoin:miter;stroke-opacity:1;marker-end:url(#u)"/><text xml:space="preserve" style="font-size:14.6667px;line-height:1.25;font-family:sans-serif;white-space:pre;shape-inside:url(#v);display:inline" transform="matrix(.26458 0 0 .26458 3.477 61.103)"><tspan x="254.32" y="250.967">x</tspan></text><text xml:space="preserve" style="font-size:14.6667px;line-height:1.25;font-family:sans-serif;white-space:pre;shape-inside:url(#w);display:inline" transform="matrix(.26458 0 0 .26458 12.113 62.894)"><tspan x="130.984" y="153.514">y</tspan></text><path d="M59.404 123.927v-16.942h-9.517" style="fill:none;stroke:#ccc;stroke-width:.264583;stroke-linecap:butt;stroke-linejoin:miter;stroke-dasharray:2,1;stroke-dashoffset:0;stroke-opacity:1"/><path d="m58.816 107.73 1.176-1.49M58.66 106.397l1.489 1.176" style="fill:none;stroke:#000;stroke-width:.264583px;stroke-linecap:butt;stroke-linejoin:miter;stroke-opacity:1"/><text xml:space="preserve" style="font-size:14.6667px;line-height:1.25;font-family:sans-serif;white-space:pre;shape-inside:url(#x);display:inline" transform="matrix(.26458 0 0 .26458 -.615 60.753)"><tspan x="232.477" y="174.342">p1</tspan></text><text xml:space="preserve" style="font-size:8px;line-height:1.25;font-family:sans-serif;white-space:pre;shape-inside:url(#y);display:inline" transform="matrix(.26458 0 0 .26458 3.816 48.638)"><tspan x="200.715" y="295.268">p1.cx</tspan></text><text xml:space="preserve" style="font-size:8px;line-height:1.25;font-family:sans-serif;white-space:pre;shape-inside:url(#z);display:inline" transform="matrix(.26458 0 0 .26458 -10.516 29.713)"><tspan x="200.715" y="295.268">p1.cy</tspan></text><path d="M49.128 106.985h1.517M59.404 124.852v-1.85" style="fill:none;stroke:#000;stroke-width:.264583px;stroke-linecap:butt;stroke-linejoin:miter;stroke-opacity:1"/><path d="m49.887 123.927 9.517-16.942" style="fill:none;stroke:#6f8a91;stroke-width:.264583px;stroke-linecap:butt;stroke-linejoin:miter;stroke-opacity:1"/><text xml:space="preserve" style="font-size:14.6667px;line-height:1.25;font-family:sans-serif;white-space:pre;shape-inside:url(#A);display:inline" transform="matrix(.26458 0 0 .26458 8.091 45.964)"><tspan x="63.43" y="346.041">Point-2</tspan></text><path d="m29.598 121.964 1.176-1.49M29.44 120.63l1.49 1.177" style="fill:none;stroke:#000;stroke-width:.264583px;stroke-linecap:butt;stroke-linejoin:miter;stroke-opacity:1"/><text xml:space="preserve" style="font-size:14.6667px;line-height:1.25;font-family:sans-serif;white-space:pre;shape-inside:url(#B);display:inline;fill:#ff7f2a" transform="matrix(.26458 0 0 .26458 -37.404 74.336)"><tspan x="232.477" y="174.342">p3</tspan></text><path d="m30.186 121.219 19.702 2.754" style="fill:none;stroke:#6f8a91;stroke-width:.264583px;stroke-linecap:butt;stroke-linejoin:miter;stroke-opacity:1"/><path d="M51.415 121.522s-1.975-.983-2.864-.584c-.885.396-1.462 2.515-1.462 2.515" style="fill:none;stroke:#ff7f2a;stroke-width:.264583px;stroke-linecap:butt;stroke-linejoin:miter;stroke-opacity:1"/><text xml:space="preserve" style="font-size:10.6667px;line-height:1.25;font-family:sans-serif;white-space:pre;shape-inside:url(#C);display:inline;fill:#ff7f2a" transform="matrix(.26458 0 0 .26458 -11.23 -16.466)"><tspan x="134.346" y="500.736">rotateOrig(ia)</tspan></text><path d="M41.12 117.112s.444 2.062 1.148 2.772c1.086 1.093 4.257 1.798 4.257 1.798" style="fill:none;stroke:#f95;stroke-width:.264583px;stroke-linecap:butt;stroke-linejoin:miter;stroke-dasharray:none;stroke-dashoffset:0;stroke-opacity:1;marker-start:url(#D);marker-end:url(#Dot)"/><path d="m63.855 99.006 1.176-1.49M63.698 97.673l1.49 1.176" style="fill:none;stroke:#000;stroke-width:.264583px;stroke-linecap:butt;stroke-linejoin:miter;stroke-opacity:1"/><text xml:space="preserve" style="font-size:14.6667px;line-height:1.25;font-family:sans-serif;white-space:pre;shape-inside:url(#E);display:inline;fill:#3771c8" transform="matrix(.26458 0 0 .26458 3.649 54.478)"><tspan x="232.477" y="174.342">p4</tspan></text><text xml:space="preserve" style="font-size:10.6667px;line-height:1.25;font-family:sans-serif;white-space:pre;shape-inside:url(#F);display:inline;fill:#2c5aa0" transform="matrix(.26458 0 0 .26458 17.348 .515)"><tspan x="106.865" y="374.176">scaleOrig(ir)</tspan></text><path d="m72.54 113.884 1.175-1.49M72.383 112.55l1.49 1.177" style="fill:none;stroke:#000;stroke-width:.264583px;stroke-linecap:butt;stroke-linejoin:miter;stroke-opacity:1"/><text xml:space="preserve" style="font-size:14.6667px;line-height:1.25;font-family:sans-serif;white-space:pre;shape-inside:url(#G);display:inline;fill:#5aa02c" transform="matrix(.26458 0 0 .26458 12.58 67.436)"><tspan x="232.477" y="174.342">p2</tspan></text><path d="M73.128 113.139H59.404" style="fill:none;stroke:#aade87;stroke-width:.264583px;stroke-linecap:butt;stroke-linejoin:miter;stroke-opacity:1"/><path d="M59.404 106.985v6.154" style="fill:#d7f4d7;stroke:#afe9af;stroke-width:.264583px;stroke-linecap:butt;stroke-linejoin:miter;stroke-opacity:1"/><text xml:space="preserve" style="font-size:8px;line-height:1.25;font-family:sans-serif;white-space:pre;shape-inside:url(#H);display:inline" transform="matrix(.26458 0 0 .26458 2.155 -2.657)"><tspan x="235.4" y="444.666">ix</tspan></text><text xml:space="preserve" style="font-size:8px;line-height:1.25;font-family:sans-serif;white-space:pre;shape-inside:url(#I);display:inline" transform="matrix(.26458 0 0 .26458 -8.717 -7.444)"><tspan x="257.992" y="448.439">iy</tspan></text><text xml:space="preserve" style="font-size:10.6667px;line-height:1.25;font-family:sans-serif;white-space:pre;shape-inside:url(#J);display:inline;fill:#447821" transform="matrix(.26458 0 0 .26458 5.909 -2.245)"><tspan x="213.146" y="452.371">translate(ix, iy)</tspan></text><path d="M48.285 195.91v-27.818" style="fill:none;stroke:#999;stroke-width:.264583px;stroke-linecap:butt;stroke-linejoin:miter;stroke-opacity:1;marker-end:url(#K)"/><path d="M26.953 190h42.664" style="fill:none;stroke:#999;stroke-width:.264583px;stroke-linecap:butt;stroke-linejoin:miter;stroke-opacity:1;marker-end:url(#L)"/><text xml:space="preserve" style="font-size:14.6667px;line-height:1.25;font-family:sans-serif;white-space:pre;shape-inside:url(#M);display:inline" transform="matrix(.26458 0 0 .26458 1.875 127.176)"><tspan x="254.32" y="250.967">x</tspan></text><text xml:space="preserve" style="font-size:14.6667px;line-height:1.25;font-family:sans-serif;white-space:pre;shape-inside:url(#N);display:inline" transform="matrix(.26458 0 0 .26458 10.512 128.967)"><tspan x="130.984" y="153.514">y</tspan></text><path d="M57.803 190v-16.943h-9.518" style="fill:none;stroke:#ccc;stroke-width:.264583;stroke-linecap:butt;stroke-linejoin:miter;stroke-dasharray:2,1;stroke-dashoffset:0;stroke-opacity:1"/><text xml:space="preserve" style="font-size:14.6667px;line-height:1.25;font-family:sans-serif;white-space:pre;shape-inside:url(#O);display:inline" transform="matrix(.26458 0 0 .26458 -2.672 129.699)"><tspan x="232.477" y="174.342">p1</tspan></text><text xml:space="preserve" style="font-size:8px;line-height:1.25;font-family:sans-serif;white-space:pre;shape-inside:url(#P);display:inline" transform="matrix(.26458 0 0 .26458 2.215 114.71)"><tspan x="200.715" y="295.268">p1.cx</tspan></text><text xml:space="preserve" style="font-size:8px;line-height:1.25;font-family:sans-serif;white-space:pre;shape-inside:url(#Q);display:inline" transform="matrix(.26458 0 0 .26458 -12.118 95.786)"><tspan x="200.715" y="295.268">p1.cy</tspan></text><path d="M47.526 173.057h1.518M57.803 190.924v-1.849" style="fill:none;stroke:#000;stroke-width:.264583px;stroke-linecap:butt;stroke-linejoin:miter;stroke-opacity:1"/><text xml:space="preserve" style="font-size:14.6667px;line-height:1.25;font-family:sans-serif;white-space:pre;shape-inside:url(#R);display:inline" transform="matrix(.26458 0 0 .26458 10.04 109.575)"><tspan x="63.43" y="346.041">Point-3</tspan></text><text xml:space="preserve" style="font-size:14.6667px;line-height:1.25;font-family:sans-serif;white-space:pre;shape-inside:url(#S);display:inline" transform="matrix(.26458 0 0 .26458 -32.318 137.158)"><tspan x="232.477" y="174.342">pc</tspan></text><path d="M42.744 155.956a24.7 25.228 0 0 1 15.16 17.396" style="fill:none;stroke:#b3b3b3;stroke-width:.264583;stroke-dasharray:none;stroke-dashoffset:0"/><path d="m33.958 179.534 8.786-23.578" style="fill:none;stroke:#87deaa;stroke-width:.264583px;stroke-linecap:butt;stroke-linejoin:miter;stroke-opacity:1"/><path d="m42.156 156.701 1.176-1.49M41.999 155.369l1.49 1.175" style="fill:none;stroke:#000;stroke-width:.264583px;stroke-linecap:butt;stroke-linejoin:miter;stroke-opacity:1"/><text xml:space="preserve" style="font-size:14.6667px;line-height:1.25;font-family:sans-serif;white-space:pre;shape-inside:url(#T);display:inline;fill:#217821" transform="matrix(.26458 0 0 .26458 -24.707 110.148)"><tspan x="232.477" y="174.342">p5</tspan></text><path d="m69.515 169.795-35.573 9.708" style="fill:none;stroke:#00aad4;stroke-width:.264583px;stroke-linecap:butt;stroke-linejoin:miter;stroke-opacity:1"/><path d="m68.962 170.412 1.176-1.49M68.805 169.08l1.49 1.175" style="fill:#08a;stroke:#08a;stroke-width:.264583px;stroke-linecap:butt;stroke-linejoin:miter;stroke-opacity:1"/><text xml:space="preserve" style="font-size:14.6667px;line-height:1.25;font-family:sans-serif;white-space:pre;shape-inside:url(#U);display:inline;fill:#04a" transform="matrix(.26458 0 0 .26458 9.075 126.309)"><tspan x="232.477" y="174.342">p6</tspan></text><text xml:space="preserve" style="font-size:10.6667px;line-height:1.25;font-family:sans-serif;white-space:pre;shape-inside:url(#V);display:inline;fill:#217821" transform="matrix(.26458 0 0 .26458 -30.01 -5.3)"><tspan x="231.686" y="596.266">rotate(pc, ia)</tspan></text><text xml:space="preserve" style="font-size:10.6667px;line-height:1.25;font-family:sans-serif;white-space:pre;shape-inside:url(#W);display:inline;fill:#04a" transform="matrix(.26458 0 0 .26458 -10.839 -4.535)"><tspan x="295.254" y="681.639">scala(pc, ir)</tspan></text><path d="m57.787 173.027-23.845 6.476" style="fill:none;stroke:#87deaa;stroke-width:.264583px;stroke-linecap:butt;stroke-linejoin:miter;stroke-opacity:1"/><path d="m33.37 180.279 1.176-1.49M33.213 178.946l1.49 1.176M57.215 173.802l1.176-1.49M57.058 172.47l1.49 1.175" style="fill:none;stroke:#000;stroke-width:.264583px;stroke-linecap:butt;stroke-linejoin:miter;stroke-opacity:1"/><path d="M36.8 178.838c.05 0 .337-1.378-.017-1.905-.324-.482-1.607-.672-1.607-.672" style="fill:none;stroke:#008033;stroke-width:.264583px;stroke-linecap:butt;stroke-linejoin:miter;stroke-opacity:1"/><text xml:space="preserve" style="font-size:8px;line-height:1.25;font-family:sans-serif;white-space:pre;shape-inside:url(#X);display:inline;fill:#5aa02c" transform="matrix(.26458 0 0 .26458 -58.007 9.195)"><tspan x="360.867" y="632.264">ia</tspan></text><text xml:space="preserve" style="font-size:14.6667px;line-height:1.25;font-family:sans-serif;white-space:pre;shape-inside:url(#Y);display:inline" transform="matrix(.26458 0 0 .26458 9.554 170.99)"><tspan x="232.477" y="174.342">p2</tspan></text><path d="M70.136 248.161v-30.296h-23.08" style="fill:none;stroke:#ccc;stroke-width:.264583;stroke-linecap:butt;stroke-linejoin:miter;stroke-dasharray:2,1;stroke-dashoffset:0;stroke-opacity:1"/><text xml:space="preserve" style="font-size:8px;line-height:1.25;font-family:sans-serif;white-space:pre;shape-inside:url(#Z);display:inline" transform="matrix(.26458 0 0 .26458 14.548 173.402)"><tspan x="200.715" y="295.268">p2.cx</tspan></text><path d="M70.136 249.615v-1.85" style="fill:none;stroke:#000;stroke-width:.264583px;stroke-linecap:butt;stroke-linejoin:miter;stroke-opacity:1"/><text xml:space="preserve" style="font-size:8px;line-height:1.25;font-family:sans-serif;white-space:pre;shape-inside:url(#aa);display:inline" transform="matrix(.26458 0 0 .26458 -13.346 140.594)"><tspan x="200.715" y="295.268">p2.cy</tspan></text><path d="M46.298 217.865h1.518" style="fill:none;stroke:#000;stroke-width:.264583px;stroke-linecap:butt;stroke-linejoin:miter;stroke-opacity:1"/><path d="M56.574 231.655h8.102" style="fill:none;stroke:#00f;stroke-width:.264583px;stroke-linecap:butt;stroke-linejoin:miter;stroke-opacity:1"/><path d="m70.136 217.865-13.562 13.79" style="fill:none;stroke:green;stroke-width:.264583px;stroke-linecap:butt;stroke-linejoin:miter;stroke-opacity:1"/><path d="m55.986 232.4 1.176-1.49M55.83 231.068l1.49 1.175M69.649 218.554l1.176-1.49M69.492 217.22l1.49 1.177" style="fill:none;stroke:#000;stroke-width:.264583px;stroke-linecap:butt;stroke-linejoin:miter;stroke-opacity:1"/><text xml:space="preserve" style="font-size:10.6667px;line-height:1.25;font-family:sans-serif;white-space:pre;shape-inside:url(#ab);display:inline;fill:green" transform="matrix(.26458 0 0 .26458 20.193 -19.42)"><tspan x="39.1" y="923.723">distancePoints(p1, p2)</tspan></text><text xml:space="preserve" style="font-size:10.6667px;line-height:1.25;font-family:sans-serif;white-space:pre;shape-inside:url(#ac);display:inline;fill:#2a7fff" transform="matrix(.26458 0 0 .26458 54.197 -11.69)"><tspan x="25.584" y="916.752">anglePoints(p1, p2)</tspan></text><path d="M59.994 231.743s.435-1.019.336-1.533c-.106-.551-.935-1.343-.935-1.343" style="fill:none;stroke:#3771c8;stroke-width:.264583px;stroke-linecap:butt;stroke-linejoin:miter;stroke-opacity:1"/><path d="M-68.594 308.382h3.001v3.236h-3.001z" style="fill:#fff;stroke:#f0f;stroke-width:.264595;stroke-dasharray:none;stroke-dashoffset:0" transform="matrix(.95196 -.30624 .31893 .94778 0 0)"/><path d="m27.318 296.24 6.76 20.091 34.55-11.114-41.31-8.977" style="fill:none;stroke:#000;stroke-width:.264583px;stroke-linecap:butt;stroke-linejoin:miter;stroke-opacity:1"/><text xml:space="preserve" style="font-size:14.6667px;line-height:1.25;font-family:sans-serif;white-space:pre;shape-inside:url(#ad);display:inline" transform="matrix(.26458 0 0 .26458 2.229 -2.608)"><tspan x="110.578" y="1219.451">A</tspan></text><text xml:space="preserve" style="font-size:14.6667px;line-height:1.25;font-family:sans-serif;white-space:pre;shape-inside:url(#ae);display:inline" transform="matrix(.26458 0 0 .26458 -2.03 1.627)"><tspan x="270.311" y="1149.371">B</tspan></text><text xml:space="preserve" style="font-size:14.6667px;line-height:1.25;font-family:sans-serif;white-space:pre;shape-inside:url(#af);display:inline" transform="matrix(.26458 0 0 .26458 9.078 6.826)"><tspan x="54.574" y="1091.328">C</tspan></text><text xml:space="preserve" style="font-size:14.6667px;line-height:1.25;font-family:sans-serif;white-space:pre;shape-inside:url(#ag);display:inline" transform="matrix(.26458 0 0 .26458 -2.368 2.867)"><tspan x="182.109" y="1118.801">a</tspan></text><text xml:space="preserve" style="font-size:14.6667px;line-height:1.25;font-family:sans-serif;white-space:pre;shape-inside:url(#ah);display:inline" transform="matrix(.26458 0 0 .26458 -37.241 14.285)"><tspan x="246.912" y="1111.834">b</tspan></text><text xml:space="preserve" style="font-size:14.6667px;line-height:1.25;font-family:sans-serif;white-space:pre;shape-inside:url(#ai);display:inline" transform="matrix(.26458 0 0 .26458 -35.79 19.078)"><tspan x="327.766" y="1116.506">c</tspan></text><text xml:space="preserve" style="font-size:14.6667px;line-height:1.25;font-family:sans-serif;baseline-shift:baseline;white-space:pre;shape-inside:url(#aj);display:inline" transform="matrix(.26458 0 0 .26458 27.721 -3.747)"><tspan x="69.742" y="1242.672">a<tspan style="baseline-shift:super">2 </tspan>= b<tspan style="baseline-shift:super">2</tspan>+c<tspan style="baseline-shift:super">2</tspan>   [Pythagore]
</tspan><tspan x="69.742" y="1261.005">c = a * cos(B)
</tspan><tspan x="69.742" y="1279.339">b = a * sin(B)</tspan></text><text xml:space="preserve" style="font-size:14.6667px;line-height:1.25;font-family:sans-serif;white-space:pre;shape-inside:url(#ak);display:inline" transform="matrix(.26458 0 0 .26458 2.119 -3.593)"><tspan x="56.152" y="1310.566">right triangle</tspan></text><path d="m29.961 369.868 18.225 26.59 38.762-11.92z" style="fill:none;stroke:#000;stroke-width:.264583px;stroke-linecap:butt;stroke-linejoin:miter;stroke-opacity:1"/><text xml:space="preserve" style="font-size:14.6667px;line-height:1.25;font-family:sans-serif;white-space:pre;shape-inside:url(#al);display:inline" transform="matrix(.26458 0 0 .26458 4.454 .51)"><tspan x="156.535" y="1509.742">A</tspan></text><text xml:space="preserve" style="font-size:14.6667px;line-height:1.25;font-family:sans-serif;white-space:pre;shape-inside:url(#am);display:inline" transform="matrix(.26458 0 0 .26458 .365 1.823)"><tspan x="333.584" y="1453.75">B</tspan></text><text xml:space="preserve" style="font-size:14.6667px;line-height:1.25;font-family:sans-serif;white-space:pre;shape-inside:url(#an);display:inline" transform="matrix(.26458 0 0 .26458 5.226 2.201)"><tspan x="79.375" y="1394.233">C</tspan></text><text xml:space="preserve" style="font-size:14.6667px;line-height:1.25;font-family:sans-serif;white-space:pre;shape-inside:url(#ao);display:inline" transform="matrix(.26458 0 0 .26458 8.472 4.698)"><tspan x="189.863" y="1405.512">a</tspan></text><text xml:space="preserve" style="font-size:14.6667px;line-height:1.25;font-family:sans-serif;white-space:pre;shape-inside:url(#ap);display:inline" transform="matrix(.26458 0 0 .26458 8.105 -.227)"><tspan x="107.988" y="1459.236">b</tspan></text><text xml:space="preserve" style="font-size:14.6667px;line-height:1.25;font-family:sans-serif;white-space:pre;shape-inside:url(#aq);display:inline" transform="matrix(.26458 0 0 .26458 -1.484 -2.934)"><tspan x="249.725" y="1499.887">c</tspan></text><text xml:space="preserve" style="font-size:14.6667px;line-height:1.25;font-family:sans-serif;white-space:pre;shape-inside:url(#ar);display:inline" transform="matrix(.26458 0 0 .26458 -.872 1.788)"><tspan x="96.984" y="1539.109">A + B + C = Math.PI
</tspan><tspan x="96.984" y="1557.443">c<tspan style="font-size:65%;baseline-shift:super">2</tspan> = a<tspan style="font-size:65%;baseline-shift:super">2</tspan> + b<tspan style="font-size:65%;baseline-shift:super">2</tspan> - 2*a*b*cos(C)  [Al-Kashi or Law of cosinus]
</tspan><tspan x="96.984" y="1575.776">a / sin(A) = b / sin(B) = c / sin(C)   [Law of sinus]</tspan></text><text xml:space="preserve" style="font-size:14.6667px;line-height:1.25;font-family:sans-serif;white-space:pre;shape-inside:url(#as);display:inline" transform="matrix(.26458 0 0 .26458 -2.312 1.1)"><tspan x="87.277" y="1620.412">any triangle</tspan></text></svg>