<svg xmlns="http://www.w3.org/2000/svg" width="442.101" height="333.049" viewBox="0 0 116.972 88.119"><defs><path id="s" d="M-147.666 998.202h91.694v28.16h-91.694z"/><path id="p" d="M391.294 1209.639h45.467v33.055h-45.467z"/><path id="o" d="M106.999 977.099h43.608v23.457h-43.608z"/><path id="n" d="M170.396 887.155h51.287v28.884h-51.287z"/><path id="m" d="M123.378 893.787h33.183v20.587h-33.183z"/><path id="l" d="M271.008 1029.654h39.033v31.955h-39.033z"/><path id="k" d="M205.933 1000.246H240.2v22.944h-34.267z"/><path id="a" d="M297.447 262.575h73.804v34.937h-73.804z"/><path id="d" d="M297.447 262.575h73.804v34.937h-73.804z"/><path id="e" d="M134.534 178.276h23.407v18.098h-23.407z"/><path id="f" d="M165.537 227.936h17.956v23.248h-17.956z"/><path id="g" d="M277.39 227.391h48.001v21.52H277.39z"/><path id="i" d="M62.586 328.485h375.723v31.328H62.586z"/><path id="r" d="M297.447 262.575h73.804v34.937h-73.804z"/><marker id="j" markerHeight="5" markerWidth="8.75" orient="auto-start-reverse" preserveAspectRatio="xMidYMid" refX="0" refY="0" style="overflow:visible" viewBox="0 0 8.75 5"><path d="m0 0 5-5-17.5 5L5 5Z" style="fill:context-stroke;fill-rule:evenodd;stroke:none" transform="scale(-.5)"/></marker><marker id="b" markerHeight="5" markerWidth="8.75" orient="auto-start-reverse" preserveAspectRatio="xMidYMid" refX="0" refY="0" style="overflow:visible" viewBox="0 0 8.75 5"><path d="m0 0 5-5-17.5 5L5 5Z" style="fill:context-stroke;fill-rule:evenodd;stroke:none" transform="scale(-.5)"/></marker><marker id="c" markerHeight="5" markerWidth="8.75" orient="auto-start-reverse" preserveAspectRatio="xMidYMid" refX="0" refY="0" style="overflow:visible" viewBox="0 0 8.75 5"><path d="m0 0 5-5-17.5 5L5 5Z" style="fill:context-stroke;fill-rule:evenodd;stroke:none" transform="scale(-.5)"/></marker><marker id="h" markerHeight="5" markerWidth="8.75" orient="auto-start-reverse" preserveAspectRatio="xMidYMid" refX="0" refY="0" style="overflow:visible" viewBox="0 0 8.75 5"><path d="m0 0 5-5-17.5 5L5 5Z" style="fill:context-stroke;fill-rule:evenodd;stroke:none" transform="scale(-.5)"/></marker><marker id="q" markerHeight="5" markerWidth="8.75" orient="auto-start-reverse" preserveAspectRatio="xMidYMid" refX="0" refY="0" style="overflow:visible" viewBox="0 0 8.75 5"><path d="m0 0 5-5-17.5 5L5 5Z" style="fill:context-stroke;fill-rule:evenodd;stroke:none" transform="scale(-.5)"/></marker></defs><g transform="translate(-15.905 -217.963)"><path d="M16.038 218.095h116.708v87.855H16.038z" style="fill:#fff;stroke:#fff;stroke-width:.264583"/><text xml:space="preserve" style="font-size:14.6667px;line-height:1.25;font-family:sans-serif;white-space:pre;shape-inside:url(#a);display:inline" transform="matrix(.26458 0 0 .26458 17.906 190.327)"><tspan x="297.447" y="275.551">i1</tspan></text><path d="M103.172 263.912s-1.33-.272-1.917-.05c-.586.22-1.28 1.249-1.28 1.249" style="fill:none;stroke:#000;stroke-width:.264583px;stroke-linecap:butt;stroke-linejoin:miter;stroke-opacity:1;marker-end:url(#b)"/><path d="M74.823 253.244s.27-1.33.05-1.917c-.22-.586-1.25-1.28-1.25-1.28" style="fill:none;stroke:#000;stroke-width:.264583px;stroke-linecap:butt;stroke-linejoin:miter;stroke-opacity:1;marker-end:url(#c)"/><text xml:space="preserve" style="font-size:14.6667px;line-height:1.25;font-family:sans-serif;white-space:pre;shape-inside:url(#d);display:inline" transform="matrix(.26458 0 0 .26458 -3.444 179.165)"><tspan x="297.447" y="275.551">i1</tspan></text><circle cx="43.664" cy="268.291" r="24.769" style="fill:none;stroke:gray;stroke-width:.264583"/><path d="M43.664 268.29h74.13M43.664 268.29l10.216-22.563" style="fill:none;stroke:teal;stroke-width:.264583px;stroke-linecap:butt;stroke-linejoin:miter;stroke-opacity:1"/><path d="m53.84 245.788 68.844 31.349" style="fill:none;stroke:red;stroke-width:.264581px;stroke-linecap:butt;stroke-linejoin:miter;stroke-opacity:1"/><text xml:space="preserve" style="font-size:14.6667px;line-height:1.25;font-family:sans-serif;white-space:pre;shape-inside:url(#e);display:inline" transform="matrix(.26458 0 0 .26458 10.25 205.452)"><tspan x="134.535" y="191.252">R</tspan></text><text xml:space="preserve" style="font-size:14.6667px;line-height:1.25;font-family:sans-serif;white-space:pre;shape-inside:url(#f);display:inline" transform="matrix(.26458 0 0 .26458 -3.195 207.976)"><tspan x="165.537" y="240.912">O</tspan></text><text xml:space="preserve" style="font-size:14.6667px;line-height:1.25;font-family:sans-serif;white-space:pre;shape-inside:url(#g);display:inline" transform="matrix(.26458 0 0 .26458 -8.79 198.418)"><tspan x="277.391" y="240.367">A</tspan></text><path d="M66.343 258.132s1.542-.897 2.091-1.576c1.68-2.076 2.817-4.653 3.376-7.264.417-1.951.3-4.027-.082-5.985-.572-2.93-1.925-5.67-3.255-8.343-1.198-2.41-4.228-6.878-4.228-6.878" style="fill:none;stroke:#f0f;stroke-width:.529167;stroke-linecap:butt;stroke-linejoin:miter;stroke-opacity:1;marker-end:url(#h)"/><text xml:space="preserve" style="font-size:14.6667px;line-height:1.25;font-family:sans-serif;white-space:pre;shape-inside:url(#i);display:inline" transform="matrix(.26458 0 0 .26458 2.007 213.068)"><tspan x="62.586" y="341.461">involute of circle (R, i2) at u=u2=i1-i2</tspan></text><path d="m70.637 253.172 4.474-9.988" style="fill:none;stroke:teal;stroke-width:.264583px;stroke-linecap:butt;stroke-linejoin:miter;stroke-opacity:1;marker-end:url(#h)"/><path d="M70.826 253.226h7.131" style="fill:none;stroke:#999;stroke-width:.264583px;stroke-linecap:butt;stroke-linejoin:miter;stroke-opacity:1"/><path d="m53.43 246.96 1.172.512.463-1.28" style="fill:none;stroke:#000;stroke-width:.264583px;stroke-linecap:butt;stroke-linejoin:miter;stroke-opacity:1"/><path d="M103.301 276.668v-17.02" style="fill:none;stroke:#ccc;stroke-width:.264583px;stroke-linecap:butt;stroke-linejoin:miter;stroke-opacity:1"/><path d="m43.664 268.29 22.603-10.127" style="fill:none;stroke:#ffb380;stroke-width:.264583px;stroke-linecap:butt;stroke-linejoin:miter;stroke-opacity:1"/><path d="M53.297 268.29s.404-1.035.34-1.564c-.047-.384-.511-1.041-.511-1.041" style="fill:none;stroke:#000;stroke-width:.264583px;stroke-linecap:butt;stroke-linejoin:miter;stroke-opacity:1;marker-end:url(#j)"/><text xml:space="preserve" style="font-size:14.6667px;line-height:1.25;font-family:sans-serif;white-space:pre;shape-inside:url(#k)" transform="matrix(.26458 0 0 .26458 -.552 -.319)"><tspan x="205.934" y="1013.223">i2</tspan></text><text xml:space="preserve" style="font-size:14.6667px;line-height:1.25;font-family:sans-serif;white-space:pre;shape-inside:url(#l)" transform="matrix(.26458 0 0 .26458 -3.216 -4.125)"><tspan x="271.008" y="1042.631">E</tspan></text><text xml:space="preserve" style="font-size:14.6667px;line-height:1.25;font-family:sans-serif;white-space:pre;shape-inside:url(#m)" transform="matrix(.26458 0 0 .26458 19.691 5.029)"><tspan x="123.379" y="906.764">B</tspan></text><text xml:space="preserve" style="font-size:14.6667px;line-height:1.25;font-family:sans-serif;white-space:pre;shape-inside:url(#n)" transform="matrix(.26458 0 0 .26458 22.963 13.728)"><tspan x="170.396" y="900.133">C</tspan></text><path d="m43.588 268.28 26.658-15.017" style="fill:none;stroke:teal;stroke-width:.264583px;stroke-linecap:butt;stroke-linejoin:miter;stroke-opacity:1"/><path d="M56.868 262.475s-.456-2.615-1.28-3.575c-1.187-1.38-4.807-2.592-4.807-2.592" style="fill:none;stroke:#000;stroke-width:.264583px;stroke-linecap:butt;stroke-linejoin:miter;stroke-opacity:1;marker-end:url(#j)"/><text xml:space="preserve" style="font-size:14.6667px;line-height:1.25;font-family:sans-serif;white-space:pre;shape-inside:url(#o)" transform="matrix(.26458 0 0 .26458 25.775 -4.599)"><tspan x="106.998" y="990.076">u2</tspan></text><text xml:space="preserve" style="font-size:14.6667px;line-height:1.25;font-family:sans-serif;white-space:pre;shape-inside:url(#p)" transform="matrix(.26458 0 0 .26458 -3.422 -51.538)"><tspan x="391.293" y="1222.615">F</tspan></text><path d="M48.022 268.1s.271-1.33.05-1.917c-.22-.586-1.249-1.28-1.249-1.28" style="fill:none;stroke:#000;stroke-width:.264583px;stroke-linecap:butt;stroke-linejoin:miter;stroke-opacity:1;marker-end:url(#q)"/><text xml:space="preserve" style="font-size:14.6667px;line-height:1.25;font-family:sans-serif;white-space:pre;shape-inside:url(#r);display:inline" transform="matrix(.26458 0 0 .26458 -31.782 191.338)"><tspan x="297.447" y="275.551">i1</tspan></text><path d="M25.064 249.15s2.624-2.734 4.207-3.742c1.547-.985 5.053-2.18 5.053-2.18" style="fill:none;stroke:#000;stroke-width:.264583px;stroke-linecap:butt;stroke-linejoin:miter;stroke-opacity:1;marker-end:url(#j)"/><text xml:space="preserve" style="font-size:14.6667px;line-height:1.25;font-family:sans-serif;white-space:pre;shape-inside:url(#s)" transform="matrix(.26458 0 0 .26458 61.16 -23.471)"><tspan x="-147.666" y="1011.178">i1-i2</tspan></text></g></svg>