<svg xmlns="http://www.w3.org/2000/svg" width="600" height="4000" viewBox="0 0 158.75 1058.333"><defs><path id="aP" d="M293.575 2321.579h28.713v24.876h-28.713z"/><path id="aN" d="M354.521 2345.085h59.18v35.824h-59.18z"/><path id="aC" d="M278.248 2057.485h210.677v37.437H278.248z"/><path id="aB" d="M87.177 2104.67h421.077v67.578H87.177z"/><path id="aA" d="M294.214 1988.337h27.77v25.008h-27.77z"/><path id="az" d="M200.078 1856.646h36.039v25.502h-36.039z"/><path id="ay" d="M139.901 1851.118h25.977v28.907h-25.977z"/><path id="ax" d="M157.445 2017.369h36.711v37.622h-36.711z"/><path id="aw" d="M123.138 1972.447h21.834v16.792h-21.834z"/><path id="av" d="M267.981 1898.329h26.11v23.072h-26.11z"/><path id="au" d="M161.646 2034.471h38.156v24.21h-38.156z"/><path id="at" d="M218.586 2027.257h53.005v22.188h-53.005z"/><path id="as" d="M249.088 465.569h254.709v49.752H249.088z"/><path id="ar" d="M36.4 1385.045h164.142v25.89H36.4z"/><path id="Z" d="M-147.666 998.202h91.694v28.16h-91.694z"/><path id="Y" d="M444.036 1271h18.988v72.531h-18.988z"/><path id="V" d="M391.294 1209.639h45.467v33.055h-45.467z"/><path id="U" d="M72.466 1197.677h429.722v171.424H72.466z"/><path id="T" d="M106.999 977.099h43.608v23.457h-43.608z"/><path id="S" d="M170.396 887.155h51.287v28.884h-51.287z"/><path id="R" d="M123.378 893.787h33.183v20.587h-33.183z"/><path id="Q" d="M271.008 1029.654h39.033v31.955h-39.033z"/><path id="P" d="M205.933 1000.246H240.2v22.944h-34.267z"/><path id="t" d="M233.92 487.777h62.577v47.574H233.92z"/><path id="s" d="M62.586 328.485h255.34v34.586H62.586z"/><path id="r" d="M91.26 324.383h303.483v167.26H91.26z"/><path id="q" d="M209.512 237.971h32.899v19.47h-32.899z"/><path id="o" d="M190.743 238.793h32.673v18.216h-32.673z"/><path id="u" d="M126.984 258.936h42.995v24.019h-42.995z"/><path id="m" d="M144.961 171.434h20.181v17.024h-20.181z"/><path id="l" d="M277.39 227.391h29.253v20.905H277.39z"/><path id="k" d="M165.537 227.936h17.956v23.248h-17.956z"/><path id="j" d="M154.52 258.846h53.162v18.637H154.52z"/><path id="i" d="M134.534 178.276h23.407v18.098h-23.407z"/><path id="h" d="M297.447 262.575h73.804v34.937h-73.804z"/><path id="f" d="M19.156 15.76h266.063v35.878H19.156z"/><path id="e" d="M297.447 262.575h73.804v34.937h-73.804z"/><path id="y" d="M297.447 262.575h73.804v34.937h-73.804z"/><path id="A" d="M297.447 262.575h73.804v34.937h-73.804z"/><path id="B" d="M134.534 178.276h23.407v18.098h-23.407z"/><path id="C" d="M165.537 227.936h17.956v23.248h-17.956z"/><path id="D" d="M277.39 227.391h48.001v21.52H277.39z"/><path id="F" d="M62.586 328.485h255.34v34.586H62.586z"/><path id="v" d="M297.447 262.575h73.804v34.937h-73.804z"/><path id="G" d="M297.447 262.575h73.804v34.937h-73.804z"/><path id="J" d="M297.447 262.575h73.804v34.937h-73.804z"/><path id="K" d="M134.534 178.276h23.407v18.098h-23.407z"/><path id="L" d="M165.537 227.936h17.956v23.248h-17.956z"/><path id="M" d="M277.39 227.391h48.001v21.52H277.39z"/><path id="O" d="M62.586 328.485h375.723v31.328H62.586z"/><path id="X" d="M297.447 262.575h73.804v34.937h-73.804z"/><path id="ab" d="M297.447 262.575h73.804v34.937h-73.804z"/><path id="ad" d="M297.447 262.575h73.804v34.937h-73.804z"/><path id="ae" d="M134.534 178.276h23.407v18.098h-23.407z"/><path id="af" d="M154.52 258.846h53.162v18.637H154.52z"/><path id="ag" d="M165.537 227.936h17.956v23.248h-17.956z"/><path id="ah" d="M277.39 227.391h29.253v20.905H277.39z"/><path id="ai" d="M144.961 171.434h20.181v17.024h-20.181z"/><path id="ak" d="M190.743 238.793h32.673v18.216h-32.673z"/><path id="am" d="M209.512 237.971h32.899v19.47h-32.899z"/><path id="an" d="M91.26 324.383h303.483v167.26H91.26z"/><path id="ao" d="M62.586 328.485h255.34v34.586H62.586z"/><path id="ap" d="M233.92 487.777h62.577v47.574H233.92z"/><path id="aq" d="M126.984 258.936h42.995v24.019h-42.995z"/><path id="c" d="M36.4 1385.045h164.142v25.89H36.4z"/><path id="b" d="M249.088 465.569h309.477v42.19H249.088z"/><path id="aD" d="M218.586 2027.257h53.005v22.188h-53.005z"/><path id="aE" d="M161.646 2034.471h38.156v24.21h-38.156z"/><path id="aF" d="M267.981 1898.329h26.11v23.072h-26.11z"/><path id="aG" d="M157.445 2017.369h36.711v37.622h-36.711z"/><path id="aH" d="M139.901 1851.118h25.977v28.907h-25.977z"/><path id="aL" d="M200.078 1856.646h36.039v25.502h-36.039z"/><path id="aI" d="M294.214 1988.337h27.77v25.008h-27.77z"/><path id="aJ" d="M87.177 2104.67h421.077v67.578H87.177z"/><path id="aK" d="M278.248 2057.486h210.677v37.437H278.248z"/><path id="a" d="M267.981 1898.329h26.11v23.072h-26.11z"/><path id="aM" d="M267.981 1898.329h26.11v23.072h-26.11z"/><path id="aO" d="M354.521 2345.085h59.18v35.824h-59.18z"/><marker id="p" markerHeight="5" markerWidth="8.75" orient="auto-start-reverse" preserveAspectRatio="xMidYMid" refX="0" refY="0" style="overflow:visible" viewBox="0 0 8.75 5"><path d="m0 0 5-5-17.5 5L5 5Z" style="fill:context-stroke;fill-rule:evenodd;stroke:none" transform="scale(-.5)"/></marker><marker id="n" markerHeight="5" markerWidth="8.75" orient="auto-start-reverse" preserveAspectRatio="xMidYMid" refX="0" refY="0" style="overflow:visible" viewBox="0 0 8.75 5"><path d="m0 0 5-5-17.5 5L5 5Z" style="fill:context-stroke;fill-rule:evenodd;stroke:none" transform="scale(-.5)"/></marker><marker id="g" markerHeight="5" markerWidth="8.75" orient="auto-start-reverse" preserveAspectRatio="xMidYMid" refX="0" refY="0" style="overflow:visible" viewBox="0 0 8.75 5"><path d="m0 0 5-5-17.5 5L5 5Z" style="fill:context-stroke;fill-rule:evenodd;stroke:none" transform="scale(-.5)"/></marker><marker id="d" markerHeight="5" markerWidth="8.75" orient="auto-start-reverse" preserveAspectRatio="xMidYMid" refX="0" refY="0" style="overflow:visible" viewBox="0 0 8.75 5"><path d="m0 0 5-5-17.5 5L5 5Z" style="fill:context-stroke;fill-rule:evenodd;stroke:none" transform="scale(-.5)"/></marker><marker id="x" markerHeight="5" markerWidth="8.75" orient="auto-start-reverse" preserveAspectRatio="xMidYMid" refX="0" refY="0" style="overflow:visible" viewBox="0 0 8.75 5"><path d="m0 0 5-5-17.5 5L5 5Z" style="fill:context-stroke;fill-rule:evenodd;stroke:none" transform="scale(-.5)"/></marker><marker id="z" markerHeight="5" markerWidth="8.75" orient="auto-start-reverse" preserveAspectRatio="xMidYMid" refX="0" refY="0" style="overflow:visible" viewBox="0 0 8.75 5"><path d="m0 0 5-5-17.5 5L5 5Z" style="fill:context-stroke;fill-rule:evenodd;stroke:none" transform="scale(-.5)"/></marker><marker id="E" markerHeight="5" markerWidth="8.75" orient="auto-start-reverse" preserveAspectRatio="xMidYMid" refX="0" refY="0" style="overflow:visible" viewBox="0 0 8.75 5"><path d="m0 0 5-5-17.5 5L5 5Z" style="fill:context-stroke;fill-rule:evenodd;stroke:none" transform="scale(-.5)"/></marker><marker id="w" markerHeight="5" markerWidth="8.75" orient="auto-start-reverse" preserveAspectRatio="xMidYMid" refX="0" refY="0" style="overflow:visible" viewBox="0 0 8.75 5"><path d="m0 0 5-5-17.5 5L5 5Z" style="fill:context-stroke;fill-rule:evenodd;stroke:none" transform="scale(-.5)"/></marker><marker id="H" markerHeight="5" markerWidth="8.75" orient="auto-start-reverse" preserveAspectRatio="xMidYMid" refX="0" refY="0" style="overflow:visible" viewBox="0 0 8.75 5"><path d="m0 0 5-5-17.5 5L5 5Z" style="fill:context-stroke;fill-rule:evenodd;stroke:none" transform="scale(-.5)"/></marker><marker id="I" markerHeight="5" markerWidth="8.75" orient="auto-start-reverse" preserveAspectRatio="xMidYMid" refX="0" refY="0" style="overflow:visible" viewBox="0 0 8.75 5"><path d="m0 0 5-5-17.5 5L5 5Z" style="fill:context-stroke;fill-rule:evenodd;stroke:none" transform="scale(-.5)"/></marker><marker id="N" markerHeight="5" markerWidth="8.75" orient="auto-start-reverse" preserveAspectRatio="xMidYMid" refX="0" refY="0" style="overflow:visible" viewBox="0 0 8.75 5"><path d="m0 0 5-5-17.5 5L5 5Z" style="fill:context-stroke;fill-rule:evenodd;stroke:none" transform="scale(-.5)"/></marker><marker id="W" markerHeight="5" markerWidth="8.75" orient="auto-start-reverse" preserveAspectRatio="xMidYMid" refX="0" refY="0" style="overflow:visible" viewBox="0 0 8.75 5"><path d="m0 0 5-5-17.5 5L5 5Z" style="fill:context-stroke;fill-rule:evenodd;stroke:none" transform="scale(-.5)"/></marker><marker id="aa" markerHeight="5" markerWidth="8.75" orient="auto-start-reverse" preserveAspectRatio="xMidYMid" refX="0" refY="0" style="overflow:visible" viewBox="0 0 8.75 5"><path d="m0 0 5-5-17.5 5L5 5Z" style="fill:context-stroke;fill-rule:evenodd;stroke:none" transform="scale(-.5)"/></marker><marker id="ac" markerHeight="5" markerWidth="8.75" orient="auto-start-reverse" preserveAspectRatio="xMidYMid" refX="0" refY="0" style="overflow:visible" viewBox="0 0 8.75 5"><path d="m0 0 5-5-17.5 5L5 5Z" style="fill:context-stroke;fill-rule:evenodd;stroke:none" transform="scale(-.5)"/></marker><marker id="aj" markerHeight="5" markerWidth="8.75" orient="auto-start-reverse" preserveAspectRatio="xMidYMid" refX="0" refY="0" style="overflow:visible" viewBox="0 0 8.75 5"><path d="m0 0 5-5-17.5 5L5 5Z" style="fill:context-stroke;fill-rule:evenodd;stroke:none" transform="scale(-.5)"/></marker><marker id="al" markerHeight="5" markerWidth="8.75" orient="auto-start-reverse" preserveAspectRatio="xMidYMid" refX="0" refY="0" style="overflow:visible" viewBox="0 0 8.75 5"><path d="m0 0 5-5-17.5 5L5 5Z" style="fill:context-stroke;fill-rule:evenodd;stroke:none" transform="scale(-.5)"/></marker></defs><path d="M20.77 487.505h93.287v75.254H20.77z" style="fill:#fff;stroke:#fff;stroke-width:.264583"/><text xml:space="preserve" style="font-size:14.6667px;line-height:1.25;font-family:sans-serif;white-space:pre;shape-inside:url(#a);display:inline;fill:#00aad4" transform="matrix(.26458 0 0 .26458 -13.387 13.839)"><tspan x="267.98" y="1911.305">ap</tspan></text><path d="M139.837 492.677h10.234v5.226h-10.234z" style="fill:none;stroke:#b3b3b3;stroke-width:.264583" transform="rotate(8.748) skewX(.015)"/><path d="M8.318 364.823h72.743v68.101H8.318zM16.038 218.095h116.708v87.855H16.038z" style="fill:#fff;stroke:#fff;stroke-width:.264583"/><text xml:space="preserve" style="font-size:14.6667px;line-height:1.25;font-family:sans-serif;white-space:pre;shape-inside:url(#b);display:inline" transform="matrix(.26458 0 0 .26458 -13.063 95.427)"><tspan x="249.088" y="478.545">C: point of the involute at u=u2=-j=i1-i2</tspan></text><path d="M8.649 28.141h72.638v64.705H8.649z" style="fill:#fff;stroke:#fff;stroke-width:.264583"/><text xml:space="preserve" style="font-size:14.6667px;line-height:1.25;font-family:sans-serif;white-space:pre;shape-inside:url(#c);display:inline" transform="matrix(.26458 0 0 .26458 .557 -337.37)"><tspan x="36.4" y="1398.022">tooth right side</tspan></text><path d="M77.153 49.953s.27-1.329.05-1.917c-.22-.585-1.25-1.28-1.25-1.28" style="fill:none;stroke:#000;stroke-width:.264583px;stroke-linecap:butt;stroke-linejoin:miter;stroke-opacity:1;marker-end:url(#d)"/><text xml:space="preserve" style="font-size:14.6667px;line-height:1.25;font-family:sans-serif;white-space:pre;shape-inside:url(#e);display:inline" transform="matrix(.26458 0 0 .26458 -1.753 -25.027)"><tspan x="297.447" y="275.551">u</tspan></text><path d="m36.275 60.315 36.661-10.567" style="fill:none;stroke:green;stroke-width:.264583px;stroke-linecap:butt;stroke-linejoin:miter;stroke-opacity:1"/><text xml:space="preserve" style="font-size:14.6667px;line-height:1.25;font-family:sans-serif;white-space:pre;shape-inside:url(#f);display:inline" transform="scale(.26458)"><tspan x="19.156" y="28.736">involute_of_circle.svg</tspan></text><circle cx="36.275" cy="60.315" r="24.769" style="fill:none;stroke:gray;stroke-width:.264583"/><path d="M36.275 60.315h24.769M36.275 60.315 46.491 37.75" style="fill:none;stroke:teal;stroke-width:.264583px;stroke-linecap:butt;stroke-linejoin:miter;stroke-opacity:1"/><path d="M40.672 60.261s.272-1.329.05-1.917c-.22-.585-1.248-1.28-1.248-1.28" style="fill:none;stroke:#000;stroke-width:.264583px;stroke-linecap:butt;stroke-linejoin:miter;stroke-opacity:1;marker-end:url(#g)"/><text xml:space="preserve" style="font-size:14.6667px;line-height:1.25;font-family:sans-serif;white-space:pre;shape-inside:url(#h);display:inline" transform="matrix(.26458 0 0 .26458 -38.234 -14.719)"><tspan x="297.447" y="275.551">u</tspan></text><path d="m46.487 37.758 26.45 11.99" style="fill:none;stroke:red;stroke-width:.264582px;stroke-linecap:butt;stroke-linejoin:miter;stroke-opacity:1"/><text xml:space="preserve" style="font-size:14.6667px;line-height:1.25;font-family:sans-serif;white-space:pre;shape-inside:url(#i);display:inline" transform="matrix(.26458 0 0 .26458 2.86 -2.523)"><tspan x="134.535" y="191.252">R</tspan></text><path d="M46.608 37.988s2.778 1.371 4.055 2.24c1.336.91 2.625 1.917 3.737 3.089 1.209 1.273 2.221 2.732 3.139 4.228.832 1.358 1.577 2.784 2.129 4.278.51 1.384.842 2.836 1.074 4.293.22 1.378.298 4.176.298 4.176" style="fill:none;stroke:red;stroke-width:.264583px;stroke-linecap:butt;stroke-linejoin:miter;stroke-opacity:1"/><text xml:space="preserve" style="font-size:14.6667px;line-height:1.25;font-family:sans-serif;white-space:pre;shape-inside:url(#j);display:inline" transform="matrix(.26458 0 0 .26458 19.124 -28.351)"><tspan x="154.52" y="271.822">u*R</tspan></text><text xml:space="preserve" style="font-size:14.6667px;line-height:1.25;font-family:sans-serif;white-space:pre;shape-inside:url(#k);display:inline" transform="matrix(.26458 0 0 .26458 -10.583 0)"><tspan x="165.537" y="240.912">O</tspan></text><text xml:space="preserve" style="font-size:14.6667px;line-height:1.25;font-family:sans-serif;white-space:pre;shape-inside:url(#l);display:inline" transform="matrix(.26458 0 0 .26458 -11.741 -.106)"><tspan x="277.391" y="240.367">A</tspan></text><text xml:space="preserve" style="font-size:14.6667px;line-height:1.25;font-family:sans-serif;white-space:pre;shape-inside:url(#m);display:inline" transform="matrix(.26458 0 0 .26458 7.092 -12.082)"><tspan x="144.961" y="184.41">B</tspan></text><path d="M46.555 57.293s-.52-2.583-1.178-3.696a4.278 4.278 0 0 0-1.29-1.355c-.6-.4-2.017-.78-2.017-.78" style="fill:none;stroke:#000;stroke-width:.264583px;stroke-linecap:butt;stroke-linejoin:miter;stroke-opacity:1;marker-end:url(#n)"/><text xml:space="preserve" style="font-size:14.6667px;line-height:1.25;font-family:sans-serif;white-space:pre;shape-inside:url(#o);display:inline" transform="matrix(.26458 0 0 .26458 -5.498 -13.164)"><tspan x="190.742" y="251.77">v</tspan></text><path d="M49.785 60.219s.495-.87.488-1.349c-.006-.441-.486-1.231-.486-1.231" style="fill:none;stroke:#000;stroke-width:.264583px;stroke-linecap:butt;stroke-linejoin:miter;stroke-opacity:1;marker-end:url(#p)"/><text xml:space="preserve" style="font-size:14.6667px;line-height:1.25;font-family:sans-serif;white-space:pre;shape-inside:url(#q);display:inline" transform="matrix(.26458 0 0 .26458 -4.934 -6.65)"><tspan x="209.512" y="250.947">w</tspan></text><path d="M61.225 60.291s1.784-.046 2.591-.378c2.47-1.015 4.705-2.73 6.448-4.752 1.303-1.511 2.198-3.388 2.803-5.29.904-2.844 1.032-5.898 1.15-8.88.105-2.69-.408-8.064-.408-8.064" style="fill:none;stroke:#f0f;stroke-width:.529167;stroke-linecap:butt;stroke-linejoin:miter;stroke-opacity:1;marker-end:url(#p)"/><text xml:space="preserve" style="font-size:14.6667px;line-height:1.25;font-family:sans-serif;white-space:pre;shape-inside:url(#r);display:inline" transform="matrix(.26458 0 0 .26458 61.906 -41.256)"><tspan x="91.26" y="337.359">OB=R
</tspan><tspan x="91.26" y="355.693">BC=arc(BA)=u*R
</tspan><tspan x="91.26" y="374.026">L=OC=sqrt(R<tspan style="font-size:65%;baseline-shift:super">2</tspan>+u<tspan style="font-size:65%;baseline-shift:super">2</tspan>*R<tspan style="font-size:65%;baseline-shift:super">2</tspan>)=R*sqrt(1+u<tspan style="font-size:65%;baseline-shift:super">2</tspan>)
</tspan><tspan x="91.26" y="392.36">u=v+w
</tspan><tspan x="91.26" y="410.693">v=atan(u*R/R)=atan(u) if u&lt;PI/2
</tspan><tspan x="91.26" y="429.026">w=u-v=u-atan(u)
</tspan><tspan x="91.26" y="447.36">u=sqrt(L<tspan style="font-size:65%;baseline-shift:super">2</tspan>/R<tspan style="font-size:65%;baseline-shift:super">2</tspan>-1)
</tspan><tspan x="91.26" y="465.693">u=f(w) [I don&apos;t know how to find f]</tspan></text><text xml:space="preserve" style="font-size:14.6667px;line-height:1.25;font-family:sans-serif;white-space:pre;shape-inside:url(#s);display:inline" transform="matrix(.26458 0 0 .26458 -4.705 .06)"><tspan x="62.586" y="341.461">involute of circle (R, 0)</tspan></text><text xml:space="preserve" style="font-size:14.6667px;line-height:1.25;font-family:sans-serif;white-space:pre;shape-inside:url(#t);display:inline" transform="matrix(.26458 0 0 .26458 -7.854 -78.438)"><tspan x="233.92" y="500.754">L</tspan></text><path d="m72.967 49.881 4.474-9.988" style="fill:none;stroke:teal;stroke-width:.264583px;stroke-linecap:butt;stroke-linejoin:miter;stroke-opacity:1;marker-end:url(#p)"/><text xml:space="preserve" style="font-size:14.6667px;line-height:1.25;font-family:sans-serif;white-space:pre;shape-inside:url(#u);display:inline" transform="matrix(.26458 0 0 .26458 37.274 -18.43)"><tspan x="126.984" y="271.912">C</tspan></text><path d="M73.156 49.935h7.131" style="fill:none;stroke:#999;stroke-width:.264583px;stroke-linecap:butt;stroke-linejoin:miter;stroke-opacity:1"/><path d="m46.042 38.984 1.172.512.462-1.28M73.558 48.448l-1.172-.511-.462 1.279" style="fill:none;stroke:#000;stroke-width:.264583px;stroke-linecap:butt;stroke-linejoin:miter;stroke-opacity:1"/><path d="M17.712 113.272H134.42v87.855H17.712z" style="fill:#fff;stroke:#fff;stroke-width:.264583"/><text xml:space="preserve" style="font-size:14.6667px;line-height:1.25;font-family:sans-serif;white-space:pre;shape-inside:url(#v);display:inline" transform="matrix(.26458 0 0 .26458 21.972 85.207)"><tspan x="297.447" y="275.551">i1</tspan></text><path d="M104.846 159.089s-1.33-.272-1.917-.05c-.586.22-1.28 1.249-1.28 1.249" style="fill:none;stroke:#000;stroke-width:.264583px;stroke-linecap:butt;stroke-linejoin:miter;stroke-opacity:1;marker-end:url(#w)"/><path d="M59.782 141.072s.27-1.33.05-1.917c-.22-.586-1.25-1.28-1.25-1.28" style="fill:none;stroke:#000;stroke-width:.264583px;stroke-linecap:butt;stroke-linejoin:miter;stroke-opacity:1;marker-end:url(#x)"/><text xml:space="preserve" style="font-size:14.6667px;line-height:1.25;font-family:sans-serif;white-space:pre;shape-inside:url(#y);display:inline" transform="matrix(.26458 0 0 .26458 -18.485 66.992)"><tspan x="297.447" y="275.551">i1</tspan></text><circle cx="45.338" cy="163.467" r="24.769" style="fill:none;stroke:gray;stroke-width:.264583"/><path d="M45.338 163.467h74.13M45.338 163.467l10.216-22.563" style="fill:none;stroke:teal;stroke-width:.264583px;stroke-linecap:butt;stroke-linejoin:miter;stroke-opacity:1"/><path d="M49.735 163.414s.271-1.329.05-1.917c-.22-.585-1.249-1.28-1.249-1.28" style="fill:none;stroke:#000;stroke-width:.264583px;stroke-linecap:butt;stroke-linejoin:miter;stroke-opacity:1;marker-end:url(#z)"/><text xml:space="preserve" style="font-size:14.6667px;line-height:1.25;font-family:sans-serif;white-space:pre;shape-inside:url(#A);display:inline" transform="matrix(.26458 0 0 .26458 -28.769 88.806)"><tspan x="297.447" y="275.551">i1</tspan></text><path d="m55.513 140.965 68.845 31.349" style="fill:none;stroke:red;stroke-width:.264581px;stroke-linecap:butt;stroke-linejoin:miter;stroke-opacity:1"/><text xml:space="preserve" style="font-size:14.6667px;line-height:1.25;font-family:sans-serif;white-space:pre;shape-inside:url(#B);display:inline" transform="matrix(.26458 0 0 .26458 11.923 100.63)"><tspan x="134.535" y="191.252">R</tspan></text><text xml:space="preserve" style="font-size:14.6667px;line-height:1.25;font-family:sans-serif;white-space:pre;shape-inside:url(#C);display:inline" transform="matrix(.26458 0 0 .26458 -1.52 103.153)"><tspan x="165.537" y="240.912">O</tspan></text><text xml:space="preserve" style="font-size:14.6667px;line-height:1.25;font-family:sans-serif;white-space:pre;shape-inside:url(#D);display:inline" transform="matrix(.26458 0 0 .26458 -26.818 77.452)"><tspan x="277.391" y="240.367">ABC</tspan></text><path d="M55.604 140.838s.838-1.576.946-2.442c.332-2.65-.06-5.439-.962-7.952-.674-1.878-1.867-3.58-3.224-5.043-2.03-2.188-4.626-3.803-7.165-5.373-2.288-1.416-7.218-3.616-7.218-3.616" style="fill:none;stroke:#f0f;stroke-width:.529167;stroke-linecap:butt;stroke-linejoin:miter;stroke-opacity:1;marker-end:url(#E)"/><text xml:space="preserve" style="font-size:14.6667px;line-height:1.25;font-family:sans-serif;white-space:pre;shape-inside:url(#F);display:inline" transform="matrix(.26458 0 0 .26458 3.682 108.245)"><tspan x="62.586" y="341.461">involute of circle (R, i1)</tspan></text><path d="m55.596 141 4.474-9.988" style="fill:none;stroke:teal;stroke-width:.264583px;stroke-linecap:butt;stroke-linejoin:miter;stroke-opacity:1;marker-end:url(#E)"/><path d="M55.785 141.053h7.131" style="fill:none;stroke:#999;stroke-width:.264583px;stroke-linecap:butt;stroke-linejoin:miter;stroke-opacity:1"/><path d="m55.105 142.137 1.171.512.463-1.28" style="fill:none;stroke:#000;stroke-width:.264583px;stroke-linecap:butt;stroke-linejoin:miter;stroke-opacity:1"/><path d="M104.975 171.845v-17.02" style="fill:none;stroke:#ccc;stroke-width:.264583px;stroke-linecap:butt;stroke-linejoin:miter;stroke-opacity:1"/><text xml:space="preserve" style="font-size:14.6667px;line-height:1.25;font-family:sans-serif;white-space:pre;shape-inside:url(#G);display:inline" transform="matrix(.26458 0 0 .26458 17.906 190.327)"><tspan x="297.447" y="275.551">i1</tspan></text><path d="M103.172 263.912s-1.33-.272-1.917-.05c-.586.22-1.28 1.249-1.28 1.249" style="fill:none;stroke:#000;stroke-width:.264583px;stroke-linecap:butt;stroke-linejoin:miter;stroke-opacity:1;marker-end:url(#H)"/><path d="M74.823 253.244s.27-1.33.05-1.917c-.22-.586-1.25-1.28-1.25-1.28" style="fill:none;stroke:#000;stroke-width:.264583px;stroke-linecap:butt;stroke-linejoin:miter;stroke-opacity:1;marker-end:url(#I)"/><text xml:space="preserve" style="font-size:14.6667px;line-height:1.25;font-family:sans-serif;white-space:pre;shape-inside:url(#J);display:inline" transform="matrix(.26458 0 0 .26458 -3.444 179.165)"><tspan x="297.447" y="275.551">i1</tspan></text><circle cx="43.664" cy="268.291" r="24.769" style="fill:none;stroke:gray;stroke-width:.264583"/><path d="M43.664 268.29h74.13M43.664 268.29l10.216-22.563" style="fill:none;stroke:teal;stroke-width:.264583px;stroke-linecap:butt;stroke-linejoin:miter;stroke-opacity:1"/><path d="m53.84 245.788 68.844 31.349" style="fill:none;stroke:red;stroke-width:.264581px;stroke-linecap:butt;stroke-linejoin:miter;stroke-opacity:1"/><text xml:space="preserve" style="font-size:14.6667px;line-height:1.25;font-family:sans-serif;white-space:pre;shape-inside:url(#K);display:inline" transform="matrix(.26458 0 0 .26458 10.25 205.452)"><tspan x="134.535" y="191.252">R</tspan></text><text xml:space="preserve" style="font-size:14.6667px;line-height:1.25;font-family:sans-serif;white-space:pre;shape-inside:url(#L);display:inline" transform="matrix(.26458 0 0 .26458 -3.195 207.976)"><tspan x="165.537" y="240.912">O</tspan></text><text xml:space="preserve" style="font-size:14.6667px;line-height:1.25;font-family:sans-serif;white-space:pre;shape-inside:url(#M);display:inline" transform="matrix(.26458 0 0 .26458 -8.79 198.418)"><tspan x="277.391" y="240.367">A</tspan></text><path d="M66.343 258.132s1.542-.897 2.091-1.576c1.68-2.076 2.817-4.653 3.376-7.264.417-1.951.3-4.027-.082-5.985-.572-2.93-1.925-5.67-3.255-8.343-1.198-2.41-4.228-6.878-4.228-6.878" style="fill:none;stroke:#f0f;stroke-width:.529167;stroke-linecap:butt;stroke-linejoin:miter;stroke-opacity:1;marker-end:url(#N)"/><text xml:space="preserve" style="font-size:14.6667px;line-height:1.25;font-family:sans-serif;white-space:pre;shape-inside:url(#O);display:inline" transform="matrix(.26458 0 0 .26458 2.007 213.068)"><tspan x="62.586" y="341.461">involute of circle (R, i2)</tspan></text><path d="m70.637 253.172 4.474-9.988" style="fill:none;stroke:teal;stroke-width:.264583px;stroke-linecap:butt;stroke-linejoin:miter;stroke-opacity:1;marker-end:url(#N)"/><path d="M70.826 253.226h7.131" style="fill:none;stroke:#999;stroke-width:.264583px;stroke-linecap:butt;stroke-linejoin:miter;stroke-opacity:1"/><path d="m53.43 246.96 1.172.512.463-1.28" style="fill:none;stroke:#000;stroke-width:.264583px;stroke-linecap:butt;stroke-linejoin:miter;stroke-opacity:1"/><path d="M103.301 276.668v-17.02" style="fill:none;stroke:#ccc;stroke-width:.264583px;stroke-linecap:butt;stroke-linejoin:miter;stroke-opacity:1"/><path d="m43.664 268.29 22.603-10.127" style="fill:none;stroke:#ffb380;stroke-width:.264583px;stroke-linecap:butt;stroke-linejoin:miter;stroke-opacity:1"/><path d="M53.297 268.29s.404-1.035.34-1.564c-.047-.384-.511-1.041-.511-1.041" style="fill:none;stroke:#000;stroke-width:.264583px;stroke-linecap:butt;stroke-linejoin:miter;stroke-opacity:1;marker-end:url(#p)"/><text xml:space="preserve" style="font-size:14.6667px;line-height:1.25;font-family:sans-serif;white-space:pre;shape-inside:url(#P);display:inline" transform="matrix(.26458 0 0 .26458 -.552 -.319)"><tspan x="205.934" y="1013.223">i2</tspan></text><text xml:space="preserve" style="font-size:14.6667px;line-height:1.25;font-family:sans-serif;white-space:pre;shape-inside:url(#Q);display:inline" transform="matrix(.26458 0 0 .26458 -3.216 -4.125)"><tspan x="271.008" y="1042.631">E</tspan></text><text xml:space="preserve" style="font-size:14.6667px;line-height:1.25;font-family:sans-serif;white-space:pre;shape-inside:url(#R);display:inline" transform="matrix(.26458 0 0 .26458 19.691 5.029)"><tspan x="123.379" y="906.764">B</tspan></text><text xml:space="preserve" style="font-size:14.6667px;line-height:1.25;font-family:sans-serif;white-space:pre;shape-inside:url(#S);display:inline" transform="matrix(.26458 0 0 .26458 22.963 13.728)"><tspan x="170.396" y="900.133">C</tspan></text><path d="m43.588 268.28 26.658-15.017" style="fill:none;stroke:teal;stroke-width:.264583px;stroke-linecap:butt;stroke-linejoin:miter;stroke-opacity:1"/><path d="M56.868 262.475s-.456-2.615-1.28-3.575c-1.187-1.38-4.807-2.592-4.807-2.592" style="fill:none;stroke:#000;stroke-width:.264583px;stroke-linecap:butt;stroke-linejoin:miter;stroke-opacity:1;marker-end:url(#p)"/><text xml:space="preserve" style="font-size:14.6667px;line-height:1.25;font-family:sans-serif;white-space:pre;shape-inside:url(#T);display:inline" transform="matrix(.26458 0 0 .26458 25.775 -4.599)"><tspan x="106.998" y="990.076">u2</tspan></text><text xml:space="preserve" style="font-size:14.6667px;line-height:1.25;font-family:sans-serif;white-space:pre;shape-inside:url(#U);display:inline" transform="scale(.26458)"><tspan x="72.465" y="1210.652">if we choose u2=i1-i2, then
</tspan><tspan x="72.465" y="1228.986">- C is on BF
</tspan><tspan x="72.465" y="1247.319">- BC=R*u2=R*i1-R*i2
</tspan><tspan x="72.465" y="1265.652">- dBC/dt=-R*di2/dt
</tspan><tspan x="72.465" y="1283.986">- inclination of tangent in C = i1</tspan></text><text xml:space="preserve" style="font-size:14.6667px;line-height:1.25;font-family:sans-serif;white-space:pre;shape-inside:url(#V);display:inline" transform="matrix(.26458 0 0 .26458 -3.422 -51.538)"><tspan x="391.293" y="1222.615">F</tspan></text><path d="M48.022 268.1s.271-1.33.05-1.917c-.22-.586-1.249-1.28-1.249-1.28" style="fill:none;stroke:#000;stroke-width:.264583px;stroke-linecap:butt;stroke-linejoin:miter;stroke-opacity:1;marker-end:url(#W)"/><text xml:space="preserve" style="font-size:14.6667px;line-height:1.25;font-family:sans-serif;white-space:pre;shape-inside:url(#X);display:inline" transform="matrix(.26458 0 0 .26458 -31.782 191.338)"><tspan x="297.447" y="275.551">i1</tspan></text><path d="M25.064 249.15s2.624-2.734 4.207-3.742c1.547-.985 5.053-2.18 5.053-2.18" style="fill:none;stroke:#000;stroke-width:.264583px;stroke-linecap:butt;stroke-linejoin:miter;stroke-opacity:1;marker-end:url(#p)"/><text xml:space="preserve" style="font-size:14.6667px;line-height:1.25;font-family:sans-serif;white-space:pre;shape-inside:url(#Z);display:inline" transform="matrix(.26458 0 0 .26458 59.044 -24)"><tspan x="-147.666" y="1011.178">j=i2-i1</tspan></text><path d="M75.548 406.003s.271 1.33.05 1.917c-.22.586-1.249 1.28-1.249 1.28" style="fill:none;stroke:#000;stroke-width:.264583px;stroke-linecap:butt;stroke-linejoin:miter;stroke-opacity:1;marker-end:url(#aa)"/><text xml:space="preserve" style="font-size:14.6667px;line-height:1.25;font-family:sans-serif;white-space:pre;shape-inside:url(#ab);display:inline" transform="matrix(.26458 0 0 .26458 -3.012 336.824)"><tspan x="297.447" y="275.551">u</tspan></text><path d="m34.67 395.642 36.662 10.567" style="fill:none;stroke:green;stroke-width:.264583px;stroke-linecap:butt;stroke-linejoin:miter;stroke-opacity:1"/><circle cx="34.626" cy="395.823" r="24.769" style="fill:none;stroke:gray;stroke-width:.264583"/><path d="M34.626 395.823h24.769M34.67 395.642l10.217 22.564" style="fill:none;stroke:teal;stroke-width:.264583px;stroke-linecap:butt;stroke-linejoin:miter;stroke-opacity:1"/><path d="M39.068 395.695s.271 1.33.05 1.917c-.22.586-1.249 1.28-1.249 1.28" style="fill:none;stroke:#000;stroke-width:.264583px;stroke-linecap:butt;stroke-linejoin:miter;stroke-opacity:1;marker-end:url(#ac)"/><text xml:space="preserve" style="font-size:14.6667px;line-height:1.25;font-family:sans-serif;white-space:pre;shape-inside:url(#ad);display:inline" transform="matrix(.26458 0 0 .26458 -39.692 327.003)"><tspan x="297.447" y="275.551">u</tspan></text><path d="m44.882 418.2 26.45-11.991" style="fill:none;stroke:red;stroke-width:.264582px;stroke-linecap:butt;stroke-linejoin:miter;stroke-opacity:1"/><text xml:space="preserve" style="font-size:14.6667px;line-height:1.25;font-family:sans-serif;white-space:pre;shape-inside:url(#ae);display:inline" transform="matrix(.26458 0 0 .26458 1.575 358.962)"><tspan x="134.535" y="191.252">R</tspan></text><path d="M45.003 417.969s2.779-1.372 4.055-2.24c1.336-.91 2.625-1.917 3.738-3.089 1.208-1.273 2.22-2.732 3.138-4.228.833-1.358 1.578-2.784 2.129-4.278.51-1.384.842-2.836 1.074-4.293.22-1.378.298-4.176.298-4.176" style="fill:none;stroke:red;stroke-width:.264583px;stroke-linecap:butt;stroke-linejoin:miter;stroke-opacity:1"/><text xml:space="preserve" style="font-size:14.6667px;line-height:1.25;font-family:sans-serif;white-space:pre;shape-inside:url(#af);display:inline" transform="matrix(.26458 0 0 .26458 15.493 343.869)"><tspan x="154.52" y="271.822">u*R</tspan></text><text xml:space="preserve" style="font-size:14.6667px;line-height:1.25;font-family:sans-serif;white-space:pre;shape-inside:url(#ag);display:inline" transform="matrix(.26458 0 0 .26458 -12.233 335.509)"><tspan x="165.537" y="240.912">O</tspan></text><text xml:space="preserve" style="font-size:14.6667px;line-height:1.25;font-family:sans-serif;white-space:pre;shape-inside:url(#ah);display:inline" transform="matrix(.26458 0 0 .26458 -13.716 331.022)"><tspan x="277.391" y="240.367">A</tspan></text><text xml:space="preserve" style="font-size:14.6667px;line-height:1.25;font-family:sans-serif;white-space:pre;shape-inside:url(#ai);display:inline" transform="matrix(.26458 0 0 .26458 5.67 372.928)"><tspan x="144.961" y="184.41">B</tspan></text><path d="M44.95 398.664s-.519 2.583-1.178 3.696a4.278 4.278 0 0 1-1.29 1.354c-.599.401-2.017.782-2.017.782" style="fill:none;stroke:#000;stroke-width:.264583px;stroke-linecap:butt;stroke-linejoin:miter;stroke-opacity:1;marker-end:url(#aj)"/><text xml:space="preserve" style="font-size:14.6667px;line-height:1.25;font-family:sans-serif;white-space:pre;shape-inside:url(#ak);display:inline" transform="matrix(.26458 0 0 .26458 -6.608 338.18)"><tspan x="190.742" y="251.77">v</tspan></text><path d="M48.18 395.738s.495.87.488 1.349c-.006.44-.485 1.231-.485 1.231" style="fill:none;stroke:#000;stroke-width:.264583px;stroke-linecap:butt;stroke-linejoin:miter;stroke-opacity:1;marker-end:url(#al)"/><text xml:space="preserve" style="font-size:14.6667px;line-height:1.25;font-family:sans-serif;white-space:pre;shape-inside:url(#am);display:inline" transform="matrix(.26458 0 0 .26458 -6.105 332.585)"><tspan x="209.512" y="250.947">w</tspan></text><path d="M59.62 395.666s1.784.046 2.591.378c2.47 1.015 4.706 2.73 6.449 4.752 1.303 1.511 2.197 3.388 2.802 5.29.905 2.844 1.033 5.898 1.15 8.88.105 2.69-.407 8.064-.407 8.064" style="fill:none;stroke:#f0f;stroke-width:.529167;stroke-linecap:butt;stroke-linejoin:miter;stroke-opacity:1;marker-end:url(#al)"/><text xml:space="preserve" style="font-size:14.6667px;line-height:1.25;font-family:sans-serif;white-space:pre;shape-inside:url(#an);display:inline" transform="matrix(.26458 0 0 .26458 60.257 294.253)"><tspan x="91.26" y="337.359">OB=R
</tspan><tspan x="91.26" y="355.693">BC=arc(BA)=u*R
</tspan><tspan x="91.26" y="374.026">L=OC=sqrt(R<tspan style="font-size:65%;baseline-shift:super">2</tspan>+u<tspan style="font-size:65%;baseline-shift:super">2</tspan>*R<tspan style="font-size:65%;baseline-shift:super">2</tspan>)=R*sqrt(1+u<tspan style="font-size:65%;baseline-shift:super">2</tspan>)
</tspan><tspan x="91.26" y="392.36">u=v+w
</tspan><tspan x="91.26" y="410.693">v=atan(u*R/R)=atan(u) if u&lt;PI/2
</tspan><tspan x="91.26" y="429.026">w=u-v=u-atan(u)
</tspan><tspan x="91.26" y="447.36">u=sqrt(L<tspan style="font-size:65%;baseline-shift:super">2</tspan>/R<tspan style="font-size:65%;baseline-shift:super">2</tspan>-1)
</tspan><tspan x="91.26" y="465.693">u=f(w) [I don&apos;t know how to find f]</tspan></text><text xml:space="preserve" style="font-size:14.6667px;line-height:1.25;font-family:sans-serif;white-space:pre;shape-inside:url(#ao);display:inline" transform="matrix(.26458 0 0 .26458 -7.413 341.39)"><tspan x="62.586" y="341.461">negative involute of circle (R, 0)</tspan></text><text xml:space="preserve" style="font-size:14.6667px;line-height:1.25;font-family:sans-serif;white-space:pre;shape-inside:url(#ap);display:inline" transform="matrix(.26458 0 0 .26458 -10.692 271.444)"><tspan x="233.92" y="500.754">L</tspan></text><path d="m71.363 406.075 4.473 9.988" style="fill:none;stroke:teal;stroke-width:.264583px;stroke-linecap:butt;stroke-linejoin:miter;stroke-opacity:1;marker-end:url(#al)"/><text xml:space="preserve" style="font-size:14.6667px;line-height:1.25;font-family:sans-serif;white-space:pre;shape-inside:url(#aq);display:inline" transform="matrix(.26458 0 0 .26458 37.907 333.691)"><tspan x="126.984" y="271.912">C</tspan></text><path d="M71.552 406.022h7.13" style="fill:none;stroke:#999;stroke-width:.264583px;stroke-linecap:butt;stroke-linejoin:miter;stroke-opacity:1"/><path d="m44.438 416.973 1.171-.512.463 1.28M71.953 407.509l-1.171.511-.463-1.28" style="fill:none;stroke:#000;stroke-width:.264583px;stroke-linecap:butt;stroke-linejoin:miter;stroke-opacity:1"/><text xml:space="preserve" style="font-size:14.6667px;line-height:1.25;font-family:sans-serif;white-space:pre;shape-inside:url(#ar);display:inline" transform="matrix(.26458 0 0 .26458 -.717 -1.033)"><tspan x="36.4" y="1398.022">tooth left side</tspan></text><text xml:space="preserve" style="font-size:14.6667px;line-height:1.25;font-family:sans-serif;white-space:pre;shape-inside:url(#as)" transform="matrix(.26458 0 0 .26458 .318 -8.782)"><tspan x="249.088" y="478.545">C: point of the involute at u=0</tspan></text><circle cx="47.3" cy="530.298" r="24.648" style="fill:none;stroke:gray;stroke-width:.264583"/><circle cx="98.663" cy="501.396" r="12.253" style="fill:none;stroke:gray;stroke-width:.264583"/><path d="m47.302 530.3 51.361-28.904" style="fill:none;stroke:#00f;stroke-width:.264583px;stroke-linecap:butt;stroke-linejoin:miter;stroke-opacity:1"/><path d="M47.3 530.298h24.769" style="fill:none;stroke:teal;stroke-width:.264583px;stroke-linecap:butt;stroke-linejoin:miter;stroke-opacity:1"/><path d="m86.799 519.985-10.144-18.13" style="fill:none;stroke:#00aad4;stroke-width:.264583px;stroke-linecap:butt;stroke-linejoin:miter;stroke-opacity:1"/><path d="m51.277 505.986 45.617 7.46M47.3 530.298l3.998-24.444M96.717 513.362l1.928-12.042" style="fill:none;stroke:green;stroke-width:.264583px;stroke-linecap:butt;stroke-linejoin:miter;stroke-opacity:1"/><path d="M55.03 530.448s.46-.998.406-1.519c-.05-.469-.641-1.26-.641-1.26" style="fill:none;stroke:#000;stroke-width:.264583px;stroke-linecap:butt;stroke-linejoin:miter;stroke-opacity:1;marker-end:url(#p)"/><text xml:space="preserve" style="font-size:14.6667px;line-height:1.25;font-family:sans-serif;white-space:pre;shape-inside:url(#at)" transform="matrix(.26458 0 0 .26458 -1.456 -10.264)"><tspan x="218.586" y="2040.234">acc</tspan></text><text xml:space="preserve" style="font-size:14.6667px;line-height:1.25;font-family:sans-serif;white-space:pre;shape-inside:url(#au);fill:green" transform="matrix(.26458 0 0 .26458 -.04 -26.572)"><tspan x="161.646" y="2047.447">br1</tspan></text><path d="M79.06 506.206s-1.326.159-1.821.556c-.567.455-1.071 1.9-1.071 1.9" style="fill:none;stroke:#08a;stroke-width:.264583px;stroke-linecap:butt;stroke-linejoin:miter;stroke-opacity:1;marker-end:url(#p)"/><text xml:space="preserve" style="font-size:14.6667px;line-height:1.25;font-family:sans-serif;white-space:pre;shape-inside:url(#av);fill:#00aad4" transform="matrix(.26458 0 0 .26458 1.045 .88)"><tspan x="267.98" y="1911.305">ap</tspan></text><path d="m50.957 507.98 2.095.348.22-1.83M94.854 513.146l.183-1.814 1.989.26" style="fill:none;stroke:#000;stroke-width:.264583px;stroke-linecap:butt;stroke-linejoin:miter;stroke-opacity:1"/><path d="m47.3 530.298 16.24-22.185" style="fill:none;stroke:#f60;stroke-width:.264583px;stroke-linecap:butt;stroke-linejoin:miter;stroke-opacity:1"/><path d="M48.51 522.385s.791-.195 1.175-.11c.437.099 1.157.685 1.157.685" style="fill:none;stroke:#c0f;stroke-width:.264583px;stroke-linecap:butt;stroke-linejoin:miter;stroke-opacity:1;marker-end:url(#p)"/><text xml:space="preserve" style="font-size:14.6667px;line-height:1.25;font-family:sans-serif;white-space:pre;shape-inside:url(#aw);fill:#aa00d4" transform="matrix(.26458 0 0 .26458 16.758 -4.31)"><tspan x="123.139" y="1985.424">aj</tspan></text><path d="m63.548 508.104 8.071 5.878" style="fill:none;stroke:#fca;stroke-width:.264583px;stroke-linecap:butt;stroke-linejoin:miter;stroke-opacity:1;marker-end:url(#p)"/><path d="m63.515 508.053 8.977 1.4" style="fill:none;stroke:#a40;stroke-width:.264583px;stroke-linecap:butt;stroke-linejoin:miter;stroke-opacity:1;marker-end:url(#p)"/><path d="m63.405 508.234-.532 3.564" style="fill:none;stroke:#a40;stroke-width:.264583px;stroke-linecap:butt;stroke-linejoin:miter;stroke-opacity:1;marker-end:url(#p)"/><text xml:space="preserve" style="font-size:14.6667px;line-height:1.25;font-family:sans-serif;white-space:pre;shape-inside:url(#ax)" transform="matrix(.26458 0 0 .26458 2.565 -3.974)"><tspan x="157.445" y="2030.346">O</tspan></text><text xml:space="preserve" style="font-size:14.6667px;line-height:1.25;font-family:sans-serif;white-space:pre;shape-inside:url(#ay)" transform="matrix(.26458 0 0 .26458 13.12 12.336)"><tspan x="139.9" y="1864.094">B</tspan></text><text xml:space="preserve" style="font-size:14.6667px;line-height:1.25;font-family:sans-serif;white-space:pre;shape-inside:url(#az)" transform="matrix(.26458 0 0 .26458 9.058 12.942)"><tspan x="200.078" y="1869.623">C</tspan></text><text xml:space="preserve" style="font-size:14.6667px;line-height:1.25;font-family:sans-serif;white-space:pre;shape-inside:url(#aA)" transform="matrix(.26458 0 0 .26458 -5.463 2.334)"><tspan x="294.215" y="2001.314">A</tspan></text><text xml:space="preserve" style="font-size:14.6667px;line-height:1.25;font-family:sans-serif;white-space:pre;shape-inside:url(#aB)" transform="matrix(.26458 0 0 .26458 5.11 .274)"><tspan x="87.176" y="2117.646">point C position and speed</tspan></text><text xml:space="preserve" style="font-size:14.6667px;line-height:1.25;font-family:sans-serif;white-space:pre;shape-inside:url(#aC)" transform="matrix(.26458 0 0 .26458 -44.025 -55.876)"><tspan x="278.248" y="2070.463">positive pressure angular</tspan></text><path d="M26.252 568.679h72.977v95.071H26.252z" style="fill:#fff;stroke:#fff;stroke-width:.264583"/><circle cx="52.782" cy="631.288" r="24.648" style="fill:none;stroke:gray;stroke-width:.264583"/><circle cx="83.37" cy="589.985" r="12.253" style="fill:none;stroke:gray;stroke-width:.264583"/><path d="m52.784 631.29 30.586-41.305" style="fill:none;stroke:#00f;stroke-width:.264583px;stroke-linecap:butt;stroke-linejoin:miter;stroke-opacity:1"/><path d="M52.782 631.288h24.77" style="fill:none;stroke:teal;stroke-width:.264583px;stroke-linecap:butt;stroke-linejoin:miter;stroke-opacity:1"/><text xml:space="preserve" style="font-size:14.6667px;line-height:1.25;font-family:sans-serif;white-space:pre;shape-inside:url(#aD);display:inline" transform="matrix(.26458 0 0 .26458 -8.438 87.392)"><tspan x="218.586" y="2040.234">acc</tspan></text><text xml:space="preserve" style="font-size:14.6667px;line-height:1.25;font-family:sans-serif;white-space:pre;shape-inside:url(#aE);display:inline" transform="matrix(.26458 0 0 .26458 25.197 85.795)"><tspan x="161.646" y="2047.447">br1</tspan></text><text xml:space="preserve" style="font-size:14.6667px;line-height:1.25;font-family:sans-serif;white-space:pre;shape-inside:url(#aF);display:inline;fill:#00aad4" transform="matrix(.26458 0 0 .26458 -5.304 90.706)"><tspan x="267.98" y="1911.305">ap</tspan></text><text xml:space="preserve" style="font-size:14.6667px;line-height:1.25;font-family:sans-serif;white-space:pre;shape-inside:url(#aG);display:inline" transform="matrix(.26458 0 0 .26458 8.048 97.016)"><tspan x="157.445" y="2030.346">O</tspan></text><text xml:space="preserve" style="font-size:14.6667px;line-height:1.25;font-family:sans-serif;white-space:pre;shape-inside:url(#aH);display:inline" transform="matrix(.26458 0 0 .26458 40.843 134.872)"><tspan x="139.9" y="1864.094">B</tspan></text><text xml:space="preserve" style="font-size:14.6667px;line-height:1.25;font-family:sans-serif;white-space:pre;shape-inside:url(#aI);display:inline" transform="matrix(.26458 0 0 .26458 .056 104.163)"><tspan x="294.215" y="2001.314">A</tspan></text><text xml:space="preserve" style="font-size:14.6667px;line-height:1.25;font-family:sans-serif;white-space:pre;shape-inside:url(#aJ);display:inline" transform="matrix(.26458 0 0 .26458 5.83 101.264)"><tspan x="87.176" y="2117.646">point C position and speed</tspan></text><text xml:space="preserve" style="font-size:14.6667px;line-height:1.25;font-family:sans-serif;white-space:pre;shape-inside:url(#aK);display:inline" transform="matrix(.26458 0 0 .26458 -44.963 25.214)"><tspan x="278.248" y="2070.463">negative pressure angular</tspan></text><path d="m63.98 596.79 17.334 12.808" style="fill:#d7eef4;stroke:#00aad4;stroke-width:.264583px;stroke-linecap:butt;stroke-linejoin:miter;stroke-opacity:1"/><path d="m77.091 627.308-5.723-35.173" style="fill:none;stroke:green;stroke-width:.264583px;stroke-linecap:butt;stroke-linejoin:miter;stroke-opacity:1"/><path d="m83.456 590.037-12.294 1.945" style="fill:green;stroke:green;stroke-width:.264583px;stroke-linecap:butt;stroke-linejoin:miter;stroke-opacity:1"/><path d="m77.19 627.112-24.376 3.94" style="fill:none;stroke:green;stroke-width:.264583px;stroke-linecap:butt;stroke-linejoin:miter;stroke-opacity:1"/><path d="m74.9 627.568-.37-1.902 2.197-.357M71.745 594.053l1.824-.328-.388-2.009" style="fill:none;stroke:#000;stroke-width:.264583px;stroke-linecap:butt;stroke-linejoin:miter;stroke-opacity:1"/><path d="M67.815 599.607s.6-1.029 1.078-1.35c.543-.364 1.88-.554 1.88-.554" style="fill:none;stroke:#00aad4;stroke-width:.264583px;stroke-linecap:butt;stroke-linejoin:miter;stroke-opacity:1;marker-end:url(#p)"/><text xml:space="preserve" style="font-size:14.6667px;line-height:1.25;font-family:sans-serif;white-space:pre;shape-inside:url(#aL);display:inline" transform="matrix(.26458 0 0 .26458 22.897 123.473)"><tspan x="200.078" y="1869.623">C</tspan></text><path d="M59.275 631.43s.26-1.916-.087-2.773c-.247-.613-1.333-1.47-1.333-1.47" style="fill:none;stroke:#000;stroke-width:.264583px;stroke-linecap:butt;stroke-linejoin:miter;stroke-opacity:1;marker-end:url(#p)"/><path d="M59.084 523.495s-1.151-2.427-1.975-3.474c-.725-.922-1.536-1.847-2.565-2.41-.997-.547-3.307-.835-3.307-.835" style="fill:none;stroke:#08a;stroke-width:.264583px;stroke-linecap:butt;stroke-linejoin:miter;stroke-opacity:1;marker-end:url(#p)"/><path d="M62.105 618.915s1.783 1.268 2.473 2.072c.91 1.06 1.659 2.268 2.127 3.546.313.858.426 2.684.426 2.684" style="fill:none;stroke:#00aad4;stroke-width:.264583px;stroke-linecap:butt;stroke-linejoin:miter;stroke-opacity:1;marker-end:url(#p)"/><text xml:space="preserve" style="font-size:14.6667px;line-height:1.25;font-family:sans-serif;white-space:pre;shape-inside:url(#aM);display:inline;fill:#00aad4" transform="matrix(.26458 0 0 .26458 -7.211 114.178)"><tspan x="267.98" y="1911.305">ap</tspan></text><text xml:space="preserve" style="font-size:14.6667px;line-height:1.25;font-family:sans-serif;white-space:pre;shape-inside:url(#aN)" transform="matrix(.26458 0 0 .26458 -20.118 -33.898)"><tspan x="354.52" y="2358.061">br2</tspan></text><text xml:space="preserve" style="font-size:14.6667px;line-height:1.25;font-family:sans-serif;white-space:pre;shape-inside:url(#aO);display:inline;fill:green" transform="matrix(.26458 0 0 .26458 4.47 -115.284)"><tspan x="354.52" y="2358.061">br2</tspan></text><path d="m52.814 631.052 22.278-14.635" style="fill:none;stroke:#f60;stroke-width:.264583px;stroke-linecap:butt;stroke-linejoin:miter;stroke-opacity:1"/><path d="M61.602 629.653s-.042-.74-.15-1.092c-.112-.371-.512-1.045-.512-1.045" style="fill:none;stroke:#c0f;stroke-width:.264583px;stroke-linecap:butt;stroke-linejoin:miter;stroke-opacity:1;marker-end:url(#p)"/><text xml:space="preserve" style="font-size:14.6667px;line-height:1.25;font-family:sans-serif;white-space:pre;shape-inside:url(#aP);fill:#aa00d4" transform="matrix(.26458 0 0 .26458 -16.086 10.155)"><tspan x="293.576" y="2334.555">aj</tspan></text><path d="m80.804 509.124 1.818-1.04 1.007 1.783M71.587 602.437l-.998 1.47 1.424 1.07" style="fill:none;stroke:#000;stroke-width:.264583px;stroke-linecap:butt;stroke-linejoin:miter;stroke-opacity:1"/><path d="m75.128 616.3-5.044-7.896" style="fill:none;stroke:#ffb380;stroke-width:.264583px;stroke-linecap:butt;stroke-linejoin:miter;stroke-opacity:1;marker-end:url(#p)"/><path d="M-27.486 610.454h4.607v10.15h-4.607z" style="fill:none;stroke:#ccc;stroke-width:.264583" transform="rotate(-9.073)"/><path d="m75.271 616.446-3.092.51" style="fill:none;stroke:#a40;stroke-width:.264583px;stroke-linecap:butt;stroke-linejoin:miter;stroke-opacity:1;marker-end:url(#p)"/><path d="m75.326 616.475-1.354-8.556" style="fill:none;stroke:#a40;stroke-width:.264583px;stroke-linecap:butt;stroke-linejoin:miter;stroke-opacity:1;marker-end:url(#p)"/></svg>