<svg xmlns="http://www.w3.org/2000/svg" width="600" height="2000" viewBox="0 0 158.75 529.167"><defs><path id="W" d="M-147.666 998.202h91.694v28.16h-91.694z"/><path id="V" d="M444.036 1271h18.988v72.531h-18.988z"/><path id="S" d="M391.294 1209.639h45.467v33.055h-45.467z"/><path id="R" d="M72.466 1197.677h429.722v171.424H72.466z"/><path id="Q" d="M106.999 977.099h43.608v23.457h-43.608z"/><path id="P" d="M170.396 887.155h51.287v28.884h-51.287z"/><path id="O" d="M123.378 893.787h33.183v20.587h-33.183z"/><path id="N" d="M271.008 1029.654h39.033v31.955h-39.033z"/><path id="M" d="M205.933 1000.246H240.2v22.944h-34.267z"/><path id="q" d="M233.92 487.777h62.577v47.574H233.92z"/><path id="p" d="M62.586 328.485h255.34v34.586H62.586z"/><path id="o" d="M91.26 324.383h303.483v167.26H91.26z"/><path id="n" d="M209.512 237.971h32.899v19.47h-32.899z"/><path id="l" d="M190.743 238.793h32.673v18.216h-32.673z"/><path id="r" d="M126.984 258.936h42.995v24.019h-42.995z"/><path id="j" d="M144.961 171.434h20.181v17.024h-20.181z"/><path id="i" d="M277.39 227.391h29.253v20.905H277.39z"/><path id="h" d="M165.537 227.936h17.956v23.248h-17.956z"/><path id="g" d="M154.52 258.846h53.162v18.637H154.52z"/><path id="f" d="M134.534 178.276h23.407v18.098h-23.407z"/><path id="e" d="M297.447 262.575h73.804v34.937h-73.804z"/><path id="c" d="M19.156 15.76h266.063v35.878H19.156z"/><path id="b" d="M297.447 262.575h73.804v34.937h-73.804z"/><path id="v" d="M297.447 262.575h73.804v34.937h-73.804z"/><path id="x" d="M297.447 262.575h73.804v34.937h-73.804z"/><path id="y" d="M134.534 178.276h23.407v18.098h-23.407z"/><path id="z" d="M165.537 227.936h17.956v23.248h-17.956z"/><path id="A" d="M277.39 227.391h48.001v21.52H277.39z"/><path id="C" d="M62.586 328.485h255.34v34.586H62.586z"/><path id="s" d="M297.447 262.575h73.804v34.937h-73.804z"/><path id="D" d="M297.447 262.575h73.804v34.937h-73.804z"/><path id="G" d="M297.447 262.575h73.804v34.937h-73.804z"/><path id="H" d="M134.534 178.276h23.407v18.098h-23.407z"/><path id="I" d="M165.537 227.936h17.956v23.248h-17.956z"/><path id="J" d="M277.39 227.391h48.001v21.52H277.39z"/><path id="L" d="M62.586 328.485h375.723v31.328H62.586z"/><path id="U" d="M297.447 262.575h73.804v34.937h-73.804z"/><marker id="m" markerHeight="5" markerWidth="8.75" orient="auto-start-reverse" preserveAspectRatio="xMidYMid" refX="0" refY="0" style="overflow:visible" viewBox="0 0 8.75 5"><path d="m0 0 5-5-17.5 5L5 5Z" style="fill:context-stroke;fill-rule:evenodd;stroke:none" transform="scale(-.5)"/></marker><marker id="k" markerHeight="5" markerWidth="8.75" orient="auto-start-reverse" preserveAspectRatio="xMidYMid" refX="0" refY="0" style="overflow:visible" viewBox="0 0 8.75 5"><path d="m0 0 5-5-17.5 5L5 5Z" style="fill:context-stroke;fill-rule:evenodd;stroke:none" transform="scale(-.5)"/></marker><marker id="d" markerHeight="5" markerWidth="8.75" orient="auto-start-reverse" preserveAspectRatio="xMidYMid" refX="0" refY="0" style="overflow:visible" viewBox="0 0 8.75 5"><path d="m0 0 5-5-17.5 5L5 5Z" style="fill:context-stroke;fill-rule:evenodd;stroke:none" transform="scale(-.5)"/></marker><marker id="a" markerHeight="5" markerWidth="8.75" orient="auto-start-reverse" preserveAspectRatio="xMidYMid" refX="0" refY="0" style="overflow:visible" viewBox="0 0 8.75 5"><path d="m0 0 5-5-17.5 5L5 5Z" style="fill:context-stroke;fill-rule:evenodd;stroke:none" transform="scale(-.5)"/></marker><marker id="u" markerHeight="5" markerWidth="8.75" orient="auto-start-reverse" preserveAspectRatio="xMidYMid" refX="0" refY="0" style="overflow:visible" viewBox="0 0 8.75 5"><path d="m0 0 5-5-17.5 5L5 5Z" style="fill:context-stroke;fill-rule:evenodd;stroke:none" transform="scale(-.5)"/></marker><marker id="w" markerHeight="5" markerWidth="8.75" orient="auto-start-reverse" preserveAspectRatio="xMidYMid" refX="0" refY="0" style="overflow:visible" viewBox="0 0 8.75 5"><path d="m0 0 5-5-17.5 5L5 5Z" style="fill:context-stroke;fill-rule:evenodd;stroke:none" transform="scale(-.5)"/></marker><marker id="B" markerHeight="5" markerWidth="8.75" orient="auto-start-reverse" preserveAspectRatio="xMidYMid" refX="0" refY="0" style="overflow:visible" viewBox="0 0 8.75 5"><path d="m0 0 5-5-17.5 5L5 5Z" style="fill:context-stroke;fill-rule:evenodd;stroke:none" transform="scale(-.5)"/></marker><marker id="t" markerHeight="5" markerWidth="8.75" orient="auto-start-reverse" preserveAspectRatio="xMidYMid" refX="0" refY="0" style="overflow:visible" viewBox="0 0 8.75 5"><path d="m0 0 5-5-17.5 5L5 5Z" style="fill:context-stroke;fill-rule:evenodd;stroke:none" transform="scale(-.5)"/></marker><marker id="E" markerHeight="5" markerWidth="8.75" orient="auto-start-reverse" preserveAspectRatio="xMidYMid" refX="0" refY="0" style="overflow:visible" viewBox="0 0 8.75 5"><path d="m0 0 5-5-17.5 5L5 5Z" style="fill:context-stroke;fill-rule:evenodd;stroke:none" transform="scale(-.5)"/></marker><marker id="F" markerHeight="5" markerWidth="8.75" orient="auto-start-reverse" preserveAspectRatio="xMidYMid" refX="0" refY="0" style="overflow:visible" viewBox="0 0 8.75 5"><path d="m0 0 5-5-17.5 5L5 5Z" style="fill:context-stroke;fill-rule:evenodd;stroke:none" transform="scale(-.5)"/></marker><marker id="K" markerHeight="5" markerWidth="8.75" orient="auto-start-reverse" preserveAspectRatio="xMidYMid" refX="0" refY="0" style="overflow:visible" viewBox="0 0 8.75 5"><path d="m0 0 5-5-17.5 5L5 5Z" style="fill:context-stroke;fill-rule:evenodd;stroke:none" transform="scale(-.5)"/></marker><marker id="T" markerHeight="5" markerWidth="8.75" orient="auto-start-reverse" preserveAspectRatio="xMidYMid" refX="0" refY="0" style="overflow:visible" viewBox="0 0 8.75 5"><path d="m0 0 5-5-17.5 5L5 5Z" style="fill:context-stroke;fill-rule:evenodd;stroke:none" transform="scale(-.5)"/></marker></defs><path d="M16.038 218.095h116.708v87.855H16.038zM8.649 28.141h72.638v64.705H8.649z" style="fill:#fff;stroke:#fff;stroke-width:.264583"/><path d="M77.153 49.953s.27-1.329.05-1.917c-.22-.585-1.25-1.28-1.25-1.28" style="fill:none;stroke:#000;stroke-width:.264583px;stroke-linecap:butt;stroke-linejoin:miter;stroke-opacity:1;marker-end:url(#a)"/><text xml:space="preserve" style="font-size:14.6667px;line-height:1.25;font-family:sans-serif;white-space:pre;shape-inside:url(#b);display:inline" transform="matrix(.26458 0 0 .26458 -1.753 -25.027)"><tspan x="297.447" y="275.551">u</tspan></text><path d="m36.275 60.315 36.661-10.567" style="fill:none;stroke:green;stroke-width:.264583px;stroke-linecap:butt;stroke-linejoin:miter;stroke-opacity:1"/><text xml:space="preserve" style="font-size:14.6667px;line-height:1.25;font-family:sans-serif;white-space:pre;shape-inside:url(#c);display:inline" transform="scale(.26458)"><tspan x="19.156" y="28.736">involute_of_circle.svg</tspan></text><circle cx="36.275" cy="60.315" r="24.769" style="fill:none;stroke:gray;stroke-width:.264583"/><path d="M36.275 60.315h24.769M36.275 60.315 46.491 37.75" style="fill:none;stroke:teal;stroke-width:.264583px;stroke-linecap:butt;stroke-linejoin:miter;stroke-opacity:1"/><path d="M40.672 60.261s.272-1.329.05-1.917c-.22-.585-1.248-1.28-1.248-1.28" style="fill:none;stroke:#000;stroke-width:.264583px;stroke-linecap:butt;stroke-linejoin:miter;stroke-opacity:1;marker-end:url(#d)"/><text xml:space="preserve" style="font-size:14.6667px;line-height:1.25;font-family:sans-serif;white-space:pre;shape-inside:url(#e);display:inline" transform="matrix(.26458 0 0 .26458 -38.234 -14.719)"><tspan x="297.447" y="275.551">u</tspan></text><path d="m46.487 37.758 26.45 11.99" style="fill:none;stroke:red;stroke-width:.264582px;stroke-linecap:butt;stroke-linejoin:miter;stroke-opacity:1"/><text xml:space="preserve" style="font-size:14.6667px;line-height:1.25;font-family:sans-serif;white-space:pre;shape-inside:url(#f);display:inline" transform="matrix(.26458 0 0 .26458 2.86 -2.523)"><tspan x="134.535" y="191.252">R</tspan></text><path d="M46.608 37.988s2.778 1.371 4.055 2.24c1.336.91 2.625 1.917 3.737 3.089 1.209 1.273 2.221 2.732 3.139 4.228.832 1.358 1.577 2.784 2.129 4.278.51 1.384.842 2.836 1.074 4.293.22 1.378.298 4.176.298 4.176" style="fill:none;stroke:red;stroke-width:.264583px;stroke-linecap:butt;stroke-linejoin:miter;stroke-opacity:1"/><text xml:space="preserve" style="font-size:14.6667px;line-height:1.25;font-family:sans-serif;white-space:pre;shape-inside:url(#g);display:inline" transform="matrix(.26458 0 0 .26458 19.124 -28.351)"><tspan x="154.52" y="271.822">u*R</tspan></text><text xml:space="preserve" style="font-size:14.6667px;line-height:1.25;font-family:sans-serif;white-space:pre;shape-inside:url(#h);display:inline" transform="matrix(.26458 0 0 .26458 -10.583 0)"><tspan x="165.537" y="240.912">O</tspan></text><text xml:space="preserve" style="font-size:14.6667px;line-height:1.25;font-family:sans-serif;white-space:pre;shape-inside:url(#i);display:inline" transform="matrix(.26458 0 0 .26458 -11.741 -.106)"><tspan x="277.391" y="240.367">A</tspan></text><text xml:space="preserve" style="font-size:14.6667px;line-height:1.25;font-family:sans-serif;white-space:pre;shape-inside:url(#j);display:inline" transform="matrix(.26458 0 0 .26458 7.092 -12.082)"><tspan x="144.961" y="184.41">B</tspan></text><path d="M46.555 57.293s-.52-2.583-1.178-3.696a4.278 4.278 0 0 0-1.29-1.355c-.6-.4-2.017-.78-2.017-.78" style="fill:none;stroke:#000;stroke-width:.264583px;stroke-linecap:butt;stroke-linejoin:miter;stroke-opacity:1;marker-end:url(#k)"/><text xml:space="preserve" style="font-size:14.6667px;line-height:1.25;font-family:sans-serif;white-space:pre;shape-inside:url(#l);display:inline" transform="matrix(.26458 0 0 .26458 -5.498 -13.164)"><tspan x="190.742" y="251.77">v</tspan></text><path d="M49.785 60.219s.495-.87.488-1.349c-.006-.441-.486-1.231-.486-1.231" style="fill:none;stroke:#000;stroke-width:.264583px;stroke-linecap:butt;stroke-linejoin:miter;stroke-opacity:1;marker-end:url(#m)"/><text xml:space="preserve" style="font-size:14.6667px;line-height:1.25;font-family:sans-serif;white-space:pre;shape-inside:url(#n);display:inline" transform="matrix(.26458 0 0 .26458 -4.934 -6.65)"><tspan x="209.512" y="250.947">w</tspan></text><path d="M61.225 60.291s1.784-.046 2.591-.378c2.47-1.015 4.705-2.73 6.448-4.752 1.303-1.511 2.198-3.388 2.803-5.29.904-2.844 1.032-5.898 1.15-8.88.105-2.69-.408-8.064-.408-8.064" style="fill:none;stroke:#f0f;stroke-width:.529167;stroke-linecap:butt;stroke-linejoin:miter;stroke-opacity:1;marker-end:url(#m)"/><text xml:space="preserve" style="font-size:14.6667px;line-height:1.25;font-family:sans-serif;white-space:pre;shape-inside:url(#o);display:inline" transform="matrix(.26458 0 0 .26458 61.906 -41.256)"><tspan x="91.26" y="337.359">OB=R
</tspan><tspan x="91.26" y="355.693">BC=arc(BA)=u*R
</tspan><tspan x="91.26" y="374.026">L=OC=sqrt(R<tspan style="font-size:65%;baseline-shift:super">2</tspan>+u<tspan style="font-size:65%;baseline-shift:super">2</tspan>*R<tspan style="font-size:65%;baseline-shift:super">2</tspan>)=R*sqrt(1+u<tspan style="font-size:65%;baseline-shift:super">2</tspan>)
</tspan><tspan x="91.26" y="392.36">u=v+w
</tspan><tspan x="91.26" y="410.693">v=atan(u*R/R)=atan(u) if u&lt;PI/2
</tspan><tspan x="91.26" y="429.026">w=u-v=u-atan(u)
</tspan><tspan x="91.26" y="447.36">u=sqrt(L<tspan style="font-size:65%;baseline-shift:super">2</tspan>/R<tspan style="font-size:65%;baseline-shift:super">2</tspan>-1)
</tspan><tspan x="91.26" y="465.693">u=f(w) [I don&apos;t know how to find f]</tspan></text><text xml:space="preserve" style="font-size:14.6667px;line-height:1.25;font-family:sans-serif;white-space:pre;shape-inside:url(#p);display:inline" transform="matrix(.26458 0 0 .26458 -4.705 .06)"><tspan x="62.586" y="341.461">involute of circle (R, 0)</tspan></text><text xml:space="preserve" style="font-size:14.6667px;line-height:1.25;font-family:sans-serif;white-space:pre;shape-inside:url(#q);display:inline" transform="matrix(.26458 0 0 .26458 -7.854 -78.438)"><tspan x="233.92" y="500.754">L</tspan></text><path d="m72.967 49.881 4.474-9.988" style="fill:none;stroke:teal;stroke-width:.264583px;stroke-linecap:butt;stroke-linejoin:miter;stroke-opacity:1;marker-end:url(#m)"/><text xml:space="preserve" style="font-size:14.6667px;line-height:1.25;font-family:sans-serif;white-space:pre;shape-inside:url(#r);display:inline" transform="matrix(.26458 0 0 .26458 37.274 -18.43)"><tspan x="126.984" y="271.912">C</tspan></text><path d="M73.156 49.935h7.131" style="fill:none;stroke:#999;stroke-width:.264583px;stroke-linecap:butt;stroke-linejoin:miter;stroke-opacity:1"/><path d="m46.042 38.984 1.172.512.462-1.28M73.558 48.448l-1.172-.511-.462 1.279" style="fill:none;stroke:#000;stroke-width:.264583px;stroke-linecap:butt;stroke-linejoin:miter;stroke-opacity:1"/><path d="M17.712 113.272H134.42v87.855H17.712z" style="fill:#fff;stroke:#fff;stroke-width:.264583"/><text xml:space="preserve" style="font-size:14.6667px;line-height:1.25;font-family:sans-serif;white-space:pre;shape-inside:url(#s);display:inline" transform="matrix(.26458 0 0 .26458 21.972 85.207)"><tspan x="297.447" y="275.551">i1</tspan></text><path d="M104.846 159.089s-1.33-.272-1.917-.05c-.586.22-1.28 1.249-1.28 1.249" style="fill:none;stroke:#000;stroke-width:.264583px;stroke-linecap:butt;stroke-linejoin:miter;stroke-opacity:1;marker-end:url(#t)"/><path d="M59.782 141.072s.27-1.33.05-1.917c-.22-.586-1.25-1.28-1.25-1.28" style="fill:none;stroke:#000;stroke-width:.264583px;stroke-linecap:butt;stroke-linejoin:miter;stroke-opacity:1;marker-end:url(#u)"/><text xml:space="preserve" style="font-size:14.6667px;line-height:1.25;font-family:sans-serif;white-space:pre;shape-inside:url(#v);display:inline" transform="matrix(.26458 0 0 .26458 -18.485 66.992)"><tspan x="297.447" y="275.551">i1</tspan></text><circle cx="45.338" cy="163.467" r="24.769" style="fill:none;stroke:gray;stroke-width:.264583"/><path d="M45.338 163.467h74.13M45.338 163.467l10.216-22.563" style="fill:none;stroke:teal;stroke-width:.264583px;stroke-linecap:butt;stroke-linejoin:miter;stroke-opacity:1"/><path d="M49.735 163.414s.271-1.329.05-1.917c-.22-.585-1.249-1.28-1.249-1.28" style="fill:none;stroke:#000;stroke-width:.264583px;stroke-linecap:butt;stroke-linejoin:miter;stroke-opacity:1;marker-end:url(#w)"/><text xml:space="preserve" style="font-size:14.6667px;line-height:1.25;font-family:sans-serif;white-space:pre;shape-inside:url(#x);display:inline" transform="matrix(.26458 0 0 .26458 -28.769 88.806)"><tspan x="297.447" y="275.551">i1</tspan></text><path d="m55.513 140.965 68.845 31.349" style="fill:none;stroke:red;stroke-width:.264581px;stroke-linecap:butt;stroke-linejoin:miter;stroke-opacity:1"/><text xml:space="preserve" style="font-size:14.6667px;line-height:1.25;font-family:sans-serif;white-space:pre;shape-inside:url(#y);display:inline" transform="matrix(.26458 0 0 .26458 11.923 100.63)"><tspan x="134.535" y="191.252">R</tspan></text><text xml:space="preserve" style="font-size:14.6667px;line-height:1.25;font-family:sans-serif;white-space:pre;shape-inside:url(#z);display:inline" transform="matrix(.26458 0 0 .26458 -1.52 103.153)"><tspan x="165.537" y="240.912">O</tspan></text><text xml:space="preserve" style="font-size:14.6667px;line-height:1.25;font-family:sans-serif;white-space:pre;shape-inside:url(#A);display:inline" transform="matrix(.26458 0 0 .26458 -26.818 77.452)"><tspan x="277.391" y="240.367">ABC</tspan></text><path d="M55.604 140.838s.838-1.576.946-2.442c.332-2.65-.06-5.439-.962-7.952-.674-1.878-1.867-3.58-3.224-5.043-2.03-2.188-4.626-3.803-7.165-5.373-2.288-1.416-7.218-3.616-7.218-3.616" style="fill:none;stroke:#f0f;stroke-width:.529167;stroke-linecap:butt;stroke-linejoin:miter;stroke-opacity:1;marker-end:url(#B)"/><text xml:space="preserve" style="font-size:14.6667px;line-height:1.25;font-family:sans-serif;white-space:pre;shape-inside:url(#C);display:inline" transform="matrix(.26458 0 0 .26458 3.682 108.245)"><tspan x="62.586" y="341.461">involute of circle (R, i1) at u=0</tspan></text><path d="m55.596 141 4.474-9.988" style="fill:none;stroke:teal;stroke-width:.264583px;stroke-linecap:butt;stroke-linejoin:miter;stroke-opacity:1;marker-end:url(#B)"/><path d="M55.785 141.053h7.131" style="fill:none;stroke:#999;stroke-width:.264583px;stroke-linecap:butt;stroke-linejoin:miter;stroke-opacity:1"/><path d="m55.105 142.137 1.171.512.463-1.28" style="fill:none;stroke:#000;stroke-width:.264583px;stroke-linecap:butt;stroke-linejoin:miter;stroke-opacity:1"/><path d="M104.975 171.845v-17.02" style="fill:none;stroke:#ccc;stroke-width:.264583px;stroke-linecap:butt;stroke-linejoin:miter;stroke-opacity:1"/><text xml:space="preserve" style="font-size:14.6667px;line-height:1.25;font-family:sans-serif;white-space:pre;shape-inside:url(#D);display:inline" transform="matrix(.26458 0 0 .26458 17.906 190.327)"><tspan x="297.447" y="275.551">i1</tspan></text><path d="M103.172 263.912s-1.33-.272-1.917-.05c-.586.22-1.28 1.249-1.28 1.249" style="fill:none;stroke:#000;stroke-width:.264583px;stroke-linecap:butt;stroke-linejoin:miter;stroke-opacity:1;marker-end:url(#E)"/><path d="M74.823 253.244s.27-1.33.05-1.917c-.22-.586-1.25-1.28-1.25-1.28" style="fill:none;stroke:#000;stroke-width:.264583px;stroke-linecap:butt;stroke-linejoin:miter;stroke-opacity:1;marker-end:url(#F)"/><text xml:space="preserve" style="font-size:14.6667px;line-height:1.25;font-family:sans-serif;white-space:pre;shape-inside:url(#G);display:inline" transform="matrix(.26458 0 0 .26458 -3.444 179.165)"><tspan x="297.447" y="275.551">i1</tspan></text><circle cx="43.664" cy="268.291" r="24.769" style="fill:none;stroke:gray;stroke-width:.264583"/><path d="M43.664 268.29h74.13M43.664 268.29l10.216-22.563" style="fill:none;stroke:teal;stroke-width:.264583px;stroke-linecap:butt;stroke-linejoin:miter;stroke-opacity:1"/><path d="m53.84 245.788 68.844 31.349" style="fill:none;stroke:red;stroke-width:.264581px;stroke-linecap:butt;stroke-linejoin:miter;stroke-opacity:1"/><text xml:space="preserve" style="font-size:14.6667px;line-height:1.25;font-family:sans-serif;white-space:pre;shape-inside:url(#H);display:inline" transform="matrix(.26458 0 0 .26458 10.25 205.452)"><tspan x="134.535" y="191.252">R</tspan></text><text xml:space="preserve" style="font-size:14.6667px;line-height:1.25;font-family:sans-serif;white-space:pre;shape-inside:url(#I);display:inline" transform="matrix(.26458 0 0 .26458 -3.195 207.976)"><tspan x="165.537" y="240.912">O</tspan></text><text xml:space="preserve" style="font-size:14.6667px;line-height:1.25;font-family:sans-serif;white-space:pre;shape-inside:url(#J);display:inline" transform="matrix(.26458 0 0 .26458 -8.79 198.418)"><tspan x="277.391" y="240.367">A</tspan></text><path d="M66.343 258.132s1.542-.897 2.091-1.576c1.68-2.076 2.817-4.653 3.376-7.264.417-1.951.3-4.027-.082-5.985-.572-2.93-1.925-5.67-3.255-8.343-1.198-2.41-4.228-6.878-4.228-6.878" style="fill:none;stroke:#f0f;stroke-width:.529167;stroke-linecap:butt;stroke-linejoin:miter;stroke-opacity:1;marker-end:url(#K)"/><text xml:space="preserve" style="font-size:14.6667px;line-height:1.25;font-family:sans-serif;white-space:pre;shape-inside:url(#L);display:inline" transform="matrix(.26458 0 0 .26458 2.007 213.068)"><tspan x="62.586" y="341.461">involute of circle (R, i2) at u=u2=i1-i2</tspan></text><path d="m70.637 253.172 4.474-9.988" style="fill:none;stroke:teal;stroke-width:.264583px;stroke-linecap:butt;stroke-linejoin:miter;stroke-opacity:1;marker-end:url(#K)"/><path d="M70.826 253.226h7.131" style="fill:none;stroke:#999;stroke-width:.264583px;stroke-linecap:butt;stroke-linejoin:miter;stroke-opacity:1"/><path d="m53.43 246.96 1.172.512.463-1.28" style="fill:none;stroke:#000;stroke-width:.264583px;stroke-linecap:butt;stroke-linejoin:miter;stroke-opacity:1"/><path d="M103.301 276.668v-17.02" style="fill:none;stroke:#ccc;stroke-width:.264583px;stroke-linecap:butt;stroke-linejoin:miter;stroke-opacity:1"/><path d="m43.664 268.29 22.603-10.127" style="fill:none;stroke:#ffb380;stroke-width:.264583px;stroke-linecap:butt;stroke-linejoin:miter;stroke-opacity:1"/><path d="M53.297 268.29s.404-1.035.34-1.564c-.047-.384-.511-1.041-.511-1.041" style="fill:none;stroke:#000;stroke-width:.264583px;stroke-linecap:butt;stroke-linejoin:miter;stroke-opacity:1;marker-end:url(#m)"/><text xml:space="preserve" style="font-size:14.6667px;line-height:1.25;font-family:sans-serif;white-space:pre;shape-inside:url(#M)" transform="matrix(.26458 0 0 .26458 -.552 -.319)"><tspan x="205.934" y="1013.223">i2</tspan></text><text xml:space="preserve" style="font-size:14.6667px;line-height:1.25;font-family:sans-serif;white-space:pre;shape-inside:url(#N)" transform="matrix(.26458 0 0 .26458 -3.216 -4.125)"><tspan x="271.008" y="1042.631">E</tspan></text><text xml:space="preserve" style="font-size:14.6667px;line-height:1.25;font-family:sans-serif;white-space:pre;shape-inside:url(#O)" transform="matrix(.26458 0 0 .26458 19.691 5.029)"><tspan x="123.379" y="906.764">B</tspan></text><text xml:space="preserve" style="font-size:14.6667px;line-height:1.25;font-family:sans-serif;white-space:pre;shape-inside:url(#P)" transform="matrix(.26458 0 0 .26458 22.963 13.728)"><tspan x="170.396" y="900.133">C</tspan></text><path d="m43.588 268.28 26.658-15.017" style="fill:none;stroke:teal;stroke-width:.264583px;stroke-linecap:butt;stroke-linejoin:miter;stroke-opacity:1"/><path d="M56.868 262.475s-.456-2.615-1.28-3.575c-1.187-1.38-4.807-2.592-4.807-2.592" style="fill:none;stroke:#000;stroke-width:.264583px;stroke-linecap:butt;stroke-linejoin:miter;stroke-opacity:1;marker-end:url(#m)"/><text xml:space="preserve" style="font-size:14.6667px;line-height:1.25;font-family:sans-serif;white-space:pre;shape-inside:url(#Q)" transform="matrix(.26458 0 0 .26458 25.775 -4.599)"><tspan x="106.998" y="990.076">u2</tspan></text><text xml:space="preserve" style="font-size:14.6667px;line-height:1.25;font-family:sans-serif;white-space:pre;shape-inside:url(#R)" transform="scale(.26458)"><tspan x="72.465" y="1210.652">if we choose u2=i1-i2, then
</tspan><tspan x="72.465" y="1228.986">- C is on BF
</tspan><tspan x="72.465" y="1247.319">- BC=R*u2=R*i1-R*i2
</tspan><tspan x="72.465" y="1265.652">- dBC/dt=-R*di2/dt
</tspan><tspan x="72.465" y="1283.986">- inclination of tangent in C = i1</tspan></text><text xml:space="preserve" style="font-size:14.6667px;line-height:1.25;font-family:sans-serif;white-space:pre;shape-inside:url(#S)" transform="matrix(.26458 0 0 .26458 -3.422 -51.538)"><tspan x="391.293" y="1222.615">F</tspan></text><path d="M48.022 268.1s.271-1.33.05-1.917c-.22-.586-1.249-1.28-1.249-1.28" style="fill:none;stroke:#000;stroke-width:.264583px;stroke-linecap:butt;stroke-linejoin:miter;stroke-opacity:1;marker-end:url(#T)"/><text xml:space="preserve" style="font-size:14.6667px;line-height:1.25;font-family:sans-serif;white-space:pre;shape-inside:url(#U);display:inline" transform="matrix(.26458 0 0 .26458 -31.782 191.338)"><tspan x="297.447" y="275.551">i1</tspan></text><path d="M25.064 249.15s2.624-2.734 4.207-3.742c1.547-.985 5.053-2.18 5.053-2.18" style="fill:none;stroke:#000;stroke-width:.264583px;stroke-linecap:butt;stroke-linejoin:miter;stroke-opacity:1;marker-end:url(#m)"/><text xml:space="preserve" style="font-size:14.6667px;line-height:1.25;font-family:sans-serif;white-space:pre;shape-inside:url(#W)" transform="matrix(.26458 0 0 .26458 61.16 -23.471)"><tspan x="-147.666" y="1011.178">i1-i2</tspan></text></svg>