<svg xmlns="http://www.w3.org/2000/svg" width="262.014" height="195.652" viewBox="0 0 69.325 51.766"><defs><path id="l" d="M275.246 4415.91h32.129v22.037h-32.129z"/><path id="c" d="M254.321 237.99h38.557v34.914h-38.557z"/><path id="d" d="M130.985 140.536h42.711v43.171h-42.711z"/><path id="e" d="M232.476 161.365h28.095v22.502h-28.095z"/><path id="f" d="M200.715 288.19h52.317v19.745h-52.317z"/><path id="g" d="M200.715 288.19h52.317v19.745h-52.317z"/><path id="h" d="M63.429 333.065h158.363v29.331H63.429z"/><path id="i" d="M309.291 1871.785h43.699v17.924h-43.699z"/><path id="j" d="M323.205 1880.807h96.883v24.849h-96.883z"/><path id="k" d="M323.205 1880.807h75.478v20.091h-75.478z"/><path id="m" d="M232.476 161.365h28.095v22.502h-28.095z"/><path id="n" d="M232.476 161.365h78.63v35.439h-78.63z"/><marker id="a" markerHeight="5" markerWidth="8.75" orient="auto-start-reverse" preserveAspectRatio="xMidYMid" refX="0" refY="0" style="overflow:visible" viewBox="0 0 8.75 5"><path d="m0 0 5-5-17.5 5L5 5Z" style="fill:context-stroke;fill-rule:evenodd;stroke:none" transform="scale(-.5)"/></marker><marker id="b" markerHeight="5" markerWidth="8.75" orient="auto-start-reverse" preserveAspectRatio="xMidYMid" refX="0" refY="0" style="overflow:visible" viewBox="0 0 8.75 5"><path d="m0 0 5-5-17.5 5L5 5Z" style="fill:context-stroke;fill-rule:evenodd;stroke:none" transform="scale(-.5)"/></marker></defs><path d="M39.563 1159.103h69.06v51.502h-69.06z" style="fill:#fff;stroke:#fff;stroke-width:.264583;stroke-dasharray:none;stroke-dashoffset:0" transform="translate(-39.43 -1158.97)"/><path d="m82.151 1188.369-1.17-1.34-1.239 1.24" style="fill:none;stroke:#f60;stroke-width:.264583px;stroke-linecap:butt;stroke-linejoin:miter;stroke-opacity:1" transform="translate(-39.43 -1158.97)"/><path d="M72.906 1180.715h6.68" style="fill:none;stroke:#999;stroke-width:.264583px;stroke-linecap:butt;stroke-linejoin:miter;stroke-opacity:1" transform="translate(-39.43 -1158.97)"/><path d="M63.388 1203.568v-40.216" style="fill:none;stroke:#999;stroke-width:.264583px;stroke-linecap:butt;stroke-linejoin:miter;stroke-opacity:1;marker-end:url(#a)" transform="translate(-39.43 -1158.97)"/><path d="M42.057 1197.657H99.87" style="fill:none;stroke:#999;stroke-width:.264583px;stroke-linecap:butt;stroke-linejoin:miter;stroke-opacity:1;marker-end:url(#b)" transform="translate(-39.43 -1158.97)"/><text xml:space="preserve" style="font-size:14.6667px;line-height:1.25;font-family:sans-serif;white-space:pre;shape-inside:url(#c);display:inline" transform="matrix(.26458 0 0 .26458 -6.5 -24.53)"><tspan x="254.32" y="250.967">x</tspan></text><text xml:space="preserve" style="font-size:14.6667px;line-height:1.25;font-family:sans-serif;white-space:pre;shape-inside:url(#d);display:inline" transform="matrix(.26458 0 0 .26458 -13.368 -35.845)"><tspan x="130.984" y="153.514">y</tspan></text><path d="M72.906 1197.657v-16.942h-9.518" style="fill:none;stroke:#ccc;stroke-width:.264583;stroke-linecap:butt;stroke-linejoin:miter;stroke-dasharray:2,1;stroke-dashoffset:0;stroke-opacity:1" transform="translate(-39.43 -1158.97)"/><text xml:space="preserve" style="font-size:14.6667px;line-height:1.25;font-family:sans-serif;white-space:pre;shape-inside:url(#e);display:inline" transform="matrix(.26458 0 0 .26458 -34.693 -23.49)"><tspan x="232.477" y="174.342">p1</tspan></text><text xml:space="preserve" style="font-size:8px;line-height:1.25;font-family:sans-serif;white-space:pre;shape-inside:url(#f);display:inline" transform="matrix(.26458 0 0 .26458 -22.112 -36.602)"><tspan x="200.715" y="295.268">p1.cx</tspan></text><text xml:space="preserve" style="font-size:8px;line-height:1.25;font-family:sans-serif;white-space:pre;shape-inside:url(#g);display:inline" transform="matrix(.26458 0 0 .26458 -36.445 -55.527)"><tspan x="200.715" y="295.268">p1.cy</tspan></text><path d="M62.63 1180.715h1.517M72.906 1198.582v-1.85" style="fill:none;stroke:#000;stroke-width:.264583px;stroke-linecap:butt;stroke-linejoin:miter;stroke-opacity:1" transform="translate(-39.43 -1158.97)"/><text xml:space="preserve" style="font-size:14.6667px;line-height:1.25;font-family:sans-serif;white-space:pre;shape-inside:url(#h);display:inline" transform="matrix(.26458 0 0 .26458 -15.874 -41.738)"><tspan x="63.43" y="346.041">line_projectPoint(p3)</tspan></text><path d="m72.906 1180.715 20.46 22.853M56.156 1162.002l16.75 18.713" style="fill:none;stroke:green;stroke-width:.264583px;stroke-linecap:butt;stroke-linejoin:miter;stroke-opacity:1" transform="translate(-39.43 -1158.97)"/><path d="m80.737 1189.527 4.403-3.927" style="fill:none;stroke:#faa;stroke-width:.264582px;stroke-linecap:butt;stroke-linejoin:miter;stroke-opacity:1" transform="translate(-39.43 -1158.97)"/><path d="M71.892 1179.301s1.67-.595 2.32-.173c.43.279.521 1.446.521 1.446" style="fill:none;stroke:#00f;stroke-width:.264583px;stroke-linecap:butt;stroke-linejoin:miter;stroke-opacity:1" transform="translate(-39.43 -1158.97)"/><text xml:space="preserve" style="font-size:8px;line-height:1.25;font-family:sans-serif;white-space:pre;shape-inside:url(#i);display:inline;fill:#00f" transform="matrix(.26458 0 0 .26458 -46.198 -476.285)"><tspan x="309.291" y="1878.863">ca</tspan></text><text xml:space="preserve" style="font-size:8px;line-height:1.25;font-family:sans-serif;white-space:pre;shape-inside:url(#j);display:inline;fill:#ff8080" transform="matrix(.26458 0 0 .26458 -42.022 -468.972)"><tspan x="323.205" y="1887.885">l1.distancePoint(p3)</tspan></text><path d="M84.118 1186.472s-.41-1.873.145-2.495c.405-.454 1.24-.554 1.8-.314.642.275 1.163 1.744 1.163 1.744" style="fill:none;stroke:purple;stroke-width:.264584px;stroke-linecap:butt;stroke-linejoin:miter;stroke-opacity:1" transform="translate(-39.43 -1158.97)"/><path d="m72.318 1181.46 1.176-1.49M72.161 1180.127l1.49 1.176" style="fill:none;stroke:#000;stroke-width:.264583px;stroke-linecap:butt;stroke-linejoin:miter;stroke-opacity:1" transform="translate(-39.43 -1158.97)"/><text xml:space="preserve" style="font-size:8px;line-height:1.25;font-family:sans-serif;white-space:pre;shape-inside:url(#k);display:inline;fill:purple" transform="matrix(.26458 0 0 .26458 -43.488 -475.509)"><tspan x="323.205" y="1887.885">l1.anglePoint(p3)</tspan></text><path d="m84.72 1186.125 1.175-1.49M84.562 1184.792l1.49 1.176" style="fill:none;stroke:#000;stroke-width:.264583px;stroke-linecap:butt;stroke-linejoin:miter;stroke-opacity:1" transform="translate(-39.43 -1158.97)"/><path d="M85.309 1185.415h6.68" style="fill:none;stroke:#999;stroke-width:.264583px;stroke-linecap:butt;stroke-linejoin:miter;stroke-opacity:1" transform="translate(-39.43 -1158.97)"/><text xml:space="preserve" style="font-size:10.6667px;line-height:1.25;font-family:sans-serif;white-space:pre;shape-inside:url(#l);display:inline;fill:green" transform="matrix(.26458 0 0 .26458 -53.827 -1159.598)"><tspan x="275.246" y="4425.348">l1</tspan></text><text xml:space="preserve" style="font-size:14.6667px;line-height:1.25;font-family:sans-serif;white-space:pre;shape-inside:url(#m);display:inline" transform="matrix(.26458 0 0 .26458 -13.4 -18.989)"><tspan x="232.477" y="174.342">p3</tspan></text><path d="m80.204 1190.169 1.175-1.49M80.047 1188.836l1.49 1.176" style="fill:none;stroke:#000;stroke-width:.264583px;stroke-linecap:butt;stroke-linejoin:miter;stroke-opacity:1" transform="translate(-39.43 -1158.97)"/><text xml:space="preserve" x="36.24" style="font-size:8px;line-height:1.25;font-family:sans-serif;text-align:center;white-space:pre;shape-inside:url(#n);display:inline" transform="matrix(.26458 0 0 .26458 -32.58 -12.77)"><tspan x="266.707" y="168.443">p4
</tspan><tspan x="234.844" y="178.443">l1.projectPoint(p3)</tspan></text></svg>