<svg xmlns="http://www.w3.org/2000/svg" width="262.014" height="195.652" viewBox="0 0 69.325 51.766"><defs><path id="d" d="M254.321 237.99h38.557v34.914h-38.557z"/><path id="e" d="M130.985 140.536h42.711v43.171h-42.711z"/><path id="f" d="M232.476 161.365h28.095v22.502h-28.095z"/><path id="g" d="M200.715 288.19h52.317v19.745h-52.317z"/><path id="h" d="M200.715 288.19h52.317v19.745h-52.317z"/><path id="i" d="M63.429 333.065h235.875v41.166H63.429z"/><path id="j" d="M309.291 1871.785h43.699v17.924h-43.699z"/><path id="k" d="M323.205 1880.807h59.832v18.928h-59.832z"/><path id="l" d="M346.238 1883.681h29.293v24.056h-29.293z"/><path id="a" d="M309.291 1871.785h43.699v17.924h-43.699z"/><marker id="b" markerHeight="5" markerWidth="8.75" orient="auto-start-reverse" preserveAspectRatio="xMidYMid" refX="0" refY="0" style="overflow:visible" viewBox="0 0 8.75 5"><path d="m0 0 5-5-17.5 5L5 5Z" style="fill:context-stroke;fill-rule:evenodd;stroke:none" transform="scale(-.5)"/></marker><marker id="c" markerHeight="5" markerWidth="8.75" orient="auto-start-reverse" preserveAspectRatio="xMidYMid" refX="0" refY="0" style="overflow:visible" viewBox="0 0 8.75 5"><path d="m0 0 5-5-17.5 5L5 5Z" style="fill:context-stroke;fill-rule:evenodd;stroke:none" transform="scale(-.5)"/></marker></defs><path d="M38.526 543.023h69.06v51.502h-69.06z" style="fill:#fff;stroke:#fff;stroke-width:.264583;stroke-dasharray:none;stroke-dashoffset:0" transform="translate(-38.394 -542.891)"/><text xml:space="preserve" style="font-size:8px;line-height:1.25;font-family:sans-serif;white-space:pre;shape-inside:url(#a);display:inline;fill:#00f" transform="matrix(.26458 0 0 .26458 -44.348 -459.169)"><tspan x="309.291" y="1878.863">aB=ca</tspan></text><path d="M84.895 579.341s-1.023.414-1.257.866c-.207.4.017 1.35.017 1.35" style="fill:none;stroke:#00f;stroke-width:.264583px;stroke-linecap:butt;stroke-linejoin:miter;stroke-opacity:1" transform="translate(-38.394 -542.891)"/><path d="M71.87 564.635h6.68" style="fill:none;stroke:#999;stroke-width:.264583px;stroke-linecap:butt;stroke-linejoin:miter;stroke-opacity:1" transform="translate(-38.394 -542.891)"/><path d="M62.352 587.488v-40.216" style="fill:none;stroke:#999;stroke-width:.264583px;stroke-linecap:butt;stroke-linejoin:miter;stroke-opacity:1;marker-end:url(#b)" transform="translate(-38.394 -542.891)"/><path d="M41.02 581.577h57.814" style="fill:none;stroke:#999;stroke-width:.264583px;stroke-linecap:butt;stroke-linejoin:miter;stroke-opacity:1;marker-end:url(#c)" transform="translate(-38.394 -542.891)"/><text xml:space="preserve" style="font-size:14.6667px;line-height:1.25;font-family:sans-serif;white-space:pre;shape-inside:url(#d);display:inline" transform="matrix(.26458 0 0 .26458 -6.5 -24.53)"><tspan x="254.32" y="250.967">x</tspan></text><text xml:space="preserve" style="font-size:14.6667px;line-height:1.25;font-family:sans-serif;white-space:pre;shape-inside:url(#e);display:inline" transform="matrix(.26458 0 0 .26458 -13.368 -35.845)"><tspan x="130.984" y="153.514">y</tspan></text><path d="M71.87 581.577v-16.942h-9.518" style="fill:none;stroke:#ccc;stroke-width:.264583;stroke-linecap:butt;stroke-linejoin:miter;stroke-dasharray:2,1;stroke-dashoffset:0;stroke-opacity:1" transform="translate(-38.394 -542.891)"/><text xml:space="preserve" style="font-size:14.6667px;line-height:1.25;font-family:sans-serif;white-space:pre;shape-inside:url(#f);display:inline" transform="matrix(.26458 0 0 .26458 -28.254 -26.945)"><tspan x="232.477" y="174.342">p1</tspan></text><text xml:space="preserve" style="font-size:8px;line-height:1.25;font-family:sans-serif;white-space:pre;shape-inside:url(#g);display:inline" transform="matrix(.26458 0 0 .26458 -22.112 -36.602)"><tspan x="200.715" y="295.268">p1.cx</tspan></text><text xml:space="preserve" style="font-size:8px;line-height:1.25;font-family:sans-serif;white-space:pre;shape-inside:url(#h);display:inline" transform="matrix(.26458 0 0 .26458 -36.445 -55.527)"><tspan x="200.715" y="295.268">p1.cy</tspan></text><path d="M61.593 564.635h1.517M71.87 582.502v-1.85" style="fill:none;stroke:#000;stroke-width:.264583px;stroke-linecap:butt;stroke-linejoin:miter;stroke-opacity:1" transform="translate(-38.394 -542.891)"/><text xml:space="preserve" style="font-size:14.6667px;line-height:1.25;font-family:sans-serif;white-space:pre;shape-inside:url(#i);display:inline" transform="matrix(.26458 0 0 .26458 -15.874 -41.738)"><tspan x="63.43" y="346.041">line_getAxisXIntersection</tspan></text><path d="m71.87 564.635 20.459 22.853M55.12 545.922l16.75 18.713" style="fill:none;stroke:green;stroke-width:.264583px;stroke-linecap:butt;stroke-linejoin:miter;stroke-opacity:1" transform="translate(-38.394 -542.891)"/><path d="M73.954 566.97s1.022-.414 1.256-.865c.207-.4-.017-1.35-.017-1.35" style="fill:none;stroke:#00f;stroke-width:.264583px;stroke-linecap:butt;stroke-linejoin:miter;stroke-opacity:1" transform="translate(-38.394 -542.891)"/><text xml:space="preserve" style="font-size:8px;line-height:1.25;font-family:sans-serif;white-space:pre;shape-inside:url(#j);display:inline;fill:#00f" transform="matrix(.26458 0 0 .26458 -44.495 -473.711)"><tspan x="309.291" y="1878.863">ca</tspan></text><path d="m71.87 564.635-9.356 16.847" style="fill:purple;stroke:purple;stroke-width:.264583px;stroke-linecap:butt;stroke-linejoin:miter;stroke-opacity:1" transform="translate(-38.394 -542.891)"/><path d="M64.155 578.567s1.042.552 1.28 1.154c.211.532-.016 1.797-.016 1.797" style="fill:none;stroke:purple;stroke-width:.264584px;stroke-linecap:butt;stroke-linejoin:miter;stroke-opacity:1" transform="translate(-38.394 -542.891)"/><path d="m71.281 565.38 1.176-1.49M71.124 564.047l1.49 1.176" style="fill:none;stroke:#000;stroke-width:.264583px;stroke-linecap:butt;stroke-linejoin:miter;stroke-opacity:1" transform="translate(-38.394 -542.891)"/><text xml:space="preserve" style="font-size:8px;line-height:1.25;font-family:sans-serif;white-space:pre;shape-inside:url(#k);display:inline;fill:purple" transform="matrix(.26458 0 0 .26458 -57.936 -461.518)"><tspan x="323.205" y="1887.885">a1</tspan></text><text xml:space="preserve" style="font-size:8px;line-height:1.25;font-family:sans-serif;white-space:pre;shape-inside:url(#l);display:inline;fill:purple" transform="matrix(.26458 0 0 .26458 -63.776 -473.284)"><tspan x="346.238" y="1890.76">L1</tspan></text><path d="m62.352 581.577 24.668.01M71.058 566.251s.4.433 1.233.44c.656.007 1.022-.491 1.022-.491" style="fill:none;stroke:#f60;stroke-width:.264583px;stroke-linecap:butt;stroke-linejoin:miter;stroke-opacity:1" transform="translate(-38.394 -542.891)"/></svg>