<svg xmlns="http://www.w3.org/2000/svg" width="262.014" height="195.652" viewBox="0 0 69.325 51.766"><defs><path id="n" d="M443.126 4813.83h128.136v26.062H443.126z"/><path id="c" d="M254.321 237.99h38.557v34.914h-38.557z"/><path id="d" d="M130.985 140.536h42.711v43.171h-42.711z"/><path id="e" d="M232.476 161.365h28.095v22.502h-28.095z"/><path id="f" d="M200.715 288.19h52.317v19.745h-52.317z"/><path id="g" d="M200.715 288.19h52.317v19.745h-52.317z"/><path id="h" d="M63.429 333.065h256.255v34.363H63.429z"/><path id="i" d="M309.291 1871.785h43.699v17.924h-43.699z"/><path id="j" d="M275.246 4415.91h32.129v22.037h-32.129z"/><path id="k" d="M232.476 161.365h28.095v22.502h-28.095z"/><path id="l" d="M309.291 1871.785h43.699v17.924h-43.699z"/><path id="m" d="M443.126 4813.83h128.136v26.062H443.126z"/><marker id="a" markerHeight="5" markerWidth="8.75" orient="auto-start-reverse" preserveAspectRatio="xMidYMid" refX="0" refY="0" style="overflow:visible" viewBox="0 0 8.75 5"><path d="m0 0 5-5-17.5 5L5 5Z" style="fill:context-stroke;fill-rule:evenodd;stroke:none" transform="scale(-.5)"/></marker><marker id="b" markerHeight="5" markerWidth="8.75" orient="auto-start-reverse" preserveAspectRatio="xMidYMid" refX="0" refY="0" style="overflow:visible" viewBox="0 0 8.75 5"><path d="m0 0 5-5-17.5 5L5 5Z" style="fill:context-stroke;fill-rule:evenodd;stroke:none" transform="scale(-.5)"/></marker></defs><path d="M39.039 1230.323h69.06v51.502h-69.06z" style="fill:#fff;stroke:#fff;stroke-width:.264583;stroke-dasharray:none;stroke-dashoffset:0" transform="translate(-38.907 -1230.19)"/><path d="m77.785 1238.075 8.794 36.069" style="fill:none;stroke:#d4aa00;stroke-width:.264583px;stroke-linecap:butt;stroke-linejoin:miter;stroke-opacity:1" transform="translate(-38.907 -1230.19)"/><path d="M72.383 1251.935h6.68" style="fill:none;stroke:#999;stroke-width:.264583px;stroke-linecap:butt;stroke-linejoin:miter;stroke-opacity:1" transform="translate(-38.907 -1230.19)"/><path d="M62.865 1274.788v-40.216" style="fill:none;stroke:#999;stroke-width:.264583px;stroke-linecap:butt;stroke-linejoin:miter;stroke-opacity:1;marker-end:url(#a)" transform="translate(-38.907 -1230.19)"/><path d="M41.533 1268.877h57.815" style="fill:none;stroke:#999;stroke-width:.264583px;stroke-linecap:butt;stroke-linejoin:miter;stroke-opacity:1;marker-end:url(#b)" transform="translate(-38.907 -1230.19)"/><text xml:space="preserve" style="font-size:14.6667px;line-height:1.25;font-family:sans-serif;white-space:pre;shape-inside:url(#c);display:inline" transform="matrix(.26458 0 0 .26458 -6.5 -24.53)"><tspan x="254.32" y="250.967">x</tspan></text><text xml:space="preserve" style="font-size:14.6667px;line-height:1.25;font-family:sans-serif;white-space:pre;shape-inside:url(#d);display:inline" transform="matrix(.26458 0 0 .26458 -13.368 -35.845)"><tspan x="130.984" y="153.514">y</tspan></text><path d="M72.383 1268.877v-16.942h-9.518" style="fill:none;stroke:#ccc;stroke-width:.264583;stroke-linecap:butt;stroke-linejoin:miter;stroke-dasharray:2,1;stroke-dashoffset:0;stroke-opacity:1" transform="translate(-38.907 -1230.19)"/><text xml:space="preserve" style="font-size:14.6667px;line-height:1.25;font-family:sans-serif;white-space:pre;shape-inside:url(#e);display:inline" transform="matrix(.26458 0 0 .26458 -34.693 -23.49)"><tspan x="232.477" y="174.342">p1</tspan></text><text xml:space="preserve" style="font-size:8px;line-height:1.25;font-family:sans-serif;white-space:pre;shape-inside:url(#f);display:inline" transform="matrix(.26458 0 0 .26458 -22.112 -36.602)"><tspan x="200.715" y="295.268">p1.cx</tspan></text><text xml:space="preserve" style="font-size:8px;line-height:1.25;font-family:sans-serif;white-space:pre;shape-inside:url(#g);display:inline" transform="matrix(.26458 0 0 .26458 -36.445 -55.527)"><tspan x="200.715" y="295.268">p1.cy</tspan></text><path d="M62.107 1251.935h1.517M72.383 1269.802v-1.85" style="fill:none;stroke:#000;stroke-width:.264583px;stroke-linecap:butt;stroke-linejoin:miter;stroke-opacity:1" transform="translate(-38.907 -1230.19)"/><text xml:space="preserve" style="font-size:14.6667px;line-height:1.25;font-family:sans-serif;white-space:pre;shape-inside:url(#h);display:inline" transform="matrix(.26458 0 0 .26458 -15.874 -41.738)"><tspan x="63.43" y="346.041">line intersection and bisector</tspan></text><path d="m72.383 1251.935 20.46 22.853M55.633 1233.222l16.75 18.713" style="fill:none;stroke:green;stroke-width:.264583px;stroke-linecap:butt;stroke-linejoin:miter;stroke-opacity:1" transform="translate(-38.907 -1230.19)"/><path d="M71.369 1250.521s1.67-.595 2.32-.173c.43.279.521 1.446.521 1.446" style="fill:none;stroke:#00f;stroke-width:.264583px;stroke-linecap:butt;stroke-linejoin:miter;stroke-opacity:1" transform="translate(-38.907 -1230.19)"/><text xml:space="preserve" style="font-size:8px;line-height:1.25;font-family:sans-serif;white-space:pre;shape-inside:url(#i);display:inline;fill:#00f" transform="matrix(.26458 0 0 .26458 -46.198 -476.285)"><tspan x="309.291" y="1878.863">ca1</tspan></text><path d="m71.795 1252.68 1.176-1.49M71.638 1251.347l1.49 1.176" style="fill:none;stroke:#000;stroke-width:.264583px;stroke-linecap:butt;stroke-linejoin:miter;stroke-opacity:1" transform="translate(-38.907 -1230.19)"/><path d="M81.384 1272.111h6.68" style="fill:none;stroke:#999;stroke-width:.264583px;stroke-linecap:butt;stroke-linejoin:miter;stroke-opacity:1" transform="translate(-38.907 -1230.19)"/><text xml:space="preserve" style="font-size:10.6667px;line-height:1.25;font-family:sans-serif;white-space:pre;shape-inside:url(#j);display:inline;fill:green" transform="matrix(.26458 0 0 .26458 -53.827 -1159.598)"><tspan x="275.246" y="4425.348">l1</tspan></text><path d="m98.598 1235.163-18.067 38.404" style="fill:none;stroke:green;stroke-width:.264583px;stroke-linecap:butt;stroke-linejoin:miter;stroke-opacity:1" transform="translate(-38.907 -1230.19)"/><path d="m80.691 1272.98 1.176-1.49M80.534 1271.648l1.49 1.175" style="fill:none;stroke:#000;stroke-width:.264583px;stroke-linecap:butt;stroke-linejoin:miter;stroke-opacity:1" transform="translate(-38.907 -1230.19)"/><text xml:space="preserve" style="font-size:14.6667px;line-height:1.25;font-family:sans-serif;white-space:pre;shape-inside:url(#k);display:inline" transform="matrix(.26458 0 0 .26458 -24.755 -1.384)"><tspan x="232.477" y="174.342">p3</tspan></text><path d="M81.773 1270.82s.91-.064 1.201.22c.257.25.22 1.054.22 1.054" style="fill:none;stroke:#00f;stroke-width:.264583px;stroke-linecap:butt;stroke-linejoin:miter;stroke-opacity:1" transform="translate(-38.907 -1230.19)"/><text xml:space="preserve" style="font-size:8px;line-height:1.25;font-family:sans-serif;white-space:pre;shape-inside:url(#l);display:inline;fill:#00f" transform="matrix(.26458 0 0 .26458 -37.244 -455.985)"><tspan x="309.291" y="1878.863">ca2</tspan></text><path d="m83.684 1266.07 1.176-1.49M83.527 1264.737l1.49 1.175" style="fill:none;stroke:#f60;stroke-width:.264583px;stroke-linecap:butt;stroke-linejoin:miter;stroke-opacity:1" transform="translate(-38.907 -1230.19)"/><text xml:space="preserve" style="font-size:12px;line-height:1.25;font-family:sans-serif;white-space:pre;shape-inside:url(#m);display:inline;fill:#d4aa00" transform="matrix(.26458 0 0 .26458 -88.273 -1269.974)"><tspan x="443.127" y="4824.447">p1.bisector(p2)</tspan></text><text xml:space="preserve" style="font-size:12px;line-height:1.25;font-family:sans-serif;white-space:pre;shape-inside:url(#n);fill:#f60" transform="matrix(.26458 0 0 .26458 -103.25 -1240.154)"><tspan x="443.127" y="4824.447">p1.intersection(p2)</tspan></text></svg>