<svg xmlns="http://www.w3.org/2000/svg" width="262.014" height="195.652" viewBox="0 0 69.325 51.766"><defs><path id="c" d="M254.321 237.99h38.557v34.914h-38.557z"/><path id="d" d="M130.985 140.536h42.711v43.171h-42.711z"/><path id="e" d="M232.476 161.365h28.095v22.502h-28.095z"/><path id="f" d="M200.715 288.19h52.317v19.745h-52.317z"/><path id="g" d="M200.715 288.19h52.317v19.745h-52.317z"/><path id="h" d="M63.429 333.065h214.01v34.379H63.429z"/><path id="i" d="M309.291 1871.785h43.699v17.924h-43.699z"/><path id="j" d="M323.205 1880.807h59.832v18.928h-59.832z"/><path id="k" d="M346.238 1883.681h29.293v24.056h-29.293z"/><marker id="a" markerHeight="5" markerWidth="8.75" orient="auto-start-reverse" preserveAspectRatio="xMidYMid" refX="0" refY="0" style="overflow:visible" viewBox="0 0 8.75 5"><path d="m0 0 5-5-17.5 5L5 5Z" style="fill:context-stroke;fill-rule:evenodd;stroke:none" transform="scale(-.5)"/></marker><marker id="b" markerHeight="5" markerWidth="8.75" orient="auto-start-reverse" preserveAspectRatio="xMidYMid" refX="0" refY="0" style="overflow:visible" viewBox="0 0 8.75 5"><path d="m0 0 5-5-17.5 5L5 5Z" style="fill:context-stroke;fill-rule:evenodd;stroke:none" transform="scale(-.5)"/></marker></defs><path d="M39.976 832.362h69.06v51.502h-69.06z" style="fill:#fff;stroke:#fff;stroke-width:.264583;stroke-dasharray:none;stroke-dashoffset:0" transform="translate(-39.844 -832.23)"/><path d="M64.939 877.11v-40.627" style="fill:none;stroke:#999;stroke-width:.264583px;stroke-linecap:butt;stroke-linejoin:miter;stroke-opacity:1;marker-end:url(#a)" transform="translate(-39.844 -832.23)"/><path d="M43.607 865.978h57.815" style="fill:none;stroke:#999;stroke-width:.264583px;stroke-linecap:butt;stroke-linejoin:miter;stroke-opacity:1;marker-end:url(#b)" transform="translate(-39.844 -832.23)"/><text xml:space="preserve" style="font-size:14.6667px;line-height:1.25;font-family:sans-serif;white-space:pre;shape-inside:url(#c);display:inline" transform="matrix(.26458 0 0 .26458 -5.362 -29.467)"><tspan x="254.32" y="250.967">x</tspan></text><text xml:space="preserve" style="font-size:14.6667px;line-height:1.25;font-family:sans-serif;white-space:pre;shape-inside:url(#d);display:inline" transform="matrix(.26458 0 0 .26458 -12.743 -36.489)"><tspan x="130.984" y="153.514">y</tspan></text><path d="M55.459 865.954V849.01h9.517" style="fill:none;stroke:#ccc;stroke-width:.264583;stroke-linecap:butt;stroke-linejoin:miter;stroke-dasharray:2,1;stroke-dashoffset:0;stroke-opacity:1" transform="translate(-39.844 -832.23)"/><text xml:space="preserve" style="font-size:14.6667px;line-height:1.25;font-family:sans-serif;white-space:pre;shape-inside:url(#e);display:inline" transform="matrix(.26458 0 0 .26458 -52.256 -26.546)"><tspan x="232.477" y="174.342">p1</tspan></text><text xml:space="preserve" style="font-size:8px;line-height:1.25;font-family:sans-serif;white-space:pre;shape-inside:url(#f);display:inline" transform="matrix(.26458 0 0 .26458 -39.933 -41.601)"><tspan x="200.715" y="295.268">p1.cx</tspan></text><text xml:space="preserve" style="font-size:8px;line-height:1.25;font-family:sans-serif;white-space:pre;shape-inside:url(#g);display:inline" transform="matrix(.26458 0 0 .26458 -26.874 -62.389)"><tspan x="200.715" y="295.268">p1.cy</tspan></text><path d="M64.18 849.036h1.517M55.499 866.841v-1.849" style="fill:none;stroke:#000;stroke-width:.264583px;stroke-linecap:butt;stroke-linejoin:miter;stroke-opacity:1" transform="translate(-39.844 -832.23)"/><text xml:space="preserve" style="font-size:14.6667px;line-height:1.25;font-family:sans-serif;white-space:pre;shape-inside:url(#h);display:inline" transform="matrix(.26458 0 0 .26458 -14.737 -41.913)"><tspan x="63.43" y="346.041">line_getAxisYIntersection 3</tspan></text><path d="M57.667 849.104s.423-1.207-.73-1.834c-1.037-.564-2.639.477-2.639.477" style="fill:none;stroke:#00f;stroke-width:.264583px;stroke-linecap:butt;stroke-linejoin:miter;stroke-opacity:1" transform="translate(-39.844 -832.23)"/><text xml:space="preserve" style="font-size:8px;line-height:1.25;font-family:sans-serif;white-space:pre;shape-inside:url(#i);display:inline;fill:#00f" transform="matrix(.26458 0 0 .26458 -64.965 -482.583)"><tspan x="309.291" y="1878.863">ca</tspan></text><path d="m55.734 849.14 9.367 16.744" style="fill:purple;stroke:purple;stroke-width:.264583px;stroke-linecap:butt;stroke-linejoin:miter;stroke-opacity:1" transform="translate(-39.844 -832.23)"/><path d="M63.928 863.427s1.61-.002 2.151.556c.461.476.574 2.006.574 2.006" style="fill:none;stroke:purple;stroke-width:.264584px;stroke-linecap:butt;stroke-linejoin:miter;stroke-opacity:1" transform="translate(-39.844 -832.23)"/><path d="m54.992 849.76 1.176-1.49M54.835 848.427l1.49 1.176" style="fill:none;stroke:#000;stroke-width:.264583px;stroke-linecap:butt;stroke-linejoin:miter;stroke-opacity:1" transform="translate(-39.844 -832.23)"/><text xml:space="preserve" style="font-size:8px;line-height:1.25;font-family:sans-serif;white-space:pre;shape-inside:url(#j);display:inline;fill:purple" transform="matrix(.26458 0 0 .26458 -58.7 -467.402)"><tspan x="323.205" y="1887.885">a1</tspan></text><text xml:space="preserve" style="font-size:8px;line-height:1.25;font-family:sans-serif;white-space:pre;shape-inside:url(#k);display:inline;fill:purple" transform="matrix(.26458 0 0 .26458 -74.18 -473.328)"><tspan x="346.238" y="1890.76">L1</tspan></text><path d="m64.898 854.922.046 10.86M56.93 850.967s.282-.128.392-.236a.837.837 0 0 0 .213-.344c.04-.13.015-.407.015-.407" style="fill:none;stroke:#f60;stroke-width:.264583px;stroke-linecap:butt;stroke-linejoin:miter;stroke-opacity:1" transform="translate(-39.844 -832.23)"/><path d="m51.034 845.839 35.414 23.01" style="fill:none;stroke:green;stroke-width:.264583px;stroke-linecap:butt;stroke-linejoin:miter;stroke-opacity:1" transform="translate(-39.844 -832.23)"/></svg>