<?xml version="1.0" encoding="UTF-8" standalone="no"?>
<!-- Created with Inkscape (http://www.inkscape.org/) -->

<svg
   width="600"
   height="4000"
   viewBox="0 0 158.75 1058.3333"
   version="1.1"
   id="svg5"
   inkscape:version="1.2.2 (732a01da63, 2022-12-09, custom)"
   sodipodi:docname="menu_icons.svg"
   xmlns:inkscape="http://www.inkscape.org/namespaces/inkscape"
   xmlns:sodipodi="http://sodipodi.sourceforge.net/DTD/sodipodi-0.dtd"
   xmlns="http://www.w3.org/2000/svg"
   xmlns:svg="http://www.w3.org/2000/svg">
  <sodipodi:namedview
     id="namedview7"
     pagecolor="#ffffff"
     bordercolor="#666666"
     borderopacity="1.0"
     inkscape:showpageshadow="2"
     inkscape:pageopacity="0.0"
     inkscape:pagecheckerboard="0"
     inkscape:deskcolor="#d1d1d1"
     inkscape:document-units="px"
     showgrid="false"
     inkscape:zoom="1.6819304"
     inkscape:cx="105.83078"
     inkscape:cy="283.89998"
     inkscape:window-width="1366"
     inkscape:window-height="836"
     inkscape:window-x="0"
     inkscape:window-y="0"
     inkscape:window-maximized="1"
     inkscape:current-layer="layer1" />
  <defs
     id="defs2">
    <marker
       markerWidth="0.52499998"
       markerHeight="0.99999994"
       refX="0"
       refY="0"
       orient="auto-start-reverse"
       id="marker1593"
       viewBox="0 0 0.525 1"
       inkscape:stockid="pin"
       style="overflow:visible"
       preserveAspectRatio="xMidYMid"
       inkscape:isstock="true"
       inkscape:collect="always">
      <path
         id="path1591"
         style="fill:context-stroke;stroke-linecap:butt"
         d="M 0,-1 1,0 0,1 -0.05,0 Z"
         sodipodi:nodetypes="sssssscsss"
         transform="scale(0.5)" />
    </marker>
    <marker
       markerWidth="0.52499998"
       markerHeight="0.99999994"
       refX="0"
       refY="0"
       orient="auto-start-reverse"
       id="CapTriangle"
       viewBox="0 0 0.525 1"
       inkscape:stockid="pin"
       style="overflow:visible"
       preserveAspectRatio="xMidYMid"
       inkscape:isstock="true"
       inkscape:collect="always">
      <path
         id="path7813"
         style="fill:context-stroke;stroke-linecap:butt"
         d="M 0,-1 1,0 0,1 -0.05,0 Z"
         sodipodi:nodetypes="sssssscsss"
         transform="scale(0.5)" />
    </marker>
    <rect
       x="399.25524"
       y="32.853804"
       width="150.4224"
       height="157.71266"
       id="rect481" />
    <rect
       x="7.9637844"
       y="5.5994996"
       width="428.21192"
       height="128.2729"
       id="rect113" />
  </defs>
  <g
     inkscape:label="Layer 1"
     inkscape:groupmode="layer"
     id="layer1">
    <text
       xml:space="preserve"
       transform="scale(0.26458333)"
       id="text111"
       style="font-style:normal;font-weight:normal;font-size:14.6667px;line-height:1.25;font-family:sans-serif;white-space:pre;shape-inside:url(#rect113);display:inline;fill:#000000;fill-opacity:1;stroke:none"><tspan
         x="7.9628906"
         y="18.576202"
         id="tspan1974">menu_icons.svg</tspan></text>
    <rect
       style="fill:none;stroke:none;stroke-width:0.264583"
       id="rect111"
       width="21.166666"
       height="21.166666"
       x="16.38475"
       y="22.264185"
       inkscape:export-filename="page_index.png"
       inkscape:export-xdpi="96"
       inkscape:export-ydpi="96" />
    <path
       style="fill:#ff7f2a;stroke:#ff7f2a;stroke-width:0.264583px;stroke-linecap:butt;stroke-linejoin:miter;stroke-opacity:1"
       d="m 17.351341,40.891207 c 0.688228,-0.144405 4.541661,-3.170986 5.871448,-5.499681 0.986026,-1.726708 1.299645,-5.821926 1.299645,-5.821926 l 2.057925,-0.139488 c 0,0 0.512142,2.362469 0.928494,3.493008 0.662584,1.799142 1.022511,3.944523 2.480694,5.189365 1.797675,1.534664 6.798098,2.016755 6.798098,2.016755 l -0.610803,2.221995 c 0,0 -5.691681,-0.05653 -7.745641,-1.723031 -1.496696,-1.214359 -2.391592,-5.264332 -2.391592,-5.264332 0,0 -1.84102,3.017956 -3.145572,4.17177 -1.213039,1.072875 -4.20741,2.429077 -4.20741,2.429077 z"
       id="path327"
       sodipodi:nodetypes="caccaaccacacc" />
    <path
       style="fill:#ff7f2a;stroke:#ff7f2a;stroke-width:0.264583px;stroke-linecap:butt;stroke-linejoin:miter;stroke-opacity:1"
       d="m 25.925314,22.621204 c 1.15268,0.11947 2.381289,0.990045 2.789783,2.074516 0.286936,0.761759 0.07021,1.818248 -0.511256,2.387906 -0.653247,0.639987 -1.793348,0.678245 -2.693922,0.519244 -0.970749,-0.171391 -1.8626,-0.800917 -2.536613,-1.520247 -0.434325,-0.463527 -1.0781,-1.094138 -0.871346,-1.694762 0.456961,-1.327479 2.426907,-1.911393 3.823354,-1.766657 z"
       id="path376"
       sodipodi:nodetypes="aaaaaaa" />
    <text
       xml:space="preserve"
       transform="scale(0.26458333)"
       id="text479"
       style="font-style:normal;font-weight:normal;font-size:14.6667px;line-height:1.25;font-family:sans-serif;white-space:pre;shape-inside:url(#rect481);display:inline;fill:#000000;fill-opacity:1;stroke:none"><tspan
         x="399.25586"
         y="45.830108"
         id="tspan1976">index
</tspan><tspan
         x="399.25586"
         y="64.163482"
         id="tspan1978">rough
</tspan><tspan
         x="399.25586"
         y="82.496856"
         id="tspan1980">circle
</tspan><tspan
         x="399.25586"
         y="100.83023"
         id="tspan1982">docs
</tspan><tspan
         x="399.25586"
         y="119.1636"
         id="tspan1984">readme
</tspan><tspan
         x="399.25586"
         y="137.49698"
         id="tspan1986">about</tspan></text>
    <rect
       style="fill:none;stroke:#e6e6e6;stroke-width:0.264583"
       id="rect111-3"
       width="21.166666"
       height="21.166666"
       x="52.516754"
       y="6.7876711"
       inkscape:export-filename="../24168d4b/page_index.png"
       inkscape:export-xdpi="96"
       inkscape:export-ydpi="96" />
    <rect
       style="fill:none;stroke:none;stroke-width:0.264583"
       id="rect111-3-6"
       width="21.166666"
       height="21.166666"
       x="16.868374"
       y="52.04298"
       inkscape:export-filename="page_rough.png"
       inkscape:export-xdpi="96"
       inkscape:export-ydpi="96" />
    <path
       style="fill:#ff7f2a;stroke:#ff7f2a;stroke-width:0.264583px;stroke-linecap:butt;stroke-linejoin:miter;stroke-opacity:1"
       d="m 18.043256,60.747205 7.990208,-7.268794 1.675713,3.996026 5.205341,-2.023515 2.866594,5.218858 -3.066918,11.723847 -3.597836,-5.206569 -6.491468,5.100875 -0.738002,-5.230534 -2.986419,0.886095 z"
       id="path605" />
    <rect
       style="fill:none;stroke:none;stroke-width:0.264583"
       id="rect111-3-6-7"
       width="21.166666"
       height="21.166666"
       x="44.946857"
       y="52.497704"
       inkscape:export-filename="page_circle.png"
       inkscape:export-xdpi="96"
       inkscape:export-ydpi="96" />
    <path
       style="fill:none;stroke:#ff7f2a;stroke-width:1.5875;stroke-linecap:butt;stroke-linejoin:miter;stroke-opacity:1"
       d="m 48.421777,59.681067 c 0.550663,-1.118537 1.158486,-2.309333 2.157473,-3.055242 1.962411,-1.465265 4.517044,-2.55195 6.958478,-2.358411 2.413307,0.19131 5.257486,1.26515 6.425102,3.385839 1.325694,2.407799 0.656845,5.803342 -0.652587,8.220024 -1.606992,2.965857 -4.816325,5.104551 -8.013559,6.179923 -2.449576,0.823901 -5.814633,1.647295 -7.753015,-0.06206 -1.666614,-1.4697 -1.071697,-4.39263 -0.886709,-6.606992 0.165665,-1.983058 0.885882,-3.917738 1.764817,-5.703078 z"
       id="path634"
       sodipodi:nodetypes="aaaaaaaaa" />
    <rect
       style="fill:none;stroke:none;stroke-width:0.264583"
       id="rect111-3-6-7-5"
       width="21.166666"
       height="21.166666"
       x="17.229078"
       y="79.978294"
       inkscape:export-filename="page_docs.png"
       inkscape:export-xdpi="96"
       inkscape:export-ydpi="96" />
    <path
       style="fill:none;stroke:#ff7f2a;stroke-width:1.5875;stroke-linecap:butt;stroke-linejoin:miter;stroke-opacity:1;marker-start:url(#CapTriangle);marker-end:url(#marker1593)"
       d="m 18.962533,87.887982 13.538432,-6.72313"
       id="path663"
       sodipodi:nodetypes="cc" />
    <path
       style="fill:none;stroke:#ff7f2a;stroke-width:1.5875;stroke-linecap:butt;stroke-linejoin:miter;stroke-opacity:1;marker-start:url(#CapTriangle);marker-end:url(#marker1593)"
       d="M 18.958845,92.661336 33.379686,85.496387"
       id="path665"
       sodipodi:nodetypes="cc" />
    <path
       style="fill:none;stroke:#ff7f2a;stroke-width:1.5875;stroke-linecap:butt;stroke-linejoin:miter;stroke-opacity:1;marker-start:url(#CapTriangle);marker-end:url(#marker1593)"
       d="m 22.488474,95.649598 14.221745,-7.58526"
       id="path667"
       sodipodi:nodetypes="cc" />
    <path
       style="fill:none;stroke:#ff7f2a;stroke-width:1.5875;stroke-linecap:butt;stroke-linejoin:miter;stroke-opacity:1;marker-start:url(#CapTriangle);marker-end:url(#marker1593)"
       d="M 25.454615,99.876056 36.629106,93.485365"
       id="path669"
       sodipodi:nodetypes="cc" />
    <rect
       style="fill:none;stroke:none;stroke-width:0.264583"
       id="rect111-3-6-7-5-3"
       width="21.166666"
       height="21.166666"
       x="44.025734"
       y="80.079063"
       inkscape:export-filename="page_readme.png"
       inkscape:export-xdpi="96"
       inkscape:export-ydpi="96" />
    <path
       style="fill:none;stroke:#ff7f2a;stroke-width:1.5875;stroke-linecap:butt;stroke-linejoin:miter;stroke-opacity:1"
       d="m 46.895384,99.019459 c 0,0 2.435589,-1.408539 3.006696,-2.605436 1.070136,-2.242738 0.766996,-5.019942 0.250711,-7.450686 -0.411092,-1.935479 -2.593758,-5.339299 -2.593758,-5.339299 0,0 4.319671,-1.59972 6.586099,-1.743308 2.817377,-0.178494 6.53424,-1.006316 8.395155,1.116529 0.892496,1.018118 0.802084,2.968295 0.0037,4.061774 -1.6299,2.232334 -7.900492,2.51818 -7.900492,2.51818 0,0 3.071686,0.375 3.867597,1.506728 0.333187,0.473767 0.04609,1.736979 0.04609,1.736979"
       id="path1795"
       sodipodi:nodetypes="caacaaacac" />
    <path
       style="fill:none;stroke:#ff7f2a;stroke-width:1.5875;stroke-linecap:butt;stroke-linejoin:miter;stroke-opacity:1"
       d="m 53.0157,92.610661 -0.27898,7.469069"
       id="path1797" />
    <path
       style="fill:none;stroke:#ff7f2a;stroke-width:1.5875;stroke-linecap:butt;stroke-linejoin:miter;stroke-opacity:1"
       d="m 52.663504,96.05516 c 0,0 1.207106,-2.153191 2.268787,-2.25702 0.952471,-0.09315 1.834578,0.812182 2.389137,1.592144 0.533558,0.750425 0.616449,1.756582 0.691915,2.674257 0.05756,0.699915 -0.187421,2.098479 -0.187421,2.098479"
       id="path1799"
       sodipodi:nodetypes="caaac" />
    <path
       style="fill:none;stroke:#ff7f2a;stroke-width:1.5875;stroke-linecap:butt;stroke-linejoin:miter;stroke-opacity:1"
       d="m 58.036078,95.9169 c 0,0 1.120101,-1.55867 1.979885,-1.75191 0.706836,-0.158864 1.652931,0.02556 2.087423,0.605274 1.049832,1.400725 -0.01167,5.251426 -0.01167,5.251426"
       id="path1801"
       sodipodi:nodetypes="caac" />
    <rect
       style="fill:none;stroke:none;stroke-width:0.264583"
       id="rect111-3-6-7-5-3-5"
       width="21.166666"
       height="21.166666"
       x="68.470741"
       y="80.211189"
       inkscape:export-filename="page_about.png"
       inkscape:export-xdpi="96"
       inkscape:export-ydpi="96" />
    <ellipse
       style="fill:none;stroke:#ff7f2a;stroke-width:1.5875"
       id="path1886"
       cx="79.085114"
       cy="90.677155"
       rx="9.1346941"
       ry="9.0710945" />
    <ellipse
       style="fill:#ff7f2a;stroke:#ff7f2a;stroke-width:1.5875"
       id="path1888"
       cx="79.075272"
       cy="90.636902"
       rx="3.0395725"
       ry="2.9633758" />
  </g>
</svg>
