<svg xmlns="http://www.w3.org/2000/svg" width="600" height="4000" viewBox="0 0 158.75 1058.333"><defs><path id="b" d="M399.255 32.854h150.422v157.713H399.255z"/><path id="a" d="M7.964 5.599h428.212v128.273H7.964z"/><marker id="c" markerHeight="1" markerWidth=".525" orient="auto-start-reverse" preserveAspectRatio="xMidYMid" refX="0" refY="0" style="overflow:visible" viewBox="0 0 0.525 1"><path d="m0-1 1 1-1 1-.05-1Z" style="fill:context-stroke;stroke-linecap:butt" transform="scale(.5)"/></marker></defs><text xml:space="preserve" style="font-style:normal;font-weight:400;font-size:14.6667px;line-height:1.25;font-family:sans-serif;white-space:pre;shape-inside:url(#a);display:inline;fill:#000;fill-opacity:1;stroke:none" transform="scale(.26458)"><tspan x="7.963" y="18.576">menu_icons.svg</tspan></text><path d="M16.385 22.264h21.167v21.167H16.385z" style="fill:none;stroke:none;stroke-width:.264583;fill-opacity:1"/><path d="M17.351 40.891c.689-.144 4.542-3.17 5.872-5.5.986-1.726 1.3-5.821 1.3-5.821l2.057-.14s.513 2.363.929 3.493c.662 1.8 1.022 3.945 2.48 5.19 1.798 1.534 6.799 2.016 6.799 2.016l-.611 2.222s-5.692-.056-7.746-1.723c-1.496-1.214-2.391-5.264-2.391-5.264s-1.841 3.018-3.146 4.172c-1.213 1.073-4.207 2.429-4.207 2.429zM25.925 22.621c1.153.12 2.382.99 2.79 2.075.287.761.07 1.818-.511 2.388-.653.64-1.794.678-2.694.519-.97-.172-1.863-.801-2.537-1.52-.434-.464-1.078-1.095-.871-1.695.457-1.328 2.427-1.912 3.823-1.767z" style="fill:#6495ed;stroke:#6495ed;stroke-width:.264583px;stroke-linecap:butt;stroke-linejoin:miter;stroke-opacity:1;fill-opacity:1"/><text xml:space="preserve" style="font-style:normal;font-weight:400;font-size:14.6667px;line-height:1.25;font-family:sans-serif;white-space:pre;shape-inside:url(#b);display:inline;fill:#000;fill-opacity:1;stroke:none" transform="scale(.26458)"><tspan x="399.256" y="45.83">index
</tspan><tspan x="399.256" y="64.163">rough
</tspan><tspan x="399.256" y="82.497">circle
</tspan><tspan x="399.256" y="100.83">docs
</tspan><tspan x="399.256" y="119.164">readme
</tspan><tspan x="399.256" y="137.497">about</tspan></text><path d="M52.517 6.788h21.167v21.167H52.517z" style="fill:none;stroke:#e6e6e6;stroke-width:.264583"/><path d="M16.868 52.043h21.167V73.21H16.868z" style="fill:none;stroke:none;stroke-width:.264583"/><path d="m18.043 60.747 7.99-7.269 1.676 3.996 5.206-2.023 2.866 5.219-3.067 11.724-3.598-5.207-6.491 5.1-.738-5.23-2.987.886z" style="fill:#6495ed;stroke:#6495ed;stroke-width:.264583px;stroke-linecap:butt;stroke-linejoin:miter;stroke-opacity:1;fill-opacity:1"/><path d="M44.947 52.498h21.167v21.167H44.947z" style="fill:none;stroke:none;stroke-width:.264583"/><path d="M48.422 59.681c.55-1.118 1.158-2.31 2.157-3.055 1.963-1.465 4.517-2.552 6.959-2.359 2.413.192 5.257 1.266 6.425 3.386 1.326 2.408.657 5.804-.653 8.22-1.607 2.966-4.816 5.105-8.013 6.18-2.45.824-5.815 1.647-7.753-.062-1.667-1.47-1.072-4.392-.887-6.607.166-1.983.886-3.918 1.765-5.703z" style="fill:none;stroke:#6495ed;stroke-width:1.5875;stroke-linecap:butt;stroke-linejoin:miter;stroke-opacity:1"/><path d="M17.229 79.978h21.167v21.167H17.229z" style="fill:none;stroke:none;stroke-width:.264583"/><path d="M18.963 87.888 32.5 81.165" style="fill:none;stroke:#6495ed;stroke-width:1.5875;stroke-linecap:butt;stroke-linejoin:miter;stroke-opacity:1;marker-start:url(#c);marker-end:url(#marker1593)"/><path d="m18.959 92.661 14.42-7.165" style="fill:none;stroke:#6495ed;stroke-width:1.5875;stroke-linecap:butt;stroke-linejoin:miter;stroke-opacity:1;marker-start:url(#c);marker-end:url(#marker1593)"/><path d="m22.488 95.65 14.222-7.586" style="fill:none;stroke:#6495ed;stroke-width:1.5875;stroke-linecap:butt;stroke-linejoin:miter;stroke-opacity:1;marker-start:url(#c);marker-end:url(#marker1593)"/><path d="m25.455 99.876 11.174-6.39" style="fill:none;stroke:#6495ed;stroke-width:1.5875;stroke-linecap:butt;stroke-linejoin:miter;stroke-opacity:1;marker-start:url(#c);marker-end:url(#marker1593)"/><path d="M44.026 80.079h21.167v21.167H44.026z" style="fill:none;stroke:none;stroke-width:.264583"/><path d="M46.895 99.02s2.436-1.41 3.007-2.606c1.07-2.243.767-5.02.25-7.45-.41-1.936-2.593-5.34-2.593-5.34s4.32-1.6 6.586-1.743c2.818-.179 6.534-1.007 8.395 1.116.893 1.018.802 2.969.004 4.062-1.63 2.232-7.9 2.518-7.9 2.518s3.071.375 3.867 1.507c.333.474.046 1.737.046 1.737M53.016 92.61l-.28 7.47" style="fill:none;stroke:#6495ed;stroke-width:1.5875;stroke-linecap:butt;stroke-linejoin:miter;stroke-opacity:1"/><path d="M52.664 96.055s1.207-2.153 2.268-2.257c.953-.093 1.835.812 2.39 1.592.533.75.616 1.757.691 2.675.058.7-.187 2.098-.187 2.098M58.036 95.917s1.12-1.559 1.98-1.752c.707-.159 1.653.026 2.087.605 1.05 1.401-.011 5.252-.011 5.252" style="fill:none;stroke:#6495ed;stroke-width:1.5875;stroke-linecap:butt;stroke-linejoin:miter;stroke-opacity:1"/><path d="M68.471 80.211h21.167v21.167H68.471z" style="fill:none;stroke:none;stroke-width:.264583"/><ellipse cx="79.085" cy="90.677" rx="9.135" ry="9.071" style="fill:none;stroke:#6495ed;stroke-width:1.5875;stroke-opacity:1"/><ellipse cx="79.075" cy="90.637" rx="3.04" ry="2.963" style="fill:#6495ed;stroke:#6495ed;stroke-width:1.5875;stroke-opacity:1;fill-opacity:1"/></svg>