<svg xmlns="http://www.w3.org/2000/svg" width="80" height="80" viewBox="0 0 21.167 21.167"><path d="M44.026 80.079h21.167v21.167H44.026z" style="fill:none;stroke:none;stroke-width:.264583" transform="translate(-44.026 -80.08)"/><path d="M46.895 99.02s2.436-1.41 3.007-2.606c1.07-2.243.767-5.02.25-7.45-.41-1.936-2.593-5.34-2.593-5.34s4.32-1.6 6.586-1.743c2.818-.179 6.534-1.007 8.395 1.116.893 1.018.802 2.969.004 4.062-1.63 2.232-7.9 2.518-7.9 2.518s3.071.375 3.867 1.507c.333.474.046 1.737.046 1.737M53.016 92.61l-.28 7.47" style="fill:none;stroke:#6495ed;stroke-width:1.5875;stroke-linecap:butt;stroke-linejoin:miter;stroke-opacity:1" transform="translate(-44.026 -80.08)"/><path d="M52.664 96.055s1.207-2.153 2.268-2.257c.953-.093 1.835.812 2.39 1.592.533.75.616 1.757.691 2.675.058.7-.187 2.098-.187 2.098M58.036 95.917s1.12-1.559 1.98-1.752c.707-.159 1.653.026 2.087.605 1.05 1.401-.011 5.252-.011 5.252" style="fill:none;stroke:#6495ed;stroke-width:1.5875;stroke-linecap:butt;stroke-linejoin:miter;stroke-opacity:1" transform="translate(-44.026 -80.08)"/></svg>