<svg xmlns="http://www.w3.org/2000/svg" width="80" height="80.461" viewBox="0 0 21.167 21.289"><path d="M44.947 52.498h21.167v21.167H44.947z" style="fill:none;stroke:none;stroke-width:.264583" transform="translate(-44.947 -52.498)"/><path d="M48.422 59.681c.55-1.118 1.158-2.31 2.157-3.055 1.963-1.465 4.517-2.552 6.959-2.359 2.413.192 5.257 1.266 6.425 3.386 1.326 2.408.657 5.804-.653 8.22-1.607 2.966-4.816 5.105-8.013 6.18-2.45.824-5.815 1.647-7.753-.062-1.667-1.47-1.072-4.392-.887-6.607.166-1.983.886-3.918 1.765-5.703z" style="fill:none;stroke:#6495ed;stroke-width:1.5875;stroke-linecap:butt;stroke-linejoin:miter;stroke-opacity:1" transform="translate(-44.947 -52.498)"/></svg>