<svg xmlns="http://www.w3.org/2000/svg" width="545.026" height="555.688" viewBox="0 0 144.205 147.026"><defs><path id="i" d="M175.114 4599.083h154.334v38.278H175.114z"/><path id="h" d="M20.101 4837.114H196.37v84.066H20.101z"/><path id="g" d="M363.636 4665.709h318.486v79.986H363.636z"/><path id="f" d="M295.908 4852.713h200.67v66.785h-200.67z"/><path id="e" d="M307.092 4948.548h224.865v73.931H307.092z"/><path id="d" d="M84.577 4849.283h238.062v86.817H84.577z"/><path id="c" d="M217.867 4767.214H447.27v60.766H217.867z"/><path id="b" d="M121.527 4661.419h289.674v93.441H121.527z"/><path id="a" d="M72.16 4951.336h338.803v63.891H72.16z"/><marker id="j" markerHeight="5" markerWidth="8.75" orient="auto-start-reverse" preserveAspectRatio="xMidYMid" refX="0" refY="0" style="overflow:visible" viewBox="0 0 8.75 5"><path d="m0 0 5-5-17.5 5L5 5Z" style="fill:context-stroke;fill-rule:evenodd;stroke:none" transform="scale(-.5)"/></marker><marker id="k" markerHeight="5" markerWidth="8.75" orient="auto-start-reverse" preserveAspectRatio="xMidYMid" refX="0" refY="0" style="overflow:visible" viewBox="0 0 8.75 5"><path d="m0 0 5-5-17.5 5L5 5Z" style="fill:context-stroke;fill-rule:evenodd;stroke:none" transform="scale(-.5)"/></marker></defs><g transform="translate(-5.436 -1204.14)"><rect width="143.94" height="146.761" x="5.568" y="1204.272" ry="0" style="fill:#fff;stroke:#fff;stroke-width:.264583"/><rect width="40.561" height="19.502" x="51.624" y="1288.098" ry="6.117" style="fill:#fca;stroke:#ccc;stroke-width:.264584"/><rect width="45.581" height="21.042" x="100.076" y="1282.275" ry="6.6" style="fill:#fca;stroke:#ccc;stroke-width:.264584"/><rect width="39.036" height="18.633" x="100.062" y="1230.522" ry="5.844" style="fill:#fca;stroke:#ccc;stroke-width:.264584"/><rect width="39.036" height="18.633" x="12.518" y="1230.738" ry="5.844" style="fill:#fca;stroke:#ccc;stroke-width:.264584"/><path d="M53.431 1326.38h51.151v10.181H53.431zM53.642 1258.535h51.151v10.181H53.642zM59.808 1210.309h33.444v10.181H59.808z" style="fill:#fff6d5;stroke:#a80;stroke-width:.264583"/><text xml:space="preserve" style="font-size:14.6667px;line-height:1.25;font-family:sans-serif;white-space:pre;shape-inside:url(#a);display:inline" transform="matrix(.26458 0 0 .26458 -8.864 33.94)"><tspan x="72.16" y="4964.313">Parametrix galaxi</tspan></text><text xml:space="preserve" style="font-size:14.6667px;line-height:1.25;font-family:sans-serif;white-space:pre;shape-inside:url(#b);display:inline" transform="matrix(.26458 0 0 .26458 -14.573 -.94)"><tspan x="121.527" y="4674.396"><tspan style="font-weight:700;-inkscape-font-specification:&quot;sans-serif Bold&quot;">Parametrix</tspan>
</tspan><tspan x="121.527" y="4692.73">parametrization
</tspan><tspan x="121.527" y="4711.064">&amp; visualization</tspan></text><text xml:space="preserve" style="font-size:17.3333px;line-height:1.25;font-family:sans-serif;white-space:pre;shape-inside:url(#c);display:inline" transform="scale(.26458)"><tspan x="217.867" y="4782.551">.dxf, .svg, .pax.json</tspan></text><text xml:space="preserve" style="font-size:14.6667px;line-height:1.25;font-family:sans-serif;white-space:pre;shape-inside:url(#d);display:inline" transform="matrix(.26458 0 0 .26458 85.294 -50.753)"><tspan x="84.576" y="4862.26"><tspan style="font-weight:700;-inkscape-font-specification:&quot;sans-serif Bold&quot;">Vizpax</tspan>
</tspan><tspan x="84.576" y="4880.593">visualization
</tspan><tspan x="84.576" y="4898.927">&amp; conversion</tspan></text><text xml:space="preserve" style="font-size:17.3333px;line-height:1.25;font-family:sans-serif;white-space:pre;shape-inside:url(#e);display:inline" transform="matrix(.26458 0 0 .26458 -20.21 19.817)"><tspan x="307.092" y="4963.883">.step, .brep, .stl</tspan></text><text xml:space="preserve" style="font-size:14.6667px;line-height:1.25;font-family:sans-serif;white-space:pre;shape-inside:url(#f);display:inline" transform="matrix(.26458 0 0 .26458 -21.85 6.904)"><tspan x="295.908" y="4865.69"><tspan style="font-weight:700;-inkscape-font-specification:&quot;sans-serif Bold&quot;">Volumetrix</tspan>
</tspan><tspan x="295.908" y="4884.023">Extrusion based
</tspan><tspan x="295.908" y="4902.356">on openJsCAD</tspan></text><text xml:space="preserve" style="font-size:14.6667px;line-height:1.25;font-family:sans-serif;white-space:pre;shape-inside:url(#g);display:inline" transform="matrix(.26458 0 0 .26458 8.806 50.761)"><tspan x="363.637" y="4678.686"><tspan style="font-weight:700;-inkscape-font-specification:&quot;sans-serif Bold&quot;">Extrudix</tspan>
</tspan><tspan x="363.637" y="4697.019">Extrusion based
</tspan><tspan x="363.637" y="4715.353">on OpenCascade.js</tspan></text><text xml:space="preserve" style="font-size:14.6667px;line-height:1.25;font-family:sans-serif;white-space:pre;shape-inside:url(#h);display:inline" transform="matrix(.26458 0 0 .26458 8.14 5.11)"><tspan x="20.102" y="4850.09">FreeCAD
</tspan><tspan x="20.102" y="4868.423">py-scripts</tspan></text><text xml:space="preserve" style="font-size:17.3333px;line-height:1.25;font-family:sans-serif;white-space:pre;shape-inside:url(#i);display:inline" transform="matrix(.26458 0 0 .26458 16.351 -4.4)"><tspan x="175.115" y="4614.418">.param.json</tspan></text><rect width="30.339" height="15.775" x="8.079" y="1281.864" ry="4.948" style="fill:none;stroke:#ccc;stroke-width:.264584"/><path d="m50.156 1232.4 9.734-11.517" style="fill:none;stroke:#000;stroke-width:.264583px;stroke-linecap:butt;stroke-linejoin:miter;stroke-opacity:1;marker-start:url(#j);marker-end:url(#Arrow1Mend)"/><path d="m48.777 1248.16 6.434 9.127" style="fill:none;stroke:#000;stroke-width:.264583px;stroke-linecap:butt;stroke-linejoin:miter;stroke-opacity:1;marker-end:url(#j)"/><path d="m98.66 1258.18 5.29-9.27" style="fill:none;stroke:#000;stroke-width:.264583px;stroke-linecap:butt;stroke-linejoin:miter;stroke-opacity:1;marker-end:url(#j)"/><path d="m107.14 1248.418-5.289 9.27" style="fill:none;stroke:#000;stroke-width:.264583px;stroke-linecap:butt;stroke-linejoin:miter;stroke-opacity:1;marker-end:url(#k)"/><path d="m60.11 1267.404-22.592 16.23" style="fill:none;stroke:#000;stroke-width:.264583px;stroke-linecap:butt;stroke-linejoin:miter;stroke-opacity:1;marker-end:url(#j)"/><path d="m90.29 1267.302-7.245 19.776" style="fill:none;stroke:#000;stroke-width:.264583px;stroke-linecap:butt;stroke-linejoin:miter;stroke-opacity:1;marker-end:url(#j)"/><path d="m91.47 1267.415 11.352 15.846" style="fill:none;stroke:#000;stroke-width:.264583px;stroke-linecap:butt;stroke-linejoin:miter;stroke-opacity:1;marker-end:url(#j)"/><path d="m36.148 1296.302 19.7 29.036" style="fill:none;stroke:#000;stroke-width:.264583px;stroke-linecap:butt;stroke-linejoin:miter;stroke-opacity:1;marker-end:url(#j)"/><path d="m76.607 1307.396-2.646 17.546" style="fill:none;stroke:#000;stroke-width:.264583px;stroke-linecap:butt;stroke-linejoin:miter;stroke-opacity:1;marker-end:url(#j)"/><path d="m110.027 1302.978-10.636 22.086" style="fill:none;stroke:#000;stroke-width:.264583px;stroke-linecap:butt;stroke-linejoin:miter;stroke-opacity:1;marker-end:url(#j)"/><path d="M57.402 1267.548h9.014" style="fill:none;stroke:#000;stroke-width:.529168;stroke-linecap:butt;stroke-linejoin:miter;stroke-opacity:1"/><path d="M82.062 1267.332h20.632" style="fill:none;stroke:#000;stroke-width:.529167;stroke-linecap:butt;stroke-linejoin:miter;stroke-opacity:1"/></g></svg>