<svg xmlns="http://www.w3.org/2000/svg" width="262.014" height="195.652" viewBox="0 0 69.325 51.766"><defs><path id="m" d="M25.584 907.315h177.474v19.009H25.584z"/><path id="l" d="M39.1 914.285h167.384v25.297H39.1z"/><path id="c" d="M254.321 237.99h38.557v34.914h-38.557z"/><path id="d" d="M130.985 140.536h42.711v43.171h-42.711z"/><path id="e" d="M232.476 161.365h28.095v22.502h-28.095z"/><path id="f" d="M200.715 288.19h52.317v19.745h-52.317z"/><path id="g" d="M200.715 288.19h52.317v19.745h-52.317z"/><path id="h" d="M63.429 333.065h158.363v29.331H63.429z"/><path id="i" d="M232.476 161.365h28.095v22.502h-28.095z"/><path id="j" d="M200.715 288.19h52.317v19.745h-52.317z"/><path id="k" d="M200.715 288.19h52.317v19.745h-52.317z"/><marker id="a" markerHeight="5" markerWidth="8.75" orient="auto-start-reverse" preserveAspectRatio="xMidYMid" refX="0" refY="0" style="overflow:visible" viewBox="0 0 8.75 5"><path d="m0 0 5-5-17.5 5L5 5Z" style="fill:context-stroke;fill-rule:evenodd;stroke:none" transform="scale(-.5)"/></marker><marker id="b" markerHeight="5" markerWidth="8.75" orient="auto-start-reverse" preserveAspectRatio="xMidYMid" refX="0" refY="0" style="overflow:visible" viewBox="0 0 8.75 5"><path d="m0 0 5-5-17.5 5L5 5Z" style="fill:context-stroke;fill-rule:evenodd;stroke:none" transform="scale(-.5)"/></marker></defs><path d="M23.231 210.044h69.06v51.502h-69.06z" style="fill:#fff;stroke:#fff;stroke-width:.264583;stroke-dasharray:none;stroke-dashoffset:0" transform="translate(-23.099 -209.911)"/><path d="M47.057 254.509v-40.217" style="fill:none;stroke:#999;stroke-width:.264583px;stroke-linecap:butt;stroke-linejoin:miter;stroke-opacity:1;marker-end:url(#a)" transform="translate(-23.099 -209.911)"/><path d="M25.725 248.598H83.54" style="fill:none;stroke:#999;stroke-width:.264583px;stroke-linecap:butt;stroke-linejoin:miter;stroke-opacity:1;marker-end:url(#b)" transform="translate(-23.099 -209.911)"/><text xml:space="preserve" style="font-size:14.6667px;line-height:1.25;font-family:sans-serif;white-space:pre;shape-inside:url(#c);display:inline" transform="matrix(.26458 0 0 .26458 -6.5 -24.53)"><tspan x="254.32" y="250.967">x</tspan></text><text xml:space="preserve" style="font-size:14.6667px;line-height:1.25;font-family:sans-serif;white-space:pre;shape-inside:url(#d);display:inline" transform="matrix(.26458 0 0 .26458 -13.368 -35.845)"><tspan x="130.984" y="153.514">y</tspan></text><path d="M56.574 248.598v-16.943h-9.517" style="fill:none;stroke:#ccc;stroke-width:.264583;stroke-linecap:butt;stroke-linejoin:miter;stroke-dasharray:2,1;stroke-dashoffset:0;stroke-opacity:1" transform="translate(-23.099 -209.911)"/><text xml:space="preserve" style="font-size:14.6667px;line-height:1.25;font-family:sans-serif;white-space:pre;shape-inside:url(#e);display:inline" transform="matrix(.26458 0 0 .26458 -29.078 -20.413)"><tspan x="232.477" y="174.342">p1</tspan></text><text xml:space="preserve" style="font-size:8px;line-height:1.25;font-family:sans-serif;white-space:pre;shape-inside:url(#f);display:inline" transform="matrix(.26458 0 0 .26458 -22.112 -36.602)"><tspan x="200.715" y="295.268">p1.cx</tspan></text><text xml:space="preserve" style="font-size:8px;line-height:1.25;font-family:sans-serif;white-space:pre;shape-inside:url(#g);display:inline" transform="matrix(.26458 0 0 .26458 -36.445 -55.527)"><tspan x="200.715" y="295.268">p1.cy</tspan></text><path d="M46.298 231.655h1.518M56.574 249.522v-1.849" style="fill:none;stroke:#000;stroke-width:.264583px;stroke-linecap:butt;stroke-linejoin:miter;stroke-opacity:1" transform="translate(-23.099 -209.911)"/><text xml:space="preserve" style="font-size:14.6667px;line-height:1.25;font-family:sans-serif;white-space:pre;shape-inside:url(#h);display:inline" transform="matrix(.26458 0 0 .26458 -15.874 -41.738)"><tspan x="63.43" y="346.041">Point-4</tspan></text><text xml:space="preserve" style="font-size:14.6667px;line-height:1.25;font-family:sans-serif;white-space:pre;shape-inside:url(#i);display:inline" transform="matrix(.26458 0 0 .26458 -13.544 -38.922)"><tspan x="232.477" y="174.342">p2</tspan></text><path d="M70.136 248.161v-30.296h-23.08" style="fill:none;stroke:#ccc;stroke-width:.264583;stroke-linecap:butt;stroke-linejoin:miter;stroke-dasharray:2,1;stroke-dashoffset:0;stroke-opacity:1" transform="translate(-23.099 -209.911)"/><text xml:space="preserve" style="font-size:8px;line-height:1.25;font-family:sans-serif;white-space:pre;shape-inside:url(#j);display:inline" transform="matrix(.26458 0 0 .26458 -8.55 -36.51)"><tspan x="200.715" y="295.268">p2.cx</tspan></text><path d="M70.136 249.615v-1.85" style="fill:none;stroke:#000;stroke-width:.264583px;stroke-linecap:butt;stroke-linejoin:miter;stroke-opacity:1" transform="translate(-23.099 -209.911)"/><text xml:space="preserve" style="font-size:8px;line-height:1.25;font-family:sans-serif;white-space:pre;shape-inside:url(#k);display:inline" transform="matrix(.26458 0 0 .26458 -36.445 -69.318)"><tspan x="200.715" y="295.268">p2.cy</tspan></text><path d="M46.298 217.865h1.518" style="fill:none;stroke:#000;stroke-width:.264583px;stroke-linecap:butt;stroke-linejoin:miter;stroke-opacity:1" transform="translate(-23.099 -209.911)"/><path d="M56.574 231.655h8.102" style="fill:none;stroke:#00f;stroke-width:.264583px;stroke-linecap:butt;stroke-linejoin:miter;stroke-opacity:1" transform="translate(-23.099 -209.911)"/><path d="m70.136 217.865-13.562 13.79" style="fill:none;stroke:green;stroke-width:.264583px;stroke-linecap:butt;stroke-linejoin:miter;stroke-opacity:1" transform="translate(-23.099 -209.911)"/><path d="m55.986 232.4 1.176-1.49M55.83 231.068l1.49 1.175M69.649 218.554l1.176-1.49M69.492 217.22l1.49 1.177" style="fill:none;stroke:#000;stroke-width:.264583px;stroke-linecap:butt;stroke-linejoin:miter;stroke-opacity:1" transform="translate(-23.099 -209.911)"/><text xml:space="preserve" style="font-size:10.6667px;line-height:1.25;font-family:sans-serif;white-space:pre;shape-inside:url(#l);display:inline;fill:green" transform="matrix(.26458 0 0 .26458 -2.906 -229.33)"><tspan x="39.1" y="923.723">distancePoints(p1, p2)</tspan></text><text xml:space="preserve" style="font-size:10.6667px;line-height:1.25;font-family:sans-serif;white-space:pre;shape-inside:url(#m);display:inline;fill:#2a7fff" transform="matrix(.26458 0 0 .26458 31.098 -221.6)"><tspan x="25.584" y="916.752">anglePoints(p1, p2)</tspan></text><path d="M59.994 231.743s.435-1.019.336-1.533c-.106-.551-.935-1.343-.935-1.343" style="fill:none;stroke:#3771c8;stroke-width:.264583px;stroke-linecap:butt;stroke-linejoin:miter;stroke-opacity:1" transform="translate(-23.099 -209.911)"/></svg>