<svg xmlns="http://www.w3.org/2000/svg" width="353.583" height="285.426" viewBox="0 0 93.552 75.519"><defs><path id="l" d="M278.248 2057.486h210.677v37.437H278.248z"/><path id="k" d="M87.177 2104.67h421.077v67.578H87.177z"/><path id="j" d="M294.214 1988.337h27.77v25.008h-27.77z"/><path id="i" d="M200.078 1856.646h36.039v25.502h-36.039z"/><path id="h" d="M139.901 1851.118h25.977v28.907h-25.977z"/><path id="g" d="M157.445 2017.369h36.711v37.622h-36.711z"/><path id="f" d="M123.138 1972.447h21.834v16.792h-21.834z"/><path id="e" d="M267.981 1898.329h26.11v23.072h-26.11z"/><path id="d" d="M161.646 2034.471h38.156v24.21h-38.156z"/><path id="c" d="M218.586 2027.257h53.005v22.188h-53.005z"/><path id="a" d="M267.981 1898.329h26.11v23.072h-26.11z"/><path id="m" d="M354.521 2345.085h59.18v35.824h-59.18z"/><marker id="b" markerHeight="5" markerWidth="8.75" orient="auto-start-reverse" preserveAspectRatio="xMidYMid" refX="0" refY="0" style="overflow:visible" viewBox="0 0 8.75 5"><path d="m0 0 5-5-17.5 5L5 5Z" style="fill:context-stroke;fill-rule:evenodd;stroke:none" transform="scale(-.5)"/></marker></defs><g transform="translate(-20.637 -487.373)"><path d="M20.77 487.505h93.287v75.254H20.77z" style="fill:#fff;stroke:#fff;stroke-width:.264583"/><text xml:space="preserve" style="font-size:14.6667px;line-height:1.25;font-family:sans-serif;white-space:pre;shape-inside:url(#a);display:inline;fill:#00aad4" transform="matrix(.26458 0 0 .26458 -13.387 13.839)"><tspan x="267.98" y="1911.305">ap</tspan></text><path d="M139.837 492.677h10.234v5.226h-10.234z" style="fill:none;stroke:#b3b3b3;stroke-width:.264583" transform="rotate(8.748) skewX(.015)"/><circle cx="47.3" cy="530.298" r="24.648" style="fill:none;stroke:gray;stroke-width:.264583"/><circle cx="98.663" cy="501.396" r="12.253" style="fill:none;stroke:gray;stroke-width:.264583"/><path d="m47.302 530.3 51.361-28.904" style="fill:none;stroke:#00f;stroke-width:.264583px;stroke-linecap:butt;stroke-linejoin:miter;stroke-opacity:1"/><path d="M47.3 530.298h24.769" style="fill:none;stroke:teal;stroke-width:.264583px;stroke-linecap:butt;stroke-linejoin:miter;stroke-opacity:1"/><path d="m86.799 519.985-10.144-18.13" style="fill:none;stroke:#00aad4;stroke-width:.264583px;stroke-linecap:butt;stroke-linejoin:miter;stroke-opacity:1"/><path d="m51.277 505.986 45.617 7.46M47.3 530.298l3.998-24.444M96.717 513.362l1.928-12.042" style="fill:none;stroke:green;stroke-width:.264583px;stroke-linecap:butt;stroke-linejoin:miter;stroke-opacity:1"/><path d="M55.03 530.448s.46-.998.406-1.519c-.05-.469-.641-1.26-.641-1.26" style="fill:none;stroke:#000;stroke-width:.264583px;stroke-linecap:butt;stroke-linejoin:miter;stroke-opacity:1;marker-end:url(#b)"/><text xml:space="preserve" style="font-size:14.6667px;line-height:1.25;font-family:sans-serif;white-space:pre;shape-inside:url(#c)" transform="matrix(.26458 0 0 .26458 -1.456 -10.264)"><tspan x="218.586" y="2040.234">acc</tspan></text><text xml:space="preserve" style="font-size:14.6667px;line-height:1.25;font-family:sans-serif;white-space:pre;shape-inside:url(#d);fill:green" transform="matrix(.26458 0 0 .26458 -.04 -26.572)"><tspan x="161.646" y="2047.447">br1</tspan></text><path d="M79.06 506.206s-1.326.159-1.821.556c-.567.455-1.071 1.9-1.071 1.9" style="fill:none;stroke:#08a;stroke-width:.264583px;stroke-linecap:butt;stroke-linejoin:miter;stroke-opacity:1;marker-end:url(#b)"/><text xml:space="preserve" style="font-size:14.6667px;line-height:1.25;font-family:sans-serif;white-space:pre;shape-inside:url(#e);fill:#00aad4" transform="matrix(.26458 0 0 .26458 1.045 .88)"><tspan x="267.98" y="1911.305">ap</tspan></text><path d="m50.957 507.98 2.095.348.22-1.83M94.854 513.146l.183-1.814 1.989.26" style="fill:none;stroke:#000;stroke-width:.264583px;stroke-linecap:butt;stroke-linejoin:miter;stroke-opacity:1"/><path d="m47.3 530.298 16.24-22.185" style="fill:none;stroke:#f60;stroke-width:.264583px;stroke-linecap:butt;stroke-linejoin:miter;stroke-opacity:1"/><path d="M48.51 522.385s.791-.195 1.175-.11c.437.099 1.157.685 1.157.685" style="fill:none;stroke:#c0f;stroke-width:.264583px;stroke-linecap:butt;stroke-linejoin:miter;stroke-opacity:1;marker-end:url(#b)"/><text xml:space="preserve" style="font-size:14.6667px;line-height:1.25;font-family:sans-serif;white-space:pre;shape-inside:url(#f);fill:#aa00d4" transform="matrix(.26458 0 0 .26458 16.758 -4.31)"><tspan x="123.139" y="1985.424">aj</tspan></text><path d="m63.548 508.104 8.071 5.878" style="fill:none;stroke:#fca;stroke-width:.264583px;stroke-linecap:butt;stroke-linejoin:miter;stroke-opacity:1;marker-end:url(#b)"/><path d="m63.515 508.053 8.977 1.4" style="fill:none;stroke:#a40;stroke-width:.264583px;stroke-linecap:butt;stroke-linejoin:miter;stroke-opacity:1;marker-end:url(#b)"/><path d="m63.405 508.234-.532 3.564" style="fill:none;stroke:#a40;stroke-width:.264583px;stroke-linecap:butt;stroke-linejoin:miter;stroke-opacity:1;marker-end:url(#b)"/><text xml:space="preserve" style="font-size:14.6667px;line-height:1.25;font-family:sans-serif;white-space:pre;shape-inside:url(#g)" transform="matrix(.26458 0 0 .26458 2.565 -3.974)"><tspan x="157.445" y="2030.346">O</tspan></text><text xml:space="preserve" style="font-size:14.6667px;line-height:1.25;font-family:sans-serif;white-space:pre;shape-inside:url(#h)" transform="matrix(.26458 0 0 .26458 13.12 12.336)"><tspan x="139.9" y="1864.094">B</tspan></text><text xml:space="preserve" style="font-size:14.6667px;line-height:1.25;font-family:sans-serif;white-space:pre;shape-inside:url(#i)" transform="matrix(.26458 0 0 .26458 9.058 12.942)"><tspan x="200.078" y="1869.623">C</tspan></text><text xml:space="preserve" style="font-size:14.6667px;line-height:1.25;font-family:sans-serif;white-space:pre;shape-inside:url(#j)" transform="matrix(.26458 0 0 .26458 -5.463 2.334)"><tspan x="294.215" y="2001.314">A</tspan></text><text xml:space="preserve" style="font-size:14.6667px;line-height:1.25;font-family:sans-serif;white-space:pre;shape-inside:url(#k)" transform="matrix(.26458 0 0 .26458 5.11 .274)"><tspan x="87.176" y="2117.646">point C position and speed</tspan></text><text xml:space="preserve" style="font-size:14.6667px;line-height:1.25;font-family:sans-serif;white-space:pre;shape-inside:url(#l)" transform="matrix(.26458 0 0 .26458 -44.025 -55.876)"><tspan x="278.248" y="2070.463">positive pressure angular</tspan></text><path d="M59.084 523.495s-1.151-2.427-1.975-3.474c-.725-.922-1.536-1.847-2.565-2.41-.997-.547-3.307-.835-3.307-.835" style="fill:none;stroke:#08a;stroke-width:.264583px;stroke-linecap:butt;stroke-linejoin:miter;stroke-opacity:1;marker-end:url(#b)"/><text xml:space="preserve" style="font-size:14.6667px;line-height:1.25;font-family:sans-serif;white-space:pre;shape-inside:url(#m);display:inline;fill:green" transform="matrix(.26458 0 0 .26458 4.47 -115.284)"><tspan x="354.52" y="2358.061">br2</tspan></text><path d="m80.804 509.124 1.818-1.04 1.007 1.783" style="fill:none;stroke:#000;stroke-width:.264583px;stroke-linecap:butt;stroke-linejoin:miter;stroke-opacity:1"/></g></svg>