<svg xmlns="http://www.w3.org/2000/svg" width="600" height="2000" viewBox="0 0 158.75 529.167"><defs><path id="b" d="M156.89 282.495h115.207v27.094H156.89z"/><path id="a" d="M24.236 20.521h309.057v77.915H24.236z"/><path id="c" d="M156.89 282.495h115.207v27.094H156.89z"/></defs><text xml:space="preserve" style="font-size:14.6667px;line-height:1.25;font-family:sans-serif;white-space:pre;shape-inside:url(#a);display:inline" transform="scale(.26458)"><tspan x="24.236" y="33.498">rectangle.svg</tspan></text><path d="M23.78 35.508h52.917v52.917H23.78z" style="fill:#fff;stroke-width:0"/><path d="M26.897 53.082h31.019v21.065H26.897z" style="fill:none;stroke:gray;stroke-width:.264583" transform="rotate(-5.914)"/><path d="m65.247 67.786-30.854 3.196" style="fill:none;stroke:#ff7f2a;stroke-width:.79374999;stroke-linecap:butt;stroke-linejoin:miter;stroke-opacity:1"/><text xml:space="preserve" style="font-size:14.6667px;line-height:1.25;font-family:sans-serif;white-space:pre;shape-inside:url(#b);display:inline;fill:#f60" transform="scale(.26458)"><tspan x="156.891" y="295.471">width</tspan></text><path d="M91.96 39.609h52.917v52.917H91.96z" style="fill:#fff;stroke-width:0"/><path d="M94.292 64.187h31.019v21.065H94.292z" style="fill:none;stroke:gray;stroke-width:.264583" transform="rotate(-5.914)"/><path d="m100.403 54.13 2.17 20.953" style="fill:none;stroke:#ff7f2a;stroke-width:.79375;stroke-linecap:butt;stroke-linejoin:miter;stroke-opacity:1"/><text xml:space="preserve" style="font-size:14.6667px;line-height:1.25;font-family:sans-serif;white-space:pre;shape-inside:url(#c);display:inline;fill:#f60" transform="matrix(.26458 0 0 .26458 61.212 -28.54)"><tspan x="156.891" y="295.471">height</tspan></text></svg>