<svg xmlns="http://www.w3.org/2000/svg" width="541.756" height="507.772" viewBox="0 0 143.34 134.348"><defs><path id="s" d="M27.365 4457.043h264.411v31.363H27.365z"/><path id="r" d="M208.229 4438.417h182.489v32.053H208.229z"/><path id="m" d="M435.441 4246.787h162.734v40.948H435.441z"/><path id="l" d="M459.918 4360.911h117.217v35.977H459.918z"/><path id="i" d="M304.011 4389.118h167.698v48.331H304.011z"/><path id="h" d="M317.516 4321.044h166.248v54.248H317.516z"/><path id="g" d="M114.022 4340.999h215.226v97.391H114.022z"/><path id="f" d="M39.685 4296.273h197.194v89.062H39.685z"/><path id="e" d="M226.945 4302.571h194.754v97.154H226.945z"/><path id="d" d="M246.505 4192.186h233.709v73.364H246.505z"/><path id="c" d="M66.929 4117.014h262.413v67.546H66.929z"/><path id="b" d="M233.019 4015.57h150.755v46.117H233.019z"/><path id="n" d="M435.441 4246.787h162.734v40.948H435.441z"/><marker id="a" markerHeight="5.078" markerWidth="8.887" orient="auto" preserveAspectRatio="xMidYMid" refX="0" refY="0" style="overflow:visible" viewBox="0 0 8.887 5.078"><path d="m0 0 5-5-17.5 5L5 5Z" style="fill:context-stroke;fill-rule:evenodd;stroke:context-stroke;stroke-width:1pt" transform="matrix(-.4 0 0 -.4 -4 0)"/></marker><marker id="j" markerHeight="5.078" markerWidth="8.887" orient="auto" preserveAspectRatio="xMidYMid" refX="0" refY="0" style="overflow:visible" viewBox="0 0 8.887 5.078"><path d="m0 0 5-5-17.5 5L5 5Z" style="fill:context-stroke;fill-rule:evenodd;stroke:context-stroke;stroke-width:1pt" transform="matrix(-.4 0 0 -.4 -4 0)"/></marker><marker id="k" markerHeight="5.078" markerWidth="8.887" orient="auto" preserveAspectRatio="xMidYMid" refX="0" refY="0" style="overflow:visible" viewBox="0 0 8.887 5.078"><path d="m0 0 5-5-17.5 5L5 5Z" style="fill:context-stroke;fill-rule:evenodd;stroke:context-stroke;stroke-width:1pt" transform="matrix(-.4 0 0 -.4 -4 0)"/></marker><marker id="o" markerHeight="5.078" markerWidth="8.887" orient="auto" preserveAspectRatio="xMidYMid" refX="0" refY="0" style="overflow:visible" viewBox="0 0 8.887 5.078"><path d="m0 0 5-5-17.5 5L5 5Z" style="fill:context-stroke;fill-rule:evenodd;stroke:context-stroke;stroke-width:1pt" transform="matrix(-.4 0 0 -.4 -4 0)"/></marker><marker id="p" markerHeight="5.078" markerWidth="8.887" orient="auto" preserveAspectRatio="xMidYMid" refX="0" refY="0" style="overflow:visible" viewBox="0 0 8.887 5.078"><path d="m0 0 5-5-17.5 5L5 5Z" style="fill:context-stroke;fill-rule:evenodd;stroke:context-stroke;stroke-width:1pt" transform="matrix(-.4 0 0 -.4 -4 0)"/></marker><marker id="q" markerHeight="5.078" markerWidth="8.887" orient="auto" preserveAspectRatio="xMidYMid" refX="0" refY="0" style="overflow:visible" viewBox="0 0 8.887 5.078"><path d="m0 0 5-5-17.5 5L5 5Z" style="fill:context-stroke;fill-rule:evenodd;stroke:context-stroke;stroke-width:1pt" transform="matrix(-.4 0 0 -.4 -4 0)"/></marker></defs><g transform="translate(-8.218 -1029.734)"><rect width="143.075" height="134.084" x="8.351" y="1029.866" ry="0" style="fill:#fff;stroke:#fff;stroke-width:.264584"/><path d="m59.294 1077.419 7.244-6.901" style="fill:none;stroke:#a40;stroke-width:.529167;stroke-linecap:butt;stroke-linejoin:miter;stroke-opacity:1;marker-end:url(#a)"/><path d="m80.419 1094.903 7.828-22.885" style="fill:none;stroke:#a40;stroke-width:.529167;stroke-linecap:butt;stroke-linejoin:miter;stroke-opacity:1;marker-end:url(#a)"/><path d="m60.249 1096.789-3.347-8.193" style="fill:none;stroke:#a40;stroke-width:.529167;stroke-linecap:butt;stroke-linejoin:miter;stroke-opacity:1;marker-end:url(#a)"/><rect width="40.316" height="12.537" x="57.949" y="1094.561" ry="3.932" style="fill:#fca;stroke:#ccc;stroke-width:.264584"/><rect width="43.381" height="12.537" x="17.187" y="1075.646" ry="3.932" style="fill:#ffe6d5;stroke:#ccc;stroke-width:.264584"/><rect width="40.316" height="12.537" x="65.753" y="1059.015" ry="3.932" style="fill:#fca;stroke:#ccc;stroke-width:.264584"/><path d="m35.83 1144.418 14.802-.173s.288-2.321-.445-3.034c-1.324-1.29-5.508-.659-5.508-.659l-1.336-3.08s2.737.14 3.8-.608c.987-.693 1.593-1.983 1.827-3.201.43-2.232.425-4.967-.917-6.76-1.468-1.964-4.266-2.482-6.63-2.808-1.856-.256-3.974-.257-5.573.717-1.205.735-1.912 2.162-2.406 3.483-.544 1.454-.847 3.111-.517 4.628.298 1.372 1.079 2.721 2.163 3.613.842.694 3.08 1.11 3.08 1.11l-1.29 3.055s-3.834-.059-5.02 1.243c-.667.733-.53 2.985-.53 2.985z" style="fill:#ccc;stroke:#ccc;stroke-width:.264583px;stroke-linecap:butt;stroke-linejoin:miter;stroke-opacity:1"/><text xml:space="preserve" style="font-size:14.6667px;line-height:1.25;font-family:sans-serif;white-space:pre;shape-inside:url(#b);display:inline" transform="matrix(.26458 0 0 .26458 7.683 -1.8)"><tspan x="233.018" y="4028.547"><tspan style="font-weight:700;-inkscape-font-specification:&quot;sans-serif Bold&quot;">Geometrix</tspan>
</tspan><tspan x="233.018" y="4046.88">geometry engine</tspan></text><text xml:space="preserve" style="font-size:14.6667px;line-height:1.25;font-family:sans-serif;white-space:pre;shape-inside:url(#c);display:inline" transform="matrix(.26458 0 0 .26458 2.989 -11.877)"><tspan x="66.93" y="4129.99"><tspan style="font-weight:700;-inkscape-font-specification:&quot;sans-serif Bold&quot;">Designix</tspan>
</tspan><tspan x="66.93" y="4148.324">serie of 2D designs</tspan></text><text xml:space="preserve" style="font-size:14.6667px;line-height:1.25;font-family:sans-serif;white-space:pre;shape-inside:url(#d);display:inline" transform="matrix(.26458 0 0 .26458 -1.69 -12.922)"><tspan x="246.506" y="4205.162"><tspan style="font-weight:700;-inkscape-font-specification:&quot;sans-serif Bold&quot;">Parametrix</tspan>
</tspan><tspan x="246.506" y="4223.496">UI for Designix</tspan></text><text xml:space="preserve" style="font-size:14.6667px;line-height:1.25;font-family:sans-serif;white-space:pre;shape-inside:url(#e);display:inline" transform="matrix(.26458 0 0 .26458 44.98 -104.803)"><tspan x="226.945" y="4315.547"><tspan style="-inkscape-font-specification:sans-serif">Parametrix developer</tspan>
</tspan><tspan x="226.945" y="4333.88"><tspan style="font-size:12px;-inkscape-font-specification:sans-serif">competences:
</tspan></tspan><tspan x="226.945" y="4352.214"><tspan style="font-size:12px;-inkscape-font-specification:sans-serif">- math
</tspan></tspan><tspan x="226.945" y="4370.547"><tspan style="font-size:12px;-inkscape-font-specification:sans-serif">- programing</tspan></tspan></text><text xml:space="preserve" style="font-size:14.6667px;line-height:1.25;font-family:sans-serif;white-space:pre;shape-inside:url(#f);display:inline" transform="matrix(.26458 0 0 .26458 4.715 -102.47)"><tspan x="39.686" y="4309.25">Designix developer
</tspan><tspan x="39.686" y="4327.583"><tspan style="font-size:12px">competences:
</tspan></tspan><tspan x="39.686" y="4345.917"><tspan style="font-size:12px">- mechanics
</tspan></tspan><tspan x="39.686" y="4364.251"><tspan style="font-size:12px">- programing</tspan></tspan></text><text xml:space="preserve" style="font-size:14.6667px;line-height:1.25;font-family:sans-serif;white-space:pre;shape-inside:url(#g);display:inline" transform="matrix(.26458 0 0 .26458 -17.673 -31.61)"><tspan x="114.021" y="4353.977">Parametrix user
</tspan><tspan x="114.021" y="4372.31"><tspan style="font-size:12px">competences:
</tspan></tspan><tspan x="114.021" y="4390.644"><tspan style="font-size:12px">- mechanics
</tspan></tspan><tspan x="114.021" y="4408.977"><tspan style="font-size:12px">- CAM</tspan>
</tspan></text><text xml:space="preserve" style="font-size:14.6667px;line-height:1.25;font-family:sans-serif;white-space:pre;shape-inside:url(#h);display:inline" transform="matrix(.26458 0 0 .26458 4.451 -21.984)"><tspan x="317.516" y="4334.02">FreeCAD</tspan></text><text xml:space="preserve" style="font-size:14.6667px;line-height:1.25;font-family:sans-serif;white-space:pre;shape-inside:url(#i);display:inline" transform="matrix(.26458 0 0 .26458 4.451 -21.984)"><tspan x="304.01" y="4402.094">CAM tools</tspan></text><path d="m49.945 1060.388-14.802-.173s-.202-2.265.444-3.035c1.036-1.232 4.523-1.369 4.523-1.369l2.322-2.37s-2.737.14-3.8-.607c-.987-.693-1.593-1.983-1.828-3.201-.43-2.232-.424-4.967.918-6.761 1.468-1.963 4.266-2.481 6.63-2.807 1.856-.256 3.973-.257 5.573.717 1.205.734 1.912 2.161 2.406 3.483.544 1.454.847 3.111.517 4.628-.298 1.372-1.079 2.721-2.163 3.613-.842.694-3.08 1.11-3.08 1.11l1.29 3.055s3.833-.059 5.019 1.243c.668.733.53 2.985.53 2.985zM140.297 1060.337l-14.803-.172s-.241-2.277.445-3.035c1.28-1.416 5.554-1.393 5.554-1.393l1.29-2.346s-2.737.14-3.8-.607c-.987-.694-1.593-1.984-1.827-3.202-.43-2.231-.425-4.967.917-6.76 1.468-1.963 4.245-2.547 6.63-2.807 1.84-.2 3.873.058 5.458 1.013 1.16.7 2.006 1.934 2.521 3.187.59 1.435.847 3.111.518 4.628-.299 1.371-1.08 2.72-2.163 3.613-.843.693-3.08 1.11-3.08 1.11l.523 2.744s4.436.082 5.785 1.553c.683.745.53 2.986.53 2.986z" style="fill:#ccc;stroke:#ccc;stroke-width:.264583px;stroke-linecap:butt;stroke-linejoin:miter;stroke-opacity:1"/><rect width="25.268" height="7.724" x="85.465" y="1119.405" ry="2.423" style="fill:none;stroke:#ccc;stroke-width:.264584"/><rect width="25.268" height="7.724" x="82.119" y="1137.57" ry="2.423" style="fill:none;stroke:#ccc;stroke-width:.264584"/><path d="m131.552 1058.899-23.311 5.486" style="fill:none;stroke:#000;stroke-width:.264583px;stroke-linecap:butt;stroke-linejoin:miter;stroke-opacity:1;marker-end:url(#a)"/><path d="m131.508 1058.83-33.74 36.585" style="fill:none;stroke:#000;stroke-width:.264583px;stroke-linecap:butt;stroke-linejoin:miter;stroke-opacity:1;marker-end:url(#j)"/><path d="m43.612 1057.753-3.809 17.31" style="fill:none;stroke:#000;stroke-width:.264583px;stroke-linecap:butt;stroke-linejoin:miter;stroke-opacity:1;marker-end:url(#k)"/><text xml:space="preserve" style="font-style:normal;font-variant:normal;font-weight:400;font-stretch:normal;font-size:14.6667px;line-height:1.25;font-family:sans-serif;-inkscape-font-specification:sans-serif;white-space:pre;shape-inside:url(#l);display:inline" transform="matrix(.26458 0 0 .26458 -63.314 -30.374)"><tspan x="459.918" y="4373.887">uses</tspan></text><text xml:space="preserve" style="font-size:14.6667px;line-height:1.25;font-family:sans-serif;white-space:pre;shape-inside:url(#m);display:inline" transform="matrix(.26458 0 0 .26458 9.825 -57.646)"><tspan x="435.441" y="4259.764">develops</tspan></text><text xml:space="preserve" style="font-size:14.6667px;line-height:1.25;font-family:sans-serif;white-space:pre;shape-inside:url(#n);display:inline" transform="matrix(.26458 0 0 .26458 -91.815 -60.8)"><tspan x="435.441" y="4259.764">develops</tspan></text><path d="m51.963 1130.212 22.746-22.56" style="fill:none;stroke:#000;stroke-width:.264583px;stroke-linecap:butt;stroke-linejoin:miter;stroke-opacity:1;marker-end:url(#o)"/><path d="m51.536 1131.066 32.879-7.75" style="fill:none;stroke:#000;stroke-width:.264583px;stroke-linecap:butt;stroke-linejoin:miter;stroke-opacity:1;marker-end:url(#p)"/><path d="m52.33 1131.987 28.514 8.874" style="fill:none;stroke:#000;stroke-width:.264583px;stroke-linecap:butt;stroke-linejoin:miter;stroke-opacity:1;marker-end:url(#q)"/><text xml:space="preserve" style="font-size:12px;line-height:1.25;font-family:sans-serif;white-space:pre;shape-inside:url(#r);display:inline" transform="matrix(.26458 0 0 .26458 7.876 -99.497)"><tspan x="208.229" y="4449.035">dependencies</tspan></text><text xml:space="preserve" style="font-size:14.6667px;line-height:1.25;font-family:sans-serif;white-space:pre;shape-inside:url(#s);display:inline" transform="matrix(.26458 0 0 .26458 3.136 -21.682)"><tspan x="27.365" y="4470.02">users around Parametrix</tspan></text></g></svg>