<svg xmlns="http://www.w3.org/2000/svg" width="600" height="20000" viewBox="0 0 158.75 5291.667"><defs><path id="e" d="M158.039 369.376h77.974v34.579h-77.974z"/><path id="d" d="M187.501 422.946h102.231v39.279H187.501z"/><path id="c" d="M231.628 407.788h46.479v27.783h-46.479z"/><path id="b" d="M133.839 405.956h76.082v45.648h-76.082z"/><path id="a" d="M19.93 20.462h326.701v69.099H19.93z"/></defs><text xml:space="preserve" style="font-size:14.6667px;line-height:1.25;font-family:sans-serif;white-space:pre;shape-inside:url(#a);display:inline" transform="scale(.26458)"><tspan x="19.93" y="33.439">verify_contour_1.svg</tspan></text><path d="M23.609 31.114h52.917v52.917H23.609z" style="fill:#fff;stroke:none;stroke-width:.264583"/><path d="M32.557 41.105h18.69v37.612h-18.69z" style="fill:none;fill-opacity:.901961;stroke:#f0f;stroke-width:.264583;stroke-opacity:.901961"/><circle cx="41.902" cy="70.913" r="3.263" style="fill:none;fill-opacity:.901961;stroke:#f0f;stroke-width:.264583;stroke-opacity:.901961"/><path d="M41.902 74.175v4.543" style="fill:none;stroke:#000;stroke-width:.264583px;stroke-linecap:butt;stroke-linejoin:miter;stroke-opacity:1"/><circle cx="41.902" cy="59.845" r="3.263" style="fill:none;fill-opacity:.901961;stroke:#f0f;stroke-width:.264583;stroke-opacity:.901961"/><path d="M41.902 63.108v4.542" style="fill:none;stroke:#000;stroke-width:.264583px;stroke-linecap:butt;stroke-linejoin:miter;stroke-opacity:1"/><circle cx="41.902" cy="48.778" r="3.263" style="fill:none;fill-opacity:.901961;stroke:#f0f;stroke-width:.264583;stroke-opacity:.901961"/><path d="M41.902 52.04v4.543M41.902 40.973v4.542" style="fill:none;stroke:#000;stroke-width:.264583px;stroke-linecap:butt;stroke-linejoin:miter;stroke-opacity:1"/><circle cx="57.581" cy="55.311" r="6.069" style="fill:none;fill-opacity:.901961;stroke:#f0f;stroke-width:.264583;stroke-opacity:.901961"/><path d="M41.902 70.913h3.262" style="fill:none;stroke:#000;stroke-width:.264583px;stroke-linecap:butt;stroke-linejoin:miter;stroke-opacity:1"/><text xml:space="preserve" style="font-size:14.6667px;line-height:1.25;font-family:sans-serif;white-space:pre;shape-inside:url(#b);display:inline" transform="matrix(.26458 0 0 .26458 1.132 -33.156)"><tspan x="133.84" y="418.932">d1</tspan></text><text xml:space="preserve" style="font-size:14.6667px;line-height:1.25;font-family:sans-serif;white-space:pre;shape-inside:url(#c);display:inline" transform="matrix(.26458 0 0 .26458 -15.382 -39.526)"><tspan x="231.629" y="420.766">r1</tspan></text><path d="M32.557 39.518h18.69M57.58 55.311h6.07" style="fill:none;stroke:#000;stroke-width:.264583px;stroke-linecap:butt;stroke-linejoin:miter;stroke-opacity:1"/><text xml:space="preserve" style="font-size:14.6667px;line-height:1.25;font-family:sans-serif;white-space:pre;shape-inside:url(#d);display:inline" transform="matrix(.26458 0 0 .26458 15.724 -58.719)"><tspan x="187.502" y="435.922">r2</tspan></text><text xml:space="preserve" style="font-size:14.6667px;line-height:1.25;font-family:sans-serif;white-space:pre;shape-inside:url(#e);display:inline" transform="matrix(.26458 0 0 .26458 -1.902 -62.8)"><tspan x="158.039" y="382.354">w1</tspan></text></svg>