<svg xmlns="http://www.w3.org/2000/svg" width="600" height="2000" viewBox="0 0 158.75 529.167"><defs><path id="J" d="M165.839 886.693h58.307v27.667h-58.307z"/><path id="I" d="M157.592 882.45h81.515v28.505h-81.515z"/><path id="x" d="M349.971 550.682h49.475v21.611h-49.475z"/><path id="l" d="M369.747 249.105h45.15v35.609h-45.15z"/><path id="k" d="M349.559 367h55.785v28.797h-55.785z"/><path id="j" d="M367.875 311.38h30.293v20.167h-30.293z"/><path id="i" d="M349.4 374.28h50.588v42.513H349.4z"/><path id="h" d="M292.848 411.623h56.436v34.832h-56.436z"/><path id="g" d="M249.583 441.078h31.984v20.338h-31.984z"/><path id="f" d="M399.974 129.034h56.102v26.076h-56.102z"/><path id="e" d="M373.346 209.379h65.277v27.878h-65.277z"/><path id="d" d="M372.014 274.981h57.012v32.118h-57.012z"/><path id="a" d="M53.993 33.685h506.152V186.56H53.993z"/><path id="o" d="M372.014 274.981h57.012v32.118h-57.012z"/><path id="p" d="M373.346 209.379h65.277v27.878h-65.277z"/><path id="q" d="M399.974 129.034h56.102v26.076h-56.102z"/><path id="r" d="M249.583 441.078h31.984v20.338h-31.984z"/><path id="s" d="M292.848 411.623h56.436v34.832h-56.436z"/><path id="t" d="M349.4 374.28h50.588v42.513H349.4z"/><path id="u" d="M367.875 311.38h30.293v20.167h-30.293z"/><path id="v" d="M349.559 367h55.785v28.797h-55.785z"/><path id="w" d="M369.747 249.105h45.15v35.609h-45.15z"/><path id="y" d="M349.971 550.682h49.475v21.611h-49.475z"/><path id="B" d="M372.014 274.981h57.012v32.118h-57.012z"/><path id="C" d="M373.346 209.379h65.277v27.878h-65.277z"/><path id="D" d="M399.974 129.034h56.102v26.076h-56.102z"/><path id="E" d="M249.583 441.078h31.984v20.338h-31.984z"/><path id="F" d="M292.848 411.623h56.436v34.832h-56.436z"/><path id="G" d="M349.4 374.28h50.588v42.513H349.4z"/><path id="L" d="M165.839 886.693h58.307v27.667h-58.307z"/><path id="M" d="M157.592 882.45h81.515v28.505h-81.515z"/><marker id="H" markerHeight="6.155" markerWidth="5.324" orient="auto-start-reverse" preserveAspectRatio="xMidYMid" refX="0" refY="0" style="overflow:visible" viewBox="0 0 5.324 6.155"><path d="m5.77 0-8.65 5V-5Z" style="fill:context-stroke;fill-rule:evenodd;stroke:context-stroke;stroke-width:1pt" transform="scale(.5)"/></marker><marker id="b" markerHeight="5" markerWidth="8.75" orient="auto-start-reverse" preserveAspectRatio="xMidYMid" refX="0" refY="0" style="overflow:visible" viewBox="0 0 8.75 5"><path d="m0 0 5-5-17.5 5L5 5Z" style="fill:context-stroke;fill-rule:evenodd;stroke:none" transform="scale(-.5)"/></marker><marker id="c" markerHeight="5" markerWidth="8.75" orient="auto-start-reverse" preserveAspectRatio="xMidYMid" refX="0" refY="0" style="overflow:visible" viewBox="0 0 8.75 5"><path d="m0 0 5-5-17.5 5L5 5Z" style="fill:context-stroke;fill-rule:evenodd;stroke:none" transform="scale(-.5)"/></marker><marker id="m" markerHeight="5" markerWidth="8.75" orient="auto-start-reverse" preserveAspectRatio="xMidYMid" refX="0" refY="0" style="overflow:visible" viewBox="0 0 8.75 5"><path d="m0 0 5-5-17.5 5L5 5Z" style="fill:context-stroke;fill-rule:evenodd;stroke:none" transform="scale(-.5)"/></marker><marker id="n" markerHeight="5" markerWidth="8.75" orient="auto-start-reverse" preserveAspectRatio="xMidYMid" refX="0" refY="0" style="overflow:visible" viewBox="0 0 8.75 5"><path d="m0 0 5-5-17.5 5L5 5Z" style="fill:context-stroke;fill-rule:evenodd;stroke:none" transform="scale(-.5)"/></marker><marker id="z" markerHeight="5" markerWidth="8.75" orient="auto-start-reverse" preserveAspectRatio="xMidYMid" refX="0" refY="0" style="overflow:visible" viewBox="0 0 8.75 5"><path d="m0 0 5-5-17.5 5L5 5Z" style="fill:context-stroke;fill-rule:evenodd;stroke:none" transform="scale(-.5)"/></marker><marker id="A" markerHeight="5" markerWidth="8.75" orient="auto-start-reverse" preserveAspectRatio="xMidYMid" refX="0" refY="0" style="overflow:visible" viewBox="0 0 8.75 5"><path d="m0 0 5-5-17.5 5L5 5Z" style="fill:context-stroke;fill-rule:evenodd;stroke:none" transform="scale(-.5)"/></marker><marker id="K" markerHeight="6.155" markerWidth="5.324" orient="auto-start-reverse" preserveAspectRatio="xMidYMid" refX="0" refY="0" style="overflow:visible" viewBox="0 0 5.324 6.155"><path d="m5.77 0-8.65 5V-5Z" style="fill:context-stroke;fill-rule:evenodd;stroke:context-stroke;stroke-width:1pt" transform="scale(.5)"/></marker></defs><path d="M38.703 203.202H91.62v52.917H38.703zM36.799 121.384h52.917v52.917H36.799z" style="fill:#fff;stroke:#fff;stroke-width:.264583"/><path d="m67.123 51.098 9.856 45.78" style="fill:#fff;stroke:#f0c;stroke-width:.264583px;stroke-linecap:butt;stroke-linejoin:miter;stroke-opacity:1"/><text xml:space="preserve" style="font-size:14.6667px;line-height:1.25;font-family:sans-serif;white-space:pre;shape-inside:url(#a);display:inline" transform="scale(.26458)"><tspan x="53.992" y="46.662">verify_line.svg</tspan></text><path d="M31.287 46.276h52.917v52.917H31.287z" style="fill:#fff;stroke:none;stroke-width:.264583"/><path d="M35.136 72.094H77.02" style="fill:#fff;stroke:#000;stroke-width:.264583px;stroke-linecap:butt;stroke-linejoin:miter;stroke-opacity:1;marker-end:url(#b)"/><path d="M56.905 93.863V51.979" style="fill:#fff;stroke:#000;stroke-width:.264583px;stroke-linecap:butt;stroke-linejoin:miter;stroke-opacity:1;marker-end:url(#c)"/><circle cx="69.628" cy="63.946" r="1.04" style="fill:#fff;stroke:#f60;stroke-width:.264583"/><path d="M69.628 72.094v-8.148H56.905" style="fill:#fff;stroke:#999;stroke-width:.264583px;stroke-linecap:butt;stroke-linejoin:miter;stroke-opacity:1;stroke-dasharray:1,1;stroke-dashoffset:0"/><text xml:space="preserve" style="font-size:12px;line-height:1.25;font-family:sans-serif;white-space:pre;shape-inside:url(#d);display:inline;fill:#2ca02c" transform="matrix(.26458 0 0 .26458 -32.933 .254)"><tspan x="372.014" y="285.598">p1x</tspan></text><text xml:space="preserve" style="font-size:12px;line-height:1.25;font-family:sans-serif;white-space:pre;shape-inside:url(#e);display:inline;fill:#2ca02c" transform="matrix(.26458 0 0 .26458 -48.297 6.483)"><tspan x="373.346" y="219.996">p1y</tspan></text><text xml:space="preserve" style="font-size:14.6667px;line-height:1.25;font-family:sans-serif;white-space:pre;shape-inside:url(#f);display:inline;fill:#2ca02c" transform="matrix(.26458 0 0 .26458 -34.405 23.944)"><tspan x="399.975" y="142.012">p1</tspan></text><path d="M57.037 89.83h18.304V72.032" style="fill:#fff;stroke:#999;stroke-width:.264583px;stroke-linecap:butt;stroke-linejoin:miter;stroke-dasharray:1,1;stroke-dashoffset:0;stroke-opacity:1"/><circle cx="75.365" cy="89.733" r="1.04" style="fill:#fff;stroke:#f60;stroke-width:.264583"/><text xml:space="preserve" style="font-size:14.6667px;line-height:1.25;font-family:sans-serif;white-space:pre;shape-inside:url(#g);display:inline;fill:#04a" transform="matrix(.26458 0 0 .26458 10.63 -28.708)"><tspan x="249.582" y="454.055">p2</tspan></text><text xml:space="preserve" style="font-size:12px;line-height:1.25;font-family:sans-serif;white-space:pre;shape-inside:url(#h);display:inline;fill:#04a" transform="matrix(.26458 0 0 .26458 -3.903 -41.108)"><tspan x="292.848" y="422.24">p2x</tspan></text><text xml:space="preserve" style="font-size:12px;line-height:1.25;font-family:sans-serif;white-space:pre;shape-inside:url(#i);display:inline;fill:#04a" transform="matrix(.26458 0 0 .26458 -42.202 -11.296)"><tspan x="349.4" y="384.896">p2y</tspan></text><path d="M56.864 84.182h-17.49V72.076" style="fill:#fff;stroke:#999;stroke-width:.264583px;stroke-linecap:butt;stroke-linejoin:miter;stroke-dasharray:.999998,.999998;stroke-dashoffset:0;stroke-opacity:1"/><circle cx="39.086" cy="84.031" r="1.04" style="fill:#fff;stroke:#f60;stroke-width:.264583"/><text xml:space="preserve" style="font-size:14.6667px;line-height:1.25;font-family:sans-serif;white-space:pre;shape-inside:url(#j);display:inline;fill:#80a" transform="matrix(.26458 0 0 .26458 -65.016 -1.428)"><tspan x="367.875" y="324.357">p3</tspan></text><text xml:space="preserve" style="font-size:12px;line-height:1.25;font-family:sans-serif;white-space:pre;shape-inside:url(#k);display:inline;fill:#80a" transform="matrix(.26458 0 0 .26458 -54.952 -29.03)"><tspan x="349.559" y="377.617">p3x</tspan></text><text xml:space="preserve" style="font-size:12px;line-height:1.25;font-family:sans-serif;white-space:pre;shape-inside:url(#l);display:inline;fill:#80a" transform="matrix(.26458 0 0 .26458 -40.25 15.757)"><tspan x="369.748" y="259.723">p3y</tspan></text><path d="m84.949 130.143-34.27 31.915" style="fill:#fff;stroke:green;stroke-width:.264583px;stroke-linecap:butt;stroke-linejoin:miter;stroke-opacity:1"/><path d="M40.648 147.203h41.884" style="fill:#fff;stroke:#000;stroke-width:.264583px;stroke-linecap:butt;stroke-linejoin:miter;stroke-opacity:1;marker-end:url(#m)"/><path d="M62.417 168.971v-41.884" style="fill:#fff;stroke:#000;stroke-width:.264583px;stroke-linecap:butt;stroke-linejoin:miter;stroke-opacity:1;marker-end:url(#n)"/><path d="M75.14 147.203v-8.148H62.417" style="fill:none;stroke:#999;stroke-width:.264583px;stroke-linecap:butt;stroke-linejoin:miter;stroke-dasharray:1,1;stroke-dashoffset:0;stroke-opacity:1"/><text xml:space="preserve" style="font-size:12px;line-height:1.25;font-family:sans-serif;white-space:pre;shape-inside:url(#o);display:inline;fill:#2ca02c" transform="matrix(.26458 0 0 .26458 -27.95 75.363)"><tspan x="372.014" y="285.598">l1cx</tspan></text><text xml:space="preserve" style="font-size:12px;line-height:1.25;font-family:sans-serif;white-space:pre;shape-inside:url(#p);display:inline;fill:#2ca02c" transform="matrix(.26458 0 0 .26458 -43.315 81.592)"><tspan x="373.346" y="219.996">l1cy</tspan></text><text xml:space="preserve" style="font-size:14.6667px;line-height:1.25;font-family:sans-serif;white-space:pre;shape-inside:url(#q);display:inline;fill:#2ca02c" transform="matrix(.26458 0 0 .26458 -29.186 96.598)"><tspan x="399.975" y="142.012">l1</tspan></text><path d="M62.55 164.938h18.303V147.14" style="fill:none;stroke:#999;stroke-width:.264583px;stroke-linecap:butt;stroke-linejoin:miter;stroke-dasharray:1,1;stroke-dashoffset:0;stroke-opacity:1"/><text xml:space="preserve" style="font-size:14.6667px;line-height:1.25;font-family:sans-serif;white-space:pre;shape-inside:url(#r);display:inline;fill:#04a" transform="matrix(.26458 0 0 .26458 14.022 51.023)"><tspan x="249.582" y="454.055">l2</tspan></text><text xml:space="preserve" style="font-size:12px;line-height:1.25;font-family:sans-serif;white-space:pre;shape-inside:url(#s);display:inline;fill:#04a" transform="matrix(.26458 0 0 .26458 1.609 34.001)"><tspan x="292.848" y="422.24">l2cx</tspan></text><text xml:space="preserve" style="font-size:12px;line-height:1.25;font-family:sans-serif;white-space:pre;shape-inside:url(#t);display:inline;fill:#04a" transform="matrix(.26458 0 0 .26458 -36.69 63.813)"><tspan x="349.4" y="384.896">l2cy</tspan></text><path d="M62.376 159.291h-17.49v-12.106" style="fill:none;stroke:#999;stroke-width:.264583px;stroke-linecap:butt;stroke-linejoin:miter;stroke-dasharray:.999998,.999998;stroke-dashoffset:0;stroke-opacity:1"/><circle cx="44.84" cy="159.14" r="1.04" style="fill:none;stroke:#f60;stroke-width:.264583"/><text xml:space="preserve" style="font-size:14.6667px;line-height:1.25;font-family:sans-serif;white-space:pre;shape-inside:url(#u);display:inline;fill:#80a" transform="matrix(.26458 0 0 .26458 -59.504 73.68)"><tspan x="367.875" y="324.357">p3</tspan></text><text xml:space="preserve" style="font-size:12px;line-height:1.25;font-family:sans-serif;white-space:pre;shape-inside:url(#v);display:inline;fill:#80a" transform="matrix(.26458 0 0 .26458 -49.44 46.078)"><tspan x="349.559" y="377.617">p3x</tspan></text><text xml:space="preserve" style="font-size:12px;line-height:1.25;font-family:sans-serif;white-space:pre;shape-inside:url(#w);display:inline;fill:#80a" transform="matrix(.26458 0 0 .26458 -34.738 90.866)"><tspan x="369.748" y="259.723">p3y</tspan></text><path d="M88.54 171.758 53.16 141.076" style="fill:#fff;stroke:#0055d4;stroke-width:.264583px;stroke-linecap:butt;stroke-linejoin:miter;stroke-opacity:1"/><path d="M80.837 164.811h7.042" style="fill:none;stroke:#93aca7;stroke-width:.264583px;stroke-linecap:butt;stroke-linejoin:miter;stroke-opacity:1"/><path d="M78.718 136.092s1.127.781 1.288 1.393c.158.597-.423 1.804-.423 1.804" style="fill:none;stroke:#008033;stroke-width:.264583px;stroke-linecap:butt;stroke-linejoin:miter;stroke-opacity:1"/><text xml:space="preserve" style="font-size:10.6667px;line-height:1.25;font-family:sans-serif;white-space:pre;shape-inside:url(#x);display:inline;fill:#217821" transform="matrix(.26458 0 0 .26458 -11.78 -9.576)"><tspan x="349.971" y="560.119">l1ca</tspan></text><path d="M84.051 164.714s.156-1.731-.261-2.432c-.469-.79-1.367-1.375-2.264-1.567-.994-.213-2.117.051-2.998.557-.36.207-.813.942-.813.942" style="fill:none;stroke:#0055d4;stroke-width:.264583px;stroke-linecap:butt;stroke-linejoin:miter;stroke-opacity:1"/><text xml:space="preserve" style="font-size:10.6667px;line-height:1.25;font-family:sans-serif;white-space:pre;shape-inside:url(#y);display:inline;fill:#0055d4" transform="matrix(.26458 0 0 .26458 -10.724 11.791)"><tspan x="349.971" y="560.119">l2ca</tspan></text><path d="M75.402 139.088h7.041" style="fill:none;stroke:#93aca7;stroke-width:.264583px;stroke-linecap:butt;stroke-linejoin:miter;stroke-opacity:1"/><circle cx="75.14" cy="139.055" r="1.04" style="fill:none;stroke:#f60;stroke-width:.264583"/><circle cx="80.877" cy="164.842" r="1.04" style="fill:none;stroke:#f60;stroke-width:.264583"/><path d="M42.552 229.02h41.884" style="fill:#fff;stroke:#000;stroke-width:.264583px;stroke-linecap:butt;stroke-linejoin:miter;stroke-opacity:1;marker-end:url(#z)"/><path d="M64.321 250.79v-41.885" style="fill:#fff;stroke:#000;stroke-width:.264583px;stroke-linecap:butt;stroke-linejoin:miter;stroke-opacity:1;marker-end:url(#A)"/><circle cx="77.044" cy="220.873" r="1.04" style="fill:none;stroke:#f60;stroke-width:.264583"/><path d="M77.044 229.02v-8.147H64.321" style="fill:none;stroke:#999;stroke-width:.264583px;stroke-linecap:butt;stroke-linejoin:miter;stroke-dasharray:1,1;stroke-dashoffset:0;stroke-opacity:1"/><text xml:space="preserve" style="font-size:12px;line-height:1.25;font-family:sans-serif;white-space:pre;shape-inside:url(#B);display:inline;fill:#2ca02c" transform="matrix(.26458 0 0 .26458 -25.517 157.18)"><tspan x="372.014" y="285.598">p1x</tspan></text><text xml:space="preserve" style="font-size:12px;line-height:1.25;font-family:sans-serif;white-space:pre;shape-inside:url(#C);display:inline;fill:#2ca02c" transform="matrix(.26458 0 0 .26458 -40.881 163.41)"><tspan x="373.346" y="219.996">p1y</tspan></text><text xml:space="preserve" style="font-size:14.6667px;line-height:1.25;font-family:sans-serif;white-space:pre;shape-inside:url(#D);display:inline;fill:#2ca02c" transform="matrix(.26458 0 0 .26458 -26.99 180.87)"><tspan x="399.975" y="142.012">p1</tspan></text><path d="M64.454 246.756h18.303v-17.798" style="fill:none;stroke:#999;stroke-width:.264583px;stroke-linecap:butt;stroke-linejoin:miter;stroke-dasharray:1,1;stroke-dashoffset:0;stroke-opacity:1"/><circle cx="82.781" cy="246.66" r="1.04" style="fill:none;stroke:#f60;stroke-width:.264583"/><text xml:space="preserve" style="font-size:14.6667px;line-height:1.25;font-family:sans-serif;white-space:pre;shape-inside:url(#E);display:inline;fill:#04a" transform="matrix(.26458 0 0 .26458 18.045 128.219)"><tspan x="249.582" y="454.055">p2</tspan></text><text xml:space="preserve" style="font-size:12px;line-height:1.25;font-family:sans-serif;white-space:pre;shape-inside:url(#F);display:inline;fill:#04a" transform="matrix(.26458 0 0 .26458 3.513 115.819)"><tspan x="292.848" y="422.24">p2x</tspan></text><text xml:space="preserve" style="font-size:12px;line-height:1.25;font-family:sans-serif;white-space:pre;shape-inside:url(#G);display:inline;fill:#04a" transform="matrix(.26458 0 0 .26458 -34.786 145.631)"><tspan x="349.4" y="384.896">p2y</tspan></text><path d="m52.185 226.614-7.463-17.091" style="fill:#fff;stroke:#f0f;stroke-width:.264583px;stroke-linecap:butt;stroke-linejoin:miter;stroke-opacity:1;marker-end:url(#H)"/><path d="M52.306 226.535h3.565" style="fill:none;stroke:#b3b3b3;stroke-width:.264583px;stroke-linecap:butt;stroke-linejoin:miter;stroke-opacity:1"/><path d="M53.645 226.586s.203-.956-.045-1.318c-.226-.33-.705-.438-1.104-.472-.336-.028-.985.239-.985.239" style="fill:none;stroke:purple;stroke-width:.264583px;stroke-linecap:butt;stroke-linejoin:miter;stroke-opacity:1"/><text xml:space="preserve" style="font-size:10.6667px;line-height:1.25;font-family:sans-serif;white-space:pre;shape-inside:url(#I);fill:purple" transform="matrix(.26458 0 0 .26458 12.448 -10.11)"><tspan x="157.592" y="891.889">v1a</tspan></text><text xml:space="preserve" style="font-size:10.6667px;line-height:1.25;font-family:sans-serif;white-space:pre;shape-inside:url(#J);fill:purple" transform="matrix(.26458 0 0 .26458 4.016 -21.916)"><tspan x="165.84" y="896.131">v1l</tspan></text><path d="m51.316 236.389-7.522 9.417" style="fill:#fff;stroke:#f0f;stroke-width:.264583px;stroke-linecap:butt;stroke-linejoin:miter;stroke-opacity:1;marker-end:url(#K)"/><path d="M51.48 236.432h3.565" style="fill:none;stroke:#b3b3b3;stroke-width:.264583px;stroke-linecap:butt;stroke-linejoin:miter;stroke-opacity:1"/><text xml:space="preserve" style="font-size:10.6667px;line-height:1.25;font-family:sans-serif;white-space:pre;shape-inside:url(#L);display:inline;fill:purple" transform="matrix(.26458 0 0 .26458 -.38 3.325)"><tspan x="165.84" y="896.131">v2l</tspan></text><path d="M52.979 236.283s.169-.972-.086-1.34c-.288-.418-.883-.566-1.387-.63-.613-.075-1.35-.066-1.825.33-.378.313-.477.887-.52 1.376-.044.484-.01 1.034.267 1.435.13.188.586.355.586.355" style="fill:none;stroke:purple;stroke-width:.264583px;stroke-linecap:butt;stroke-linejoin:miter;stroke-opacity:1"/><text xml:space="preserve" style="font-size:10.6667px;line-height:1.25;font-family:sans-serif;white-space:pre;shape-inside:url(#M);display:inline;fill:purple" transform="matrix(.26458 0 0 .26458 8.299 -2.78)"><tspan x="157.592" y="891.889">v2a</tspan></text></svg>