<svg xmlns="http://www.w3.org/2000/svg" width="201" height="201" viewBox="0 0 53.181 53.181"><defs><path id="d" d="M383.437 471.872h60.034v45.011h-60.034z"/><path id="c" d="M387.093 421.981h93.854v65.995h-93.854z"/><path id="b" d="M409.03 381.657h46.117v38.5H409.03z"/><path id="a" d="M380.412 434.783h67.716v56.272h-67.716z"/></defs><path d="M28.367 94.009h52.917v52.917H28.367z" style="fill:#fff;stroke:#fff;stroke-width:.264583" transform="translate(-28.234 -93.877)"/><path d="M35.826 127.046h8.325v8.325h15.996v-8.325h8.325v-15.88h-8.325v-8.642H44.15v8.325h-8.325v16.197" style="fill:none;stroke:#f0f;stroke-width:.264583px;stroke-linecap:butt;stroke-linejoin:miter;stroke-opacity:1" transform="translate(-28.234 -93.877)"/><path d="M70.201 102.524v8.643M60.147 101.112h8.642" style="fill:none;stroke:#000;stroke-width:.264583px;stroke-linecap:butt;stroke-linejoin:miter;stroke-opacity:1" transform="translate(-28.234 -93.877)"/><text xml:space="preserve" style="font-size:14.6667px;line-height:1.25;font-family:sans-serif;white-space:pre;shape-inside:url(#a);display:inline" transform="matrix(.26458 0 0 .26458 -66.194 -112.514)"><tspan x="380.412" y="447.76">l1</tspan></text><text xml:space="preserve" style="font-size:14.6667px;line-height:1.25;font-family:sans-serif;white-space:pre;shape-inside:url(#b);display:inline" transform="matrix(.26458 0 0 .26458 -64.934 -91.088)"><tspan x="409.029" y="394.633">l1</tspan></text><path d="M44.15 136.958h15.997M34.768 126.845v-15.996" style="fill:none;stroke:#000;stroke-width:.264583px;stroke-linecap:butt;stroke-linejoin:miter;stroke-opacity:1" transform="translate(-28.234 -93.877)"/><text xml:space="preserve" style="font-size:14.6667px;line-height:1.25;font-family:sans-serif;white-space:pre;shape-inside:url(#c);display:inline" transform="matrix(.26458 0 0 .26458 -80.034 -68.134)"><tspan x="387.092" y="434.957">l2</tspan></text><text xml:space="preserve" style="font-size:14.6667px;line-height:1.25;font-family:sans-serif;white-space:pre;shape-inside:url(#d);display:inline" transform="matrix(.26458 0 0 .26458 -99.365 -101.897)"><tspan x="383.438" y="484.848">l2</tspan></text></svg>