<svg xmlns="http://www.w3.org/2000/svg" width="475.145" height="271.763" viewBox="0 0 125.716 71.904"><defs><path id="t" d="M247.111 5703.403h144.537v36.481H247.111z"/><path id="s" d="M219.351 5479.914h46.181v19.156h-46.181z"/><path id="r" d="M222.058 5443.105h47.281v25.973h-47.281z"/><path id="q" d="M396.593 5587.895h48.606v16.677h-48.606z"/><path id="p" d="M412.272 5542.123h39.778v20.975h-39.778z"/><path id="o" d="M66.038 5696.249h129.579v29.33H66.038z"/><path id="h" d="M84.729 5640.775h171.12v29.001H84.729z"/><path id="g" d="M63.305 5625.199h42.681v37.442H63.305z"/><path id="f" d="M246.484 5571.584h29.84v26.101h-29.84z"/><path id="e" d="M208.574 5528.658h54.316v20.547h-54.316z"/><path id="c" d="M208.973 5647.747h70.206v22.795h-70.206z"/><path id="b" d="M182.782 5644.325h35.562v18.709h-35.562z"/><path id="a" d="M146.25 5627.435h41.219v22.597H146.25z"/><path id="i" d="M146.25 5627.435h41.219v22.597H146.25z"/><path id="k" d="M208.574 5528.658h54.316v20.547h-54.316z"/><path id="l" d="M246.484 5571.584h29.84v26.101h-29.84z"/><path id="m" d="M63.305 5625.199h42.681v37.442H63.305z"/><path id="n" d="M84.729 5640.775h171.12v29.001H84.729z"/><marker id="d" markerHeight="5" markerWidth="8.75" orient="auto-start-reverse" preserveAspectRatio="xMidYMid" refX="0" refY="0" style="overflow:visible" viewBox="0 0 8.75 5"><path d="m0 0 5-5-17.5 5L5 5Z" style="fill:context-stroke;fill-rule:evenodd;stroke:none" transform="scale(-.5)"/></marker><marker id="j" markerHeight="5" markerWidth="8.75" orient="auto-start-reverse" preserveAspectRatio="xMidYMid" refX="0" refY="0" style="overflow:visible" viewBox="0 0 8.75 5"><path d="m0 0 5-5-17.5 5L5 5Z" style="fill:context-stroke;fill-rule:evenodd;stroke:none" transform="scale(-.5)"/></marker></defs><path d="M9.618 1422.985h125.451v71.639H9.618z" style="fill:#fff;fill-opacity:1;stroke:#fff;stroke-width:.264583;stroke-opacity:.901961" transform="translate(-9.485 -1422.852)"/><path d="M122.541 1450.258a18.828 18.994 0 0 1 .69 24.202 18.828 18.994 0 0 1-23.436 5.222 18.828 18.994 0 0 1-9.48-22.242" style="fill:none;fill-opacity:.901961;stroke:#f6d5ff;stroke-width:.264583;stroke-opacity:1" transform="translate(-9.485 -1422.852)"/><path d="M90.125 1457.495v22.7M77.384 1457.47h12.819M77.263 1450.465h45.286M122.487 1450.509v29.315" style="fill:none;stroke:#dee3db;stroke-width:.264583px;stroke-linecap:butt;stroke-linejoin:miter;stroke-opacity:1" transform="translate(-9.485 -1422.852)"/><path d="M-19.511-1457.305a18.828 18.994 0 0 1-14.05 13.189 18.828 18.994 0 0 1-18.215-6.092" style="fill:#fff;fill-opacity:.901961;stroke:purple;stroke-width:.264583;stroke-opacity:1" transform="rotate(180 -4.743 -711.426)"/><path d="M37.571 1462.675h20.324" style="fill:none;stroke:#b3b3b3;stroke-width:.264583px;stroke-linecap:butt;stroke-linejoin:miter;stroke-opacity:1" transform="translate(-9.485 -1422.852)"/><path d="m37.571 1462.675 14.205-12.467M37.571 1462.675l-18.06-5.37" style="fill:none;stroke:#faa;stroke-width:.264583px;stroke-linecap:butt;stroke-linejoin:miter;stroke-opacity:1" transform="translate(-9.485 -1422.852)"/><path d="M40.288 1462.685s.39-.786.226-1.142c-.139-.304-.891-.552-.891-.552" style="fill:none;stroke:#0a4;stroke-width:.264583px;stroke-linecap:butt;stroke-linejoin:miter;stroke-opacity:1" transform="translate(-9.485 -1422.852)"/><path d="M41.642 1462.66s.14-1.099-.125-1.545c-.47-.788-1.4-1.366-2.314-1.53-.843-.151-1.799.099-2.503.579-.616.42-1.248 1.841-1.248 1.841" style="fill:none;stroke:#0a4;stroke-width:.264583px;stroke-linecap:butt;stroke-linejoin:miter;stroke-opacity:1" transform="translate(-9.485 -1422.852)"/><text xml:space="preserve" style="font-size:14.6667px;line-height:1.25;font-family:sans-serif;white-space:pre;shape-inside:url(#a);display:inline;fill:#ff8080" transform="matrix(.26458 0 0 .26458 -22.157 -1452.412)"><tspan x="146.25" y="5640.412">r</tspan></text><text xml:space="preserve" style="font-size:14.6667px;line-height:1.25;font-family:sans-serif;white-space:pre;shape-inside:url(#b);display:inline;fill:#008033" transform="matrix(.26458 0 0 .26458 -21.057 -1453.148)"><tspan x="182.781" y="5657.301">a1</tspan></text><text xml:space="preserve" style="font-size:14.6667px;line-height:1.25;font-family:sans-serif;white-space:pre;shape-inside:url(#c);display:inline;fill:#008033" transform="matrix(.26458 0 0 .26458 -28.594 -1461.664)"><tspan x="208.973" y="5660.723">a2</tspan></text><path d="M42.827 1442.37s-3.08-.956-4.666-.945c-1.514.011-4.438.964-4.438.964" style="fill:none;stroke:#04a;stroke-width:.264583px;stroke-linecap:butt;stroke-linejoin:miter;stroke-opacity:1;marker-end:url(#d)" transform="translate(-9.485 -1422.852)"/><text xml:space="preserve" style="font-size:14.6667px;line-height:1.25;font-family:sans-serif;white-space:pre;shape-inside:url(#e);display:inline;fill:#0055d4" transform="matrix(.26458 0 0 .26458 -29.798 -1448.121)"><tspan x="208.574" y="5541.635">ccw</tspan></text><path d="m18.302 1458.093 2.358-1.6M18.597 1456.203l1.785 2.136M51.423 1451.655l.964-2.681M50.548 1449.954l2.7.675" style="fill:none;stroke:#000;stroke-width:.264583px;stroke-linecap:butt;stroke-linejoin:miter;stroke-opacity:1" transform="translate(-9.485 -1422.852)"/><text xml:space="preserve" style="font-size:14.6667px;line-height:1.25;font-family:sans-serif;white-space:pre;shape-inside:url(#f);display:inline" transform="matrix(.26458 0 0 .26458 -21.653 -1449.65)"><tspan x="246.484" y="5584.561">p1</tspan></text><text xml:space="preserve" style="font-size:14.6667px;line-height:1.25;font-family:sans-serif;white-space:pre;shape-inside:url(#g);display:inline" transform="matrix(.26458 0 0 .26458 -12.289 -1453.338)"><tspan x="63.305" y="5638.176">p2</tspan></text><text xml:space="preserve" style="font-size:14.6667px;line-height:1.25;font-family:sans-serif;white-space:pre;shape-inside:url(#h);display:inline" transform="matrix(.26458 0 0 .26458 -7.52 -1445.65)"><tspan x="84.729" y="5653.752">in canvas.js</tspan></text><path d="M-90.121-1457.541a18.828 18.994 0 0 1-14.05 13.188 18.828 18.994 0 0 1-18.215-6.092" style="fill:none;fill-opacity:.901961;stroke:purple;stroke-width:.264583;stroke-opacity:1" transform="rotate(180 -4.743 -711.426)"/><path d="M108.181 1462.911h20.324" style="fill:none;stroke:#b3b3b3;stroke-width:.264583px;stroke-linecap:butt;stroke-linejoin:miter;stroke-opacity:1" transform="translate(-9.485 -1422.852)"/><path d="m108.181 1462.911 14.205-12.467M108.181 1462.911l-18.06-5.37" style="fill:none;stroke:#faa;stroke-width:.264583px;stroke-linecap:butt;stroke-linejoin:miter;stroke-opacity:1" transform="translate(-9.485 -1422.852)"/><text xml:space="preserve" style="font-size:14.6667px;line-height:1.25;font-family:sans-serif;white-space:pre;shape-inside:url(#i);display:inline;fill:#ff8080" transform="matrix(.26458 0 0 .26458 50.334 -1455.5)"><tspan x="146.25" y="5640.412">r</tspan></text><path d="M113.437 1442.606s-3.08-.955-4.666-.944c-1.514.01-4.438.964-4.438.964" style="fill:none;stroke:#04a;stroke-width:.264583px;stroke-linecap:butt;stroke-linejoin:miter;stroke-opacity:1;marker-end:url(#j)" transform="translate(-9.485 -1422.852)"/><text xml:space="preserve" style="font-size:14.6667px;line-height:1.25;font-family:sans-serif;white-space:pre;shape-inside:url(#k);display:inline;fill:#0055d4" transform="matrix(.26458 0 0 .26458 40.812 -1447.885)"><tspan x="208.574" y="5541.635">ccw</tspan></text><path d="m88.912 1458.33 2.358-1.6M89.207 1456.44l1.785 2.135M122.033 1451.891l.964-2.68M121.158 1450.19l2.7.675" style="fill:none;stroke:#000;stroke-width:.264583px;stroke-linecap:butt;stroke-linejoin:miter;stroke-opacity:1" transform="translate(-9.485 -1422.852)"/><text xml:space="preserve" style="font-size:14.6667px;line-height:1.25;font-family:sans-serif;white-space:pre;shape-inside:url(#l);display:inline" transform="matrix(.26458 0 0 .26458 48.957 -1449.413)"><tspan x="246.484" y="5584.561">p1</tspan></text><text xml:space="preserve" style="font-size:14.6667px;line-height:1.25;font-family:sans-serif;white-space:pre;shape-inside:url(#m);display:inline" transform="matrix(.26458 0 0 .26458 58.322 -1453.101)"><tspan x="63.305" y="5638.176">p2</tspan></text><text xml:space="preserve" style="font-size:14.6667px;line-height:1.25;font-family:sans-serif;white-space:pre;shape-inside:url(#n);display:inline" transform="matrix(.26458 0 0 .26458 63.423 -1429.251)"><tspan x="84.729" y="5653.752">in svg-path</tspan></text><text xml:space="preserve" style="font-size:14.6667px;line-height:1.25;font-family:sans-serif;white-space:pre;shape-inside:url(#o);display:inline" transform="matrix(.26458 0 0 .26458 -14.35 -1441.651)"><tspan x="66.037" y="5709.227">arc definiton</tspan></text><text xml:space="preserve" style="font-size:14.6667px;line-height:1.25;font-family:sans-serif;white-space:pre;shape-inside:url(#p);display:inline;fill:#6c6753" transform="matrix(.26458 0 0 .26458 1.88 -1410.224)"><tspan x="412.271" y="5555.1">p1x</tspan></text><text xml:space="preserve" style="font-size:14.6667px;line-height:1.25;font-family:sans-serif;white-space:pre;shape-inside:url(#q);display:inline;fill:#6c6753" transform="matrix(.26458 0 0 .26458 -29.9 -1422.386)"><tspan x="396.592" y="5600.871">p2x</tspan></text><text xml:space="preserve" style="font-size:14.6667px;line-height:1.25;font-family:sans-serif;white-space:pre;shape-inside:url(#r);display:inline;fill:#6c6753" transform="matrix(.26458 0 0 .26458 2.258 -1415.713)"><tspan x="222.059" y="5456.082">p1y</tspan></text><text xml:space="preserve" style="font-size:14.6667px;line-height:1.25;font-family:sans-serif;white-space:pre;shape-inside:url(#s);display:inline;fill:#6c6753" transform="matrix(.26458 0 0 .26458 2.623 -1418.006)"><tspan x="219.352" y="5492.891">p2y</tspan></text><path d="M122.44 1450.426a18.828 18.994 0 0 1-14.05 13.188 18.828 18.994 0 0 1-18.216-6.091" style="fill:none;fill-opacity:.901961;stroke:#f6d5ff;stroke-width:.264583;stroke-opacity:1" transform="translate(-9.485 -1422.852)"/><path d="M-90.276-1457.419a18.828 18.994 0 0 1 .69 24.202 18.828 18.994 0 0 1-23.436 5.223 18.828 18.994 0 0 1-9.48-22.243" style="fill:none;fill-opacity:.901961;stroke:#f6d5ff;stroke-width:.264583;stroke-opacity:1" transform="rotate(180 -4.743 -711.426)"/><text xml:space="preserve" style="font-size:14.6667px;line-height:1.25;font-family:sans-serif;white-space:pre;shape-inside:url(#t);fill:green" transform="matrix(.26458 0 0 .26458 14.236 -1490.056)"><tspan x="247.111" y="5716.379">!large</tspan></text></svg>