<svg xmlns="http://www.w3.org/2000/svg" width="200" height="200" viewBox="0 0 52.917 52.917"><defs><path id="a" d="M102.459 286.969h176.774v48.735H102.459z"/></defs><path d="M34.943 150.153h52.652v52.652H34.943z" style="fill:#fff;stroke:#fff;stroke-width:.264583;stroke-dasharray:none;stroke-dashoffset:0" transform="translate(-34.811 -150.02)"/><path d="M40.833 171.63h5.693M43.68 174.476v-5.691M62.038 190.797l8.595-6.773 6.17-9.32 2.026-12.626" style="fill:none;stroke:#000;stroke-width:.264583px;stroke-linecap:butt;stroke-linejoin:miter;stroke-opacity:1" transform="translate(-34.811 -150.02)"/><path d="m43.68 171.63 18.358 19.167M70.633 184.024 43.68 171.63M76.803 174.704 43.68 171.63M78.83 162.078l-35.15 9.552" style="fill:none;stroke:#000;stroke-width:.264583px;stroke-linecap:butt;stroke-linejoin:miter;stroke-dasharray:1,1;stroke-dashoffset:0;stroke-opacity:1" transform="translate(-34.811 -150.02)"/><text xml:space="preserve" style="font-size:14.6667px;line-height:1.25;font-family:sans-serif;white-space:pre;shape-inside:url(#a);display:inline;fill:#f60" transform="matrix(.26458 0 0 .26458 -25.438 -27.903)"><tspan x="102.459" y="299.945">amplitude-scale</tspan></text><path d="M69.802 157.945a29.491 29.487 0 0 1-4.718 33.97" style="fill:none;stroke:#ccc;stroke-width:.264583;stroke-dasharray:4,1;stroke-dashoffset:0" transform="translate(-34.811 -150.02)"/><path d="m43.68 171.63 26.953 12.394M76.803 174.704l-3.757-.362" style="fill:none;stroke:#f60;stroke-width:.529167;stroke-linecap:butt;stroke-linejoin:miter;stroke-opacity:1" transform="translate(-34.811 -150.02)"/></svg>