<svg xmlns="http://www.w3.org/2000/svg" width="288.04" height="312.453" viewBox="0 0 76.211 82.67"><defs><path id="a" d="M86.405 8251.748h70.081v57.682H86.405z"/><path id="b" d="M204.843 8338.396h83.853v42.639h-83.853z"/><path id="c" d="M343.183 8353.117h64.675v45.493h-64.675z"/><path id="d" d="M307.065 8197.744h48.525v24.999h-48.525z"/><path id="e" d="M79.05 8300.684h264.658v48.825H79.05z"/><path id="f" d="M251.717 8436.273h62.168v32.45h-62.168z"/><path id="g" d="M420.706 8448.941h77.717v48.312h-77.717z"/><path id="h" d="M439.933 9157.379h51.896v43.121h-51.896z"/><path id="i" d="M310.892 9159.202h33.539v27.888h-33.539z"/><path id="j" d="M450.466 10459.747h41.233v38.021h-41.233z"/><path id="k" d="M423.248 10177.365h36.096v24.909h-36.096z"/><path id="l" d="M450.466 10459.747h59.679v39.079h-59.679z"/></defs><g transform="translate(-39.164 -3003.612)"><path d="M39.297 3003.744h75.946v82.406H39.297z" style="fill:#fff;stroke:#fff;stroke-width:.264583"/><path d="M88.21 3068.272a24.214 24.214 0 0 1-17.543-17.788 24.214 24.214 0 0 1 7.517-23.825 24.214 24.214 0 0 1 24.574-4.5" style="fill:none;stroke:#faa;stroke-width:.264583"/><path d="M62.424 3022.91a23.325 23.325 0 0 1 13.444 20.153 23.325 23.325 0 0 1-11.696 21.215" style="fill:none;stroke:#faa;stroke-width:.264583"/><text xml:space="preserve" style="font-size:14.6667px;line-height:1.25;font-family:sans-serif;white-space:pre;shape-inside:url(#a);display:inline" transform="matrix(.26458 0 0 .26458 35.46 874.782)"><tspan x="86.404" y="8264.725">p1</tspan></text><text xml:space="preserve" style="font-size:14.6667px;line-height:1.25;font-family:sans-serif;white-space:pre;shape-inside:url(#b);display:inline" transform="matrix(.26458 0 0 .26458 16.466 805.288)"><tspan x="204.844" y="8351.371">p2</tspan></text><text xml:space="preserve" style="font-size:14.6667px;line-height:1.25;font-family:sans-serif;white-space:pre;shape-inside:url(#c);display:inline" transform="matrix(.26458 0 0 .26458 -16.586 856.979)"><tspan x="343.182" y="8366.094">p3</tspan></text><path d="m73.12 3033.144 6.007 8.775" style="fill:none;stroke:green;stroke-width:.264583px;stroke-linecap:butt;stroke-linejoin:miter;stroke-opacity:1"/><text xml:space="preserve" style="font-size:14.6667px;line-height:1.25;font-family:sans-serif;white-space:pre;shape-inside:url(#d);display:inline;fill:green" transform="matrix(.26458 0 0 .26458 -8.057 867.494)"><tspan x="307.064" y="8210.721">r</tspan></text><text xml:space="preserve" style="font-size:14.6667px;line-height:1.25;font-family:sans-serif;white-space:pre;shape-inside:url(#e);display:inline" transform="matrix(.26458 0 0 .26458 20.805 879.05)"><tspan x="79.051" y="8313.66">construct cornerRounded(radius)
</tspan><tspan x="79.051" y="8331.993">case int-arc-int-arc</tspan></text><path d="M-2710.16-1327.915a33.9 33.9 0 0 1-27.125.43 33.9 33.9 0 0 1-18.755-19.599l31.824-11.68z" style="fill:none;stroke:#e6e6e6;stroke-width:.264583" transform="rotate(-117.495)"/><path d="m97.403 3019.797-44.819 24.115" style="fill:none;stroke:#b3b3b3;stroke-width:.264583px;stroke-linecap:butt;stroke-linejoin:miter;stroke-opacity:1"/><path d="M-2710.192-1327.843a33.9 33.9 0 0 1-27.124.43 33.9 33.9 0 0 1-18.755-19.599" style="fill:none;stroke:#000;stroke-width:.264583" transform="rotate(-117.495)"/><path d="m82.606 3027.905-30.032 16" style="fill:none;stroke:#00f;stroke-width:.264583px;stroke-linecap:butt;stroke-linejoin:miter;stroke-opacity:1"/><text xml:space="preserve" style="font-size:14.6667px;line-height:1.25;font-family:sans-serif;white-space:pre;shape-inside:url(#f);display:inline;fill:#00f" transform="matrix(.26458 0 0 .26458 -2.13 799.624)"><tspan x="251.717" y="8449.25">r3</tspan></text><text xml:space="preserve" style="font-size:14.6667px;line-height:1.25;font-family:sans-serif;white-space:pre;shape-inside:url(#g);display:inline" transform="matrix(.26458 0 0 .26458 -63.771 807.47)"><tspan x="420.705" y="8461.918">p5</tspan></text><path d="M-507.123 3015.563a34.173 34.173 0 0 1 18.581-37.403l14.935 30.737z" style="fill:none;stroke:#e6e6e6;stroke-width:.264583" transform="rotate(-10.712)"/><path d="M-507.271 3015.518a34.173 34.173 0 0 1 18.582-37.403" style="fill:none;stroke:#000;stroke-width:.264583" transform="rotate(-10.712)"/><circle cx="73.065" cy="3033.324" r="10.634" style="fill:none;stroke:#d45500;stroke-width:.264583"/><path d="m94.144 3044.717-38.427-21.829" style="fill:none;stroke:#ccc;stroke-width:.264583px;stroke-linecap:butt;stroke-linejoin:miter;stroke-opacity:1"/><path d="m94.158 3044.975-30.237-17.292" style="fill:none;stroke:teal;stroke-width:.264583px;stroke-linecap:butt;stroke-linejoin:miter;stroke-opacity:1"/><text xml:space="preserve" style="font-size:14.6667px;line-height:1.25;font-family:sans-serif;white-space:pre;shape-inside:url(#h);display:inline;fill:teal" transform="matrix(.26458 0 0 .26458 -29.374 614.144)"><tspan x="439.934" y="9170.355">r2</tspan></text><text xml:space="preserve" style="font-size:14.6667px;line-height:1.25;font-family:sans-serif;white-space:pre;shape-inside:url(#i);display:inline" transform="matrix(.26458 0 0 .26458 11.363 621.043)"><tspan x="310.893" y="9172.18">p4</tspan></text><path d="m52.64 3044.099 41.417.731" style="fill:none;stroke:#f0f;stroke-width:.264583px;stroke-linecap:butt;stroke-linejoin:miter;stroke-opacity:1"/><text xml:space="preserve" style="font-size:12px;line-height:1.25;font-family:sans-serif;white-space:pre;shape-inside:url(#j);display:inline;fill:#f0f" transform="matrix(.26458 0 0 .26458 -58.292 277.107)"><tspan x="450.467" y="10470.363">1:l54</tspan></text><text xml:space="preserve" style="font-size:14.6667px;line-height:1.25;font-family:sans-serif;white-space:pre;shape-inside:url(#k);display:inline" transform="matrix(.26458 0 0 .26458 -36.983 336.484)"><tspan x="423.248" y="10190.342">p7</tspan></text><path d="M56.152 3041.984s.93.471 1.003.919c.072.44-.649 1.173-.649 1.173" style="fill:none;stroke:#f0f;stroke-width:.264583px;stroke-linecap:butt;stroke-linejoin:miter;stroke-opacity:1"/><text xml:space="preserve" style="font-size:12px;line-height:1.25;font-family:sans-serif;white-space:pre;shape-inside:url(#l);display:inline;fill:#f0f" transform="matrix(.26458 0 0 .26458 -74.471 271.17)"><tspan x="450.467" y="10470.363">2:a457</tspan></text></g></svg>