<svg xmlns="http://www.w3.org/2000/svg" width="288.04" height="273.622" viewBox="0 0 76.211 72.396"><defs><path id="a" d="M86.405 8251.748h70.081v57.682H86.405z"/><path id="b" d="M204.843 8338.396h83.853v42.639h-83.853z"/><path id="c" d="M343.183 8353.117h64.675v45.493h-64.675z"/><path id="d" d="M79.05 8300.684h282.307v47.641H79.05z"/><path id="e" d="M251.717 8436.273h62.168v32.45h-62.168z"/><path id="f" d="M420.706 8448.941h77.717v48.312h-77.717z"/><path id="g" d="M307.065 8197.744h48.525v24.999h-48.525z"/><path id="h" d="M423.248 10177.365h36.096v24.909h-36.096z"/><path id="i" d="M209.602 10739.295h58.999v31.362h-58.999z"/><path id="j" d="M64.337 10503.036h33.572v27.716H64.337z"/></defs><g transform="translate(-43.41 -3806.534)"><path d="M43.542 3806.666h75.946v72.131H43.542z" style="fill:#fff;stroke:#fff;stroke-width:.264583"/><path d="M63.056 3838.535s.503-.067.69.07c.243.175.364.822.364.822M68.41 3827.72s-.394.32-.625.302c-.299-.023-.74-.512-.74-.512" style="fill:none;stroke:#0f0;stroke-width:.264583px;stroke-linecap:butt;stroke-linejoin:miter;stroke-opacity:1"/><path d="m54.697 3861.053 13.425-36.784" style="fill:none;stroke:#000;stroke-width:.264583px;stroke-linecap:butt;stroke-linejoin:miter;stroke-opacity:1"/><text xml:space="preserve" style="font-size:14.6667px;line-height:1.25;font-family:sans-serif;white-space:pre;shape-inside:url(#a);display:inline" transform="matrix(.26458 0 0 .26458 26.102 1674.236)"><tspan x="86.404" y="8264.725">p1</tspan></text><text xml:space="preserve" style="font-size:14.6667px;line-height:1.25;font-family:sans-serif;white-space:pre;shape-inside:url(#b);display:inline" transform="matrix(.26458 0 0 .26458 10.417 1614.108)"><tspan x="204.844" y="8351.371">p2</tspan></text><text xml:space="preserve" style="font-size:14.6667px;line-height:1.25;font-family:sans-serif;white-space:pre;shape-inside:url(#c);display:inline" transform="matrix(.26458 0 0 .26458 22.24 1634.011)"><tspan x="343.182" y="8366.094">p3</tspan></text><circle cx="68.864" cy="3835.028" r="10.634" style="fill:none;stroke:#d45500;stroke-width:.264583"/><text xml:space="preserve" style="font-size:14.6667px;line-height:1.25;font-family:sans-serif;white-space:pre;shape-inside:url(#d);display:inline" transform="matrix(.26458 0 0 .26458 25.123 1676.768)"><tspan x="79.051" y="8313.66">construct cornerWidened(radius)</tspan></text><path d="M114.206 3843.458a33.9 33.9 0 0 1-27.124.43 33.9 33.9 0 0 1-18.755-19.599l31.824-11.68z" style="fill:none;stroke:#e6e6e6;stroke-width:.264583"/><path d="M114.126 3843.31a33.9 33.9 0 0 1-27.124.431 33.9 33.9 0 0 1-18.755-19.599" style="fill:none;stroke:#000;stroke-width:.264583"/><path d="m99.99 3812.667-21.199 26.286" style="fill:none;stroke:#00f;stroke-width:.264583px;stroke-linecap:butt;stroke-linejoin:miter;stroke-opacity:1"/><text xml:space="preserve" style="font-size:14.6667px;line-height:1.25;font-family:sans-serif;white-space:pre;shape-inside:url(#e);display:inline;fill:#00f" transform="matrix(.26458 0 0 .26458 24.454 1591.192)"><tspan x="251.717" y="8449.25">r2</tspan></text><text xml:space="preserve" style="font-size:14.6667px;line-height:1.25;font-family:sans-serif;white-space:pre;shape-inside:url(#f);display:inline" transform="matrix(.26458 0 0 .26458 -10.596 1575.52)"><tspan x="420.705" y="8461.918">p5</tspan></text><path d="m68.588 3834.575-.393-10.345" style="fill:none;stroke:green;stroke-width:.264583px;stroke-linecap:butt;stroke-linejoin:miter;stroke-opacity:1"/><text xml:space="preserve" style="font-size:14.6667px;line-height:1.25;font-family:sans-serif;white-space:pre;shape-inside:url(#g);display:inline;fill:green" transform="matrix(.26458 0 0 .26458 -12.59 1660.363)"><tspan x="307.064" y="8210.721">r</tspan></text><text xml:space="preserve" style="font-size:14.6667px;line-height:1.25;font-family:sans-serif;white-space:pre;shape-inside:url(#h);display:inline" transform="matrix(.26458 0 0 .26458 -43.643 1141.609)"><tspan x="423.248" y="10190.342">p6</tspan></text><text xml:space="preserve" style="font-size:14.6667px;line-height:1.25;font-family:sans-serif;white-space:pre;shape-inside:url(#i);display:inline" transform="matrix(.26458 0 0 .26458 -.656 999.451)"><tspan x="209.602" y="10752.272">p8</tspan></text><text xml:space="preserve" style="font-size:14.6667px;line-height:1.25;font-family:sans-serif;white-space:pre;shape-inside:url(#j);display:inline" transform="matrix(.26458 0 0 .26458 62.84 1057.663)"><tspan x="64.336" y="10516.012">p9</tspan></text><path d="m68.707 3834.61 31.14-21.87" style="fill:none;stroke:#ffd5d5;stroke-width:.264583px;stroke-linecap:butt;stroke-linejoin:miter;stroke-opacity:1"/><path d="M89.67 3816.538s-.3.985-.137 1.438c.167.462 1.045 1.04 1.045 1.04M91.756 3818.456s.078 1.017.344 1.427c.272.42 1.19.918 1.19.918" style="fill:none;stroke:teal;stroke-width:.264583px;stroke-linecap:butt;stroke-linejoin:miter;stroke-opacity:1"/><path d="m61.56 3842.568 6.987-7.97" style="fill:none;stroke:green;stroke-width:.264583px;stroke-linecap:butt;stroke-linejoin:miter;stroke-opacity:1"/></g></svg>