<svg xmlns="http://www.w3.org/2000/svg" width="288.04" height="273.622" viewBox="0 0 76.211 72.396"><defs><path id="o" d="M64.337 10503.036h33.572v27.716H64.337z"/><path id="n" d="M209.602 10739.295h58.999v31.362h-58.999z"/><path id="k" d="M441.705 10454.384h116.487v28.209H441.705z"/><path id="j" d="M367.056 10442.883h32.883v25.01h-32.883z"/><path id="i" d="M450.466 10459.747h41.233v38.021h-41.233z"/><path id="a" d="M86.405 8251.748h70.081v57.682H86.405z"/><path id="b" d="M204.843 8338.396h83.853v42.639h-83.853z"/><path id="c" d="M343.183 8353.117h64.675v45.493h-64.675z"/><path id="d" d="M79.05 8300.684h282.307v47.641H79.05z"/><path id="e" d="M251.717 8436.273h62.168v32.45h-62.168z"/><path id="f" d="M420.706 8448.941h77.717v48.312h-77.717z"/><path id="h" d="M307.065 8197.744h48.525v24.999h-48.525z"/><path id="g" d="M307.065 8197.744h48.525v24.999h-48.525z"/><path id="l" d="M423.248 10177.365h36.096v24.909h-36.096z"/><path id="m" d="M441.705 10454.384h116.487v28.209H441.705z"/></defs><g transform="translate(-31.959 -2770.401)"><path d="M32.091 2770.534h75.946v72.131H32.091z" style="fill:#fff;stroke:#fff;stroke-width:.264583"/><path d="m38.597 2832.712 17.842-48.802" style="fill:none;stroke:#e6e6e6;stroke-width:.264582px;stroke-linecap:butt;stroke-linejoin:miter;stroke-opacity:1"/><path d="M103.92 2814.544a44.492 44.492 0 0 1-36.527-3.016 44.492 44.492 0 0 1-21.87-29.411" style="fill:none;stroke:#faa;stroke-width:.264583"/><path d="m43.246 2820.689 13.425-36.784" style="fill:none;stroke:#000;stroke-width:.264583px;stroke-linecap:butt;stroke-linejoin:miter;stroke-opacity:1"/><text xml:space="preserve" style="font-size:14.6667px;line-height:1.25;font-family:sans-serif;white-space:pre;shape-inside:url(#a);display:inline" transform="matrix(.26458 0 0 .26458 14.651 633.871)"><tspan x="86.404" y="8264.725">p1</tspan></text><text xml:space="preserve" style="font-size:14.6667px;line-height:1.25;font-family:sans-serif;white-space:pre;shape-inside:url(#b);display:inline" transform="matrix(.26458 0 0 .26458 -1.034 573.743)"><tspan x="204.844" y="8351.371">p2</tspan></text><text xml:space="preserve" style="font-size:14.6667px;line-height:1.25;font-family:sans-serif;white-space:pre;shape-inside:url(#c);display:inline" transform="matrix(.26458 0 0 .26458 10.789 593.647)"><tspan x="343.182" y="8366.094">p3</tspan></text><circle cx="59.873" cy="2806.372" r="10.634" style="fill:none;stroke:#d45500;stroke-width:.264583"/><path d="m44.41 2800.61 23.599 8.578" style="fill:none;stroke:#b3b3b3;stroke-width:.264583px;stroke-linecap:butt;stroke-linejoin:miter;stroke-opacity:1"/><path d="m49.005 2804.716 2.05.75.735-2.236" style="fill:none;stroke:#666;stroke-width:.264583px;stroke-linecap:butt;stroke-linejoin:miter;stroke-opacity:1"/><text xml:space="preserve" style="font-size:14.6667px;line-height:1.25;font-family:sans-serif;white-space:pre;shape-inside:url(#d);display:inline" transform="matrix(.26458 0 0 .26458 14.05 636.531)"><tspan x="79.051" y="8313.66">construct cornerRounded(radius)
</tspan><tspan x="79.051" y="8331.993">case stroke-ext-arc, acute</tspan></text><path d="M102.755 2803.094a33.9 33.9 0 0 1-27.124.43 33.9 33.9 0 0 1-18.755-19.6l31.824-11.68z" style="fill:none;stroke:#e6e6e6;stroke-width:.264583"/><path d="m88.788 2772.345-50.445 58.52" style="fill:none;stroke:#b3b3b3;stroke-width:.264583px;stroke-linecap:butt;stroke-linejoin:miter;stroke-opacity:1"/><path d="M102.675 2802.946a33.9 33.9 0 0 1-27.124.43 33.9 33.9 0 0 1-18.755-19.598" style="fill:none;stroke:#000;stroke-width:.264583"/><path d="m88.904 2772.416-22.031 25.324" style="fill:none;stroke:#00f;stroke-width:.264583px;stroke-linecap:butt;stroke-linejoin:miter;stroke-opacity:1"/><text xml:space="preserve" style="font-size:14.6667px;line-height:1.25;font-family:sans-serif;white-space:pre;shape-inside:url(#e);display:inline;fill:#00f" transform="matrix(.26458 0 0 .26458 11.017 553.135)"><tspan x="251.717" y="8449.25">r2</tspan></text><text xml:space="preserve" style="font-size:14.6667px;line-height:1.25;font-family:sans-serif;white-space:pre;shape-inside:url(#f);display:inline" transform="matrix(.26458 0 0 .26458 -22.047 535.155)"><tspan x="420.705" y="8461.918">p5</tspan></text><path d="m71.09 2775.189-16.406 44.9" style="fill:none;stroke:#faa;stroke-width:.264583px;stroke-linecap:butt;stroke-linejoin:miter;stroke-opacity:1"/><path d="m66.566 2798.189-6.942 7.926-9.76-3.452" style="fill:none;stroke:green;stroke-width:.264583px;stroke-linecap:butt;stroke-linejoin:miter;stroke-opacity:1"/><text xml:space="preserve" style="font-size:14.6667px;line-height:1.25;font-family:sans-serif;white-space:pre;shape-inside:url(#g);display:inline;fill:green" transform="matrix(.26458 0 0 .26458 -17.245 631.421)"><tspan x="307.064" y="8210.721">r</tspan></text><text xml:space="preserve" style="font-size:14.6667px;line-height:1.25;font-family:sans-serif;white-space:pre;shape-inside:url(#h);display:inline;fill:green" transform="matrix(.26458 0 0 .26458 -28.858 634.552)"><tspan x="307.064" y="8210.721">r</tspan></text><text xml:space="preserve" style="font-size:12px;line-height:1.25;font-family:sans-serif;white-space:pre;shape-inside:url(#i);display:inline;fill:#f0f" transform="matrix(.26458 0 0 .26458 -57.814 8.149)"><tspan x="450.467" y="10470.363">1:pA</tspan></text><path d="m69.79 2779.215 18.805-6.9" style="fill:none;stroke:#f0f;stroke-width:.264583px;stroke-linecap:butt;stroke-linejoin:miter;stroke-opacity:1"/><text xml:space="preserve" style="font-size:12px;line-height:1.25;font-family:sans-serif;white-space:pre;shape-inside:url(#j);display:inline;fill:#f0f" transform="matrix(.26458 0 0 .26458 -21.835 7.509)"><tspan x="367.057" y="10453.5">2:lA5</tspan></text><path d="M68.9 2781.561s1.308-.023 1.867-.316c.5-.263.947-.7 1.182-1.214.215-.472.13-1.55.13-1.55" style="fill:none;stroke:#f0f;stroke-width:.264583px;stroke-linecap:butt;stroke-linejoin:miter;stroke-opacity:1"/><text xml:space="preserve" style="font-size:12px;line-height:1.25;font-family:sans-serif;white-space:pre;shape-inside:url(#k);display:inline;fill:#f0f" transform="matrix(.26458 0 0 .26458 -44.306 12.418)"><tspan x="441.705" y="10465">4:aA=a125</tspan></text><text xml:space="preserve" style="font-size:14.6667px;line-height:1.25;font-family:sans-serif;white-space:pre;shape-inside:url(#l);display:inline" transform="matrix(.26458 0 0 .26458 -52.17 113.44)"><tspan x="423.248" y="10190.342">p7</tspan></text><text xml:space="preserve" style="font-size:12px;line-height:1.25;font-family:sans-serif;white-space:pre;shape-inside:url(#m);display:inline;fill:#f0f" transform="matrix(.26458 0 0 .26458 -72.99 17.598)"><tspan x="441.705" y="10465">3:a125</tspan></text><path d="M55.674 2786.324s1.308-.023 1.868-.317c.5-.262.947-.7 1.181-1.214.216-.471.132-1.55.132-1.55" style="fill:none;stroke:#f0f;stroke-width:.264583px;stroke-linecap:butt;stroke-linejoin:miter;stroke-opacity:1"/><text xml:space="preserve" style="font-size:14.6667px;line-height:1.25;font-family:sans-serif;white-space:pre;shape-inside:url(#n);display:inline" transform="matrix(.26458 0 0 .26458 -11.484 -41.433)"><tspan x="209.602" y="10752.272">p8</tspan></text><path d="M82.546 2774.601s-.29 1.378 0 1.966c.298.607 1.608 1.238 1.608 1.238" style="fill:none;stroke:#fc0;stroke-width:.529167;stroke-linecap:butt;stroke-linejoin:miter;stroke-opacity:1"/><text xml:space="preserve" style="font-size:14.6667px;line-height:1.25;font-family:sans-serif;white-space:pre;shape-inside:url(#o);display:inline" transform="matrix(.26458 0 0 .26458 51.864 15.993)"><tspan x="64.336" y="10516.012">p9</tspan></text></g></svg>