<svg xmlns="http://www.w3.org/2000/svg" width="288.04" height="395.802" viewBox="0 0 76.211 104.723"><defs><path id="a" d="M86.405 8251.748h70.081v57.682H86.405z"/><path id="l" d="M204.843 8338.396h83.853v42.639h-83.853z"/><path id="k" d="M343.183 8353.117h64.675v45.493h-64.675z"/><path id="b" d="M79.05 8300.684h282.307v47.641H79.05z"/><path id="c" d="M251.717 8436.273h62.168v32.45h-62.168z"/><path id="d" d="M420.706 8448.941h77.717v48.312h-77.717z"/><path id="e" d="M307.065 8197.744h48.525v24.999h-48.525z"/><path id="f" d="M450.466 10459.747h41.233v38.021h-41.233z"/><path id="g" d="M367.056 10442.883h32.883v25.01h-32.883z"/><path id="h" d="M441.705 10454.384h116.487v28.209H441.705z"/><path id="i" d="M423.248 10177.365h36.096v24.909h-36.096z"/><path id="j" d="M441.705 10454.384h116.487v28.209H441.705z"/><path id="m" d="M378.935 12647.6h36.045v26.794h-36.045z"/><path id="n" d="M409.102 12687.542h48.255v47.365h-48.255z"/></defs><g transform="translate(-30.668 -3431.16)"><path d="m48.95 3443.81 11.413 59.82" style="fill:none;stroke:#ccc;stroke-width:.264583px;stroke-linecap:butt;stroke-linejoin:miter;stroke-opacity:1"/><path d="M30.801 3431.293h75.946v104.458H30.801z" style="fill:#fff;stroke:#fff;stroke-width:.264583"/><path d="m37.307 3525.793 17.841-48.802" style="fill:none;stroke:#e6e6e6;stroke-width:.264582px;stroke-linecap:butt;stroke-linejoin:miter;stroke-opacity:1"/><path d="M-3376.176 643.193a44.492 44.492 0 0 1-36.527-3.016 44.492 44.492 0 0 1-21.87-29.41" style="fill:none;stroke:#faa;stroke-width:.264583" transform="rotate(-80.767)"/><path d="m41.956 3513.77 13.425-36.784" style="fill:none;stroke:#000;stroke-width:.264583px;stroke-linecap:butt;stroke-linejoin:miter;stroke-opacity:1"/><text xml:space="preserve" style="font-size:14.6667px;line-height:1.25;font-family:sans-serif;white-space:pre;shape-inside:url(#a);display:inline" transform="matrix(.26458 0 0 .26458 13.36 1326.953)"><tspan x="86.404" y="8264.725">p1</tspan></text><circle cx="63.384" cy="3485.899" r="10.634" style="fill:none;stroke:#d45500;stroke-width:.264583"/><path d="m48.014 3480.296 23.6 8.58" style="fill:none;stroke:#b3b3b3;stroke-width:.264583px;stroke-linecap:butt;stroke-linejoin:miter;stroke-opacity:1"/><path d="m52.61 3484.403 2.05.75.735-2.237" style="fill:none;stroke:#666;stroke-width:.264583px;stroke-linecap:butt;stroke-linejoin:miter;stroke-opacity:1"/><text xml:space="preserve" style="font-size:14.6667px;line-height:1.25;font-family:sans-serif;white-space:pre;shape-inside:url(#b);display:inline" transform="matrix(.26458 0 0 .26458 12.76 1329.613)"><tspan x="79.051" y="8313.66">construct cornerRounded(radius)
</tspan><tspan x="79.051" y="8331.993">case stroke-ext-arc, obtuse</tspan></text><path d="M-3377.34 631.743a33.9 33.9 0 0 1-27.125.43 33.9 33.9 0 0 1-18.755-19.599l31.824-11.68z" style="fill:none;stroke:#e6e6e6;stroke-width:.264583" transform="rotate(-80.767)"/><path d="M-3377.42 631.596a33.9 33.9 0 0 1-27.125.43 33.9 33.9 0 0 1-18.755-19.599" style="fill:none;stroke:#000;stroke-width:.264583" transform="rotate(-80.767)"/><text xml:space="preserve" style="font-size:14.6667px;line-height:1.25;font-family:sans-serif;white-space:pre;shape-inside:url(#c);display:inline;fill:#00f" transform="matrix(.26458 0 0 .26458 -11.46 1225.449)"><tspan x="251.717" y="8449.25">r2</tspan></text><text xml:space="preserve" style="font-size:14.6667px;line-height:1.25;font-family:sans-serif;white-space:pre;shape-inside:url(#d);display:inline" transform="matrix(.26458 0 0 .26458 -68.18 1205.67)"><tspan x="420.705" y="8461.918">p5</tspan></text><path d="m69.8 3468.27-16.407 44.9" style="fill:none;stroke:#faa;stroke-width:.264583px;stroke-linecap:butt;stroke-linejoin:miter;stroke-opacity:1"/><text xml:space="preserve" style="font-size:14.6667px;line-height:1.25;font-family:sans-serif;white-space:pre;shape-inside:url(#e);display:inline;fill:green" transform="matrix(.26458 0 0 .26458 -19.489 1309.062)"><tspan x="307.064" y="8210.721">r</tspan></text><path d="m48.896 3443.885 14.4 42.11" style="fill:none;stroke:#00f;stroke-width:.264583px;stroke-linecap:butt;stroke-linejoin:miter;stroke-opacity:1"/><text xml:space="preserve" style="font-size:12px;line-height:1.25;font-family:sans-serif;white-space:pre;shape-inside:url(#f);display:inline;fill:#f0f" transform="matrix(.26458 0 0 .26458 -68.746 727.754)"><tspan x="450.467" y="10470.363">1:pA</tspan></text><path d="m59.003 3497.417-10.232-53.606" style="fill:none;stroke:#f0f;stroke-width:.264583px;stroke-linecap:butt;stroke-linejoin:miter;stroke-opacity:1"/><text xml:space="preserve" style="font-size:12px;line-height:1.25;font-family:sans-serif;white-space:pre;shape-inside:url(#g);display:inline;fill:#f0f" transform="matrix(.26458 0 0 .26458 -53.2 703.04)"><tspan x="367.057" y="10453.5">2:lA5</tspan></text><text xml:space="preserve" style="font-size:12px;line-height:1.25;font-family:sans-serif;white-space:pre;shape-inside:url(#h);display:inline;fill:#f0f" transform="matrix(.26458 0 0 .26458 -55.495 725.415)"><tspan x="441.705" y="10465">4:aA=PI-a125</tspan></text><text xml:space="preserve" style="font-size:14.6667px;line-height:1.25;font-family:sans-serif;white-space:pre;shape-inside:url(#i);display:inline" transform="matrix(.26458 0 0 .26458 -48.087 790.143)"><tspan x="423.248" y="10190.342">p7</tspan></text><text xml:space="preserve" style="font-size:12px;line-height:1.25;font-family:sans-serif;white-space:pre;shape-inside:url(#j);display:inline;fill:#f0f" transform="matrix(.26458 0 0 .26458 -75.613 709.197)"><tspan x="441.705" y="10465">3:a125</tspan></text><path d="M54.233 3479.549s-.775-1.055-.88-1.678c-.094-.557-.017-1.178.25-1.675.244-.458 1.153-1.044 1.153-1.044" style="fill:none;stroke:#f0f;stroke-width:.264583px;stroke-linecap:butt;stroke-linejoin:miter;stroke-opacity:1"/><text xml:space="preserve" style="font-size:14.6667px;line-height:1.25;font-family:sans-serif;white-space:pre;shape-inside:url(#k);display:inline" transform="matrix(.26458 0 0 .26458 -15.212 1223.319)"><tspan x="343.182" y="8366.094">p3</tspan></text><text xml:space="preserve" style="font-size:14.6667px;line-height:1.25;font-family:sans-serif;white-space:pre;shape-inside:url(#l);display:inline" transform="matrix(.26458 0 0 .26458 -2.389 1264.593)"><tspan x="204.844" y="8351.371">p2</tspan></text><path d="m63.31 3485.983-3.54-10.17" style="fill:none;stroke:green;stroke-width:.264583px;stroke-linecap:butt;stroke-linejoin:miter;stroke-opacity:1"/><path d="M58.263 3492.192s.691-.436 1.065-.437c.334 0 .689.13.954.384.243.234.497.967.497.967" style="fill:none;stroke:#f0f;stroke-width:.264583px;stroke-linecap:butt;stroke-linejoin:miter;stroke-opacity:1"/><path d="M51.12 3455.886s.698.417 1.057.33c.28-.067.618-.605.618-.605" style="fill:none;stroke:#fc0;stroke-width:.529167;stroke-linecap:butt;stroke-linejoin:miter;stroke-opacity:1"/><text xml:space="preserve" style="font-size:14.6667px;line-height:1.25;font-family:sans-serif;white-space:pre;shape-inside:url(#m);display:inline;fill:#999" transform="matrix(.26458 0 0 .26458 -39.664 123.544)"><tspan x="378.936" y="12660.576">p9</tspan></text><text xml:space="preserve" style="font-size:14.6667px;line-height:1.25;font-family:sans-serif;white-space:pre;shape-inside:url(#n);display:inline;fill:#999" transform="matrix(.26458 0 0 .26458 -61.362 123.742)"><tspan x="409.102" y="12700.52">p8</tspan></text></g></svg>