<svg xmlns="http://www.w3.org/2000/svg" width="288.04" height="312.454" viewBox="0 0 76.211 82.67"><defs><path id="a" d="M86.405 8251.748h70.081v57.682H86.405z"/><path id="b" d="M204.843 8338.396h83.853v42.639h-83.853z"/><path id="c" d="M343.183 8353.117h64.675v45.493h-64.675z"/><path id="d" d="M307.065 8197.744h48.525v24.999h-48.525z"/><path id="e" d="M79.05 8300.684h260.366v53.236H79.05z"/><path id="f" d="M251.717 8436.273h62.168v32.45h-62.168z"/><path id="g" d="M420.706 8448.941h77.717v48.312h-77.717z"/><path id="h" d="M439.933 9157.379h51.896v43.121h-51.896z"/><path id="i" d="M310.892 9159.202h33.539v27.888h-33.539z"/><path id="j" d="M423.248 10177.365h36.096v24.909h-36.096z"/><path id="k" d="M450.466 10459.747h41.233v38.021h-41.233z"/><path id="l" d="M450.466 10459.747h59.679v39.079h-59.679z"/></defs><g transform="translate(-38.997 -3092.383)"><path d="M103.716 3149.777a44.612 44.612 0 0 1-38.631-14.426 44.612 44.612 0 0 1-10.303-39.93" style="fill:none;stroke:#faa;stroke-width:.264583"/><path d="M72.942 3154.886a24.395 24.395 0 0 1-12.191-24.436 24.395 24.395 0 0 1 18.115-20.434" style="fill:none;stroke:#faa;stroke-width:.264583"/><path d="M39.129 3092.515h75.946v82.406H39.129z" style="fill:#fff;stroke:#fff;stroke-width:.264583"/><text xml:space="preserve" style="font-size:14.6667px;line-height:1.25;font-family:sans-serif;white-space:pre;shape-inside:url(#a);display:inline" transform="matrix(.26458 0 0 .26458 25.767 963.553)"><tspan x="86.404" y="8264.725">p1</tspan></text><text xml:space="preserve" style="font-size:14.6667px;line-height:1.25;font-family:sans-serif;white-space:pre;shape-inside:url(#b);display:inline" transform="matrix(.26458 0 0 .26458 6.774 894.06)"><tspan x="204.844" y="8351.371">p2</tspan></text><text xml:space="preserve" style="font-size:14.6667px;line-height:1.25;font-family:sans-serif;white-space:pre;shape-inside:url(#c);display:inline" transform="matrix(.26458 0 0 .26458 10.587 926.94)"><tspan x="343.182" y="8366.094">p3</tspan></text><text xml:space="preserve" style="font-size:14.6667px;line-height:1.25;font-family:sans-serif;white-space:pre;shape-inside:url(#d);display:inline;fill:green" transform="matrix(.26458 0 0 .26458 -16.295 953.398)"><tspan x="307.064" y="8210.721">r</tspan></text><text xml:space="preserve" style="font-size:14.6667px;line-height:1.25;font-family:sans-serif;white-space:pre;shape-inside:url(#e);display:inline" transform="matrix(.26458 0 0 .26458 20.638 967.822)"><tspan x="79.051" y="8313.66">construct cornerRounded(radius)
</tspan><tspan x="79.051" y="8331.993">case int-arc-ext-arc</tspan></text><path d="M-2830.418 1280.143a33.9 33.9 0 0 1-27.124.43 33.9 33.9 0 0 1-18.755-19.598l31.824-11.68z" style="fill:none;stroke:#e6e6e6;stroke-width:.264583" transform="scale(-1 1) rotate(-64.483)"/><path d="m97.71 3105.19-55.079 36.65" style="fill:none;stroke:#b3b3b3;stroke-width:.264583px;stroke-linecap:butt;stroke-linejoin:miter;stroke-opacity:1"/><path d="M97.917 3105.234 69.344 3124.1" style="fill:none;stroke:#00f;stroke-width:.264583px;stroke-linecap:butt;stroke-linejoin:miter;stroke-opacity:1"/><text xml:space="preserve" style="font-size:14.6667px;line-height:1.25;font-family:sans-serif;white-space:pre;shape-inside:url(#f);display:inline;fill:#00f" transform="matrix(.26458 0 0 .26458 13.84 878.063)"><tspan x="251.717" y="8449.25">r3</tspan></text><text xml:space="preserve" style="font-size:14.6667px;line-height:1.25;font-family:sans-serif;white-space:pre;shape-inside:url(#g);display:inline" transform="matrix(.26458 0 0 .26458 -25.774 896.125)"><tspan x="420.705" y="8461.918">p4</tspan></text><path d="M-533.147 3100.985a34.173 34.173 0 0 1 18.582-37.402l14.934 30.736z" style="fill:none;stroke:#e6e6e6;stroke-width:.264583" transform="rotate(-10.712)"/><path d="M-533.295 3100.94a34.173 34.173 0 0 1 18.582-37.402" style="fill:none;stroke:#000;stroke-width:.264583" transform="rotate(-10.712)"/><circle cx="60.748" cy="3129.81" r="10.634" style="fill:none;stroke:#d45500;stroke-width:.264583"/><path d="m84.452 3133.488-48.26-7.559" style="fill:none;stroke:#ccc;stroke-width:.264583px;stroke-linecap:butt;stroke-linejoin:miter;stroke-opacity:1"/><path d="m84.466 3133.746-34.257-5.624" style="fill:none;stroke:teal;stroke-width:.264583px;stroke-linecap:butt;stroke-linejoin:miter;stroke-opacity:1"/><text xml:space="preserve" style="font-size:14.6667px;line-height:1.25;font-family:sans-serif;white-space:pre;shape-inside:url(#h);display:inline;fill:teal" transform="matrix(.26458 0 0 .26458 -43.411 709.34)"><tspan x="439.934" y="9170.355">r2</tspan></text><text xml:space="preserve" style="font-size:14.6667px;line-height:1.25;font-family:sans-serif;white-space:pre;shape-inside:url(#i);display:inline" transform="matrix(.26458 0 0 .26458 17.048 679.115)"><tspan x="310.893" y="9172.18">p5</tspan></text><path d="M-2830 1280.446a33.9 33.9 0 0 1-27.124.43 33.9 33.9 0 0 1-18.755-19.599" style="fill:none;stroke:#000;stroke-width:.264583" transform="scale(-1 1) rotate(-64.483)"/><text xml:space="preserve" style="font-size:14.6667px;line-height:1.25;font-family:sans-serif;white-space:pre;shape-inside:url(#j);display:inline" transform="matrix(.26458 0 0 .26458 -56.674 437.086)"><tspan x="423.248" y="10190.342">p7</tspan></text><path d="m84.49 3133.846 13.288-28.47M93.308 3108.398s.184 1.497.713 1.938c.312.26 1.2.207 1.2.207" style="fill:none;stroke:#f0f;stroke-width:.264583px;stroke-linecap:butt;stroke-linejoin:miter;stroke-opacity:1"/><text xml:space="preserve" style="font-size:12px;line-height:1.25;font-family:sans-serif;white-space:pre;shape-inside:url(#k);display:inline;fill:#f0f" transform="matrix(.26458 0 0 .26458 -27.908 353.531)"><tspan x="450.467" y="10470.363">1:l54</tspan></text><text xml:space="preserve" style="font-size:12px;line-height:1.25;font-family:sans-serif;white-space:pre;shape-inside:url(#l);display:inline;fill:#f0f" transform="matrix(.26458 0 0 .26458 -22.55 341.459)"><tspan x="450.467" y="10470.363">2:a457</tspan></text><path d="m60.871 3129.852 8.514-5.833" style="fill:none;stroke:green;stroke-width:.264583px;stroke-linecap:butt;stroke-linejoin:miter;stroke-opacity:1"/></g></svg>