<svg xmlns="http://www.w3.org/2000/svg" width="262.014" height="195.652" viewBox="0 0 69.325 51.766"><defs><path id="a" d="M232.476 161.365h28.095v22.502h-28.095z"/><path id="b" d="M63.429 333.065h256.255v34.363H63.429z"/><path id="c" d="M309.291 1871.785h43.699v17.924h-43.699z"/><path id="d" d="M232.476 161.365h28.095v22.502h-28.095z"/><path id="e" d="M309.291 1871.785h43.699v17.924h-43.699z"/></defs><path d="M37.07 1298.262h69.06v51.502H37.07z" style="fill:#fff;stroke:#fff;stroke-width:.264583;stroke-dasharray:none;stroke-dashoffset:0" transform="translate(-36.938 -1298.13)"/><path d="M70.414 1319.873h6.68" style="fill:none;stroke:#999;stroke-width:.264583px;stroke-linecap:butt;stroke-linejoin:miter;stroke-opacity:1" transform="translate(-36.938 -1298.13)"/><text xml:space="preserve" style="font-size:14.6667px;line-height:1.25;font-family:sans-serif;white-space:pre;shape-inside:url(#a);display:inline" transform="matrix(.26458 0 0 .26458 -34.693 -23.49)"><tspan x="232.477" y="174.342">p1</tspan></text><text xml:space="preserve" style="font-size:14.6667px;line-height:1.25;font-family:sans-serif;white-space:pre;shape-inside:url(#b);display:inline" transform="matrix(.26458 0 0 .26458 -15.874 -41.738)"><tspan x="63.43" y="346.041">construction of line intersection 1</tspan></text><path d="m70.414 1319.873 20.46 22.853M53.664 1301.16l16.75 18.713" style="fill:none;stroke:green;stroke-width:.264583px;stroke-linecap:butt;stroke-linejoin:miter;stroke-opacity:1" transform="translate(-36.938 -1298.13)"/><path d="M69.4 1318.46s1.67-.595 2.32-.173c.43.278.521 1.446.521 1.446" style="fill:none;stroke:#00f;stroke-width:.264583px;stroke-linecap:butt;stroke-linejoin:miter;stroke-opacity:1" transform="translate(-36.938 -1298.13)"/><text xml:space="preserve" style="font-size:8px;line-height:1.25;font-family:sans-serif;white-space:pre;shape-inside:url(#c);display:inline;fill:#00f" transform="matrix(.26458 0 0 .26458 -46.198 -476.285)"><tspan x="309.291" y="1878.863">ca1</tspan></text><path d="m69.826 1320.618 1.176-1.49M69.669 1319.285l1.49 1.176" style="fill:none;stroke:#000;stroke-width:.264583px;stroke-linecap:butt;stroke-linejoin:miter;stroke-opacity:1" transform="translate(-36.938 -1298.13)"/><path d="M79.414 1340.05h6.681" style="fill:none;stroke:#999;stroke-width:.264583px;stroke-linecap:butt;stroke-linejoin:miter;stroke-opacity:1" transform="translate(-36.938 -1298.13)"/><path d="m96.628 1303.102-18.066 38.404" style="fill:none;stroke:green;stroke-width:.264583px;stroke-linecap:butt;stroke-linejoin:miter;stroke-opacity:1" transform="translate(-36.938 -1298.13)"/><path d="m78.722 1340.919 1.176-1.49M78.565 1339.586l1.49 1.176" style="fill:none;stroke:#000;stroke-width:.264583px;stroke-linecap:butt;stroke-linejoin:miter;stroke-opacity:1" transform="translate(-36.938 -1298.13)"/><text xml:space="preserve" style="font-size:14.6667px;line-height:1.25;font-family:sans-serif;white-space:pre;shape-inside:url(#d);display:inline" transform="matrix(.26458 0 0 .26458 -24.755 -1.385)"><tspan x="232.477" y="174.342">p2</tspan></text><path d="M79.804 1338.76s.91-.066 1.201.219c.257.25.22 1.053.22 1.053" style="fill:none;stroke:#00f;stroke-width:.264583px;stroke-linecap:butt;stroke-linejoin:miter;stroke-opacity:1" transform="translate(-36.938 -1298.13)"/><text xml:space="preserve" style="font-size:8px;line-height:1.25;font-family:sans-serif;white-space:pre;shape-inside:url(#e);display:inline;fill:#00f" transform="matrix(.26458 0 0 .26458 -37.244 -455.985)"><tspan x="309.291" y="1878.863">ca2</tspan></text><path d="m81.715 1334.008 1.176-1.49M81.558 1332.675l1.49 1.176" style="fill:none;stroke:#f60;stroke-width:.264583px;stroke-linecap:butt;stroke-linejoin:miter;stroke-opacity:1" transform="translate(-36.938 -1298.13)"/><path d="m80.706 1343.628-16.9-38.757" style="fill:none;stroke:#b3b3b3;stroke-width:.264582px;stroke-linecap:butt;stroke-linejoin:miter;stroke-opacity:1" transform="translate(-36.938 -1298.13)"/></svg>