<svg xmlns="http://www.w3.org/2000/svg" width="441.824" height="200.004" viewBox="0 0 116.899 52.918"><defs><path id="i" d="M109.695 6235.049h371.012v58.697H109.695z"/><path id="a" d="M204.919 6213.614h174.127v54.614H204.919z"/><path id="h" d="M77.645 6256.599h134.812v53.938H77.645z"/><path id="g" d="M80.894 6222.453h203.185v47.973H80.894z"/><path id="e" d="M346.661 6118.903h155.855v47.415H346.661z"/><path id="f" d="M136.953 6126.471H322.07v46.357H136.953z"/><path id="b" d="M204.919 6213.614h174.127v54.614H204.919z"/><path id="c" d="M204.919 6213.614h174.127v54.614H204.919z"/><path id="d" d="M204.919 6213.614h174.127v54.614H204.919z"/></defs><path d="M15.235 1609.643H131.87v52.653H15.235z" style="fill:#fff;stroke:#fff;stroke-width:.264583" transform="translate(-15.102 -1609.51)"/><path d="M42.174 1620.28h44.061v13.113H42.174z" style="fill:#fff;stroke:#008033;stroke-width:.264583" transform="translate(-15.102 -1609.51)"/><text xml:space="preserve" style="font-size:14.6667px;line-height:1.25;font-family:sans-serif;white-space:pre;shape-inside:url(#a)" transform="matrix(.26458 0 0 .26458 -25.537 -1631.685)"><tspan x="204.918" y="6226.59">.addPointA(x,y)
</tspan><tspan x="204.918" y="6244.923">.addSegStrokeA(x,y)</tspan></text><path d="M86.235 1620.28h44.061v13.113H86.235zM42.174 1633.392h44.061v13.113H42.174z" style="fill:#fff;stroke:#008033;stroke-width:.264583" transform="translate(-15.102 -1609.51)"/><path d="M86.235 1633.392h44.061v13.113H86.235z" style="fill:#fff;stroke:#008033;stroke-width:.264583" transform="translate(-15.102 -1609.51)"/><path d="M42.174 1611.806h44.061v8.474H42.174zM86.235 1611.806h44.061v8.474H86.235zM17.813 1620.28h24.361v13.113H17.813z" style="fill:#f2f2f2;stroke:#008033;stroke-width:.264583" transform="translate(-15.102 -1609.51)"/><path d="M17.813 1633.392h24.361v13.113H17.813z" style="fill:#f2f2f2;stroke:#008033;stroke-width:.264583" transform="translate(-15.102 -1609.51)"/><text xml:space="preserve" style="font-size:14.6667px;line-height:1.25;font-family:sans-serif;white-space:pre;shape-inside:url(#b);display:inline" transform="matrix(.26458 0 0 .26458 -25.041 -1618.369)"><tspan x="204.918" y="6226.59">.addPointR(x,y)
</tspan><tspan x="204.918" y="6244.923">.addSegStrokeR(x,y)</tspan></text><text xml:space="preserve" style="font-size:14.6667px;line-height:1.25;font-family:sans-serif;white-space:pre;shape-inside:url(#c);display:inline" transform="matrix(.26458 0 0 .26458 18.44 -1631.481)"><tspan x="204.918" y="6226.59">.addPointAP(a,l)
</tspan><tspan x="204.918" y="6244.923">.addSegStrokeAP(a,l)</tspan></text><text xml:space="preserve" style="font-size:14.6667px;line-height:1.25;font-family:sans-serif;white-space:pre;shape-inside:url(#d);display:inline" transform="matrix(.26458 0 0 .26458 18.418 -1618.369)"><tspan x="204.918" y="6226.59">.addPointRP(a,l)
</tspan><tspan x="204.918" y="6244.923">.addSegStrokeRP(a,l)</tspan></text><text xml:space="preserve" style="font-size:14.6667px;line-height:1.25;font-family:sans-serif;white-space:pre;shape-inside:url(#e)" transform="matrix(.26458 0 0 .26458 -3.562 -1614.414)"><tspan x="346.66" y="6131.879">Polar</tspan></text><text xml:space="preserve" style="font-size:14.6667px;line-height:1.25;font-family:sans-serif;white-space:pre;shape-inside:url(#f)" transform="matrix(.26458 0 0 .26458 3.657 -1616.417)"><tspan x="136.953" y="6139.447">Cartesian</tspan></text><text xml:space="preserve" style="font-size:14.6667px;line-height:1.25;font-family:sans-serif;white-space:pre;shape-inside:url(#g)" transform="matrix(.26458 0 0 .26458 -14.904 -1631.019)"><tspan x="80.893" y="6235.43">Absolute</tspan></text><text xml:space="preserve" style="font-size:14.6667px;line-height:1.25;font-family:sans-serif;white-space:pre;shape-inside:url(#h)" transform="matrix(.26458 0 0 .26458 -13.564 -1626.94)"><tspan x="77.645" y="6269.574">Relative</tspan></text><text xml:space="preserve" style="font-size:14.6667px;line-height:1.25;font-family:sans-serif;white-space:pre;shape-inside:url(#i)" transform="matrix(.26458 0 0 .26458 -4.116 -1609.791)"><tspan x="109.695" y="6248.025">.addPointR(x,y).addSegStroke()
</tspan><tspan x="109.695" y="6266.359">.addPointR(x,y).addSegArc(radius, large, ccw)</tspan></text></svg>