<svg xmlns="http://www.w3.org/2000/svg" width="440.658" height="361.906" viewBox="0 0 116.591 95.754"><defs><path id="n" d="M288.075 5783.991h68.127v32.286h-68.127z"/><path id="a" d="M146.25 5627.435h41.219v22.597H146.25z"/><path id="c" d="M208.574 5528.658h54.316v20.547h-54.316z"/><path id="d" d="M246.484 5571.584h29.84v26.101h-29.84z"/><path id="e" d="M63.305 5625.199h42.681v37.442H63.305z"/><path id="f" d="M84.729 5640.775h439.798v81.167H84.729z"/><path id="g" d="M412.272 5542.123h39.778v20.975h-39.778z"/><path id="h" d="M396.593 5587.895h48.606v16.677h-48.606z"/><path id="i" d="M222.058 5443.105h47.281v25.973h-47.281z"/><path id="j" d="M219.351 5479.914h46.181v19.156h-46.181z"/><path id="k" d="M247.111 5703.403h144.537v36.481H247.111z"/><path id="l" d="M246.484 5571.584h29.84v26.101h-29.84z"/><marker id="m" markerHeight="5" markerWidth="8.75" orient="auto-start-reverse" preserveAspectRatio="xMidYMid" refX="0" refY="0" style="overflow:visible" viewBox="0 0 8.75 5"><path d="m0 0 5-5-17.5 5L5 5Z" style="fill:context-stroke;fill-rule:evenodd;stroke:none" transform="scale(-.5)"/></marker><marker id="b" markerHeight="5" markerWidth="8.75" orient="auto-start-reverse" preserveAspectRatio="xMidYMid" refX="0" refY="0" style="overflow:visible" viewBox="0 0 8.75 5"><path d="m0 0 5-5-17.5 5L5 5Z" style="fill:context-stroke;fill-rule:evenodd;stroke:none" transform="scale(-.5)"/></marker></defs><path d="M10.228 1500.477h116.326v95.49H10.228z" style="fill:#fff;stroke:#fff;stroke-width:.264583" transform="translate(-10.096 -1500.344)"/><path d="M79.475 1532.108H90.5" style="fill:none;stroke:#ccc;stroke-width:.264583px;stroke-linecap:butt;stroke-linejoin:miter;stroke-opacity:1" transform="translate(-10.096 -1500.344)"/><path d="M79.24 1531.767v34.938" style="fill:none;stroke:#dee3db;stroke-width:.264583px;stroke-linecap:butt;stroke-linejoin:miter;stroke-opacity:1" transform="translate(-10.096 -1500.344)"/><path d="M79.305 1531.467a22.44 22.637 0 0 1 .821 28.844 22.44 22.637 0 0 1-27.93 6.224 22.44 22.637 0 0 1-11.3-26.508" style="fill:none;fill-opacity:.901961;stroke:#f6d5ff;stroke-width:.264583;stroke-opacity:1" transform="translate(-10.096 -1500.344)"/><path d="M40.672 1540.093v27.055M25.486 1540.063h15.278M25.342 1531.715h53.972" style="fill:none;stroke:#dee3db;stroke-width:.264583px;stroke-linecap:butt;stroke-linejoin:miter;stroke-opacity:1" transform="translate(-10.096 -1500.344)"/><path d="M-40.667-1540.148a22.44 22.637 0 0 1-16.744 15.718 22.44 22.637 0 0 1-21.71-7.26" style="fill:none;fill-opacity:.901961;stroke:purple;stroke-width:.264583;stroke-opacity:1" transform="rotate(180 -5.048 -750.172)"/><path d="M62.19 1546.548h24.222" style="fill:none;stroke:#b3b3b3;stroke-width:.264583px;stroke-linecap:butt;stroke-linejoin:miter;stroke-opacity:1" transform="translate(-10.096 -1500.344)"/><path d="m62.19 1546.548 16.93-14.858M62.19 1546.548l-21.523-6.4" style="fill:none;stroke:#faa;stroke-width:.264583px;stroke-linecap:butt;stroke-linejoin:miter;stroke-opacity:1" transform="translate(-10.096 -1500.344)"/><text xml:space="preserve" style="font-size:14.6667px;line-height:1.25;font-family:sans-serif;white-space:pre;shape-inside:url(#a);display:inline;fill:#ff8080;stroke-width:.83907" transform="matrix(.31533 0 0 .31533 -5.543 -1736.198)"><tspan x="146.25" y="5640.412">r</tspan></text><path d="M68.454 1522.348s-3.67-1.139-5.56-1.125c-1.805.013-5.29 1.149-5.29 1.149" style="fill:none;stroke:#04a;stroke-width:.264583px;stroke-linecap:butt;stroke-linejoin:miter;stroke-opacity:1;marker-end:url(#b)" transform="translate(-10.096 -1500.344)"/><text xml:space="preserve" style="font-size:14.6667px;line-height:1.25;font-family:sans-serif;white-space:pre;shape-inside:url(#c);display:inline;fill:#0055d4;stroke-width:.83907" transform="matrix(.31533 0 0 .31533 -16.891 -1727.121)"><tspan x="208.574" y="5541.635">ccw</tspan></text><path d="m39.226 1541.087 2.81-1.906M39.577 1538.835l2.128 2.545" style="fill:none;stroke:#000;stroke-width:.264583px;stroke-linecap:butt;stroke-linejoin:miter;stroke-opacity:1" transform="translate(-10.096 -1500.344)"/><text xml:space="preserve" style="font-size:14.6667px;line-height:1.25;font-family:sans-serif;white-space:pre;shape-inside:url(#d);display:inline;stroke-width:.83907" transform="matrix(.31533 0 0 .31533 -8.492 -1724.727)"><tspan x="246.484" y="5584.561">p1</tspan></text><text xml:space="preserve" style="font-size:14.6667px;line-height:1.25;font-family:sans-serif;white-space:pre;shape-inside:url(#e);display:inline;stroke-width:.83907" transform="matrix(.31533 0 0 .31533 3.977 -1733.339)"><tspan x="63.305" y="5638.176">p2</tspan></text><text xml:space="preserve" style="font-size:14.6667px;line-height:1.25;font-family:sans-serif;white-space:pre;shape-inside:url(#f);display:inline" transform="matrix(.26458 0 0 .26458 -19.7 -1419.103)"><tspan x="84.729" y="5653.752">contour(p1x, p1y)
</tspan><tspan x="84.729" y="5672.086">  .addPointA(p2x, p2y).addSegArc(r, large, ccw)
</tspan><tspan x="84.729" y="5690.419">  .addPointA(p3x, p3y).addPointA(p2x, p2y).addSegArc2()
</tspan><tspan x="84.729" y="5708.752">  .addPointA(p2x, p2y).addSegArc3(a0a1, firstNlast)</tspan></text><text xml:space="preserve" style="font-size:14.6667px;line-height:1.25;font-family:sans-serif;white-space:pre;shape-inside:url(#g);display:inline;fill:#6c6753;stroke-width:.83907" transform="matrix(.31533 0 0 .31533 -63.291 -1682.237)"><tspan x="412.271" y="5555.1">p1x</tspan></text><text xml:space="preserve" style="font-size:14.6667px;line-height:1.25;font-family:sans-serif;white-space:pre;shape-inside:url(#h);display:inline;fill:#6c6753;stroke-width:.83907" transform="matrix(.31533 0 0 .31533 -101.166 -1696.733)"><tspan x="396.592" y="5600.871">p2x</tspan></text><text xml:space="preserve" style="font-size:14.6667px;line-height:1.25;font-family:sans-serif;white-space:pre;shape-inside:url(#i);display:inline;fill:#6c6753;stroke-width:.83907" transform="matrix(.31533 0 0 .31533 -62.84 -1688.78)"><tspan x="222.059" y="5456.082">p1y</tspan></text><text xml:space="preserve" style="font-size:14.6667px;line-height:1.25;font-family:sans-serif;white-space:pre;shape-inside:url(#j);display:inline;fill:#6c6753;stroke-width:.83907" transform="matrix(.31533 0 0 .31533 -62.404 -1691.512)"><tspan x="219.352" y="5492.891">p2y</tspan></text><path d="M79.184 1531.668a22.44 22.637 0 0 1-16.744 15.717 22.44 22.637 0 0 1-21.71-7.26" style="fill:none;fill-opacity:.901961;stroke:#f6d5ff;stroke-width:.264583;stroke-opacity:1" transform="translate(-10.096 -1500.344)"/><path d="M-40.85-1540.002a22.44 22.637 0 0 1 .82 28.844 22.44 22.637 0 0 1-27.93 6.224 22.44 22.637 0 0 1-11.3-26.508" style="fill:none;fill-opacity:.901961;stroke:#f6d5ff;stroke-width:.264583;stroke-opacity:1" transform="rotate(180 -5.048 -750.172)"/><text xml:space="preserve" style="font-size:14.6667px;line-height:1.25;font-family:sans-serif;white-space:pre;shape-inside:url(#k);display:inline;fill:green;stroke-width:.83907" transform="matrix(.31533 0 0 .31533 -48.564 -1777.382)"><tspan x="247.111" y="5716.379">!large</tspan></text><path d="m65.456 1525.913 1.149-3.195M64.652 1523.355l2.743 1.866" style="fill:none;stroke:#000;stroke-width:.264583px;stroke-linecap:butt;stroke-linejoin:miter;stroke-opacity:1" transform="translate(-10.096 -1500.344)"/><text xml:space="preserve" style="font-size:14.6667px;line-height:1.25;font-family:sans-serif;white-space:pre;shape-inside:url(#l);display:inline;stroke-width:.83907" transform="matrix(.31533 0 0 .31533 -23.504 -1731.888)"><tspan x="246.484" y="5584.561">p3</tspan></text><path d="m79.48 1532.213-6.33-7.34" style="fill:none;stroke:#d40000;stroke-width:.264583px;stroke-linecap:butt;stroke-linejoin:miter;stroke-opacity:1;marker-end:url(#m)" transform="translate(-10.096 -1500.344)"/><path d="m78.699 1533.415 1.149-3.196M77.657 1531.387l3.218.805" style="fill:none;stroke:#000;stroke-width:.264583px;stroke-linecap:butt;stroke-linejoin:miter;stroke-opacity:1" transform="translate(-10.096 -1500.344)"/><path d="M83.329 1532.38s.371-2.504-.23-3.512c-.599-1.004-1.84-1.57-2.97-1.864-.883-.229-1.872-.16-2.73.145-.498.178-1.28.938-1.28.938" style="fill:none;stroke:#d40000;stroke-width:.264583px;stroke-linecap:butt;stroke-linejoin:miter;stroke-opacity:1" transform="translate(-10.096 -1500.344)"/><text xml:space="preserve" style="font-size:14.6667px;line-height:1.25;font-family:sans-serif;white-space:pre;shape-inside:url(#n);display:inline;stroke-width:.83907" transform="matrix(.31533 0 0 .31533 -16.669 -1798.168)"><tspan x="288.076" y="5796.967">a1</tspan></text></svg>