<svg xmlns="http://www.w3.org/2000/svg" width="385.217" height="299.308" viewBox="0 0 101.922 79.192"><defs><path id="f" d="M62.22 7502.089h204.991v33.83H62.22z"/><path id="d" d="M342.782 7449.499h166.861v55.132H342.782z"/><path id="c" d="M144.655 7468.18h195.123v51.393H144.655z"/><path id="b" d="M252.948 7445.747H414.56v39.116H252.948z"/><path id="a" d="M79.781 7070.142H414.6v49.166H79.781z"/><marker id="e" markerHeight="5" markerWidth="8.75" orient="auto-start-reverse" preserveAspectRatio="xMidYMid" refX="0" refY="0" style="overflow:visible" viewBox="0 0 8.75 5"><path d="m0 0 5-5-17.5 5L5 5Z" style="fill:context-stroke;fill-rule:evenodd;stroke:none" transform="scale(-.5)"/></marker></defs><g transform="translate(16.653 -53.872)"><rect width="101.657" height="78.928" x="-16.521" y="54.005" ry="0" style="fill:#fff;stroke:#fff;stroke-width:.264583"/><path d="M-13.608-113.346H96.67V30.928H-13.608z" style="fill:#fff;stroke:#fff;stroke-width:.264583"/><path d="m9.967-7.43 1.014-.138.676.072 1.752.786v1.068l-1.752.786-.676.072-1.014-.138-.469 1.902.963.349.564.378 1.187 1.51-.496.946-1.918-.12-.631-.249L8.333-.8 7.033.666l.691.756.324.597.35 1.89-.88.606-1.642-.996-.443-.515-.463-.914-1.831.695.26.99.009.68-.569 1.834-1.06.13-.991-1.646-.153-.662.015-1.024-1.945-.236-.23.998-.307.606-1.357 1.36-.998-.379L-4.3 3.52l.171-.657.49-.9L-5.251.849l-.668.777-.553.393-1.833.575-.709-.8.791-1.75.458-.502.851-.57-.91-1.734-.952.377-.673.092-1.89-.344-.256-1.037 1.514-1.182.638-.232 1.019-.108v-1.96l-1.019-.108-.638-.232-1.514-1.182.256-1.037 1.89-.343.673.09.952.378.91-1.734-.851-.57-.458-.501-.79-1.75.708-.8 1.833.574.553.393.668.777 1.612-1.113-.49-.9-.171-.656.113-1.918.998-.379 1.357 1.36.307.606.23.998 1.945-.236-.015-1.024.153-.661.991-1.646 1.06.129.569 1.835-.01.679-.26.99 1.832.695.463-.914.443-.514 1.642-.997.88.607-.35 1.889-.324.597-.69.756 1.299 1.466.834-.594.631-.25 1.918-.118.496.945-1.187 1.51-.564.379-.963.348z" style="fill:none;stroke:#000;stroke-width:.264583"/><circle cx=".788" cy="-6.176" r="2.646" style="fill:none;stroke:#000;stroke-width:.264583"/><path d="m47.494 10.312 1.015-.138.675.072 1.753.786V12.1l-1.753.786-.675.072-1.015-.138-.469 1.902.963.349.564.377 1.187 1.51-.496.946-1.917-.118-.632-.25-.834-.594-1.299 1.466.69.756.324.597.35 1.89-.88.606-1.642-.996-.443-.515-.462-.914-1.832.695.26.99.01.68-.57 1.834-1.06.13-.99-1.646-.154-.662.015-1.024-1.945-.236-.23.998-.307.605-1.356 1.36-.999-.378-.113-1.917.172-.657.49-.9-1.613-1.113-.668.777-.553.393-1.833.574-.708-.799.79-1.75.458-.502.851-.57-.91-1.734-.952.377-.673.091-1.89-.343-.255-1.037 1.514-1.182.638-.232 1.018-.108v-1.96l-1.018-.108-.638-.232-1.514-1.182.255-1.037 1.89-.343.673.09.952.378.91-1.734-.851-.57-.457-.501-.791-1.75.708-.8 1.833.574.553.393.668.777 1.612-1.113-.49-.9-.17-.656.112-1.918.999-.379 1.356 1.36.307.606.23.998 1.945-.236-.015-1.024.153-.661.991-1.646 1.06.129.57 1.835-.01.679-.26.99 1.832.695.462-.914.443-.514 1.643-.997.879.607-.35 1.889-.323.597-.69.756L45.86 6.19l.834-.594.632-.25 1.917-.118.496.945-1.187 1.51-.564.379-.963.348z" style="fill:none;stroke:#000;stroke-width:.264583"/><circle cx="38.315" cy="11.566" r="2.646" style="fill:none;stroke:#000;stroke-width:.264583"/><path d="m82.578-.568 1.014-.139.676.073L86.02.15V1.22l-1.752.786-.676.073-1.014-.139-.47 1.902.964.349.564.378 1.187 1.51-.496.946-1.918-.12-.631-.249-.834-.594-1.3 1.466.691.757.324.597.35 1.888-.88.607-1.642-.996-.443-.515-.463-.913-1.831.694.26.99.009.68-.569 1.835-1.06.128-.991-1.645-.154-.661.016-1.024-1.945-.237-.23.998-.307.606-1.357 1.36-.998-.378-.113-1.918.171-.657.49-.9-1.612-1.112-.668.776-.553.394-1.834.574-.708-.8.791-1.75.458-.502.851-.57-.91-1.734-.952.378-.673.09-1.89-.343-.256-1.036 1.514-1.183.638-.232 1.019-.108V-.294l-1.019-.108-.638-.232-1.514-1.183.256-1.037 1.89-.343.673.091.952.378.91-1.735-.851-.57-.458-.501-.79-1.75.707-.8 1.834.574.553.394.668.776 1.612-1.112-.49-.9-.171-.657.113-1.918.998-.378 1.357 1.36.307.606.23.997 1.945-.236-.016-1.024.154-.661.991-1.646 1.06.13.569 1.834-.01.679-.26.99 1.832.695.463-.914.443-.514 1.642-.996.88.606-.35 1.89-.324.596-.69.756 1.299 1.467.834-.595.631-.249 1.918-.119.496.946-1.187 1.51-.564.378-.963.349z" style="fill:none;stroke:#000;stroke-width:.264583"/><circle cx="73.399" cy=".685" r="2.646" style="fill:none;stroke:#000;stroke-width:.264583"/><path d="m90.69-84.593 1.015-.139.675.073 1.753.786v1.068l-1.753.785-.675.073-1.015-.139-.468 1.902.963.35.564.377 1.187 1.51-.497.946-1.917-.119-.631-.25-.834-.594-1.3 1.467.69.756.325.597.349 1.889-.879.606-1.642-.996-.444-.514-.462-.914-1.832.694.26.991.01.679-.57 1.835-1.06.129-.99-1.646-.154-.661.015-1.024-1.945-.236-.23.997-.307.606-1.356 1.36-.999-.378-.113-1.918.172-.657.49-.9-1.613-1.112-.668.776-.553.394-1.833.574-.708-.8.79-1.75.458-.502.851-.569-.91-1.735-.952.378-.673.091-1.89-.343-.256-1.037 1.514-1.183.639-.232 1.018-.108v-1.959l-1.018-.108-.639-.232-1.514-1.183.256-1.036 1.89-.344.673.091.952.378.91-1.735-.851-.569-.457-.502-.791-1.75.708-.8 1.833.574.553.394.668.776 1.612-1.112-.49-.9-.17-.657.112-1.918.999-.378 1.356 1.36.307.606.23.998 1.945-.237-.015-1.024.153-.66.991-1.646 1.06.128.57 1.835-.01.68-.26.99 1.832.694.462-.913.444-.515 1.642-.996.879.607-.35 1.888-.323.597-.69.757 1.299 1.466.834-.594.631-.25 1.917-.119.497.946-1.187 1.51-.564.378-.963.349z" style="fill:none;stroke:#000;stroke-width:.264583"/><circle cx="81.512" cy="-83.339" r="2.646" style="fill:none;stroke:#000;stroke-width:.264583"/><path d="m63.508-100.512 1.014-.138.675.072 1.753.786v1.068l-1.753.786-.675.072-1.014-.139-.47 1.903.964.348.564.378 1.187 1.51-.497.946-1.917-.119-.631-.25-.834-.593-1.3 1.466.691.756.324.597.35 1.889-.88.607-1.642-.997-.443-.514-.463-.914-1.831.695.26.99.009.68-.57 1.834-1.06.129-.99-1.646-.154-.661.015-1.024-1.944-.236-.23.998-.308.605-1.356 1.36-.999-.378-.113-1.918.172-.657.49-.9-1.613-1.112-.667.777-.554.393-1.833.574-.708-.8.79-1.75.458-.502.852-.569-.91-1.734-.953.377-.673.091-1.89-.343-.255-1.037 1.514-1.182.638-.232 1.018-.109v-1.959l-1.018-.108-.638-.232-1.514-1.182.255-1.037 1.89-.344.673.092.952.377.91-1.734-.85-.57-.458-.502-.791-1.75.708-.8 1.833.575.554.393.667.777 1.612-1.113-.489-.9-.172-.657.113-1.917.999-.379 1.356 1.36.307.606.23.998 1.945-.236-.015-1.024.153-.662.992-1.645 1.06.129.569 1.835-.01.678-.26.991 1.832.695.463-.914.443-.515 1.642-.996.88.607-.35 1.889-.324.597-.69.756 1.299 1.466.834-.594.631-.25 1.917-.118.497.945-1.187 1.51-.564.378-.963.35z" style="fill:none;stroke:#000;stroke-width:.264583"/><circle cx="54.329" cy="-99.258" r="2.646" style="fill:none;stroke:#000;stroke-width:.264583"/><path d="m22.248-94.754 1.015-.139.675.073 1.753.785v1.068l-1.753.786-.675.073-1.015-.139-.469 1.902.963.349.564.378 1.187 1.51-.496.946-1.917-.12-.632-.249-.834-.594-1.299 1.466.69.757.325.597.349 1.888-.88.607-1.642-.996-.443-.515-.462-.913-1.832.694.26.99.009.68-.569 1.835-1.06.128-.991-1.645-.153-.661.015-1.024-1.945-.237-.23.998-.307.606-1.356 1.36-1-.378-.112-1.918.171-.657.49-.9-1.612-1.112-.668.776-.553.394-1.833.574-.709-.8.791-1.75.458-.502.851-.57-.91-1.734-.952.378-.673.09-1.89-.343-.256-1.036L2.2-92.181l.638-.232 1.019-.108v-1.959l-1.019-.108-.638-.232-1.514-1.183.256-1.037 1.89-.343.673.091.952.378.91-1.735-.851-.57-.458-.501-.79-1.75.708-.8 1.833.574.553.394.668.776 1.612-1.112-.49-.9-.171-.657.113-1.918.999-.378 1.356 1.36.307.606.23.997 1.945-.236-.015-1.024.153-.661.991-1.646 1.06.13.569 1.834-.009.679-.26.99 1.832.695.462-.914.443-.514 1.643-.996.879.606-.35 1.89-.323.596-.69.756 1.298 1.467.834-.595.632-.249 1.917-.119.496.946-1.187 1.51-.564.378-.963.349z" style="fill:none;stroke:#000;stroke-width:.264583"/><circle cx="13.069" cy="-93.501" r="2.646" style="fill:none;stroke:#000;stroke-width:.264583"/><text xml:space="preserve" style="font-size:14.6667px;line-height:1.25;font-family:sans-serif;white-space:pre;shape-inside:url(#a);display:inline" transform="matrix(.26458 0 0 .26458 -32.122 -1845.977)"><tspan x="79.781" y="7083.119">multi-motor joint</tspan></text><path d="m-8.596 81.604 33.276 35.784 54.996-28.453-34.622-31.472Z" style="fill:#d7e3f4;stroke:#000;stroke-width:.264583px;stroke-linecap:butt;stroke-linejoin:miter;stroke-opacity:1"/><path d="m4.862 84.885 4.536 4.743S7.932 91.885 8.3 93.01c.39 1.187 1.797 2.094 3.042 2.189 1.413.107 3.011-.747 3.787-1.933.658-1.006.213-3.6.213-3.6l12.634-6.138s2.365 1.011 3.62 1.05c1.486.045 3.525.257 4.352-.979.734-1.097.216-2.926-.67-3.905-.775-.855-2.183-.925-3.337-.918-.859.005-2.476.713-2.476.713l-3.601-3.807s.575-.525.57-.872c-.013-1.29-.99-2.71-2.187-3.19-1.07-.427-2.514-.044-3.38.715-.617.54-.805 1.497-.823 2.317-.01.446.393 1.281.393 1.281L6.805 82.408s-.835-1.254-1.503-1.457c-.914-.279-2.064-.072-2.823.51-.785.604-1.439 1.714-1.265 2.688.141.794.927 1.572 1.723 1.698.708.112 1.925-.962 1.925-.962zM44.479 102.74c1.758-.624 18.51-8.767 18.51-8.767s1.66-1.093 2.138-1.925c.448-.778.705-1.751.552-2.636-.175-1.01-1.606-2.624-1.606-2.624l-5.689-5.517s-1.383-1.462-2.272-1.884c-.825-.392-1.778-.607-2.688-.53-1.324.115-3.722 1.429-3.722 1.429l-16.159 8.666s-1.167 1.195-1.4 1.965c-.337 1.116-.35 2.426.112 3.496.277.639 1.478 1.478 1.478 1.478l4.641 5.193s1.474 1.277 2.379 1.56c1.186.37 3.726.096 3.726.096zM36.276 69.324l4.942 5.973 7.765-4.167-5.091-5.455z" style="fill:#fff;stroke:#000;stroke-width:.264583px;stroke-linecap:butt;stroke-linejoin:miter;stroke-opacity:1"/><text xml:space="preserve" style="font-size:14.6667px;line-height:1.25;font-family:sans-serif;white-space:pre;shape-inside:url(#b)" transform="matrix(.26458 0 0 .26458 -72.02 -1914.8)"><tspan x="252.947" y="7458.723">pointed corner
</tspan><tspan x="252.947" y="7477.056">a.k.a. unchanged</tspan></text><text xml:space="preserve" style="font-size:14.6667px;line-height:1.25;font-family:sans-serif;white-space:pre;shape-inside:url(#c)" transform="matrix(.26458 0 0 .26458 -52.842 -1866.12)"><tspan x="144.654" y="7481.156">widened corner
</tspan><tspan x="144.654" y="7499.49">a.k.a. enlarged</tspan></text><text xml:space="preserve" style="font-size:14.6667px;line-height:1.25;font-family:sans-serif;white-space:pre;shape-inside:url(#d)" transform="matrix(.26458 0 0 .26458 -39.092 -1862.637)"><tspan x="342.781" y="7462.477">rounded corner
</tspan><tspan x="342.781" y="7480.81">a.k.a. smoothed</tspan></text><path d="M1.418 109.48 9.46 95.664" style="fill:none;stroke:#000;stroke-width:.264583px;stroke-linecap:butt;stroke-linejoin:miter;stroke-opacity:1;marker-end:url(#e)"/><path d="m60.1 108.685 4.023-13.933" style="fill:none;stroke:#000;stroke-width:.264583px;stroke-linecap:butt;stroke-linejoin:miter;stroke-opacity:1;marker-end:url(#e)"/><path d="m28.409 60.106 6.488 7.343" style="fill:none;stroke:#000;stroke-width:.264583px;stroke-linecap:butt;stroke-linejoin:miter;stroke-opacity:1;marker-end:url(#e)"/><text xml:space="preserve" style="font-size:14.6667px;line-height:1.25;font-family:sans-serif;white-space:pre;shape-inside:url(#f)" transform="matrix(.26458 0 0 .26458 -30.09 -1858.373)"><tspan x="62.221" y="7515.066">corner options</tspan></text></g></svg>