<svg xmlns="http://www.w3.org/2000/svg" width="288.04" height="277.273" viewBox="0 0 76.211 73.362"><defs><path id="e" d="M79.05 8300.684h229.944v49.053H79.05z"/><path id="d" d="M307.065 8197.744h48.525v24.999h-48.525z"/><path id="c" d="M343.183 8353.117h64.675v45.493h-64.675z"/><path id="b" d="M204.843 8338.396h83.853v42.639h-83.853z"/><path id="a" d="M86.405 8251.748h70.081v57.682H86.405z"/></defs><g transform="translate(-17.66 -2134.534)"><path d="M17.793 2134.666h75.946v73.097H17.793z" style="fill:#fff;stroke:#fff;stroke-width:.264583"/><path d="m28.948 2179.992 13.425-36.784 37.606 47.645" style="fill:none;stroke:#000;stroke-width:.264583px;stroke-linecap:butt;stroke-linejoin:miter;stroke-opacity:1"/><text xml:space="preserve" style="font-size:14.6667px;line-height:1.25;font-family:sans-serif;white-space:pre;shape-inside:url(#a);display:inline" transform="scale(.26458)"><tspan x="86.404" y="8264.725">p1</tspan></text><text xml:space="preserve" style="font-size:14.6667px;line-height:1.25;font-family:sans-serif;white-space:pre;shape-inside:url(#b);display:inline" transform="matrix(.26458 0 0 .26458 -14.563 -68.632)"><tspan x="204.844" y="8351.371">p2</tspan></text><text xml:space="preserve" style="font-size:14.6667px;line-height:1.25;font-family:sans-serif;white-space:pre;shape-inside:url(#c);display:inline" transform="matrix(.26458 0 0 .26458 -11.813 -18.696)"><tspan x="343.182" y="8366.094">p3</tspan></text><circle cx="45.819" cy="2164.835" r="10.634" style="fill:none;stroke:#d45500;stroke-width:.264583"/><path d="m42.373 2143.208 7.342 49.315" style="fill:none;stroke:#ccc;stroke-width:.264583px;stroke-linecap:butt;stroke-linejoin:miter;stroke-opacity:1"/><path d="m30.442 2159.316 23.6 8.579M60.24 2153.178l-20.61 16.267" style="fill:none;stroke:#b3b3b3;stroke-width:.264583px;stroke-linecap:butt;stroke-linejoin:miter;stroke-opacity:1"/><path d="m45.82 2164.835 6.006 8.775" style="fill:none;stroke:green;stroke-width:.264583px;stroke-linecap:butt;stroke-linejoin:miter;stroke-opacity:1"/><text xml:space="preserve" style="font-size:14.6667px;line-height:1.25;font-family:sans-serif;white-space:pre;shape-inside:url(#d);display:inline;fill:green" transform="matrix(.26458 0 0 .26458 -30.283 -1.438)"><tspan x="307.064" y="8210.721">r</tspan></text><path d="m35.038 2163.423 2.05.75.735-2.237M52.599 2159.156l1.041 1.31 1.395-1.295" style="fill:none;stroke:#666;stroke-width:.264583px;stroke-linecap:butt;stroke-linejoin:miter;stroke-opacity:1"/><path d="M40.041 2149.813s.954.901 1.561.957c.603.055 1.696-.65 1.696-.65M43.265 2148.528s.921.248 1.35.105c.49-.163 1.163-1.02 1.163-1.02" style="fill:none;stroke:#8a0;stroke-width:.264583px;stroke-linecap:butt;stroke-linejoin:miter;stroke-opacity:1"/><text xml:space="preserve" style="font-size:14.6667px;line-height:1.25;font-family:sans-serif;white-space:pre;shape-inside:url(#e);display:inline" transform="matrix(.26458 0 0 .26458 -.787 1.392)"><tspan x="79.051" y="8313.66">cornerRounded(radius)
</tspan><tspan x="79.051" y="8331.993">case stroke-stroke</tspan></text></g></svg>