<svg xmlns="http://www.w3.org/2000/svg" width="408.526" height="284.278" viewBox="0 0 108.089 75.215"><defs><path id="j" d="M75.861 1251.557h277.968v31.994H75.861z"/><path id="i" d="M422.808 1075.957h65.877v20.654h-65.877z"/><path id="h" d="M425.802 1087.446h45.196v19.416h-45.196z"/><path id="g" d="M415.522 1086.896h42.306v20.755h-42.306z"/><path id="f" d="M418.092 1077.212h38.821v32.482h-38.821z"/><path id="e" d="M67.826 1358.391h52.191v24.4H67.826z"/><path id="d" d="M211.671 1334.214h83.303v48.308h-83.303z"/><path id="c" d="M257.87 1223.868h173.457v35.181H257.87z"/><path id="b" d="M331.332 843.462h163.357v40.192H331.332z"/><path id="a" d="M293.505 726.838h149.024v26.215H293.505z"/></defs><g transform="translate(-16.096 -261.516)"><path d="M16.229 261.648h107.824v74.951H16.229z" style="fill:#fff;stroke:#fff;stroke-width:.264583"/><text xml:space="preserve" style="font-size:14.6667px;line-height:1.25;font-family:sans-serif;white-space:pre;shape-inside:url(#a);display:inline;fill:#00f" transform="matrix(.26458 0 0 .26458 12.293 117.308)"><tspan x="293.504" y="739.814">addendum circle</tspan></text><circle cx="46.063" cy="296.669" r="23.86" style="fill:none;stroke:maroon;stroke-width:.264583"/><circle cx="46.063" cy="296.669" r="28.573" style="fill:none;stroke:#00f;stroke-width:.264583"/><circle cx="80.054" cy="283.723" r="12.42" style="fill:none;stroke:maroon;stroke-width:.264583"/><circle cx="80.054" cy="283.723" r="20.667" style="fill:none;stroke:#00f;stroke-width:.264582"/><circle cx="80.054" cy="283.723" r="7.902" style="fill:none;stroke:green;stroke-width:.264583"/><circle cx="46.063" cy="296.669" r="15.775" style="fill:none;stroke:green;stroke-width:.264584"/><text xml:space="preserve" style="font-size:14.6667px;line-height:1.25;font-family:sans-serif;white-space:pre;shape-inside:url(#b);display:inline;fill:maroon" transform="matrix(.26458 0 0 .26458 -8.25 92.88)"><tspan x="331.332" y="856.438">primitive circle</tspan></text><text xml:space="preserve" style="font-size:14.6667px;line-height:1.25;font-family:sans-serif;white-space:pre;shape-inside:url(#c);fill:green" transform="scale(.26458)"><tspan x="257.869" y="1236.844">dedendum circle</tspan></text><path d="m55.997 311.28 11.705 13.807M79.497 292.539l-8.214 31.929" style="fill:none;stroke:green;stroke-width:.264583px;stroke-linecap:butt;stroke-linejoin:miter;stroke-opacity:1"/><path d="m66.192 312.104 12.003 5.952M82.177 296.709l-.17 19.847" style="fill:none;stroke:#a00;stroke-width:.264583px;stroke-linecap:butt;stroke-linejoin:miter;stroke-opacity:1"/><path d="m74.074 307.55 15.007 4.082M90.924 302.937l.966 7.53" style="fill:none;stroke:#00f;stroke-width:.264583px;stroke-linecap:butt;stroke-linejoin:miter;stroke-opacity:1"/><text xml:space="preserve" style="font-size:14.6667px;line-height:1.25;font-family:sans-serif;white-space:pre;shape-inside:url(#d)" transform="matrix(.26458 0 0 .26458 22.844 -71.2)"><tspan x="211.67" y="1347.189">1</tspan></text><text xml:space="preserve" style="font-size:14.6667px;line-height:1.25;font-family:sans-serif;white-space:pre;shape-inside:url(#e)" transform="matrix(.26458 0 0 .26458 27.559 -63.748)"><tspan x="67.826" y="1371.367">2</tspan></text><path d="m89.638 275.625 6.297-4.942" style="fill:none;stroke:#00f;stroke-width:.264583px;stroke-linecap:butt;stroke-linejoin:miter;stroke-opacity:1"/><path d="m42.918 281.372-1.33-8.022" style="fill:none;stroke:green;stroke-width:.264583px;stroke-linecap:butt;stroke-linejoin:miter;stroke-opacity:1"/><text xml:space="preserve" style="font-size:14.6667px;line-height:1.25;font-family:sans-serif;white-space:pre;shape-inside:url(#f);fill:#00f" transform="matrix(.26458 0 0 .26458 -24.097 -16.253)"><tspan x="418.092" y="1090.188">ah1</tspan></text><text xml:space="preserve" style="font-size:14.6667px;line-height:1.25;font-family:sans-serif;white-space:pre;shape-inside:url(#g);fill:green" transform="matrix(.26458 0 0 .26458 -35.282 -15.535)"><tspan x="415.521" y="1099.873">dh1</tspan></text><path d="m82.595 276.418 1.676-4.28" style="fill:none;stroke:green;stroke-width:.264583px;stroke-linecap:butt;stroke-linejoin:miter;stroke-opacity:1"/><text xml:space="preserve" style="font-size:14.6667px;line-height:1.25;font-family:sans-serif;white-space:pre;shape-inside:url(#h);fill:green" transform="matrix(.26458 0 0 .26458 -69.716 -11.536)"><tspan x="425.803" y="1100.422">dh2</tspan></text><text xml:space="preserve" style="font-size:14.6667px;line-height:1.25;font-family:sans-serif;white-space:pre;shape-inside:url(#i);fill:#00f" transform="matrix(.26458 0 0 .26458 -66.888 -16.122)"><tspan x="422.809" y="1088.934">ah2</tspan></text><path d="m44.484 273.039-.33-4.764" style="fill:none;stroke:#00f;stroke-width:.264583px;stroke-linecap:butt;stroke-linejoin:miter;stroke-opacity:1"/><text xml:space="preserve" style="font-size:14.6667px;line-height:1.25;font-family:sans-serif;white-space:pre;shape-inside:url(#j)" transform="scale(.26458)"><tspan x="75.861" y="1264.533">gear addendum and dedendum</tspan></text></g></svg>