<svg xmlns="http://www.w3.org/2000/svg" width="350.807" height="306.926" viewBox="0 0 92.818 81.208"><defs><path id="d" d="M64.681 842.861h345.655v20.31H64.681z"/><path id="c" d="M293.505 726.838h149.024v26.215H293.505z"/><path id="b" d="M230.876 578.865h53.601v20.044h-53.601z"/><path id="a" d="M331.332 843.462h163.357v40.192H331.332z"/></defs><g transform="translate(-15.949 -146.807)"><path d="M16.081 146.939h92.553v80.943H16.081z" style="fill:#fff;stroke:#fff;stroke-width:.264583"/><circle cx="45.62" cy="191.626" r="23.86" style="fill:none;stroke:maroon;stroke-width:.264583"/><circle cx="45.62" cy="191.626" r="28.573" style="fill:none;stroke:#00f;stroke-width:.264583"/><text xml:space="preserve" style="font-size:14.6667px;line-height:1.25;font-family:sans-serif;white-space:pre;shape-inside:url(#a);fill:maroon" transform="matrix(.26458 0 0 .26458 -18.052 -10.98)"><tspan x="331.332" y="856.438">primitive circle</tspan></text><path d="m63.252 208.738 6.238 5.42" style="fill:none;stroke:#a00;stroke-width:.264583px;stroke-linecap:butt;stroke-linejoin:miter;stroke-opacity:1"/><path d="M45.59 171s.659-2.132 1.13-3.14c.38-.813.78-1.64 1.362-2.326.613-.723 1.28-1.541 2.186-1.819.444-.135.937.024 1.386.14.389.101.828.188 1.106.477.503.524.64 1.32.78 2.032.182.92.157 1.878.07 2.811-.1 1.073-.677 3.162-.677 3.162M55.775 173.96s1.546-1.61 2.42-2.298c.706-.556 1.436-1.115 2.263-1.465.873-.37 1.836-.802 2.77-.642.458.079.827.442 1.176.748.302.265.655.54.773.924.214.693-.023 1.466-.217 2.165-.25.903-.704 1.748-1.201 2.542-.572.914-2.027 2.52-2.027 2.52" style="fill:none;stroke:#000;stroke-width:.264583px;stroke-linecap:butt;stroke-linejoin:miter;stroke-opacity:1"/><text xml:space="preserve" style="font-size:14.6667px;line-height:1.25;font-family:sans-serif;white-space:pre;shape-inside:url(#b)" transform="matrix(.26458 0 0 .26458 -5.818 4.8)"><tspan x="230.877" y="591.842">teeth</tspan></text><path d="m54.296 166.578 3.52-4.548M61.39 169.453l-1.317-7.351" style="fill:none;stroke:#000;stroke-width:.264583px;stroke-linecap:butt;stroke-linejoin:miter;stroke-opacity:1"/><text xml:space="preserve" style="font-size:14.6667px;line-height:1.25;font-family:sans-serif;white-space:pre;shape-inside:url(#c);fill:#00f" transform="matrix(.26458 0 0 .26458 -3.364 12.46)"><tspan x="293.504" y="739.814">addendum circle</tspan></text><path d="m71.908 204.875 2.439 2.175" style="fill:none;stroke:#00f;stroke-width:.264583px;stroke-linecap:butt;stroke-linejoin:miter;stroke-opacity:1"/><circle cx="90.583" cy="164.974" r="12.42" style="fill:none;stroke:maroon;stroke-width:.264583"/><circle cx="90.583" cy="164.974" r="16.84" style="fill:none;stroke:#00f;stroke-width:.264583"/><path d="M91.29 174.009s-.93 2.029-1.528 2.967c-.483.757-.987 1.526-1.652 2.13-.702.637-1.47 1.362-2.405 1.519-.458.077-.925-.145-1.356-.319-.372-.15-.796-.293-1.034-.616-.43-.585-.462-1.392-.51-2.116-.061-.936.089-1.882.296-2.796.24-1.052 1.082-3.048 1.082-3.048M83.432 170.394s-2.188.44-3.298.506c-.897.054-1.815.097-2.694-.086-.929-.194-1.966-.39-2.642-1.054-.331-.326-.427-.834-.539-1.285-.097-.39-.23-.817-.108-1.2.22-.691.855-1.191 1.413-1.655.721-.598 1.575-1.033 2.437-1.402.991-.424 3.102-.914 3.102-.914" style="fill:none;stroke:#000;stroke-width:.264583px;stroke-linecap:butt;stroke-linejoin:miter;stroke-opacity:1"/><text xml:space="preserve" style="font-size:14.6667px;line-height:1.25;font-family:sans-serif;white-space:pre;shape-inside:url(#d)" transform="scale(.26458)"><tspan x="64.682" y="855.838">adherence replaced by teeth</tspan></text></g></svg>