<svg xmlns="http://www.w3.org/2000/svg" width="401.377" height="321.553" viewBox="0 0 106.198 85.078"><defs><path id="b" d="M390.748 4224.178h91.064v51.489h-91.064z"/><path id="c" d="M414.066 4158.628h79.122v41.094h-79.122z"/><path id="d" d="M414.066 4158.628h79.122v41.094h-79.122z"/><path id="e" d="M390.748 4224.178h91.064v51.489h-91.064z"/><path id="f" d="M211.081 4197.209h153.646v72.884H211.081z"/><path id="g" d="M87.432 4197.716h325.449v51.35H87.432z"/><marker id="a" markerHeight="5" markerWidth="8.75" orient="auto-start-reverse" preserveAspectRatio="xMidYMid" refX="0" refY="0" style="overflow:visible" viewBox="0 0 8.75 5"><path d="m0 0 5-5-17.5 5L5 5Z" style="fill:context-stroke;fill-rule:evenodd;stroke:none" transform="scale(-.5)"/></marker></defs><g transform="translate(-17.658 -1128.404)"><path d="M17.79 1128.536h105.933v84.813H17.79z" style="fill:#fff;stroke:#fff;stroke-width:.264583"/><circle cx="49.875" cy="1159.206" r="23.86" style="fill:none;stroke:maroon;stroke-width:.264583"/><circle cx="49.875" cy="1159.206" r="28.573" style="fill:none;stroke:#00f;stroke-width:.264583"/><circle cx="99.114" cy="1159.206" r="12.42" style="fill:none;stroke:maroon;stroke-width:.264583"/><circle cx="99.114" cy="1159.206" r="20.667" style="fill:none;stroke:#00f;stroke-width:.264582"/><path d="M49.875 1159.206h49.06" style="fill:none;stroke:#000;stroke-width:.264583px;stroke-linecap:butt;stroke-linejoin:miter;stroke-opacity:1"/><path d="M49.875 1159.206v39.2M98.803 1159.462v39.2" style="fill:none;stroke:#b3b3b3;stroke-width:.264583px;stroke-linecap:butt;stroke-linejoin:miter;stroke-opacity:1"/><path d="M51.486 1197.102h45.742" style="fill:none;stroke:#000;stroke-width:.264583px;stroke-linecap:butt;stroke-linejoin:miter;stroke-opacity:1;marker-start:url(#a);marker-end:url(#Arrow1L-2)"/><path d="M49.875 1159.206 31.07 1144.52" style="fill:none;stroke:#a00;stroke-width:.264583px;stroke-linecap:butt;stroke-linejoin:miter;stroke-opacity:1"/><path d="m49.875 1159.206-11.806-26.02" style="fill:none;stroke:#00f;stroke-width:.264583px;stroke-linecap:butt;stroke-linejoin:miter;stroke-opacity:1"/><path d="m99.114 1159.206 8.913-8.65" style="fill:none;stroke:#a00;stroke-width:.264583px;stroke-linecap:butt;stroke-linejoin:miter;stroke-opacity:1"/><path d="m98.982 1159.338 19.512-7.31" style="fill:none;stroke:#00f;stroke-width:.264583px;stroke-linecap:butt;stroke-linejoin:miter;stroke-opacity:1"/><text xml:space="preserve" style="font-size:14.6667px;line-height:1.25;font-family:sans-serif;white-space:pre;shape-inside:url(#b);display:inline" transform="matrix(.26458 0 0 .26458 -70.46 33.182)"><tspan x="390.748" y="4237.154">pr1</tspan></text><text xml:space="preserve" style="font-size:14.6667px;line-height:1.25;font-family:sans-serif;white-space:pre;shape-inside:url(#c);display:inline" transform="matrix(.26458 0 0 .26458 -64.85 41.079)"><tspan x="414.066" y="4171.605">ar1</tspan></text><text xml:space="preserve" style="font-size:14.6667px;line-height:1.25;font-family:sans-serif;white-space:pre;shape-inside:url(#d);display:inline" transform="matrix(.26458 0 0 .26458 1.94 53.573)"><tspan x="414.066" y="4171.605">ar2</tspan></text><text xml:space="preserve" style="font-size:14.6667px;line-height:1.25;font-family:sans-serif;white-space:pre;shape-inside:url(#e);display:inline" transform="matrix(.26458 0 0 .26458 -5.255 31.395)"><tspan x="390.748" y="4237.154">pr2</tspan></text><text xml:space="preserve" style="font-size:14.6667px;line-height:1.25;font-family:sans-serif;white-space:pre;shape-inside:url(#f);display:inline;stroke-width:.974793" transform="matrix(.27844 0 0 .26458 -.81 86.98)"><tspan x="211.08" y="4210.186">e[max]=ar1+ar2</tspan></text><text xml:space="preserve" style="font-size:14.6667px;line-height:1.25;font-family:sans-serif;white-space:pre;shape-inside:url(#g);display:inline" transform="matrix(.26458 0 0 .26458 -3.101 97.31)"><tspan x="87.432" y="4210.691">inter-axis maximum distance</tspan></text></g></svg>