<svg xmlns="http://www.w3.org/2000/svg" width="399.391" height="362.271" viewBox="0 0 105.672 95.851"><defs><path id="a" d="M166.645 2687.7h41.617v27.514h-41.617z"/><path id="b" d="M316.851 2712.102h47.701v20.77h-47.701z"/><path id="d" d="M218.91 2713.124H409.4v24.943H218.91z"/><path id="e" d="M79.327 2481.229h163.681v22.612H79.327z"/><path id="f" d="M79.327 2481.229h192.789v25.134H79.327z"/><path id="g" d="M46.666 2703.453h226.105v39.248H46.666z"/><path id="i" d="M73.224 2725.996h34.431v43.986H73.224z"/><path id="j" d="M133.393 2744.662h55.744v61.344h-55.744z"/><path id="k" d="M210.085 2744.655h38.356v35.555h-38.356z"/><path id="l" d="M279.073 2746.856h44.978v50.056h-44.978z"/><path id="m" d="M385.47 2748.505h21.198v29.764H385.47z"/><path id="n" d="M81.064 2843.81h254.209v35.798H81.064z"/><path id="p" d="M475.123 2772.067h157.898v48.357H475.123z"/><path id="q" d="M199.199 6379.077h54.369v17.969h-54.369z"/><path id="r" d="M221.883 6301.655h55.589v20.315h-55.589z"/><path id="u" d="M443.356 6678.244h55.902v27.961h-55.902z"/><path id="v" d="M427.137 6607.483h63.946v31.856h-63.946z"/><marker id="o" markerHeight="5" markerWidth="8.75" orient="auto-start-reverse" preserveAspectRatio="xMidYMid" refX="0" refY="0" style="overflow:visible" viewBox="0 0 8.75 5"><path d="m0 0 5-5-17.5 5L5 5Z" style="fill:context-stroke;fill-rule:evenodd;stroke:none" transform="scale(-.5)"/></marker><marker id="c" markerHeight="5" markerWidth="8.75" orient="auto-start-reverse" preserveAspectRatio="xMidYMid" refX="0" refY="0" style="overflow:visible" viewBox="0 0 8.75 5"><path d="m0 0 5-5-17.5 5L5 5Z" style="fill:context-stroke;fill-rule:evenodd;stroke:none" transform="scale(-.5)"/></marker><marker id="h" markerHeight="5" markerWidth="8.75" orient="auto-start-reverse" preserveAspectRatio="xMidYMid" refX="0" refY="0" style="overflow:visible" viewBox="0 0 8.75 5"><path d="m0 0 5-5-17.5 5L5 5Z" style="fill:context-stroke;fill-rule:evenodd;stroke:none" transform="scale(-.5)"/></marker><marker id="s" markerHeight="5" markerWidth="8.75" orient="auto-start-reverse" preserveAspectRatio="xMidYMid" refX="0" refY="0" style="overflow:visible" viewBox="0 0 8.75 5"><path d="m0 0 5-5-17.5 5L5 5Z" style="fill:context-stroke;fill-rule:evenodd;stroke:none" transform="scale(-.5)"/></marker><marker id="t" markerHeight="5" markerWidth="8.75" orient="auto-start-reverse" preserveAspectRatio="xMidYMid" refX="0" refY="0" style="overflow:visible" viewBox="0 0 8.75 5"><path d="m0 0 5-5-17.5 5L5 5Z" style="fill:context-stroke;fill-rule:evenodd;stroke:none" transform="scale(-.5)"/></marker></defs><g transform="translate(-23.251 -1798.81)"><path d="M23.383 1798.942h105.408v95.586H23.383z" style="fill:#fff;stroke:#fff;stroke-width:.264582"/><path d="M69.941 1827.651v15.163" style="fill:none;stroke:#b3b3b3;stroke-width:.264583px;stroke-linecap:butt;stroke-linejoin:miter;stroke-opacity:1"/><circle cx="47.508" cy="1835.266" r="16.194" style="fill:none;stroke:#0cf;stroke-width:.264583"/><circle cx="102.196" cy="1835.266" r="23.609" style="fill:none;stroke:#0cf;stroke-width:.264583"/><path d="M47.508 1835.266h55.032" style="fill:none;stroke:#b3b3b3;stroke-width:.264583px;stroke-linecap:butt;stroke-linejoin:miter;stroke-opacity:1"/><path d="m59.34 1846.447 25.856-27.504" style="fill:none;stroke:#00f;stroke-width:.264583px;stroke-linecap:butt;stroke-linejoin:miter;stroke-opacity:1"/><path d="m47.67 1835.36 11.794 11.081M102.537 1835.245l-17.402-16.36" style="fill:none;stroke:teal;stroke-width:.264583px;stroke-linecap:butt;stroke-linejoin:miter;stroke-opacity:1"/><path d="m84.243 1820.164 1.08 1.008 1.089-1.075M60.464 1845.212l-1.079-1.008-1.089 1.075" style="fill:none;stroke:#4d4d4d;stroke-width:.264583px;stroke-linecap:butt;stroke-linejoin:miter;stroke-opacity:1"/><text xml:space="preserve" style="font-size:14.6667px;line-height:1.25;font-family:sans-serif;white-space:pre;shape-inside:url(#a);display:inline;fill:teal" transform="matrix(.26458 0 0 .26458 8.818 1125.506)"><tspan x="166.645" y="2700.676">blr1</tspan></text><text xml:space="preserve" style="font-size:14.6667px;line-height:1.25;font-family:sans-serif;white-space:pre;shape-inside:url(#b);display:inline;fill:teal" transform="matrix(.26458 0 0 .26458 8.927 1104.918)"><tspan x="316.852" y="2725.078">blr2</tspan></text><path d="M47.6 1835.039v47.19M102.43 1835.173v47.776" style="fill:none;stroke:#ccc;stroke-width:.264583px;stroke-linecap:butt;stroke-linejoin:miter;stroke-opacity:1"/><path d="M49.284 1880.831h51.357" style="fill:none;stroke:#333;stroke-width:.264583px;stroke-linecap:butt;stroke-linejoin:miter;stroke-opacity:1;marker-start:url(#c);marker-end:url(#Arrow1L-75-5)"/><text xml:space="preserve" style="font-size:14.6667px;line-height:1.25;font-family:sans-serif;white-space:pre;shape-inside:url(#d);display:inline" transform="matrix(.26458 0 0 .26458 -3.615 1158.838)"><tspan x="218.91" y="2726.1">e: inter-axis distance</tspan></text><text xml:space="preserve" style="font-size:14.6667px;line-height:1.25;font-family:sans-serif;white-space:pre;shape-inside:url(#e);display:inline" transform="matrix(.26458 0 0 .26458 3.277 1144.697)"><tspan x="79.326" y="2494.205">base-left-circle-1</tspan></text><text xml:space="preserve" style="font-size:14.6667px;line-height:1.25;font-family:sans-serif;white-space:pre;shape-inside:url(#f);display:inline" transform="matrix(.26458 0 0 .26458 68.322 1143.858)"><tspan x="79.326" y="2494.205">base-left-circle-2</tspan></text><path d="m28.47 1805.675 9.013 16.008M117.025 1804.665l-3.302 8.919" style="fill:none;stroke:#0cf;stroke-width:.264583px;stroke-linecap:butt;stroke-linejoin:miter;stroke-opacity:1"/><text xml:space="preserve" style="font-size:14.6667px;line-height:1.25;font-family:sans-serif;white-space:pre;shape-inside:url(#g);display:inline;fill:#a80" transform="matrix(.26458 0 0 .26458 48.6 1097.883)"><tspan x="46.666" y="2716.43">pna=pressure negative angle</tspan></text><path d="M69.87 1841.176s-1.154.284-1.683.152c-.448-.111-1.05-.743-1.05-.743" style="fill:none;stroke:#d4aa00;stroke-width:.264582px;stroke-linecap:butt;stroke-linejoin:miter;stroke-opacity:1;marker-end:url(#h)"/><path d="m71.914 1828.708 2.787-11.152" style="fill:none;stroke:#d4aa00;stroke-width:.264583px;stroke-linecap:butt;stroke-linejoin:miter;stroke-opacity:1"/><text xml:space="preserve" style="font-size:14.6667px;line-height:1.25;font-family:sans-serif;white-space:pre;shape-inside:url(#i);display:inline" transform="matrix(.26458 0 0 .26458 24.23 1112.137)"><tspan x="73.225" y="2738.973">A</tspan></text><text xml:space="preserve" style="font-size:14.6667px;line-height:1.25;font-family:sans-serif;white-space:pre;shape-inside:url(#j);display:inline" transform="matrix(.26458 0 0 .26458 23.432 1121.017)"><tspan x="133.393" y="2757.639">B</tspan></text><text xml:space="preserve" style="font-size:14.6667px;line-height:1.25;font-family:sans-serif;white-space:pre;shape-inside:url(#k);display:inline" transform="matrix(.26458 0 0 .26458 11.05 1105.083)"><tspan x="210.086" y="2757.633">C</tspan></text><text xml:space="preserve" style="font-size:14.6667px;line-height:1.25;font-family:sans-serif;white-space:pre;shape-inside:url(#l);display:inline" transform="matrix(.26458 0 0 .26458 6.973 1090.05)"><tspan x="279.072" y="2759.832">D</tspan></text><text xml:space="preserve" style="font-size:14.6667px;line-height:1.25;font-family:sans-serif;white-space:pre;shape-inside:url(#m);display:inline" transform="matrix(.26458 0 0 .26458 -.017 1103.723)"><tspan x="385.471" y="2761.481">E</tspan></text><text xml:space="preserve" style="font-size:14.6667px;line-height:1.25;font-family:sans-serif;white-space:pre;shape-inside:url(#n);display:inline" transform="matrix(.26458 0 0 .26458 2.715 1137.316)"><tspan x="81.064" y="2856.787">base left circle for involute</tspan></text><path d="M33.983 1829.375s.856-2.318 1.594-3.287c.83-1.09 3.088-2.715 3.088-2.715" style="fill:none;stroke:#000;stroke-width:.264583;stroke-linecap:butt;stroke-linejoin:miter;stroke-opacity:1;marker-start:url(#o)"/><text xml:space="preserve" style="font-size:14.6667px;line-height:1.25;font-family:sans-serif;white-space:pre;shape-inside:url(#p);display:inline" transform="matrix(.26458 0 0 .26458 -70.797 1124.14)"><tspan x="475.123" y="2785.043">line of action
</tspan><tspan x="475.123" y="2803.376">pressure line</tspan></text><path d="m68.73 1857.707-5.227-14.882" style="fill:none;stroke:#00f;stroke-width:.264583px;stroke-linecap:butt;stroke-linejoin:miter;stroke-opacity:1"/><path d="M45.155 1820.147s-.9-1.83-.882-2.813c.023-1.256 1.257-3.552 1.257-3.552h2.283s1.459 2.045 1.592 3.24c.132 1.186-.832 3.48-.832 3.48" style="fill:none;stroke:#000;stroke-width:.264583px;stroke-linecap:butt;stroke-linejoin:miter;stroke-opacity:1"/><path d="M45.143 1813.78s-1.215 2.341-1.21 3.61c.005 1.056 1.032 2.996 1.032 2.996" style="fill:none;stroke:red;stroke-width:.264583px;stroke-linecap:butt;stroke-linejoin:miter;stroke-opacity:1"/><text xml:space="preserve" style="font-style:normal;font-variant:normal;font-weight:400;font-stretch:normal;font-size:14.6667px;line-height:1.25;font-family:sans-serif;-inkscape-font-specification:sans-serif;white-space:pre;shape-inside:url(#q);display:inline;fill:#666" transform="matrix(.26458 0 0 .26458 -15.149 123.164)"><tspan x="199.199" y="6392.055">left</tspan></text><text xml:space="preserve" style="font-size:14.6667px;line-height:1.25;font-family:sans-serif;white-space:pre;shape-inside:url(#r);display:inline;fill:#666" transform="matrix(.26458 0 0 .26458 -8.745 143.82)"><tspan x="221.883" y="6314.633">right</tspan></text><path d="M70.093 1829.346s1.154-.284 1.682-.153c.448.112 1.051.744 1.051.744" style="fill:none;stroke:#d4aa00;stroke-width:.264582px;stroke-linecap:butt;stroke-linejoin:miter;stroke-opacity:1;marker-end:url(#s)"/><path d="M36.852 1846.358s-.707 1.913-1.432 2.577c-.926.848-3.44 1.534-3.44 1.534l-1.573-1.654s.478-2.467 1.253-3.387c.769-.912 3.096-1.793 3.096-1.793" style="fill:none;stroke:#000;stroke-width:.264583px;stroke-linecap:butt;stroke-linejoin:miter;stroke-opacity:1"/><path d="M32.244 1850.752s2.535-.732 3.451-1.61c.763-.73 1.461-2.81 1.461-2.81" style="fill:none;stroke:red;stroke-width:.264583px;stroke-linecap:butt;stroke-linejoin:miter;stroke-opacity:1"/><path d="M42.023 1849.676s.053 2.038-.373 2.924c-.545 1.131-2.625 2.703-2.625 2.703l-2.074-.953s-.472-2.467-.094-3.61c.375-1.132 2.208-2.814 2.208-2.814" style="fill:none;stroke:#000;stroke-width:.264583px;stroke-linecap:butt;stroke-linejoin:miter;stroke-opacity:1"/><path d="M39.376 1855.466s2.082-1.62 2.606-2.776c.437-.961.313-3.152.313-3.152" style="fill:none;stroke:red;stroke-width:.264583px;stroke-linecap:butt;stroke-linejoin:miter;stroke-opacity:1"/><path d="M33.299 1840.785s-1.312 1.562-2.218 1.942c-1.158.486-3.757.283-3.757.283l-.921-2.088s1.282-2.16 2.322-2.765c1.031-.599 3.52-.642 3.52-.642" style="fill:none;stroke:#000;stroke-width:.264583px;stroke-linecap:butt;stroke-linejoin:miter;stroke-opacity:1"/><path d="M27.478 1843.365s2.633.167 3.792-.35c.964-.43 2.324-2.153 2.324-2.153" style="fill:none;stroke:red;stroke-width:.264583px;stroke-linecap:butt;stroke-linejoin:miter;stroke-opacity:1"/><path d="M108.253 1856.802s1.292 1.577 1.5 2.538c.263 1.228-.416 3.745-.416 3.745l-2.222.52s-1.887-1.658-2.289-2.793c-.398-1.123.017-3.577.017-3.577" style="fill:none;stroke:#000;stroke-width:.264583px;stroke-linecap:butt;stroke-linejoin:miter;stroke-opacity:1"/><path d="M109.715 1862.999s.65-2.557.355-3.791c-.245-1.028-1.687-2.682-1.687-2.682" style="fill:none;stroke:red;stroke-width:.264583px;stroke-linecap:butt;stroke-linejoin:miter;stroke-opacity:1"/><path d="M114.016 1854.872s1.65 1.197 2.094 2.074c.567 1.12.55 3.727.55 3.727l-2.017 1.068s-2.246-1.125-2.923-2.12c-.671-.986-.892-3.465-.892-3.465" style="fill:none;stroke:#000;stroke-width:.264583px;stroke-linecap:butt;stroke-linejoin:miter;stroke-opacity:1"/><path d="M117.004 1860.494s-.021-2.638-.62-3.757c-.498-.931-2.312-2.165-2.312-2.165" style="fill:none;stroke:red;stroke-width:.264583px;stroke-linecap:butt;stroke-linejoin:miter;stroke-opacity:1"/><path d="M118.577 1850.594s1.978.496 2.716 1.144c.944.829 1.9 3.254 1.9 3.254l-1.475 1.743s-2.503-.207-3.502-.878c-.99-.665-2.119-2.883-2.119-2.883" style="fill:none;stroke:#000;stroke-width:.264583px;stroke-linecap:butt;stroke-linejoin:miter;stroke-opacity:1"/><path d="M123.445 1854.698s-1.003-2.44-1.975-3.256c-.81-.678-2.953-1.147-2.953-1.147" style="fill:none;stroke:red;stroke-width:.264583px;stroke-linecap:butt;stroke-linejoin:miter;stroke-opacity:1"/><path d="M121.786 1824.718s-.856-2.318-1.594-3.287c-.83-1.09-3.087-2.715-3.087-2.715" style="fill:none;stroke:#000;stroke-width:.264583;stroke-linecap:butt;stroke-linejoin:miter;stroke-opacity:1;marker-start:url(#t)"/><text xml:space="preserve" style="font-size:14.6667px;line-height:1.25;font-family:sans-serif;white-space:pre;shape-inside:url(#u);display:inline" transform="matrix(.26458 0 0 .26458 -81.953 59.087)"><tspan x="443.355" y="6691.221">ccw</tspan></text><text xml:space="preserve" style="font-size:14.6667px;line-height:1.25;font-family:sans-serif;white-space:pre;shape-inside:url(#v);display:inline" transform="matrix(.26458 0 0 .26458 1.436 72.54)"><tspan x="427.137" y="6620.459">cw</tspan></text></g></svg>