<svg xmlns="http://www.w3.org/2000/svg" width="347.825" height="360.068" viewBox="0 0 92.029 95.268"><defs><path id="g" d="M142.239 5592.676h45.538v17.209h-45.538z"/><path id="f" d="M200.983 5603.651h39.486v19.071h-39.486z"/><path id="e" d="M156.417 5598.606h56.235v26.098h-56.235z"/><path id="a" d="M390.748 4224.178h91.064v51.489h-91.064z"/><path id="d" d="M390.748 4224.178h91.064v51.489h-91.064z"/><path id="b" d="M87.432 4197.716h325.449v51.35H87.432z"/><path id="c" d="M95.776 4893.991h296.19v104.821H95.776z"/></defs><g transform="translate(-19.105 -1445.622)"><path d="M19.237 1445.755h91.764v95.003H19.237z" style="fill:#fff;stroke:#fff;stroke-width:.264583"/><path d="m51.288 1476.36 9.509-11.797" style="fill:none;stroke:#ccc;stroke-width:.264583px;stroke-linecap:butt;stroke-linejoin:miter;stroke-opacity:1"/><circle cx="51.322" cy="1476.424" r="19.541" style="fill:none;stroke:green;stroke-width:.264582"/><circle cx="87.601" cy="1476.424" r="7.726" style="fill:none;stroke:#0cf;stroke-width:.264581"/><circle cx="51.322" cy="1476.424" r="23.86" style="fill:none;stroke:maroon;stroke-width:.264583"/><circle cx="51.322" cy="1476.424" r="28.573" style="fill:none;stroke:#00f;stroke-width:.264583"/><circle cx="87.601" cy="1476.424" r="12.42" style="fill:none;stroke:maroon;stroke-width:.264583"/><circle cx="87.601" cy="1476.424" r="16.739" style="fill:none;stroke:#00f;stroke-width:.264582"/><path d="M51.322 1476.424h36.28" style="fill:none;stroke:#000;stroke-width:.264583px;stroke-linecap:butt;stroke-linejoin:miter;stroke-opacity:1"/><path d="m51.322 1476.424-18.805-14.686M87.601 1476.424l8.913-8.65" style="fill:none;stroke:#a00;stroke-width:.264583px;stroke-linecap:butt;stroke-linejoin:miter;stroke-opacity:1"/><text xml:space="preserve" style="font-size:14.6667px;line-height:1.25;font-family:sans-serif;white-space:pre;shape-inside:url(#a);display:inline" transform="matrix(.26458 0 0 .26458 -68.855 349.545)"><tspan x="390.748" y="4237.154">pr1</tspan></text><text xml:space="preserve" style="font-size:14.6667px;line-height:1.25;font-family:sans-serif;white-space:pre;shape-inside:url(#b);display:inline" transform="matrix(.26458 0 0 .26458 -2.737 424.148)"><tspan x="87.432" y="4210.691">optimum base radius</tspan></text><circle cx="51.322" cy="1476.424" r="15.152" style="fill:none;stroke:#0cf;stroke-width:.264581"/><circle cx="87.601" cy="1476.424" r="7.412" style="fill:none;stroke:green;stroke-width:.264582"/><text xml:space="preserve" style="font-size:14.6667px;line-height:1.25;font-family:sans-serif;white-space:pre;shape-inside:url(#c);display:inline" transform="matrix(.26458 0 0 .26458 -2.7 214.331)"><tspan x="95.775" y="4906.969">- brr2=dr2
</tspan><tspan x="95.775" y="4925.302">- brr1=brr2*N1/N2
</tspan><tspan x="95.775" y="4943.636">- sin(PI/2-ppa)=dr2/pr2
</tspan><tspan x="95.775" y="4961.969">- ppa=acos(dr2/pr2)
</tspan><tspan x="95.775" y="4980.303">- brr=dr for the smallest wheel</tspan></text><text xml:space="preserve" style="font-size:14.6667px;line-height:1.25;font-family:sans-serif;white-space:pre;shape-inside:url(#d);display:inline" transform="matrix(.26458 0 0 .26458 -15.39 348.522)"><tspan x="390.748" y="4237.154">pr2</tspan></text><path d="m51.322 1476.424-8.85-17.423" style="fill:none;stroke:green;stroke-width:.264583px;stroke-linecap:butt;stroke-linejoin:miter;stroke-opacity:1"/><path d="m51.322 1476.424 2.603-15.017" style="fill:none;stroke:#0cf;stroke-width:.264583px;stroke-linecap:butt;stroke-linejoin:miter;stroke-opacity:1"/><text xml:space="preserve" style="font-size:14.6667px;line-height:1.25;font-family:sans-serif;white-space:pre;shape-inside:url(#e);display:inline" transform="matrix(.26458 0 0 .26458 4.15 -19.412)"><tspan x="156.416" y="5611.582">dr1</tspan></text><text xml:space="preserve" style="font-size:14.6667px;line-height:1.25;font-family:sans-serif;white-space:pre;shape-inside:url(#f);display:inline" transform="matrix(.26458 0 0 .26458 .845 -22.657)"><tspan x="200.982" y="5616.627">brr1</tspan></text><path d="m51.322 1476.424-28.008-5.567" style="fill:none;stroke:#00f;stroke-width:.264583px;stroke-linecap:butt;stroke-linejoin:miter;stroke-opacity:1"/><text xml:space="preserve" style="font-size:14.6667px;line-height:1.25;font-family:sans-serif;white-space:pre;shape-inside:url(#g);display:inline" transform="matrix(.26458 0 0 .26458 -9.737 -7.267)"><tspan x="142.238" y="5605.652">ar1</tspan></text><path d="m60.628 1464.56 21.95 17.722" style="fill:none;stroke:red;stroke-width:.264583px;stroke-linecap:butt;stroke-linejoin:miter;stroke-opacity:1"/><path d="m82.736 1482.43 4.825-6.008" style="fill:none;stroke:#ccc;stroke-width:.264583px;stroke-linecap:butt;stroke-linejoin:miter;stroke-opacity:1"/><path d="m59.836 1465.695 1.077.987.842-1.09M81.697 1481.556l.61-.994 1.116.82" style="fill:none;stroke:#000;stroke-width:.264583px;stroke-linecap:butt;stroke-linejoin:miter;stroke-opacity:1"/></g></svg>