<svg xmlns="http://www.w3.org/2000/svg" width="365.536" height="396.591" viewBox="0 0 96.715 104.931"><defs><path id="m" d="M503.446 6199.023h19.316v29.233h-19.316z"/><path id="l" d="M508.974 6158.27h21.597v23.383h-21.597z"/><path id="k" d="M466.786 6148.532h20.521v52.01h-20.521z"/><path id="j" d="M477.116 6108.429h21.269v21.392h-21.269z"/><path id="i" d="M466.946 6051.638h29.149V6080h-29.149z"/><path id="h" d="M256.416 6246.865H420.81v25.401H256.416z"/><path id="n" d="M390.748 4224.178h91.064v51.489h-91.064z"/><path id="b" d="M87.432 4197.716h325.449v51.35H87.432z"/><path id="c" d="M95.776 4893.991h360.46v121.998H95.776z"/><path id="d" d="M390.748 4224.178h91.064v51.489h-91.064z"/><path id="e" d="M156.417 5598.606h56.235v26.098h-56.235z"/><path id="f" d="M200.983 5603.651h39.486v19.071h-39.486z"/><path id="g" d="M142.239 5592.676h45.538v17.209h-45.538z"/><marker id="a" markerHeight="5" markerWidth="8.75" orient="auto-start-reverse" preserveAspectRatio="xMidYMid" refX="0" refY="0" style="overflow:visible" viewBox="0 0 8.75 5"><path d="m0 0 5-5-17.5 5L5 5Z" style="fill:context-stroke;fill-rule:evenodd;stroke:none" transform="scale(-.5)"/></marker></defs><g transform="translate(-21.83 -1553.956)"><path d="M21.961 1554.088h96.45v104.667h-96.45z" style="fill:#fff;stroke:#fff;stroke-width:.264582"/><path d="M55.618 1615.731h35.178" style="fill:none;stroke:#000;stroke-width:.264583px;stroke-linecap:butt;stroke-linejoin:miter;stroke-opacity:1;marker-start:url(#a);marker-end:url(#Arrow1L)"/><path d="M53.914 1584.89v32.032" style="fill:none;stroke:#b3b3b3;stroke-width:.264583px;stroke-linecap:butt;stroke-linejoin:miter;stroke-opacity:1"/><path d="m54.012 1584.694 8.538-12.273" style="fill:none;stroke:#ccc;stroke-width:.264583px;stroke-linecap:butt;stroke-linejoin:miter;stroke-opacity:1"/><circle cx="54.046" cy="1584.758" r="19.541" style="fill:none;stroke:green;stroke-width:.264582"/><circle cx="92.442" cy="1584.758" r="7.726" style="fill:none;stroke:#0cf;stroke-width:.264581"/><circle cx="54.046" cy="1584.758" r="23.86" style="fill:none;stroke:maroon;stroke-width:.264583"/><circle cx="54.046" cy="1584.758" r="28.573" style="fill:none;stroke:#00f;stroke-width:.264583"/><circle cx="92.442" cy="1584.758" r="12.42" style="fill:none;stroke:maroon;stroke-width:.264583"/><circle cx="92.442" cy="1584.758" r="16.739" style="fill:none;stroke:#00f;stroke-width:.264582"/><path d="M54.046 1584.758h38.351" style="fill:none;stroke:#000;stroke-width:.264583px;stroke-linecap:butt;stroke-linejoin:miter;stroke-opacity:1"/><path d="m54.046 1584.758-18.805-14.686M92.442 1584.758l8.913-8.65" style="fill:none;stroke:#a00;stroke-width:.264583px;stroke-linecap:butt;stroke-linejoin:miter;stroke-opacity:1"/><text xml:space="preserve" style="font-size:14.6667px;line-height:1.25;font-family:sans-serif;white-space:pre;shape-inside:url(#b);display:inline" transform="matrix(.26458 0 0 .26458 -.013 543.065)"><tspan x="87.432" y="4210.691">optimum base radius with longer inter-axis</tspan></text><circle cx="54.046" cy="1584.758" r="15.152" style="fill:none;stroke:#0cf;stroke-width:.264581"/><circle cx="92.442" cy="1584.758" r="7.412" style="fill:none;stroke:green;stroke-width:.264582"/><text xml:space="preserve" style="font-size:14.6667px;line-height:1.25;font-family:sans-serif;white-space:pre;shape-inside:url(#c);display:inline" transform="matrix(.26458 0 0 .26458 .024 331.132)"><tspan x="95.775" y="4906.969">- brr2=dr2
</tspan><tspan x="95.775" y="4925.302">- brr1=brr2*N1/N2
</tspan><tspan x="95.775" y="4943.636">- CE=e*pr2/(pr1+pr2)
</tspan><tspan x="95.775" y="4961.969">- sin(PI/2-ppa)=DE/CE=brr2*(pr1+pr2)/(e*pr2)
</tspan><tspan x="95.775" y="4980.303">- ppa[min]=acos(dr2/pr2)</tspan></text><text xml:space="preserve" style="font-size:14.6667px;line-height:1.25;font-family:sans-serif;white-space:pre;shape-inside:url(#d);display:inline" transform="matrix(.26458 0 0 .26458 -10.55 456.856)"><tspan x="390.748" y="4237.154">pr2</tspan></text><path d="m54.046 1584.758-8.849-17.423" style="fill:none;stroke:green;stroke-width:.264583px;stroke-linecap:butt;stroke-linejoin:miter;stroke-opacity:1"/><path d="m54.046 1584.758 2.603-15.017" style="fill:none;stroke:#0cf;stroke-width:.264583px;stroke-linecap:butt;stroke-linejoin:miter;stroke-opacity:1"/><text xml:space="preserve" style="font-size:14.6667px;line-height:1.25;font-family:sans-serif;white-space:pre;shape-inside:url(#e);display:inline" transform="matrix(.26458 0 0 .26458 6.874 88.922)"><tspan x="156.416" y="5611.582">dr1</tspan></text><text xml:space="preserve" style="font-size:14.6667px;line-height:1.25;font-family:sans-serif;white-space:pre;shape-inside:url(#f);display:inline" transform="matrix(.26458 0 0 .26458 3.57 85.677)"><tspan x="200.982" y="5616.627">brr1</tspan></text><path d="m54.046 1584.758-28.007-5.567" style="fill:none;stroke:#00f;stroke-width:.264583px;stroke-linecap:butt;stroke-linejoin:miter;stroke-opacity:1"/><text xml:space="preserve" style="font-size:14.6667px;line-height:1.25;font-family:sans-serif;white-space:pre;shape-inside:url(#g);display:inline" transform="matrix(.26458 0 0 .26458 -7.013 101.066)"><tspan x="142.238" y="5605.652">ar1</tspan></text><path d="m62.417 1572.182 26.253 19.315" style="fill:none;stroke:red;stroke-width:.264583px;stroke-linecap:butt;stroke-linejoin:miter;stroke-opacity:1"/><path d="m88.637 1591.465 3.765-6.71" style="fill:none;stroke:#ccc;stroke-width:.264583px;stroke-linecap:butt;stroke-linejoin:miter;stroke-opacity:1"/><path d="m61.936 1573.3 1.077.987.842-1.089M87.353 1590.488l.61-.994 1.116.819" style="fill:none;stroke:#000;stroke-width:.264583px;stroke-linecap:butt;stroke-linejoin:miter;stroke-opacity:1"/><path d="M92.442 1584.758v32.032" style="fill:none;stroke:#b3b3b3;stroke-width:.264583px;stroke-linecap:butt;stroke-linejoin:miter;stroke-opacity:1"/><text xml:space="preserve" style="font-size:14.6667px;line-height:1.25;font-family:sans-serif;white-space:pre;shape-inside:url(#h);display:inline" transform="matrix(.26458 0 0 .26458 -13.188 -36.2)"><tspan x="256.416" y="6259.842">e: inter-axis length</tspan></text><text xml:space="preserve" style="font-size:14.6667px;line-height:1.25;font-family:sans-serif;white-space:pre;shape-inside:url(#i);display:inline" transform="matrix(.26458 0 0 .26458 -72.588 -16.181)"><tspan x="466.945" y="6064.613">A</tspan></text><text xml:space="preserve" style="font-size:14.6667px;line-height:1.25;font-family:sans-serif;white-space:pre;shape-inside:url(#j);display:inline" transform="matrix(.26458 0 0 .26458 -65.03 -41.757)"><tspan x="477.117" y="6121.406">B</tspan></text><text xml:space="preserve" style="font-size:14.6667px;line-height:1.25;font-family:sans-serif;white-space:pre;shape-inside:url(#k);display:inline" transform="matrix(.26458 0 0 .26458 -45.962 -46.608)"><tspan x="466.785" y="6161.508">C</tspan></text><text xml:space="preserve" style="font-size:14.6667px;line-height:1.25;font-family:sans-serif;white-space:pre;shape-inside:url(#l);display:inline" transform="matrix(.26458 0 0 .26458 -48.268 -37.538)"><tspan x="508.975" y="6171.246">D</tspan></text><text xml:space="preserve" style="font-size:14.6667px;line-height:1.25;font-family:sans-serif;white-space:pre;shape-inside:url(#m);display:inline" transform="matrix(.26458 0 0 .26458 -40.396 -56.126)"><tspan x="503.447" y="6212">E</tspan></text><text xml:space="preserve" style="font-size:14.6667px;line-height:1.25;font-family:sans-serif;white-space:pre;shape-inside:url(#n);display:inline" transform="matrix(.26458 0 0 .26458 -66.13 457.879)"><tspan x="390.748" y="4237.154">pr1</tspan></text></g></svg>