<svg xmlns="http://www.w3.org/2000/svg" width="571.534" height="441.39" viewBox="0 0 151.218 116.784"><defs><path id="r" d="M83.337 8050.205h303.779v39.305H83.337z"/><path id="m" d="M495.911 7774.054h99.971v48.715h-99.971z"/><path id="l" d="M501.902 7891.005h105.23v44.362h-105.23z"/><path id="b" d="M131.954 7993.9h178.929v41.57H131.954z"/><path id="a" d="M58.024 7943.988h180.292v47.356H58.024z"/><path id="e" d="M131.954 7993.9h178.929v41.57H131.954z"/><path id="f" d="M131.954 7993.9h178.929v41.57H131.954z"/><path id="i" d="M131.954 7993.9h178.929v41.57H131.954z"/><path id="q" d="M495.911 7774.054h99.971v48.715h-99.971z"/><path id="p" d="M501.902 7891.005h105.23v44.362h-105.23z"/><marker id="c" markerHeight="5" markerWidth="8.75" orient="auto-start-reverse" preserveAspectRatio="xMidYMid" refX="0" refY="0" style="overflow:visible" viewBox="0 0 8.75 5"><path d="m0 0 5-5-17.5 5L5 5Z" style="fill:context-stroke;fill-rule:evenodd;stroke:none" transform="scale(-.5)"/></marker><marker id="d" markerHeight="5" markerWidth="8.75" orient="auto-start-reverse" preserveAspectRatio="xMidYMid" refX="0" refY="0" style="overflow:visible" viewBox="0 0 8.75 5"><path d="m0 0 5-5-17.5 5L5 5Z" style="fill:context-stroke;fill-rule:evenodd;stroke:none" transform="scale(-.5)"/></marker><marker id="g" markerHeight="5" markerWidth="8.75" orient="auto-start-reverse" preserveAspectRatio="xMidYMid" refX="0" refY="0" style="overflow:visible" viewBox="0 0 8.75 5"><path d="m0 0 5-5-17.5 5L5 5Z" style="fill:context-stroke;fill-rule:evenodd;stroke:none" transform="scale(-.5)"/></marker><marker id="h" markerHeight="5" markerWidth="8.75" orient="auto-start-reverse" preserveAspectRatio="xMidYMid" refX="0" refY="0" style="overflow:visible" viewBox="0 0 8.75 5"><path d="m0 0 5-5-17.5 5L5 5Z" style="fill:context-stroke;fill-rule:evenodd;stroke:none" transform="scale(-.5)"/></marker><marker id="j" markerHeight="5" markerWidth="8.75" orient="auto-start-reverse" preserveAspectRatio="xMidYMid" refX="0" refY="0" style="overflow:visible" viewBox="0 0 8.75 5"><path d="m0 0 5-5-17.5 5L5 5Z" style="fill:context-stroke;fill-rule:evenodd;stroke:none" transform="scale(-.5)"/></marker><marker id="k" markerHeight="5" markerWidth="8.75" orient="auto-start-reverse" preserveAspectRatio="xMidYMid" refX="0" refY="0" style="overflow:visible" viewBox="0 0 8.75 5"><path d="m0 0 5-5-17.5 5L5 5Z" style="fill:context-stroke;fill-rule:evenodd;stroke:none" transform="scale(-.5)"/></marker><marker id="n" markerHeight="5" markerWidth="8.75" orient="auto-start-reverse" preserveAspectRatio="xMidYMid" refX="0" refY="0" style="overflow:visible" viewBox="0 0 8.75 5"><path d="m0 0 5-5-17.5 5L5 5Z" style="fill:context-stroke;fill-rule:evenodd;stroke:none" transform="scale(-.5)"/></marker><marker id="o" markerHeight="5" markerWidth="8.75" orient="auto-start-reverse" preserveAspectRatio="xMidYMid" refX="0" refY="0" style="overflow:visible" viewBox="0 0 8.75 5"><path d="m0 0 5-5-17.5 5L5 5Z" style="fill:context-stroke;fill-rule:evenodd;stroke:none" transform="scale(-.5)"/></marker></defs><path d="M4.606 2023.395H155.56v116.52H4.606z" style="fill:#fff;stroke:#fff;stroke-width:.264583;stroke-dasharray:none" transform="translate(-4.474 -2023.263)"/><path d="m62.748 2042.106-8.012.742-2.787 14.136-4.688 11.343-4.777 15.346-3.974 1.119-5.895 3.304.017-45.886" style="fill:#b3b3b3;stroke:#b3b3b3;stroke-width:.264583px;stroke-linecap:butt;stroke-linejoin:miter;stroke-opacity:1" transform="translate(-4.474 -2023.263)"/><path d="m97.331 2104.44 7.117-6.154 7.542-2.635 2.85-8.509 2.657-6.105 4.55-5.38 2.328-9.143.153 37.911" style="fill:#e6e6e6;stroke:#e6e6e6;stroke-width:.264583px;stroke-linecap:butt;stroke-linejoin:miter;stroke-opacity:1" transform="translate(-4.474 -2023.263)"/><text xml:space="preserve" style="font-size:14.6667px;line-height:1.25;font-family:sans-serif;white-space:pre;shape-inside:url(#a);fill:#a00" transform="matrix(.26458 0 0 .26458 -12.432 -2045.877)"><tspan x="58.023" y="7956.965">primitive circle</tspan></text><path d="m96.788 2104.591 7.117-6.153 7.542-2.636 2.85-8.508 2.656-6.106 4.55-5.38 2.329-9.143" style="fill:none;stroke:#000;stroke-width:.264583px;stroke-linecap:butt;stroke-linejoin:miter;stroke-opacity:1" transform="translate(-4.474 -2023.263)"/><path d="m32.856 2104.257 4.793-14.126 5.006-6.058 10.015-17.697s2.833-10.667 2.634-11.178c-.198-.51 6.571-5.937 6.571-5.937l3.973 9.73 4.496 12.97 2.578 5.14 3.525 10.544 9.93 16.138 10.41.803" style="fill:#e6e6e6;stroke:#000;stroke-width:.264583px;stroke-linecap:butt;stroke-linejoin:miter;stroke-opacity:1" transform="translate(-4.474 -2023.263)"/><path d="m62.721 2042.185 5.672 10.665 2.832 15.268 4.186 16.164 3.545 4.772 6.651 8.454 9.924 1.652 8.423-7.823 11.457-7.285 1.164-5.286 2.251-7.053 1.791-7.525 1.74-21.353" style="fill:#b3b3b3;stroke:#000;stroke-width:.264583px;stroke-linecap:butt;stroke-linejoin:miter;stroke-opacity:1" transform="translate(-4.474 -2023.263)"/><path d="m32.59 2088.175 6.116-3.073 3.888-.938 4.64-15.758 4.689-11.343 2.787-14.136 8.011-.742" style="fill:none;stroke:#000;stroke-width:.264583px;stroke-linecap:butt;stroke-linejoin:miter;stroke-opacity:1" transform="translate(-4.474 -2023.263)"/><path d="M21.889 2084.247H124.1" style="fill:none;stroke:#d40000;stroke-width:.264583px;stroke-linecap:butt;stroke-linejoin:miter;stroke-opacity:1" transform="translate(-4.474 -2023.263)"/><path d="M42.629 2042.498h32.532v41.616H42.629zM75.286 2084.231h40.322v20.557H75.286z" style="fill:none;stroke:green;stroke-width:.529167;stroke-dasharray:none" transform="translate(-4.474 -2023.263)"/><path d="M42.903 2049.159h32.138v34.648H42.903zM75.611 2084.536h39.7v14.738h-39.7z" style="fill:none;stroke:#00f;stroke-width:.264582;stroke-dasharray:none" transform="translate(-4.474 -2023.263)"/><text xml:space="preserve" style="font-size:14.6667px;line-height:1.25;font-family:sans-serif;white-space:pre;shape-inside:url(#b)" transform="matrix(.26458 0 0 .26458 7.759 -2023.114)"><tspan x="131.953" y="8006.877">addendum
</tspan><tspan x="131.953" y="8025.211">thickness 1</tspan></text><path d="M43.279 2113.548h30.123" style="fill:none;stroke:#00f;stroke-width:.264583px;stroke-linecap:butt;stroke-linejoin:miter;stroke-opacity:1;marker-start:url(#c);marker-end:url(#Arrow1L)" transform="translate(-4.474 -2023.263)"/><path d="M76.52 2113.587h36.866" style="fill:none;stroke:green;stroke-width:.264583px;stroke-linecap:butt;stroke-linejoin:miter;stroke-opacity:1;marker-start:url(#d);marker-end:url(#Arrow1L-56)" transform="translate(-4.474 -2023.263)"/><text xml:space="preserve" style="font-size:14.6667px;line-height:1.25;font-family:sans-serif;white-space:pre;shape-inside:url(#e);display:inline" transform="matrix(.26458 0 0 .26458 45.867 -2022.525)"><tspan x="131.953" y="8006.877">dedendum
</tspan><tspan x="131.953" y="8025.211">thickness 1</tspan></text><text xml:space="preserve" style="font-size:14.6667px;line-height:1.25;font-family:sans-serif;white-space:pre;shape-inside:url(#f);display:inline" transform="matrix(.26458 0 0 .26458 45.657 -2112.162)"><tspan x="131.953" y="8006.877">addendum
</tspan><tspan x="131.953" y="8025.211">thickness 2</tspan></text><path d="M43.36 2036.665h30.124" style="fill:none;stroke:green;stroke-width:.264583px;stroke-linecap:butt;stroke-linejoin:miter;stroke-opacity:1;marker-start:url(#g);marker-end:url(#Arrow1L-29)" transform="translate(-4.474 -2023.263)"/><path d="M76.6 2036.704h36.867" style="fill:none;stroke:#00f;stroke-width:.264583px;stroke-linecap:butt;stroke-linejoin:miter;stroke-opacity:1;marker-start:url(#h);marker-end:url(#Arrow1L-56-0)" transform="translate(-4.474 -2023.263)"/><text xml:space="preserve" style="font-size:14.6667px;line-height:1.25;font-family:sans-serif;white-space:pre;shape-inside:url(#i);display:inline" transform="matrix(.26458 0 0 .26458 8.56 -2112.586)"><tspan x="131.953" y="8006.877">dedendum
</tspan><tspan x="131.953" y="8025.211">thickness 2</tspan></text><path d="M129.561 2044.523v38.172" style="fill:none;stroke:green;stroke-width:.264583px;stroke-linecap:butt;stroke-linejoin:miter;stroke-opacity:1;marker-start:url(#j);marker-end:url(#Arrow1L-29-1)" transform="translate(-4.474 -2023.263)"/><path d="M129.54 2085.887v12.202" style="fill:none;stroke:#00f;stroke-width:.264583px;stroke-linecap:butt;stroke-linejoin:miter;stroke-opacity:1;marker-start:url(#k);marker-end:url(#Arrow1L-29-1-9)" transform="translate(-4.474 -2023.263)"/><text xml:space="preserve" style="font-size:14.6667px;line-height:1.25;font-family:sans-serif;white-space:pre;shape-inside:url(#l)" transform="matrix(.26458 0 0 .26458 -5.768 -2023.9)"><tspan x="501.902" y="7903.98">addendum
</tspan><tspan x="501.902" y="7922.314">height 2</tspan></text><text xml:space="preserve" style="font-size:14.6667px;line-height:1.25;font-family:sans-serif;white-space:pre;shape-inside:url(#m)" transform="matrix(.26458 0 0 .26458 -5.435 -2021.455)"><tspan x="495.91" y="7787.031">dedendum
</tspan><tspan x="495.91" y="7805.365">height 2</tspan></text><path d="M38.199 2050.595v32.292" style="fill:none;stroke:#00f;stroke-width:.264583px;stroke-linecap:butt;stroke-linejoin:miter;stroke-opacity:1;marker-start:url(#n);marker-end:url(#Arrow1L-29-1-91)" transform="translate(-4.474 -2023.263)"/><path d="M38.223 2086.403v15.824" style="fill:green;stroke:green;stroke-width:.264583px;stroke-linecap:butt;stroke-linejoin:miter;stroke-opacity:1;marker-start:url(#o);marker-end:url(#Arrow1L-29-1-9-7)" transform="translate(-4.474 -2023.263)"/><text xml:space="preserve" style="font-size:14.6667px;line-height:1.25;font-family:sans-serif;white-space:pre;shape-inside:url(#p);display:inline" transform="matrix(.26458 0 0 .26458 -122.685 -2051.634)"><tspan x="501.902" y="7903.98">addendum
</tspan><tspan x="501.902" y="7922.314">height 1</tspan></text><text xml:space="preserve" style="font-size:14.6667px;line-height:1.25;font-family:sans-serif;white-space:pre;shape-inside:url(#q);display:inline" transform="matrix(.26458 0 0 .26458 -118.701 -1989.8)"><tspan x="495.91" y="7787.031">dedendum
</tspan><tspan x="495.91" y="7805.365">height 1</tspan></text><text xml:space="preserve" style="font-size:14.6667px;line-height:1.25;font-family:sans-serif;white-space:pre;shape-inside:url(#r)" transform="matrix(.26458 0 0 .26458 -20.281 -2018.883)"><tspan x="83.338" y="8063.182">addendum and dedendum sizes</tspan></text></svg>