<svg xmlns="http://www.w3.org/2000/svg" width="347.825" height="343.861" viewBox="0 0 92.029 90.98"><defs><path id="f" d="M95.776 4893.991h240.781v89.138H95.776z"/><path id="e" d="M362.279 4898.338h56.14v32.173h-56.14z"/><path id="d" d="M296.239 4903.046h66.04v31.918h-66.04z"/><path id="a" d="M390.748 4224.178h91.064v51.489h-91.064z"/><path id="b" d="M390.748 4224.178h91.064v51.489h-91.064z"/><path id="c" d="M87.432 4197.716h325.449v51.35H87.432z"/></defs><g transform="translate(-21.411 -1231.319)"><path d="M21.543 1231.451h91.764v90.715H21.543z" style="fill:#fff;stroke:#fff;stroke-width:.264583"/><circle cx="53.628" cy="1262.121" r="23.86" style="fill:none;stroke:maroon;stroke-width:.264583"/><circle cx="53.628" cy="1262.121" r="28.573" style="fill:none;stroke:#00f;stroke-width:.264583"/><circle cx="89.908" cy="1262.121" r="12.42" style="fill:none;stroke:maroon;stroke-width:.264583"/><circle cx="89.908" cy="1262.121" r="20.667" style="fill:none;stroke:#00f;stroke-width:.264582"/><path d="M53.628 1262.12h36.28" style="fill:none;stroke:#000;stroke-width:.264583px;stroke-linecap:butt;stroke-linejoin:miter;stroke-opacity:1"/><path d="m53.628 1262.12-18.805-14.685M89.908 1262.12l8.912-8.648" style="fill:none;stroke:#a00;stroke-width:.264583px;stroke-linecap:butt;stroke-linejoin:miter;stroke-opacity:1"/><text xml:space="preserve" style="font-size:14.6667px;line-height:1.25;font-family:sans-serif;white-space:pre;shape-inside:url(#a);display:inline" transform="matrix(.26458 0 0 .26458 -66.706 136.097)"><tspan x="390.748" y="4237.154">pr1</tspan></text><text xml:space="preserve" style="font-size:14.6667px;line-height:1.25;font-family:sans-serif;white-space:pre;shape-inside:url(#b);display:inline" transform="matrix(.26458 0 0 .26458 -14.461 134.31)"><tspan x="390.748" y="4237.154">pr2</tspan></text><text xml:space="preserve" style="font-size:14.6667px;line-height:1.25;font-family:sans-serif;white-space:pre;shape-inside:url(#c);display:inline" transform="matrix(.26458 0 0 .26458 -.43 206.14)"><tspan x="87.432" y="4210.691">large base radius</tspan></text><circle cx="53.628" cy="1262.121" r="22.201" style="fill:none;stroke:#0cf;stroke-width:.264582"/><circle cx="89.908" cy="1262.121" r="11.396" style="fill:none;stroke:#0cf;stroke-width:.264582"/><path d="m53.628 1262.12-7.866-20.805" style="fill:#2ad4ff;stroke:#2ad4ff;stroke-width:.264583px;stroke-linecap:butt;stroke-linejoin:miter;stroke-opacity:1"/><path d="m89.908 1262.12 11.201-1.67" style="fill:none;stroke:#0cf;stroke-width:.264583px;stroke-linecap:butt;stroke-linejoin:miter;stroke-opacity:1"/><text xml:space="preserve" style="font-size:14.6667px;line-height:1.25;font-family:sans-serif;white-space:pre;shape-inside:url(#d);display:inline" transform="matrix(.26458 0 0 .26458 -29.77 -51.62)"><tspan x="296.238" y="4916.024">brr1</tspan></text><text xml:space="preserve" style="font-size:14.6667px;line-height:1.25;font-family:sans-serif;white-space:pre;shape-inside:url(#e);display:inline" transform="matrix(.26458 0 0 .26458 -3.447 -34.59)"><tspan x="362.279" y="4911.315">brr2</tspan></text><path d="m74.221 1253.886 4.935 12.553" style="fill:none;stroke:red;stroke-width:.264583px;stroke-linecap:butt;stroke-linejoin:miter;stroke-opacity:1"/><path d="m53.703 1262.042 20.629-8.167M79.206 1266.264l10.723-4.202" style="fill:none;stroke:#b3b3b3;stroke-width:.264584px;stroke-linecap:butt;stroke-linejoin:miter;stroke-opacity:1"/><path d="m73.156 1254.387.462.955.924-.36M80.185 1265.761l-.462-.954-.924.359" style="fill:none;stroke:#000;stroke-width:.264583px;stroke-linecap:butt;stroke-linejoin:miter;stroke-opacity:1"/><text xml:space="preserve" style="font-size:14.6667px;line-height:1.25;font-family:sans-serif;white-space:pre;shape-inside:url(#f);display:inline" transform="matrix(.26458 0 0 .26458 -.394 .028)"><tspan x="95.775" y="4906.969">- brr1 closed to pr1
</tspan><tspan x="95.775" y="4925.302">- brr2 closed to pr2
</tspan><tspan x="95.775" y="4943.636">- ppa closed to 0
</tspan><tspan x="95.775" y="4961.969">- brr1/brr2=pr1/pr2=N1/N2
</tspan></text></g></svg>