<svg xmlns="http://www.w3.org/2000/svg" width="399.391" height="362.271" viewBox="0 0 105.672 95.851"><defs><path id="t" d="M443.356 6678.244h55.902v27.961h-55.902z"/><path id="s" d="M427.137 6607.483h63.946v31.856h-63.946z"/><path id="q" d="M221.883 6301.655h55.589v20.315h-55.589z"/><path id="p" d="M199.199 6379.077h54.369v17.969h-54.369z"/><path id="a" d="M166.645 2687.7h41.617v27.514h-41.617z"/><path id="b" d="M316.851 2712.102h47.701v20.77h-47.701z"/><path id="d" d="M218.91 2713.124H409.4v24.943H218.91z"/><path id="e" d="M79.327 2481.229h163.681v22.612H79.327z"/><path id="f" d="M79.327 2481.229h192.789v25.134H79.327z"/><path id="g" d="M46.666 2703.453h226.105v39.248H46.666z"/><path id="i" d="M73.224 2725.996h34.431v43.986H73.224z"/><path id="j" d="M133.393 2744.662h55.744v61.344h-55.744z"/><path id="k" d="M210.085 2744.655h38.356v35.555h-38.356z"/><path id="l" d="M279.073 2746.856h44.978v50.056h-44.978z"/><path id="m" d="M385.47 2748.505h21.198v29.764H385.47z"/><path id="n" d="M81.064 2843.81h254.209v35.798H81.064z"/><path id="o" d="M475.123 2772.067h157.898v48.357H475.123z"/><marker id="h" markerHeight="5" markerWidth="8.75" orient="auto-start-reverse" preserveAspectRatio="xMidYMid" refX="0" refY="0" style="overflow:visible" viewBox="0 0 8.75 5"><path d="m0 0 5-5-17.5 5L5 5Z" style="fill:context-stroke;fill-rule:evenodd;stroke:none" transform="scale(-.5)"/></marker><marker id="c" markerHeight="5" markerWidth="8.75" orient="auto-start-reverse" preserveAspectRatio="xMidYMid" refX="0" refY="0" style="overflow:visible" viewBox="0 0 8.75 5"><path d="m0 0 5-5-17.5 5L5 5Z" style="fill:context-stroke;fill-rule:evenodd;stroke:none" transform="scale(-.5)"/></marker><marker id="r" markerHeight="5" markerWidth="8.75" orient="auto-start-reverse" preserveAspectRatio="xMidYMid" refX="0" refY="0" style="overflow:visible" viewBox="0 0 8.75 5"><path d="m0 0 5-5-17.5 5L5 5Z" style="fill:context-stroke;fill-rule:evenodd;stroke:none" transform="scale(-.5)"/></marker></defs><g transform="translate(-17.336 -1677.062)"><path d="M17.469 1677.195h105.408v95.586H17.469z" style="fill:#fff;stroke:#fff;stroke-width:.264582"/><path d="M64.026 1705.903v15.164" style="fill:none;stroke:#b3b3b3;stroke-width:.264583px;stroke-linecap:butt;stroke-linejoin:miter;stroke-opacity:1"/><circle cx="41.593" cy="1713.519" r="16.194" style="fill:none;stroke:#0cf;stroke-width:.264583"/><circle cx="96.281" cy="1713.519" r="23.609" style="fill:#fff;stroke:#0cf;stroke-width:.264583"/><path d="M41.593 1713.519h54.688" style="fill:none;stroke:#b3b3b3;stroke-width:.264583px;stroke-linecap:butt;stroke-linejoin:miter;stroke-opacity:1"/><path d="m53.356 1702.204 25.856 27.504" style="fill:none;stroke:#00f;stroke-width:.264583px;stroke-linecap:butt;stroke-linejoin:miter;stroke-opacity:1"/><path d="m41.685 1713.292 11.795-11.082M96.19 1713.747l-17.04 16.018" style="fill:none;stroke:teal;stroke-width:.264583px;stroke-linecap:butt;stroke-linejoin:miter;stroke-opacity:1"/><path d="m78.259 1728.487 1.079-1.009 1.09 1.076M54.48 1703.438l-1.08 1.009-1.088-1.075" style="fill:none;stroke:#4d4d4d;stroke-width:.264583px;stroke-linecap:butt;stroke-linejoin:miter;stroke-opacity:1"/><text xml:space="preserve" style="font-size:14.6667px;line-height:1.25;font-family:sans-serif;white-space:pre;shape-inside:url(#a);display:inline;fill:teal" transform="matrix(.26458 0 0 .26458 -4.319 992.058)"><tspan x="166.645" y="2700.676">brr1</tspan></text><text xml:space="preserve" style="font-size:14.6667px;line-height:1.25;font-family:sans-serif;white-space:pre;shape-inside:url(#b);display:inline;fill:teal" transform="matrix(.26458 0 0 .26458 -5 1000.36)"><tspan x="316.852" y="2725.078">brr2</tspan></text><path d="M41.685 1713.291v47.19M96.19 1713.935v47.19" style="fill:none;stroke:#ccc;stroke-width:.264583px;stroke-linecap:butt;stroke-linejoin:miter;stroke-opacity:1"/><path d="M43.37 1759.084h51.356" style="fill:none;stroke:#333;stroke-width:.264583px;stroke-linecap:butt;stroke-linejoin:miter;stroke-opacity:1;marker-start:url(#c);marker-end:url(#Arrow1L-75)"/><text xml:space="preserve" style="font-size:14.6667px;line-height:1.25;font-family:sans-serif;white-space:pre;shape-inside:url(#d);display:inline" transform="matrix(.26458 0 0 .26458 -9.53 1037.09)"><tspan x="218.91" y="2726.1">e: inter-axis distance</tspan></text><text xml:space="preserve" style="font-size:14.6667px;line-height:1.25;font-family:sans-serif;white-space:pre;shape-inside:url(#e);display:inline" transform="matrix(.26458 0 0 .26458 -2.638 1022.95)"><tspan x="79.326" y="2494.205">base-right-circle-1</tspan></text><text xml:space="preserve" style="font-size:14.6667px;line-height:1.25;font-family:sans-serif;white-space:pre;shape-inside:url(#f);display:inline" transform="matrix(.26458 0 0 .26458 62.408 1022.11)"><tspan x="79.326" y="2494.205">base-right-circle-2</tspan></text><path d="m22.555 1683.928 9.013 16.007M111.246 1682.544l-3.438 9.292" style="fill:none;stroke:#0cf;stroke-width:.264583px;stroke-linecap:butt;stroke-linejoin:miter;stroke-opacity:1"/><text xml:space="preserve" style="font-size:14.6667px;line-height:1.25;font-family:sans-serif;white-space:pre;shape-inside:url(#g);display:inline;fill:#a80" transform="matrix(.26458 0 0 .26458 46.197 986.29)"><tspan x="46.666" y="2716.43">ppa=pressure positive angle</tspan></text><path d="M63.886 1707.475s-1.154-.284-1.683-.153c-.448.112-1.05.744-1.05.744" style="fill:none;stroke:#d4aa00;stroke-width:.264582px;stroke-linecap:butt;stroke-linejoin:miter;stroke-opacity:1;marker-end:url(#h)"/><path d="m68.122 1716.951 3.967-10.943M64.415 1707.101l4.687-1.773" style="fill:none;stroke:#d4aa00;stroke-width:.264583px;stroke-linecap:butt;stroke-linejoin:miter;stroke-opacity:1"/><text xml:space="preserve" style="font-size:14.6667px;line-height:1.25;font-family:sans-serif;white-space:pre;shape-inside:url(#i);display:inline" transform="matrix(.26458 0 0 .26458 18.316 990.389)"><tspan x="73.225" y="2738.973">A</tspan></text><text xml:space="preserve" style="font-size:14.6667px;line-height:1.25;font-family:sans-serif;white-space:pre;shape-inside:url(#j);display:inline" transform="matrix(.26458 0 0 .26458 17.777 971.02)"><tspan x="133.393" y="2757.639">B</tspan></text><text xml:space="preserve" style="font-size:14.6667px;line-height:1.25;font-family:sans-serif;white-space:pre;shape-inside:url(#k);display:inline" transform="matrix(.26458 0 0 .26458 5.245 987.261)"><tspan x="210.086" y="2757.633">C</tspan></text><text xml:space="preserve" style="font-size:14.6667px;line-height:1.25;font-family:sans-serif;white-space:pre;shape-inside:url(#l);display:inline" transform="matrix(.26458 0 0 .26458 2.455 1003.147)"><tspan x="279.072" y="2759.832">D</tspan></text><text xml:space="preserve" style="font-size:14.6667px;line-height:1.25;font-family:sans-serif;white-space:pre;shape-inside:url(#m);display:inline" transform="matrix(.26458 0 0 .26458 -5.931 981.975)"><tspan x="385.471" y="2761.481">E</tspan></text><text xml:space="preserve" style="font-size:14.6667px;line-height:1.25;font-family:sans-serif;white-space:pre;shape-inside:url(#n);display:inline" transform="matrix(.26458 0 0 .26458 -3.2 1015.569)"><tspan x="81.064" y="2856.787">base right circle for involute</tspan></text><path d="M55.08 1719.879s-.857 2.318-1.595 3.287c-.83 1.09-3.087 2.715-3.087 2.715" style="fill:none;stroke:#000;stroke-width:.264583;stroke-linecap:butt;stroke-linejoin:miter;stroke-opacity:1;marker-end:url(#c)"/><text xml:space="preserve" style="font-size:14.6667px;line-height:1.25;font-family:sans-serif;white-space:pre;shape-inside:url(#o);display:inline" transform="matrix(.26458 0 0 .26458 -76.711 1002.392)"><tspan x="475.123" y="2785.043">line of action
</tspan><tspan x="475.123" y="2803.376">pressure line</tspan></text><path d="m62.816 1735.959 6.89-15.257" style="fill:none;stroke:#00f;stroke-width:.264583px;stroke-linecap:butt;stroke-linejoin:miter;stroke-opacity:1"/><path d="M31.271 1724.657s-.702 1.914-1.425 2.58c-.923.851-3.436 1.545-3.436 1.545l-1.578-1.65s.47-2.467 1.243-3.39c.766-.914 3.09-1.801 3.09-1.801" style="fill:none;stroke:#000;stroke-width:.264583px;stroke-linecap:butt;stroke-linejoin:miter;stroke-opacity:1"/><path d="M24.564 1727.059s.288-2.363.967-3.277c.77-1.038 3.238-2.128 3.238-2.128" style="fill:none;stroke:red;stroke-width:.264583px;stroke-linecap:butt;stroke-linejoin:miter;stroke-opacity:1"/><path d="M31.271 1724.657s-.702 1.914-1.425 2.58c-.923.851-3.436 1.545-3.436 1.545l-1.578-1.65s.47-2.467 1.243-3.39c.766-.914 3.09-1.801 3.09-1.801" style="fill:none;stroke:#000;stroke-width:.264583px;stroke-linecap:butt;stroke-linejoin:miter;stroke-opacity:1"/><path d="M24.564 1727.059s.288-2.363.967-3.277c.77-1.038 3.238-2.128 3.238-2.128" style="fill:none;stroke:red;stroke-width:.264583px;stroke-linecap:butt;stroke-linejoin:miter;stroke-opacity:1"/><path d="M27.71 1719.313s-1.268 1.597-2.164 2.002c-1.144.518-3.748.387-3.748.387l-.98-2.061s1.222-2.195 2.246-2.828c1.014-.627 3.5-.74 3.5-.74" style="fill:none;stroke:#000;stroke-width:.264583px;stroke-linecap:butt;stroke-linejoin:miter;stroke-opacity:1"/><path d="M20.587 1719.486s1.016-2.152 1.948-2.807c1.056-.743 3.742-1.002 3.742-1.002" style="fill:none;stroke:red;stroke-width:.264583px;stroke-linecap:butt;stroke-linejoin:miter;stroke-opacity:1"/><path d="M27.71 1719.313s-1.268 1.597-2.164 2.002c-1.144.518-3.748.387-3.748.387l-.98-2.061s1.222-2.195 2.246-2.828c1.014-.627 3.5-.74 3.5-.74" style="fill:none;stroke:#000;stroke-width:.264583px;stroke-linecap:butt;stroke-linejoin:miter;stroke-opacity:1"/><path d="M20.587 1719.486s1.016-2.152 1.948-2.807c1.056-.743 3.742-1.002 3.742-1.002" style="fill:none;stroke:red;stroke-width:.264583px;stroke-linecap:butt;stroke-linejoin:miter;stroke-opacity:1"/><path d="M77.133 1701.814s-2.011-.338-2.799-.926c-1.006-.751-2.15-3.094-2.15-3.094l1.33-1.854s2.512.01 3.561.599c1.04.584 2.34 2.706 2.34 2.706" style="fill:none;stroke:#000;stroke-width:.264583px;stroke-linecap:butt;stroke-linejoin:miter;stroke-opacity:1"/><path d="M73.538 1695.663s2.375-.151 3.4.348c1.16.565 2.686 2.791 2.686 2.791" style="fill:none;stroke:red;stroke-width:.264583px;stroke-linecap:butt;stroke-linejoin:miter;stroke-opacity:1"/><path d="M77.133 1701.814s-2.011-.338-2.799-.926c-1.006-.751-2.15-3.094-2.15-3.094l1.33-1.854s2.512.01 3.561.599c1.04.584 2.34 2.706 2.34 2.706" style="fill:none;stroke:#000;stroke-width:.264583px;stroke-linecap:butt;stroke-linejoin:miter;stroke-opacity:1"/><path d="M73.538 1695.663s2.375-.151 3.4.348c1.16.565 2.686 2.791 2.686 2.791" style="fill:none;stroke:red;stroke-width:.264583px;stroke-linecap:butt;stroke-linejoin:miter;stroke-opacity:1"/><path d="M81.323 1696.694s-1.804-.953-2.367-1.758c-.719-1.03-1.07-3.613-1.07-3.613l1.846-1.342s2.382.797 3.193 1.687c.803.881 1.371 3.304 1.371 3.304" style="fill:none;stroke:#000;stroke-width:.264583px;stroke-linecap:butt;stroke-linejoin:miter;stroke-opacity:1"/><path d="M79.842 1689.725s2.302.603 3.117 1.398c.925.901 1.674 3.494 1.674 3.494" style="fill:none;stroke:red;stroke-width:.264583px;stroke-linecap:butt;stroke-linejoin:miter;stroke-opacity:1"/><path d="M81.323 1696.694s-1.804-.953-2.367-1.758c-.719-1.03-1.07-3.613-1.07-3.613l1.846-1.342s2.382.797 3.193 1.687c.803.881 1.371 3.304 1.371 3.304" style="fill:none;stroke:#000;stroke-width:.264583px;stroke-linecap:butt;stroke-linejoin:miter;stroke-opacity:1"/><path d="M79.842 1689.725s2.302.603 3.117 1.398c.925.901 1.674 3.494 1.674 3.494" style="fill:none;stroke:red;stroke-width:.264583px;stroke-linecap:butt;stroke-linejoin:miter;stroke-opacity:1"/><path d="M39.24 1698.399s-.9-1.83-.882-2.813c.023-1.256 1.257-3.552 1.257-3.552h2.283s1.459 2.045 1.592 3.241c.132 1.185-.832 3.48-.832 3.48" style="fill:none;stroke:#000;stroke-width:.264583px;stroke-linecap:butt;stroke-linejoin:miter;stroke-opacity:1"/><path d="M42.137 1691.89s1.508 1.84 1.701 2.963c.218 1.273-.699 3.81-.699 3.81" style="fill:none;stroke:red;stroke-width:.264583px;stroke-linecap:butt;stroke-linejoin:miter;stroke-opacity:1"/><path d="M39.24 1698.399s-.9-1.83-.882-2.813c.023-1.256 1.257-3.552 1.257-3.552h2.283s1.459 2.045 1.592 3.241c.132 1.185-.832 3.48-.832 3.48" style="fill:none;stroke:#000;stroke-width:.264583px;stroke-linecap:butt;stroke-linejoin:miter;stroke-opacity:1"/><path d="M42.137 1691.89s1.508 1.84 1.701 2.963c.218 1.273-.699 3.81-.699 3.81" style="fill:none;stroke:red;stroke-width:.264583px;stroke-linecap:butt;stroke-linejoin:miter;stroke-opacity:1"/><path d="M37.17 1727.877s.24 2.025-.105 2.946c-.44 1.176-2.368 2.93-2.368 2.93l-2.152-.758s-.695-2.414-.423-3.586c.27-1.162 1.943-3.004 1.943-3.004" style="fill:none;stroke:#000;stroke-width:.264583px;stroke-linecap:butt;stroke-linejoin:miter;stroke-opacity:1"/><path d="M32.272 1733.05s-.81-2.238-.618-3.36c.218-1.274 1.928-3.362 1.928-3.362" style="fill:none;stroke:red;stroke-width:.264583px;stroke-linecap:butt;stroke-linejoin:miter;stroke-opacity:1"/><path d="M37.17 1727.877s.24 2.025-.105 2.946c-.44 1.176-2.368 2.93-2.368 2.93l-2.152-.758s-.695-2.414-.423-3.586c.27-1.162 1.943-3.004 1.943-3.004" style="fill:none;stroke:#000;stroke-width:.264583px;stroke-linecap:butt;stroke-linejoin:miter;stroke-opacity:1"/><path d="M32.272 1733.05s-.81-2.238-.618-3.36c.218-1.274 1.928-3.362 1.928-3.362" style="fill:none;stroke:red;stroke-width:.264583px;stroke-linecap:butt;stroke-linejoin:miter;stroke-opacity:1"/><path d="M87.176 1692.836s-1.442-1.442-1.742-2.378c-.383-1.196.044-3.768.044-3.768l2.16-.738s2.04 1.465 2.553 2.554c.507 1.08.335 3.562.335 3.562" style="fill:none;stroke:#000;stroke-width:.264583px;stroke-linecap:butt;stroke-linejoin:miter;stroke-opacity:1"/><path d="M87.818 1685.74s2.022 1.255 2.566 2.256c.618 1.134.569 3.832.569 3.832" style="fill:none;stroke:red;stroke-width:.264583px;stroke-linecap:butt;stroke-linejoin:miter;stroke-opacity:1"/><path d="M87.176 1692.836s-1.442-1.442-1.742-2.378c-.383-1.196.044-3.768.044-3.768l2.16-.738s2.04 1.465 2.553 2.554c.507 1.08.335 3.562.335 3.562" style="fill:none;stroke:#000;stroke-width:.264583px;stroke-linecap:butt;stroke-linejoin:miter;stroke-opacity:1"/><path d="M87.818 1685.74s2.022 1.255 2.566 2.256c.618 1.134.569 3.832.569 3.832" style="fill:none;stroke:red;stroke-width:.264583px;stroke-linecap:butt;stroke-linejoin:miter;stroke-opacity:1"/><text xml:space="preserve" style="font-style:normal;font-variant:normal;font-weight:400;font-stretch:normal;font-size:14.6667px;line-height:1.25;font-family:sans-serif;-inkscape-font-specification:sans-serif;white-space:pre;shape-inside:url(#p);display:inline;fill:#666" transform="matrix(.26458 0 0 .26458 -21.063 1.416)"><tspan x="199.199" y="6392.055">left</tspan></text><text xml:space="preserve" style="font-size:14.6667px;line-height:1.25;font-family:sans-serif;white-space:pre;shape-inside:url(#q);display:inline;fill:#666" transform="matrix(.26458 0 0 .26458 -14.66 22.072)"><tspan x="221.883" y="6314.633">right</tspan></text><path d="M64.109 1719.305s1.153.284 1.682.153c.448-.112 1.051-.744 1.051-.744" style="fill:none;stroke:#d4aa00;stroke-width:.264582px;stroke-linecap:butt;stroke-linejoin:miter;stroke-opacity:1;marker-end:url(#r)"/><path d="M116.884 1722.79s-.857 2.318-1.594 3.287c-.83 1.09-3.088 2.715-3.088 2.715" style="fill:none;stroke:#000;stroke-width:.264583;stroke-linecap:butt;stroke-linejoin:miter;stroke-opacity:1;marker-start:url(#h)"/><text xml:space="preserve" style="font-size:14.6667px;line-height:1.25;font-family:sans-serif;white-space:pre;shape-inside:url(#s);display:inline" transform="matrix(.26458 0 0 .26458 -65.445 -28.917)"><tspan x="427.137" y="6620.459">cw</tspan></text><text xml:space="preserve" style="font-size:14.6667px;line-height:1.25;font-family:sans-serif;white-space:pre;shape-inside:url(#t);display:inline" transform="matrix(.26458 0 0 .26458 -9.766 -44.507)"><tspan x="443.355" y="6691.221">ccw</tspan></text></g></svg>