<svg xmlns="http://www.w3.org/2000/svg" width="462.781" height="182.34" viewBox="0 0 122.444 48.244"><defs><path id="d" d="M58.653 5358.592h160.942v60.349H58.653z"/><path id="c" d="M258.997 5379.074H427.44v53.198H258.997z"/><path id="b" d="M50.924 5255.465h481.942v89.532H50.924z"/><path id="a" d="M43.274 5201.168H262.12v53.123H43.274z"/><marker id="e" markerHeight="5" markerWidth="8.75" orient="auto-start-reverse" preserveAspectRatio="xMidYMid" refX="0" refY="0" style="overflow:visible" viewBox="0 0 8.75 5"><path d="m0 0 5-5-17.5 5L5 5Z" style="fill:context-stroke;fill-rule:evenodd;stroke:none" transform="scale(-.5)"/></marker></defs><path d="M9.003 1370.008h122.18v47.979H9.003z" style="fill:#fff;stroke:#fff;stroke-width:.264583" transform="translate(-8.87 -1369.876)"/><text xml:space="preserve" style="font-size:14.6667px;line-height:1.25;font-family:sans-serif;white-space:pre;shape-inside:url(#a);display:inline" transform="matrix(.26458 0 0 .26458 -9.074 -1373.691)"><tspan x="43.273" y="5214.145">high-tech path</tspan></text><text xml:space="preserve" style="font-size:14.6667px;line-height:1.25;font-family:sans-serif;white-space:pre;shape-inside:url(#b);display:inline" transform="matrix(.26458 0 0 .26458 -8.87 -1369.876)"><tspan x="50.924" y="5268.441">3D drawing &gt; Parametrization &gt; Recompute &gt; 3D display</tspan></text><text xml:space="preserve" style="font-size:14.6667px;line-height:1.25;font-family:sans-serif;white-space:pre;shape-inside:url(#c);display:inline" transform="matrix(.26458 0 0 .26458 9.457 -1420.19)"><tspan x="258.996" y="5392.051">computing
</tspan><tspan x="258.996" y="5410.384">demanding</tspan></text><text xml:space="preserve" style="font-size:14.6667px;line-height:1.25;font-family:sans-serif;white-space:pre;shape-inside:url(#d);display:inline" transform="matrix(.26458 0 0 .26458 -8.66 -1382.823)"><tspan x="58.654" y="5371.568">might be wrongly
</tspan><tspan x="58.654" y="5389.902">defined</tspan></text><path d="m26.88 1404.786-.95-8.653" style="fill:none;stroke:#000;stroke-width:.264583px;stroke-linecap:butt;stroke-linejoin:miter;stroke-opacity:1;marker-end:url(#e)" transform="translate(-8.87 -1369.876)"/><path d="m98.815 1382.91-.871 6.852" style="fill:none;stroke:#000;stroke-width:.264583px;stroke-linecap:butt;stroke-linejoin:miter;stroke-opacity:1;marker-end:url(#e)" transform="translate(-8.87 -1369.876)"/></svg>