<svg xmlns="http://www.w3.org/2000/svg" width="275.538" height="245.555" viewBox="0 0 72.903 64.97"><defs><path id="p" d="M233.92 487.777h62.577v47.574H233.92z"/><path id="o" d="M62.586 328.485h255.34v34.586H62.586z"/><path id="n" d="M209.512 237.971h32.899v19.47h-32.899z"/><path id="l" d="M190.743 238.793h32.673v18.216h-32.673z"/><path id="q" d="M126.984 258.936h42.995v24.019h-42.995z"/><path id="j" d="M144.961 171.434h20.181v17.024h-20.181z"/><path id="i" d="M277.39 227.391h29.253v20.905H277.39z"/><path id="h" d="M165.537 227.936h17.956v23.248h-17.956z"/><path id="g" d="M154.52 258.846h53.162v18.637H154.52z"/><path id="f" d="M134.534 178.276h23.407v18.098h-23.407z"/><path id="e" d="M297.447 262.575h73.804v34.937h-73.804z"/><path id="c" d="M297.447 262.575h73.804v34.937h-73.804z"/><path id="a" d="M36.4 1385.045h164.142v25.89H36.4z"/><marker id="m" markerHeight="5" markerWidth="8.75" orient="auto-start-reverse" preserveAspectRatio="xMidYMid" refX="0" refY="0" style="overflow:visible" viewBox="0 0 8.75 5"><path d="m0 0 5-5-17.5 5L5 5Z" style="fill:context-stroke;fill-rule:evenodd;stroke:none" transform="scale(-.5)"/></marker><marker id="k" markerHeight="5" markerWidth="8.75" orient="auto-start-reverse" preserveAspectRatio="xMidYMid" refX="0" refY="0" style="overflow:visible" viewBox="0 0 8.75 5"><path d="m0 0 5-5-17.5 5L5 5Z" style="fill:context-stroke;fill-rule:evenodd;stroke:none" transform="scale(-.5)"/></marker><marker id="d" markerHeight="5" markerWidth="8.75" orient="auto-start-reverse" preserveAspectRatio="xMidYMid" refX="0" refY="0" style="overflow:visible" viewBox="0 0 8.75 5"><path d="m0 0 5-5-17.5 5L5 5Z" style="fill:context-stroke;fill-rule:evenodd;stroke:none" transform="scale(-.5)"/></marker><marker id="b" markerHeight="5" markerWidth="8.75" orient="auto-start-reverse" preserveAspectRatio="xMidYMid" refX="0" refY="0" style="overflow:visible" viewBox="0 0 8.75 5"><path d="m0 0 5-5-17.5 5L5 5Z" style="fill:context-stroke;fill-rule:evenodd;stroke:none" transform="scale(-.5)"/></marker></defs><g transform="translate(-8.517 -28.008)"><path d="M8.649 28.141h72.638v64.705H8.649z" style="fill:#fff;stroke:#fff;stroke-width:.264583"/><text xml:space="preserve" style="font-size:14.6667px;line-height:1.25;font-family:sans-serif;white-space:pre;shape-inside:url(#a);display:inline" transform="matrix(.26458 0 0 .26458 .557 -337.37)"><tspan x="36.4" y="1398.022">tooth right side</tspan></text><path d="M77.153 49.953s.27-1.329.05-1.917c-.22-.585-1.25-1.28-1.25-1.28" style="fill:none;stroke:#000;stroke-width:.264583px;stroke-linecap:butt;stroke-linejoin:miter;stroke-opacity:1;marker-end:url(#b)"/><text xml:space="preserve" style="font-size:14.6667px;line-height:1.25;font-family:sans-serif;white-space:pre;shape-inside:url(#c);display:inline" transform="matrix(.26458 0 0 .26458 -1.753 -25.027)"><tspan x="297.447" y="275.551">u</tspan></text><path d="m36.275 60.315 36.661-10.567" style="fill:none;stroke:green;stroke-width:.264583px;stroke-linecap:butt;stroke-linejoin:miter;stroke-opacity:1"/><circle cx="36.275" cy="60.315" r="24.769" style="fill:none;stroke:gray;stroke-width:.264583"/><path d="M36.275 60.315h24.769M36.275 60.315 46.491 37.75" style="fill:none;stroke:teal;stroke-width:.264583px;stroke-linecap:butt;stroke-linejoin:miter;stroke-opacity:1"/><path d="M40.672 60.261s.272-1.329.05-1.917c-.22-.585-1.248-1.28-1.248-1.28" style="fill:none;stroke:#000;stroke-width:.264583px;stroke-linecap:butt;stroke-linejoin:miter;stroke-opacity:1;marker-end:url(#d)"/><text xml:space="preserve" style="font-size:14.6667px;line-height:1.25;font-family:sans-serif;white-space:pre;shape-inside:url(#e);display:inline" transform="matrix(.26458 0 0 .26458 -38.234 -14.719)"><tspan x="297.447" y="275.551">u</tspan></text><path d="m46.487 37.758 26.45 11.99" style="fill:none;stroke:red;stroke-width:.264582px;stroke-linecap:butt;stroke-linejoin:miter;stroke-opacity:1"/><text xml:space="preserve" style="font-size:14.6667px;line-height:1.25;font-family:sans-serif;white-space:pre;shape-inside:url(#f);display:inline" transform="matrix(.26458 0 0 .26458 2.86 -2.523)"><tspan x="134.535" y="191.252">R</tspan></text><path d="M46.608 37.988s2.778 1.371 4.055 2.24c1.336.91 2.625 1.917 3.737 3.089 1.209 1.273 2.221 2.732 3.139 4.228.832 1.358 1.577 2.784 2.129 4.278.51 1.384.842 2.836 1.074 4.293.22 1.378.298 4.176.298 4.176" style="fill:none;stroke:red;stroke-width:.264583px;stroke-linecap:butt;stroke-linejoin:miter;stroke-opacity:1"/><text xml:space="preserve" style="font-size:14.6667px;line-height:1.25;font-family:sans-serif;white-space:pre;shape-inside:url(#g);display:inline" transform="matrix(.26458 0 0 .26458 19.124 -28.351)"><tspan x="154.52" y="271.822">u*R</tspan></text><text xml:space="preserve" style="font-size:14.6667px;line-height:1.25;font-family:sans-serif;white-space:pre;shape-inside:url(#h);display:inline" transform="matrix(.26458 0 0 .26458 -10.583 0)"><tspan x="165.537" y="240.912">O</tspan></text><text xml:space="preserve" style="font-size:14.6667px;line-height:1.25;font-family:sans-serif;white-space:pre;shape-inside:url(#i);display:inline" transform="matrix(.26458 0 0 .26458 -11.741 -.106)"><tspan x="277.391" y="240.367">A</tspan></text><text xml:space="preserve" style="font-size:14.6667px;line-height:1.25;font-family:sans-serif;white-space:pre;shape-inside:url(#j);display:inline" transform="matrix(.26458 0 0 .26458 7.092 -12.082)"><tspan x="144.961" y="184.41">B</tspan></text><path d="M46.555 57.293s-.52-2.583-1.178-3.696a4.278 4.278 0 0 0-1.29-1.355c-.6-.4-2.017-.78-2.017-.78" style="fill:none;stroke:#000;stroke-width:.264583px;stroke-linecap:butt;stroke-linejoin:miter;stroke-opacity:1;marker-end:url(#k)"/><text xml:space="preserve" style="font-size:14.6667px;line-height:1.25;font-family:sans-serif;white-space:pre;shape-inside:url(#l);display:inline" transform="matrix(.26458 0 0 .26458 -5.498 -13.164)"><tspan x="190.742" y="251.77">v</tspan></text><path d="M49.785 60.219s.495-.87.488-1.349c-.006-.441-.486-1.231-.486-1.231" style="fill:none;stroke:#000;stroke-width:.264583px;stroke-linecap:butt;stroke-linejoin:miter;stroke-opacity:1;marker-end:url(#m)"/><text xml:space="preserve" style="font-size:14.6667px;line-height:1.25;font-family:sans-serif;white-space:pre;shape-inside:url(#n);display:inline" transform="matrix(.26458 0 0 .26458 -4.934 -6.65)"><tspan x="209.512" y="250.947">w</tspan></text><path d="M61.225 60.291s1.784-.046 2.591-.378c2.47-1.015 4.705-2.73 6.448-4.752 1.303-1.511 2.198-3.388 2.803-5.29.904-2.844 1.032-5.898 1.15-8.88.105-2.69-.408-8.064-.408-8.064" style="fill:none;stroke:#f0f;stroke-width:.529167;stroke-linecap:butt;stroke-linejoin:miter;stroke-opacity:1;marker-end:url(#m)"/><text xml:space="preserve" style="font-size:14.6667px;line-height:1.25;font-family:sans-serif;white-space:pre;shape-inside:url(#o);display:inline" transform="matrix(.26458 0 0 .26458 -4.705 .06)"><tspan x="62.586" y="341.461">involute of circle (R, 0)</tspan></text><text xml:space="preserve" style="font-size:14.6667px;line-height:1.25;font-family:sans-serif;white-space:pre;shape-inside:url(#p);display:inline" transform="matrix(.26458 0 0 .26458 -7.854 -78.438)"><tspan x="233.92" y="500.754">L</tspan></text><path d="m72.967 49.881 4.474-9.988" style="fill:none;stroke:teal;stroke-width:.264583px;stroke-linecap:butt;stroke-linejoin:miter;stroke-opacity:1;marker-end:url(#m)"/><text xml:space="preserve" style="font-size:14.6667px;line-height:1.25;font-family:sans-serif;white-space:pre;shape-inside:url(#q);display:inline" transform="matrix(.26458 0 0 .26458 37.274 -18.43)"><tspan x="126.984" y="271.912">C</tspan></text><path d="M73.156 49.935h7.131" style="fill:none;stroke:#999;stroke-width:.264583px;stroke-linecap:butt;stroke-linejoin:miter;stroke-opacity:1"/><path d="m46.042 38.984 1.172.512.462-1.28M73.558 48.448l-1.172-.511-.462 1.279" style="fill:none;stroke:#000;stroke-width:.264583px;stroke-linecap:butt;stroke-linejoin:miter;stroke-opacity:1"/></g></svg>