<svg xmlns="http://www.w3.org/2000/svg" width="351" height="421" viewBox="0 0 92.869 111.39"><defs><path id="X" d="M421.03 3501.819h105.966v59.328H421.03z"/><path id="K" d="M56.165 3855.664h258.027v56.404H56.165z"/><path id="c" d="M309.291 1871.785h43.699v17.924h-43.699z"/><path id="d" d="M323.205 1880.807h59.832v18.928h-59.832z"/><path id="g" d="M309.291 1871.785h43.699v17.924h-43.699z"/><path id="h" d="M323.205 1880.807h59.832v18.928h-59.832z"/><path id="k" d="M309.291 1871.785h43.699v17.924h-43.699z"/><path id="l" d="M323.205 1880.807h59.832v18.928h-59.832z"/><path id="o" d="M309.291 1871.785h43.699v17.924h-43.699z"/><path id="p" d="M323.205 1880.807h59.832v18.928h-59.832z"/><path id="w" d="M309.291 1871.785h43.699v17.924h-43.699z"/><path id="x" d="M323.205 1880.807h59.832v18.928h-59.832z"/><path id="E" d="M309.291 1871.785h43.699v17.924h-43.699z"/><path id="F" d="M323.205 1880.807h59.832v18.928h-59.832z"/><path id="L" d="M309.291 1871.785h43.699v17.924h-43.699z"/><path id="M" d="M323.205 1880.807h59.832v18.928h-59.832z"/><path id="N" d="M309.291 1871.785h43.699v17.924h-43.699z"/><path id="O" d="M323.205 1880.807h59.832v18.928h-59.832z"/><path id="P" d="M309.291 1871.785h43.699v17.924h-43.699z"/><path id="Q" d="M323.205 1880.807h59.832v18.928h-59.832z"/><path id="R" d="M309.291 1871.785h43.699v17.924h-43.699z"/><path id="S" d="M323.205 1880.807h59.832v18.928h-59.832z"/><path id="T" d="M309.291 1871.785h43.699v17.924h-43.699z"/><path id="U" d="M323.205 1880.807h59.832v18.928h-59.832z"/><path id="V" d="M309.291 1871.785h43.699v17.924h-43.699z"/><path id="W" d="M323.205 1880.807h59.832v18.928h-59.832z"/><path id="Y" d="M421.03 3501.819h105.966v59.328H421.03z"/><path id="Z" d="M421.03 3501.819h105.966v59.328H421.03z"/><path id="aa" d="M421.03 3501.819h105.966v59.328H421.03z"/><path id="ab" d="M421.03 3501.819h105.966v59.328H421.03z"/><path id="ac" d="M421.03 3501.819h105.966v59.328H421.03z"/><path id="ad" d="M421.03 3501.819h105.966v59.328H421.03z"/><path id="ae" d="M421.03 3501.819h105.966v59.328H421.03z"/><path id="af" d="M421.03 3501.819h105.966v59.328H421.03z"/><path id="ag" d="M421.03 3501.819h105.966v59.328H421.03z"/><path id="ah" d="M421.03 3501.819h105.966v59.328H421.03z"/><path id="ai" d="M421.03 3501.819h105.966v59.328H421.03z"/><marker id="a" markerHeight="5" markerWidth="8.75" orient="auto-start-reverse" preserveAspectRatio="xMidYMid" refX="0" refY="0" style="overflow:visible" viewBox="0 0 8.75 5"><path d="m0 0 5-5-17.5 5L5 5Z" style="fill:context-stroke;fill-rule:evenodd;stroke:none" transform="scale(-.5)"/></marker><marker id="b" markerHeight="5" markerWidth="8.75" orient="auto-start-reverse" preserveAspectRatio="xMidYMid" refX="0" refY="0" style="overflow:visible" viewBox="0 0 8.75 5"><path d="m0 0 5-5-17.5 5L5 5Z" style="fill:context-stroke;fill-rule:evenodd;stroke:none" transform="scale(-.5)"/></marker><marker id="e" markerHeight="5" markerWidth="8.75" orient="auto-start-reverse" preserveAspectRatio="xMidYMid" refX="0" refY="0" style="overflow:visible" viewBox="0 0 8.75 5"><path d="m0 0 5-5-17.5 5L5 5Z" style="fill:context-stroke;fill-rule:evenodd;stroke:none" transform="scale(-.5)"/></marker><marker id="f" markerHeight="5" markerWidth="8.75" orient="auto-start-reverse" preserveAspectRatio="xMidYMid" refX="0" refY="0" style="overflow:visible" viewBox="0 0 8.75 5"><path d="m0 0 5-5-17.5 5L5 5Z" style="fill:context-stroke;fill-rule:evenodd;stroke:none" transform="scale(-.5)"/></marker><marker id="i" markerHeight="5" markerWidth="8.75" orient="auto-start-reverse" preserveAspectRatio="xMidYMid" refX="0" refY="0" style="overflow:visible" viewBox="0 0 8.75 5"><path d="m0 0 5-5-17.5 5L5 5Z" style="fill:context-stroke;fill-rule:evenodd;stroke:none" transform="scale(-.5)"/></marker><marker id="j" markerHeight="5" markerWidth="8.75" orient="auto-start-reverse" preserveAspectRatio="xMidYMid" refX="0" refY="0" style="overflow:visible" viewBox="0 0 8.75 5"><path d="m0 0 5-5-17.5 5L5 5Z" style="fill:context-stroke;fill-rule:evenodd;stroke:none" transform="scale(-.5)"/></marker><marker id="m" markerHeight="5" markerWidth="8.75" orient="auto-start-reverse" preserveAspectRatio="xMidYMid" refX="0" refY="0" style="overflow:visible" viewBox="0 0 8.75 5"><path d="m0 0 5-5-17.5 5L5 5Z" style="fill:context-stroke;fill-rule:evenodd;stroke:none" transform="scale(-.5)"/></marker><marker id="n" markerHeight="5" markerWidth="8.75" orient="auto-start-reverse" preserveAspectRatio="xMidYMid" refX="0" refY="0" style="overflow:visible" viewBox="0 0 8.75 5"><path d="m0 0 5-5-17.5 5L5 5Z" style="fill:context-stroke;fill-rule:evenodd;stroke:none" transform="scale(-.5)"/></marker><marker id="q" markerHeight="5" markerWidth="8.75" orient="auto-start-reverse" preserveAspectRatio="xMidYMid" refX="0" refY="0" style="overflow:visible" viewBox="0 0 8.75 5"><path d="m0 0 5-5-17.5 5L5 5Z" style="fill:context-stroke;fill-rule:evenodd;stroke:none" transform="scale(-.5)"/></marker><marker id="r" markerHeight="5" markerWidth="8.75" orient="auto-start-reverse" preserveAspectRatio="xMidYMid" refX="0" refY="0" style="overflow:visible" viewBox="0 0 8.75 5"><path d="m0 0 5-5-17.5 5L5 5Z" style="fill:context-stroke;fill-rule:evenodd;stroke:none" transform="scale(-.5)"/></marker><marker id="s" markerHeight="5" markerWidth="8.75" orient="auto-start-reverse" preserveAspectRatio="xMidYMid" refX="0" refY="0" style="overflow:visible" viewBox="0 0 8.75 5"><path d="m0 0 5-5-17.5 5L5 5Z" style="fill:context-stroke;fill-rule:evenodd;stroke:none" transform="scale(-.5)"/></marker><marker id="t" markerHeight="5" markerWidth="8.75" orient="auto-start-reverse" preserveAspectRatio="xMidYMid" refX="0" refY="0" style="overflow:visible" viewBox="0 0 8.75 5"><path d="m0 0 5-5-17.5 5L5 5Z" style="fill:context-stroke;fill-rule:evenodd;stroke:none" transform="scale(-.5)"/></marker><marker id="u" markerHeight="5" markerWidth="8.75" orient="auto-start-reverse" preserveAspectRatio="xMidYMid" refX="0" refY="0" style="overflow:visible" viewBox="0 0 8.75 5"><path d="m0 0 5-5-17.5 5L5 5Z" style="fill:context-stroke;fill-rule:evenodd;stroke:none" transform="scale(-.5)"/></marker><marker id="v" markerHeight="5" markerWidth="8.75" orient="auto-start-reverse" preserveAspectRatio="xMidYMid" refX="0" refY="0" style="overflow:visible" viewBox="0 0 8.75 5"><path d="m0 0 5-5-17.5 5L5 5Z" style="fill:context-stroke;fill-rule:evenodd;stroke:none" transform="scale(-.5)"/></marker><marker id="y" markerHeight="5" markerWidth="8.75" orient="auto-start-reverse" preserveAspectRatio="xMidYMid" refX="0" refY="0" style="overflow:visible" viewBox="0 0 8.75 5"><path d="m0 0 5-5-17.5 5L5 5Z" style="fill:context-stroke;fill-rule:evenodd;stroke:none" transform="scale(-.5)"/></marker><marker id="z" markerHeight="5" markerWidth="8.75" orient="auto-start-reverse" preserveAspectRatio="xMidYMid" refX="0" refY="0" style="overflow:visible" viewBox="0 0 8.75 5"><path d="m0 0 5-5-17.5 5L5 5Z" style="fill:context-stroke;fill-rule:evenodd;stroke:none" transform="scale(-.5)"/></marker><marker id="A" markerHeight="5" markerWidth="8.75" orient="auto-start-reverse" preserveAspectRatio="xMidYMid" refX="0" refY="0" style="overflow:visible" viewBox="0 0 8.75 5"><path d="m0 0 5-5-17.5 5L5 5Z" style="fill:context-stroke;fill-rule:evenodd;stroke:none" transform="scale(-.5)"/></marker><marker id="B" markerHeight="5" markerWidth="8.75" orient="auto-start-reverse" preserveAspectRatio="xMidYMid" refX="0" refY="0" style="overflow:visible" viewBox="0 0 8.75 5"><path d="m0 0 5-5-17.5 5L5 5Z" style="fill:context-stroke;fill-rule:evenodd;stroke:none" transform="scale(-.5)"/></marker><marker id="C" markerHeight="5" markerWidth="8.75" orient="auto-start-reverse" preserveAspectRatio="xMidYMid" refX="0" refY="0" style="overflow:visible" viewBox="0 0 8.75 5"><path d="m0 0 5-5-17.5 5L5 5Z" style="fill:context-stroke;fill-rule:evenodd;stroke:none" transform="scale(-.5)"/></marker><marker id="D" markerHeight="5" markerWidth="8.75" orient="auto-start-reverse" preserveAspectRatio="xMidYMid" refX="0" refY="0" style="overflow:visible" viewBox="0 0 8.75 5"><path d="m0 0 5-5-17.5 5L5 5Z" style="fill:context-stroke;fill-rule:evenodd;stroke:none" transform="scale(-.5)"/></marker><marker id="G" markerHeight="5" markerWidth="8.75" orient="auto-start-reverse" preserveAspectRatio="xMidYMid" refX="0" refY="0" style="overflow:visible" viewBox="0 0 8.75 5"><path d="m0 0 5-5-17.5 5L5 5Z" style="fill:context-stroke;fill-rule:evenodd;stroke:none" transform="scale(-.5)"/></marker><marker id="H" markerHeight="5" markerWidth="8.75" orient="auto-start-reverse" preserveAspectRatio="xMidYMid" refX="0" refY="0" style="overflow:visible" viewBox="0 0 8.75 5"><path d="m0 0 5-5-17.5 5L5 5Z" style="fill:context-stroke;fill-rule:evenodd;stroke:none" transform="scale(-.5)"/></marker><marker id="I" markerHeight="5" markerWidth="8.75" orient="auto-start-reverse" preserveAspectRatio="xMidYMid" refX="0" refY="0" style="overflow:visible" viewBox="0 0 8.75 5"><path d="m0 0 5-5-17.5 5L5 5Z" style="fill:context-stroke;fill-rule:evenodd;stroke:none" transform="scale(-.5)"/></marker><marker id="J" markerHeight="5" markerWidth="8.75" orient="auto-start-reverse" preserveAspectRatio="xMidYMid" refX="0" refY="0" style="overflow:visible" viewBox="0 0 8.75 5"><path d="m0 0 5-5-17.5 5L5 5Z" style="fill:context-stroke;fill-rule:evenodd;stroke:none" transform="scale(-.5)"/></marker></defs><path d="M12.89 901.694h92.604v111.125H12.89z" style="fill:#fff;stroke:#fff;stroke-width:.264583;stroke-dasharray:none" transform="translate(-12.758 -901.561)"/><path d="M17.732 916.05H35.41" style="fill:none;stroke:#999;stroke-width:.264583px;stroke-linecap:butt;stroke-linejoin:miter;stroke-opacity:1;marker-end:url(#a)" transform="translate(-12.758 -901.561)"/><path d="M26.571 924.889v-17.678" style="fill:none;stroke:#999;stroke-width:.264583px;stroke-linecap:butt;stroke-linejoin:miter;stroke-opacity:1;marker-end:url(#b)" transform="translate(-12.758 -901.561)"/><path d="m33.62 911.148-7.049 4.902" style="fill:purple;stroke:purple;stroke-width:.264583px;stroke-linecap:butt;stroke-linejoin:miter;stroke-opacity:1" transform="translate(-12.758 -901.561)"/><path d="M33.696 911.172h6.68" style="fill:none;stroke:#ccc;stroke-width:.264583px;stroke-linecap:butt;stroke-linejoin:miter;stroke-opacity:1" transform="translate(-12.758 -901.561)"/><path d="M38.31 911.159s.31-.761.163-1.103c-.128-.296-.79-.556-.79-.556" style="fill:none;stroke:#00f;stroke-width:.264583px;stroke-linecap:butt;stroke-linejoin:miter;stroke-opacity:1" transform="translate(-12.758 -901.561)"/><text xml:space="preserve" style="font-size:8px;line-height:1.25;font-family:sans-serif;white-space:pre;shape-inside:url(#c);display:inline;fill:#00f" transform="matrix(.26458 0 0 .26458 -55.78 -488.138)"><tspan x="309.291" y="1878.863">ca</tspan></text><path d="M28.69 914.748s.353.207.434.433c.071.2-.006.673-.006.673" style="fill:none;stroke:purple;stroke-width:.264584px;stroke-linecap:butt;stroke-linejoin:miter;stroke-opacity:1" transform="translate(-12.758 -901.561)"/><text xml:space="preserve" style="font-size:8px;line-height:1.25;font-family:sans-serif;white-space:pre;shape-inside:url(#d);display:inline;fill:purple" transform="matrix(.26458 0 0 .26458 -68.255 -485.383)"><tspan x="323.205" y="1887.885">a1</tspan></text><path d="m21.684 915.98 4.755-.046M30.9 913.09s-.164-.09-.227-.165a.611.611 0 0 1-.123-.24c-.023-.09-.009-.283-.009-.283" style="fill:none;stroke:#f60;stroke-width:.264583px;stroke-linecap:butt;stroke-linejoin:miter;stroke-opacity:1" transform="translate(-12.758 -901.561)"/><path d="M45.53 916.05H63.21" style="fill:none;stroke:#999;stroke-width:.264583px;stroke-linecap:butt;stroke-linejoin:miter;stroke-opacity:1;marker-end:url(#e)" transform="translate(-12.758 -901.561)"/><path d="M54.37 924.889v-17.678" style="fill:none;stroke:#999;stroke-width:.264583px;stroke-linecap:butt;stroke-linejoin:miter;stroke-opacity:1;marker-end:url(#f)" transform="translate(-12.758 -901.561)"/><path d="m61.419 911.148-7.05 4.902" style="fill:purple;stroke:purple;stroke-width:.264583px;stroke-linecap:butt;stroke-linejoin:miter;stroke-opacity:1" transform="translate(-12.758 -901.561)"/><path d="M61.494 911.172h6.681" style="fill:none;stroke:#ccc;stroke-width:.264583px;stroke-linecap:butt;stroke-linejoin:miter;stroke-opacity:1" transform="translate(-12.758 -901.561)"/><path d="M63.7 911.116s.309-.76.162-1.102c-.127-.296-.79-.557-.79-.557" style="fill:none;stroke:#00f;stroke-width:.264583px;stroke-linecap:butt;stroke-linejoin:miter;stroke-opacity:1" transform="translate(-12.758 -901.561)"/><text xml:space="preserve" style="font-size:8px;line-height:1.25;font-family:sans-serif;white-space:pre;shape-inside:url(#g);display:inline;fill:#00f" transform="matrix(.26458 0 0 .26458 -30.39 -488.18)"><tspan x="309.291" y="1878.863">ca</tspan></text><path d="M56.117 914.938s.354.207.435.432c.07.2-.006.674-.006.674" style="fill:none;stroke:purple;stroke-width:.264584px;stroke-linecap:butt;stroke-linejoin:miter;stroke-opacity:1" transform="translate(-12.758 -901.561)"/><text xml:space="preserve" style="font-size:8px;line-height:1.25;font-family:sans-serif;white-space:pre;shape-inside:url(#h);display:inline;fill:purple" transform="matrix(.26458 0 0 .26458 -43.486 -487.54)"><tspan x="323.205" y="1887.885">a1</tspan></text><path d="m54.394 916.086 3.012-.046M59.506 913.376s-.164-.09-.227-.165a.611.611 0 0 1-.124-.24c-.022-.09-.008-.283-.008-.283" style="fill:none;stroke:#f60;stroke-width:.264583px;stroke-linecap:butt;stroke-linejoin:miter;stroke-opacity:1" transform="translate(-12.758 -901.561)"/><path d="M73.63 916.014h22.73" style="fill:none;stroke:#999;stroke-width:.264583px;stroke-linecap:butt;stroke-linejoin:miter;stroke-opacity:1;marker-end:url(#i)" transform="translate(-12.758 -901.561)"/><path d="M82.468 924.853v-17.678" style="fill:none;stroke:#999;stroke-width:.264583px;stroke-linecap:butt;stroke-linejoin:miter;stroke-opacity:1;marker-end:url(#j)" transform="translate(-12.758 -901.561)"/><path d="m88.321 911.963-5.85 4.054" style="fill:purple;stroke:purple;stroke-width:.264583px;stroke-linecap:butt;stroke-linejoin:miter;stroke-opacity:1" transform="translate(-12.758 -901.561)"/><path d="M88.372 911.961h6.68" style="fill:none;stroke:#ccc;stroke-width:.264583px;stroke-linecap:butt;stroke-linejoin:miter;stroke-opacity:1" transform="translate(-12.758 -901.561)"/><path d="M90.037 911.904s-.43-1.207-.958-1.431c-.6-.255-1.925.345-1.925.345" style="fill:none;stroke:#00f;stroke-width:.264583px;stroke-linecap:butt;stroke-linejoin:miter;stroke-opacity:1" transform="translate(-12.758 -901.561)"/><text xml:space="preserve" style="font-size:8px;line-height:1.25;font-family:sans-serif;white-space:pre;shape-inside:url(#k);display:inline;fill:#00f" transform="matrix(.26458 0 0 .26458 -5.205 -488.266)"><tspan x="309.291" y="1878.863">ca</tspan></text><path d="M84.586 914.712s.354.207.435.433c.071.2-.006.674-.006.674" style="fill:none;stroke:purple;stroke-width:.264584px;stroke-linecap:butt;stroke-linejoin:miter;stroke-opacity:1" transform="translate(-12.758 -901.561)"/><text xml:space="preserve" style="font-size:8px;line-height:1.25;font-family:sans-serif;white-space:pre;shape-inside:url(#l);display:inline;fill:purple" transform="matrix(.26458 0 0 .26458 -12.358 -485.418)"><tspan x="323.205" y="1887.885">a1</tspan></text><path d="m82.442 916.023 11.516-.117M89.42 912.768s-.674.542-1.083.592c-.444.054-.692.093-1.298-.34" style="fill:none;stroke:#f60;stroke-width:.264583px;stroke-linecap:butt;stroke-linejoin:miter;stroke-opacity:1" transform="translate(-12.758 -901.561)"/><path d="M17.732 942.628H35.41" style="fill:none;stroke:#999;stroke-width:.264583px;stroke-linecap:butt;stroke-linejoin:miter;stroke-opacity:1;marker-end:url(#m)" transform="translate(-12.758 -901.561)"/><path d="M26.571 951.467V933.79" style="fill:none;stroke:#999;stroke-width:.264583px;stroke-linecap:butt;stroke-linejoin:miter;stroke-opacity:1;marker-end:url(#n)" transform="translate(-12.758 -901.561)"/><path d="m22.894 938.193 3.677 4.435" style="fill:purple;stroke:purple;stroke-width:.264583px;stroke-linecap:butt;stroke-linejoin:miter;stroke-opacity:1" transform="translate(-12.758 -901.561)"/><path d="M22.968 938.152h6.681" style="fill:none;stroke:#ccc;stroke-width:.264583px;stroke-linecap:butt;stroke-linejoin:miter;stroke-opacity:1" transform="translate(-12.758 -901.561)"/><path d="M25.487 938.19s.309-.76.162-1.102c-.127-.296-.79-.557-.79-.557" style="fill:none;stroke:#00f;stroke-width:.264583px;stroke-linecap:butt;stroke-linejoin:miter;stroke-opacity:1" transform="translate(-12.758 -901.561)"/><text xml:space="preserve" style="font-size:8px;line-height:1.25;font-family:sans-serif;white-space:pre;shape-inside:url(#o);display:inline;fill:#00f" transform="matrix(.26458 0 0 .26458 -68.602 -461.107)"><tspan x="309.291" y="1878.863">ca</tspan></text><path d="M25.643 941.388s1.136-.38 1.59-.105c.42.255.593 1.35.593 1.35" style="fill:none;stroke:purple;stroke-width:.264584px;stroke-linecap:butt;stroke-linejoin:miter;stroke-opacity:1" transform="translate(-12.758 -901.561)"/><text xml:space="preserve" style="font-size:8px;line-height:1.25;font-family:sans-serif;white-space:pre;shape-inside:url(#p);display:inline;fill:purple" transform="matrix(.26458 0 0 .26458 -69.91 -458.86)"><tspan x="323.205" y="1887.885">a1</tspan></text><path d="m18.985 942.53 7.495-.036" style="fill:none;stroke:#f60;stroke-width:.264582px;stroke-linecap:butt;stroke-linejoin:miter;stroke-opacity:1" transform="translate(-12.758 -901.561)"/><path d="M23.609 939.268s-.46.267-.712.25c-.253-.015-.681-.342-.681-.342" style="fill:none;stroke:#f60;stroke-width:.264584px;stroke-linecap:butt;stroke-linejoin:miter;stroke-opacity:1" transform="translate(-12.758 -901.561)"/><path d="M45.53 942.628H63.21" style="fill:none;stroke:#999;stroke-width:.264583px;stroke-linecap:butt;stroke-linejoin:miter;stroke-opacity:1;marker-end:url(#q)" transform="translate(-12.758 -901.561)"/><path d="M54.37 951.467V933.79" style="fill:none;stroke:#999;stroke-width:.264583px;stroke-linecap:butt;stroke-linejoin:miter;stroke-opacity:1;marker-end:url(#r)" transform="translate(-12.758 -901.561)"/><path d="M73.63 942.592h17.677" style="fill:none;stroke:#999;stroke-width:.264583px;stroke-linecap:butt;stroke-linejoin:miter;stroke-opacity:1;marker-end:url(#s)" transform="translate(-12.758 -901.561)"/><path d="M82.468 951.431v-17.678" style="fill:none;stroke:#999;stroke-width:.264583px;stroke-linecap:butt;stroke-linejoin:miter;stroke-opacity:1;marker-end:url(#t)" transform="translate(-12.758 -901.561)"/><path d="M17.732 969.206H35.41" style="fill:none;stroke:#999;stroke-width:.264583px;stroke-linecap:butt;stroke-linejoin:miter;stroke-opacity:1;marker-end:url(#u)" transform="translate(-12.758 -901.561)"/><path d="M26.571 978.045v-17.678" style="fill:none;stroke:#999;stroke-width:.264583px;stroke-linecap:butt;stroke-linejoin:miter;stroke-opacity:1;marker-end:url(#v)" transform="translate(-12.758 -901.561)"/><path d="m15.761 975.621 23.243-9.27" style="fill:none;stroke:green;stroke-width:.264583px;stroke-linecap:butt;stroke-linejoin:miter;stroke-opacity:1" transform="translate(-12.758 -901.561)"/><path d="m26.534 969.293-7.05 4.902" style="fill:purple;stroke:purple;stroke-width:.264583px;stroke-linecap:butt;stroke-linejoin:miter;stroke-opacity:1" transform="translate(-12.758 -901.561)"/><path d="M19.58 974.234h6.68" style="fill:none;stroke:#ccc;stroke-width:.264583px;stroke-linecap:butt;stroke-linejoin:miter;stroke-opacity:1" transform="translate(-12.758 -901.561)"/><path d="M22.709 974.17s.204-.51.107-.738c-.084-.198-.523-.373-.523-.373" style="fill:none;stroke:#00f;stroke-width:.264583px;stroke-linecap:butt;stroke-linejoin:miter;stroke-opacity:1" transform="translate(-12.758 -901.561)"/><text xml:space="preserve" style="font-size:8px;line-height:1.25;font-family:sans-serif;white-space:pre;shape-inside:url(#w);display:inline;fill:#00f" transform="matrix(.26458 0 0 .26458 -71.246 -424.67)"><tspan x="309.291" y="1878.863">ca</tspan></text><path d="M25.916 969.755s-.32-.64-.222-.943c.099-.305.426-.439.686-.483.225-.038.509-.004.663.208.135.185.096.746.096.746" style="fill:none;stroke:purple;stroke-width:.264584px;stroke-linecap:butt;stroke-linejoin:miter;stroke-opacity:1" transform="translate(-12.758 -901.561)"/><text xml:space="preserve" style="font-size:8px;line-height:1.25;font-family:sans-serif;white-space:pre;shape-inside:url(#x);display:inline;fill:purple" transform="matrix(.26458 0 0 .26458 -74.934 -432.812)"><tspan x="323.205" y="1887.885">a1</tspan></text><path d="m31.626 969.236-4.979.047" style="fill:none;stroke:#f60;stroke-width:.264584px;stroke-linecap:butt;stroke-linejoin:miter;stroke-opacity:1" transform="translate(-12.758 -901.561)"/><path d="M23.023 971.854s.164.09.227.165c.055.066.1.15.124.24.022.09.008.284.008.284" style="fill:none;stroke:#f60;stroke-width:.264583px;stroke-linecap:butt;stroke-linejoin:miter;stroke-opacity:1" transform="translate(-12.758 -901.561)"/><path d="M45.53 969.206H63.21" style="fill:none;stroke:#999;stroke-width:.264583px;stroke-linecap:butt;stroke-linejoin:miter;stroke-opacity:1;marker-end:url(#y)" transform="translate(-12.758 -901.561)"/><path d="M54.37 978.045v-17.678" style="fill:none;stroke:#999;stroke-width:.264583px;stroke-linecap:butt;stroke-linejoin:miter;stroke-opacity:1;marker-end:url(#z)" transform="translate(-12.758 -901.561)"/><path d="M73.63 969.17h17.677" style="fill:none;stroke:#999;stroke-width:.264583px;stroke-linecap:butt;stroke-linejoin:miter;stroke-opacity:1;marker-end:url(#A)" transform="translate(-12.758 -901.561)"/><path d="M82.468 978.01V960.33" style="fill:none;stroke:#999;stroke-width:.264583px;stroke-linecap:butt;stroke-linejoin:miter;stroke-opacity:1;marker-end:url(#B)" transform="translate(-12.758 -901.561)"/><path d="M17.732 995.784H35.41" style="fill:none;stroke:#999;stroke-width:.264583px;stroke-linecap:butt;stroke-linejoin:miter;stroke-opacity:1;marker-end:url(#C)" transform="translate(-12.758 -901.561)"/><path d="M26.571 1004.624v-17.679" style="fill:none;stroke:#999;stroke-width:.264583px;stroke-linecap:butt;stroke-linejoin:miter;stroke-opacity:1;marker-end:url(#D)" transform="translate(-12.758 -901.561)"/><path d="m30.513 1004.623 5.753-18.914" style="fill:none;stroke:green;stroke-width:.264583px;stroke-linecap:butt;stroke-linejoin:miter;stroke-opacity:1" transform="translate(-12.758 -901.561)"/><path d="m32.042 999.648-5.559-3.855" style="fill:purple;stroke:purple;stroke-width:.264583px;stroke-linecap:butt;stroke-linejoin:miter;stroke-opacity:1" transform="translate(-12.758 -901.561)"/><path d="M31.972 999.65h5.166" style="fill:none;stroke:#ccc;stroke-width:.264583px;stroke-linecap:butt;stroke-linejoin:miter;stroke-opacity:1" transform="translate(-12.758 -901.561)"/><path d="M33.25 999.629s.31-.761.163-1.103c-.128-.296-.791-.557-.791-.557" style="fill:none;stroke:#00f;stroke-width:.264583px;stroke-linecap:butt;stroke-linejoin:miter;stroke-opacity:1" transform="translate(-12.758 -901.561)"/><text xml:space="preserve" style="font-size:8px;line-height:1.25;font-family:sans-serif;white-space:pre;shape-inside:url(#E);display:inline;fill:#00f" transform="matrix(.26458 0 0 .26458 -60.84 -399.669)"><tspan x="309.291" y="1878.863">ca</tspan></text><path d="M28.149 996.901s.353-.206.434-.432c.072-.2-.006-.674-.006-.674" style="fill:none;stroke:purple;stroke-width:.264584px;stroke-linecap:butt;stroke-linejoin:miter;stroke-opacity:1" transform="translate(-12.758 -901.561)"/><text xml:space="preserve" style="font-size:8px;line-height:1.25;font-family:sans-serif;white-space:pre;shape-inside:url(#F);display:inline;fill:purple" transform="matrix(.26458 0 0 .26458 -71.16 -405.804)"><tspan x="323.205" y="1887.885">a1</tspan></text><path d="m33.147 995.7-6.662.046" style="fill:none;stroke:#f60;stroke-width:.264582px;stroke-linecap:butt;stroke-linejoin:miter;stroke-opacity:1" transform="translate(-12.758 -901.561)"/><path d="M30.614 998.666s.406-.746.751-.96c.411-.255.76-.327 1.42-.293" style="fill:none;stroke:#f60;stroke-width:.264584px;stroke-linecap:butt;stroke-linejoin:miter;stroke-opacity:1" transform="translate(-12.758 -901.561)"/><path d="M45.53 995.784H63.21" style="fill:none;stroke:#999;stroke-width:.264583px;stroke-linecap:butt;stroke-linejoin:miter;stroke-opacity:1;marker-end:url(#G)" transform="translate(-12.758 -901.561)"/><path d="M54.37 1004.624v-17.679" style="fill:none;stroke:#999;stroke-width:.264583px;stroke-linecap:butt;stroke-linejoin:miter;stroke-opacity:1;marker-end:url(#H)" transform="translate(-12.758 -901.561)"/><path d="M73.63 995.748h17.677" style="fill:none;stroke:#999;stroke-width:.264583px;stroke-linecap:butt;stroke-linejoin:miter;stroke-opacity:1;marker-end:url(#I)" transform="translate(-12.758 -901.561)"/><path d="M82.468 1004.588v-17.679" style="fill:none;stroke:#999;stroke-width:.264583px;stroke-linecap:butt;stroke-linejoin:miter;stroke-opacity:1;marker-end:url(#J)" transform="translate(-12.758 -901.561)"/><text xml:space="preserve" style="font-size:14.6667px;line-height:1.25;font-family:sans-serif;white-space:pre;shape-inside:url(#K);display:inline" transform="matrix(.26458 0 0 .26458 -13.048 -913.38)"><tspan x="56.164" y="3868.641">X-axis cases</tspan></text><path d="m95.205 916.759-14.965-10.54" style="fill:none;stroke:green;stroke-width:.264584px;stroke-linecap:butt;stroke-linejoin:miter;stroke-opacity:1" transform="translate(-12.758 -901.561)"/><path d="m16.385 918.001 23.242-9.269M49.754 925.47l15.889-19.331" style="fill:none;stroke:green;stroke-width:.264583px;stroke-linecap:butt;stroke-linejoin:miter;stroke-opacity:1" transform="translate(-12.758 -901.561)"/><path d="m50.777 938.332 3.677 4.435" style="fill:purple;stroke:purple;stroke-width:.264583px;stroke-linecap:butt;stroke-linejoin:miter;stroke-opacity:1" transform="translate(-12.758 -901.561)"/><path d="M50.85 938.291h3.055" style="fill:none;stroke:#ccc;stroke-width:.264583px;stroke-linecap:butt;stroke-linejoin:miter;stroke-opacity:1" transform="translate(-12.758 -901.561)"/><path d="M51.86 938.411s.35-.782.161-1.102c-.242-.411-1.34-.504-1.34-.504" style="fill:none;stroke:#00f;stroke-width:.264583px;stroke-linecap:butt;stroke-linejoin:miter;stroke-opacity:1" transform="translate(-12.758 -901.561)"/><text xml:space="preserve" style="font-size:8px;line-height:1.25;font-family:sans-serif;white-space:pre;shape-inside:url(#L);display:inline;fill:#00f" transform="matrix(.26458 0 0 .26458 -43.012 -462.206)"><tspan x="309.291" y="1878.863">ca</tspan></text><path d="M53.526 941.527s1.135-.38 1.59-.105c.42.255.593 1.35.593 1.35" style="fill:none;stroke:purple;stroke-width:.264584px;stroke-linecap:butt;stroke-linejoin:miter;stroke-opacity:1" transform="translate(-12.758 -901.561)"/><text xml:space="preserve" style="font-size:8px;line-height:1.25;font-family:sans-serif;white-space:pre;shape-inside:url(#M);display:inline;fill:purple" transform="matrix(.26458 0 0 .26458 -42.026 -458.721)"><tspan x="323.205" y="1887.885">a1</tspan></text><path d="m51.597 942.67 2.76-.037" style="fill:none;stroke:#f60;stroke-width:.264582px;stroke-linecap:butt;stroke-linejoin:miter;stroke-opacity:1" transform="translate(-12.758 -901.561)"/><path d="M52.19 940.138s.004.397-.134.501c-.201.152-.758-.011-.758-.011" style="fill:none;stroke:#f60;stroke-width:.264584px;stroke-linecap:butt;stroke-linejoin:miter;stroke-opacity:1" transform="translate(-12.758 -901.561)"/><path d="m52.484 949.134-2.296-14.897M15.38 945.977l14.977-15.138" style="fill:none;stroke:green;stroke-width:.264583px;stroke-linecap:butt;stroke-linejoin:miter;stroke-opacity:1" transform="translate(-12.758 -901.561)"/><path d="m78.792 938.22 3.677 4.435" style="fill:purple;stroke:purple;stroke-width:.264583px;stroke-linecap:butt;stroke-linejoin:miter;stroke-opacity:1" transform="translate(-12.758 -901.561)"/><path d="M78.866 938.178h3.054" style="fill:none;stroke:#ccc;stroke-width:.264583px;stroke-linecap:butt;stroke-linejoin:miter;stroke-opacity:1" transform="translate(-12.758 -901.561)"/><path d="M79.874 938.299s-.071-1.047-.465-1.261c-.508-.277-1.696.38-1.696.38" style="fill:none;stroke:#00f;stroke-width:.264583px;stroke-linecap:butt;stroke-linejoin:miter;stroke-opacity:1" transform="translate(-12.758 -901.561)"/><text xml:space="preserve" style="font-size:8px;line-height:1.25;font-family:sans-serif;white-space:pre;shape-inside:url(#N);display:inline;fill:#00f" transform="matrix(.26458 0 0 .26458 -16.296 -462.115)"><tspan x="309.291" y="1878.863">ca</tspan></text><path d="M81.54 941.415s1.136-.38 1.59-.106c.42.256.594 1.351.594 1.351" style="fill:none;stroke:purple;stroke-width:.264584px;stroke-linecap:butt;stroke-linejoin:miter;stroke-opacity:1" transform="translate(-12.758 -901.561)"/><text xml:space="preserve" style="font-size:8px;line-height:1.25;font-family:sans-serif;white-space:pre;shape-inside:url(#O);display:inline;fill:purple" transform="matrix(.26458 0 0 .26458 -15.361 -456.582)"><tspan x="323.205" y="1887.885">a1</tspan></text><path d="m82.423 942.606 5.05-.037" style="fill:none;stroke:#f60;stroke-width:.264582px;stroke-linecap:butt;stroke-linejoin:miter;stroke-opacity:1" transform="translate(-12.758 -901.561)"/><path d="M81.199 939.361s.003.397-.135.501c-.201.153-.758-.011-.758-.011" style="fill:none;stroke:#f60;stroke-width:.264584px;stroke-linecap:butt;stroke-linejoin:miter;stroke-opacity:1" transform="translate(-12.758 -901.561)"/><path d="m91.108 944.512-15.938-8.22M45.36 977.635l10.798-19.222" style="fill:none;stroke:green;stroke-width:.264583px;stroke-linecap:butt;stroke-linejoin:miter;stroke-opacity:1" transform="translate(-12.758 -901.561)"/><path d="m54.306 969.196-7.049 4.902" style="fill:purple;stroke:purple;stroke-width:.264583px;stroke-linecap:butt;stroke-linejoin:miter;stroke-opacity:1" transform="translate(-12.758 -901.561)"/><path d="M47.351 974.137h6.681" style="fill:none;stroke:#ccc;stroke-width:.264583px;stroke-linecap:butt;stroke-linejoin:miter;stroke-opacity:1" transform="translate(-12.758 -901.561)"/><path d="M48.874 974.085s.317-.671.166-.973c-.13-.261-.812-.491-.812-.491" style="fill:none;stroke:#00f;stroke-width:.264584px;stroke-linecap:butt;stroke-linejoin:miter;stroke-opacity:1" transform="translate(-12.758 -901.561)"/><text xml:space="preserve" style="font-size:8px;line-height:1.25;font-family:sans-serif;white-space:pre;shape-inside:url(#P);display:inline;fill:#00f" transform="matrix(.26458 0 0 .26458 -46.296 -423.167)"><tspan x="309.291" y="1878.863">ca</tspan></text><path d="M53.689 969.658s-.32-.64-.223-.943c.099-.305.426-.438.686-.482.226-.038.509-.004.663.207.136.186.096.746.096.746" style="fill:none;stroke:purple;stroke-width:.264584px;stroke-linecap:butt;stroke-linejoin:miter;stroke-opacity:1" transform="translate(-12.758 -901.561)"/><text xml:space="preserve" style="font-size:8px;line-height:1.25;font-family:sans-serif;white-space:pre;shape-inside:url(#Q);display:inline;fill:purple" transform="matrix(.26458 0 0 .26458 -43.462 -432.865)"><tspan x="323.205" y="1887.885">a1</tspan></text><path d="m54.475 969.159-4.464.046" style="fill:none;stroke:#f60;stroke-width:.264584px;stroke-linecap:butt;stroke-linejoin:miter;stroke-opacity:1" transform="translate(-12.758 -901.561)"/><path d="M48.967 971.236s.294.142.408.263c.098.105.18.238.222.383.04.145.015.454.015.454" style="fill:none;stroke:#f60;stroke-width:.264582px;stroke-linecap:butt;stroke-linejoin:miter;stroke-opacity:1" transform="translate(-12.758 -901.561)"/><path d="m75.72 978.078-1.643-15.854" style="fill:none;stroke:green;stroke-width:.264583px;stroke-linecap:butt;stroke-linejoin:miter;stroke-opacity:1" transform="translate(-12.758 -901.561)"/><path d="m82.28 969.135-7.049 4.902" style="fill:purple;stroke:purple;stroke-width:.264583px;stroke-linecap:butt;stroke-linejoin:miter;stroke-opacity:1" transform="translate(-12.758 -901.561)"/><path d="M75.326 974.076h6.68" style="fill:none;stroke:#ccc;stroke-width:.264583px;stroke-linecap:butt;stroke-linejoin:miter;stroke-opacity:1" transform="translate(-12.758 -901.561)"/><path d="M76.119 974.024s.415-.673.263-.973c-.208-.408-1.283-.491-1.283-.491" style="fill:none;stroke:#00f;stroke-width:.264584px;stroke-linecap:butt;stroke-linejoin:miter;stroke-opacity:1" transform="translate(-12.758 -901.561)"/><text xml:space="preserve" style="font-size:8px;line-height:1.25;font-family:sans-serif;white-space:pre;shape-inside:url(#R);display:inline;fill:#00f" transform="matrix(.26458 0 0 .26458 -18.979 -423.076)"><tspan x="309.291" y="1878.863">ca</tspan></text><path d="M81.663 969.597s-.32-.639-.222-.943c.098-.305.426-.438.685-.482.226-.038.51-.004.664.207.135.186.095.746.095.746" style="fill:none;stroke:purple;stroke-width:.264584px;stroke-linecap:butt;stroke-linejoin:miter;stroke-opacity:1" transform="translate(-12.758 -901.561)"/><text xml:space="preserve" style="font-size:8px;line-height:1.25;font-family:sans-serif;white-space:pre;shape-inside:url(#S);display:inline;fill:purple" transform="matrix(.26458 0 0 .26458 -15.487 -432.925)"><tspan x="323.205" y="1887.885">a1</tspan></text><path d="m82.458 969.098-7.752.047" style="fill:none;stroke:#f60;stroke-width:.264584px;stroke-linecap:butt;stroke-linejoin:miter;stroke-opacity:1" transform="translate(-12.758 -901.561)"/><path d="M75.115 971.167s.922.101 1.277.366c.369.275.805.538.743 1.162" style="fill:none;stroke:#f60;stroke-width:.264582px;stroke-linecap:butt;stroke-linejoin:miter;stroke-opacity:1" transform="translate(-12.758 -901.561)"/><path d="m60.745 1004.85-3.14-19.52" style="fill:none;stroke:green;stroke-width:.264583px;stroke-linecap:butt;stroke-linejoin:miter;stroke-opacity:1" transform="translate(-12.758 -901.561)"/><path d="m59.949 999.716-5.558-3.854" style="fill:purple;stroke:purple;stroke-width:.264583px;stroke-linecap:butt;stroke-linejoin:miter;stroke-opacity:1" transform="translate(-12.758 -901.561)"/><path d="M59.879 999.719h5.258" style="fill:none;stroke:#ccc;stroke-width:.264583px;stroke-linecap:butt;stroke-linejoin:miter;stroke-opacity:1" transform="translate(-12.758 -901.561)"/><path d="M60.552 999.682s.1-.441-.024-.596c-.167-.207-.771-.2-.771-.2" style="fill:none;stroke:#00f;stroke-width:.264583px;stroke-linecap:butt;stroke-linejoin:miter;stroke-opacity:1" transform="translate(-12.758 -901.561)"/><text xml:space="preserve" style="font-size:8px;line-height:1.25;font-family:sans-serif;white-space:pre;shape-inside:url(#T);display:inline;fill:#00f" transform="matrix(.26458 0 0 .26458 -33.86 -399.439)"><tspan x="309.291" y="1878.863">ca</tspan></text><path d="M56.056 996.97s.354-.207.434-.432c.072-.2-.005-.674-.005-.674" style="fill:none;stroke:purple;stroke-width:.264584px;stroke-linecap:butt;stroke-linejoin:miter;stroke-opacity:1" transform="translate(-12.758 -901.561)"/><text xml:space="preserve" style="font-size:8px;line-height:1.25;font-family:sans-serif;white-space:pre;shape-inside:url(#U);display:inline;fill:purple" transform="matrix(.26458 0 0 .26458 -43.253 -405.735)"><tspan x="323.205" y="1887.885">a1</tspan></text><path d="m59.27 995.768-4.875.047" style="fill:none;stroke:#f60;stroke-width:.264582px;stroke-linecap:butt;stroke-linejoin:miter;stroke-opacity:1" transform="translate(-12.758 -901.561)"/><path d="M58.503 998.72s.215-.47.398-.606c.217-.16.402-.205.752-.185" style="fill:none;stroke:#f60;stroke-width:.264584px;stroke-linecap:butt;stroke-linejoin:miter;stroke-opacity:1" transform="translate(-12.758 -901.561)"/><path d="m92.876 1001.538-18.403-7.223" style="fill:none;stroke:green;stroke-width:.264583px;stroke-linecap:butt;stroke-linejoin:miter;stroke-opacity:1" transform="translate(-12.758 -901.561)"/><path d="m88.09 999.62-5.557-3.854" style="fill:purple;stroke:purple;stroke-width:.264583px;stroke-linecap:butt;stroke-linejoin:miter;stroke-opacity:1" transform="translate(-12.758 -901.561)"/><path d="M88.02 999.623h5.26" style="fill:none;stroke:#ccc;stroke-width:.264583px;stroke-linecap:butt;stroke-linejoin:miter;stroke-opacity:1" transform="translate(-12.758 -901.561)"/><path d="M89.484 999.656s-.577-1.284-1.176-1.477c-.708-.227-2.146.611-2.146.611" style="fill:none;stroke:#00f;stroke-width:.264583px;stroke-linecap:butt;stroke-linejoin:miter;stroke-opacity:1" transform="translate(-12.758 -901.561)"/><text xml:space="preserve" style="font-size:8px;line-height:1.25;font-family:sans-serif;white-space:pre;shape-inside:url(#V);display:inline;fill:#00f" transform="matrix(.26458 0 0 .26458 -5.7 -400.08)"><tspan x="309.291" y="1878.863">ca</tspan></text><path d="M84.198 996.874s.354-.207.434-.433c.072-.199-.005-.673-.005-.673" style="fill:none;stroke:purple;stroke-width:.264584px;stroke-linecap:butt;stroke-linejoin:miter;stroke-opacity:1" transform="translate(-12.758 -901.561)"/><text xml:space="preserve" style="font-size:8px;line-height:1.25;font-family:sans-serif;white-space:pre;shape-inside:url(#W);display:inline;fill:purple" transform="matrix(.26458 0 0 .26458 -15.111 -405.831)"><tspan x="323.205" y="1887.885">a1</tspan></text><path d="m82.559 995.782-4.067.047" style="fill:none;stroke:#f60;stroke-width:.264582px;stroke-linecap:butt;stroke-linejoin:miter;stroke-opacity:1" transform="translate(-12.758 -901.561)"/><path d="M84.479 998.111s.1-.338.186-.436c.102-.115.189-.148.352-.133" style="fill:none;stroke:#f60;stroke-width:.264584px;stroke-linecap:butt;stroke-linejoin:miter;stroke-opacity:1" transform="translate(-12.758 -901.561)"/><text xml:space="preserve" style="font-size:8px;line-height:1.25;font-family:sans-serif;white-space:pre;shape-inside:url(#X);display:inline" transform="matrix(.26458 0 0 .26458 -96.627 -909.586)"><tspan x="421.029" y="3508.896">aA=ca
</tspan><tspan x="421.029" y="3518.896">aB=a1-ca</tspan></text><text xml:space="preserve" style="font-size:8px;line-height:1.25;font-family:sans-serif;white-space:pre;shape-inside:url(#Y);display:inline" transform="matrix(.26458 0 0 .26458 -66.868 -908.953)"><tspan x="421.029" y="3508.896">aA=Pi-ca
</tspan><tspan x="421.029" y="3518.896">aB=ca-a1</tspan></text><text xml:space="preserve" style="font-size:8px;line-height:1.25;font-family:sans-serif;white-space:pre;shape-inside:url(#Z);display:inline" transform="matrix(.26458 0 0 .26458 -39.608 -909.208)"><tspan x="421.029" y="3508.896">aA=Pi-ca
</tspan><tspan x="421.029" y="3518.896">aB=ca-a1</tspan></text><text xml:space="preserve" style="font-size:8px;line-height:1.25;font-family:sans-serif;white-space:pre;shape-inside:url(#aa);display:inline" transform="matrix(.26458 0 0 .26458 -96.927 -882.289)"><tspan x="421.029" y="3508.896">aA=ca
</tspan><tspan x="421.029" y="3518.896">aB=a1-ca</tspan></text><text xml:space="preserve" style="font-size:8px;line-height:1.25;font-family:sans-serif;white-space:pre;shape-inside:url(#ab);display:inline" transform="matrix(.26458 0 0 .26458 -68.38 -882.786)"><tspan x="421.029" y="3508.896">aA=ca
</tspan><tspan x="421.029" y="3518.896">aB=a1-ca</tspan></text><text xml:space="preserve" style="font-size:8px;line-height:1.25;font-family:sans-serif;white-space:pre;shape-inside:url(#ac);display:inline" transform="matrix(.26458 0 0 .26458 -40.985 -882.145)"><tspan x="421.029" y="3508.896">aA=Pi-ca
</tspan><tspan x="421.029" y="3518.896">aB=ca-a1</tspan></text><text xml:space="preserve" style="font-size:8px;line-height:1.25;font-family:sans-serif;white-space:pre;shape-inside:url(#ad);display:inline" transform="matrix(.26458 0 0 .26458 -97.058 -854.96)"><tspan x="421.029" y="3508.896">aA=ca
</tspan><tspan x="421.029" y="3518.896">aB=a1-Pi-ca</tspan></text><text xml:space="preserve" style="font-size:8px;line-height:1.25;font-family:sans-serif;white-space:pre;shape-inside:url(#ae);display:inline" transform="matrix(.26458 0 0 .26458 -69.194 -854.336)"><tspan x="421.029" y="3508.896">aA=Pi-ca
</tspan><tspan x="421.029" y="3518.896">aB=ca-a1+Pi</tspan></text><text xml:space="preserve" style="font-size:8px;line-height:1.25;font-family:sans-serif;white-space:pre;shape-inside:url(#af);display:inline" transform="matrix(.26458 0 0 .26458 -40.919 -854.653)"><tspan x="421.029" y="3508.896">aA=Pi-ca
</tspan><tspan x="421.029" y="3518.896">aB=ca-a1+Pi</tspan></text><text xml:space="preserve" style="font-size:8px;line-height:1.25;font-family:sans-serif;white-space:pre;shape-inside:url(#ag);display:inline" transform="matrix(.26458 0 0 .26458 -109.643 -830.71)"><tspan x="421.029" y="3508.896">aA=ca
</tspan><tspan x="421.029" y="3518.896">aB=Pi-ca+a1</tspan></text><text xml:space="preserve" style="font-size:8px;line-height:1.25;font-family:sans-serif;white-space:pre;shape-inside:url(#ah);display:inline" transform="matrix(.26458 0 0 .26458 -80.6 -829.328)"><tspan x="421.029" y="3508.896">aA=ca
</tspan><tspan x="421.029" y="3518.896">aB=Pi-ca+a1</tspan></text><text xml:space="preserve" style="font-size:8px;line-height:1.25;font-family:sans-serif;white-space:pre;shape-inside:url(#ai);display:inline" transform="matrix(.26458 0 0 .26458 -52.467 -829.278)"><tspan x="421.029" y="3508.896">aA=Pi-ca
</tspan><tspan x="421.029" y="3518.896">aB=ca-a1-Pi</tspan></text></svg>