<svg xmlns="http://www.w3.org/2000/svg" width="417.797" height="546.286" viewBox="0 0 110.542 144.538"><defs><path id="a" d="M79.781 7070.142H414.6v49.166H79.781z"/></defs><g transform="translate(13.74 113.478)"><path d="M-13.608-113.346H96.67V30.928H-13.608z" style="fill:#fff;stroke:#fff;stroke-width:.264583"/><path d="m9.967-7.43 1.014-.138.676.072 1.752.786v1.068l-1.752.786-.676.072-1.014-.138-.469 1.902.963.349.564.378 1.187 1.51-.496.946-1.918-.12-.631-.249L8.333-.8 7.033.666l.691.756.324.597.35 1.89-.88.606-1.642-.996-.443-.515-.463-.914-1.831.695.26.99.009.68-.569 1.834-1.06.13-.991-1.646-.153-.662.015-1.024-1.945-.236-.23.998-.307.606-1.357 1.36-.998-.379L-4.3 3.52l.171-.657.49-.9L-5.251.849l-.668.777-.553.393-1.833.575-.709-.8.791-1.75.458-.502.851-.57-.91-1.734-.952.377-.673.092-1.89-.344-.256-1.037 1.514-1.182.638-.232 1.019-.108v-1.96l-1.019-.108-.638-.232-1.514-1.182.256-1.037 1.89-.343.673.09.952.378.91-1.734-.851-.57-.458-.501-.79-1.75.708-.8 1.833.574.553.393.668.777 1.612-1.113-.49-.9-.171-.656.113-1.918.998-.379 1.357 1.36.307.606.23.998 1.945-.236-.015-1.024.153-.661.991-1.646 1.06.129.569 1.835-.01.679-.26.99 1.832.695.463-.914.443-.514 1.642-.997.88.607-.35 1.889-.324.597-.69.756 1.299 1.466.834-.594.631-.25 1.918-.118.496.945-1.187 1.51-.564.379-.963.348z" style="fill:none;stroke:#000;stroke-width:.264583"/><circle cx=".788" cy="-6.176" r="2.646" style="fill:none;stroke:#000;stroke-width:.264583"/><path d="m47.494 10.312 1.015-.138.675.072 1.753.786V12.1l-1.753.786-.675.072-1.015-.138-.469 1.902.963.349.564.377 1.187 1.51-.496.946-1.917-.118-.632-.25-.834-.594-1.299 1.466.69.756.324.597.35 1.89-.88.606-1.642-.996-.443-.515-.462-.914-1.832.695.26.99.01.68-.57 1.834-1.06.13-.99-1.646-.154-.662.015-1.024-1.945-.236-.23.998-.307.605-1.356 1.36-.999-.378-.113-1.917.172-.657.49-.9-1.613-1.113-.668.777-.553.393-1.833.574-.708-.799.79-1.75.458-.502.851-.57-.91-1.734-.952.377-.673.091-1.89-.343-.255-1.037 1.514-1.182.638-.232 1.018-.108v-1.96l-1.018-.108-.638-.232-1.514-1.182.255-1.037 1.89-.343.673.09.952.378.91-1.734-.851-.57-.457-.501-.791-1.75.708-.8 1.833.574.553.393.668.777 1.612-1.113-.49-.9-.17-.656.112-1.918.999-.379 1.356 1.36.307.606.23.998 1.945-.236-.015-1.024.153-.661.991-1.646 1.06.129.57 1.835-.01.679-.26.99 1.832.695.462-.914.443-.514 1.643-.997.879.607-.35 1.889-.323.597-.69.756L45.86 6.19l.834-.594.632-.25 1.917-.118.496.945-1.187 1.51-.564.379-.963.348z" style="fill:none;stroke:#000;stroke-width:.264583"/><circle cx="38.315" cy="11.566" r="2.646" style="fill:none;stroke:#000;stroke-width:.264583"/><path d="m82.578-.568 1.014-.139.676.073L86.02.15V1.22l-1.752.786-.676.073-1.014-.139-.47 1.902.964.349.564.378 1.187 1.51-.496.946-1.918-.12-.631-.249-.834-.594-1.3 1.466.691.757.324.597.35 1.888-.88.607-1.642-.996-.443-.515-.463-.913-1.831.694.26.99.009.68-.569 1.835-1.06.128-.991-1.645-.154-.661.016-1.024-1.945-.237-.23.998-.307.606-1.357 1.36-.998-.378-.113-1.918.171-.657.49-.9-1.612-1.112-.668.776-.553.394-1.834.574-.708-.8.791-1.75.458-.502.851-.57-.91-1.734-.952.378-.673.09-1.89-.343-.256-1.036 1.514-1.183.638-.232 1.019-.108V-.294l-1.019-.108-.638-.232-1.514-1.183.256-1.037 1.89-.343.673.091.952.378.91-1.735-.851-.57-.458-.501-.79-1.75.707-.8 1.834.574.553.394.668.776 1.612-1.112-.49-.9-.171-.657.113-1.918.998-.378 1.357 1.36.307.606.23.997 1.945-.236-.016-1.024.154-.661.991-1.646 1.06.13.569 1.834-.01.679-.26.99 1.832.695.463-.914.443-.514 1.642-.996.88.606-.35 1.89-.324.596-.69.756 1.299 1.467.834-.595.631-.249 1.918-.119.496.946-1.187 1.51-.564.378-.963.349z" style="fill:none;stroke:#000;stroke-width:.264583"/><circle cx="73.399" cy=".685" r="2.646" style="fill:none;stroke:#000;stroke-width:.264583"/><path d="m90.69-84.593 1.015-.139.675.073 1.753.786v1.068l-1.753.785-.675.073-1.015-.139-.468 1.902.963.35.564.377 1.187 1.51-.497.946-1.917-.119-.631-.25-.834-.594-1.3 1.467.69.756.325.597.349 1.889-.879.606-1.642-.996-.444-.514-.462-.914-1.832.694.26.991.01.679-.57 1.835-1.06.129-.99-1.646-.154-.661.015-1.024-1.945-.236-.23.997-.307.606-1.356 1.36-.999-.378-.113-1.918.172-.657.49-.9-1.613-1.112-.668.776-.553.394-1.833.574-.708-.8.79-1.75.458-.502.851-.569-.91-1.735-.952.378-.673.091-1.89-.343-.256-1.037 1.514-1.183.639-.232 1.018-.108v-1.959l-1.018-.108-.639-.232-1.514-1.183.256-1.036 1.89-.344.673.091.952.378.91-1.735-.851-.569-.457-.502-.791-1.75.708-.8 1.833.574.553.394.668.776 1.612-1.112-.49-.9-.17-.657.112-1.918.999-.378 1.356 1.36.307.606.23.998 1.945-.237-.015-1.024.153-.66.991-1.646 1.06.128.57 1.835-.01.68-.26.99 1.832.694.462-.913.444-.515 1.642-.996.879.607-.35 1.888-.323.597-.69.757 1.299 1.466.834-.594.631-.25 1.917-.119.497.946-1.187 1.51-.564.378-.963.349z" style="fill:none;stroke:#000;stroke-width:.264583"/><circle cx="81.512" cy="-83.339" r="2.646" style="fill:none;stroke:#000;stroke-width:.264583"/><path d="m63.508-100.512 1.014-.138.675.072 1.753.786v1.068l-1.753.786-.675.072-1.014-.139-.47 1.903.964.348.564.378 1.187 1.51-.497.946-1.917-.119-.631-.25-.834-.593-1.3 1.466.691.756.324.597.35 1.889-.88.607-1.642-.997-.443-.514-.463-.914-1.831.695.26.99.009.68-.57 1.834-1.06.129-.99-1.646-.154-.661.015-1.024-1.944-.236-.23.998-.308.605-1.356 1.36-.999-.378-.113-1.918.172-.657.49-.9-1.613-1.112-.667.777-.554.393-1.833.574-.708-.8.79-1.75.458-.502.852-.569-.91-1.734-.953.377-.673.091-1.89-.343-.255-1.037 1.514-1.182.638-.232 1.018-.109v-1.959l-1.018-.108-.638-.232-1.514-1.182.255-1.037 1.89-.344.673.092.952.377.91-1.734-.85-.57-.458-.502-.791-1.75.708-.8 1.833.575.554.393.667.777 1.612-1.113-.489-.9-.172-.657.113-1.917.999-.379 1.356 1.36.307.606.23.998 1.945-.236-.015-1.024.153-.662.992-1.645 1.06.129.569 1.835-.01.678-.26.991 1.832.695.463-.914.443-.515 1.642-.996.88.607-.35 1.889-.324.597-.69.756 1.299 1.466.834-.594.631-.25 1.917-.118.497.945-1.187 1.51-.564.378-.963.35z" style="fill:none;stroke:#000;stroke-width:.264583"/><circle cx="54.329" cy="-99.258" r="2.646" style="fill:none;stroke:#000;stroke-width:.264583"/><path d="m22.248-94.754 1.015-.139.675.073 1.753.785v1.068l-1.753.786-.675.073-1.015-.139-.469 1.902.963.349.564.378 1.187 1.51-.496.946-1.917-.12-.632-.249-.834-.594-1.299 1.466.69.757.325.597.349 1.888-.88.607-1.642-.996-.443-.515-.462-.913-1.832.694.26.99.009.68-.569 1.835-1.06.128-.991-1.645-.153-.661.015-1.024-1.945-.237-.23.998-.307.606-1.356 1.36-1-.378-.112-1.918.171-.657.49-.9-1.612-1.112-.668.776-.553.394-1.833.574-.709-.8.791-1.75.458-.502.851-.57-.91-1.734-.952.378-.673.09-1.89-.343-.256-1.036L2.2-92.181l.638-.232 1.019-.108v-1.959l-1.019-.108-.638-.232-1.514-1.183.256-1.037 1.89-.343.673.091.952.378.91-1.735-.851-.57-.458-.501-.79-1.75.708-.8 1.833.574.553.394.668.776 1.612-1.112-.49-.9-.171-.657.113-1.918.999-.378 1.356 1.36.307.606.23.997 1.945-.236-.015-1.024.153-.661.991-1.646 1.06.13.569 1.834-.009.679-.26.99 1.832.695.462-.914.443-.514 1.643-.996.879.606-.35 1.89-.323.596-.69.756 1.298 1.467.834-.595.632-.249 1.917-.119.496.946-1.187 1.51-.564.378-.963.349z" style="fill:none;stroke:#000;stroke-width:.264583"/><circle cx="13.069" cy="-93.501" r="2.646" style="fill:none;stroke:#000;stroke-width:.264583"/><text xml:space="preserve" style="font-size:14.6667px;line-height:1.25;font-family:sans-serif;white-space:pre;shape-inside:url(#a)" transform="matrix(.26458 0 0 .26458 -32.122 -1845.977)"><tspan x="79.781" y="7083.119">multi-motor joint</tspan></text></g><g transform="translate(54.867 68.649)"><path d="m42.916-1.764 1.7.441 1.7.667V.656l-1.7.667-1.7.44-.093 1.562 1.637.639 1.609.863-.156 1.302-1.766.461-1.741.237-.277 1.54 1.55.827 1.495 1.047-.308 1.276-1.808.249-1.757.028-.457 1.496 1.441 1.006 1.361 1.216-.457 1.23-1.825.034-1.748-.18-.63 1.432 1.312 1.169 1.207 1.369-.6 1.167-1.815-.183-1.715-.385-.795 1.347 1.164 1.316 1.037 1.502-.733 1.088-1.782-.396-1.657-.585-.949 1.243 1.001 1.445.852 1.614-.856.994-1.723-.604-1.576-.777-1.09 1.122.824 1.553.655 1.704-.968.885-1.64-.803-1.473-.958-1.214.985.633 1.64.45 1.769-1.067.765-1.532-.992-1.35-1.125-1.322.834.435 1.703.237 1.81-1.15.633-1.404-1.166-1.207-1.277-1.412.673.231 1.742.02 1.825-1.215.493-1.257-1.324-1.047-1.41-1.482.5.023 1.757-.195 1.815-1.265.346-1.091-1.463-.874-1.525-1.53.322-.185 1.747-.409 1.78-1.297.193-.91-1.582-.688-1.617-1.558.139-.39 1.713-.616 1.718-1.311.04L0 44.635l-.491-1.687-1.563-.046-.59 1.655-.815 1.633-1.307-.116-.513-1.752-.288-1.733-1.547-.231-.782 1.573-1.002 1.526-1.284-.27-.302-1.8-.081-1.756-1.509-.412-.962 1.47-1.176 1.396-1.243-.42-.087-1.823.127-1.753-1.45-.587-1.129 1.346-1.333 1.247-1.184-.564.129-1.821.333-1.725-1.37-.755-1.28 1.203-1.471 1.08-1.11-.7.344-1.792.535-1.674-1.27-.912-1.414 1.043-1.589.9-1.019-.827.553-1.74.73-1.598-1.154-1.056-1.527.869-1.684.705-.914-.941.755-1.662.913-1.501-1.02-1.185-1.62.682-1.755.501-.797-1.043.947-1.56 1.084-1.383-.873-1.298-1.69.486-1.802.29-.667-1.13 1.124-1.438 1.24-1.244-.713-1.392-1.735.283-1.824.074-.528-1.2 1.286-1.295 1.379-1.09-.545-1.465-1.755.075-1.82-.142-.383-1.254 1.43-1.134 1.498-.919-.367-1.52-1.752-.133-1.79-.356-.233-1.29 1.555-.958 1.596-.734-.185-1.553-1.724-.34-1.736-.564-.078-1.31 1.657-.766 1.672-.541V-.782l-1.672-.54-1.657-.767.078-1.31 1.736-.565 1.724-.339.185-1.553-1.596-.734-1.555-.957.232-1.291 1.79-.356 1.753-.133.367-1.52-1.498-.919-1.43-1.134.383-1.254 1.82-.142 1.755.076.545-1.466-1.379-1.09-1.286-1.295.528-1.2 1.824.075 1.735.282.714-1.391-1.24-1.245-1.125-1.438.667-1.13 1.803.29 1.688.486.874-1.298-1.084-1.382-.947-1.561.797-1.043 1.755.501 1.62.682 1.02-1.185-.913-1.5-.755-1.663.914-.941 1.684.705 1.527.869 1.154-1.056-.73-1.599-.553-1.74 1.02-.826 1.588.9 1.414 1.043 1.27-.912-.535-1.674-.343-1.792 1.109-.7 1.471 1.08 1.28 1.203 1.37-.755-.333-1.725-.13-1.821 1.185-.564 1.333 1.247 1.13 1.346 1.449-.587-.127-1.753.087-1.823 1.243-.42 1.176 1.396.962 1.47 1.509-.412.08-1.755.303-1.8 1.284-.271 1.002 1.526.782 1.573 1.547-.23.288-1.734.513-1.752 1.307-.116.815 1.633.59 1.655 1.563-.046L0-44.636l.717-1.68 1.311.04.616 1.718.39 1.713 1.558.14.687-1.618.91-1.582 1.298.193.409 1.78.185 1.747 1.53.322.873-1.524 1.092-1.464 1.265.346.195 1.815-.023 1.757 1.482.5 1.047-1.41 1.257-1.324 1.216.493-.021 1.825-.23 1.742 1.411.673 1.207-1.277 1.405-1.166 1.149.633-.237 1.81-.435 1.703 1.322.834 1.35-1.125 1.532-.992 1.066.765-.449 1.77-.633 1.639 1.214.985 1.474-.958 1.639-.803.968.885-.655 1.704-.823 1.553 1.089 1.122 1.576-.777 1.723-.604.856.994-.852 1.614-1 1.444.948 1.244 1.657-.585 1.782-.396.733 1.088-1.037 1.502-1.164 1.316.795 1.346 1.715-.384 1.816-.183.599 1.167-1.207 1.37-1.312 1.168.63 1.431 1.748-.179 1.825.034.457 1.23-1.36 1.216-1.442 1.006.457 1.495 1.757.03 1.808.248.308 1.276-1.495 1.047-1.55.828.277 1.54 1.741.236 1.766.46.156 1.303-1.609.863-1.637.64z" style="fill:none;stroke:#000;stroke-width:.264583"/><circle r="2.646" style="fill:none;stroke:#000;stroke-width:.264583"/></g></svg>