<svg xmlns="http://www.w3.org/2000/svg" width="75.122" height="56.768" viewBox="0 0 19.876 15.02"><path d="M102.285 145.346h21.167v21.167h-21.167z" style="fill:none;stroke:#e6e6e6;stroke-width:.264583" transform="translate(-102.777 -147.582)"/><path d="M107.037 162.215s-2.848-.645-3.461-1.707c-.66-1.143-.46-2.86.436-3.86.572-.636 1.682-.72 2.582-.722.574 0 1.649.454 1.649.454" style="fill:none;stroke:#6495ed;stroke-width:.79375;stroke-linecap:butt;stroke-linejoin:miter;stroke-opacity:1" transform="translate(-102.777 -147.582)"/><path d="M106.487 156.097s-1.942-2.017-1.787-3.21c.166-1.284 1.396-2.593 2.752-2.946.866-.225 1.83.285 2.572.753.472.3 1.074 1.234 1.074 1.234" style="fill:none;stroke:#6495ed;stroke-width:.79375;stroke-linecap:butt;stroke-linejoin:miter;stroke-opacity:1" transform="translate(-102.777 -147.582)"/><path d="M109.171 152.468s-.13-2.688.808-3.528c1.01-.903 2.862-1.212 4.16-.706.827.324 1.229 1.277 1.485 2.069.162.504-.01 1.579-.01 1.579M118.392 161.865s2.849-.645 3.462-1.707c.66-1.143.46-2.86-.436-3.859-.572-.637-1.683-.72-2.583-.723-.573 0-1.648.455-1.648.455" style="fill:none;stroke:#6495ed;stroke-width:.79375;stroke-linecap:butt;stroke-linejoin:miter;stroke-opacity:1" transform="translate(-102.777 -147.582)"/><path d="M118.942 155.748s1.942-2.018 1.788-3.21c-.166-1.285-1.396-2.594-2.752-2.947-.866-.225-1.831.285-2.572.754-.473.298-1.075 1.234-1.075 1.234" style="fill:none;stroke:#6495ed;stroke-width:.79375;stroke-linecap:butt;stroke-linejoin:miter;stroke-opacity:1" transform="translate(-102.777 -147.582)"/><path d="M109.335 158.071s-.881.022-1.147-.433c-.285-.49-.368-1.371-.189-1.977.115-.387.43-.563.693-.672.167-.07.517.028.517.028M116.053 157.578s.882.022 1.147-.434c.286-.49.369-1.37.19-1.976-.115-.387-.431-.563-.693-.672-.167-.07-.517.028-.517.028" style="fill:none;stroke:#6495ed;stroke-width:.793753;stroke-linecap:butt;stroke-linejoin:miter;stroke-opacity:1" transform="translate(-102.777 -147.582)"/></svg>