<svg xmlns="http://www.w3.org/2000/svg" width="236.065" height="168.403" viewBox="0 0 62.459 44.557"><defs><path id="q" d="M213.147 442.933h120.634v21.031H213.147z"/><path id="p" d="M257.993 441.361h33.724v17.95h-33.724z"/><path id="o" d="M235.4 437.588h39.374v17.261H235.4z"/><path id="m" d="M106.864 364.739h103.001v21.185H106.864z"/><path id="j" d="M134.345 491.299h124.88v24.905h-124.88z"/><path id="c" d="M254.321 237.99h38.557v34.914h-38.557z"/><path id="d" d="M130.985 140.536h42.711v43.171h-42.711z"/><path id="e" d="M232.476 161.365h28.095v22.502h-28.095z"/><path id="f" d="M200.715 288.19h52.317v19.745h-52.317z"/><path id="g" d="M200.715 288.19h52.317v19.745h-52.317z"/><path id="h" d="M63.429 333.065h158.363v29.331H63.429z"/><path id="i" d="M232.476 161.365h28.095v22.502h-28.095z"/><path id="l" d="M232.476 161.365h28.095v22.502h-28.095z"/><path id="n" d="M232.476 161.365h28.095v22.502h-28.095z"/><marker id="k" markerHeight="5.667" markerWidth="5.667" orient="auto" preserveAspectRatio="xMidYMid" refX="0" refY="0" style="overflow:visible" viewBox="0 0 5.667 5.667"><path d="M5 0c0 2.76-2.24 5-5 5s-5-2.24-5-5 2.3-5 5-5c2.76 0 5 2.24 5 5z" style="fill:context-stroke;fill-rule:evenodd;stroke:context-stroke;stroke-width:1pt" transform="scale(.5)"/></marker><marker id="a" markerHeight="5" markerWidth="8.75" orient="auto-start-reverse" preserveAspectRatio="xMidYMid" refX="0" refY="0" style="overflow:visible" viewBox="0 0 8.75 5"><path d="m0 0 5-5-17.5 5L5 5Z" style="fill:context-stroke;fill-rule:evenodd;stroke:none" transform="scale(-.5)"/></marker><marker id="b" markerHeight="5" markerWidth="8.75" orient="auto-start-reverse" preserveAspectRatio="xMidYMid" refX="0" refY="0" style="overflow:visible" viewBox="0 0 8.75 5"><path d="m0 0 5-5-17.5 5L5 5Z" style="fill:context-stroke;fill-rule:evenodd;stroke:none" transform="scale(-.5)"/></marker></defs><path d="M22.586 95.263H84.78v44.292H22.586z" style="fill:#fff;stroke:#fff;stroke-width:.264583;stroke-dasharray:none;stroke-dashoffset:0" transform="translate(-22.454 -95.13)"/><path d="m59.404 106.985 13.724 6.154" style="fill:none;stroke:#5aa02c;stroke-width:.264583px;stroke-linecap:butt;stroke-linejoin:miter;stroke-opacity:1" transform="translate(-22.454 -95.13)"/><path d="m49.901 123.938 14.426-25.612" style="fill:none;stroke:#59f;stroke-width:.264583px;stroke-linecap:butt;stroke-linejoin:miter;stroke-opacity:1" transform="translate(-22.454 -95.13)"/><path d="M30.107 121.738a19.904 19.608 0 0 1 10.773-15.297 19.904 19.608 0 0 1 18.892.467" style="fill:none;stroke:#ccc;stroke-width:.264583;stroke-dasharray:none;stroke-dashoffset:0" transform="translate(-22.454 -95.13)"/><path d="M49.887 129.838V102.02" style="fill:none;stroke:#999;stroke-width:.264583px;stroke-linecap:butt;stroke-linejoin:miter;stroke-opacity:1;marker-end:url(#a)" transform="translate(-22.454 -95.13)"/><path d="M28.555 123.927h42.663" style="fill:none;stroke:#999;stroke-width:.264583px;stroke-linecap:butt;stroke-linejoin:miter;stroke-opacity:1;marker-end:url(#b)" transform="translate(-22.454 -95.13)"/><text xml:space="preserve" style="font-size:14.6667px;line-height:1.25;font-family:sans-serif;white-space:pre;shape-inside:url(#c);display:inline" transform="matrix(.26458 0 0 .26458 -18.977 -34.027)"><tspan x="254.32" y="250.967">x</tspan></text><text xml:space="preserve" style="font-size:14.6667px;line-height:1.25;font-family:sans-serif;white-space:pre;shape-inside:url(#d);display:inline" transform="matrix(.26458 0 0 .26458 -10.34 -32.236)"><tspan x="130.984" y="153.514">y</tspan></text><path d="M59.404 123.927v-16.942h-9.517" style="fill:none;stroke:#ccc;stroke-width:.264583;stroke-linecap:butt;stroke-linejoin:miter;stroke-dasharray:2,1;stroke-dashoffset:0;stroke-opacity:1" transform="translate(-22.454 -95.13)"/><path d="m58.816 107.73 1.176-1.49M58.66 106.397l1.489 1.176" style="fill:none;stroke:#000;stroke-width:.264583px;stroke-linecap:butt;stroke-linejoin:miter;stroke-opacity:1" transform="translate(-22.454 -95.13)"/><text xml:space="preserve" style="font-size:14.6667px;line-height:1.25;font-family:sans-serif;white-space:pre;shape-inside:url(#e);display:inline" transform="matrix(.26458 0 0 .26458 -23.069 -34.378)"><tspan x="232.477" y="174.342">p1</tspan></text><text xml:space="preserve" style="font-size:8px;line-height:1.25;font-family:sans-serif;white-space:pre;shape-inside:url(#f);display:inline" transform="matrix(.26458 0 0 .26458 -18.637 -46.492)"><tspan x="200.715" y="295.268">p1.cx</tspan></text><text xml:space="preserve" style="font-size:8px;line-height:1.25;font-family:sans-serif;white-space:pre;shape-inside:url(#g);display:inline" transform="matrix(.26458 0 0 .26458 -32.97 -65.417)"><tspan x="200.715" y="295.268">p1.cy</tspan></text><path d="M49.128 106.985h1.517M59.404 124.852v-1.85" style="fill:none;stroke:#000;stroke-width:.264583px;stroke-linecap:butt;stroke-linejoin:miter;stroke-opacity:1" transform="translate(-22.454 -95.13)"/><path d="m49.887 123.927 9.517-16.942" style="fill:none;stroke:#6f8a91;stroke-width:.264583px;stroke-linecap:butt;stroke-linejoin:miter;stroke-opacity:1" transform="translate(-22.454 -95.13)"/><text xml:space="preserve" style="font-size:14.6667px;line-height:1.25;font-family:sans-serif;white-space:pre;shape-inside:url(#h);display:inline" transform="matrix(.26458 0 0 .26458 -14.362 -49.167)"><tspan x="63.43" y="346.041">Point-2</tspan></text><path d="m29.598 121.964 1.176-1.49M29.44 120.63l1.49 1.177" style="fill:none;stroke:#000;stroke-width:.264583px;stroke-linecap:butt;stroke-linejoin:miter;stroke-opacity:1" transform="translate(-22.454 -95.13)"/><text xml:space="preserve" style="font-size:14.6667px;line-height:1.25;font-family:sans-serif;white-space:pre;shape-inside:url(#i);display:inline;fill:#ff7f2a" transform="matrix(.26458 0 0 .26458 -59.857 -20.794)"><tspan x="232.477" y="174.342">p3</tspan></text><path d="m30.186 121.219 19.702 2.754" style="fill:none;stroke:#6f8a91;stroke-width:.264583px;stroke-linecap:butt;stroke-linejoin:miter;stroke-opacity:1" transform="translate(-22.454 -95.13)"/><path d="M51.415 121.522s-1.975-.983-2.864-.584c-.885.396-1.462 2.515-1.462 2.515" style="fill:none;stroke:#ff7f2a;stroke-width:.264583px;stroke-linecap:butt;stroke-linejoin:miter;stroke-opacity:1" transform="translate(-22.454 -95.13)"/><text xml:space="preserve" style="font-size:10.6667px;line-height:1.25;font-family:sans-serif;white-space:pre;shape-inside:url(#j);display:inline;fill:#ff7f2a" transform="matrix(.26458 0 0 .26458 -33.683 -111.597)"><tspan x="134.346" y="500.736">rotateOrig(ia)</tspan></text><path d="M41.12 117.112s.444 2.062 1.148 2.772c1.086 1.093 4.257 1.798 4.257 1.798" style="fill:none;stroke:#f95;stroke-width:.264583px;stroke-linecap:butt;stroke-linejoin:miter;stroke-dasharray:none;stroke-dashoffset:0;stroke-opacity:1;marker-start:url(#k);marker-end:url(#Dot)" transform="translate(-22.454 -95.13)"/><path d="m63.855 99.006 1.176-1.49M63.698 97.673l1.49 1.176" style="fill:none;stroke:#000;stroke-width:.264583px;stroke-linecap:butt;stroke-linejoin:miter;stroke-opacity:1" transform="translate(-22.454 -95.13)"/><text xml:space="preserve" style="font-size:14.6667px;line-height:1.25;font-family:sans-serif;white-space:pre;shape-inside:url(#l);display:inline;fill:#3771c8" transform="matrix(.26458 0 0 .26458 -18.805 -40.653)"><tspan x="232.477" y="174.342">p4</tspan></text><text xml:space="preserve" style="font-size:10.6667px;line-height:1.25;font-family:sans-serif;white-space:pre;shape-inside:url(#m);display:inline;fill:#2c5aa0" transform="matrix(.26458 0 0 .26458 -5.106 -94.616)"><tspan x="106.865" y="374.176">scaleOrig(ir)</tspan></text><path d="m72.54 113.884 1.175-1.49M72.383 112.55l1.49 1.177" style="fill:none;stroke:#000;stroke-width:.264583px;stroke-linecap:butt;stroke-linejoin:miter;stroke-opacity:1" transform="translate(-22.454 -95.13)"/><text xml:space="preserve" style="font-size:14.6667px;line-height:1.25;font-family:sans-serif;white-space:pre;shape-inside:url(#n);display:inline;fill:#5aa02c" transform="matrix(.26458 0 0 .26458 -9.874 -27.695)"><tspan x="232.477" y="174.342">p2</tspan></text><path d="M73.128 113.139H59.404" style="fill:none;stroke:#aade87;stroke-width:.264583px;stroke-linecap:butt;stroke-linejoin:miter;stroke-opacity:1" transform="translate(-22.454 -95.13)"/><path d="M59.404 106.985v6.154" style="fill:#d7f4d7;stroke:#afe9af;stroke-width:.264583px;stroke-linecap:butt;stroke-linejoin:miter;stroke-opacity:1" transform="translate(-22.454 -95.13)"/><text xml:space="preserve" style="font-size:8px;line-height:1.25;font-family:sans-serif;white-space:pre;shape-inside:url(#o);display:inline" transform="matrix(.26458 0 0 .26458 -20.299 -97.787)"><tspan x="235.4" y="444.666">ix</tspan></text><text xml:space="preserve" style="font-size:8px;line-height:1.25;font-family:sans-serif;white-space:pre;shape-inside:url(#p);display:inline" transform="matrix(.26458 0 0 .26458 -31.17 -102.574)"><tspan x="257.992" y="448.439">iy</tspan></text><text xml:space="preserve" style="font-size:10.6667px;line-height:1.25;font-family:sans-serif;white-space:pre;shape-inside:url(#q);display:inline;fill:#447821" transform="matrix(.26458 0 0 .26458 -16.545 -97.375)"><tspan x="213.146" y="452.371">translate(ix, iy)</tspan></text></svg>