<svg xmlns="http://www.w3.org/2000/svg" width="276.819" height="360.322" viewBox="0 0 73.242 95.335"><defs><path id="m" d="M293.575 2321.579h28.713v24.876h-28.713z"/><path id="l" d="M354.521 2345.085h59.18v35.824h-59.18z"/><path id="a" d="M218.586 2027.257h53.005v22.188h-53.005z"/><path id="b" d="M161.646 2034.471h38.156v24.21h-38.156z"/><path id="c" d="M267.981 1898.329h26.11v23.072h-26.11z"/><path id="d" d="M157.445 2017.369h36.711v37.622h-36.711z"/><path id="e" d="M139.901 1851.118h25.977v28.907h-25.977z"/><path id="j" d="M200.078 1856.646h36.039v25.502h-36.039z"/><path id="f" d="M294.214 1988.337h27.77v25.008h-27.77z"/><path id="g" d="M87.177 2104.67h421.077v67.578H87.177z"/><path id="h" d="M278.248 2057.486h210.677v37.437H278.248z"/><path id="k" d="M267.981 1898.329h26.11v23.072h-26.11z"/><marker id="i" markerHeight="5" markerWidth="8.75" orient="auto-start-reverse" preserveAspectRatio="xMidYMid" refX="0" refY="0" style="overflow:visible" viewBox="0 0 8.75 5"><path d="m0 0 5-5-17.5 5L5 5Z" style="fill:context-stroke;fill-rule:evenodd;stroke:none" transform="scale(-.5)"/></marker></defs><g transform="translate(-26.12 -568.547)"><path d="M26.252 568.679h72.977v95.071H26.252z" style="fill:#fff;stroke:#fff;stroke-width:.264583"/><circle cx="52.782" cy="631.288" r="24.648" style="fill:none;stroke:gray;stroke-width:.264583"/><circle cx="83.37" cy="589.985" r="12.253" style="fill:none;stroke:gray;stroke-width:.264583"/><path d="m52.784 631.29 30.586-41.305" style="fill:none;stroke:#00f;stroke-width:.264583px;stroke-linecap:butt;stroke-linejoin:miter;stroke-opacity:1"/><path d="M52.782 631.288h24.77" style="fill:none;stroke:teal;stroke-width:.264583px;stroke-linecap:butt;stroke-linejoin:miter;stroke-opacity:1"/><text xml:space="preserve" style="font-size:14.6667px;line-height:1.25;font-family:sans-serif;white-space:pre;shape-inside:url(#a);display:inline" transform="matrix(.26458 0 0 .26458 -8.438 87.392)"><tspan x="218.586" y="2040.234">acc</tspan></text><text xml:space="preserve" style="font-size:14.6667px;line-height:1.25;font-family:sans-serif;white-space:pre;shape-inside:url(#b);display:inline" transform="matrix(.26458 0 0 .26458 25.197 85.795)"><tspan x="161.646" y="2047.447">br1</tspan></text><text xml:space="preserve" style="font-size:14.6667px;line-height:1.25;font-family:sans-serif;white-space:pre;shape-inside:url(#c);display:inline;fill:#00aad4" transform="matrix(.26458 0 0 .26458 -5.304 90.706)"><tspan x="267.98" y="1911.305">ap</tspan></text><text xml:space="preserve" style="font-size:14.6667px;line-height:1.25;font-family:sans-serif;white-space:pre;shape-inside:url(#d);display:inline" transform="matrix(.26458 0 0 .26458 8.048 97.016)"><tspan x="157.445" y="2030.346">O</tspan></text><text xml:space="preserve" style="font-size:14.6667px;line-height:1.25;font-family:sans-serif;white-space:pre;shape-inside:url(#e);display:inline" transform="matrix(.26458 0 0 .26458 40.843 134.872)"><tspan x="139.9" y="1864.094">B</tspan></text><text xml:space="preserve" style="font-size:14.6667px;line-height:1.25;font-family:sans-serif;white-space:pre;shape-inside:url(#f);display:inline" transform="matrix(.26458 0 0 .26458 .056 104.163)"><tspan x="294.215" y="2001.314">A</tspan></text><text xml:space="preserve" style="font-size:14.6667px;line-height:1.25;font-family:sans-serif;white-space:pre;shape-inside:url(#g);display:inline" transform="matrix(.26458 0 0 .26458 5.83 101.264)"><tspan x="87.176" y="2117.646">point C position and speed</tspan></text><text xml:space="preserve" style="font-size:14.6667px;line-height:1.25;font-family:sans-serif;white-space:pre;shape-inside:url(#h);display:inline" transform="matrix(.26458 0 0 .26458 -44.963 25.214)"><tspan x="278.248" y="2070.463">negative pressure angular</tspan></text><path d="m63.98 596.79 17.334 12.808" style="fill:#d7eef4;stroke:#00aad4;stroke-width:.264583px;stroke-linecap:butt;stroke-linejoin:miter;stroke-opacity:1"/><path d="m77.091 627.308-5.723-35.173" style="fill:none;stroke:green;stroke-width:.264583px;stroke-linecap:butt;stroke-linejoin:miter;stroke-opacity:1"/><path d="m83.456 590.037-12.294 1.945" style="fill:green;stroke:green;stroke-width:.264583px;stroke-linecap:butt;stroke-linejoin:miter;stroke-opacity:1"/><path d="m77.19 627.112-24.376 3.94" style="fill:none;stroke:green;stroke-width:.264583px;stroke-linecap:butt;stroke-linejoin:miter;stroke-opacity:1"/><path d="m74.9 627.568-.37-1.902 2.197-.357M71.745 594.053l1.824-.328-.388-2.009" style="fill:none;stroke:#000;stroke-width:.264583px;stroke-linecap:butt;stroke-linejoin:miter;stroke-opacity:1"/><path d="M67.815 599.607s.6-1.029 1.078-1.35c.543-.364 1.88-.554 1.88-.554" style="fill:none;stroke:#00aad4;stroke-width:.264583px;stroke-linecap:butt;stroke-linejoin:miter;stroke-opacity:1;marker-end:url(#i)"/><text xml:space="preserve" style="font-size:14.6667px;line-height:1.25;font-family:sans-serif;white-space:pre;shape-inside:url(#j);display:inline" transform="matrix(.26458 0 0 .26458 22.897 123.473)"><tspan x="200.078" y="1869.623">C</tspan></text><path d="M59.275 631.43s.26-1.916-.087-2.773c-.247-.613-1.333-1.47-1.333-1.47" style="fill:none;stroke:#000;stroke-width:.264583px;stroke-linecap:butt;stroke-linejoin:miter;stroke-opacity:1;marker-end:url(#i)"/><path d="M62.105 618.915s1.783 1.268 2.473 2.072c.91 1.06 1.659 2.268 2.127 3.546.313.858.426 2.684.426 2.684" style="fill:none;stroke:#00aad4;stroke-width:.264583px;stroke-linecap:butt;stroke-linejoin:miter;stroke-opacity:1;marker-end:url(#i)"/><text xml:space="preserve" style="font-size:14.6667px;line-height:1.25;font-family:sans-serif;white-space:pre;shape-inside:url(#k);display:inline;fill:#00aad4" transform="matrix(.26458 0 0 .26458 -7.211 114.178)"><tspan x="267.98" y="1911.305">ap</tspan></text><text xml:space="preserve" style="font-size:14.6667px;line-height:1.25;font-family:sans-serif;white-space:pre;shape-inside:url(#l)" transform="matrix(.26458 0 0 .26458 -20.118 -33.898)"><tspan x="354.52" y="2358.061">br2</tspan></text><path d="m52.814 631.052 22.278-14.635" style="fill:none;stroke:#f60;stroke-width:.264583px;stroke-linecap:butt;stroke-linejoin:miter;stroke-opacity:1"/><path d="M61.602 629.653s-.042-.74-.15-1.092c-.112-.371-.512-1.045-.512-1.045" style="fill:none;stroke:#c0f;stroke-width:.264583px;stroke-linecap:butt;stroke-linejoin:miter;stroke-opacity:1;marker-end:url(#i)"/><text xml:space="preserve" style="font-size:14.6667px;line-height:1.25;font-family:sans-serif;white-space:pre;shape-inside:url(#m);fill:#aa00d4" transform="matrix(.26458 0 0 .26458 -16.086 10.155)"><tspan x="293.576" y="2334.555">aj</tspan></text><path d="m71.587 602.437-.998 1.47 1.424 1.07" style="fill:none;stroke:#000;stroke-width:.264583px;stroke-linecap:butt;stroke-linejoin:miter;stroke-opacity:1"/><path d="m75.128 616.3-5.044-7.896" style="fill:none;stroke:#ffb380;stroke-width:.264583px;stroke-linecap:butt;stroke-linejoin:miter;stroke-opacity:1;marker-end:url(#i)"/><path d="M-27.486 610.454h4.607v10.15h-4.607z" style="fill:none;stroke:#ccc;stroke-width:.264583" transform="rotate(-9.073)"/><path d="m75.271 616.446-3.092.51" style="fill:none;stroke:#a40;stroke-width:.264583px;stroke-linecap:butt;stroke-linejoin:miter;stroke-opacity:1;marker-end:url(#i)"/><path d="m75.326 616.475-1.354-8.556" style="fill:none;stroke:#a40;stroke-width:.264583px;stroke-linecap:butt;stroke-linejoin:miter;stroke-opacity:1;marker-end:url(#i)"/></g></svg>