<svg xmlns="http://www.w3.org/2000/svg" width="221.744" height="254.705" viewBox="0 0 58.67 67.391"><defs><path id="g" d="M129.105 3243.955H386.21v29.939H129.105z"/><path id="f" d="M261.255 3152.513h59.789v20.683h-59.789z"/><path id="e" d="M225.556 3188.931h71.829v27.439h-71.829z"/><path id="d" d="M228.463 3183.727h73.395v25.301h-73.395z"/><path id="c" d="M188.035 3206.26h75.541v32.637h-75.541z"/><path id="a" d="M317.109 3176.231h120.822v40.156H317.109z"/><marker id="b" markerHeight="5" markerWidth="8.75" orient="auto-start-reverse" preserveAspectRatio="xMidYMid" refX="0" refY="0" style="overflow:visible" viewBox="0 0 8.75 5"><path d="m0 0 5-5-17.5 5L5 5Z" style="fill:context-stroke;fill-rule:evenodd;stroke:none" transform="scale(-.5)"/></marker></defs><path d="M32.147 796.38h58.405v67.126H32.147z" style="fill:#fff;stroke:#fff;stroke-width:.264583" transform="translate(-32.015 -796.248)"/><path d="M34.425 854.013h26.121" style="fill:none;stroke:gray;stroke-width:.264583px;stroke-linecap:butt;stroke-linejoin:miter;stroke-opacity:1" transform="translate(-32.015 -796.248)"/><path d="m34.425 854.013 54.54-44.398" style="fill:none;stroke:#d5f;stroke-width:.264583px;stroke-linecap:butt;stroke-linejoin:miter;stroke-opacity:1" transform="translate(-32.015 -796.248)"/><path d="m34.483 854.033 4.844-38.196" style="fill:none;stroke:#f06;stroke-width:.264582px;stroke-linecap:butt;stroke-linejoin:miter;stroke-opacity:1" transform="translate(-32.015 -796.248)"/><path d="M54.296 826.036s1.513-4.074 1.682-6.213c.209-2.639-.369-5.292-.843-7.897-.375-2.058-.708-4.17-1.577-6.073-.648-1.421-2.654-3.861-2.654-3.861" style="fill:none;stroke:#afdde9;stroke-width:.529167;stroke-linecap:butt;stroke-linejoin:miter;stroke-opacity:1" transform="translate(-32.015 -796.248)"/><path d="m51.562 829.691 11.86-16.926" style="fill:none;stroke:#06f;stroke-width:.264583px;stroke-linecap:butt;stroke-linejoin:miter;stroke-opacity:1" transform="translate(-32.015 -796.248)"/><path d="m49.394 823.45 8.068-16.756" style="fill:none;stroke:#ff8080;stroke-width:.264583px;stroke-linecap:butt;stroke-linejoin:miter;stroke-opacity:1" transform="translate(-32.015 -796.248)"/><text xml:space="preserve" style="font-size:14.6667px;line-height:1.25;font-family:sans-serif;white-space:pre;shape-inside:url(#a)" transform="matrix(.26458 0 0 .26458 -68.593 -839.57)"><tspan x="317.109" y="3189.207">right profile</tspan></text><path d="M45.453 854.01s.179-2.305-.144-3.389c-.276-.927-1.484-2.496-1.484-2.496" style="fill:none;stroke:#000;stroke-width:.264583px;stroke-linecap:butt;stroke-linejoin:miter;stroke-opacity:1;marker-end:url(#b)" transform="translate(-32.015 -796.248)"/><text xml:space="preserve" style="font-size:14.6667px;line-height:1.25;font-family:sans-serif;white-space:pre;shape-inside:url(#c)" transform="matrix(.26458 0 0 .26458 -35.31 -796.866)"><tspan x="188.035" y="3219.236">acc</tspan></text><path d="M45.892 844.362s-1.673-3.053-3.062-3.994c-1.335-.905-4.657-1.312-4.657-1.312" style="fill:none;stroke:#000;stroke-width:.264583px;stroke-linecap:butt;stroke-linejoin:miter;stroke-opacity:1;marker-end:url(#b)" transform="translate(-32.015 -796.248)"/><text xml:space="preserve" style="font-size:14.6667px;line-height:1.25;font-family:sans-serif;white-space:pre;shape-inside:url(#d)" transform="matrix(.26458 0 0 .26458 -51.613 -803.05)"><tspan x="228.463" y="3196.703">apr</tspan></text><path d="M38.288 825.568s4.714-.386 6.985.131c1.883.43 5.27 2.411 5.27 2.411" style="fill:none;stroke:#000;stroke-width:.264583px;stroke-linecap:butt;stroke-linejoin:miter;stroke-opacity:1;marker-end:url(#b)" transform="translate(-32.015 -796.248)"/><text xml:space="preserve" style="font-size:14.6667px;line-height:1.25;font-family:sans-serif;white-space:pre;shape-inside:url(#e)" transform="matrix(.26458 0 0 .26458 -48.35 -814.404)"><tspan x="225.557" y="3201.908">u</tspan></text><path d="M60.942 816.082s-1.094-2.044-1.948-2.79c-.654-.572-2.319-1.193-2.319-1.193" style="fill:none;stroke:#000;stroke-width:.264583px;stroke-linecap:butt;stroke-linejoin:miter;stroke-opacity:1;marker-end:url(#b)" transform="translate(-32.015 -796.248)"/><text xml:space="preserve" style="font-size:14.6667px;line-height:1.25;font-family:sans-serif;white-space:pre;shape-inside:url(#f)" transform="matrix(.26458 0 0 .26458 -42.938 -822.317)"><tspan x="261.256" y="3165.488">rup</tspan></text><text xml:space="preserve" style="font-size:14.6667px;line-height:1.25;font-family:sans-serif;white-space:pre;shape-inside:url(#g)" transform="matrix(.26458 0 0 .26458 -32.015 -796.248)"><tspan x="129.105" y="3256.932">right side angle kitchen</tspan></text></svg>