<svg xmlns="http://www.w3.org/2000/svg" width="241.28" height="154.391" viewBox="0 0 63.839 40.849"><defs><path id="g" d="M109.167 1529.859h244.557v45.945H109.167z"/><path id="b" d="M113.207 1351.574h28.683v26.102h-28.683z"/><path id="a" d="M82.392 1407.374h30.069v26.631H82.392z"/><path id="f" d="M283.293 906.083h19.63v17.138h-19.63z"/><marker id="c" markerHeight="1" markerWidth="1" orient="auto-start-reverse" preserveAspectRatio="xMidYMid" refX="0" refY="0" style="overflow:visible" viewBox="0 0 1 1"><path d="m0 0 5-5-17.5 5L5 5Z" style="fill:context-stroke;fill-rule:evenodd;stroke:none" transform="scale(-.5)"/></marker><marker id="d" markerHeight="1" markerWidth="1" orient="auto-start-reverse" preserveAspectRatio="xMidYMid" refX="0" refY="0" style="overflow:visible" viewBox="0 0 1 1"><path d="m0 0 5-5-17.5 5L5 5Z" style="fill:context-stroke;fill-rule:evenodd;stroke:none" transform="scale(-.5)"/></marker><marker id="e" markerHeight="1" markerWidth="1" orient="auto-start-reverse" preserveAspectRatio="xMidYMid" refX="0" refY="0" style="overflow:visible" viewBox="0 0 1 1"><path d="m0 0 5-5-17.5 5L5 5Z" style="fill:context-stroke;fill-rule:evenodd;stroke:none" transform="scale(-.5)"/></marker></defs><path d="M26.602 359.234h63.574v40.585H26.602z" style="fill:#fff;fill-opacity:1;stroke:#fff;stroke-width:.264583;stroke-dasharray:none;stroke-dashoffset:0;stroke-opacity:1" transform="translate(-26.47 -359.102)"/><path d="M47.32 365.032h35.178v22.682H47.32z" style="fill:#ccc;stroke:#000;stroke-width:.264582;stroke-dasharray:none;stroke-dashoffset:0" transform="translate(-26.47 -359.102)"/><path d="M38.035 370.391h13.679v12.125H38.035z" style="fill:#333;fill-opacity:.5;stroke:#000;stroke-width:.79375;stroke-dasharray:none;stroke-dashoffset:0;stroke-opacity:1" transform="translate(-26.47 -359.102)"/><text xml:space="preserve" style="font-size:14.6667px;line-height:1.25;font-family:sans-serif;white-space:pre;shape-inside:url(#a)" transform="matrix(.26458 0 0 .26458 -15.293 -357.282)"><tspan x="82.393" y="1420.35">B</tspan></text><text xml:space="preserve" style="font-size:14.6667px;line-height:1.25;font-family:sans-serif;white-space:pre;shape-inside:url(#b)" transform="matrix(.26458 0 0 .26458 -12.567 -351.883)"><tspan x="113.207" y="1364.551">A</tspan></text><path d="M38.942 368.804h11.843" style="fill:none;stroke:#000;stroke-width:.264583;stroke-linecap:butt;stroke-linejoin:miter;stroke-opacity:1;marker-start:url(#c);marker-end:url(#marker14)" transform="translate(-26.47 -359.102)"/><path d="M35.923 381.428v-9.766" style="fill:none;stroke:#000;stroke-width:.264583;stroke-linecap:butt;stroke-linejoin:miter;stroke-opacity:1;marker-start:url(#d);marker-end:url(#marker14-41)" transform="translate(-26.47 -359.102)"/><path d="M39.207 384.647h6.645" style="fill:none;stroke:#000;stroke-width:.264583;stroke-linecap:butt;stroke-linejoin:miter;stroke-opacity:1;marker-start:url(#e);marker-end:url(#marker14-8)" transform="translate(-26.47 -359.102)"/><text xml:space="preserve" style="font-size:14.6667px;line-height:1.25;font-family:sans-serif;white-space:pre;shape-inside:url(#f);display:inline" transform="matrix(.26458 0 0 .26458 -59.837 -214.575)"><tspan x="283.293" y="919.059">x</tspan></text><text xml:space="preserve" style="font-size:14.6667px;line-height:1.25;font-family:sans-serif;white-space:pre;shape-inside:url(#g)" transform="matrix(.26458 0 0 .26458 -27.386 -369.195)"><tspan x="109.166" y="1542.836">top view of air gap and shuttle</tspan></text></svg>