<svg xmlns="http://www.w3.org/2000/svg" width="114.766" height="115.833" viewBox="0 0 30.365 30.648"><defs><path id="d" d="M141.901 6481.791h149.163v30.023H141.901z"/><path id="c" d="M227.905 6507.881h28.667v23.428h-28.667z"/><path id="b" d="M189.429 6502.708h34.512v21.104h-34.512z"/><marker id="a" markerHeight="5" markerWidth="8.75" orient="auto-start-reverse" preserveAspectRatio="xMidYMid" refX="0" refY="0" style="overflow:visible" viewBox="0 0 8.75 5"><path d="m0 0 5-5-17.5 5L5 5Z" style="fill:context-stroke;fill-rule:evenodd;stroke:none" transform="scale(-.5)"/></marker></defs><path d="M36.441 1689.946h30.101v30.383H36.441z" style="fill:#fff;stroke:#fff;stroke-width:.264583" transform="translate(-36.309 -1689.814)"/><path d="m38.046 1712.427 25.016-20.003" style="fill:none;stroke:#000;stroke-width:.264583px;stroke-linecap:butt;stroke-linejoin:miter;stroke-opacity:1;marker-end:url(#a)" transform="translate(-36.309 -1689.814)"/><path d="M38.062 1712.448h7.698" style="fill:none;stroke:#ccc;stroke-width:.264583px;stroke-linecap:butt;stroke-linejoin:miter;stroke-opacity:1" transform="translate(-36.309 -1689.814)"/><path d="M40.378 1710.447s1.07.484 1.17.984c.083.406-.564 1.11-.564 1.11" style="fill:none;stroke:#a00;stroke-width:.264583px;stroke-linecap:butt;stroke-linejoin:miter;stroke-opacity:1" transform="translate(-36.309 -1689.814)"/><text xml:space="preserve" style="font-size:14.6667px;line-height:1.25;font-family:sans-serif;white-space:pre;shape-inside:url(#b);fill:#a00" transform="matrix(.26458 0 0 .26458 -44.215 -1701.57)"><tspan x="189.43" y="6515.684">a</tspan></text><text xml:space="preserve" style="font-size:14.6667px;line-height:1.25;font-family:sans-serif;white-space:pre;shape-inside:url(#c);fill:#00f" transform="matrix(.26458 0 0 .26458 -47.718 -1713.476)"><tspan x="227.906" y="6520.858">l</tspan></text><text xml:space="preserve" style="font-size:14.6667px;line-height:1.25;font-family:sans-serif;white-space:pre;shape-inside:url(#d)" transform="matrix(.26458 0 0 .26458 -31.276 -1689.823)"><tspan x="141.9" y="6494.768">vector(a, l)</tspan></text></svg>