<svg xmlns="http://www.w3.org/2000/svg" width="201" height="201" viewBox="0 0 53.181 53.181"><defs><path id="k" d="M165.839 886.693h58.307v27.667h-58.307z"/><path id="j" d="M157.592 882.45h81.515v28.505h-81.515z"/><path id="c" d="M372.014 274.981h57.012v32.118h-57.012z"/><path id="d" d="M373.346 209.379h65.277v27.878h-65.277z"/><path id="e" d="M399.974 129.034h56.102v26.076h-56.102z"/><path id="f" d="M249.583 441.078h31.984v20.338h-31.984z"/><path id="g" d="M292.848 411.623h56.436v34.832h-56.436z"/><path id="h" d="M349.4 374.28h50.588v42.513H349.4z"/><path id="m" d="M165.839 886.693h58.307v27.667h-58.307z"/><path id="n" d="M157.592 882.45h81.515v28.505h-81.515z"/><marker id="i" markerHeight="6.155" markerWidth="5.324" orient="auto-start-reverse" preserveAspectRatio="xMidYMid" refX="0" refY="0" style="overflow:visible" viewBox="0 0 5.324 6.155"><path d="m5.77 0-8.65 5V-5Z" style="fill:context-stroke;fill-rule:evenodd;stroke:context-stroke;stroke-width:1pt" transform="scale(.5)"/></marker><marker id="a" markerHeight="5" markerWidth="8.75" orient="auto-start-reverse" preserveAspectRatio="xMidYMid" refX="0" refY="0" style="overflow:visible" viewBox="0 0 8.75 5"><path d="m0 0 5-5-17.5 5L5 5Z" style="fill:context-stroke;fill-rule:evenodd;stroke:none" transform="scale(-.5)"/></marker><marker id="b" markerHeight="5" markerWidth="8.75" orient="auto-start-reverse" preserveAspectRatio="xMidYMid" refX="0" refY="0" style="overflow:visible" viewBox="0 0 8.75 5"><path d="m0 0 5-5-17.5 5L5 5Z" style="fill:context-stroke;fill-rule:evenodd;stroke:none" transform="scale(-.5)"/></marker><marker id="l" markerHeight="6.155" markerWidth="5.324" orient="auto-start-reverse" preserveAspectRatio="xMidYMid" refX="0" refY="0" style="overflow:visible" viewBox="0 0 5.324 6.155"><path d="m5.77 0-8.65 5V-5Z" style="fill:context-stroke;fill-rule:evenodd;stroke:context-stroke;stroke-width:1pt" transform="scale(.5)"/></marker></defs><g transform="translate(-38.571 -203.07)"><path d="M38.703 203.202H91.62v52.917H38.703z" style="fill:#fff;stroke:#fff;stroke-width:.264583"/><path d="M42.552 229.02h41.884" style="fill:#fff;stroke:#000;stroke-width:.264583px;stroke-linecap:butt;stroke-linejoin:miter;stroke-opacity:1;marker-end:url(#a)"/><path d="M64.321 250.79v-41.885" style="fill:#fff;stroke:#000;stroke-width:.264583px;stroke-linecap:butt;stroke-linejoin:miter;stroke-opacity:1;marker-end:url(#b)"/><circle cx="77.044" cy="220.873" r="1.04" style="fill:none;stroke:#f60;stroke-width:.264583"/><path d="M77.044 229.02v-8.147H64.321" style="fill:none;stroke:#999;stroke-width:.264583px;stroke-linecap:butt;stroke-linejoin:miter;stroke-dasharray:1,1;stroke-dashoffset:0;stroke-opacity:1"/><text xml:space="preserve" style="font-size:12px;line-height:1.25;font-family:sans-serif;white-space:pre;shape-inside:url(#c);display:inline;fill:#2ca02c" transform="matrix(.26458 0 0 .26458 -25.517 157.18)"><tspan x="372.014" y="285.598">p1x</tspan></text><text xml:space="preserve" style="font-size:12px;line-height:1.25;font-family:sans-serif;white-space:pre;shape-inside:url(#d);display:inline;fill:#2ca02c" transform="matrix(.26458 0 0 .26458 -40.881 163.41)"><tspan x="373.346" y="219.996">p1y</tspan></text><text xml:space="preserve" style="font-size:14.6667px;line-height:1.25;font-family:sans-serif;white-space:pre;shape-inside:url(#e);display:inline;fill:#2ca02c" transform="matrix(.26458 0 0 .26458 -26.99 180.87)"><tspan x="399.975" y="142.012">p1</tspan></text><path d="M64.454 246.756h18.303v-17.798" style="fill:none;stroke:#999;stroke-width:.264583px;stroke-linecap:butt;stroke-linejoin:miter;stroke-dasharray:1,1;stroke-dashoffset:0;stroke-opacity:1"/><circle cx="82.781" cy="246.66" r="1.04" style="fill:none;stroke:#f60;stroke-width:.264583"/><text xml:space="preserve" style="font-size:14.6667px;line-height:1.25;font-family:sans-serif;white-space:pre;shape-inside:url(#f);display:inline;fill:#04a" transform="matrix(.26458 0 0 .26458 18.045 128.219)"><tspan x="249.582" y="454.055">p2</tspan></text><text xml:space="preserve" style="font-size:12px;line-height:1.25;font-family:sans-serif;white-space:pre;shape-inside:url(#g);display:inline;fill:#04a" transform="matrix(.26458 0 0 .26458 3.513 115.819)"><tspan x="292.848" y="422.24">p2x</tspan></text><text xml:space="preserve" style="font-size:12px;line-height:1.25;font-family:sans-serif;white-space:pre;shape-inside:url(#h);display:inline;fill:#04a" transform="matrix(.26458 0 0 .26458 -34.786 145.631)"><tspan x="349.4" y="384.896">p2y</tspan></text><path d="m52.185 226.614-7.463-17.091" style="fill:#fff;stroke:#f0f;stroke-width:.264583px;stroke-linecap:butt;stroke-linejoin:miter;stroke-opacity:1;marker-end:url(#i)"/><path d="M52.306 226.535h3.565" style="fill:none;stroke:#b3b3b3;stroke-width:.264583px;stroke-linecap:butt;stroke-linejoin:miter;stroke-opacity:1"/><path d="M53.645 226.586s.203-.956-.045-1.318c-.226-.33-.705-.438-1.104-.472-.336-.028-.985.239-.985.239" style="fill:none;stroke:purple;stroke-width:.264583px;stroke-linecap:butt;stroke-linejoin:miter;stroke-opacity:1"/><text xml:space="preserve" style="font-size:10.6667px;line-height:1.25;font-family:sans-serif;white-space:pre;shape-inside:url(#j);fill:purple" transform="matrix(.26458 0 0 .26458 12.448 -10.11)"><tspan x="157.592" y="891.889">v1a</tspan></text><text xml:space="preserve" style="font-size:10.6667px;line-height:1.25;font-family:sans-serif;white-space:pre;shape-inside:url(#k);fill:purple" transform="matrix(.26458 0 0 .26458 4.016 -21.916)"><tspan x="165.84" y="896.131">v1l</tspan></text><path d="m51.316 236.389-7.522 9.417" style="fill:#fff;stroke:#f0f;stroke-width:.264583px;stroke-linecap:butt;stroke-linejoin:miter;stroke-opacity:1;marker-end:url(#l)"/><path d="M51.48 236.432h3.565" style="fill:none;stroke:#b3b3b3;stroke-width:.264583px;stroke-linecap:butt;stroke-linejoin:miter;stroke-opacity:1"/><text xml:space="preserve" style="font-size:10.6667px;line-height:1.25;font-family:sans-serif;white-space:pre;shape-inside:url(#m);display:inline;fill:purple" transform="matrix(.26458 0 0 .26458 -.38 3.325)"><tspan x="165.84" y="896.131">v2l</tspan></text><path d="M52.979 236.283s.169-.972-.086-1.34c-.288-.418-.883-.566-1.387-.63-.613-.075-1.35-.066-1.825.33-.378.313-.477.887-.52 1.376-.044.484-.01 1.034.267 1.435.13.188.586.355.586.355" style="fill:none;stroke:purple;stroke-width:.264583px;stroke-linecap:butt;stroke-linejoin:miter;stroke-opacity:1"/><text xml:space="preserve" style="font-size:10.6667px;line-height:1.25;font-family:sans-serif;white-space:pre;shape-inside:url(#n);display:inline;fill:purple" transform="matrix(.26458 0 0 .26458 8.299 -2.78)"><tspan x="157.592" y="891.889">v2a</tspan></text></g></svg>