<?xml version="1.0" encoding="UTF-8" standalone="no"?>
<!-- Created with Inkscape (http://www.inkscape.org/) -->

<svg
   width="399.3913"
   height="362.27133"
   viewBox="0 0 105.67228 95.850955"
   version="1.1"
   id="svg5"
   inkscape:version="1.2.2 (1:1.2.2+202305151914+b0a8486541)"
   sodipodi:docname="gears.svg"
   inkscape:export-filename="gear_base_left_circle_for_involute.svg"
   inkscape:export-xdpi="96"
   inkscape:export-ydpi="96"
   xmlns:inkscape="http://www.inkscape.org/namespaces/inkscape"
   xmlns:sodipodi="http://sodipodi.sourceforge.net/DTD/sodipodi-0.dtd"
   xmlns="http://www.w3.org/2000/svg"
   xmlns:svg="http://www.w3.org/2000/svg">
  <sodipodi:namedview
     id="namedview7"
     pagecolor="#ffffff"
     bordercolor="#666666"
     borderopacity="1.0"
     inkscape:showpageshadow="2"
     inkscape:pageopacity="0.0"
     inkscape:pagecheckerboard="0"
     inkscape:deskcolor="#d1d1d1"
     inkscape:document-units="px"
     showgrid="false"
     inkscape:zoom="0.84096521"
     inkscape:cx="510.72268"
     inkscape:cy="6469.3521"
     inkscape:window-width="1366"
     inkscape:window-height="836"
     inkscape:window-x="0"
     inkscape:window-y="0"
     inkscape:window-maximized="1"
     inkscape:current-layer="layer1" />
  <defs
     id="defs2">
    <marker
       style="overflow:visible"
       id="Arrow1L"
       refX="0"
       refY="0"
       orient="auto-start-reverse"
       inkscape:stockid="Arrow1L"
       markerWidth="8.75"
       markerHeight="5"
       viewBox="0 0 8.75 5"
       inkscape:isstock="true"
       inkscape:collect="always"
       preserveAspectRatio="xMidYMid">
      <path
         style="fill:context-stroke;fill-rule:evenodd;stroke:none"
         d="M 0,0 5,-5 -12.5,0 5,5 Z"
         id="arrow1L"
         transform="scale(-0.5)" />
    </marker>
    <rect
       x="166.64491"
       y="2687.6995"
       width="41.616524"
       height="27.514421"
       id="rect6291-3-3" />
    <rect
       x="316.85132"
       y="2712.1018"
       width="47.70142"
       height="20.769939"
       id="rect6297-6-6" />
    <marker
       style="overflow:visible"
       id="Arrow1L-75-5"
       refX="0"
       refY="0"
       orient="auto-start-reverse"
       inkscape:stockid="Arrow1L"
       markerWidth="8.75"
       markerHeight="5"
       viewBox="0 0 8.75 5"
       inkscape:isstock="true"
       inkscape:collect="always"
       preserveAspectRatio="xMidYMid">
      <path
         style="fill:context-stroke;fill-rule:evenodd;stroke:none"
         d="M 0,0 5,-5 -12.5,0 5,5 Z"
         id="arrow1L-35-6"
         transform="scale(-0.5)" />
    </marker>
    <rect
       x="218.91"
       y="2713.1235"
       width="190.48982"
       height="24.943436"
       id="rect7739-6-3" />
    <rect
       x="79.32663"
       y="2481.2285"
       width="163.68143"
       height="22.611668"
       id="rect8903-2-9" />
    <rect
       x="79.32663"
       y="2481.2285"
       width="192.78908"
       height="25.133881"
       id="rect8903-0-9-4" />
    <rect
       x="46.665592"
       y="2703.4529"
       width="226.10506"
       height="39.247593"
       id="rect9495-1-8" />
    <marker
       style="overflow:visible"
       id="Arrow1L-1"
       refX="0"
       refY="0"
       orient="auto-start-reverse"
       inkscape:stockid="Arrow1L"
       markerWidth="8.75"
       markerHeight="5"
       viewBox="0 0 8.75 5"
       inkscape:isstock="true"
       inkscape:collect="always"
       preserveAspectRatio="xMidYMid">
      <path
         style="fill:context-stroke;fill-rule:evenodd;stroke:none"
         d="M 0,0 5,-5 -12.5,0 5,5 Z"
         id="arrow1L-2"
         transform="scale(-0.5)" />
    </marker>
    <rect
       x="73.224258"
       y="2725.9961"
       width="34.431232"
       height="43.985794"
       id="rect10944-2-9" />
    <rect
       x="133.3927"
       y="2744.6616"
       width="55.744244"
       height="61.344288"
       id="rect10986-7-3" />
    <rect
       x="210.08537"
       y="2744.6553"
       width="38.35619"
       height="35.554527"
       id="rect11028-0-9" />
    <rect
       x="279.07266"
       y="2746.8557"
       width="44.977711"
       height="50.055519"
       id="rect11070-9-0" />
    <rect
       x="385.47021"
       y="2748.5046"
       width="21.198053"
       height="29.763985"
       id="rect11112-3-8" />
    <rect
       x="81.064323"
       y="2843.8103"
       width="254.20912"
       height="35.797581"
       id="rect16969-6-8" />
    <rect
       x="475.12344"
       y="2772.0674"
       width="157.89822"
       height="48.357441"
       id="rect804-0-5" />
    <rect
       x="199.19913"
       y="6379.0771"
       width="54.369259"
       height="17.969028"
       id="rect4411-0" />
    <rect
       x="221.8828"
       y="6301.6553"
       width="55.588562"
       height="20.314734"
       id="rect4417-9" />
    <marker
       style="overflow:visible"
       id="Arrow1L-77-6"
       refX="0"
       refY="0"
       orient="auto-start-reverse"
       inkscape:stockid="Arrow1L"
       markerWidth="8.75"
       markerHeight="5"
       viewBox="0 0 8.75 5"
       inkscape:isstock="true"
       inkscape:collect="always"
       preserveAspectRatio="xMidYMid">
      <path
         style="fill:context-stroke;fill-rule:evenodd;stroke:none"
         d="M 0,0 5,-5 -12.5,0 5,5 Z"
         id="arrow1L-6-3"
         transform="scale(-0.5)" />
    </marker>
    <marker
       style="overflow:visible"
       id="Arrow1L-24"
       refX="0"
       refY="0"
       orient="auto-start-reverse"
       inkscape:stockid="Arrow1L"
       markerWidth="8.75"
       markerHeight="5"
       viewBox="0 0 8.75 5"
       inkscape:isstock="true"
       inkscape:collect="always"
       preserveAspectRatio="xMidYMid">
      <path
         style="fill:context-stroke;fill-rule:evenodd;stroke:none"
         d="M 0,0 5,-5 -12.5,0 5,5 Z"
         id="arrow1L-77"
         transform="scale(-0.5)" />
    </marker>
    <rect
       x="443.35593"
       y="6678.2441"
       width="55.901897"
       height="27.960802"
       id="rect15431-2" />
    <rect
       x="427.13715"
       y="6607.4829"
       width="63.945599"
       height="31.856199"
       id="rect15425-9" />
  </defs>
  <g
     inkscape:label="Layer 1"
     inkscape:groupmode="layer"
     id="layer1"
     transform="translate(-23.251181,-1798.8097)">
    <rect
       style="fill:#ffffff;stroke:#ffffff;stroke-width:0.264582"
       id="rect16011-6-8"
       width="105.40771"
       height="95.586372"
       x="23.383472"
       y="1798.942"
       inkscape:export-filename="gear_base_right_circle_for_involute.svg"
       inkscape:export-xdpi="96"
       inkscape:export-ydpi="96" />
    <path
       style="fill:none;stroke:#b3b3b3;stroke-width:0.264583px;stroke-linecap:butt;stroke-linejoin:miter;stroke-opacity:1"
       d="m 69.941364,1827.6511 v 15.1631"
       id="path807-2-5" />
    <circle
       style="fill:none;stroke:#00ccff;stroke-width:0.264583"
       id="path6212-6-6"
       cx="47.508205"
       cy="1835.2661"
       r="16.193642" />
    <circle
       style="fill:none;stroke:#00ccff;stroke-width:0.264583"
       id="path6214-1-1"
       cx="102.19553"
       cy="1835.2661"
       r="23.609303" />
    <path
       style="fill:none;stroke:#b3b3b3;stroke-width:0.264583px;stroke-linecap:butt;stroke-linejoin:miter;stroke-opacity:1"
       d="M 47.508199,1835.2661 H 102.54024"
       id="path6216-8-1" />
    <path
       style="fill:none;stroke:#0000ff;stroke-width:0.264583px;stroke-linecap:butt;stroke-linejoin:miter;stroke-opacity:1"
       d="m 59.339911,1846.4468 25.85597,-27.5039"
       id="path6218-7-5" />
    <path
       style="fill:none;stroke:#008080;stroke-width:0.264583px;stroke-linecap:butt;stroke-linejoin:miter;stroke-opacity:1"
       d="m 47.66977,1835.3593 11.794681,11.0817"
       id="path6218-5-9-9" />
    <path
       style="fill:none;stroke:#008080;stroke-width:0.264583px;stroke-linecap:butt;stroke-linejoin:miter;stroke-opacity:1"
       d="M 102.53734,1835.2451 85.134741,1818.8855"
       id="path6218-0-2-8" />
    <path
       style="fill:none;stroke:#4d4d4d;stroke-width:0.264583px;stroke-linecap:butt;stroke-linejoin:miter;stroke-opacity:1"
       d="m 84.242991,1820.1641 1.07935,1.0084 1.08919,-1.0754"
       id="path6260-0-4" />
    <path
       style="fill:none;stroke:#4d4d4d;stroke-width:0.264583px;stroke-linecap:butt;stroke-linejoin:miter;stroke-opacity:1"
       d="m 60.464491,1845.2123 -1.07935,-1.0084 -1.08918,1.0754"
       id="path6260-3-2-8" />
    <text
       xml:space="preserve"
       transform="matrix(0.26458333,0,0,0.26458333,8.817619,1125.506)"
       id="text6289-3-1"
       style="font-size:14.6667px;line-height:1.25;font-family:sans-serif;white-space:pre;shape-inside:url(#rect6291-3-3);display:inline;fill:#008080"><tspan
         x="166.64453"
         y="2700.6758"
         id="tspan19987">blr1</tspan></text>
    <text
       xml:space="preserve"
       transform="matrix(0.26458333,0,0,0.26458333,8.9274817,1104.9179)"
       id="text6295-7-0"
       style="font-size:14.6667px;line-height:1.25;font-family:sans-serif;white-space:pre;shape-inside:url(#rect6297-6-6);display:inline;fill:#008080"><tspan
         x="316.85156"
         y="2725.0782"
         id="tspan19989">blr2</tspan></text>
    <path
       style="fill:none;stroke:#cccccc;stroke-width:0.264583px;stroke-linecap:butt;stroke-linejoin:miter;stroke-opacity:1"
       d="m 47.600333,1835.039 v 47.1895"
       id="path6301-5-3" />
    <path
       style="fill:none;stroke:#cccccc;stroke-width:0.264583px;stroke-linecap:butt;stroke-linejoin:miter;stroke-opacity:1"
       d="m 102.42987,1835.1728 v 47.7766"
       id="path6301-6-9-0" />
    <path
       style="fill:none;stroke:#333333;stroke-width:0.264583px;stroke-linecap:butt;stroke-linejoin:miter;stroke-opacity:1;marker-start:url(#Arrow1L-75-5);marker-end:url(#Arrow1L-75-5)"
       d="M 49.283994,1880.8313 H 100.64113"
       id="path6216-1-2-4" />
    <text
       xml:space="preserve"
       transform="matrix(0.26458333,0,0,0.26458333,-3.6148705,1158.838)"
       id="text7737-2-4"
       style="font-size:14.6667px;line-height:1.25;font-family:sans-serif;white-space:pre;shape-inside:url(#rect7739-6-3);display:inline"><tspan
         x="218.91016"
         y="2726.0996"
         id="tspan19991">e: inter-axis distance</tspan></text>
    <text
       xml:space="preserve"
       transform="matrix(0.26458333,0,0,0.26458333,3.2772435,1144.6973)"
       id="text8901-8-4"
       style="font-size:14.6667px;line-height:1.25;font-family:sans-serif;white-space:pre;shape-inside:url(#rect8903-2-9);display:inline"><tspan
         x="79.326172"
         y="2494.2051"
         id="tspan19993">base-left-circle-1</tspan></text>
    <text
       xml:space="preserve"
       transform="matrix(0.26458333,0,0,0.26458333,68.322474,1143.8579)"
       id="text8901-6-9-4"
       style="font-size:14.6667px;line-height:1.25;font-family:sans-serif;white-space:pre;shape-inside:url(#rect8903-0-9-4);display:inline"><tspan
         x="79.326172"
         y="2494.2051"
         id="tspan19995">base-left-circle-2</tspan></text>
    <path
       style="fill:none;stroke:#00ccff;stroke-width:0.264583px;stroke-linecap:butt;stroke-linejoin:miter;stroke-opacity:1"
       d="m 28.469775,1805.6754 9.012726,16.0075"
       id="path9489-7-7" />
    <path
       style="fill:none;stroke:#00ccff;stroke-width:0.264583px;stroke-linecap:butt;stroke-linejoin:miter;stroke-opacity:1"
       d="m 117.02501,1804.6653 -3.30249,8.9187"
       id="path9491-3-6"
       sodipodi:nodetypes="cc" />
    <text
       xml:space="preserve"
       transform="matrix(0.26458333,0,0,0.26458333,48.599377,1097.8833)"
       id="text9493-6-3"
       style="font-size:14.6667px;line-height:1.25;font-family:sans-serif;white-space:pre;shape-inside:url(#rect9495-1-8);display:inline;fill:#aa8800"><tspan
         x="46.666016"
         y="2716.4297"
         id="tspan19997">pna=pressure negative angle</tspan></text>
    <path
       style="fill:none;stroke:#d4aa00;stroke-width:0.264582px;stroke-linecap:butt;stroke-linejoin:miter;stroke-opacity:1;marker-end:url(#Arrow1L-1)"
       d="m 69.869841,1841.1759 c 0,0 -1.15357,0.2837 -1.68241,0.1525 -0.44799,-0.1115 -1.05086,-0.7435 -1.05086,-0.7435"
       id="path10111-1-1"
       sodipodi:nodetypes="cac" />
    <path
       style="fill:none;stroke:#d4aa00;stroke-width:0.264583px;stroke-linecap:butt;stroke-linejoin:miter;stroke-opacity:1"
       d="m 71.914186,1828.7083 2.786759,-11.1527"
       id="path10142-3-5"
       sodipodi:nodetypes="cc" />
    <text
       xml:space="preserve"
       transform="matrix(0.26458333,0,0,0.26458333,24.230763,1112.1365)"
       id="text10942-1-9"
       style="font-size:14.6667px;line-height:1.25;font-family:sans-serif;white-space:pre;shape-inside:url(#rect10944-2-9);display:inline"><tspan
         x="73.224609"
         y="2738.9727"
         id="tspan19999">A</tspan></text>
    <text
       xml:space="preserve"
       transform="matrix(0.26458333,0,0,0.26458333,23.432134,1121.0174)"
       id="text10984-9-6"
       style="font-size:14.6667px;line-height:1.25;font-family:sans-serif;white-space:pre;shape-inside:url(#rect10986-7-3);display:inline"><tspan
         x="133.39258"
         y="2757.6387"
         id="tspan20001">B</tspan></text>
    <text
       xml:space="preserve"
       transform="matrix(0.26458333,0,0,0.26458333,11.049911,1105.0829)"
       id="text11026-4-2"
       style="font-size:14.6667px;line-height:1.25;font-family:sans-serif;white-space:pre;shape-inside:url(#rect11028-0-9);display:inline"><tspan
         x="210.08594"
         y="2757.6328"
         id="tspan20003">C</tspan></text>
    <text
       xml:space="preserve"
       transform="matrix(0.26458333,0,0,0.26458333,6.9733408,1090.0495)"
       id="text11068-7-1"
       style="font-size:14.6667px;line-height:1.25;font-family:sans-serif;white-space:pre;shape-inside:url(#rect11070-9-0);display:inline"><tspan
         x="279.07227"
         y="2759.8321"
         id="tspan20005">D</tspan></text>
    <text
       xml:space="preserve"
       transform="matrix(0.26458333,0,0,0.26458333,-0.01661652,1103.7227)"
       id="text11110-8-7"
       style="font-size:14.6667px;line-height:1.25;font-family:sans-serif;white-space:pre;shape-inside:url(#rect11112-3-8);display:inline"><tspan
         x="385.4707"
         y="2761.4805"
         id="tspan20007">E</tspan></text>
    <text
       xml:space="preserve"
       transform="matrix(0.26458333,0,0,0.26458333,2.7147115,1137.3164)"
       id="text16967-4-8"
       style="font-size:14.6667px;line-height:1.25;font-family:sans-serif;white-space:pre;shape-inside:url(#rect16969-6-8);display:inline"><tspan
         x="81.064453"
         y="2856.7871"
         id="tspan20009">base left circle for involute</tspan></text>
    <path
       style="fill:none;stroke:#000000;stroke-width:0.264583;stroke-linecap:butt;stroke-linejoin:miter;stroke-opacity:1;marker-start:url(#Arrow1L)"
       d="m 33.982727,1829.3749 c 0,0 0.85652,-2.3179 1.59399,-3.2869 0.83003,-1.0906 3.08781,-2.7148 3.08781,-2.7148"
       id="path1469-5-5"
       sodipodi:nodetypes="cac" />
    <text
       xml:space="preserve"
       transform="matrix(0.26458333,0,0,0.26458333,-70.796512,1124.1394)"
       id="text802-0-7"
       style="font-size:14.6667px;line-height:1.25;font-family:sans-serif;white-space:pre;shape-inside:url(#rect804-0-5);display:inline"><tspan
         x="475.12305"
         y="2785.043"
         id="tspan20011">line of action
</tspan><tspan
         x="475.12305"
         y="2803.3765"
         id="tspan20013">pressure line</tspan></text>
    <path
       style="fill:none;stroke:#0000ff;stroke-width:0.264583px;stroke-linecap:butt;stroke-linejoin:miter;stroke-opacity:1"
       d="M 68.730644,1857.7065 63.503497,1842.825"
       id="path917-3-4"
       sodipodi:nodetypes="cc" />
    <path
       style="fill:none;stroke:#000000;stroke-width:0.264583px;stroke-linecap:butt;stroke-linejoin:miter;stroke-opacity:1"
       d="m 45.154811,1820.1466 c 0,0 -0.899544,-1.8303 -0.881724,-2.8128 0.0229,-1.2557 1.257158,-3.552 1.257158,-3.552 h 2.282482 c 0,0 1.458937,2.0448 1.592117,3.241 0.13209,1.1851 -0.83204,3.4792 -0.83204,3.4792"
       id="path3888-9-3"
       sodipodi:nodetypes="caccac" />
    <path
       style="fill:none;stroke:#ff0000;stroke-width:0.264583px;stroke-linecap:butt;stroke-linejoin:miter;stroke-opacity:1"
       d="m 45.143006,1813.7797 c 0,0 -1.21494,2.3414 -1.209584,3.6107 0.0045,1.0559 1.031626,2.9952 1.031626,2.9952"
       id="path3890-4-3"
       sodipodi:nodetypes="cac" />
    <text
       xml:space="preserve"
       transform="matrix(0.26458333,0,0,0.26458333,-15.148601,123.16399)"
       id="text4409-6"
       style="font-style:normal;font-variant:normal;font-weight:normal;font-stretch:normal;font-size:14.6667px;line-height:1.25;font-family:sans-serif;-inkscape-font-specification:sans-serif;white-space:pre;shape-inside:url(#rect4411-0);display:inline;fill:#666666"><tspan
         x="199.19922"
         y="6392.0547"
         id="tspan20015">left</tspan></text>
    <text
       xml:space="preserve"
       transform="matrix(0.26458333,0,0,0.26458333,-8.7450045,143.82005)"
       id="text4415-4"
       style="font-size:14.6667px;line-height:1.25;font-family:sans-serif;white-space:pre;shape-inside:url(#rect4417-9);display:inline;fill:#666666"><tspan
         x="221.88281"
         y="6314.6328"
         id="tspan20017">right</tspan></text>
    <path
       style="fill:none;stroke:#d4aa00;stroke-width:0.264582px;stroke-linecap:butt;stroke-linejoin:miter;stroke-opacity:1;marker-end:url(#Arrow1L-77-6)"
       d="m 70.093051,1829.3457 c 0,0 1.15357,-0.2837 1.68242,-0.1525 0.44798,0.1115 1.05085,0.7435 1.05085,0.7435"
       id="path10111-1-7-3"
       sodipodi:nodetypes="cac" />
    <path
       style="fill:none;stroke:#000000;stroke-width:0.264583px;stroke-linecap:butt;stroke-linejoin:miter;stroke-opacity:1"
       d="m 36.852416,1846.3581 c 0,0 -0.707478,1.9127 -1.432089,2.5765 -0.926187,0.8482 -3.441124,1.5349 -3.441124,1.5349 l -1.571995,-1.6549 c 0,0 0.477731,-2.4661 1.253283,-3.3865 0.768254,-0.9119 3.095553,-1.7929 3.095553,-1.7929"
       id="path3888-9-3-0"
       sodipodi:nodetypes="caccac" />
    <path
       style="fill:none;stroke:#ff0000;stroke-width:0.264583px;stroke-linecap:butt;stroke-linejoin:miter;stroke-opacity:1"
       d="m 32.244381,1850.7517 c 0,0 2.534331,-0.7317 3.450917,-1.6098 0.762455,-0.7305 1.461094,-2.8108 1.461094,-2.8108"
       id="path3890-4-3-3"
       sodipodi:nodetypes="cac" />
    <path
       style="fill:none;stroke:#000000;stroke-width:0.264583px;stroke-linecap:butt;stroke-linejoin:miter;stroke-opacity:1"
       d="m 42.022949,1849.6757 c 0,0 0.05347,2.0386 -0.372786,2.924 -0.544933,1.1315 -2.624959,2.7032 -2.624959,2.7032 l -2.074176,-0.9528 c 0,0 -0.472324,-2.4672 -0.09406,-3.6097 0.37463,-1.132 2.20829,-2.8143 2.20829,-2.8143"
       id="path3888-9-3-0-0"
       sodipodi:nodetypes="caccac" />
    <path
       style="fill:none;stroke:#ff0000;stroke-width:0.264583px;stroke-linecap:butt;stroke-linejoin:miter;stroke-opacity:1"
       d="m 39.376221,1855.4664 c 0,0 2.081319,-1.6206 2.606239,-2.7763 0.436622,-0.9614 0.312695,-3.1524 0.312695,-3.1524"
       id="path3890-4-3-3-9"
       sodipodi:nodetypes="cac" />
    <path
       style="fill:none;stroke:#000000;stroke-width:0.264583px;stroke-linecap:butt;stroke-linejoin:miter;stroke-opacity:1"
       d="m 33.298742,1840.7852 c 0,0 -1.311596,1.5616 -2.217746,1.9418 -1.158141,0.4858 -3.757264,0.2833 -3.757264,0.2833 l -0.921105,-2.0884 c 0,0 1.282138,-2.1601 2.322856,-2.7647 1.030979,-0.5991 3.519066,-0.6427 3.519066,-0.6427"
       id="path3888-9-3-0-2"
       sodipodi:nodetypes="caccac" />
    <path
       style="fill:none;stroke:#ff0000;stroke-width:0.264583px;stroke-linecap:butt;stroke-linejoin:miter;stroke-opacity:1"
       d="m 27.478087,1843.3654 c 0,0 2.632569,0.1668 3.791765,-0.3504 0.964288,-0.4303 2.324139,-2.1526 2.324139,-2.1526"
       id="path3890-4-3-3-5"
       sodipodi:nodetypes="cac" />
    <path
       style="fill:none;stroke:#000000;stroke-width:0.264583px;stroke-linecap:butt;stroke-linejoin:miter;stroke-opacity:1"
       d="m 108.25256,1856.8022 c 0,0 1.29292,1.5771 1.49951,2.5378 0.26384,1.2279 -0.41459,3.7451 -0.41459,3.7451 l -2.22246,0.5201 c 0,0 -1.88656,-1.6585 -2.28883,-2.7929 -0.39862,-1.1238 0.0173,-3.5773 0.0173,-3.5773"
       id="path3888-9-3-0-4"
       sodipodi:nodetypes="caccac" />
    <path
       style="fill:none;stroke:#ff0000;stroke-width:0.264583px;stroke-linecap:butt;stroke-linejoin:miter;stroke-opacity:1"
       d="m 109.715,1862.9989 c 0,0 0.64941,-2.5567 0.35492,-3.7914 -0.24503,-1.0271 -1.68704,-2.6813 -1.68704,-2.6813"
       id="path3890-4-3-3-0"
       sodipodi:nodetypes="cac" />
    <path
       style="fill:none;stroke:#000000;stroke-width:0.264583px;stroke-linecap:butt;stroke-linejoin:miter;stroke-opacity:1"
       d="m 114.01562,1854.872 c 0,0 1.65102,1.1971 2.09479,2.0738 0.56701,1.1207 0.55001,3.7276 0.55001,3.7276 l -2.01752,1.0674 c 0,0 -2.24586,-1.1249 -2.92303,-2.1201 -0.67092,-0.9857 -0.89172,-3.4643 -0.89172,-3.4643"
       id="path3888-9-3-0-5"
       sodipodi:nodetypes="caccac" />
    <path
       style="fill:none;stroke:#ff0000;stroke-width:0.264583px;stroke-linecap:butt;stroke-linejoin:miter;stroke-opacity:1"
       d="m 117.00368,1860.4942 c 0,0 -0.0211,-2.6378 -0.61947,-3.7572 -0.49782,-0.9313 -2.31261,-2.1649 -2.31261,-2.1649"
       id="path3890-4-3-3-94"
       sodipodi:nodetypes="cac" />
    <path
       style="fill:none;stroke:#000000;stroke-width:0.264583px;stroke-linecap:butt;stroke-linejoin:miter;stroke-opacity:1"
       d="m 118.57658,1850.5944 c 0,0 1.97822,0.4956 2.71678,1.1438 0.94376,0.8287 1.8995,3.2542 1.8995,3.2542 l -1.47442,1.7424 c 0,0 -2.50339,-0.2072 -3.50256,-0.8782 -0.98994,-0.6647 -2.11845,-2.8825 -2.11845,-2.8825"
       id="path3888-9-3-0-6"
       sodipodi:nodetypes="caccac" />
    <path
       style="fill:none;stroke:#ff0000;stroke-width:0.264583px;stroke-linecap:butt;stroke-linejoin:miter;stroke-opacity:1"
       d="m 123.44459,1854.6981 c 0,0 -1.00258,-2.4399 -1.97502,-3.2557 -0.80897,-0.6786 -2.95284,-1.1472 -2.95284,-1.1472"
       id="path3890-4-3-3-92"
       sodipodi:nodetypes="cac" />
    <path
       style="fill:none;stroke:#000000;stroke-width:0.264583;stroke-linecap:butt;stroke-linejoin:miter;stroke-opacity:1;marker-start:url(#Arrow1L-24)"
       d="m 121.78645,1824.7179 c 0,0 -0.85652,-2.3179 -1.59399,-3.2869 -0.83003,-1.0906 -3.08781,-2.7148 -3.08781,-2.7148"
       id="path1469-5-5-5"
       sodipodi:nodetypes="cac" />
    <text
       xml:space="preserve"
       transform="matrix(0.26458333,0,0,0.26458333,-81.953314,59.08715)"
       id="text15429-8"
       style="font-size:14.6667px;line-height:1.25;font-family:sans-serif;white-space:pre;shape-inside:url(#rect15431-2);display:inline"><tspan
         x="443.35547"
         y="6691.2207"
         id="tspan20019">ccw</tspan></text>
    <text
       xml:space="preserve"
       transform="matrix(0.26458333,0,0,0.26458333,1.4356653,72.53979)"
       id="text15423-3"
       style="font-size:14.6667px;line-height:1.25;font-family:sans-serif;white-space:pre;shape-inside:url(#rect15425-9);display:inline"><tspan
         x="427.13672"
         y="6620.459"
         id="tspan20021">cw</tspan></text>
  </g>
</svg>
