<?xml version="1.0" encoding="UTF-8" standalone="no"?>
<!-- Created with Inkscape (http://www.inkscape.org/) -->

<svg
   width="399.3913"
   height="362.27084"
   viewBox="0 0 105.67228 95.850826"
   version="1.1"
   id="svg5"
   xmlns="http://www.w3.org/2000/svg"
   xmlns:svg="http://www.w3.org/2000/svg">
  <defs
     id="defs2">
    <rect
       x="443.35593"
       y="6678.2441"
       width="55.901897"
       height="27.960802"
       id="rect15431" />
    <rect
       x="427.13715"
       y="6607.4829"
       width="63.945599"
       height="31.856199"
       id="rect15425" />
    <rect
       x="221.8828"
       y="6301.6553"
       width="55.588562"
       height="20.314734"
       id="rect4417" />
    <rect
       x="199.19913"
       y="6379.0771"
       width="54.369259"
       height="17.969028"
       id="rect4411" />
    <marker
       style="overflow:visible"
       id="Arrow1L"
       refX="0"
       refY="0"
       orient="auto-start-reverse"
       markerWidth="8.75"
       markerHeight="5"
       viewBox="0 0 8.75 5"
       preserveAspectRatio="xMidYMid">
      <path
         style="fill:context-stroke;fill-rule:evenodd;stroke:none"
         d="M 0,0 5,-5 -12.5,0 5,5 Z"
         id="arrow1L"
         transform="scale(-0.5)" />
    </marker>
    <rect
       x="166.64491"
       y="2687.6995"
       width="41.616524"
       height="27.514421"
       id="rect6291-3" />
    <rect
       x="316.85132"
       y="2712.1018"
       width="47.70142"
       height="20.769939"
       id="rect6297-6" />
    <marker
       style="overflow:visible"
       id="Arrow1L-75"
       refX="0"
       refY="0"
       orient="auto-start-reverse"
       markerWidth="8.75"
       markerHeight="5"
       viewBox="0 0 8.75 5"
       preserveAspectRatio="xMidYMid">
      <path
         style="fill:context-stroke;fill-rule:evenodd;stroke:none"
         d="M 0,0 5,-5 -12.5,0 5,5 Z"
         id="arrow1L-35"
         transform="scale(-0.5)" />
    </marker>
    <rect
       x="218.91"
       y="2713.1235"
       width="190.48982"
       height="24.943436"
       id="rect7739-6" />
    <rect
       x="79.32663"
       y="2481.2285"
       width="163.68143"
       height="22.611668"
       id="rect8903-2" />
    <rect
       x="79.32663"
       y="2481.2285"
       width="192.78908"
       height="25.133881"
       id="rect8903-0-9" />
    <rect
       x="46.665592"
       y="2703.4529"
       width="226.10506"
       height="39.247593"
       id="rect9495-1" />
    <rect
       x="73.224258"
       y="2725.9961"
       width="34.431232"
       height="43.985794"
       id="rect10944-2" />
    <rect
       x="133.3927"
       y="2744.6616"
       width="55.744244"
       height="61.344288"
       id="rect10986-7" />
    <rect
       x="210.08537"
       y="2744.6553"
       width="38.35619"
       height="35.554527"
       id="rect11028-0" />
    <rect
       x="279.07266"
       y="2746.8557"
       width="44.977711"
       height="50.055519"
       id="rect11070-9" />
    <rect
       x="385.47021"
       y="2748.5046"
       width="21.198053"
       height="29.763985"
       id="rect11112-3" />
    <rect
       x="81.064323"
       y="2843.8103"
       width="254.20912"
       height="35.797581"
       id="rect16969-6" />
    <rect
       x="475.12344"
       y="2772.0674"
       width="157.89822"
       height="48.357441"
       id="rect804-0" />
    <marker
       style="overflow:visible"
       id="Arrow1L-77"
       refX="0"
       refY="0"
       orient="auto-start-reverse"
       markerWidth="8.75"
       markerHeight="5"
       viewBox="0 0 8.75 5"
       preserveAspectRatio="xMidYMid">
      <path
         style="fill:context-stroke;fill-rule:evenodd;stroke:none"
         d="M 0,0 5,-5 -12.5,0 5,5 Z"
         id="arrow1L-6"
         transform="scale(-0.5)" />
    </marker>
  </defs>
  <g
     id="layer1"
     transform="translate(-17.336307,-1677.0623)">
    <rect
       style="fill:#ffffff;stroke:#ffffff;stroke-width:0.264582"
       id="rect16011-6"
       width="105.40771"
       height="95.586372"
       x="17.468597"
       y="1677.1945" />
    <path
       style="fill:none;stroke:#b3b3b3;stroke-width:0.264583px;stroke-linecap:butt;stroke-linejoin:miter;stroke-opacity:1"
       d="m 64.026497,1705.9035 v 15.1631"
       id="path807-2" />
    <circle
       style="fill:none;stroke:#00ccff;stroke-width:0.264583"
       id="path6212-6"
       cx="41.593334"
       cy="1713.5186"
       r="16.193642" />
    <circle
       style="fill:#ffffff;stroke:#00ccff;stroke-width:0.264583"
       id="path6214-1"
       cx="96.280655"
       cy="1713.5186"
       r="23.609303" />
    <path
       style="fill:none;stroke:#b3b3b3;stroke-width:0.264583px;stroke-linecap:butt;stroke-linejoin:miter;stroke-opacity:1"
       d="M 41.593328,1713.5186 H 96.280647"
       id="path6216-8" />
    <path
       style="fill:none;stroke:#0000ff;stroke-width:0.264583px;stroke-linecap:butt;stroke-linejoin:miter;stroke-opacity:1"
       d="m 53.355601,1702.204 25.855976,27.5039"
       id="path6218-7" />
    <path
       style="fill:none;stroke:#008080;stroke-width:0.264583px;stroke-linecap:butt;stroke-linejoin:miter;stroke-opacity:1"
       d="M 41.685461,1713.2915 53.48014,1702.2098"
       id="path6218-5-9" />
    <path
       style="fill:none;stroke:#008080;stroke-width:0.264583px;stroke-linecap:butt;stroke-linejoin:miter;stroke-opacity:1"
       d="m 96.190037,1713.7473 -17.03954,16.0181"
       id="path6218-0-2" />
    <path
       style="fill:none;stroke:#4d4d4d;stroke-width:0.264583px;stroke-linecap:butt;stroke-linejoin:miter;stroke-opacity:1"
       d="m 78.258687,1728.4867 1.07935,-1.0084 1.08919,1.0754"
       id="path6260-0" />
    <path
       style="fill:none;stroke:#4d4d4d;stroke-width:0.264583px;stroke-linecap:butt;stroke-linejoin:miter;stroke-opacity:1"
       d="m 54.480184,1703.4385 -1.079352,1.0084 -1.089184,-1.0754"
       id="path6260-3-2" />
    <text
       xml:space="preserve"
       transform="matrix(0.26458333,0,0,0.26458333,-4.3188048,992.05798)"
       id="text6289-3"
       style="font-size:14.6667px;line-height:1.25;font-family:sans-serif;white-space:pre;shape-inside:url(#rect6291-3);display:inline;fill:#008080"><tspan
         x="166.64453"
         y="2700.6758"
         id="tspan22916">brr1</tspan></text>
    <text
       xml:space="preserve"
       transform="matrix(0.26458333,0,0,0.26458333,-4.9997498,1000.3604)"
       id="text6295-7"
       style="font-size:14.6667px;line-height:1.25;font-family:sans-serif;white-space:pre;shape-inside:url(#rect6297-6);display:inline;fill:#008080"><tspan
         x="316.85156"
         y="2725.0782"
         id="tspan22918">brr2</tspan></text>
    <path
       style="fill:none;stroke:#cccccc;stroke-width:0.264583px;stroke-linecap:butt;stroke-linejoin:miter;stroke-opacity:1"
       d="m 41.685461,1713.2914 v 47.1895"
       id="path6301-5" />
    <path
       style="fill:none;stroke:#cccccc;stroke-width:0.264583px;stroke-linecap:butt;stroke-linejoin:miter;stroke-opacity:1"
       d="m 96.190037,1713.9349 v 47.1895"
       id="path6301-6-9" />
    <path
       style="fill:none;stroke:#333333;stroke-width:0.264583px;stroke-linecap:butt;stroke-linejoin:miter;stroke-opacity:1;marker-start:url(#Arrow1L-75);marker-end:url(#Arrow1L-75)"
       d="M 43.369119,1759.0837 H 94.726267"
       id="path6216-1-2" />
    <text
       xml:space="preserve"
       transform="matrix(0.26458333,0,0,0.26458333,-9.5297428,1037.0904)"
       id="text7737-2"
       style="font-size:14.6667px;line-height:1.25;font-family:sans-serif;white-space:pre;shape-inside:url(#rect7739-6);display:inline"><tspan
         x="218.91016"
         y="2726.0996"
         id="tspan22920">e: inter-axis distance</tspan></text>
    <text
       xml:space="preserve"
       transform="matrix(0.26458333,0,0,0.26458333,-2.6376286,1022.9497)"
       id="text8901-8"
       style="font-size:14.6667px;line-height:1.25;font-family:sans-serif;white-space:pre;shape-inside:url(#rect8903-2);display:inline"><tspan
         x="79.326172"
         y="2494.2051"
         id="tspan22922">base-right-circle-1</tspan></text>
    <text
       xml:space="preserve"
       transform="matrix(0.26458333,0,0,0.26458333,62.407597,1022.1103)"
       id="text8901-6-9"
       style="font-size:14.6667px;line-height:1.25;font-family:sans-serif;white-space:pre;shape-inside:url(#rect8903-0-9);display:inline"><tspan
         x="79.326172"
         y="2494.2051"
         id="tspan22924">base-right-circle-2</tspan></text>
    <path
       style="fill:none;stroke:#00ccff;stroke-width:0.264583px;stroke-linecap:butt;stroke-linejoin:miter;stroke-opacity:1"
       d="m 22.554903,1683.9278 9.012726,16.0075"
       id="path9489-7" />
    <path
       style="fill:none;stroke:#00ccff;stroke-width:0.264583px;stroke-linecap:butt;stroke-linejoin:miter;stroke-opacity:1"
       d="m 111.2457,1682.544 -3.43805,9.2924"
       id="path9491-3" />
    <text
       xml:space="preserve"
       transform="matrix(0.26458333,0,0,0.26458333,46.197084,986.28933)"
       id="text9493-6"
       style="font-size:14.6667px;line-height:1.25;font-family:sans-serif;white-space:pre;shape-inside:url(#rect9495-1);display:inline;fill:#aa8800"><tspan
         x="46.666016"
         y="2716.4297"
         id="tspan22926">ppa=pressure positive angle</tspan></text>
    <path
       style="fill:none;stroke:#d4aa00;stroke-width:0.264582px;stroke-linecap:butt;stroke-linejoin:miter;stroke-opacity:1;marker-end:url(#Arrow1L)"
       d="m 63.885535,1707.4749 c 0,0 -1.153569,-0.2837 -1.682415,-0.1525 -0.447984,0.1115 -1.050855,0.7435 -1.050855,0.7435"
       id="path10111-1" />
    <path
       style="fill:none;stroke:#d4aa00;stroke-width:0.264583px;stroke-linecap:butt;stroke-linejoin:miter;stroke-opacity:1"
       d="m 68.121819,1716.9514 3.967014,-10.9435"
       id="path10140-9" />
    <path
       style="fill:none;stroke:#d4aa00;stroke-width:0.264583px;stroke-linecap:butt;stroke-linejoin:miter;stroke-opacity:1"
       d="m 64.41509,1707.1015 4.686877,-1.7734"
       id="path10142-3" />
    <text
       xml:space="preserve"
       transform="matrix(0.26458333,0,0,0.26458333,18.315891,990.38893)"
       id="text10942-1"
       style="font-size:14.6667px;line-height:1.25;font-family:sans-serif;white-space:pre;shape-inside:url(#rect10944-2);display:inline"><tspan
         x="73.224609"
         y="2738.9727"
         id="tspan22928">A</tspan></text>
    <text
       xml:space="preserve"
       transform="matrix(0.26458333,0,0,0.26458333,17.777099,971.01935)"
       id="text10984-9"
       style="font-size:14.6667px;line-height:1.25;font-family:sans-serif;white-space:pre;shape-inside:url(#rect10986-7);display:inline"><tspan
         x="133.39258"
         y="2757.6387"
         id="tspan22930">B</tspan></text>
    <text
       xml:space="preserve"
       transform="matrix(0.26458333,0,0,0.26458333,5.2449702,987.26111)"
       id="text11026-4"
       style="font-size:14.6667px;line-height:1.25;font-family:sans-serif;white-space:pre;shape-inside:url(#rect11028-0);display:inline"><tspan
         x="210.08594"
         y="2757.6328"
         id="tspan22932">C</tspan></text>
    <text
       xml:space="preserve"
       transform="matrix(0.26458333,0,0,0.26458333,2.4545482,1003.147)"
       id="text11068-7"
       style="font-size:14.6667px;line-height:1.25;font-family:sans-serif;white-space:pre;shape-inside:url(#rect11070-9);display:inline"><tspan
         x="279.07227"
         y="2759.8321"
         id="tspan22934">D</tspan></text>
    <text
       xml:space="preserve"
       transform="matrix(0.26458333,0,0,0.26458333,-5.9314888,981.97508)"
       id="text11110-8"
       style="font-size:14.6667px;line-height:1.25;font-family:sans-serif;white-space:pre;shape-inside:url(#rect11112-3);display:inline"><tspan
         x="385.4707"
         y="2761.4805"
         id="tspan22936">E</tspan></text>
    <text
       xml:space="preserve"
       transform="matrix(0.26458333,0,0,0.26458333,-3.2001608,1015.5688)"
       id="text16967-4"
       style="font-size:14.6667px;line-height:1.25;font-family:sans-serif;white-space:pre;shape-inside:url(#rect16969-6);display:inline"><tspan
         x="81.064453"
         y="2856.7871"
         id="tspan22938">base right circle for involute</tspan></text>
    <path
       style="fill:none;stroke:#000000;stroke-width:0.264583;stroke-linecap:butt;stroke-linejoin:miter;stroke-opacity:1;marker-end:url(#Arrow1L-75)"
       d="m 55.079472,1719.879 c 0,0 -0.856521,2.3179 -1.593987,3.2869 -0.83003,1.0906 -3.08781,2.7148 -3.08781,2.7148"
       id="path1469-5" />
    <text
       xml:space="preserve"
       transform="matrix(0.26458333,0,0,0.26458333,-76.711384,1002.3918)"
       id="text802-0"
       style="font-size:14.6667px;line-height:1.25;font-family:sans-serif;white-space:pre;shape-inside:url(#rect804-0);display:inline"><tspan
         x="475.12305"
         y="2785.043"
         id="tspan22940">line of action
</tspan><tspan
         x="475.12305"
         y="2803.3765"
         id="tspan22942">pressure line</tspan></text>
    <path
       style="fill:none;stroke:#0000ff;stroke-width:0.264583px;stroke-linecap:butt;stroke-linejoin:miter;stroke-opacity:1"
       d="m 62.815771,1735.9589 6.890456,-15.2565"
       id="path917-3" />
    <path
       style="fill:none;stroke:#000000;stroke-width:0.264583px;stroke-linecap:butt;stroke-linejoin:miter;stroke-opacity:1"
       d="m 31.271231,1724.6566 c 0,0 -0.702056,1.9148 -1.424759,2.5806 -0.923792,0.8509 -3.436754,1.5447 -3.436754,1.5447 l -1.577922,-1.6492 c 0,0 0.470672,-2.4674 1.243566,-3.39 0.765706,-0.9142 3.090452,-1.8018 3.090452,-1.8018"
       id="path3888" />
    <path
       style="fill:none;stroke:#ff0000;stroke-width:0.264583px;stroke-linecap:butt;stroke-linejoin:miter;stroke-opacity:1"
       d="m 24.563703,1727.0586 c 0,0 0.288618,-2.3624 0.967219,-3.2771 0.769478,-1.0372 3.238184,-2.1273 3.238184,-2.1273"
       id="path3890" />
    <path
       style="fill:none;stroke:#000000;stroke-width:0.264583px;stroke-linecap:butt;stroke-linejoin:miter;stroke-opacity:1"
       d="m 31.271231,1724.6566 c 0,0 -0.702056,1.9148 -1.424759,2.5806 -0.923792,0.8509 -3.436754,1.5447 -3.436754,1.5447 l -1.577922,-1.6492 c 0,0 0.470672,-2.4674 1.243566,-3.39 0.765706,-0.9142 3.090452,-1.8018 3.090452,-1.8018"
       id="path3892" />
    <path
       style="fill:none;stroke:#ff0000;stroke-width:0.264583px;stroke-linecap:butt;stroke-linejoin:miter;stroke-opacity:1"
       d="m 24.563703,1727.0586 c 0,0 0.288618,-2.3624 0.967219,-3.2771 0.769478,-1.0372 3.238184,-2.1273 3.238184,-2.1273"
       id="path3894" />
    <path
       style="fill:none;stroke:#000000;stroke-width:0.264583px;stroke-linecap:butt;stroke-linejoin:miter;stroke-opacity:1"
       d="m 27.709735,1719.3129 c 0,0 -1.268004,1.5974 -2.16327,2.0025 -1.144319,0.5176 -3.748019,0.3869 -3.748019,0.3869 l -0.979997,-2.0614 c 0,0 1.221918,-2.1946 2.2455,-2.8278 1.01412,-0.6274 3.500009,-0.7398 3.500009,-0.7398"
       id="path3888-7" />
    <path
       style="fill:none;stroke:#ff0000;stroke-width:0.264583px;stroke-linecap:butt;stroke-linejoin:miter;stroke-opacity:1"
       d="m 20.587203,1719.4863 c 0,0 1.016096,-2.1521 1.947677,-2.8073 1.056338,-0.743 3.742511,-1.0025 3.742511,-1.0025"
       id="path3890-1" />
    <path
       style="fill:none;stroke:#000000;stroke-width:0.264583px;stroke-linecap:butt;stroke-linejoin:miter;stroke-opacity:1"
       d="m 27.709735,1719.3129 c 0,0 -1.268004,1.5974 -2.16327,2.0025 -1.144319,0.5176 -3.748019,0.3869 -3.748019,0.3869 l -0.979997,-2.0614 c 0,0 1.221918,-2.1946 2.2455,-2.8278 1.01412,-0.6274 3.500009,-0.7398 3.500009,-0.7398"
       id="path3892-7" />
    <path
       style="fill:none;stroke:#ff0000;stroke-width:0.264583px;stroke-linecap:butt;stroke-linejoin:miter;stroke-opacity:1"
       d="m 20.587203,1719.4863 c 0,0 1.016096,-2.1521 1.947677,-2.8073 1.056338,-0.743 3.742511,-1.0025 3.742511,-1.0025"
       id="path3894-2" />
    <path
       style="fill:none;stroke:#000000;stroke-width:0.264583px;stroke-linecap:butt;stroke-linejoin:miter;stroke-opacity:1"
       d="m 77.132967,1701.8139 c 0,0 -2.011283,-0.3378 -2.798633,-0.9256 -1.006346,-0.7515 -2.150617,-3.0941 -2.150617,-3.0941 l 1.330821,-1.8543 c 0,0 2.511862,0.01 3.560888,0.5987 1.039466,0.5845 2.339584,2.7063 2.339584,2.7063"
       id="path3888-72" />
    <path
       style="fill:none;stroke:#ff0000;stroke-width:0.264583px;stroke-linecap:butt;stroke-linejoin:miter;stroke-opacity:1"
       d="m 73.538025,1695.6627 c 0,0 2.375162,-0.1512 3.399093,0.3479 1.161074,0.5656 2.686721,2.7916 2.686721,2.7916"
       id="path3890-2" />
    <path
       style="fill:none;stroke:#000000;stroke-width:0.264583px;stroke-linecap:butt;stroke-linejoin:miter;stroke-opacity:1"
       d="m 77.132967,1701.8139 c 0,0 -2.011283,-0.3378 -2.798633,-0.9256 -1.006346,-0.7515 -2.150617,-3.0941 -2.150617,-3.0941 l 1.330821,-1.8543 c 0,0 2.511862,0.01 3.560888,0.5987 1.039466,0.5845 2.339584,2.7063 2.339584,2.7063"
       id="path3892-6" />
    <path
       style="fill:none;stroke:#ff0000;stroke-width:0.264583px;stroke-linecap:butt;stroke-linejoin:miter;stroke-opacity:1"
       d="m 73.538025,1695.6627 c 0,0 2.375162,-0.1512 3.399093,0.3479 1.161074,0.5656 2.686721,2.7916 2.686721,2.7916"
       id="path3894-1" />
    <path
       style="fill:none;stroke:#000000;stroke-width:0.264583px;stroke-linecap:butt;stroke-linejoin:miter;stroke-opacity:1"
       d="m 81.322526,1696.694 c 0,0 -1.803407,-0.9525 -2.366264,-1.7579 -0.71928,-1.0296 -1.069811,-3.613 -1.069811,-3.613 l 1.845951,-1.3424 c 0,0 2.381953,0.7973 3.192633,1.6869 0.80321,0.8814 1.371006,3.3042 1.371006,3.3042"
       id="path3888-7-0" />
    <path
       style="fill:none;stroke:#ff0000;stroke-width:0.264583px;stroke-linecap:butt;stroke-linejoin:miter;stroke-opacity:1"
       d="m 79.841821,1689.7249 c 0,0 2.302286,0.6029 3.117677,1.398 0.924635,0.9016 1.673871,3.4942 1.673871,3.4942"
       id="path3890-1-6" />
    <path
       style="fill:none;stroke:#000000;stroke-width:0.264583px;stroke-linecap:butt;stroke-linejoin:miter;stroke-opacity:1"
       d="m 81.322526,1696.694 c 0,0 -1.803407,-0.9525 -2.366264,-1.7579 -0.71928,-1.0296 -1.069811,-3.613 -1.069811,-3.613 l 1.845951,-1.3424 c 0,0 2.381953,0.7973 3.192633,1.6869 0.80321,0.8814 1.371006,3.3042 1.371006,3.3042"
       id="path3892-7-1" />
    <path
       style="fill:none;stroke:#ff0000;stroke-width:0.264583px;stroke-linecap:butt;stroke-linejoin:miter;stroke-opacity:1"
       d="m 79.841821,1689.7249 c 0,0 2.302286,0.6029 3.117677,1.398 0.924635,0.9016 1.673871,3.4942 1.673871,3.4942"
       id="path3894-2-5" />
    <path
       style="fill:none;stroke:#000000;stroke-width:0.264583px;stroke-linecap:butt;stroke-linejoin:miter;stroke-opacity:1"
       d="m 39.239939,1698.399 c 0,0 -0.899544,-1.8303 -0.881724,-2.8128 0.0229,-1.2557 1.257158,-3.552 1.257158,-3.552 h 2.282482 c 0,0 1.458935,2.0448 1.592118,3.241 0.132089,1.1851 -0.832041,3.4792 -0.832041,3.4792"
       id="path3888-9" />
    <path
       style="fill:none;stroke:#ff0000;stroke-width:0.264583px;stroke-linecap:butt;stroke-linejoin:miter;stroke-opacity:1"
       d="m 42.136632,1691.8898 c 0,0 1.508773,1.8407 1.701384,2.9632 0.218403,1.2729 -0.698742,3.8109 -0.698742,3.8109"
       id="path3890-4" />
    <path
       style="fill:none;stroke:#000000;stroke-width:0.264583px;stroke-linecap:butt;stroke-linejoin:miter;stroke-opacity:1"
       d="m 39.239939,1698.399 c 0,0 -0.899544,-1.8303 -0.881724,-2.8128 0.0229,-1.2557 1.257158,-3.552 1.257158,-3.552 h 2.282482 c 0,0 1.458935,2.0448 1.592118,3.241 0.132089,1.1851 -0.832041,3.4792 -0.832041,3.4792"
       id="path3892-9" />
    <path
       style="fill:none;stroke:#ff0000;stroke-width:0.264583px;stroke-linecap:butt;stroke-linejoin:miter;stroke-opacity:1"
       d="m 42.136632,1691.8898 c 0,0 1.508773,1.8407 1.701384,2.9632 0.218403,1.2729 -0.698742,3.8109 -0.698742,3.8109"
       id="path3894-0" />
    <path
       style="fill:none;stroke:#000000;stroke-width:0.264583px;stroke-linecap:butt;stroke-linejoin:miter;stroke-opacity:1"
       d="m 37.170678,1727.8766 c 0,0 0.238773,2.0254 -0.10518,2.9459 -0.439754,1.1764 -2.368215,2.9306 -2.368215,2.9306 l -2.152783,-0.7585 c 0,0 -0.694772,-2.4137 -0.4221,-3.5861 0.270093,-1.1615 1.943092,-3.0036 1.943092,-3.0036"
       id="path3888-7-9" />
    <path
       style="fill:none;stroke:#ff0000;stroke-width:0.264583px;stroke-linecap:butt;stroke-linejoin:miter;stroke-opacity:1"
       d="m 32.271806,1733.0498 c 0,0 -0.809725,-2.2381 -0.617533,-3.3607 0.217878,-1.2729 1.927795,-3.3608 1.927795,-3.3608"
       id="path3890-1-1" />
    <path
       style="fill:none;stroke:#000000;stroke-width:0.264583px;stroke-linecap:butt;stroke-linejoin:miter;stroke-opacity:1"
       d="m 37.170678,1727.8766 c 0,0 0.238773,2.0254 -0.10518,2.9459 -0.439754,1.1764 -2.368215,2.9306 -2.368215,2.9306 l -2.152783,-0.7585 c 0,0 -0.694772,-2.4137 -0.4221,-3.5861 0.270093,-1.1615 1.943092,-3.0036 1.943092,-3.0036"
       id="path3892-7-7" />
    <path
       style="fill:none;stroke:#ff0000;stroke-width:0.264583px;stroke-linecap:butt;stroke-linejoin:miter;stroke-opacity:1"
       d="m 32.271806,1733.0498 c 0,0 -0.809725,-2.2381 -0.617533,-3.3607 0.217878,-1.2729 1.927795,-3.3608 1.927795,-3.3608"
       id="path3894-2-7" />
    <path
       style="fill:none;stroke:#000000;stroke-width:0.264583px;stroke-linecap:butt;stroke-linejoin:miter;stroke-opacity:1"
       d="m 87.176325,1692.8358 c 0,0 -1.442063,-1.4422 -1.742213,-2.3778 -0.383455,-1.196 0.0439,-3.7678 0.0439,-3.7678 l 2.15986,-0.7379 c 0,0 2.040644,1.4646 2.552739,2.5538 0.507377,1.0791 0.335006,3.5616 0.335006,3.5616"
       id="path3888-7-0-1" />
    <path
       style="fill:none;stroke:#ff0000;stroke-width:0.264583px;stroke-linecap:butt;stroke-linejoin:miter;stroke-opacity:1"
       d="m 87.817894,1685.7401 c 0,0 2.021885,1.2554 2.566365,2.2557 0.617435,1.1343 0.568323,3.8325 0.568323,3.8325"
       id="path3890-1-6-1" />
    <path
       style="fill:none;stroke:#000000;stroke-width:0.264583px;stroke-linecap:butt;stroke-linejoin:miter;stroke-opacity:1"
       d="m 87.176325,1692.8358 c 0,0 -1.442063,-1.4422 -1.742213,-2.3778 -0.383455,-1.196 0.0439,-3.7678 0.0439,-3.7678 l 2.15986,-0.7379 c 0,0 2.040644,1.4646 2.552739,2.5538 0.507377,1.0791 0.335006,3.5616 0.335006,3.5616"
       id="path3892-7-1-5" />
    <path
       style="fill:none;stroke:#ff0000;stroke-width:0.264583px;stroke-linecap:butt;stroke-linejoin:miter;stroke-opacity:1"
       d="m 87.817894,1685.7401 c 0,0 2.021885,1.2554 2.566365,2.2557 0.617435,1.1343 0.568323,3.8325 0.568323,3.8325"
       id="path3894-2-5-9" />
    <text
       xml:space="preserve"
       transform="matrix(0.26458333,0,0,0.26458333,-21.063473,1.4163984)"
       id="text4409"
       style="font-style:normal;font-variant:normal;font-weight:normal;font-stretch:normal;font-size:14.6667px;line-height:1.25;font-family:sans-serif;-inkscape-font-specification:sans-serif;white-space:pre;shape-inside:url(#rect4411);display:inline;fill:#666666"><tspan
         x="199.19922"
         y="6392.0547"
         id="tspan22944">left</tspan></text>
    <text
       xml:space="preserve"
       transform="matrix(0.26458333,0,0,0.26458333,-14.659877,22.072463)"
       id="text4415"
       style="font-size:14.6667px;line-height:1.25;font-family:sans-serif;white-space:pre;shape-inside:url(#rect4417);display:inline;fill:#666666"><tspan
         x="221.88281"
         y="6314.6328"
         id="tspan22946">right</tspan></text>
    <path
       style="fill:none;stroke:#d4aa00;stroke-width:0.264582px;stroke-linecap:butt;stroke-linejoin:miter;stroke-opacity:1;marker-end:url(#Arrow1L-77)"
       d="m 64.108743,1719.3051 c 0,0 1.153569,0.2837 1.682415,0.1525 0.447984,-0.1115 1.050855,-0.7435 1.050855,-0.7435"
       id="path10111-1-7" />
    <path
       style="fill:none;stroke:#000000;stroke-width:0.264583;stroke-linecap:butt;stroke-linejoin:miter;stroke-opacity:1;marker-start:url(#Arrow1L)"
       d="m 116.88371,1722.7898 c 0,0 -0.85652,2.3179 -1.59399,3.2869 -0.83003,1.0906 -3.08781,2.7148 -3.08781,2.7148"
       id="path1469-5-1" />
    <text
       xml:space="preserve"
       transform="matrix(0.26458333,0,0,0.26458333,-65.444985,-28.916622)"
       id="text15423"
       style="font-size:14.6667px;line-height:1.25;font-family:sans-serif;white-space:pre;shape-inside:url(#rect15425);display:inline"><tspan
         x="427.13672"
         y="6620.459"
         id="tspan22948">cw</tspan></text>
    <text
       xml:space="preserve"
       transform="matrix(0.26458333,0,0,0.26458333,-9.7660404,-44.50683)"
       id="text15429"
       style="font-size:14.6667px;line-height:1.25;font-family:sans-serif;white-space:pre;shape-inside:url(#rect15431);display:inline"><tspan
         x="443.35547"
         y="6691.2207"
         id="tspan22950">ccw</tspan></text>
  </g>
</svg>
