<?xml version="1.0" encoding="UTF-8" standalone="no"?>
<!-- Created with Inkscape (http://www.inkscape.org/) -->

<svg
   width="275.93549"
   height="258.38806"
   viewBox="0 0 73.007931 68.365173"
   version="1.1"
   id="svg5"
   inkscape:version="1.2.2 (1:1.2.2+202305151914+b0a8486541)"
   sodipodi:docname="involute_of_circle.svg"
   xmlns:inkscape="http://www.inkscape.org/namespaces/inkscape"
   xmlns:sodipodi="http://sodipodi.sourceforge.net/DTD/sodipodi-0.dtd"
   xmlns="http://www.w3.org/2000/svg"
   xmlns:svg="http://www.w3.org/2000/svg">
  <sodipodi:namedview
     id="namedview7"
     pagecolor="#ffffff"
     bordercolor="#666666"
     borderopacity="1.0"
     inkscape:showpageshadow="2"
     inkscape:pageopacity="0.0"
     inkscape:pagecheckerboard="0"
     inkscape:deskcolor="#d1d1d1"
     inkscape:document-units="px"
     showgrid="false"
     inkscape:zoom="1.6819304"
     inkscape:cx="245.2539"
     inkscape:cy="1547.9237"
     inkscape:window-width="1366"
     inkscape:window-height="836"
     inkscape:window-x="0"
     inkscape:window-y="0"
     inkscape:window-maximized="1"
     inkscape:current-layer="layer1" />
  <defs
     id="defs2">
    <rect
       x="36.400284"
       y="1385.045"
       width="164.14203"
       height="25.889936"
       id="rect1057" />
    <marker
       style="overflow:visible"
       id="Arrow1L-5-3"
       refX="0"
       refY="0"
       orient="auto-start-reverse"
       inkscape:stockid="Arrow1L"
       markerWidth="8.75"
       markerHeight="5"
       viewBox="0 0 8.75 5"
       inkscape:isstock="true"
       inkscape:collect="always"
       preserveAspectRatio="xMidYMid">
      <path
         style="fill:context-stroke;fill-rule:evenodd;stroke:none"
         d="M 0,0 5,-5 -12.5,0 5,5 Z"
         id="arrow1L-3-6"
         transform="scale(-0.5)" />
    </marker>
    <rect
       x="297.44699"
       y="262.57495"
       width="73.803772"
       height="34.937069"
       id="rect1409-7-7" />
    <marker
       style="overflow:visible"
       id="Arrow1L-53"
       refX="0"
       refY="0"
       orient="auto-start-reverse"
       inkscape:stockid="Arrow1L"
       markerWidth="8.75"
       markerHeight="5"
       viewBox="0 0 8.75 5"
       inkscape:isstock="true"
       inkscape:collect="always"
       preserveAspectRatio="xMidYMid">
      <path
         style="fill:context-stroke;fill-rule:evenodd;stroke:none"
         d="M 0,0 5,-5 -12.5,0 5,5 Z"
         id="arrow1L-5"
         transform="scale(-0.5)" />
    </marker>
    <rect
       x="297.44699"
       y="262.57495"
       width="73.803772"
       height="34.937069"
       id="rect1409-6" />
    <rect
       x="134.53432"
       y="178.27589"
       width="23.407116"
       height="18.097927"
       id="rect1503-2" />
    <rect
       x="154.52042"
       y="258.84622"
       width="53.161572"
       height="18.636742"
       id="rect1517-9" />
    <rect
       x="165.53709"
       y="227.93633"
       width="17.956255"
       height="23.248026"
       id="rect1529-1" />
    <rect
       x="277.39005"
       y="227.39055"
       width="29.252798"
       height="20.904644"
       id="rect1541-2" />
    <rect
       x="144.96107"
       y="171.43387"
       width="20.18119"
       height="17.023781"
       id="rect1553-7" />
    <marker
       style="overflow:visible"
       id="marker1617-0"
       refX="0"
       refY="0"
       orient="auto-start-reverse"
       inkscape:stockid="Arrow1L"
       markerWidth="8.75"
       markerHeight="5"
       viewBox="0 0 8.75 5"
       inkscape:isstock="true"
       inkscape:collect="always"
       preserveAspectRatio="xMidYMid">
      <path
         style="fill:context-stroke;fill-rule:evenodd;stroke:none"
         d="M 0,0 5,-5 -12.5,0 5,5 Z"
         id="path1615-9"
         transform="scale(-0.5)" />
    </marker>
    <rect
       x="190.74297"
       y="238.79276"
       width="32.673229"
       height="18.216373"
       id="rect1700-3" />
    <marker
       style="overflow:visible"
       id="marker1720-6"
       refX="0"
       refY="0"
       orient="auto-start-reverse"
       inkscape:stockid="Arrow1L"
       markerWidth="8.75"
       markerHeight="5"
       viewBox="0 0 8.75 5"
       inkscape:isstock="true"
       inkscape:collect="always"
       preserveAspectRatio="xMidYMid">
      <path
         style="fill:context-stroke;fill-rule:evenodd;stroke:none"
         d="M 0,0 5,-5 -12.5,0 5,5 Z"
         id="path1718-0"
         transform="scale(-0.5)" />
    </marker>
    <rect
       x="209.51152"
       y="237.97119"
       width="32.898514"
       height="19.469933"
       id="rect1880-6" />
    <rect
       x="62.586197"
       y="328.48462"
       width="255.34044"
       height="34.586372"
       id="rect2254-6" />
    <rect
       x="233.9202"
       y="487.77658"
       width="62.576904"
       height="47.573685"
       id="rect3610-1" />
    <rect
       x="126.98392"
       y="258.93564"
       width="42.994915"
       height="24.019091"
       id="rect1565-8" />
  </defs>
  <g
     inkscape:label="Layer 1"
     inkscape:groupmode="layer"
     id="layer1"
     transform="translate(-8.1853418,-364.69089)">
    <rect
       style="fill:#ffffff;stroke:#ffffff;stroke-width:0.264583"
       id="rect2328-79"
       width="72.743347"
       height="68.100571"
       x="8.3176336"
       y="364.82318"
       inkscape:export-filename="involute_of_circle_R0.svg"
       inkscape:export-xdpi="96"
       inkscape:export-ydpi="96" />
    <path
       style="fill:none;stroke:#000000;stroke-width:0.264583px;stroke-linecap:butt;stroke-linejoin:miter;stroke-opacity:1;marker-end:url(#Arrow1L-5-3)"
       d="m 75.548083,406.00341 c 0,0 0.2713,1.3291 0.0503,1.91703 -0.22019,0.5857 -1.2491,1.27957 -1.2491,1.27957"
       id="path464-5-2"
       sodipodi:nodetypes="cac" />
    <text
       xml:space="preserve"
       transform="matrix(0.26458333,0,0,0.26458333,-3.0120401,336.82413)"
       id="text1407-6-0"
       style="font-size:14.6667px;line-height:1.25;font-family:sans-serif;white-space:pre;shape-inside:url(#rect1409-7-7);display:inline"><tspan
         x="297.44727"
         y="275.55081"
         id="tspan2892">u</tspan></text>
    <path
       style="fill:none;stroke:#008000;stroke-width:0.264583px;stroke-linecap:butt;stroke-linejoin:miter;stroke-opacity:1"
       d="m 34.670653,395.64218 36.66093,10.56649"
       id="path1611-2" />
    <circle
       style="fill:none;stroke:#808080;stroke-width:0.264583"
       id="path244-3"
       cx="34.625793"
       cy="395.82312"
       r="24.768845" />
    <path
       style="fill:none;stroke:#008080;stroke-width:0.264583px;stroke-linecap:butt;stroke-linejoin:miter;stroke-opacity:1"
       d="m 34.625795,395.82314 h 24.76884"
       id="path460-7" />
    <path
       style="fill:none;stroke:#008080;stroke-width:0.264583px;stroke-linecap:butt;stroke-linejoin:miter;stroke-opacity:1"
       d="m 34.670653,395.64218 10.21626,22.56377"
       id="path462-5" />
    <path
       style="fill:none;stroke:#000000;stroke-width:0.264583px;stroke-linecap:butt;stroke-linejoin:miter;stroke-opacity:1;marker-end:url(#Arrow1L-53)"
       d="m 39.067873,395.69533 c 0,0 0.2713,1.3291 0.0503,1.91702 -0.22019,0.58571 -1.2491,1.27957 -1.2491,1.27957"
       id="path464-9"
       sodipodi:nodetypes="cac" />
    <text
       xml:space="preserve"
       transform="matrix(0.26458333,0,0,0.26458333,-39.691958,327.00338)"
       id="text1407-2"
       style="font-size:14.6667px;line-height:1.25;font-family:sans-serif;white-space:pre;shape-inside:url(#rect1409-6);display:inline"><tspan
         x="297.44727"
         y="275.55081"
         id="tspan2894">u</tspan></text>
    <path
       style="fill:none;stroke:#ff0000;stroke-width:0.264582px;stroke-linecap:butt;stroke-linejoin:miter;stroke-opacity:1"
       d="m 44.882343,418.1991 26.44924,-11.99043"
       id="path462-3-2" />
    <text
       xml:space="preserve"
       transform="matrix(0.26458333,0,0,0.26458333,1.5748624,358.96206)"
       id="text1501-8"
       style="font-size:14.6667px;line-height:1.25;font-family:sans-serif;white-space:pre;shape-inside:url(#rect1503-2);display:inline"><tspan
         x="134.53516"
         y="191.25198"
         id="tspan2896">R</tspan></text>
    <path
       style="fill:none;stroke:#ff0000;stroke-width:0.264583px;stroke-linecap:butt;stroke-linejoin:miter;stroke-opacity:1"
       d="m 45.003293,417.96905 c 0,0 2.77843,-1.37169 4.05501,-2.24074 1.33587,-0.9094 2.62473,-1.91607 3.73733,-3.08812 1.20845,-1.27303 2.22084,-2.73202 3.1385,-4.2283 0.83275,-1.35781 1.57749,-2.78373 2.1289,-4.27807 0.51065,-1.38388 0.84198,-2.83618 1.07444,-4.29283 0.21991,-1.37802 0.29802,-4.17576 0.29802,-4.17576"
       id="path1513-9"
       sodipodi:nodetypes="caaaaac" />
    <text
       xml:space="preserve"
       transform="matrix(0.26458333,0,0,0.26458333,15.492732,343.86897)"
       id="text1515-7"
       style="font-size:14.6667px;line-height:1.25;font-family:sans-serif;white-space:pre;shape-inside:url(#rect1517-9);display:inline"><tspan
         x="154.51953"
         y="271.8223"
         id="tspan2898">u*R</tspan></text>
    <text
       xml:space="preserve"
       transform="matrix(0.26458333,0,0,0.26458333,-12.232719,335.50853)"
       id="text1527-36"
       style="font-size:14.6667px;line-height:1.25;font-family:sans-serif;white-space:pre;shape-inside:url(#rect1529-1);display:inline"><tspan
         x="165.53711"
         y="240.91214"
         id="tspan2900">O</tspan></text>
    <text
       xml:space="preserve"
       transform="matrix(0.26458333,0,0,0.26458333,-13.71579,331.02153)"
       id="text1539-12"
       style="font-size:14.6667px;line-height:1.25;font-family:sans-serif;white-space:pre;shape-inside:url(#rect1541-2);display:inline"><tspan
         x="277.39062"
         y="240.36722"
         id="tspan2902">A</tspan></text>
    <text
       xml:space="preserve"
       transform="matrix(0.26458333,0,0,0.26458333,5.6704302,372.92787)"
       id="text1551-9"
       style="font-size:14.6667px;line-height:1.25;font-family:sans-serif;white-space:pre;shape-inside:url(#rect1553-7);display:inline"><tspan
         x="144.96094"
         y="184.41019"
         id="tspan2904">B</tspan></text>
    <path
       style="fill:none;stroke:#000000;stroke-width:0.264583px;stroke-linecap:butt;stroke-linejoin:miter;stroke-opacity:1;marker-end:url(#marker1617-0)"
       d="m 44.950443,398.66394 c 0,0 -0.51904,2.58324 -1.17798,3.69569 -0.3178,0.53654 -0.77183,1.00803 -1.29012,1.3548 -0.5993,0.40096 -2.01721,0.78117 -2.01721,0.78117"
       id="path1613-3"
       sodipodi:nodetypes="caac" />
    <text
       xml:space="preserve"
       transform="matrix(0.26458333,0,0,0.26458333,-6.6082966,338.18094)"
       id="text1698-1"
       style="font-size:14.6667px;line-height:1.25;font-family:sans-serif;white-space:pre;shape-inside:url(#rect1700-3);display:inline"><tspan
         x="190.74219"
         y="251.76956"
         id="tspan2906">v</tspan></text>
    <path
       style="fill:none;stroke:#000000;stroke-width:0.264583px;stroke-linecap:butt;stroke-linejoin:miter;stroke-opacity:1;marker-end:url(#marker1720-6)"
       d="m 48.180353,395.73805 c 0,0 0.49463,0.87052 0.4879,1.34849 -0.006,0.44126 -0.48529,1.23175 -0.48529,1.23175"
       id="path1716-9"
       sodipodi:nodetypes="cac" />
    <text
       xml:space="preserve"
       transform="matrix(0.26458333,0,0,0.26458333,-6.1050295,332.5851)"
       id="text1878-4"
       style="font-size:14.6667px;line-height:1.25;font-family:sans-serif;white-space:pre;shape-inside:url(#rect1880-6);display:inline"><tspan
         x="209.51172"
         y="250.9473"
         id="tspan2908">w</tspan></text>
    <path
       style="fill:none;stroke:#ff00ff;stroke-width:0.529167;stroke-linecap:butt;stroke-linejoin:miter;stroke-opacity:1;marker-end:url(#marker1720-6)"
       d="m 59.620153,395.66554 c 0,0 1.78393,0.0463 2.5913,0.37821 2.4696,1.01518 4.70509,2.72974 6.44845,4.75216 1.30276,1.51129 2.1973,3.3881 2.80208,5.28952 0.90479,2.84469 1.03282,5.8984 1.1497,8.88122 0.10538,2.68913 -0.40679,8.06333 -0.40679,8.06333"
       id="path1902-7"
       sodipodi:nodetypes="caaaac" />
    <text
       xml:space="preserve"
       transform="matrix(0.26458333,0,0,0.26458333,-7.4128458,341.39023)"
       id="text2252-4"
       style="font-size:14.6667px;line-height:1.25;font-family:sans-serif;white-space:pre;shape-inside:url(#rect2254-6);display:inline"><tspan
         x="62.585938"
         y="341.46097"
         id="tspan2910">negative involute of circle (R, 0)</tspan></text>
    <text
       xml:space="preserve"
       transform="matrix(0.26458333,0,0,0.26458333,-10.692213,271.44369)"
       id="text3608-5"
       style="font-size:14.6667px;line-height:1.25;font-family:sans-serif;white-space:pre;shape-inside:url(#rect3610-1);display:inline"><tspan
         x="233.91992"
         y="500.75394"
         id="tspan2912">L</tspan></text>
    <path
       style="fill:none;stroke:#008080;stroke-width:0.264583px;stroke-linecap:butt;stroke-linejoin:miter;stroke-opacity:1;marker-end:url(#marker1720-6)"
       d="m 71.362503,406.07547 4.47393,9.98793"
       id="path462-6-0" />
    <text
       xml:space="preserve"
       transform="matrix(0.26458333,0,0,0.26458333,37.907159,333.69112)"
       id="text1563-3"
       style="font-size:14.6667px;line-height:1.25;font-family:sans-serif;white-space:pre;shape-inside:url(#rect1565-8);display:inline"><tspan
         x="126.98438"
         y="271.91214"
         id="tspan2914">C</tspan></text>
    <path
       style="fill:none;stroke:#999999;stroke-width:0.264583px;stroke-linecap:butt;stroke-linejoin:miter;stroke-opacity:1"
       d="m 71.551683,406.02153 h 7.13084"
       id="path4009-6" />
    <path
       style="fill:none;stroke:#000000;stroke-width:0.264583px;stroke-linecap:butt;stroke-linejoin:miter;stroke-opacity:1"
       d="m 44.437653,416.97265 1.17152,-0.51156 0.46271,1.27937"
       id="path1446-1" />
    <path
       style="fill:none;stroke:#000000;stroke-width:0.264583px;stroke-linecap:butt;stroke-linejoin:miter;stroke-opacity:1"
       d="m 71.953493,407.50859 -1.17152,0.51157 -0.46271,-1.27937"
       id="path1446-2-0" />
    <text
       xml:space="preserve"
       transform="matrix(0.26458333,0,0,0.26458333,-0.71650652,-1.0328296)"
       id="text1055"
       style="font-size:14.6667px;line-height:1.25;font-family:sans-serif;white-space:pre;shape-inside:url(#rect1057);display:inline"><tspan
         x="36.400391"
         y="1398.0215"
         id="tspan2916">tooth left side</tspan></text>
  </g>
</svg>
