<?xml version="1.0" encoding="UTF-8" standalone="no"?>
<!-- Created with Inkscape (http://www.inkscape.org/) -->

<svg
   width="324.93716"
   height="331.86301"
   viewBox="0 0 85.972958 87.805419"
   version="1.1"
   id="svg5"
   xmlns="http://www.w3.org/2000/svg"
   xmlns:svg="http://www.w3.org/2000/svg">
  <defs
     id="defs2">
    <rect
       x="86.404892"
       y="8251.748"
       width="70.081017"
       height="57.682091"
       id="rect2113-3-7-3-3-3" />
    <rect
       x="343.1825"
       y="8353.1172"
       width="64.674751"
       height="45.493374"
       id="rect2125-7-2-0-7-6" />
    <rect
       x="307.06467"
       y="8197.7441"
       width="48.524952"
       height="24.998806"
       id="rect2247-5-0-6-5-7" />
    <rect
       x="79.050255"
       y="8300.6836"
       width="332.53165"
       height="51.692291"
       id="rect1972-3-2-2-3-5" />
    <rect
       x="251.71738"
       y="8436.2734"
       width="62.168148"
       height="32.449692"
       id="rect9067-3-61-5-3" />
    <rect
       x="420.70566"
       y="8448.9414"
       width="77.717155"
       height="48.312233"
       id="rect9073-7-8-6-5" />
    <rect
       x="450.46594"
       y="10459.747"
       width="41.233315"
       height="38.021324"
       id="rect49640-2-2-6" />
    <rect
       x="423.24832"
       y="10177.365"
       width="36.09647"
       height="24.909346"
       id="rect3942-8-1-9" />
    <rect
       x="204.84335"
       y="8338.3955"
       width="83.852852"
       height="42.639156"
       id="rect2119-6-9-6-6-7" />
    <rect
       x="378.93497"
       y="12647.6"
       width="36.045208"
       height="26.793716"
       id="rect17379-9" />
    <rect
       x="409.10214"
       y="12687.542"
       width="48.255112"
       height="47.364716"
       id="rect17385-3" />
  </defs>
  <g
     id="layer1"
     transform="translate(-33.47184,-3559.9058)">
    <rect
       style="fill:#ffffff;stroke:#ffffff;stroke-width:0.264584"
       id="rect2407-5-5-06-0-6"
       width="85.708382"
       height="87.540802"
       x="33.60413"
       y="3560.0381" />
    <path
       style="fill:none;stroke:#ffaaaa;stroke-width:0.264583"
       id="path12247-3-0"
       d="m -3145.165,1735.7206 a 23.120169,23.120169 0 0 1 13.2971,18.0741 23.120169,23.120169 0 0 1 -8.3028,20.846"
       transform="rotate(-62.163156)" />
    <path
       style="fill:none;stroke:#ffaaaa;stroke-width:0.264583px;stroke-linecap:butt;stroke-linejoin:miter;stroke-opacity:1"
       d="M 64.811739,3619.2498 83.936013,3566.957"
       id="path2057-6-9-0-1-6-6" />
    <path
       style="fill:none;stroke:#000000;stroke-width:0.264583px;stroke-linecap:butt;stroke-linejoin:miter;stroke-opacity:1"
       d="m 54.813669,3615.3454 13.424609,-36.7838"
       id="path2057-6-9-0-0-2" />
    <text
       xml:space="preserve"
       transform="matrix(0.26458333,0,0,0.26458333,27.199201,1430.1311)"
       id="text2111-2-2-6-6-6"
       style="font-size:14.6667px;line-height:1.25;font-family:sans-serif;white-space:pre;shape-inside:url(#rect2113-3-7-3-3-3);display:inline"><tspan
         x="86.404297"
         y="8264.7246"
         id="tspan8424">p1</tspan></text>
    <text
       xml:space="preserve"
       transform="matrix(0.26458333,0,0,0.26458333,18.639114,1390.951)"
       id="text2123-1-8-9-6-1"
       style="font-size:14.6667px;line-height:1.25;font-family:sans-serif;white-space:pre;shape-inside:url(#rect2125-7-2-0-7-6);display:inline"><tspan
         x="343.18164"
         y="8366.0938"
         id="tspan8426">p3</tspan></text>
    <circle
       style="fill:none;stroke:#d45500;stroke-width:0.264583"
       id="path2235-2-9-2-1-8"
       cx="76.394699"
       cy="3587.2415"
       r="10.633756" />
    <path
       style="fill:none;stroke:#b3b3b3;stroke-width:0.264583px;stroke-linecap:butt;stroke-linejoin:miter;stroke-opacity:1"
       d="m 61.093292,3581.5997 23.599579,8.5793"
       id="path2239-0-7-6-8-7" />
    <text
       xml:space="preserve"
       transform="matrix(0.26458333,0,0,0.26458333,-8.0774678,1410.3164)"
       id="text2245-6-6-4-9-9"
       style="font-size:14.6667px;line-height:1.25;font-family:sans-serif;white-space:pre;shape-inside:url(#rect2247-5-0-6-5-7);display:inline;fill:#008000"><tspan
         x="307.06445"
         y="8210.7207"
         id="tspan8428">r</tspan></text>
    <path
       style="fill:none;stroke:#666666;stroke-width:0.264583px;stroke-linecap:butt;stroke-linejoin:miter;stroke-opacity:1"
       d="m 65.689302,3585.7069 2.05055,0.7503 0.734309,-2.2371"
       id="path2251-0-1-9-2-2" />
    <text
       xml:space="preserve"
       transform="matrix(0.26458333,0,0,0.26458333,15.112911,1440.4803)"
       id="text1970-1-2-5-0-0"
       style="font-size:14.6667px;line-height:1.25;font-family:sans-serif;white-space:pre;shape-inside:url(#rect1972-3-2-2-3-5);display:inline"><tspan
         x="79.050781"
         y="8313.6602"
         id="tspan8430">construct cornerRounded(radius)
</tspan><tspan
         x="79.050781"
         y="8331.9932"
         id="tspan8432">case stroke-int-arc, obtuse, method-2</tspan></text>
    <path
       style="fill:none;stroke:#e6e6e6;stroke-width:0.264583"
       id="path8778-9-0-2-2"
       d="m -270.56763,-3569.0309 a 33.899853,33.899853 0 0 1 -27.12382,0.4305 33.899853,33.899853 0 0 1 -18.7552,-19.5993 l 31.82409,-11.6802 z"
       transform="rotate(-176.75785)" />
    <path
       style="fill:none;stroke:#000000;stroke-width:0.264583"
       id="path8778-8-1-8-7-3"
       d="m -270.59888,-3568.9591 a 33.899853,33.899853 0 0 1 -27.12382,0.4304 33.899853,33.899853 0 0 1 -18.7552,-19.5992"
       transform="rotate(-176.75785)" />
    <path
       style="fill:none;stroke:#0000ff;stroke-width:0.264583px;stroke-linecap:butt;stroke-linejoin:miter;stroke-opacity:1"
       d="m 74.625194,3576.7489 5.923072,33.5896"
       id="path9063-9-7-5-7" />
    <text
       xml:space="preserve"
       transform="matrix(0.26458333,0,0,0.26458333,12.846569,1365.381)"
       id="text9065-4-1-9-5"
       style="font-size:14.6667px;line-height:1.25;font-family:sans-serif;white-space:pre;shape-inside:url(#rect9067-3-61-5-3);display:inline;fill:#0000ff"><tspan
         x="251.7168"
         y="8449.25"
         id="tspan8434">r2</tspan></text>
    <text
       xml:space="preserve"
       transform="matrix(0.26458333,0,0,0.26458333,-35.32511,1375.5182)"
       id="text9071-7-72-2-9"
       style="font-size:14.6667px;line-height:1.25;font-family:sans-serif;white-space:pre;shape-inside:url(#rect9073-7-8-6-5);display:inline"><tspan
         x="420.70508"
         y="8461.918"
         id="tspan8436">p5</tspan></text>
    <text
       xml:space="preserve"
       transform="matrix(0.26458333,0,0,0.26458333,-34.22997,891.57818)"
       id="text3940-7-3-9"
       style="font-size:14.6667px;line-height:1.25;font-family:sans-serif;white-space:pre;shape-inside:url(#rect3942-8-1-9);display:inline"><tspan
         x="423.24805"
         y="10190.342"
         id="tspan8438">p7</tspan></text>
    <text
       xml:space="preserve"
       transform="matrix(0.26458333,0,0,0.26458333,11.302728,1366.7177)"
       id="text2117-9-2-8-2-1"
       style="font-size:14.6667px;line-height:1.25;font-family:sans-serif;white-space:pre;shape-inside:url(#rect2119-6-9-6-6-7);display:inline"><tspan
         x="204.84375"
         y="8351.3711"
         id="tspan8440">p2</tspan></text>
    <path
       style="fill:none;stroke:#008000;stroke-width:0.264583px;stroke-linecap:butt;stroke-linejoin:miter;stroke-opacity:1"
       d="m 74.640326,3576.8776 1.804211,10.5247"
       id="path2243-3-3-6-7-2" />
    <text
       xml:space="preserve"
       transform="matrix(0.26458333,0,0,0.26458333,-26.639002,225.59105)"
       id="text17377-1"
       style="font-size:14.6667px;line-height:1.25;font-family:sans-serif;white-space:pre;shape-inside:url(#rect17379-9);display:inline;fill:#999999"><tspan
         x="378.93555"
         y="12660.576"
         id="tspan8442">p9</tspan></text>
    <text
       xml:space="preserve"
       transform="matrix(0.26458333,0,0,0.26458333,-47.81456,225.57129)"
       id="text17383-9"
       style="font-size:14.6667px;line-height:1.25;font-family:sans-serif;white-space:pre;shape-inside:url(#rect17385-3);display:inline;fill:#999999"><tspan
         x="409.10156"
         y="12700.52"
         id="tspan8444">p8</tspan></text>
    <path
       style="fill:none;stroke:#b3b3b3;stroke-width:0.264583px;stroke-linecap:butt;stroke-linejoin:miter;stroke-opacity:1"
       d="m 64.211339,3604.3959 23.599579,8.5793"
       id="path2239-0-7-6-8-7-7" />
    <path
       style="fill:none;stroke:#666666;stroke-width:0.264583px;stroke-linecap:butt;stroke-linejoin:miter;stroke-opacity:1"
       d="m 68.807349,3608.5031 2.05055,0.7503 0.734309,-2.2371"
       id="path2251-0-1-9-2-2-8" />
    <text
       xml:space="preserve"
       transform="matrix(0.26458333,0,0,0.26458333,-58.039159,836.909)"
       id="text49638-7-8-2"
       style="font-size:12px;line-height:1.25;font-family:sans-serif;white-space:pre;shape-inside:url(#rect49640-2-2-6);display:inline;fill:#ff00ff"><tspan
         x="450.4668"
         y="10470.363"
         id="tspan8446">1:pB</tspan></text>
  </g>
</svg>
