<?xml version="1.0" encoding="UTF-8" standalone="no"?>
<!-- Created with Inkscape (http://www.inkscape.org/) -->

<svg
   width="288.03998"
   height="273.62173"
   viewBox="0 0 76.210578 72.39575"
   version="1.1"
   id="svg5"
   xmlns="http://www.w3.org/2000/svg"
   xmlns:svg="http://www.w3.org/2000/svg">
  <defs
     id="defs2">
    <rect
       x="86.404892"
       y="8251.748"
       width="70.081017"
       height="57.682091"
       id="rect2113-3-6-36" />
    <rect
       x="204.84335"
       y="8338.3955"
       width="83.852852"
       height="42.639156"
       id="rect2119-6-2-7" />
    <rect
       x="343.1825"
       y="8353.1172"
       width="64.674751"
       height="45.493374"
       id="rect2125-7-9-5" />
    <rect
       x="79.050255"
       y="8300.6836"
       width="282.30676"
       height="47.641037"
       id="rect1972-3-27-3" />
    <rect
       x="251.71738"
       y="8436.2734"
       width="62.168148"
       height="32.449692"
       id="rect9067-0-5" />
    <rect
       x="420.70566"
       y="8448.9414"
       width="77.717155"
       height="48.312233"
       id="rect9073-9-6" />
    <rect
       x="307.06467"
       y="8197.7441"
       width="48.524952"
       height="24.998806"
       id="rect2247-3-7-2" />
    <rect
       x="423.24832"
       y="10177.365"
       width="36.09647"
       height="24.909346"
       id="rect3942-6-09" />
    <rect
       x="209.60191"
       y="10739.295"
       width="58.998737"
       height="31.362017"
       id="rect3629-6" />
    <rect
       x="64.3368"
       y="10503.036"
       width="33.572208"
       height="27.715706"
       id="rect3655-0" />
    <rect
       x="209.60191"
       y="10739.295"
       width="58.998737"
       height="31.362017"
       id="rect3629-6-2" />
    <rect
       x="209.60191"
       y="10739.295"
       width="58.998737"
       height="31.362017"
       id="rect3629-6-6" />
    <rect
       x="64.3368"
       y="10503.036"
       width="33.572208"
       height="27.715706"
       id="rect3655-0-7" />
    <rect
       x="64.3368"
       y="10503.036"
       width="33.572208"
       height="27.715706"
       id="rect3655-0-3" />
  </defs>
  <g
     id="layer1"
     transform="translate(-43.409725,-3806.5335)">
    <rect
       style="fill:#ffffff;stroke:#ffffff;stroke-width:0.264583"
       id="rect2407-5-3-6"
       width="75.945992"
       height="72.131241"
       x="43.542015"
       y="3806.6658" />
    <text
       xml:space="preserve"
       transform="matrix(0.26458333,0,0,0.26458333,62.976044,1058.9932)"
       id="text3653-0-5"
       style="font-size:14.6667px;line-height:1.25;font-family:sans-serif;white-space:pre;shape-inside:url(#rect3655-0-7);display:inline"><tspan
         x="64.335938"
         y="10516.012"
         id="tspan12304">p9b</tspan></text>
    <text
       xml:space="preserve"
       transform="matrix(0.26458333,0,0,0.26458333,62.804087,1052.2198)"
       id="text3653-0-56"
       style="font-size:14.6667px;line-height:1.25;font-family:sans-serif;white-space:pre;shape-inside:url(#rect3655-0-3);display:inline"><tspan
         x="64.335938"
         y="10516.012"
         id="tspan12306">p9c</tspan></text>
    <path
       style="fill:none;stroke:#666666;stroke-width:0.264583px;stroke-linecap:butt;stroke-linejoin:miter;stroke-opacity:1"
       d="m 57.885537,3827.2102 2.179833,-0.1267 -0.215462,-2.3446"
       id="path2251-0-8-3-4" />
    <path
       style="fill:none;stroke:#00ff00;stroke-width:0.264583px;stroke-linecap:butt;stroke-linejoin:miter;stroke-opacity:1"
       d="m 63.055695,3838.5353 c 0,0 0.502954,-0.067 0.690224,0.069 0.242968,0.176 0.364395,0.8229 0.364395,0.8229"
       id="path3718" />
    <path
       style="fill:none;stroke:#00ff00;stroke-width:0.264583px;stroke-linecap:butt;stroke-linejoin:miter;stroke-opacity:1"
       d="m 68.409984,3827.7203 c 0,0 -0.393995,0.3197 -0.62472,0.3015 -0.299112,-0.023 -0.740399,-0.5116 -0.740399,-0.5116"
       id="path3718-3" />
    <path
       style="fill:none;stroke:#666666;stroke-width:0.264583px;stroke-linecap:butt;stroke-linejoin:miter;stroke-opacity:1"
       d="m 68.387986,3832.3058 -1.659447,0.112 0.164025,2.0727"
       id="path2251-0-8-3-0" />
    <path
       style="fill:none;stroke:#000000;stroke-width:0.264583px;stroke-linecap:butt;stroke-linejoin:miter;stroke-opacity:1"
       d="m 54.697378,3861.0531 13.42462,-36.7838"
       id="path2057-6-5-8" />
    <text
       xml:space="preserve"
       transform="matrix(0.26458333,0,0,0.26458333,26.102193,1674.236)"
       id="text2111-2-4-7"
       style="font-size:14.6667px;line-height:1.25;font-family:sans-serif;white-space:pre;shape-inside:url(#rect2113-3-6-36);display:inline"><tspan
         x="86.404297"
         y="8264.7246"
         id="tspan12308">p1</tspan></text>
    <text
       xml:space="preserve"
       transform="matrix(0.26458333,0,0,0.26458333,10.416931,1614.1078)"
       id="text2117-9-7-9"
       style="font-size:14.6667px;line-height:1.25;font-family:sans-serif;white-space:pre;shape-inside:url(#rect2119-6-2-7);display:inline"><tspan
         x="204.84375"
         y="8351.3711"
         id="tspan12310">p2</tspan></text>
    <text
       xml:space="preserve"
       transform="matrix(0.26458333,0,0,0.26458333,22.239877,1634.0113)"
       id="text2123-1-4-2"
       style="font-size:14.6667px;line-height:1.25;font-family:sans-serif;white-space:pre;shape-inside:url(#rect2125-7-9-5);display:inline"><tspan
         x="343.18164"
         y="8366.0938"
         id="tspan12312">p3</tspan></text>
    <circle
       style="fill:none;stroke:#d45500;stroke-width:0.264583"
       id="path2235-2-4-0"
       cx="68.863922"
       cy="3835.0281"
       r="10.633756" />
    <path
       style="fill:none;stroke:#666666;stroke-width:0.264583px;stroke-linecap:butt;stroke-linejoin:miter;stroke-opacity:1"
       d="m 58.052412,3837.1376 2.179833,-0.1267 -0.215462,-2.3446"
       id="path2251-0-8-3" />
    <text
       xml:space="preserve"
       transform="matrix(0.26458333,0,0,0.26458333,25.122623,1676.7684)"
       id="text1970-1-6-7"
       style="font-size:14.6667px;line-height:1.25;font-family:sans-serif;white-space:pre;shape-inside:url(#rect1972-3-27-3);display:inline"><tspan
         x="79.050781"
         y="8313.6602"
         id="tspan12314">construct cornerWidened(radius)</tspan></text>
    <path
       style="fill:none;stroke:#e6e6e6;stroke-width:0.264583"
       id="path8778-88-5"
       d="m 114.20587,3843.4581 a 33.899853,33.899853 0 0 1 -27.123826,0.4305 33.899853,33.899853 0 0 1 -18.755193,-19.5993 l 31.824089,-11.6802 z" />
    <path
       style="fill:none;stroke:#000000;stroke-width:0.264583"
       id="path8778-8-3-2"
       d="m 114.12569,3843.3109 a 33.899853,33.899853 0 0 1 -27.123824,0.4305 33.899853,33.899853 0 0 1 -18.755193,-19.5993" />
    <path
       style="fill:none;stroke:#0000ff;stroke-width:0.264583px;stroke-linecap:butt;stroke-linejoin:miter;stroke-opacity:1"
       d="M 99.990568,3812.6667 78.791031,3838.953"
       id="path9063-1-2" />
    <text
       xml:space="preserve"
       transform="matrix(0.26458333,0,0,0.26458333,24.453844,1591.1917)"
       id="text9065-49-8"
       style="font-size:14.6667px;line-height:1.25;font-family:sans-serif;white-space:pre;shape-inside:url(#rect9067-0-5);display:inline;fill:#0000ff"><tspan
         x="251.7168"
         y="8449.25"
         id="tspan12316">r2</tspan></text>
    <text
       xml:space="preserve"
       transform="matrix(0.26458333,0,0,0.26458333,-10.596352,1575.5194)"
       id="text9071-2-9"
       style="font-size:14.6667px;line-height:1.25;font-family:sans-serif;white-space:pre;shape-inside:url(#rect9073-9-6);display:inline"><tspan
         x="420.70508"
         y="8461.918"
         id="tspan12318">p5</tspan></text>
    <path
       style="fill:none;stroke:#008000;stroke-width:0.264583px;stroke-linecap:butt;stroke-linejoin:miter;stroke-opacity:1"
       d="m 68.587751,3834.5746 -0.392275,-10.3447"
       id="path2243-5-6-3" />
    <text
       xml:space="preserve"
       transform="matrix(0.26458333,0,0,0.26458333,-12.590565,1660.3632)"
       id="text2245-69-3-6"
       style="font-size:14.6667px;line-height:1.25;font-family:sans-serif;white-space:pre;shape-inside:url(#rect2247-3-7-2);display:inline;fill:#008000"><tspan
         x="307.06445"
         y="8210.7207"
         id="tspan12320">r</tspan></text>
    <text
       xml:space="preserve"
       transform="matrix(0.26458333,0,0,0.26458333,-43.643097,1141.6088)"
       id="text3940-1-4"
       style="font-size:14.6667px;line-height:1.25;font-family:sans-serif;white-space:pre;shape-inside:url(#rect3942-6-09);display:inline"><tspan
         x="423.24805"
         y="10190.342"
         id="tspan12322">p6</tspan></text>
    <text
       xml:space="preserve"
       transform="matrix(0.26458333,0,0,0.26458333,6.2555393,999.85818)"
       id="text3627-4"
       style="font-size:14.6667px;line-height:1.25;font-family:sans-serif;white-space:pre;shape-inside:url(#rect3629-6);display:inline"><tspan
         x="209.60156"
         y="10752.272"
         id="tspan12324">p8a</tspan></text>
    <text
       xml:space="preserve"
       transform="matrix(0.26458333,0,0,0.26458333,54.60262,1058.5077)"
       id="text3653-0"
       style="font-size:14.6667px;line-height:1.25;font-family:sans-serif;white-space:pre;shape-inside:url(#rect3655-0);display:inline"><tspan
         x="64.335938"
         y="10516.012"
         id="tspan12326">p9a</tspan></text>
    <path
       style="fill:none;stroke:#ff0000;stroke-width:0.264583px;stroke-linecap:butt;stroke-linejoin:miter;stroke-opacity:1"
       d="m 58.560731,3850.6426 -0.392275,-16.1649"
       id="path2243-5-6-3-3" />
    <path
       style="fill:none;stroke:#ffd5d5;stroke-width:0.264583px;stroke-linecap:butt;stroke-linejoin:miter;stroke-opacity:1"
       d="m 68.539297,3834.3664 -10.3447,0.3922"
       id="path2243-5-6-3-1" />
    <path
       style="fill:none;stroke:#ffd5d5;stroke-width:0.264583px;stroke-linecap:butt;stroke-linejoin:miter;stroke-opacity:1"
       d="m 68.706856,3834.6104 31.13923,-21.871"
       id="path3580" />
    <path
       style="fill:none;stroke:#008080;stroke-width:0.264583px;stroke-linecap:butt;stroke-linejoin:miter;stroke-opacity:1"
       d="m 89.670009,3816.5383 c 0,0 -0.300095,0.9845 -0.136793,1.4372 0.166833,0.4625 1.04493,1.0409 1.04493,1.0409"
       id="path3582" />
    <path
       style="fill:none;stroke:#008080;stroke-width:0.264583px;stroke-linecap:butt;stroke-linejoin:miter;stroke-opacity:1"
       d="m 91.756445,3818.4562 c 0,0 0.07708,1.0166 0.343114,1.4272 0.272309,0.4203 1.189699,0.9176 1.189699,0.9176"
       id="path3584" />
    <path
       style="fill:none;stroke:#008000;stroke-width:0.264583px;stroke-linecap:butt;stroke-linejoin:miter;stroke-opacity:1"
       d="m 61.560396,3842.5683 6.986967,-7.9701"
       id="path2243-5-6-3-6" />
    <text
       xml:space="preserve"
       transform="matrix(0.26458333,0,0,0.26458333,3.226524,1008.2708)"
       id="text3627-4-0"
       style="font-size:14.6667px;line-height:1.25;font-family:sans-serif;white-space:pre;shape-inside:url(#rect3629-6-2);display:inline"><tspan
         x="209.60156"
         y="10752.272"
         id="tspan12328">p8b</tspan></text>
    <text
       xml:space="preserve"
       transform="matrix(0.26458333,0,0,0.26458333,-5.55068,990.73719)"
       id="text3627-4-1"
       style="font-size:14.6667px;line-height:1.25;font-family:sans-serif;white-space:pre;shape-inside:url(#rect3629-6-6);display:inline"><tspan
         x="209.60156"
         y="10752.272"
         id="tspan12330">p8v</tspan></text>
    <path
       style="fill:none;stroke:#ffd5d5;stroke-width:0.264583px;stroke-linecap:butt;stroke-linejoin:miter;stroke-opacity:1"
       d="m 68.081186,3824.3834 -10.3447,0.3922"
       id="path2243-5-6-3-1-5" />
    <path
       style="fill:none;stroke:#ffd5d5;stroke-width:0.264583px;stroke-linecap:butt;stroke-linejoin:miter;stroke-opacity:1"
       d="m 57.836377,3824.6426 0.3922,10.3447"
       id="path2243-5-6-3-1-5-5" />
    <path
       style="fill:none;stroke:#ff0000;stroke-width:0.264583px;stroke-linecap:butt;stroke-linejoin:miter;stroke-opacity:1"
       d="m 79.923752,3839.7757 -0.392275,-6.131"
       id="path2243-5-6-3-3-3" />
    <path
       style="fill:none;stroke:#ffd5d5;stroke-width:0.264583px;stroke-linecap:butt;stroke-linejoin:miter;stroke-opacity:1"
       d="m 79.316496,3833.855 -10.3447,0.3922"
       id="path2243-5-6-3-1-6" />
  </g>
</svg>
