<?xml version="1.0" encoding="UTF-8" standalone="no"?>
<!-- Created with Inkscape (http://www.inkscape.org/) -->

<svg
   width="288.03998"
   height="428.93948"
   viewBox="0 0 76.210578 113.49024"
   version="1.1"
   id="svg5"
   xmlns="http://www.w3.org/2000/svg"
   xmlns:svg="http://www.w3.org/2000/svg">
  <defs
     id="defs2">
    <rect
       x="86.404892"
       y="8251.748"
       width="70.081017"
       height="57.682091"
       id="rect2113-3-7-3" />
    <rect
       x="204.84335"
       y="8338.3955"
       width="83.852852"
       height="42.639156"
       id="rect2119-6-9-6" />
    <rect
       x="343.1825"
       y="8353.1172"
       width="64.674751"
       height="45.493374"
       id="rect2125-7-2-0" />
    <rect
       x="307.06467"
       y="8197.7441"
       width="48.524952"
       height="24.998806"
       id="rect2247-5-0-6" />
    <rect
       x="79.050255"
       y="8300.6836"
       width="273.1701"
       height="51.164238"
       id="rect1972-3-2-2" />
    <rect
       x="251.71738"
       y="8436.2734"
       width="62.168148"
       height="32.449692"
       id="rect9067-3-61" />
    <rect
       x="420.70566"
       y="8448.9414"
       width="77.717155"
       height="48.312233"
       id="rect9073-7-8" />
    <rect
       x="450.46594"
       y="10459.747"
       width="41.233315"
       height="38.021324"
       id="rect49640-2" />
    <rect
       x="367.05576"
       y="10442.883"
       width="32.882603"
       height="25.009695"
       id="rect49648-3" />
    <rect
       x="423.24832"
       y="10177.365"
       width="36.09647"
       height="24.909346"
       id="rect3942-8" />
    <rect
       x="441.70547"
       y="10454.384"
       width="116.48731"
       height="28.208582"
       id="rect49656-3-5" />
    <rect
       x="441.70547"
       y="10454.384"
       width="116.48731"
       height="28.208582"
       id="rect49656-6" />
  </defs>
  <g
     id="layer1"
     transform="translate(-37.048004,-2881.2529)">
    <rect
       style="fill:#ffffff;stroke:#ffffff;stroke-width:0.264584"
       id="rect2407-5-5-06"
       width="75.945992"
       height="113.22585"
       x="37.180298"
       y="2881.3853" />
    <path
       style="fill:none;stroke:#cccccc;stroke-width:0.264583px;stroke-linecap:butt;stroke-linejoin:miter;stroke-opacity:1"
       d="m 42.44345,2962.8838 59.90652,-76.2836"
       id="path12249" />
    <path
       style="fill:none;stroke:#ffaaaa;stroke-width:0.264583"
       id="path12247"
       d="m 60.56563,2931.4304 a 23.120169,23.120169 0 0 1 13.297133,18.0742 23.120169,23.120169 0 0 1 -8.302833,20.8459" />
    <path
       style="fill:none;stroke:#ffaaaa;stroke-width:0.264583px;stroke-linecap:butt;stroke-linejoin:miter;stroke-opacity:1"
       d="m 62.595788,2982.0501 34.726051,-94.744"
       id="path2057-6-9-0-1" />
    <path
       style="fill:none;stroke:#000000;stroke-width:0.264583px;stroke-linecap:butt;stroke-linejoin:miter;stroke-opacity:1"
       d="m 58.38984,2962.3776 13.42461,-36.7838"
       id="path2057-6-9-0" />
    <text
       xml:space="preserve"
       transform="matrix(0.26458333,0,0,0.26458333,30.775372,777.1633)"
       id="text2111-2-2-6"
       style="font-size:14.6667px;line-height:1.25;font-family:sans-serif;white-space:pre;shape-inside:url(#rect2113-3-7-3);display:inline"><tspan
         x="86.404297"
         y="8264.7246"
         id="tspan7339">p1</tspan></text>
    <text
       xml:space="preserve"
       transform="matrix(0.26458333,0,0,0.26458333,14.878899,713.74987)"
       id="text2117-9-2-8"
       style="font-size:14.6667px;line-height:1.25;font-family:sans-serif;white-space:pre;shape-inside:url(#rect2119-6-9-6);display:inline"><tspan
         x="204.84375"
         y="8351.3711"
         id="tspan7341">p2</tspan></text>
    <text
       xml:space="preserve"
       transform="matrix(0.26458333,0,0,0.26458333,-18.172655,765.44044)"
       id="text2123-1-8-9"
       style="font-size:14.6667px;line-height:1.25;font-family:sans-serif;white-space:pre;shape-inside:url(#rect2125-7-2-0);display:inline"><tspan
         x="343.18164"
         y="8366.0938"
         id="tspan7343">p3</tspan></text>
    <circle
       style="fill:none;stroke:#d45500;stroke-width:0.264583"
       id="path2235-2-9-2"
       cx="73.92244"
       cy="2950.5139"
       r="10.633756" />
    <path
       style="fill:none;stroke:#b3b3b3;stroke-width:0.264583px;stroke-linecap:butt;stroke-linejoin:miter;stroke-opacity:1"
       d="m 58.48524,2945.1168 23.59958,8.5793"
       id="path2239-0-7-6" />
    <path
       style="fill:none;stroke:#008000;stroke-width:0.264583px;stroke-linecap:butt;stroke-linejoin:miter;stroke-opacity:1"
       d="m 73.86284,2950.6358 6.00609,8.7752"
       id="path2243-3-3-6" />
    <text
       xml:space="preserve"
       transform="matrix(0.26458333,0,0,0.26458333,-2.2399745,784.35917)"
       id="text2245-6-6-4"
       style="font-size:14.6667px;line-height:1.25;font-family:sans-serif;white-space:pre;shape-inside:url(#rect2247-5-0-6);display:inline;fill:#008000"><tspan
         x="307.06445"
         y="8210.7207"
         id="tspan7345">r</tspan></text>
    <path
       style="fill:none;stroke:#666666;stroke-width:0.264583px;stroke-linecap:butt;stroke-linejoin:miter;stroke-opacity:1"
       d="m 63.08125,2949.224 2.05055,0.7503 0.73431,-2.2371"
       id="path2251-0-1-9" />
    <text
       xml:space="preserve"
       transform="matrix(0.26458333,0,0,0.26458333,18.689082,787.51254)"
       id="text1970-1-2-5"
       style="font-size:14.6667px;line-height:1.25;font-family:sans-serif;white-space:pre;shape-inside:url(#rect1972-3-2-2);display:inline"><tspan
         x="79.050781"
         y="8313.6602"
         id="tspan7347">construct cornerRounded(radius)
</tspan><tspan
         x="79.050781"
         y="8331.9932"
         id="tspan7349">case stroke-int-arc</tspan></text>
    <path
       style="fill:none;stroke:#e6e6e6;stroke-width:0.264583"
       id="path8778-9-0"
       d="m -2628.2285,-1287.0628 a 33.899853,33.899853 0 0 1 -27.1238,0.4305 33.899853,33.899853 0 0 1 -18.7552,-19.5992 l 31.8241,-11.6802 z"
       transform="rotate(-117.49458)" />
    <path
       style="fill:none;stroke:#b3b3b3;stroke-width:0.264583px;stroke-linecap:butt;stroke-linejoin:miter;stroke-opacity:1"
       d="m 102.30749,2948.727 -51.3105,3.6469"
       id="path8881-3-4" />
    <path
       style="fill:none;stroke:#000000;stroke-width:0.264583"
       id="path8778-8-1-8"
       d="m -2628.2598,-1286.991 a 33.899853,33.899853 0 0 1 -27.1238,0.4305 33.899853,33.899853 0 0 1 -18.7552,-19.5993"
       transform="rotate(-117.49458)" />
    <path
       style="fill:none;stroke:#0000ff;stroke-width:0.264583px;stroke-linecap:butt;stroke-linejoin:miter;stroke-opacity:1"
       d="m 84.55273,2949.8447 -33.56587,2.5222"
       id="path9063-9-7" />
    <text
       xml:space="preserve"
       transform="matrix(0.26458333,0,0,0.26458333,-9.6260863,715.53604)"
       id="text9065-4-1"
       style="font-size:14.6667px;line-height:1.25;font-family:sans-serif;white-space:pre;shape-inside:url(#rect9067-3-61);display:inline;fill:#0000ff"><tspan
         x="251.7168"
         y="8449.25"
         id="tspan7351">r2</tspan></text>
    <text
       xml:space="preserve"
       transform="matrix(0.26458333,0,0,0.26458333,-62.983442,712.73089)"
       id="text9071-7-72"
       style="font-size:14.6667px;line-height:1.25;font-family:sans-serif;white-space:pre;shape-inside:url(#rect9073-7-8);display:inline"><tspan
         x="420.70508"
         y="8461.918"
         id="tspan7353">p4</tspan></text>
    <path
       style="fill:none;stroke:#ff00ff;stroke-width:0.264583px;stroke-linecap:butt;stroke-linejoin:miter;stroke-opacity:1"
       d="m 88.419715,2904.5458 c 0,0 0.413898,1.1742 0.874112,1.547 0.318975,0.2584 1.174597,0.3702 1.174597,0.3702"
       id="path12251" />
    <text
       xml:space="preserve"
       transform="matrix(0.26458333,0,0,0.26458333,-24.374175,129.16217)"
       id="text49638-7"
       style="font-size:12px;line-height:1.25;font-family:sans-serif;white-space:pre;shape-inside:url(#rect49640-2);display:inline;fill:#ff00ff"><tspan
         x="450.4668"
         y="10470.363"
         id="tspan7355">1:pA</tspan></text>
    <text
       xml:space="preserve"
       transform="matrix(0.26458333,0,0,0.26458333,-24.472404,147.11746)"
       id="text49646-6"
       style="font-size:12px;line-height:1.25;font-family:sans-serif;white-space:pre;shape-inside:url(#rect49648-3);display:inline;fill:#ff00ff"><tspan
         x="367.05664"
         y="10453.5"
         id="tspan7357">2:lA4</tspan></text>
    <path
       style="fill:none;stroke:#ff00ff;stroke-width:0.264583px;stroke-linecap:butt;stroke-linejoin:miter;stroke-opacity:1"
       d="m 50.869918,2952.2535 42.937126,-54.6894"
       id="path12249-0" />
    <text
       xml:space="preserve"
       transform="matrix(0.26458333,0,0,0.26458333,-43.587575,257.86602)"
       id="text3940-7"
       style="font-size:14.6667px;line-height:1.25;font-family:sans-serif;white-space:pre;shape-inside:url(#rect3942-8);display:inline"><tspan
         x="423.24805"
         y="10190.342"
         id="tspan7359">p7</tspan></text>
    <text
       xml:space="preserve"
       transform="matrix(0.26458333,0,0,0.26458333,-60.563292,161.60031)"
       id="text49654-6-3"
       style="font-size:12px;line-height:1.25;font-family:sans-serif;white-space:pre;shape-inside:url(#rect49656-3-5);display:inline;fill:#ff00ff"><tspan
         x="441.70508"
         y="10465"
         id="tspan7361">3:a124</tspan></text>
    <path
       style="fill:none;stroke:#ff00ff;stroke-width:0.264583px;stroke-linecap:butt;stroke-linejoin:miter;stroke-opacity:1"
       d="m 66.84944,2931.6031 c 0,0 0.413898,1.1742 0.874112,1.547 0.318975,0.2584 1.174597,0.3702 1.174597,0.3702"
       id="path12251-5" />
    <text
       xml:space="preserve"
       transform="matrix(0.26458333,0,0,0.26458333,-25.676514,139.94141)"
       id="text49654-2"
       style="font-size:12px;line-height:1.25;font-family:sans-serif;white-space:pre;shape-inside:url(#rect49656-6);display:inline;fill:#ff00ff"><tspan
         x="441.70508"
         y="10465"
         id="tspan7363">4:aA=a124</tspan></text>
  </g>
</svg>
